%TF.GenerationSoftware,KiCad,Pcbnew,8.0.6*%
%TF.CreationDate,2024-11-23T21:07:21+07:00*%
%TF.ProjectId,NO2C,4e4f3243-2e6b-4696-9361-645f70636258,vD1*%
%TF.SameCoordinates,Original*%
%TF.FileFunction,Copper,L4,Bot*%
%TF.FilePolarity,Positive*%
%FSLAX46Y46*%
G04 Gerber Fmt 4.6, Leading zero omitted, Abs format (unit mm)*
G04 Created by KiCad (PCBNEW 8.0.6) date 2024-11-23 21:07:21*
%MOMM*%
%LPD*%
G01*
G04 APERTURE LIST*
%TA.AperFunction,ComponentPad*%
%ADD10O,1.600000X1.600000*%
%TD*%
%TA.AperFunction,ComponentPad*%
%ADD11R,1.600000X1.600000*%
%TD*%
%TA.AperFunction,ComponentPad*%
%ADD12C,2.250000*%
%TD*%
%TA.AperFunction,ComponentPad*%
%ADD13C,5.100000*%
%TD*%
%TA.AperFunction,ComponentPad*%
%ADD14R,1.700000X1.700000*%
%TD*%
%TA.AperFunction,ComponentPad*%
%ADD15O,1.700000X1.700000*%
%TD*%
%TA.AperFunction,ComponentPad*%
%ADD16C,0.800000*%
%TD*%
%TA.AperFunction,ComponentPad*%
%ADD17C,6.400000*%
%TD*%
%TA.AperFunction,ComponentPad*%
%ADD18O,2.100000X1.000000*%
%TD*%
%TA.AperFunction,ComponentPad*%
%ADD19O,1.800000X1.000000*%
%TD*%
%TA.AperFunction,ViaPad*%
%ADD20C,0.600000*%
%TD*%
%TA.AperFunction,Conductor*%
%ADD21C,0.250000*%
%TD*%
%TA.AperFunction,Conductor*%
%ADD22C,1.000000*%
%TD*%
%TA.AperFunction,Conductor*%
%ADD23C,0.500000*%
%TD*%
%TA.AperFunction,Conductor*%
%ADD24C,0.300000*%
%TD*%
%TA.AperFunction,Conductor*%
%ADD25C,0.200000*%
%TD*%
G04 APERTURE END LIST*
D10*
%TO.P,IC4,1,P1*%
%TO.N,/ENBL*%
X11150000Y1902000D03*
%TO.P,IC4,2,P2*%
%TO.N,unconnected-(IC4-P2-Pad2)*%
X13690000Y1902000D03*
%TO.P,IC4,3,P3*%
%TO.N,unconnected-(IC4-P3-Pad3)*%
X16230000Y1902000D03*
%TO.P,IC4,4,P4*%
%TO.N,unconnected-(IC4-P4-Pad4)*%
X18770000Y1902000D03*
%TO.P,IC4,5,P5*%
%TO.N,+5V*%
X21310000Y1902000D03*
%TO.P,IC4,6,P6*%
X23850000Y1902000D03*
%TO.P,IC4,7,P7*%
%TO.N,/STEP*%
X26390000Y1902000D03*
%TO.P,IC4,8,P8*%
%TO.N,/DIR*%
X28930000Y1902000D03*
D11*
%TO.P,IC4,9,P9*%
%TO.N,GND*%
X28930000Y14602000D03*
D10*
%TO.P,IC4,10,P10*%
%TO.N,unconnected-(IC4-P10-Pad10)*%
X26390000Y14602000D03*
%TO.P,IC4,11,P11*%
%TO.N,/STP-A2*%
X23850000Y14602000D03*
%TO.P,IC4,12,P12*%
%TO.N,/STP-A1*%
X21310000Y14602000D03*
%TO.P,IC4,13,P13*%
%TO.N,/STP-B1*%
X18770000Y14602000D03*
%TO.P,IC4,14,P14*%
%TO.N,/STP-B2*%
X16230000Y14602000D03*
D11*
%TO.P,IC4,15,P15*%
%TO.N,Earth*%
X13690000Y14602000D03*
D10*
%TO.P,IC4,16,P16*%
%TO.N,+12V*%
X11150000Y14602000D03*
%TD*%
D12*
%TO.P,J1,1,1*%
%TO.N,+BATT*%
X10937500Y44000000D03*
%TO.P,J1,2,2*%
%TO.N,VR1+*%
X10937500Y41000000D03*
%TO.P,J1,3,3*%
%TO.N,/VR1-*%
X10937500Y38000000D03*
%TO.P,J1,4,4*%
%TO.N,/IGN1*%
X10937500Y35000000D03*
%TO.P,J1,5,5*%
%TO.N,/IGN2*%
X10937500Y32000000D03*
%TO.P,J1,6,6*%
%TO.N,/STP-A1*%
X10937500Y29000000D03*
%TO.P,J1,7,7*%
%TO.N,/STP-A2*%
X10937500Y26000000D03*
%TO.P,J1,8,8*%
%TO.N,/STP-B2*%
X10937500Y23000000D03*
%TO.P,J1,9,9*%
%TO.N,/STP-B1*%
X10937500Y20000000D03*
%TO.P,J1,10,10*%
%TO.N,+5V*%
X13437500Y42500000D03*
%TO.P,J1,11,11*%
%TO.N,GND*%
X13437500Y39500000D03*
%TO.P,J1,12,12*%
%TO.N,/VR2-*%
X13437500Y36500000D03*
%TO.P,J1,13,13*%
%TO.N,VR2+*%
X13437500Y33500000D03*
%TO.P,J1,14,14*%
%TO.N,/TACHO*%
X13437500Y30500000D03*
%TO.P,J1,15,15*%
%TO.N,IP*%
X13437500Y27500000D03*
%TO.P,J1,16,16*%
%TO.N,IA*%
X13437500Y24500000D03*
%TO.P,J1,17,17*%
%TO.N,/IDLE*%
X13437500Y21500000D03*
%TO.P,J1,18,18*%
%TO.N,GND*%
X16437500Y42500000D03*
%TO.P,J1,19,19*%
%TO.N,/LAUNCH*%
X16437500Y39500000D03*
%TO.P,J1,20,20*%
%TO.N,GND*%
X16437500Y36500000D03*
%TO.P,J1,21,21*%
%TO.N,UN*%
X16437500Y33500000D03*
%TO.P,J1,22,22*%
%TO.N,VM*%
X16437500Y30500000D03*
%TO.P,J1,23,23*%
%TO.N,HEAT-*%
X16437500Y27500000D03*
%TO.P,J1,24,24*%
%TO.N,CANH*%
X16437500Y24500000D03*
%TO.P,J1,25,25*%
%TO.N,CANL*%
X16437500Y21500000D03*
%TO.P,J1,26,26*%
%TO.N,/O2*%
X18937500Y44000000D03*
%TO.P,J1,27,27*%
%TO.N,/TPS*%
X18937500Y41000000D03*
%TO.P,J1,28,28*%
%TO.N,/CLT*%
X18937500Y38000000D03*
%TO.P,J1,29,29*%
%TO.N,/IAT*%
X18937500Y35000000D03*
%TO.P,J1,30,30*%
%TO.N,/INJ1*%
X18937500Y32000000D03*
%TO.P,J1,31,31*%
%TO.N,/INJ2*%
X18937500Y29000000D03*
%TO.P,J1,32,32*%
%TO.N,/VVT*%
X18937500Y26000000D03*
%TO.P,J1,33,33*%
%TO.N,/BOOST*%
X18937500Y23000000D03*
%TO.P,J1,34,34*%
%TO.N,/FUELP*%
X18937500Y20000000D03*
D13*
%TO.P,J1,MH1,MH1*%
%TO.N,GND*%
X4437500Y51250000D03*
%TO.P,J1,MH2,MH2*%
X4437500Y12750000D03*
%TD*%
D14*
%TO.P,P1,1,Pin_1*%
%TO.N,+3.3V*%
X101500000Y47170000D03*
D15*
%TO.P,P1,2,Pin_2*%
%TO.N,/SWDIO*%
X101500000Y49710000D03*
%TO.P,P1,3,Pin_3*%
%TO.N,/SWCLK*%
X101500000Y52250000D03*
%TO.P,P1,4,Pin_4*%
%TO.N,GND*%
X101500000Y54790000D03*
%TD*%
D16*
%TO.P,REF\u002A\u002A,1*%
%TO.N,N/C*%
X1100000Y60500000D03*
X1802944Y62197056D03*
X1802944Y58802944D03*
X3500000Y62900000D03*
D17*
X3500000Y60500000D03*
D16*
X3500000Y58100000D03*
X5197056Y62197056D03*
X5197056Y58802944D03*
X5900000Y60500000D03*
%TD*%
%TO.P,REF\u002A\u002A,1*%
%TO.N,N/C*%
X1100000Y3500000D03*
X1802944Y5197056D03*
X1802944Y1802944D03*
X3500000Y5900000D03*
D17*
X3500000Y3500000D03*
D16*
X3500000Y1100000D03*
X5197056Y5197056D03*
X5197056Y1802944D03*
X5900000Y3500000D03*
%TD*%
%TO.P,REF\u002A\u002A,1*%
%TO.N,N/C*%
X98850000Y60500000D03*
X99552944Y62197056D03*
X99552944Y58802944D03*
X101250000Y62900000D03*
D17*
X101250000Y60500000D03*
D16*
X101250000Y58100000D03*
X102947056Y62197056D03*
X102947056Y58802944D03*
X103650000Y60500000D03*
%TD*%
%TO.P,REF\u002A\u002A,1*%
%TO.N,N/C*%
X98850000Y3500000D03*
X99552944Y5197056D03*
X99552944Y1802944D03*
X101250000Y5900000D03*
D17*
X101250000Y3500000D03*
D16*
X101250000Y1100000D03*
X102947056Y5197056D03*
X102947056Y1802944D03*
X103650000Y3500000D03*
%TD*%
D14*
%TO.P,JP1,1,1*%
%TO.N,+5V*%
X47250000Y29210000D03*
D15*
%TO.P,JP1,2,2*%
%TO.N,Net-(IC1-VDD)*%
X47250000Y31750000D03*
%TO.P,JP1,3,3*%
%TO.N,+12V*%
X47250000Y34290000D03*
%TD*%
D18*
%TO.P,J2,S1,SHIELD*%
%TO.N,GND*%
X99145000Y34055000D03*
D19*
X103325000Y34055000D03*
D18*
X99145000Y42695000D03*
D19*
X103325000Y42695000D03*
%TD*%
D14*
%TO.P,P4,1,Pin_1*%
%TO.N,/PA10*%
X82100000Y61750000D03*
D15*
%TO.P,P4,2,Pin_2*%
%TO.N,/PA9*%
X79560000Y61750000D03*
%TO.P,P4,3,Pin_3*%
%TO.N,GND*%
X77020000Y61750000D03*
%TO.P,P4,4,Pin_4*%
%TO.N,+5V*%
X74480000Y61750000D03*
%TD*%
D20*
%TO.N,GND*%
X8100000Y875000D03*
X8050000Y3925000D03*
X8025000Y6600000D03*
%TO.N,+5V*%
X32750000Y53500000D03*
X102225000Y16775000D03*
X31500000Y53500000D03*
X91500000Y18650000D03*
X81000000Y15000000D03*
X102800000Y24050000D03*
X95900000Y47950000D03*
X42500000Y4750000D03*
X8050000Y56250000D03*
%TO.N,+12V*%
X98750000Y9500000D03*
X25500000Y25550000D03*
X14450000Y53250000D03*
X49750000Y7250000D03*
X58500000Y2750000D03*
X46000000Y43750000D03*
X49750000Y6250000D03*
X49750000Y8250000D03*
X24200000Y25550000D03*
X74500000Y2750000D03*
X73250000Y2750000D03*
X59750000Y2750000D03*
%TO.N,/PA3*%
X58000000Y37300000D03*
X34000000Y41950000D03*
%TO.N,/PA4*%
X34500000Y38050000D03*
X57350000Y36450000D03*
%TO.N,/PA5*%
X58100000Y35650000D03*
X34500000Y34475000D03*
%TO.N,/STEP*%
X67000000Y17850000D03*
X69750000Y21500000D03*
%TO.N,/DIR*%
X70000000Y20250000D03*
X68150000Y17850000D03*
%TO.N,/ENBL*%
X65800000Y17850000D03*
X68300000Y21200000D03*
%TO.N,/VR1-*%
X34250000Y5750000D03*
%TO.N,/VR2-*%
X34250000Y8000000D03*
%TO.N,/FUELP*%
X65750000Y4250000D03*
X65750000Y2750000D03*
%TO.N,/BOOST*%
X67500000Y4250000D03*
X67500000Y2750000D03*
%TO.N,/IDLE*%
X51750000Y2750000D03*
X52750000Y2750000D03*
%TO.N,/IGN2*%
X55750000Y40250000D03*
%TO.N,/IGN1*%
X48750000Y40000000D03*
%TO.N,/TACHO*%
X51250000Y48000000D03*
%TO.N,/VVT*%
X80500000Y4000000D03*
X80500000Y2750000D03*
%TO.N,/LAUNCH*%
X62750000Y27250000D03*
%TO.N,/PD11*%
X69250000Y25000000D03*
X46750000Y15250000D03*
%TO.N,Net-(D5-COM)*%
X68750000Y28750000D03*
X62750000Y25750000D03*
%TO.N,/PA2*%
X34900000Y45800000D03*
X57400000Y38200000D03*
%TO.N,/PD10*%
X68250000Y25000000D03*
X41250000Y15250000D03*
%TO.N,/PA0*%
X64000000Y44250000D03*
X59500000Y50750000D03*
%TO.N,/PA1*%
X57850000Y39150000D03*
X43500000Y38750000D03*
%TO.N,Net-(D20-COM)*%
X85750000Y41750000D03*
X84750000Y20500000D03*
%TO.N,Net-(D21-COM)*%
X83250000Y20500000D03*
X85750000Y40250000D03*
%TO.N,CANL*%
X84500000Y7750000D03*
%TO.N,CANH*%
X85750000Y7750000D03*
%TO.N,+BATT*%
X36250000Y48500000D03*
X11000000Y53500000D03*
%TO.N,VR2+*%
X34250000Y9500000D03*
%TO.N,VR1+*%
X34250000Y4250000D03*
%TO.N,/PD8*%
X60500000Y34750000D03*
X39500000Y32500000D03*
%TO.N,/PD14*%
X57500000Y34700000D03*
X54250000Y47000000D03*
%TO.N,HEAT-*%
X103825000Y21050000D03*
X91500000Y4250000D03*
%TO.N,/PD9*%
X42750000Y24750000D03*
X60500000Y33250000D03*
%TO.N,/SWDIO*%
X73275000Y24275000D03*
%TO.N,Net-(U2-NRST)*%
X68750000Y44500000D03*
X71500000Y60750000D03*
%TO.N,GND*%
X24100000Y42200000D03*
X42750000Y40000000D03*
X73250000Y36000000D03*
X34000000Y63000000D03*
X61750000Y54000000D03*
X64750000Y38500000D03*
X70250000Y29000000D03*
X38500000Y12000000D03*
X68750000Y32750000D03*
X29750000Y63000000D03*
X12250000Y61250000D03*
X34950000Y44300000D03*
X55500000Y20000000D03*
X63700000Y48650000D03*
X12250000Y59500000D03*
X93000000Y36500000D03*
X92900000Y28150000D03*
X63250000Y42000000D03*
X30250000Y43650000D03*
X69050000Y14700000D03*
X94000000Y13250000D03*
X76500000Y36000000D03*
X72250000Y47000000D03*
X84500000Y13000000D03*
X73500000Y57350000D03*
X73450000Y15700000D03*
X68750000Y30250000D03*
X96500000Y31250000D03*
X86250000Y14500000D03*
X46750000Y63250000D03*
X44000000Y57050000D03*
X61750000Y52250000D03*
X96500000Y35000000D03*
X52700000Y47400000D03*
X79000000Y20750000D03*
X91500000Y29500000D03*
X89250000Y39250000D03*
X76500000Y34250000D03*
X93250000Y56750000D03*
X13500000Y48500000D03*
X67500000Y58000000D03*
X91500000Y43000000D03*
X93250000Y31950000D03*
X69650000Y55550000D03*
X85700000Y26500000D03*
X88250000Y20250000D03*
X40750000Y38500000D03*
X89500000Y36500000D03*
X103900000Y32450000D03*
X92750000Y13250000D03*
X75650000Y57350000D03*
X66250000Y40750000D03*
X95500000Y61750000D03*
X65000000Y40750000D03*
X87250000Y61750000D03*
X76750000Y51750000D03*
X86750000Y43000000D03*
X33000000Y48000000D03*
X86050000Y16050000D03*
X60000000Y61000000D03*
X30750000Y36250000D03*
X43000000Y31000000D03*
X62250000Y48650000D03*
X86250000Y35250000D03*
X74750000Y49750000D03*
X84500000Y52500000D03*
X31000000Y47250000D03*
X55750000Y41750000D03*
X71500000Y39500000D03*
X82250000Y28650000D03*
X24250000Y40500000D03*
X88250000Y21500000D03*
X87500000Y56750000D03*
X18750000Y63000000D03*
X48150000Y5900000D03*
X98600000Y27400000D03*
X21750000Y46500000D03*
X68750000Y36000000D03*
X21750000Y45250000D03*
X88250000Y7000000D03*
X68750000Y39500000D03*
X54500000Y20000000D03*
X36250000Y60000000D03*
X43000000Y29000000D03*
X88250000Y8750000D03*
X55000000Y30650000D03*
X97500000Y16950000D03*
X64750000Y36000000D03*
X28500000Y63000000D03*
X34950000Y43000000D03*
X63950000Y55450000D03*
X74500000Y55500000D03*
X71400000Y32750000D03*
X40250000Y41250000D03*
X66750000Y29000000D03*
X84500000Y56750000D03*
X96400000Y16950000D03*
X59250000Y24750000D03*
X76500000Y38750000D03*
X76500000Y37500000D03*
X89000000Y33500000D03*
X61500000Y42000000D03*
X73000000Y45750000D03*
X76500000Y28800000D03*
X18500000Y47750000D03*
X98600000Y29350000D03*
X35625000Y41375000D03*
X84600000Y28650000D03*
X89750000Y61750000D03*
X68750000Y46000000D03*
X16750000Y47750000D03*
X83900000Y36750000D03*
X61750000Y50500000D03*
X61850000Y55400000D03*
X90750000Y56750000D03*
X12250000Y63000000D03*
X75300000Y14350000D03*
X65500000Y58000000D03*
X82000000Y26450000D03*
X93250000Y52500000D03*
X69100000Y16700000D03*
X55200000Y28700000D03*
X82500000Y14750000D03*
X35750000Y63000000D03*
X52750000Y24250000D03*
X60250000Y16500000D03*
X76750000Y49750000D03*
X37000000Y16250000D03*
X66400000Y14700000D03*
X38000000Y41250000D03*
X45250000Y32750000D03*
X63500000Y60000000D03*
X87450000Y16050000D03*
X48200000Y4600000D03*
X44000000Y53000000D03*
X103825000Y12675000D03*
X89250000Y43000000D03*
X90500000Y31950000D03*
X59000000Y16500000D03*
X98600000Y25800000D03*
X42250000Y63250000D03*
X96500000Y33000000D03*
X99000000Y32000000D03*
X87000000Y38000000D03*
X45500000Y15750000D03*
X73250000Y49750000D03*
X61500000Y16500000D03*
X38500000Y16250000D03*
X20250000Y63000000D03*
X96500000Y7250000D03*
X54000000Y24250000D03*
X72000000Y48250000D03*
X93750000Y34000000D03*
X92500000Y61750000D03*
X36250000Y57500000D03*
X66800000Y48600000D03*
X36450000Y34500000D03*
X69500000Y58000000D03*
X87500000Y52500000D03*
X76750000Y53750000D03*
X90750000Y52750000D03*
X92250000Y7250000D03*
X27500000Y48000000D03*
X64750000Y33750000D03*
X57000000Y56000000D03*
X76750000Y55500000D03*
X89000000Y48250000D03*
X60500000Y23500000D03*
X83900000Y38700000D03*
X26250000Y36275000D03*
X91750000Y48000000D03*
X68400000Y55550000D03*
X15000000Y47750000D03*
X73250000Y38500000D03*
X76500000Y30400000D03*
X86250000Y13000000D03*
X43250000Y6480000D03*
X14250000Y63000000D03*
X103900000Y31000000D03*
X77800000Y57400000D03*
%TO.N,/SWCLK*%
X80200000Y28000000D03*
%TO.N,/DIAHG*%
X90600000Y24550000D03*
X98500000Y16000000D03*
%TO.N,+3.3V*%
X61750000Y59750000D03*
X49500000Y10000000D03*
X57625000Y23750000D03*
X84950000Y47170000D03*
X60600000Y30300000D03*
X56625000Y51625000D03*
X60000000Y43000000D03*
X33750000Y43500000D03*
X43250000Y45500000D03*
X83500000Y35250000D03*
X26250000Y40000000D03*
X56000000Y35125000D03*
X42000000Y11250000D03*
X24750000Y36250000D03*
X34250000Y47000000D03*
X84500000Y24250000D03*
X39750000Y15500000D03*
X43750000Y59000000D03*
X79100000Y22350000D03*
X75750000Y18250000D03*
X34500000Y36225000D03*
%TO.N,/PA9*%
X72575000Y25275000D03*
%TO.N,/PA10*%
X73900000Y24900000D03*
%TO.N,/USB_D-*%
X91600000Y37350000D03*
X73750000Y28750000D03*
%TO.N,/USB_D+*%
X75000000Y28750000D03*
X91600000Y38400000D03*
X101700000Y39650000D03*
X100400000Y38050000D03*
%TO.N,/UA*%
X95200000Y15050000D03*
X92800000Y23450000D03*
%TO.N,/SPI3_MISO*%
X92900000Y21850000D03*
X90300000Y23050000D03*
%TO.N,/SS3*%
X74000000Y40750000D03*
X91700000Y21950000D03*
X84700000Y32050000D03*
X91700000Y23450000D03*
%TO.N,/SPI3_MOSI*%
X93800000Y20850000D03*
X89500000Y24450000D03*
%TO.N,UN*%
X88750000Y10500000D03*
%TO.N,IP*%
X103825000Y10250000D03*
%TO.N,IA*%
X88750000Y12750000D03*
X101250000Y11500000D03*
%TO.N,VM*%
X100200000Y25150000D03*
X89250000Y16000000D03*
X95250000Y16000000D03*
%TD*%
D21*
%TO.N,/PA3*%
X34000000Y39750000D02*
X34700000Y39050000D01*
X34000000Y41950000D02*
X34000000Y39750000D01*
X34700000Y39050000D02*
X36450000Y39050000D01*
X38750000Y36750000D02*
X36450000Y39050000D01*
%TO.N,/LAUNCH*%
X62500000Y27500000D02*
X62750000Y27250000D01*
X35250000Y27500000D02*
X62500000Y27500000D01*
X22700000Y29750000D02*
X33000000Y29750000D01*
X21600000Y30850000D02*
X22700000Y29750000D01*
X21600000Y38750000D02*
X21600000Y30850000D01*
X20850000Y39500000D02*
X21600000Y38750000D01*
X16437500Y39500000D02*
X20850000Y39500000D01*
X33000000Y29750000D02*
X35250000Y27500000D01*
D22*
%TO.N,+12V*%
X96500000Y5000000D02*
X98750000Y7250000D01*
X96000000Y750000D02*
X96500000Y1250000D01*
X96500000Y1250000D02*
X96500000Y5000000D01*
X76575000Y750000D02*
X96000000Y750000D01*
X74575000Y2750000D02*
X76575000Y750000D01*
X98750000Y7250000D02*
X98750000Y9500000D01*
X74500000Y2750000D02*
X74575000Y2750000D01*
%TO.N,/VVT*%
X80500000Y4000000D02*
X80500000Y2750000D01*
D21*
%TO.N,IA*%
X91000000Y15000000D02*
X88750000Y12750000D01*
X89000000Y18750000D02*
X91000000Y16750000D01*
X79250000Y18750000D02*
X89000000Y18750000D01*
X77250000Y20750000D02*
X79250000Y18750000D01*
X74000000Y20750000D02*
X77250000Y20750000D01*
X71000000Y23750000D02*
X74000000Y20750000D01*
X67000000Y23750000D02*
X71000000Y23750000D01*
X64500000Y26250000D02*
X67000000Y23750000D01*
X64500000Y29750000D02*
X64500000Y26250000D01*
X61850000Y32400000D02*
X64500000Y29750000D01*
X53923150Y51901850D02*
X56250000Y49575000D01*
X91000000Y16750000D02*
X91000000Y15000000D01*
X9901850Y51901850D02*
X53923150Y51901850D01*
X4500000Y46500000D02*
X9901850Y51901850D01*
X61850000Y38900000D02*
X61850000Y32400000D01*
X56250000Y49575000D02*
X56250000Y44500000D01*
X7500000Y24500000D02*
X4500000Y27500000D01*
X13437500Y24500000D02*
X7500000Y24500000D01*
X4500000Y27500000D02*
X4500000Y46500000D01*
X56250000Y44500000D02*
X61850000Y38900000D01*
%TO.N,IP*%
X7250000Y27500000D02*
X13437500Y27500000D01*
X53650000Y51350000D02*
X10975000Y51350000D01*
X55750000Y44250000D02*
X55750000Y49250000D01*
X61275000Y38725000D02*
X55750000Y44250000D01*
X55750000Y49250000D02*
X53650000Y51350000D01*
X64000000Y26000000D02*
X64000000Y29500000D01*
X5500000Y29250000D02*
X7250000Y27500000D01*
X66750000Y23250000D02*
X64000000Y26000000D01*
X70750000Y23250000D02*
X66750000Y23250000D01*
X10975000Y51350000D02*
X5500000Y45875000D01*
X73750000Y20250000D02*
X70750000Y23250000D01*
X77000000Y20250000D02*
X73750000Y20250000D01*
X79000000Y18250000D02*
X77000000Y20250000D01*
X88750000Y18250000D02*
X79000000Y18250000D01*
X90500000Y15250000D02*
X90500000Y16500000D01*
X88000000Y13750000D02*
X89000000Y14750000D01*
X90000000Y14750000D02*
X90500000Y15250000D01*
X61275000Y32225000D02*
X61275000Y38725000D01*
X88000000Y12000000D02*
X88000000Y13750000D01*
X64000000Y29500000D02*
X61275000Y32225000D01*
X100000000Y11500000D02*
X88500000Y11500000D01*
X5500000Y45875000D02*
X5500000Y29250000D01*
X88500000Y11500000D02*
X88000000Y12000000D01*
X101250000Y10250000D02*
X100000000Y11500000D01*
X89000000Y14750000D02*
X90000000Y14750000D01*
X90500000Y16500000D02*
X88750000Y18250000D01*
X103825000Y10250000D02*
X101250000Y10250000D01*
D23*
%TO.N,HEAT-*%
X89750000Y2500000D02*
X91500000Y4250000D01*
X85000000Y2500000D02*
X89750000Y2500000D01*
X82000000Y5500000D02*
X85000000Y2500000D01*
X61750000Y11250000D02*
X72250000Y11250000D01*
X32500000Y25750000D02*
X47250000Y25750000D01*
X47250000Y25750000D02*
X61750000Y11250000D01*
X78000000Y5500000D02*
X82000000Y5500000D01*
X31250000Y27000000D02*
X32500000Y25750000D01*
X72250000Y11250000D02*
X78000000Y5500000D01*
X22000000Y27000000D02*
X31250000Y27000000D01*
X21500000Y27500000D02*
X22000000Y27000000D01*
X20000000Y27500000D02*
X21500000Y27500000D01*
%TO.N,+3.3V*%
X57650000Y23750000D02*
X57625000Y23750000D01*
X63000000Y15000000D02*
X63000000Y18400000D01*
X70000000Y13500000D02*
X64500000Y13500000D01*
X71750000Y17475000D02*
X71750000Y15250000D01*
X71750000Y15250000D02*
X70000000Y13500000D01*
X72525000Y18250000D02*
X71750000Y17475000D01*
X63000000Y18400000D02*
X57650000Y23750000D01*
X75750000Y18250000D02*
X72525000Y18250000D01*
X64500000Y13500000D02*
X63000000Y15000000D01*
D21*
%TO.N,/SWDIO*%
X101480000Y49690000D02*
X101500000Y49710000D01*
X81840000Y49690000D02*
X101480000Y49690000D01*
X81150000Y35000000D02*
X81150000Y49000000D01*
X77600000Y31450000D02*
X81150000Y35000000D01*
X74750000Y31450000D02*
X77600000Y31450000D01*
X81150000Y49000000D02*
X81840000Y49690000D01*
X72950000Y27775000D02*
X72950000Y29650000D01*
X75975000Y24750000D02*
X72950000Y27775000D01*
X77050000Y24750000D02*
X75975000Y24750000D01*
X79150000Y26850000D02*
X77050000Y24750000D01*
X79150000Y28350000D02*
X79150000Y26850000D01*
X79750000Y28950000D02*
X79150000Y28350000D01*
X81100000Y28500000D02*
X80650000Y28950000D01*
X77525000Y23725000D02*
X81100000Y27300000D01*
X81100000Y27300000D02*
X81100000Y28500000D01*
X73825000Y23725000D02*
X77525000Y23725000D01*
X72950000Y29650000D02*
X74750000Y31450000D01*
X80650000Y28950000D02*
X79750000Y28950000D01*
X73275000Y24275000D02*
X73825000Y23725000D01*
%TO.N,/PA9*%
X79500000Y61690000D02*
X79560000Y61750000D01*
X79500000Y35700000D02*
X79500000Y61690000D01*
X76850000Y33050000D02*
X79500000Y35700000D01*
X71450000Y26400000D02*
X71450000Y30450000D01*
X72575000Y25275000D02*
X71450000Y26400000D01*
X71450000Y30450000D02*
X74050000Y33050000D01*
X74050000Y33050000D02*
X76850000Y33050000D01*
%TO.N,/PA10*%
X77100000Y32500000D02*
X80060000Y35460000D01*
X80060000Y59710000D02*
X82100000Y61750000D01*
X71950000Y30200000D02*
X74250000Y32500000D01*
X74250000Y32500000D02*
X77100000Y32500000D01*
X71950000Y27300000D02*
X71950000Y30200000D01*
X80060000Y35460000D02*
X80060000Y59710000D01*
X73900000Y25350000D02*
X71950000Y27300000D01*
X73900000Y24900000D02*
X73900000Y25350000D01*
%TO.N,/SWCLK*%
X99450000Y50200000D02*
X101500000Y52250000D01*
X81250000Y50200000D02*
X99450000Y50200000D01*
X80600000Y49550000D02*
X81250000Y50200000D01*
X80600000Y35250000D02*
X80600000Y49550000D01*
X74500000Y32000000D02*
X77350000Y32000000D01*
X72450000Y29950000D02*
X74500000Y32000000D01*
X72450000Y27525000D02*
X72450000Y29950000D01*
X75725000Y24250000D02*
X72450000Y27525000D01*
X77300000Y24250000D02*
X75725000Y24250000D01*
X80200000Y27150000D02*
X77300000Y24250000D01*
X80200000Y28000000D02*
X80200000Y27150000D01*
X77350000Y32000000D02*
X80600000Y35250000D01*
%TO.N,/SPI3_MOSI*%
X89500000Y22000000D02*
X89500000Y24450000D01*
X93600000Y20650000D02*
X90850000Y20650000D01*
X90850000Y20650000D02*
X89500000Y22000000D01*
X93800000Y20850000D02*
X93600000Y20650000D01*
%TO.N,/SPI3_MISO*%
X91050000Y21200000D02*
X90300000Y21950000D01*
X90300000Y21950000D02*
X90300000Y23050000D01*
X92900000Y21850000D02*
X92250000Y21200000D01*
X92250000Y21200000D02*
X91050000Y21200000D01*
%TO.N,/SS3*%
X91700000Y21950000D02*
X91700000Y23450000D01*
%TO.N,HEAT-*%
X20000000Y27500000D02*
X16437500Y27500000D01*
D22*
%TO.N,+5V*%
X21310000Y3690000D02*
X16750000Y8250000D01*
X750000Y10500000D02*
X750000Y54000000D01*
D23*
X31250000Y2250000D02*
X29500000Y4000000D01*
X25250000Y4000000D02*
X23850000Y2600000D01*
D22*
X21310000Y1902000D02*
X21310000Y3690000D01*
X3000000Y8250000D02*
X750000Y10500000D01*
X7050000Y55250000D02*
X8050000Y56250000D01*
D23*
X42500000Y4750000D02*
X42500000Y3750000D01*
X23850000Y2600000D02*
X23850000Y1902000D01*
D22*
X2000000Y55250000D02*
X7050000Y55250000D01*
D23*
X41000000Y2250000D02*
X31250000Y2250000D01*
D22*
X16750000Y8250000D02*
X3000000Y8250000D01*
D23*
X42500000Y3750000D02*
X41000000Y2250000D01*
D22*
X750000Y54000000D02*
X2000000Y55250000D01*
D23*
X29500000Y4000000D02*
X25250000Y4000000D01*
D22*
%TO.N,+12V*%
X53750000Y1250000D02*
X50750000Y1250000D01*
X61000000Y2750000D02*
X58500000Y2750000D01*
X49750000Y6250000D02*
X49750000Y8250000D01*
X73250000Y2750000D02*
X74500000Y2750000D01*
X50750000Y1250000D02*
X49750000Y2250000D01*
X70125000Y1000000D02*
X62750000Y1000000D01*
X58500000Y2750000D02*
X55250000Y2750000D01*
X71875000Y2750000D02*
X70125000Y1000000D01*
X49750000Y2250000D02*
X49750000Y6250000D01*
X73250000Y2750000D02*
X71875000Y2750000D01*
X55250000Y2750000D02*
X53750000Y1250000D01*
X62750000Y1000000D02*
X61000000Y2750000D01*
X24200000Y25550000D02*
X25500000Y25550000D01*
D21*
%TO.N,/PA3*%
X58000000Y37300000D02*
X57950000Y37350000D01*
X45500000Y37750000D02*
X44500000Y36750000D01*
X44500000Y36750000D02*
X38750000Y36750000D01*
X56750000Y37750000D02*
X45500000Y37750000D01*
X34000000Y41500000D02*
X34000000Y41950000D01*
X57150000Y37350000D02*
X56750000Y37750000D01*
X57950000Y37350000D02*
X57150000Y37350000D01*
%TO.N,/PA4*%
X36700000Y38050000D02*
X38500000Y36250000D01*
X45750000Y37250000D02*
X56250000Y37250000D01*
X38500000Y36250000D02*
X44750000Y36250000D01*
X44750000Y36250000D02*
X45750000Y37250000D01*
X56250000Y37250000D02*
X57050000Y36450000D01*
X34500000Y38050000D02*
X36700000Y38050000D01*
X57050000Y36450000D02*
X57350000Y36450000D01*
%TO.N,/PA5*%
X58100000Y35650000D02*
X57950000Y35500000D01*
X55750000Y36750000D02*
X46000000Y36750000D01*
X45000000Y35750000D02*
X35775000Y35750000D01*
X46000000Y36750000D02*
X45000000Y35750000D01*
X35775000Y35750000D02*
X34500000Y34475000D01*
X57000000Y35500000D02*
X55750000Y36750000D01*
X57950000Y35500000D02*
X57000000Y35500000D01*
%TO.N,/STEP*%
X67000000Y17850000D02*
X69000000Y19850000D01*
X69000000Y20750000D02*
X69750000Y21500000D01*
X69000000Y19850000D02*
X69000000Y20750000D01*
%TO.N,/DIR*%
X70000000Y19700000D02*
X70000000Y20250000D01*
X68150000Y17850000D02*
X70000000Y19700000D01*
%TO.N,/ENBL*%
X68300000Y20350000D02*
X65800000Y17850000D01*
X68300000Y21200000D02*
X68300000Y20350000D01*
D22*
%TO.N,/STP-B1*%
X18770000Y14602000D02*
X18770000Y14730000D01*
X12000000Y16500000D02*
X10937500Y17562500D01*
X18770000Y14730000D02*
X17000000Y16500000D01*
X17000000Y16500000D02*
X12000000Y16500000D01*
X10937500Y17562500D02*
X10937500Y20000000D01*
%TO.N,/STP-B2*%
X16230000Y13230000D02*
X15000000Y12000000D01*
X8500000Y23000000D02*
X10937500Y23000000D01*
X7250000Y15250000D02*
X7250000Y21750000D01*
X15000000Y12000000D02*
X10500000Y12000000D01*
X16230000Y14602000D02*
X16230000Y13230000D01*
X10500000Y12000000D02*
X7250000Y15250000D01*
X7250000Y21750000D02*
X8500000Y23000000D01*
%TO.N,/FUELP*%
X65750000Y4250000D02*
X63800000Y6200000D01*
X46200000Y20000000D02*
X18937500Y20000000D01*
X60000000Y6200000D02*
X46200000Y20000000D01*
X63800000Y6200000D02*
X60000000Y6200000D01*
X65750000Y2750000D02*
X65750000Y4250000D01*
%TO.N,/BOOST*%
X46650000Y21750000D02*
X20187500Y21750000D01*
X20187500Y21750000D02*
X18937500Y23000000D01*
X64950000Y8000000D02*
X60400000Y8000000D01*
X67500000Y2750000D02*
X67500000Y5450000D01*
X60400000Y8000000D02*
X46650000Y21750000D01*
X67500000Y5450000D02*
X64950000Y8000000D01*
%TO.N,/IDLE*%
X52750000Y2750000D02*
X53500000Y3500000D01*
X45900000Y18000000D02*
X17000000Y18000000D01*
X13500000Y21500000D02*
X13437500Y21500000D01*
X51750000Y2750000D02*
X52750000Y2750000D01*
X53500000Y10400000D02*
X45900000Y18000000D01*
X53500000Y3500000D02*
X53500000Y10400000D01*
X52250000Y2750000D02*
X51750000Y2750000D01*
X17000000Y18000000D02*
X13500000Y21500000D01*
D24*
%TO.N,/IGN2*%
X51250000Y40250000D02*
X55750000Y40250000D01*
X49750000Y46250000D02*
X49750000Y41750000D01*
X7250000Y45000000D02*
X12500000Y50250000D01*
X12500000Y50250000D02*
X45750000Y50250000D01*
X49750000Y41750000D02*
X51250000Y40250000D01*
X45750000Y50250000D02*
X49750000Y46250000D01*
X10937500Y32000000D02*
X8250000Y32000000D01*
X8250000Y32000000D02*
X7250000Y33000000D01*
X7250000Y33000000D02*
X7250000Y45000000D01*
%TO.N,/IGN1*%
X13100000Y49700000D02*
X45050000Y49700000D01*
X45050000Y49700000D02*
X48750000Y46000000D01*
X48750000Y46000000D02*
X48750000Y40000000D01*
X8250000Y44850000D02*
X13100000Y49700000D01*
X8250000Y35750000D02*
X8250000Y44850000D01*
X10937500Y35000000D02*
X9000000Y35000000D01*
X9000000Y35000000D02*
X8250000Y35750000D01*
%TO.N,/TACHO*%
X6250000Y45500000D02*
X11550000Y50800000D01*
X13437500Y30500000D02*
X7000000Y30500000D01*
X46200000Y50800000D02*
X49000000Y48000000D01*
X11550000Y50800000D02*
X46200000Y50800000D01*
X6250000Y31250000D02*
X6250000Y45500000D01*
X7000000Y30500000D02*
X6250000Y31250000D01*
X49000000Y48000000D02*
X51250000Y48000000D01*
D22*
%TO.N,/VVT*%
X60900000Y9750000D02*
X47150000Y23500000D01*
X70500000Y9750000D02*
X60900000Y9750000D01*
X80500000Y2750000D02*
X77500000Y2750000D01*
X47150000Y23500000D02*
X21437500Y23500000D01*
X77500000Y2750000D02*
X70500000Y9750000D01*
X21437500Y23500000D02*
X18937500Y26000000D01*
D21*
%TO.N,/PA2*%
X57350000Y38250000D02*
X57400000Y38200000D01*
X39000000Y37250000D02*
X44250000Y37250000D01*
X36750000Y39500000D02*
X39000000Y37250000D01*
X36750000Y45000000D02*
X36750000Y39500000D01*
X34900000Y45800000D02*
X35950000Y45800000D01*
X44250000Y37250000D02*
X45250000Y38250000D01*
X35950000Y45800000D02*
X36750000Y45000000D01*
X45250000Y38250000D02*
X57350000Y38250000D01*
%TO.N,/PA0*%
X64000000Y44350000D02*
X64000000Y44250000D01*
X59500000Y48850000D02*
X64000000Y44350000D01*
X59500000Y50750000D02*
X59500000Y48850000D01*
%TO.N,/PA1*%
X43500000Y38750000D02*
X56700000Y38750000D01*
X57100000Y39150000D02*
X57850000Y39150000D01*
X56700000Y38750000D02*
X57100000Y39150000D01*
%TO.N,Net-(D20-COM)*%
X95500000Y39500000D02*
X93250000Y41750000D01*
X89000000Y25950000D02*
X94050000Y25950000D01*
X93250000Y41750000D02*
X85750000Y41750000D01*
X95500000Y27400000D02*
X95500000Y39500000D01*
X94050000Y25950000D02*
X95500000Y27400000D01*
X84750000Y20500000D02*
X84750000Y21700000D01*
X84750000Y21700000D02*
X89000000Y25950000D01*
%TO.N,Net-(D21-COM)*%
X95000000Y39000000D02*
X92750000Y41250000D01*
X95000000Y27650000D02*
X95000000Y39000000D01*
X92750000Y41250000D02*
X86750000Y41250000D01*
X83250000Y20500000D02*
X83250000Y21000000D01*
X93800000Y26450000D02*
X95000000Y27650000D01*
X88700000Y26450000D02*
X93800000Y26450000D01*
X83250000Y21000000D02*
X88700000Y26450000D01*
X86750000Y41250000D02*
X85750000Y40250000D01*
%TO.N,/PD14*%
X57500000Y34700000D02*
X58900000Y34700000D01*
X58900000Y34700000D02*
X59350000Y35150000D01*
X59350000Y35150000D02*
X59350000Y39725000D01*
X54250000Y44825000D02*
X54250000Y47000000D01*
X59350000Y39725000D02*
X54250000Y44825000D01*
%TO.N,Net-(U2-NRST)*%
X60500000Y60000000D02*
X62000000Y61500000D01*
X60500000Y48900000D02*
X60500000Y60000000D01*
X67000000Y60750000D02*
X71500000Y60750000D01*
X62000000Y61500000D02*
X66250000Y61500000D01*
X66250000Y61500000D02*
X67000000Y60750000D01*
X68750000Y44500000D02*
X64900000Y44500000D01*
X64900000Y44500000D02*
X60500000Y48900000D01*
D23*
%TO.N,GND*%
X16437500Y42500000D02*
X16500000Y42562500D01*
D22*
X13437500Y39500000D02*
X16437500Y42500000D01*
X16437500Y36500000D02*
X13437500Y39500000D01*
D23*
X16500000Y44687500D02*
X16437500Y44750000D01*
D22*
X16500000Y42562500D02*
X16500000Y44687500D01*
D23*
X4437500Y17437500D02*
X4500000Y17500000D01*
X4437500Y12750000D02*
X4437500Y17437500D01*
D21*
%TO.N,/DIAHG*%
X92900000Y24550000D02*
X98500000Y18950000D01*
X90600000Y24550000D02*
X92900000Y24550000D01*
X98500000Y18950000D02*
X98500000Y16000000D01*
D23*
%TO.N,+3.3V*%
X56000000Y35125000D02*
X56000000Y34500000D01*
X82100000Y36650000D02*
X82100000Y46200000D01*
X56000000Y34500000D02*
X60200000Y30300000D01*
X83070000Y47170000D02*
X84950000Y47170000D01*
X42000000Y11250000D02*
X40750000Y11250000D01*
X83500000Y35250000D02*
X82100000Y36650000D01*
X40750000Y11250000D02*
X39750000Y12250000D01*
X82100000Y46200000D02*
X83070000Y47170000D01*
X39750000Y12250000D02*
X39750000Y15500000D01*
X60200000Y30300000D02*
X60600000Y30300000D01*
D25*
%TO.N,/USB_D-*%
X78475000Y29156800D02*
X79343199Y30024999D01*
X74149999Y27281801D02*
X75156800Y26275000D01*
X78475000Y27406800D02*
X78475000Y29156800D01*
X89118199Y37649999D02*
X91300001Y37649999D01*
X87825000Y36356800D02*
X89118199Y37649999D01*
X86493199Y30024999D02*
X87825000Y31356800D01*
X74149999Y28350001D02*
X74149999Y27281801D01*
X79343199Y30024999D02*
X86493199Y30024999D01*
X73750000Y28750000D02*
X74149999Y28350001D01*
X77343200Y26275000D02*
X78475000Y27406800D01*
X91300001Y37649999D02*
X91600000Y37350000D01*
X87825000Y31356800D02*
X87825000Y36356800D01*
X75156800Y26275000D02*
X77343200Y26275000D01*
%TO.N,/USB_D+*%
X74600001Y28350001D02*
X74600001Y27468199D01*
X74600001Y27468199D02*
X75343200Y26725000D01*
X87375000Y36543200D02*
X88931801Y38100001D01*
X77156800Y26725000D02*
X78025000Y27593200D01*
X78025000Y27593200D02*
X78025000Y29343200D01*
X86306801Y30475001D02*
X87375000Y31543200D01*
X88931801Y38100001D02*
X91300001Y38100001D01*
X75000000Y28750000D02*
X74600001Y28350001D01*
X101700000Y39350000D02*
X101700000Y39650000D01*
X87375000Y31543200D02*
X87375000Y36543200D01*
X75343200Y26725000D02*
X77156800Y26725000D01*
X100400000Y38050000D02*
X101700000Y39350000D01*
X78025000Y29343200D02*
X79156801Y30475001D01*
X79156801Y30475001D02*
X86306801Y30475001D01*
X91300001Y38100001D02*
X91600000Y38400000D01*
D21*
%TO.N,/UA*%
X93000000Y23450000D02*
X92800000Y23450000D01*
X94700000Y21750000D02*
X93000000Y23450000D01*
X94300000Y17650000D02*
X94700000Y18050000D01*
X94300000Y15950000D02*
X94300000Y17650000D01*
X94700000Y18050000D02*
X94700000Y21750000D01*
X95200000Y15050000D02*
X94300000Y15950000D01*
%TO.N,UN*%
X76750000Y19750000D02*
X73500000Y19750000D01*
X87500000Y14000000D02*
X88750000Y15250000D01*
X73500000Y19750000D02*
X70500000Y22750000D01*
X70500000Y22750000D02*
X64400000Y22750000D01*
X89750000Y15250000D02*
X90000000Y15500000D01*
X21000000Y32500000D02*
X20000000Y33500000D01*
X88500000Y17750000D02*
X78750000Y17750000D01*
X32750000Y29000000D02*
X22500000Y29000000D01*
X78750000Y17750000D02*
X76750000Y19750000D01*
X22500000Y29000000D02*
X21000000Y30500000D01*
X21000000Y30500000D02*
X21000000Y32500000D01*
X88750000Y10500000D02*
X87500000Y11750000D01*
X87500000Y11750000D02*
X87500000Y14000000D01*
X64400000Y22750000D02*
X60150000Y27000000D01*
X90000000Y16250000D02*
X88500000Y17750000D01*
X34750000Y27000000D02*
X32750000Y29000000D01*
X20000000Y33500000D02*
X16437500Y33500000D01*
X60150000Y27000000D02*
X34750000Y27000000D01*
X88750000Y15250000D02*
X89750000Y15250000D01*
X90000000Y15500000D02*
X90000000Y16250000D01*
%TO.N,IA*%
X100750000Y12000000D02*
X89500000Y12000000D01*
X101250000Y11500000D02*
X100750000Y12000000D01*
X89500000Y12000000D02*
X88750000Y12750000D01*
%TO.N,VM*%
X59700000Y26500000D02*
X63950000Y22250000D01*
X70250000Y22250000D02*
X73250000Y19250000D01*
X76500000Y19250000D02*
X78500000Y17250000D01*
X34250000Y26500000D02*
X59700000Y26500000D01*
X99000000Y15150000D02*
X99300000Y15450000D01*
X63950000Y22250000D02*
X70250000Y22250000D01*
X20000000Y30500000D02*
X22250000Y28250000D01*
X32500000Y28250000D02*
X34250000Y26500000D01*
X88000000Y17250000D02*
X89250000Y16000000D01*
X78500000Y17250000D02*
X88000000Y17250000D01*
X73250000Y19250000D02*
X76500000Y19250000D01*
X96100000Y15150000D02*
X99000000Y15150000D01*
X16437500Y30500000D02*
X20000000Y30500000D01*
X95250000Y16000000D02*
X96100000Y15150000D01*
X99300000Y24250000D02*
X100200000Y25150000D01*
X22250000Y28250000D02*
X32500000Y28250000D01*
X99300000Y15450000D02*
X99300000Y24250000D01*
%TD*%
%TA.AperFunction,Conductor*%
%TO.N,GND*%
G36*
X45477728Y16980546D02*
G01*
X45558510Y16926570D01*
X46250431Y16234649D01*
X46304407Y16153867D01*
X46323361Y16058579D01*
X46304407Y15963291D01*
X46250431Y15882510D01*
X46120182Y15752261D01*
X46024214Y15599530D01*
X46024211Y15599524D01*
X46024211Y15599522D01*
X45968791Y15441139D01*
X45964632Y15429254D01*
X45964630Y15429246D01*
X45944435Y15250004D01*
X45944435Y15249997D01*
X45964630Y15070755D01*
X45964631Y15070749D01*
X45964632Y15070745D01*
X46024211Y14900478D01*
X46024212Y14900477D01*
X46024214Y14900471D01*
X46120180Y14747743D01*
X46120182Y14747741D01*
X46120184Y14747738D01*
X46247738Y14620184D01*
X46247740Y14620183D01*
X46247742Y14620181D01*
X46400470Y14524215D01*
X46400473Y14524214D01*
X46400478Y14524211D01*
X46570745Y14464632D01*
X46570754Y14464631D01*
X46749996Y14444435D01*
X46750000Y14444435D01*
X46750004Y14444435D01*
X46889908Y14460199D01*
X46929255Y14464632D01*
X47099522Y14524211D01*
X47099527Y14524215D01*
X47099529Y14524215D01*
X47252260Y14620183D01*
X47252259Y14620183D01*
X47252262Y14620184D01*
X47379816Y14747738D01*
X47379817Y14747741D01*
X47382508Y14750431D01*
X47463289Y14804408D01*
X47558577Y14823362D01*
X47653865Y14804408D01*
X47734647Y14750432D01*
X47734648Y14750432D01*
X48677070Y13808010D01*
X48731046Y13727228D01*
X48750000Y13631940D01*
X48750000Y10322638D01*
X48736027Y10240400D01*
X48714633Y10179261D01*
X48714630Y10179246D01*
X48694435Y10000004D01*
X48694435Y9999997D01*
X48714630Y9820755D01*
X48714632Y9820744D01*
X48736027Y9759602D01*
X48750000Y9677363D01*
X48750000Y8365851D01*
X48749500Y8355670D01*
X48749500Y8348541D01*
X48749500Y6348541D01*
X48749500Y2151459D01*
X48757306Y2112218D01*
X48786662Y1964632D01*
X48786664Y1964621D01*
X48787948Y1958166D01*
X48862434Y1778341D01*
X48863368Y1776086D01*
X48972861Y1612218D01*
X49112218Y1472861D01*
X49112220Y1472860D01*
X50084511Y500568D01*
X50138486Y419788D01*
X50157440Y324500D01*
X50138486Y229212D01*
X50084510Y148430D01*
X50003728Y94454D01*
X49908440Y75500D01*
X7449000Y75500D01*
X7353712Y94454D01*
X7272930Y148430D01*
X7218954Y229212D01*
X7200000Y324500D01*
X7200000Y3387043D01*
X7200341Y3400074D01*
X7202180Y3435165D01*
X7205578Y3500000D01*
X7200341Y3599928D01*
X7200000Y3612959D01*
X7200000Y7000500D01*
X7218954Y7095788D01*
X7272930Y7176570D01*
X7353712Y7230546D01*
X7449000Y7249500D01*
X9601000Y7249500D01*
X9696288Y7230546D01*
X9777070Y7176570D01*
X9831046Y7095788D01*
X9850000Y7000500D01*
X9850000Y2107865D01*
X9844382Y2065195D01*
X9845403Y2062703D01*
X9850000Y2015080D01*
X9850000Y1975367D01*
X9849052Y1953664D01*
X9844532Y1902004D01*
X9844532Y1901995D01*
X9864363Y1675321D01*
X9864365Y1675306D01*
X9923261Y1455504D01*
X9923262Y1455501D01*
X10019428Y1249273D01*
X10019436Y1249259D01*
X10149949Y1062866D01*
X10149953Y1062861D01*
X10310861Y901953D01*
X10310864Y901951D01*
X10310865Y901950D01*
X10497258Y771437D01*
X10497262Y771435D01*
X10497266Y771432D01*
X10703504Y675261D01*
X10923308Y616365D01*
X10942984Y614644D01*
X11149994Y596532D01*
X11150000Y596532D01*
X11150006Y596532D01*
X11329668Y612251D01*
X11376692Y616365D01*
X11596496Y675261D01*
X11802734Y771432D01*
X11989139Y901953D01*
X12150047Y1062861D01*
X12216031Y1157098D01*
X12286211Y1224281D01*
X12376760Y1259494D01*
X12473892Y1257375D01*
X12562819Y1218247D01*
X12623968Y1157098D01*
X12689953Y1062861D01*
X12850861Y901953D01*
X12850864Y901951D01*
X12850865Y901950D01*
X13037258Y771437D01*
X13037262Y771435D01*
X13037266Y771432D01*
X13243504Y675261D01*
X13463308Y616365D01*
X13482984Y614644D01*
X13689994Y596532D01*
X13690000Y596532D01*
X13690006Y596532D01*
X13869668Y612251D01*
X13916692Y616365D01*
X14136496Y675261D01*
X14342734Y771432D01*
X14529139Y901953D01*
X14690047Y1062861D01*
X14756031Y1157098D01*
X14826211Y1224281D01*
X14916760Y1259494D01*
X15013892Y1257375D01*
X15102819Y1218247D01*
X15163968Y1157098D01*
X15229953Y1062861D01*
X15390861Y901953D01*
X15390864Y901951D01*
X15390865Y901950D01*
X15577258Y771437D01*
X15577262Y771435D01*
X15577266Y771432D01*
X15783504Y675261D01*
X16003308Y616365D01*
X16022984Y614644D01*
X16229994Y596532D01*
X16230000Y596532D01*
X16230006Y596532D01*
X16409668Y612251D01*
X16456692Y616365D01*
X16676496Y675261D01*
X16882734Y771432D01*
X17069139Y901953D01*
X17230047Y1062861D01*
X17296031Y1157098D01*
X17366211Y1224281D01*
X17456760Y1259494D01*
X17553892Y1257375D01*
X17642819Y1218247D01*
X17703968Y1157098D01*
X17769953Y1062861D01*
X17930861Y901953D01*
X17930864Y901951D01*
X17930865Y901950D01*
X18117258Y771437D01*
X18117262Y771435D01*
X18117266Y771432D01*
X18323504Y675261D01*
X18543308Y616365D01*
X18562984Y614644D01*
X18769994Y596532D01*
X18770000Y596532D01*
X18770006Y596532D01*
X18949668Y612251D01*
X18996692Y616365D01*
X19216496Y675261D01*
X19422734Y771432D01*
X19609139Y901953D01*
X19770047Y1062861D01*
X19836031Y1157098D01*
X19906211Y1224281D01*
X19996760Y1259494D01*
X20093892Y1257375D01*
X20182819Y1218247D01*
X20243968Y1157098D01*
X20309953Y1062861D01*
X20470861Y901953D01*
X20470864Y901951D01*
X20470865Y901950D01*
X20657258Y771437D01*
X20657262Y771435D01*
X20657266Y771432D01*
X20863504Y675261D01*
X21083308Y616365D01*
X21102984Y614644D01*
X21309994Y596532D01*
X21310000Y596532D01*
X21310006Y596532D01*
X21489668Y612251D01*
X21536692Y616365D01*
X21756496Y675261D01*
X21962734Y771432D01*
X22149139Y901953D01*
X22310047Y1062861D01*
X22376031Y1157098D01*
X22446211Y1224281D01*
X22536760Y1259494D01*
X22633892Y1257375D01*
X22722819Y1218247D01*
X22783968Y1157098D01*
X22849953Y1062861D01*
X23010861Y901953D01*
X23010864Y901951D01*
X23010865Y901950D01*
X23197258Y771437D01*
X23197262Y771435D01*
X23197266Y771432D01*
X23403504Y675261D01*
X23623308Y616365D01*
X23642984Y614644D01*
X23849994Y596532D01*
X23850000Y596532D01*
X23850006Y596532D01*
X24029668Y612251D01*
X24076692Y616365D01*
X24296496Y675261D01*
X24502734Y771432D01*
X24689139Y901953D01*
X24850047Y1062861D01*
X24916031Y1157098D01*
X24986211Y1224281D01*
X25076760Y1259494D01*
X25173892Y1257375D01*
X25262819Y1218247D01*
X25323968Y1157098D01*
X25389953Y1062861D01*
X25550861Y901953D01*
X25550864Y901951D01*
X25550865Y901950D01*
X25737258Y771437D01*
X25737262Y771435D01*
X25737266Y771432D01*
X25943504Y675261D01*
X26163308Y616365D01*
X26182984Y614644D01*
X26389994Y596532D01*
X26390000Y596532D01*
X26390006Y596532D01*
X26569668Y612251D01*
X26616692Y616365D01*
X26836496Y675261D01*
X27042734Y771432D01*
X27229139Y901953D01*
X27390047Y1062861D01*
X27456031Y1157098D01*
X27526211Y1224281D01*
X27616760Y1259494D01*
X27713892Y1257375D01*
X27802819Y1218247D01*
X27863968Y1157098D01*
X27929953Y1062861D01*
X28090861Y901953D01*
X28090864Y901951D01*
X28090865Y901950D01*
X28277258Y771437D01*
X28277262Y771435D01*
X28277266Y771432D01*
X28483504Y675261D01*
X28703308Y616365D01*
X28722984Y614644D01*
X28929994Y596532D01*
X28930000Y596532D01*
X28930006Y596532D01*
X29109668Y612251D01*
X29156692Y616365D01*
X29376496Y675261D01*
X29582734Y771432D01*
X29769139Y901953D01*
X29930047Y1062861D01*
X30060568Y1249266D01*
X30156739Y1455504D01*
X30215635Y1675308D01*
X30215635Y1675311D01*
X30218448Y1685808D01*
X30220651Y1685218D01*
X30249876Y1760381D01*
X30317056Y1830566D01*
X30405981Y1869700D01*
X30503113Y1871825D01*
X30593664Y1836617D01*
X30635952Y1802680D01*
X30771584Y1667048D01*
X30817106Y1636632D01*
X30894505Y1584916D01*
X30894510Y1584914D01*
X30951080Y1561482D01*
X30951082Y1561481D01*
X31031084Y1528342D01*
X31031086Y1528342D01*
X31031088Y1528341D01*
X31067676Y1521064D01*
X31139847Y1506707D01*
X31139854Y1506707D01*
X31139861Y1506705D01*
X31176082Y1499500D01*
X31176083Y1499500D01*
X31176085Y1499500D01*
X41073919Y1499500D01*
X41073919Y1499501D01*
X41218913Y1528342D01*
X41355495Y1584916D01*
X41432894Y1636632D01*
X41478416Y1667048D01*
X43082951Y3271584D01*
X43165084Y3394505D01*
X43221658Y3531087D01*
X43250500Y3676082D01*
X43250500Y3823917D01*
X43250500Y4428792D01*
X43264473Y4511031D01*
X43285368Y4570745D01*
X43305565Y4750000D01*
X43305310Y4752261D01*
X43285369Y4929246D01*
X43285368Y4929255D01*
X43225789Y5099522D01*
X43225786Y5099527D01*
X43225785Y5099530D01*
X43129819Y5252258D01*
X43129817Y5252260D01*
X43129816Y5252262D01*
X43002262Y5379816D01*
X43002259Y5379818D01*
X43002257Y5379820D01*
X42849529Y5475786D01*
X42849524Y5475788D01*
X42849522Y5475789D01*
X42679255Y5535368D01*
X42679251Y5535369D01*
X42679245Y5535370D01*
X42500004Y5555565D01*
X42499996Y5555565D01*
X42320754Y5535370D01*
X42320746Y5535369D01*
X42320745Y5535368D01*
X42150478Y5475789D01*
X42150476Y5475789D01*
X42150476Y5475788D01*
X42150470Y5475786D01*
X41997742Y5379820D01*
X41870180Y5252258D01*
X41774214Y5099530D01*
X41774211Y5099524D01*
X41774211Y5099522D01*
X41748884Y5027140D01*
X41714632Y4929254D01*
X41714630Y4929246D01*
X41694435Y4750004D01*
X41694435Y4750000D01*
X41714630Y4570755D01*
X41714632Y4570744D01*
X41735527Y4511031D01*
X41749500Y4428792D01*
X41749500Y4164008D01*
X41730546Y4068720D01*
X41676570Y3987938D01*
X40762062Y3073430D01*
X40681280Y3019454D01*
X40585992Y3000500D01*
X34568350Y3000500D01*
X34473062Y3019454D01*
X34392280Y3073430D01*
X34338304Y3154212D01*
X34319350Y3249500D01*
X34338304Y3344788D01*
X34392280Y3425570D01*
X34473062Y3479546D01*
X34486091Y3484521D01*
X34599522Y3524211D01*
X34599527Y3524215D01*
X34599529Y3524215D01*
X34752257Y3620181D01*
X34752256Y3620181D01*
X34752262Y3620184D01*
X34879816Y3747738D01*
X34912561Y3799851D01*
X34975785Y3900471D01*
X34975785Y3900473D01*
X34975789Y3900478D01*
X35035368Y4070745D01*
X35055565Y4250000D01*
X35050851Y4291835D01*
X35035369Y4429246D01*
X35035368Y4429255D01*
X34975789Y4599522D01*
X34975786Y4599527D01*
X34975785Y4599530D01*
X34879819Y4752258D01*
X34879817Y4752260D01*
X34879816Y4752262D01*
X34808144Y4823934D01*
X34754171Y4904712D01*
X34735217Y5000000D01*
X34754171Y5095288D01*
X34808144Y5176067D01*
X34879816Y5247738D01*
X34944985Y5351454D01*
X34975785Y5400471D01*
X34975788Y5400477D01*
X34975789Y5400478D01*
X35035368Y5570745D01*
X35055565Y5750000D01*
X35052507Y5777139D01*
X35035369Y5929246D01*
X35035368Y5929255D01*
X34975789Y6099522D01*
X34975786Y6099527D01*
X34975785Y6099530D01*
X34879819Y6252258D01*
X34879817Y6252260D01*
X34879816Y6252262D01*
X34752262Y6379816D01*
X34752259Y6379818D01*
X34752257Y6379820D01*
X34599529Y6475786D01*
X34599524Y6475788D01*
X34599522Y6475789D01*
X34429255Y6535368D01*
X34429251Y6535369D01*
X34429245Y6535370D01*
X34250004Y6555565D01*
X34249996Y6555565D01*
X34070754Y6535370D01*
X34070746Y6535369D01*
X34070745Y6535368D01*
X33900478Y6475789D01*
X33900476Y6475789D01*
X33900476Y6475788D01*
X33900470Y6475786D01*
X33747742Y6379820D01*
X33620180Y6252258D01*
X33524214Y6099530D01*
X33524212Y6099524D01*
X33464632Y5929254D01*
X33464630Y5929246D01*
X33444435Y5750004D01*
X33444435Y5749997D01*
X33464630Y5570755D01*
X33464631Y5570749D01*
X33464632Y5570745D01*
X33524211Y5400478D01*
X33524212Y5400477D01*
X33524214Y5400471D01*
X33620180Y5247743D01*
X33620182Y5247741D01*
X33620184Y5247738D01*
X33691855Y5176067D01*
X33745829Y5095288D01*
X33764783Y5000000D01*
X33745829Y4904712D01*
X33691855Y4823934D01*
X33646264Y4778342D01*
X33620180Y4752258D01*
X33524214Y4599530D01*
X33524211Y4599524D01*
X33524211Y4599522D01*
X33473181Y4453685D01*
X33464632Y4429254D01*
X33464630Y4429246D01*
X33444435Y4250004D01*
X33444435Y4249997D01*
X33464630Y4070755D01*
X33464631Y4070749D01*
X33464632Y4070745D01*
X33524211Y3900478D01*
X33524212Y3900477D01*
X33524214Y3900471D01*
X33620180Y3747743D01*
X33620182Y3747741D01*
X33620184Y3747738D01*
X33747738Y3620184D01*
X33747740Y3620183D01*
X33747742Y3620181D01*
X33900470Y3524215D01*
X33900473Y3524214D01*
X33900478Y3524211D01*
X34013892Y3484526D01*
X34097571Y3435165D01*
X34155991Y3357537D01*
X34180258Y3263461D01*
X34166677Y3167260D01*
X34117315Y3083579D01*
X34039687Y3025159D01*
X33945611Y3000892D01*
X33931650Y3000500D01*
X31664008Y3000500D01*
X31568720Y3019454D01*
X31487938Y3073430D01*
X30733640Y3827728D01*
X29978416Y4582952D01*
X29978412Y4582955D01*
X29896354Y4637784D01*
X29896350Y4637786D01*
X29855501Y4665082D01*
X29855490Y4665087D01*
X29718914Y4721658D01*
X29718911Y4721659D01*
X29573920Y4750500D01*
X29573918Y4750500D01*
X25237035Y4750500D01*
X25206229Y4756628D01*
X25197176Y4754820D01*
X25148422Y4750000D01*
X21768060Y4750000D01*
X21672772Y4768954D01*
X21591990Y4822930D01*
X17527141Y8887779D01*
X17527139Y8887782D01*
X17387782Y9027139D01*
X17387778Y9027142D01*
X17223916Y9136631D01*
X17223909Y9136634D01*
X17084364Y9194435D01*
X17041836Y9212051D01*
X16945188Y9231276D01*
X16848541Y9250500D01*
X16848538Y9250500D01*
X6499000Y9250500D01*
X6403712Y9269454D01*
X6322930Y9323430D01*
X6268954Y9404212D01*
X6250000Y9499500D01*
X6250000Y9500004D01*
X33444435Y9500004D01*
X33444435Y9499997D01*
X33464630Y9320755D01*
X33464631Y9320749D01*
X33464632Y9320745D01*
X33524211Y9150478D01*
X33524212Y9150477D01*
X33524214Y9150471D01*
X33620180Y8997743D01*
X33620182Y8997741D01*
X33620184Y8997738D01*
X33691855Y8926067D01*
X33745829Y8845288D01*
X33764783Y8750000D01*
X33745829Y8654712D01*
X33691855Y8573934D01*
X33653292Y8535370D01*
X33620180Y8502258D01*
X33524214Y8349530D01*
X33524211Y8349524D01*
X33524211Y8349522D01*
X33490179Y8252262D01*
X33464632Y8179254D01*
X33464630Y8179246D01*
X33444435Y8000004D01*
X33444435Y7999997D01*
X33464630Y7820755D01*
X33464631Y7820749D01*
X33464632Y7820745D01*
X33524211Y7650478D01*
X33524212Y7650477D01*
X33524214Y7650471D01*
X33620180Y7497743D01*
X33620182Y7497741D01*
X33620184Y7497738D01*
X33747738Y7370184D01*
X33747740Y7370183D01*
X33747742Y7370181D01*
X33900470Y7274215D01*
X33900473Y7274214D01*
X33900478Y7274211D01*
X34070745Y7214632D01*
X34070754Y7214631D01*
X34249996Y7194435D01*
X34250000Y7194435D01*
X34250004Y7194435D01*
X34389908Y7210199D01*
X34429255Y7214632D01*
X34599522Y7274211D01*
X34599527Y7274215D01*
X34599529Y7274215D01*
X34752257Y7370181D01*
X34752256Y7370181D01*
X34752262Y7370184D01*
X34879816Y7497738D01*
X34904998Y7537816D01*
X34975785Y7650471D01*
X34975785Y7650473D01*
X34975789Y7650478D01*
X35035368Y7820745D01*
X35055565Y8000000D01*
X35044351Y8099524D01*
X35035369Y8179246D01*
X35035368Y8179255D01*
X34975789Y8349522D01*
X34975786Y8349527D01*
X34975785Y8349530D01*
X34879819Y8502258D01*
X34879817Y8502260D01*
X34879816Y8502262D01*
X34808144Y8573934D01*
X34754171Y8654712D01*
X34735217Y8750000D01*
X34754171Y8845288D01*
X34808144Y8926067D01*
X34879816Y8997738D01*
X34904998Y9037816D01*
X34975785Y9150471D01*
X34975785Y9150473D01*
X34975789Y9150478D01*
X35035368Y9320745D01*
X35047627Y9429547D01*
X35055565Y9499997D01*
X35055565Y9500004D01*
X35035369Y9679246D01*
X35035368Y9679255D01*
X34975789Y9849522D01*
X34975786Y9849527D01*
X34975785Y9849530D01*
X34879819Y10002258D01*
X34879817Y10002260D01*
X34879816Y10002262D01*
X34752262Y10129816D01*
X34752259Y10129818D01*
X34752257Y10129820D01*
X34599529Y10225786D01*
X34599524Y10225788D01*
X34599522Y10225789D01*
X34429255Y10285368D01*
X34429251Y10285369D01*
X34429245Y10285370D01*
X34250004Y10305565D01*
X34249996Y10305565D01*
X34070754Y10285370D01*
X34070746Y10285369D01*
X34070745Y10285368D01*
X33900478Y10225789D01*
X33900476Y10225789D01*
X33900476Y10225788D01*
X33900470Y10225786D01*
X33747742Y10129820D01*
X33620180Y10002258D01*
X33524214Y9849530D01*
X33524211Y9849524D01*
X33524211Y9849522D01*
X33466097Y9683440D01*
X33464632Y9679254D01*
X33464630Y9679246D01*
X33444435Y9500004D01*
X6250000Y9500004D01*
X6250000Y10168265D01*
X6268954Y10263553D01*
X6322930Y10344335D01*
X6337007Y10356916D01*
X6336931Y10357001D01*
X6410869Y10423077D01*
X5449904Y11384042D01*
X5560793Y11469130D01*
X5718370Y11626707D01*
X5803458Y11737596D01*
X6764423Y10776631D01*
X6825842Y10845359D01*
X6825844Y10845362D01*
X7024079Y11124749D01*
X7160424Y11371446D01*
X7223106Y11445676D01*
X7309423Y11490268D01*
X7378355Y11500000D01*
X9481940Y11500000D01*
X9577228Y11481046D01*
X9658010Y11427070D01*
X9722858Y11362222D01*
X9722861Y11362218D01*
X9862218Y11222861D01*
X10026086Y11113368D01*
X10128987Y11070746D01*
X10128989Y11070744D01*
X10190226Y11045380D01*
X10208164Y11037949D01*
X10221140Y11035368D01*
X10401459Y10999500D01*
X15098541Y10999500D01*
X15278860Y11035368D01*
X15291836Y11037949D01*
X15371012Y11070745D01*
X15473914Y11113368D01*
X15637782Y11222861D01*
X15777139Y11362218D01*
X15777139Y11362220D01*
X15797639Y11382719D01*
X15797640Y11382722D01*
X17007140Y12592219D01*
X17116632Y12756086D01*
X17192052Y12938165D01*
X17224158Y13099578D01*
X17261338Y13189337D01*
X17330037Y13258036D01*
X17419796Y13295215D01*
X17468374Y13300000D01*
X18719493Y13300000D01*
X18741195Y13299053D01*
X18746660Y13298574D01*
X18769998Y13296532D01*
X18770000Y13296532D01*
X18770002Y13296532D01*
X18793340Y13298574D01*
X18798804Y13299053D01*
X18820507Y13300000D01*
X21259493Y13300000D01*
X21281195Y13299053D01*
X21286660Y13298574D01*
X21309998Y13296532D01*
X21310000Y13296532D01*
X21310002Y13296532D01*
X21333340Y13298574D01*
X21338804Y13299053D01*
X21360507Y13300000D01*
X23799493Y13300000D01*
X23821195Y13299053D01*
X23826660Y13298574D01*
X23849998Y13296532D01*
X23850000Y13296532D01*
X23850002Y13296532D01*
X23873340Y13298574D01*
X23878804Y13299053D01*
X23900507Y13300000D01*
X26339493Y13300000D01*
X26361195Y13299053D01*
X26366660Y13298574D01*
X26389998Y13296532D01*
X26390000Y13296532D01*
X26390002Y13296532D01*
X26413340Y13298574D01*
X26418804Y13299053D01*
X26440507Y13300000D01*
X28087459Y13300000D01*
X28114066Y13298574D01*
X28195585Y13289814D01*
X28259386Y13300000D01*
X28432822Y13300000D01*
X28443503Y13302000D01*
X28679999Y13302000D01*
X28680000Y13302001D01*
X28680000Y14286314D01*
X28684394Y14281920D01*
X28775606Y14229259D01*
X28877339Y14202000D01*
X28982661Y14202000D01*
X29084394Y14229259D01*
X29175606Y14281920D01*
X29180000Y14286314D01*
X29180000Y13302001D01*
X29180001Y13302000D01*
X29777825Y13302000D01*
X29777832Y13302001D01*
X29837371Y13308402D01*
X29837378Y13308404D01*
X29972087Y13358647D01*
X30087187Y13444811D01*
X30087189Y13444813D01*
X30173353Y13559913D01*
X30223596Y13694622D01*
X30223598Y13694629D01*
X30229999Y13754168D01*
X30230000Y13754175D01*
X30230000Y14351999D01*
X30229999Y14352000D01*
X29245686Y14352000D01*
X29250080Y14356394D01*
X29302741Y14447606D01*
X29330000Y14549339D01*
X29330000Y14654661D01*
X29302741Y14756394D01*
X29250080Y14847606D01*
X29245686Y14852000D01*
X30229999Y14852000D01*
X30230000Y14852001D01*
X30230000Y15449825D01*
X30229999Y15449833D01*
X30224605Y15500004D01*
X38944435Y15500004D01*
X38944435Y15499997D01*
X38964630Y15320755D01*
X38964632Y15320744D01*
X38985527Y15261031D01*
X38999500Y15178792D01*
X38999500Y12176080D01*
X39028341Y12031089D01*
X39028342Y12031086D01*
X39084910Y11894516D01*
X39084916Y11894505D01*
X39094731Y11879816D01*
X39167048Y11771584D01*
X40271585Y10667048D01*
X40296351Y10650500D01*
X40394505Y10584916D01*
X40450778Y10561607D01*
X40531088Y10528341D01*
X40569805Y10520640D01*
X40647237Y10505237D01*
X40647245Y10505237D01*
X40676080Y10499501D01*
X40676081Y10499500D01*
X40676082Y10499500D01*
X40676083Y10499500D01*
X40823918Y10499500D01*
X41678791Y10499500D01*
X41761029Y10485527D01*
X41798117Y10472550D01*
X41820745Y10464632D01*
X41820754Y10464631D01*
X41999996Y10444435D01*
X42000000Y10444435D01*
X42000004Y10444435D01*
X42139908Y10460199D01*
X42179255Y10464632D01*
X42349522Y10524211D01*
X42349527Y10524215D01*
X42349529Y10524215D01*
X42502257Y10620181D01*
X42502256Y10620181D01*
X42502262Y10620184D01*
X42629816Y10747738D01*
X42689944Y10843431D01*
X42725785Y10900471D01*
X42725785Y10900473D01*
X42725789Y10900478D01*
X42785368Y11070745D01*
X42791453Y11124749D01*
X42805565Y11249997D01*
X42805565Y11250004D01*
X42785369Y11429246D01*
X42785368Y11429255D01*
X42725789Y11599522D01*
X42725786Y11599527D01*
X42725785Y11599530D01*
X42629819Y11752258D01*
X42629817Y11752260D01*
X42629816Y11752262D01*
X42502262Y11879816D01*
X42502259Y11879818D01*
X42502257Y11879820D01*
X42349529Y11975786D01*
X42349524Y11975788D01*
X42349522Y11975789D01*
X42216758Y12022246D01*
X42133079Y12071606D01*
X42074658Y12149234D01*
X42050392Y12243310D01*
X42050000Y12257271D01*
X42050000Y15186628D01*
X42051566Y15214509D01*
X42052309Y15221098D01*
X42055565Y15250000D01*
X42055032Y15254728D01*
X42035369Y15429246D01*
X42035368Y15429255D01*
X41975789Y15599522D01*
X41975786Y15599527D01*
X41975785Y15599530D01*
X41879819Y15752258D01*
X41879817Y15752260D01*
X41879816Y15752262D01*
X41752262Y15879816D01*
X41752259Y15879818D01*
X41752257Y15879820D01*
X41599529Y15975786D01*
X41599524Y15975788D01*
X41599522Y15975789D01*
X41429255Y16035368D01*
X41429251Y16035369D01*
X41429245Y16035370D01*
X41250004Y16055565D01*
X41249996Y16055565D01*
X41070754Y16035370D01*
X41070746Y16035369D01*
X41070745Y16035368D01*
X40900478Y15975789D01*
X40900476Y15975789D01*
X40900476Y15975788D01*
X40900473Y15975787D01*
X40749952Y15881208D01*
X40659185Y15846561D01*
X40562069Y15849286D01*
X40473387Y15888969D01*
X40406642Y15959568D01*
X40406642Y15959569D01*
X40379819Y16002258D01*
X40379817Y16002260D01*
X40379816Y16002262D01*
X40252262Y16129816D01*
X40252259Y16129818D01*
X40252257Y16129820D01*
X40099529Y16225786D01*
X40099524Y16225788D01*
X40099522Y16225789D01*
X39929255Y16285368D01*
X39929251Y16285369D01*
X39929245Y16285370D01*
X39750004Y16305565D01*
X39749996Y16305565D01*
X39570754Y16285370D01*
X39570746Y16285369D01*
X39570745Y16285368D01*
X39400478Y16225789D01*
X39400476Y16225789D01*
X39400476Y16225788D01*
X39400470Y16225786D01*
X39247742Y16129820D01*
X39120180Y16002258D01*
X39024214Y15849530D01*
X39024211Y15849524D01*
X39024211Y15849522D01*
X38981765Y15728216D01*
X38964632Y15679254D01*
X38964630Y15679246D01*
X38944435Y15500004D01*
X30224605Y15500004D01*
X30223598Y15509372D01*
X30223596Y15509379D01*
X30173353Y15644088D01*
X30087189Y15759188D01*
X30087187Y15759190D01*
X29972087Y15845354D01*
X29837378Y15895597D01*
X29837371Y15895599D01*
X29777832Y15902000D01*
X29180001Y15902000D01*
X29180000Y15901999D01*
X29180000Y14917686D01*
X29175606Y14922080D01*
X29084394Y14974741D01*
X28982661Y15002000D01*
X28877339Y15002000D01*
X28775606Y14974741D01*
X28684394Y14922080D01*
X28680000Y14917686D01*
X28680000Y15923320D01*
X28668954Y15939851D01*
X28650000Y16035139D01*
X28650000Y16750500D01*
X28668954Y16845788D01*
X28722930Y16926570D01*
X28803712Y16980546D01*
X28899000Y16999500D01*
X45382440Y16999500D01*
X45477728Y16980546D01*
G37*
%TD.AperFunction*%
%TA.AperFunction,Conductor*%
G36*
X59433058Y25855546D02*
G01*
X59513839Y25801571D01*
X63551267Y21764142D01*
X63551270Y21764140D01*
X63653713Y21695689D01*
X63653714Y21695689D01*
X63653715Y21695688D01*
X63720397Y21668068D01*
X63767548Y21648537D01*
X63782932Y21645477D01*
X63888394Y21624499D01*
X64023895Y21624499D01*
X64023915Y21624500D01*
X64651000Y21624500D01*
X64746288Y21605546D01*
X64827070Y21551570D01*
X64881046Y21470788D01*
X64900000Y21375500D01*
X64900000Y17847140D01*
X64963918Y17792031D01*
X65007620Y17705260D01*
X65012458Y17680270D01*
X65014631Y17670749D01*
X65014632Y17670745D01*
X65074211Y17500478D01*
X65074212Y17500477D01*
X65074214Y17500471D01*
X65170180Y17347743D01*
X65170182Y17347741D01*
X65170184Y17347738D01*
X65297738Y17220184D01*
X65297740Y17220183D01*
X65297742Y17220181D01*
X65450470Y17124215D01*
X65450473Y17124214D01*
X65450478Y17124211D01*
X65620745Y17064632D01*
X65620754Y17064631D01*
X65799996Y17044435D01*
X65800000Y17044435D01*
X65800004Y17044435D01*
X65939908Y17060199D01*
X65979255Y17064632D01*
X66149522Y17124211D01*
X66267526Y17198359D01*
X66358290Y17233005D01*
X66455407Y17230280D01*
X66532472Y17198359D01*
X66650478Y17124211D01*
X66820745Y17064632D01*
X66820754Y17064631D01*
X66999996Y17044435D01*
X67000000Y17044435D01*
X67000004Y17044435D01*
X67139908Y17060199D01*
X67179255Y17064632D01*
X67349522Y17124211D01*
X67442525Y17182649D01*
X67533290Y17217296D01*
X67630407Y17214571D01*
X67707474Y17182650D01*
X67800478Y17124211D01*
X67970745Y17064632D01*
X67970754Y17064631D01*
X68149996Y17044435D01*
X68150000Y17044435D01*
X68150001Y17044435D01*
X68185492Y17048434D01*
X68213372Y17050000D01*
X70750500Y17050000D01*
X70845788Y17031046D01*
X70926570Y16977070D01*
X70980546Y16896288D01*
X70999500Y16801000D01*
X70999500Y15664008D01*
X70980546Y15568720D01*
X70926570Y15487938D01*
X69762062Y14323430D01*
X69681280Y14269454D01*
X69585992Y14250500D01*
X64914007Y14250500D01*
X64818719Y14269454D01*
X64737937Y14323430D01*
X64737937Y14323431D01*
X63823430Y15237939D01*
X63769454Y15318720D01*
X63750500Y15414008D01*
X63750500Y18473918D01*
X63745113Y18501000D01*
X63735114Y18551267D01*
X63721659Y18618912D01*
X63669758Y18744211D01*
X63666454Y18753444D01*
X63665084Y18755495D01*
X63593455Y18862696D01*
X63582952Y18878415D01*
X60975506Y21485861D01*
X58351930Y24109438D01*
X58317167Y24153030D01*
X58254816Y24252262D01*
X58127262Y24379816D01*
X58127259Y24379818D01*
X58127257Y24379820D01*
X57974529Y24475786D01*
X57974524Y24475788D01*
X57974522Y24475789D01*
X57804255Y24535368D01*
X57804251Y24535369D01*
X57804245Y24535370D01*
X57625004Y24555565D01*
X57624996Y24555565D01*
X57445754Y24535370D01*
X57445746Y24535369D01*
X57445745Y24535368D01*
X57275478Y24475789D01*
X57275476Y24475789D01*
X57275476Y24475788D01*
X57275470Y24475786D01*
X57122742Y24379820D01*
X56995180Y24252258D01*
X56899214Y24099530D01*
X56899211Y24099524D01*
X56899211Y24099522D01*
X56844590Y23943422D01*
X56839632Y23929254D01*
X56839630Y23929246D01*
X56819435Y23750004D01*
X56819435Y23749997D01*
X56839630Y23570755D01*
X56839631Y23570749D01*
X56839632Y23570745D01*
X56899211Y23400478D01*
X56899212Y23400477D01*
X56899214Y23400471D01*
X56995180Y23247743D01*
X56995182Y23247741D01*
X56995184Y23247738D01*
X57122738Y23120184D01*
X57122740Y23120183D01*
X57122742Y23120181D01*
X57155656Y23099500D01*
X57275478Y23024211D01*
X57281602Y23022069D01*
X57281731Y23022023D01*
X57365413Y22972664D01*
X57375568Y22963064D01*
X59790894Y20547738D01*
X62176570Y18162063D01*
X62230546Y18081281D01*
X62249500Y17985993D01*
X62249500Y14926080D01*
X62278341Y14781090D01*
X62278342Y14781087D01*
X62334911Y14644514D01*
X62334916Y14644505D01*
X62363317Y14602000D01*
X62363318Y14601998D01*
X62399573Y14547738D01*
X62417048Y14521584D01*
X64021584Y12917049D01*
X64144505Y12834916D01*
X64281087Y12778342D01*
X64426080Y12749501D01*
X64426081Y12749500D01*
X64426082Y12749500D01*
X70073919Y12749500D01*
X70073919Y12749501D01*
X70218913Y12778342D01*
X70355495Y12834916D01*
X70432894Y12886632D01*
X70478416Y12917048D01*
X72332952Y14771584D01*
X72395146Y14864666D01*
X72415084Y14894505D01*
X72453974Y14988393D01*
X72458784Y15000004D01*
X80194435Y15000004D01*
X80194435Y14999997D01*
X80214630Y14820755D01*
X80214631Y14820749D01*
X80214632Y14820745D01*
X80274211Y14650478D01*
X80274212Y14650477D01*
X80274214Y14650471D01*
X80370180Y14497743D01*
X80370182Y14497741D01*
X80370184Y14497738D01*
X80497738Y14370184D01*
X80497740Y14370183D01*
X80497742Y14370181D01*
X80650470Y14274215D01*
X80650473Y14274214D01*
X80650478Y14274211D01*
X80820745Y14214632D01*
X80820754Y14214631D01*
X80999996Y14194435D01*
X81000000Y14194435D01*
X81000004Y14194435D01*
X81139908Y14210199D01*
X81179255Y14214632D01*
X81349522Y14274211D01*
X81349527Y14274215D01*
X81349529Y14274215D01*
X81502257Y14370181D01*
X81502256Y14370181D01*
X81502262Y14370184D01*
X81629816Y14497738D01*
X81677737Y14574003D01*
X81725785Y14650471D01*
X81725785Y14650473D01*
X81725789Y14650478D01*
X81785368Y14820745D01*
X81799004Y14941768D01*
X81805565Y14999997D01*
X81805565Y15000004D01*
X81785369Y15179246D01*
X81785368Y15179255D01*
X81725789Y15349522D01*
X81725786Y15349527D01*
X81725785Y15349530D01*
X81629819Y15502258D01*
X81629817Y15502260D01*
X81629816Y15502262D01*
X81502262Y15629816D01*
X81502259Y15629818D01*
X81502257Y15629820D01*
X81349529Y15725786D01*
X81349524Y15725788D01*
X81349522Y15725789D01*
X81179255Y15785368D01*
X81179251Y15785369D01*
X81179245Y15785370D01*
X81000004Y15805565D01*
X80999996Y15805565D01*
X80820754Y15785370D01*
X80820746Y15785369D01*
X80820745Y15785368D01*
X80650478Y15725789D01*
X80650476Y15725789D01*
X80650476Y15725788D01*
X80650470Y15725786D01*
X80497742Y15629820D01*
X80370180Y15502258D01*
X80274214Y15349530D01*
X80274211Y15349524D01*
X80274211Y15349522D01*
X80229274Y15221098D01*
X80214632Y15179254D01*
X80214630Y15179246D01*
X80194435Y15000004D01*
X72458784Y15000004D01*
X72471657Y15031084D01*
X72471660Y15031092D01*
X72496667Y15156811D01*
X72496668Y15156818D01*
X72500500Y15176082D01*
X72500500Y17060993D01*
X72519454Y17156281D01*
X72573430Y17237063D01*
X72762937Y17426570D01*
X72843719Y17480546D01*
X72939007Y17499500D01*
X75428791Y17499500D01*
X75511029Y17485527D01*
X75540189Y17475324D01*
X75570745Y17464632D01*
X75570754Y17464631D01*
X75749996Y17444435D01*
X75750000Y17444435D01*
X75750004Y17444435D01*
X75889908Y17460199D01*
X75929255Y17464632D01*
X76099522Y17524211D01*
X76099527Y17524215D01*
X76099529Y17524215D01*
X76252257Y17620181D01*
X76252256Y17620181D01*
X76252262Y17620184D01*
X76379816Y17747738D01*
X76426824Y17822551D01*
X76475785Y17900471D01*
X76475786Y17900474D01*
X76475789Y17900478D01*
X76475790Y17900483D01*
X76481853Y17913072D01*
X76485115Y17911502D01*
X76520928Y17972322D01*
X76598511Y18030804D01*
X76692567Y18055144D01*
X76788779Y18041638D01*
X76872498Y17992342D01*
X76882793Y17982617D01*
X78014139Y16851271D01*
X78014142Y16851267D01*
X78101267Y16764142D01*
X78143593Y16735861D01*
X78143595Y16735859D01*
X78145562Y16734545D01*
X78203714Y16695688D01*
X78284207Y16662348D01*
X78317548Y16648537D01*
X78377971Y16636519D01*
X78407767Y16630592D01*
X78438392Y16624500D01*
X78438393Y16624500D01*
X78438394Y16624500D01*
X87637770Y16624500D01*
X87733058Y16605546D01*
X87813840Y16551570D01*
X88314339Y16051071D01*
X88368315Y15970289D01*
X88387269Y15875001D01*
X88368315Y15779713D01*
X88314340Y15698933D01*
X88264143Y15648735D01*
X88264142Y15648733D01*
X87014137Y14398728D01*
X86990514Y14363372D01*
X86990512Y14363368D01*
X86945688Y14296287D01*
X86918439Y14230504D01*
X86918440Y14230503D01*
X86898537Y14182452D01*
X86874500Y14061605D01*
X86874500Y11688398D01*
X86874501Y11688387D01*
X86875679Y11682466D01*
X86875680Y11682451D01*
X86875682Y11682451D01*
X86898536Y11567550D01*
X86903931Y11554524D01*
X86945686Y11453716D01*
X86977024Y11406818D01*
X87014142Y11351267D01*
X87101267Y11264142D01*
X87101270Y11264140D01*
X87892860Y10472550D01*
X87946836Y10391768D01*
X87964224Y10324361D01*
X87964630Y10320753D01*
X87964631Y10320749D01*
X87964632Y10320745D01*
X88024211Y10150478D01*
X88024212Y10150477D01*
X88024214Y10150471D01*
X88120180Y9997743D01*
X88120182Y9997741D01*
X88120184Y9997738D01*
X88247738Y9870184D01*
X88247740Y9870183D01*
X88247742Y9870181D01*
X88400470Y9774215D01*
X88400473Y9774214D01*
X88400478Y9774211D01*
X88570745Y9714632D01*
X88570754Y9714631D01*
X88749996Y9694435D01*
X88750000Y9694435D01*
X88750004Y9694435D01*
X88889908Y9710199D01*
X88929255Y9714632D01*
X89099522Y9774211D01*
X89099527Y9774215D01*
X89099529Y9774215D01*
X89252257Y9870181D01*
X89252256Y9870181D01*
X89252262Y9870184D01*
X89379816Y9997738D01*
X89418002Y10058510D01*
X89475785Y10150471D01*
X89475785Y10150473D01*
X89475789Y10150478D01*
X89535368Y10320745D01*
X89543370Y10391768D01*
X89555565Y10499997D01*
X89555565Y10500003D01*
X89544566Y10597621D01*
X89552732Y10694432D01*
X89597324Y10780749D01*
X89671554Y10843431D01*
X89764121Y10872934D01*
X89792000Y10874500D01*
X97501000Y10874500D01*
X97596288Y10855546D01*
X97677070Y10801570D01*
X97731046Y10720788D01*
X97750000Y10625500D01*
X97750000Y9615851D01*
X97749500Y9605670D01*
X97749500Y7767561D01*
X97730546Y7672273D01*
X97676570Y7591491D01*
X95862220Y5777141D01*
X95862218Y5777139D01*
X95862217Y5777140D01*
X95722862Y5637784D01*
X95722860Y5637781D01*
X95613369Y5473917D01*
X95613368Y5473914D01*
X95582950Y5400478D01*
X95574392Y5379816D01*
X95546870Y5313372D01*
X95537950Y5291839D01*
X95537947Y5291828D01*
X95499500Y5098546D01*
X95499500Y1999500D01*
X95480546Y1904212D01*
X95426570Y1823430D01*
X95345788Y1769454D01*
X95250500Y1750500D01*
X92549000Y1750500D01*
X92453712Y1769454D01*
X92372930Y1823430D01*
X92318954Y1904212D01*
X92300000Y1999500D01*
X92300000Y4070668D01*
X92300010Y4070733D01*
X92300000Y4070929D01*
X92300000Y4186628D01*
X92301566Y4214509D01*
X92305565Y4250000D01*
X92305565Y4250004D01*
X92285369Y4429246D01*
X92285368Y4429255D01*
X92225789Y4599522D01*
X92225786Y4599527D01*
X92225785Y4599530D01*
X92129819Y4752258D01*
X92129817Y4752260D01*
X92129816Y4752262D01*
X92002262Y4879816D01*
X92002259Y4879818D01*
X92002257Y4879820D01*
X91849529Y4975786D01*
X91849524Y4975788D01*
X91849522Y4975789D01*
X91679255Y5035368D01*
X91679251Y5035369D01*
X91679245Y5035370D01*
X91500004Y5055565D01*
X91499996Y5055565D01*
X91320754Y5035370D01*
X91320746Y5035369D01*
X91320745Y5035368D01*
X91150478Y4975789D01*
X91150476Y4975789D01*
X91150476Y4975788D01*
X91150470Y4975786D01*
X90997742Y4879820D01*
X90870183Y4752261D01*
X90856539Y4730546D01*
X90774211Y4599522D01*
X90774209Y4599519D01*
X90766773Y4587683D01*
X90764348Y4589207D01*
X90731346Y4542717D01*
X89512062Y3323431D01*
X89431280Y3269454D01*
X89335992Y3250500D01*
X85414007Y3250500D01*
X85318719Y3269454D01*
X85237937Y3323430D01*
X83896280Y4665087D01*
X82478416Y6082952D01*
X82471193Y6087778D01*
X82375887Y6151458D01*
X82375888Y6151458D01*
X82375886Y6151459D01*
X82355495Y6165084D01*
X82355489Y6165087D01*
X82355484Y6165090D01*
X82218914Y6221658D01*
X82218911Y6221659D01*
X82073920Y6250500D01*
X82073918Y6250500D01*
X78414008Y6250500D01*
X78318720Y6269454D01*
X78237938Y6323430D01*
X76811364Y7750004D01*
X83694435Y7750004D01*
X83694435Y7749997D01*
X83714630Y7570755D01*
X83714631Y7570749D01*
X83714632Y7570745D01*
X83774211Y7400478D01*
X83774212Y7400477D01*
X83774214Y7400471D01*
X83870180Y7247743D01*
X83870182Y7247741D01*
X83870184Y7247738D01*
X83997738Y7120184D01*
X83997740Y7120183D01*
X83997742Y7120181D01*
X84150470Y7024215D01*
X84150473Y7024214D01*
X84150478Y7024211D01*
X84320745Y6964632D01*
X84320754Y6964631D01*
X84499996Y6944435D01*
X84500000Y6944435D01*
X84500004Y6944435D01*
X84639908Y6960199D01*
X84679255Y6964632D01*
X84849522Y7024211D01*
X84992524Y7114065D01*
X85083291Y7148713D01*
X85180407Y7145988D01*
X85257476Y7114065D01*
X85400471Y7024215D01*
X85400472Y7024215D01*
X85400478Y7024211D01*
X85570745Y6964632D01*
X85570754Y6964631D01*
X85749996Y6944435D01*
X85750000Y6944435D01*
X85750004Y6944435D01*
X85889908Y6960199D01*
X85929255Y6964632D01*
X86099522Y7024211D01*
X86099527Y7024215D01*
X86099529Y7024215D01*
X86252257Y7120181D01*
X86252256Y7120181D01*
X86252262Y7120184D01*
X86379816Y7247738D01*
X86475789Y7400478D01*
X86535368Y7570745D01*
X86546807Y7672273D01*
X86555565Y7749997D01*
X86555565Y7750004D01*
X86535369Y7929246D01*
X86535368Y7929255D01*
X86475789Y8099522D01*
X86475786Y8099527D01*
X86475785Y8099530D01*
X86379819Y8252258D01*
X86379817Y8252260D01*
X86379816Y8252262D01*
X86252262Y8379816D01*
X86252259Y8379818D01*
X86252257Y8379820D01*
X86099529Y8475786D01*
X86099524Y8475788D01*
X86099522Y8475789D01*
X85929255Y8535368D01*
X85929251Y8535369D01*
X85929245Y8535370D01*
X85750004Y8555565D01*
X85749996Y8555565D01*
X85570754Y8535370D01*
X85570746Y8535369D01*
X85570745Y8535368D01*
X85400478Y8475789D01*
X85400476Y8475789D01*
X85400476Y8475788D01*
X85400473Y8475787D01*
X85257475Y8385935D01*
X85166708Y8351288D01*
X85069592Y8354013D01*
X84992525Y8385935D01*
X84849526Y8475787D01*
X84849524Y8475788D01*
X84849522Y8475789D01*
X84679255Y8535368D01*
X84679251Y8535369D01*
X84679245Y8535370D01*
X84500004Y8555565D01*
X84499996Y8555565D01*
X84320754Y8535370D01*
X84320746Y8535369D01*
X84320745Y8535368D01*
X84150478Y8475789D01*
X84150476Y8475789D01*
X84150476Y8475788D01*
X84150470Y8475786D01*
X83997742Y8379820D01*
X83870180Y8252258D01*
X83774214Y8099530D01*
X83774212Y8099524D01*
X83714632Y7929254D01*
X83714630Y7929246D01*
X83694435Y7750004D01*
X76811364Y7750004D01*
X75534226Y9027142D01*
X72728416Y11832952D01*
X72728412Y11832955D01*
X72728410Y11832957D01*
X72728411Y11832957D01*
X72654732Y11882185D01*
X72654729Y11882188D01*
X72654729Y11882187D01*
X72605495Y11915084D01*
X72468913Y11971658D01*
X72468911Y11971659D01*
X72323920Y12000500D01*
X72323918Y12000500D01*
X62164007Y12000500D01*
X62068719Y12019454D01*
X61987937Y12073430D01*
X48611938Y25449430D01*
X48557962Y25530212D01*
X48539008Y25625500D01*
X48557962Y25720788D01*
X48611938Y25801570D01*
X48692720Y25855546D01*
X48788008Y25874500D01*
X59337770Y25874500D01*
X59433058Y25855546D01*
G37*
%TD.AperFunction*%
%TA.AperFunction,Conductor*%
G36*
X64195788Y49030546D02*
G01*
X64276570Y48976570D01*
X64330546Y48895788D01*
X64349500Y48800500D01*
X64349500Y47910118D01*
X64380024Y47836426D01*
X64436426Y47780024D01*
X64510118Y47749500D01*
X64589882Y47749500D01*
X66300500Y47749500D01*
X66395788Y47730546D01*
X66476570Y47676570D01*
X66530546Y47595788D01*
X66549500Y47500500D01*
X66549500Y45374500D01*
X66530546Y45279212D01*
X66476570Y45198430D01*
X66395788Y45144454D01*
X66300500Y45125500D01*
X65262231Y45125500D01*
X65166943Y45144454D01*
X65086161Y45198430D01*
X63385858Y46898733D01*
X61660159Y48624431D01*
X61606184Y48705212D01*
X61587230Y48800500D01*
X61606184Y48895788D01*
X61660160Y48976570D01*
X61740942Y49030546D01*
X61836230Y49049500D01*
X64100500Y49049500D01*
X64195788Y49030546D01*
G37*
%TD.AperFunction*%
%TA.AperFunction,Conductor*%
G36*
X97396288Y63905546D02*
G01*
X97477070Y63851570D01*
X97531046Y63770788D01*
X97550000Y63675500D01*
X97550000Y60612959D01*
X97549659Y60599928D01*
X97544422Y60500000D01*
X97545163Y60485860D01*
X97549659Y60400074D01*
X97550000Y60387043D01*
X97550000Y56750000D01*
X104423771Y56797735D01*
X104519188Y56779443D01*
X104600343Y56726029D01*
X104654879Y56645624D01*
X104674494Y56550470D01*
X104674500Y56548741D01*
X104674500Y43729102D01*
X104655546Y43633814D01*
X104601570Y43553032D01*
X104520788Y43499056D01*
X104425500Y43480102D01*
X104330212Y43499056D01*
X104287164Y43522065D01*
X104198677Y43581190D01*
X104198672Y43581192D01*
X104016691Y43656571D01*
X103823489Y43695000D01*
X103575001Y43695000D01*
X103575000Y43694999D01*
X103575000Y42995000D01*
X103075000Y42995000D01*
X103075000Y43694999D01*
X103074999Y43695000D01*
X102826511Y43695000D01*
X102633308Y43656571D01*
X102451327Y43581192D01*
X102451320Y43581189D01*
X102287540Y43471754D01*
X102148246Y43332460D01*
X102038811Y43168680D01*
X102038810Y43168676D01*
X101963428Y42986690D01*
X101963428Y42986688D01*
X101955136Y42945001D01*
X101955137Y42945000D01*
X102758012Y42945000D01*
X102740795Y42935060D01*
X102684940Y42879205D01*
X102645444Y42810796D01*
X102625000Y42734496D01*
X102625000Y42655504D01*
X102645444Y42579204D01*
X102684940Y42510795D01*
X102740795Y42454940D01*
X102758012Y42445000D01*
X101955136Y42445000D01*
X101963428Y42403313D01*
X101963428Y42403311D01*
X102038810Y42221325D01*
X102038811Y42221321D01*
X102148246Y42057541D01*
X102287540Y41918247D01*
X102451320Y41808812D01*
X102451327Y41808809D01*
X102633308Y41733430D01*
X102826511Y41695000D01*
X103074999Y41695000D01*
X103075000Y41695001D01*
X103075000Y42395000D01*
X103575000Y42395000D01*
X103575000Y41695001D01*
X103575001Y41695000D01*
X103823489Y41695000D01*
X104016691Y41733430D01*
X104198672Y41808809D01*
X104198679Y41808812D01*
X104287163Y41867935D01*
X104376922Y41905114D01*
X104474077Y41905115D01*
X104563837Y41867935D01*
X104632536Y41799236D01*
X104669715Y41709477D01*
X104674500Y41660899D01*
X104674500Y35089102D01*
X104655546Y34993814D01*
X104601570Y34913032D01*
X104520788Y34859056D01*
X104425500Y34840102D01*
X104330212Y34859056D01*
X104287164Y34882065D01*
X104198677Y34941190D01*
X104198672Y34941192D01*
X104016691Y35016571D01*
X103823489Y35055000D01*
X103575001Y35055000D01*
X103575000Y35054999D01*
X103575000Y34355000D01*
X103075000Y34355000D01*
X103075000Y35054999D01*
X103074999Y35055000D01*
X102826511Y35055000D01*
X102633308Y35016571D01*
X102451327Y34941192D01*
X102451320Y34941189D01*
X102287540Y34831754D01*
X102148246Y34692460D01*
X102038811Y34528680D01*
X102038810Y34528676D01*
X101963428Y34346690D01*
X101963428Y34346688D01*
X101955136Y34305001D01*
X101955137Y34305000D01*
X102758012Y34305000D01*
X102740795Y34295060D01*
X102684940Y34239205D01*
X102645444Y34170796D01*
X102625000Y34094496D01*
X102625000Y34015504D01*
X102645444Y33939204D01*
X102684940Y33870795D01*
X102740795Y33814940D01*
X102758012Y33805000D01*
X101955136Y33805000D01*
X101963428Y33763313D01*
X101963428Y33763311D01*
X102038810Y33581325D01*
X102038811Y33581321D01*
X102148246Y33417541D01*
X102287540Y33278247D01*
X102451320Y33168812D01*
X102451327Y33168809D01*
X102633308Y33093430D01*
X102826511Y33055000D01*
X103074999Y33055000D01*
X103075000Y33055001D01*
X103075000Y33755000D01*
X103575000Y33755000D01*
X103575000Y33055001D01*
X103575001Y33055000D01*
X103823489Y33055000D01*
X104016691Y33093430D01*
X104198672Y33168809D01*
X104198679Y33168812D01*
X104287163Y33227935D01*
X104376922Y33265114D01*
X104474077Y33265115D01*
X104563837Y33227935D01*
X104632536Y33159236D01*
X104669715Y33069477D01*
X104674500Y33020899D01*
X104674500Y21912164D01*
X104655546Y21816876D01*
X104601570Y21736094D01*
X104520788Y21682118D01*
X104425500Y21663164D01*
X104330212Y21682118D01*
X104293024Y21701329D01*
X104174522Y21775789D01*
X104004255Y21835368D01*
X104004251Y21835369D01*
X104004245Y21835370D01*
X103825004Y21855565D01*
X103824996Y21855565D01*
X103645754Y21835370D01*
X103645746Y21835369D01*
X103645745Y21835368D01*
X103475478Y21775789D01*
X103475476Y21775789D01*
X103475476Y21775788D01*
X103475470Y21775786D01*
X103322742Y21679820D01*
X103195180Y21552258D01*
X103099214Y21399530D01*
X103099211Y21399524D01*
X103099211Y21399522D01*
X103040747Y21232440D01*
X103039632Y21229254D01*
X103039630Y21229246D01*
X103019435Y21050004D01*
X103019435Y21049997D01*
X103039630Y20870755D01*
X103039631Y20870749D01*
X103039632Y20870745D01*
X103099211Y20700478D01*
X103099212Y20700477D01*
X103099214Y20700471D01*
X103195180Y20547743D01*
X103195182Y20547741D01*
X103195184Y20547738D01*
X103322738Y20420184D01*
X103322740Y20420183D01*
X103322742Y20420181D01*
X103475470Y20324215D01*
X103475473Y20324214D01*
X103475478Y20324211D01*
X103645745Y20264632D01*
X103645754Y20264631D01*
X103824996Y20244435D01*
X103825000Y20244435D01*
X103825004Y20244435D01*
X103964908Y20260199D01*
X104004255Y20264632D01*
X104174522Y20324211D01*
X104293026Y20398673D01*
X104383790Y20433319D01*
X104480907Y20430594D01*
X104569588Y20390912D01*
X104636334Y20320314D01*
X104670982Y20229547D01*
X104674500Y20187837D01*
X104674500Y11112164D01*
X104655546Y11016876D01*
X104601570Y10936094D01*
X104520788Y10882118D01*
X104425500Y10863164D01*
X104330212Y10882118D01*
X104293024Y10901329D01*
X104273390Y10913666D01*
X104174522Y10975789D01*
X104004255Y11035368D01*
X104004251Y11035369D01*
X104004245Y11035370D01*
X103825004Y11055565D01*
X103824996Y11055565D01*
X103645754Y11035370D01*
X103645746Y11035369D01*
X103645745Y11035368D01*
X103475478Y10975789D01*
X103475476Y10975789D01*
X103475476Y10975788D01*
X103475470Y10975786D01*
X103376609Y10913666D01*
X103285842Y10879018D01*
X103244133Y10875500D01*
X102230502Y10875500D01*
X102135214Y10894454D01*
X102054432Y10948430D01*
X102000456Y11029212D01*
X101981502Y11124500D01*
X101995474Y11206735D01*
X102035368Y11320745D01*
X102055565Y11500000D01*
X102047954Y11567548D01*
X102035369Y11679246D01*
X102035368Y11679255D01*
X101975789Y11849522D01*
X101975786Y11849527D01*
X101975785Y11849530D01*
X101879819Y12002258D01*
X101879817Y12002260D01*
X101879816Y12002262D01*
X101752262Y12129816D01*
X101752259Y12129818D01*
X101752257Y12129820D01*
X101599529Y12225786D01*
X101599524Y12225788D01*
X101599522Y12225789D01*
X101429255Y12285368D01*
X101429251Y12285369D01*
X101429247Y12285370D01*
X101425639Y12285776D01*
X101421028Y12287246D01*
X101415616Y12288481D01*
X101415720Y12288938D01*
X101333073Y12315280D01*
X101277450Y12357140D01*
X101235860Y12398730D01*
X101235858Y12398733D01*
X101148733Y12485858D01*
X101097509Y12520085D01*
X101046286Y12554312D01*
X101011504Y12568719D01*
X100954770Y12592219D01*
X100954769Y12592219D01*
X100954767Y12592220D01*
X100932453Y12601463D01*
X100932449Y12601465D01*
X100872032Y12613482D01*
X100811612Y12625500D01*
X100811607Y12625500D01*
X100811606Y12625500D01*
X90549000Y12625500D01*
X90453712Y12644454D01*
X90372930Y12698430D01*
X90318954Y12779212D01*
X90300000Y12874500D01*
X90300000Y13312270D01*
X90318954Y13407558D01*
X90372930Y13488340D01*
X90529011Y13644421D01*
X91485858Y14601267D01*
X91554312Y14703715D01*
X91572549Y14747743D01*
X91586361Y14781087D01*
X91586362Y14781090D01*
X91596020Y14804408D01*
X91601463Y14817548D01*
X91607627Y14848537D01*
X91625501Y14938394D01*
X91625501Y15061607D01*
X91625501Y15071880D01*
X91625500Y15071906D01*
X91625500Y16818735D01*
X91625000Y16828916D01*
X91625000Y17668973D01*
X91643954Y17764261D01*
X91697930Y17845043D01*
X91778712Y17899019D01*
X91791734Y17903991D01*
X91849522Y17924211D01*
X91849527Y17924215D01*
X91849529Y17924215D01*
X91962184Y17995002D01*
X92002262Y18020184D01*
X92129816Y18147738D01*
X92214074Y18281833D01*
X92225785Y18300471D01*
X92225785Y18300473D01*
X92225789Y18300478D01*
X92285368Y18470745D01*
X92300162Y18602044D01*
X92305565Y18649997D01*
X92305565Y18650004D01*
X92285369Y18829246D01*
X92285368Y18829255D01*
X92225789Y18999522D01*
X92225786Y18999527D01*
X92225785Y18999530D01*
X92129819Y19152258D01*
X92129817Y19152260D01*
X92129816Y19152262D01*
X92002262Y19279816D01*
X92002259Y19279818D01*
X92002257Y19279820D01*
X91849529Y19375786D01*
X91849524Y19375788D01*
X91849522Y19375789D01*
X91679255Y19435368D01*
X91679251Y19435369D01*
X91679245Y19435370D01*
X91500004Y19455565D01*
X91499996Y19455565D01*
X91320754Y19435370D01*
X91320746Y19435369D01*
X91320745Y19435368D01*
X91230292Y19403717D01*
X91150475Y19375788D01*
X91148124Y19374655D01*
X91144759Y19373788D01*
X91137280Y19371170D01*
X91137059Y19371802D01*
X91054047Y19350391D01*
X91040094Y19350000D01*
X89214330Y19350000D01*
X89165758Y19354784D01*
X89118708Y19364142D01*
X89118706Y19364143D01*
X89118705Y19364143D01*
X89061607Y19375500D01*
X89061606Y19375500D01*
X85799000Y19375500D01*
X85703712Y19394454D01*
X85622930Y19448430D01*
X85568954Y19529212D01*
X85550000Y19624500D01*
X85550000Y20436628D01*
X85551566Y20464509D01*
X85555565Y20500000D01*
X85555565Y20500002D01*
X85551566Y20535492D01*
X85550000Y20563372D01*
X85550000Y21512270D01*
X85568954Y21607558D01*
X85622930Y21688340D01*
X86611660Y22677070D01*
X86692442Y22731046D01*
X86787730Y22750000D01*
X88625500Y22750000D01*
X88720788Y22731046D01*
X88801570Y22677070D01*
X88855546Y22596288D01*
X88874500Y22501000D01*
X88874500Y21938392D01*
X88885626Y21882455D01*
X88898537Y21817549D01*
X88898538Y21817544D01*
X88898815Y21816876D01*
X88901367Y21810717D01*
X88945688Y21703714D01*
X88973096Y21662696D01*
X88973097Y21662694D01*
X89009938Y21607558D01*
X89014142Y21601267D01*
X89101267Y21514142D01*
X89101270Y21514140D01*
X90364139Y20251271D01*
X90364142Y20251267D01*
X90451267Y20164142D01*
X90553714Y20095689D01*
X90553716Y20095689D01*
X90553718Y20095687D01*
X90628692Y20064632D01*
X90667548Y20048537D01*
X90688169Y20044436D01*
X90688170Y20044435D01*
X90696456Y20042787D01*
X90788393Y20024500D01*
X90788394Y20024500D01*
X93661606Y20024500D01*
X93661607Y20024500D01*
X93737778Y20039652D01*
X93786353Y20044435D01*
X93813982Y20044435D01*
X93813982Y20042787D01*
X93894427Y20036003D01*
X93980745Y19991412D01*
X94043428Y19917183D01*
X94072934Y19824617D01*
X94074500Y19796733D01*
X94074500Y18412231D01*
X94055546Y18316943D01*
X94001570Y18236161D01*
X93814140Y18048731D01*
X93786134Y18006817D01*
X93745686Y17946284D01*
X93745685Y17946283D01*
X93724240Y17894509D01*
X93724241Y17894508D01*
X93706334Y17851274D01*
X93706331Y17851267D01*
X93704622Y17847140D01*
X93698537Y17832451D01*
X93684314Y17760941D01*
X93682877Y17753717D01*
X93682876Y17753713D01*
X93674500Y17711607D01*
X93674500Y15888391D01*
X93681029Y15855569D01*
X93681029Y15855565D01*
X93681030Y15855565D01*
X93698534Y15767560D01*
X93698537Y15767548D01*
X93701847Y15759559D01*
X93701849Y15759547D01*
X93701852Y15759547D01*
X93701852Y15759546D01*
X93745688Y15653714D01*
X93772647Y15613368D01*
X93808175Y15560196D01*
X93814142Y15551267D01*
X93901267Y15464142D01*
X93901270Y15464140D01*
X94342860Y15022550D01*
X94396836Y14941768D01*
X94414224Y14874361D01*
X94414630Y14870753D01*
X94414631Y14870749D01*
X94414632Y14870745D01*
X94474211Y14700478D01*
X94474212Y14700477D01*
X94474214Y14700471D01*
X94570180Y14547743D01*
X94570182Y14547741D01*
X94570184Y14547738D01*
X94697738Y14420184D01*
X94697740Y14420183D01*
X94697742Y14420181D01*
X94850470Y14324215D01*
X94850473Y14324214D01*
X94850478Y14324211D01*
X95020745Y14264632D01*
X95020754Y14264631D01*
X95199996Y14244435D01*
X95200000Y14244435D01*
X95200004Y14244435D01*
X95339908Y14260199D01*
X95379255Y14264632D01*
X95549522Y14324211D01*
X95549527Y14324215D01*
X95549529Y14324215D01*
X95668123Y14398733D01*
X95702262Y14420184D01*
X95750928Y14468851D01*
X95831706Y14522825D01*
X95926994Y14541780D01*
X95975570Y14536996D01*
X96038394Y14524499D01*
X96173895Y14524499D01*
X96173915Y14524500D01*
X99061607Y14524500D01*
X99122026Y14536519D01*
X99122030Y14536519D01*
X99162401Y14544549D01*
X99182452Y14548537D01*
X99223332Y14565470D01*
X99296286Y14595688D01*
X99369344Y14644505D01*
X99398733Y14664142D01*
X99485858Y14751267D01*
X99485860Y14751271D01*
X99698729Y14964140D01*
X99698733Y14964142D01*
X99785858Y15051267D01*
X99826176Y15111607D01*
X99854312Y15153714D01*
X99901463Y15267549D01*
X99908818Y15304523D01*
X99916507Y15343182D01*
X99917769Y15349524D01*
X99917786Y15349615D01*
X99925500Y15388393D01*
X99925500Y15511607D01*
X99925500Y16775004D01*
X101419435Y16775004D01*
X101419435Y16774997D01*
X101439630Y16595755D01*
X101439631Y16595749D01*
X101439632Y16595745D01*
X101499211Y16425478D01*
X101499212Y16425477D01*
X101499214Y16425471D01*
X101595180Y16272743D01*
X101595182Y16272741D01*
X101595184Y16272738D01*
X101722738Y16145184D01*
X101722740Y16145183D01*
X101722742Y16145181D01*
X101875470Y16049215D01*
X101875473Y16049214D01*
X101875478Y16049211D01*
X102045745Y15989632D01*
X102045754Y15989631D01*
X102224996Y15969435D01*
X102225000Y15969435D01*
X102225004Y15969435D01*
X102364908Y15985199D01*
X102404255Y15989632D01*
X102574522Y16049211D01*
X102574527Y16049215D01*
X102574529Y16049215D01*
X102727257Y16145181D01*
X102727256Y16145181D01*
X102727262Y16145184D01*
X102854816Y16272738D01*
X102950789Y16425478D01*
X103010368Y16595745D01*
X103025020Y16725788D01*
X103030565Y16774997D01*
X103030565Y16775004D01*
X103010369Y16954246D01*
X103010368Y16954255D01*
X102950789Y17124522D01*
X102950786Y17124527D01*
X102950785Y17124530D01*
X102854819Y17277258D01*
X102854817Y17277260D01*
X102854816Y17277262D01*
X102727262Y17404816D01*
X102727259Y17404818D01*
X102727257Y17404820D01*
X102574529Y17500786D01*
X102574524Y17500788D01*
X102574522Y17500789D01*
X102404255Y17560368D01*
X102404251Y17560369D01*
X102404245Y17560370D01*
X102225004Y17580565D01*
X102224996Y17580565D01*
X102045754Y17560370D01*
X102045746Y17560369D01*
X102045745Y17560368D01*
X101875478Y17500789D01*
X101875476Y17500789D01*
X101875476Y17500788D01*
X101875470Y17500786D01*
X101722742Y17404820D01*
X101595180Y17277258D01*
X101499214Y17124530D01*
X101499211Y17124524D01*
X101499211Y17124522D01*
X101447616Y16977070D01*
X101439632Y16954254D01*
X101439630Y16954246D01*
X101419435Y16775004D01*
X99925500Y16775004D01*
X99925500Y23887772D01*
X99944454Y23983060D01*
X99989184Y24050004D01*
X101994435Y24050004D01*
X101994435Y24049997D01*
X102014630Y23870755D01*
X102014631Y23870749D01*
X102014632Y23870745D01*
X102074211Y23700478D01*
X102074212Y23700477D01*
X102074214Y23700471D01*
X102170180Y23547743D01*
X102170182Y23547741D01*
X102170184Y23547738D01*
X102297738Y23420184D01*
X102297740Y23420183D01*
X102297742Y23420181D01*
X102450470Y23324215D01*
X102450473Y23324214D01*
X102450478Y23324211D01*
X102620745Y23264632D01*
X102620754Y23264631D01*
X102799996Y23244435D01*
X102800000Y23244435D01*
X102800004Y23244435D01*
X102939908Y23260199D01*
X102979255Y23264632D01*
X103149522Y23324211D01*
X103149527Y23324215D01*
X103149529Y23324215D01*
X103270889Y23400471D01*
X103302262Y23420184D01*
X103429816Y23547738D01*
X103486393Y23637779D01*
X103525785Y23700471D01*
X103525785Y23700473D01*
X103525789Y23700478D01*
X103585368Y23870745D01*
X103605565Y24050000D01*
X103599985Y24099522D01*
X103585369Y24229246D01*
X103585368Y24229255D01*
X103525789Y24399522D01*
X103525786Y24399527D01*
X103525785Y24399530D01*
X103429819Y24552258D01*
X103429817Y24552260D01*
X103429816Y24552262D01*
X103302262Y24679816D01*
X103302259Y24679818D01*
X103302257Y24679820D01*
X103149529Y24775786D01*
X103149524Y24775788D01*
X103149522Y24775789D01*
X102979255Y24835368D01*
X102979251Y24835369D01*
X102979245Y24835370D01*
X102800004Y24855565D01*
X102799996Y24855565D01*
X102620754Y24835370D01*
X102620746Y24835369D01*
X102620745Y24835368D01*
X102450478Y24775789D01*
X102450476Y24775789D01*
X102450476Y24775788D01*
X102450470Y24775786D01*
X102297742Y24679820D01*
X102170180Y24552258D01*
X102074214Y24399530D01*
X102074211Y24399524D01*
X102074211Y24399522D01*
X102016943Y24235858D01*
X102014632Y24229254D01*
X102014630Y24229246D01*
X101994435Y24050004D01*
X99989184Y24050004D01*
X99998428Y24063839D01*
X100227451Y24292863D01*
X100308229Y24346837D01*
X100375643Y24364226D01*
X100379255Y24364632D01*
X100549522Y24424211D01*
X100549527Y24424215D01*
X100549529Y24424215D01*
X100702257Y24520181D01*
X100702256Y24520181D01*
X100702262Y24520184D01*
X100829816Y24647738D01*
X100854998Y24687816D01*
X100925785Y24800471D01*
X100925785Y24800473D01*
X100925789Y24800478D01*
X100985368Y24970745D01*
X101005565Y25150000D01*
X101005400Y25151463D01*
X100985369Y25329246D01*
X100985368Y25329255D01*
X100925789Y25499522D01*
X100925786Y25499527D01*
X100925785Y25499530D01*
X100829819Y25652258D01*
X100829817Y25652260D01*
X100829816Y25652262D01*
X100702262Y25779816D01*
X100702259Y25779818D01*
X100702257Y25779820D01*
X100549529Y25875786D01*
X100549524Y25875788D01*
X100549522Y25875789D01*
X100379255Y25935368D01*
X100379251Y25935369D01*
X100379245Y25935370D01*
X100200004Y25955565D01*
X100199996Y25955565D01*
X100020754Y25935370D01*
X100020746Y25935369D01*
X100020745Y25935368D01*
X99850478Y25875789D01*
X99850476Y25875789D01*
X99850476Y25875788D01*
X99850470Y25875786D01*
X99697742Y25779820D01*
X99570180Y25652258D01*
X99474214Y25499530D01*
X99474211Y25499524D01*
X99474211Y25499522D01*
X99457393Y25451459D01*
X99414630Y25329250D01*
X99414224Y25325640D01*
X99412752Y25321025D01*
X99411518Y25315615D01*
X99411061Y25315720D01*
X99384719Y25233073D01*
X99342860Y25177453D01*
X99238339Y25072931D01*
X99157558Y25018954D01*
X99062270Y25000000D01*
X96249000Y25000000D01*
X96153712Y25018954D01*
X96072930Y25072930D01*
X96018954Y25153712D01*
X96000000Y25249000D01*
X96000000Y26946899D01*
X96018954Y27042187D01*
X96041963Y27085235D01*
X96054312Y27103715D01*
X96083845Y27175015D01*
X96101463Y27217548D01*
X96105609Y27238394D01*
X96125501Y27338394D01*
X96125501Y27461607D01*
X96125501Y27471880D01*
X96125500Y27471906D01*
X96125500Y34305001D01*
X97625136Y34305001D01*
X97625137Y34305000D01*
X98428012Y34305000D01*
X98410795Y34295060D01*
X98354940Y34239205D01*
X98315444Y34170796D01*
X98295000Y34094496D01*
X98295000Y34015504D01*
X98315444Y33939204D01*
X98354940Y33870795D01*
X98410795Y33814940D01*
X98428012Y33805000D01*
X97625136Y33805000D01*
X97633428Y33763313D01*
X97633428Y33763311D01*
X97708810Y33581325D01*
X97708811Y33581321D01*
X97818246Y33417541D01*
X97957540Y33278247D01*
X98121320Y33168812D01*
X98121327Y33168809D01*
X98303308Y33093430D01*
X98496511Y33055000D01*
X98894999Y33055000D01*
X98895000Y33055001D01*
X98895000Y33755000D01*
X99395000Y33755000D01*
X99395000Y33055001D01*
X99395001Y33055000D01*
X99793489Y33055000D01*
X99986691Y33093430D01*
X100168672Y33168809D01*
X100168679Y33168812D01*
X100332459Y33278247D01*
X100471753Y33417541D01*
X100581188Y33581321D01*
X100581189Y33581325D01*
X100656571Y33763311D01*
X100656571Y33763313D01*
X100664863Y33805000D01*
X99861988Y33805000D01*
X99879205Y33814940D01*
X99935060Y33870795D01*
X99974556Y33939204D01*
X99995000Y34015504D01*
X99995000Y34094496D01*
X99974556Y34170796D01*
X99935060Y34239205D01*
X99879205Y34295060D01*
X99861988Y34305000D01*
X100664863Y34305000D01*
X100664863Y34305001D01*
X100656571Y34346688D01*
X100656571Y34346690D01*
X100581189Y34528676D01*
X100581188Y34528680D01*
X100471753Y34692460D01*
X100332458Y34831755D01*
X100237662Y34895096D01*
X100168964Y34963795D01*
X100131784Y35053555D01*
X100131785Y35150709D01*
X100160360Y35226630D01*
X100181281Y35262865D01*
X100220500Y35409234D01*
X100220500Y35560766D01*
X100220439Y35560992D01*
X100195348Y35654635D01*
X100181281Y35707135D01*
X100105515Y35838365D01*
X99998365Y35945515D01*
X99998362Y35945517D01*
X99998361Y35945518D01*
X99928834Y35985659D01*
X99867135Y36021281D01*
X99867132Y36021282D01*
X99867134Y36021282D01*
X99720766Y36060500D01*
X99569234Y36060500D01*
X99422866Y36021282D01*
X99291638Y35945518D01*
X99184482Y35838362D01*
X99108718Y35707134D01*
X99069500Y35560767D01*
X99069500Y35409234D01*
X99080429Y35368445D01*
X99086783Y35271498D01*
X99055553Y35179499D01*
X98991494Y35106454D01*
X98904358Y35063484D01*
X98839913Y35055000D01*
X98496511Y35055000D01*
X98303308Y35016571D01*
X98121327Y34941192D01*
X98121320Y34941189D01*
X97957540Y34831754D01*
X97818246Y34692460D01*
X97708811Y34528680D01*
X97708810Y34528676D01*
X97633428Y34346690D01*
X97633428Y34346688D01*
X97625136Y34305001D01*
X96125500Y34305001D01*
X96125500Y38050004D01*
X99594435Y38050004D01*
X99594435Y38049997D01*
X99614630Y37870755D01*
X99614631Y37870749D01*
X99614632Y37870745D01*
X99674211Y37700478D01*
X99674212Y37700477D01*
X99674214Y37700471D01*
X99770180Y37547743D01*
X99770182Y37547741D01*
X99770184Y37547738D01*
X99897738Y37420184D01*
X99897740Y37420183D01*
X99897742Y37420181D01*
X100050470Y37324215D01*
X100050473Y37324214D01*
X100050478Y37324211D01*
X100220745Y37264632D01*
X100220754Y37264631D01*
X100399996Y37244435D01*
X100400000Y37244435D01*
X100400004Y37244435D01*
X100539908Y37260199D01*
X100579255Y37264632D01*
X100749522Y37324211D01*
X100749527Y37324215D01*
X100749529Y37324215D01*
X100902257Y37420181D01*
X100902256Y37420181D01*
X100902262Y37420184D01*
X101029816Y37547738D01*
X101105921Y37668858D01*
X101125785Y37700471D01*
X101125785Y37700473D01*
X101125789Y37700478D01*
X101185368Y37870745D01*
X101190264Y37914205D01*
X101219765Y38006767D01*
X101261625Y38062392D01*
X102180520Y38981284D01*
X102187564Y38993486D01*
X102227136Y39045059D01*
X102329816Y39147738D01*
X102425789Y39300478D01*
X102485368Y39470745D01*
X102494925Y39555565D01*
X102505565Y39649997D01*
X102505565Y39650004D01*
X102485369Y39829246D01*
X102485368Y39829255D01*
X102425789Y39999522D01*
X102425786Y39999527D01*
X102425785Y39999530D01*
X102329819Y40152258D01*
X102329817Y40152260D01*
X102329816Y40152262D01*
X102202262Y40279816D01*
X102202259Y40279818D01*
X102202257Y40279820D01*
X102049529Y40375786D01*
X102049524Y40375788D01*
X102049522Y40375789D01*
X101879255Y40435368D01*
X101879251Y40435369D01*
X101879245Y40435370D01*
X101700004Y40455565D01*
X101699996Y40455565D01*
X101520754Y40435370D01*
X101520746Y40435369D01*
X101520745Y40435368D01*
X101350478Y40375789D01*
X101350476Y40375789D01*
X101350476Y40375788D01*
X101350470Y40375786D01*
X101197742Y40279820D01*
X101070180Y40152258D01*
X100974214Y39999530D01*
X100974211Y39999524D01*
X100974211Y39999522D01*
X100938943Y39898730D01*
X100914632Y39829254D01*
X100914630Y39829246D01*
X100894435Y39650004D01*
X100894435Y39649996D01*
X100906965Y39538785D01*
X100898799Y39441974D01*
X100854206Y39355657D01*
X100835600Y39334837D01*
X100412392Y38911630D01*
X100331611Y38857654D01*
X100264206Y38840266D01*
X100220752Y38835370D01*
X100220746Y38835369D01*
X100220745Y38835368D01*
X100050478Y38775789D01*
X100050476Y38775789D01*
X100050476Y38775788D01*
X100050470Y38775786D01*
X99897742Y38679820D01*
X99770180Y38552258D01*
X99674214Y38399530D01*
X99674211Y38399524D01*
X99674211Y38399522D01*
X99621100Y38247738D01*
X99614632Y38229254D01*
X99614630Y38229246D01*
X99594435Y38050004D01*
X96125500Y38050004D01*
X96125500Y39426085D01*
X96125501Y39426106D01*
X96125501Y39561607D01*
X96125500Y39561609D01*
X96112990Y39624499D01*
X96101463Y39682451D01*
X96099721Y39686656D01*
X96098997Y39688404D01*
X96098996Y39688407D01*
X96075670Y39744722D01*
X96061418Y39779129D01*
X96054312Y39796285D01*
X96042698Y39813666D01*
X95985860Y39898730D01*
X95985858Y39898733D01*
X93735859Y42148731D01*
X93735858Y42148733D01*
X93648733Y42235858D01*
X93635156Y42244930D01*
X93591333Y42274212D01*
X93591331Y42274213D01*
X93546288Y42304311D01*
X93546286Y42304312D01*
X93465792Y42337653D01*
X93465791Y42337654D01*
X93432452Y42351463D01*
X93341902Y42369474D01*
X93341900Y42369475D01*
X93341898Y42369476D01*
X93311608Y42375500D01*
X93311607Y42375500D01*
X93311606Y42375500D01*
X86330867Y42375500D01*
X86235579Y42394454D01*
X86198391Y42413666D01*
X86099529Y42475786D01*
X86099524Y42475788D01*
X86099522Y42475789D01*
X85929255Y42535368D01*
X85929251Y42535369D01*
X85929245Y42535370D01*
X85750004Y42555565D01*
X85749996Y42555565D01*
X85570754Y42535370D01*
X85570746Y42535369D01*
X85570745Y42535368D01*
X85400478Y42475789D01*
X85400476Y42475789D01*
X85400476Y42475788D01*
X85400470Y42475786D01*
X85247742Y42379820D01*
X85120180Y42252258D01*
X85024214Y42099530D01*
X85024211Y42099524D01*
X85024211Y42099522D01*
X84964632Y41929255D01*
X84964631Y41929253D01*
X84960014Y41916056D01*
X84958016Y41916755D01*
X84926001Y41845227D01*
X84855396Y41778488D01*
X84850000Y41776429D01*
X84850000Y40200000D01*
X84893250Y40164543D01*
X84954924Y40089474D01*
X84970412Y40054226D01*
X85024211Y39900478D01*
X85024212Y39900477D01*
X85024213Y39900475D01*
X85024214Y39900471D01*
X85120180Y39747743D01*
X85120182Y39747741D01*
X85120184Y39747738D01*
X85247738Y39620184D01*
X85247740Y39620183D01*
X85247742Y39620181D01*
X85400470Y39524215D01*
X85400473Y39524214D01*
X85400478Y39524211D01*
X85570745Y39464632D01*
X85570754Y39464631D01*
X85749996Y39444435D01*
X85750000Y39444435D01*
X85750004Y39444435D01*
X85889908Y39460199D01*
X85929255Y39464632D01*
X86099522Y39524211D01*
X86099527Y39524215D01*
X86099529Y39524215D01*
X86252257Y39620181D01*
X86252256Y39620181D01*
X86252262Y39620184D01*
X86379816Y39747738D01*
X86421241Y39813666D01*
X86475785Y39900471D01*
X86475785Y39900473D01*
X86475789Y39900478D01*
X86535368Y40070745D01*
X86535774Y40074355D01*
X86537245Y40078969D01*
X86538479Y40084375D01*
X86538934Y40084271D01*
X86565272Y40166917D01*
X86607136Y40222547D01*
X86880731Y40496141D01*
X86936161Y40551570D01*
X87016943Y40605546D01*
X87112230Y40624500D01*
X92387770Y40624500D01*
X92483058Y40605546D01*
X92563840Y40551570D01*
X94301570Y38813840D01*
X94355546Y38733058D01*
X94374500Y38637770D01*
X94374500Y28012230D01*
X94355546Y27916942D01*
X94301570Y27836160D01*
X93613840Y27148430D01*
X93533058Y27094454D01*
X93437770Y27075500D01*
X88638389Y27075500D01*
X88598417Y27067549D01*
X88598416Y27067550D01*
X88517554Y27051465D01*
X88517538Y27051460D01*
X88487805Y27039143D01*
X88487803Y27039142D01*
X88449700Y27023360D01*
X88403714Y27004312D01*
X88399162Y27001270D01*
X88399158Y27001267D01*
X88301269Y26935861D01*
X88214141Y26848732D01*
X86588339Y25222930D01*
X86507557Y25168954D01*
X86412269Y25150000D01*
X84473147Y25150000D01*
X84420655Y25085507D01*
X84335159Y25039361D01*
X84322395Y25035945D01*
X84320746Y25035369D01*
X84320745Y25035368D01*
X84150478Y24975789D01*
X84150476Y24975789D01*
X84150476Y24975788D01*
X84150470Y24975786D01*
X83997742Y24879820D01*
X83870180Y24752258D01*
X83774214Y24599530D01*
X83774211Y24599524D01*
X83774211Y24599522D01*
X83739562Y24500500D01*
X83722677Y24452246D01*
X83700000Y24413804D01*
X83700000Y24313372D01*
X83698434Y24285492D01*
X83694690Y24252260D01*
X83694435Y24250000D01*
X83696772Y24229254D01*
X83698434Y24214509D01*
X83700000Y24186628D01*
X83700000Y22437731D01*
X83681046Y22342443D01*
X83627070Y22261661D01*
X82764140Y21398732D01*
X82744595Y21369479D01*
X82744592Y21369474D01*
X82695687Y21296285D01*
X82666488Y21225791D01*
X82666488Y21225789D01*
X82648535Y21182449D01*
X82643848Y21158886D01*
X82643849Y21158885D01*
X82625274Y21065497D01*
X82625268Y21065467D01*
X82624500Y21061609D01*
X82624120Y21057752D01*
X82622993Y21054040D01*
X82622110Y21049600D01*
X82621672Y21049687D01*
X82595911Y20964782D01*
X82587155Y20949698D01*
X82524213Y20849527D01*
X82524211Y20849524D01*
X82524211Y20849522D01*
X82469590Y20693422D01*
X82464632Y20679254D01*
X82464630Y20679246D01*
X82444435Y20500004D01*
X82444435Y20500000D01*
X82448434Y20464509D01*
X82450000Y20436628D01*
X82450000Y19624500D01*
X82431046Y19529212D01*
X82377070Y19448430D01*
X82296288Y19394454D01*
X82201000Y19375500D01*
X79612230Y19375500D01*
X79516942Y19394454D01*
X79436160Y19448430D01*
X77735860Y21148730D01*
X77735858Y21148733D01*
X77648733Y21235858D01*
X77588528Y21276086D01*
X77546286Y21304312D01*
X77510529Y21319123D01*
X77452443Y21343183D01*
X77452443Y21343184D01*
X77432457Y21351461D01*
X77432455Y21351462D01*
X77432453Y21351463D01*
X77432452Y21351463D01*
X77341902Y21369474D01*
X77341900Y21369475D01*
X77341898Y21369476D01*
X77311608Y21375500D01*
X77311607Y21375500D01*
X77311606Y21375500D01*
X74362231Y21375500D01*
X74266943Y21394454D01*
X74186161Y21448430D01*
X73284587Y22350004D01*
X78294435Y22350004D01*
X78294435Y22349997D01*
X78314630Y22170755D01*
X78314631Y22170749D01*
X78314632Y22170745D01*
X78374211Y22000478D01*
X78374212Y22000477D01*
X78374214Y22000471D01*
X78470180Y21847743D01*
X78470182Y21847741D01*
X78470184Y21847738D01*
X78597738Y21720184D01*
X78597740Y21720183D01*
X78597742Y21720181D01*
X78750470Y21624215D01*
X78750473Y21624214D01*
X78750478Y21624211D01*
X78920745Y21564632D01*
X78920754Y21564631D01*
X79099996Y21544435D01*
X79100000Y21544435D01*
X79100004Y21544435D01*
X79239908Y21560199D01*
X79279255Y21564632D01*
X79449522Y21624211D01*
X79449527Y21624215D01*
X79449529Y21624215D01*
X79602257Y21720181D01*
X79602256Y21720181D01*
X79602262Y21720184D01*
X79729816Y21847738D01*
X79770328Y21912212D01*
X79825785Y22000471D01*
X79825785Y22000473D01*
X79825789Y22000478D01*
X79885368Y22170745D01*
X79891359Y22223914D01*
X79905565Y22349997D01*
X79905565Y22350004D01*
X79885369Y22529246D01*
X79885368Y22529255D01*
X79825789Y22699522D01*
X79825786Y22699527D01*
X79825785Y22699530D01*
X79729819Y22852258D01*
X79729817Y22852260D01*
X79729816Y22852262D01*
X79602262Y22979816D01*
X79602259Y22979818D01*
X79602257Y22979820D01*
X79449529Y23075786D01*
X79449524Y23075788D01*
X79449522Y23075789D01*
X79279255Y23135368D01*
X79279251Y23135369D01*
X79279245Y23135370D01*
X79100004Y23155565D01*
X79099996Y23155565D01*
X78920754Y23135370D01*
X78920746Y23135369D01*
X78920745Y23135368D01*
X78750478Y23075789D01*
X78750476Y23075789D01*
X78750476Y23075788D01*
X78750470Y23075786D01*
X78597742Y22979820D01*
X78470180Y22852258D01*
X78374214Y22699530D01*
X78374211Y22699524D01*
X78374211Y22699522D01*
X78319590Y22543422D01*
X78314632Y22529254D01*
X78314630Y22529246D01*
X78294435Y22350004D01*
X73284587Y22350004D01*
X71485859Y24148731D01*
X71485858Y24148733D01*
X71398733Y24235858D01*
X71321739Y24287304D01*
X71296286Y24304312D01*
X71296285Y24304313D01*
X71296283Y24304314D01*
X71215794Y24337652D01*
X71182452Y24351463D01*
X71167334Y24354470D01*
X71091902Y24369474D01*
X71091900Y24369475D01*
X71091898Y24369476D01*
X71061608Y24375500D01*
X71061607Y24375500D01*
X71061606Y24375500D01*
X70230502Y24375500D01*
X70135214Y24394454D01*
X70054432Y24448430D01*
X70000456Y24529212D01*
X69981502Y24624500D01*
X69995474Y24706735D01*
X70035368Y24820745D01*
X70055565Y25000000D01*
X70055440Y25001105D01*
X70035369Y25179246D01*
X70035368Y25179255D01*
X69975789Y25349522D01*
X69975786Y25349527D01*
X69975785Y25349530D01*
X69879819Y25502258D01*
X69879817Y25502260D01*
X69879816Y25502262D01*
X69752262Y25629816D01*
X69752259Y25629818D01*
X69752257Y25629820D01*
X69599529Y25725786D01*
X69599524Y25725788D01*
X69599522Y25725789D01*
X69429255Y25785368D01*
X69429251Y25785369D01*
X69429245Y25785370D01*
X69250004Y25805565D01*
X69249996Y25805565D01*
X69070754Y25785370D01*
X69070743Y25785368D01*
X68900486Y25725793D01*
X68900474Y25725787D01*
X68882473Y25714476D01*
X68791706Y25679830D01*
X68694589Y25682556D01*
X68617527Y25714476D01*
X68599525Y25725787D01*
X68599522Y25725789D01*
X68599518Y25725791D01*
X68599513Y25725793D01*
X68429256Y25785368D01*
X68429245Y25785370D01*
X68250004Y25805565D01*
X68249999Y25805565D01*
X68214508Y25801566D01*
X68186628Y25800000D01*
X65937730Y25800000D01*
X65842442Y25818954D01*
X65761660Y25872930D01*
X65198430Y26436160D01*
X65144454Y26516942D01*
X65125500Y26612230D01*
X65125500Y28750004D01*
X67944435Y28750004D01*
X67944435Y28749997D01*
X67964630Y28570755D01*
X67964631Y28570749D01*
X67964632Y28570745D01*
X68024211Y28400478D01*
X68024212Y28400477D01*
X68024214Y28400471D01*
X68120180Y28247743D01*
X68120182Y28247741D01*
X68120184Y28247738D01*
X68247738Y28120184D01*
X68247740Y28120183D01*
X68247742Y28120181D01*
X68400470Y28024215D01*
X68400473Y28024214D01*
X68400478Y28024211D01*
X68570745Y27964632D01*
X68570754Y27964631D01*
X68749996Y27944435D01*
X68750000Y27944435D01*
X68750004Y27944435D01*
X68889908Y27960199D01*
X68929255Y27964632D01*
X69099522Y28024211D01*
X69099527Y28024215D01*
X69099529Y28024215D01*
X69252257Y28120181D01*
X69252256Y28120181D01*
X69252262Y28120184D01*
X69379816Y28247738D01*
X69421979Y28314840D01*
X69475785Y28400471D01*
X69475785Y28400473D01*
X69475789Y28400478D01*
X69535368Y28570745D01*
X69547954Y28682452D01*
X69555565Y28749997D01*
X69555565Y28750004D01*
X69535369Y28929246D01*
X69535368Y28929255D01*
X69475789Y29099522D01*
X69475786Y29099527D01*
X69475785Y29099530D01*
X69379819Y29252258D01*
X69379817Y29252260D01*
X69379816Y29252262D01*
X69252262Y29379816D01*
X69252259Y29379818D01*
X69252257Y29379820D01*
X69099529Y29475786D01*
X69099524Y29475788D01*
X69099522Y29475789D01*
X68929255Y29535368D01*
X68929251Y29535369D01*
X68929245Y29535370D01*
X68750004Y29555565D01*
X68749996Y29555565D01*
X68570754Y29535370D01*
X68570746Y29535369D01*
X68570745Y29535368D01*
X68400478Y29475789D01*
X68400476Y29475789D01*
X68400476Y29475788D01*
X68400470Y29475786D01*
X68247742Y29379820D01*
X68120180Y29252258D01*
X68024214Y29099530D01*
X68024211Y29099524D01*
X68024211Y29099522D01*
X67982551Y28980463D01*
X67964632Y28929254D01*
X67964630Y28929246D01*
X67944435Y28750004D01*
X65125500Y28750004D01*
X65125500Y29811608D01*
X65124896Y29814642D01*
X65124890Y29814672D01*
X65108170Y29898734D01*
X65108170Y29898735D01*
X65103237Y29923533D01*
X65101463Y29932452D01*
X65067626Y30014142D01*
X65054312Y30046285D01*
X65020672Y30096631D01*
X64985859Y30148731D01*
X64985858Y30148733D01*
X64898733Y30235858D01*
X64898729Y30235861D01*
X62548430Y32586160D01*
X62494454Y32666942D01*
X62475500Y32762230D01*
X62475500Y38961605D01*
X62463511Y39021880D01*
X62451463Y39082452D01*
X62431932Y39129603D01*
X62404312Y39196285D01*
X62380146Y39232451D01*
X62335858Y39298733D01*
X62248733Y39385858D01*
X62248729Y39385861D01*
X60884586Y40750004D01*
X73194435Y40750004D01*
X73194435Y40749997D01*
X73214630Y40570755D01*
X73214631Y40570749D01*
X73214632Y40570745D01*
X73274211Y40400478D01*
X73274212Y40400477D01*
X73274214Y40400471D01*
X73370180Y40247743D01*
X73370182Y40247741D01*
X73370184Y40247738D01*
X73497738Y40120184D01*
X73497740Y40120183D01*
X73497742Y40120181D01*
X73650470Y40024215D01*
X73650473Y40024214D01*
X73650478Y40024211D01*
X73820745Y39964632D01*
X73820754Y39964631D01*
X73999996Y39944435D01*
X74000000Y39944435D01*
X74000004Y39944435D01*
X74139908Y39960199D01*
X74179255Y39964632D01*
X74349522Y40024211D01*
X74349527Y40024215D01*
X74349529Y40024215D01*
X74502257Y40120181D01*
X74502256Y40120181D01*
X74502262Y40120184D01*
X74629816Y40247738D01*
X74693771Y40349522D01*
X74725785Y40400471D01*
X74725785Y40400473D01*
X74725789Y40400478D01*
X74785368Y40570745D01*
X74796509Y40669626D01*
X74805565Y40749997D01*
X74805565Y40750004D01*
X74785369Y40929246D01*
X74785368Y40929255D01*
X74725789Y41099522D01*
X74725786Y41099527D01*
X74725785Y41099530D01*
X74629819Y41252258D01*
X74629817Y41252260D01*
X74629816Y41252262D01*
X74502262Y41379816D01*
X74502259Y41379818D01*
X74502257Y41379820D01*
X74349529Y41475786D01*
X74349524Y41475788D01*
X74349522Y41475789D01*
X74179255Y41535368D01*
X74179251Y41535369D01*
X74179245Y41535370D01*
X74000004Y41555565D01*
X73999996Y41555565D01*
X73820754Y41535370D01*
X73820746Y41535369D01*
X73820745Y41535368D01*
X73650478Y41475789D01*
X73650476Y41475789D01*
X73650476Y41475788D01*
X73650470Y41475786D01*
X73497742Y41379820D01*
X73370180Y41252258D01*
X73274214Y41099530D01*
X73274211Y41099524D01*
X73274211Y41099522D01*
X73221639Y40949278D01*
X73214632Y40929254D01*
X73214630Y40929246D01*
X73194435Y40750004D01*
X60884586Y40750004D01*
X60822930Y40811660D01*
X60768954Y40892442D01*
X60750000Y40987730D01*
X60750000Y42677363D01*
X60763973Y42759602D01*
X60775343Y42792095D01*
X60785368Y42820745D01*
X60798248Y42935060D01*
X60805565Y42999997D01*
X60805565Y43000004D01*
X60785369Y43179246D01*
X60785368Y43179255D01*
X60725789Y43349522D01*
X60725786Y43349527D01*
X60725785Y43349530D01*
X60629819Y43502258D01*
X60629817Y43502260D01*
X60629816Y43502262D01*
X60502262Y43629816D01*
X60502259Y43629818D01*
X60502257Y43629820D01*
X60349529Y43725786D01*
X60349524Y43725788D01*
X60349522Y43725789D01*
X60179255Y43785368D01*
X60179251Y43785369D01*
X60179245Y43785370D01*
X60000004Y43805565D01*
X59999996Y43805565D01*
X59820754Y43785370D01*
X59820743Y43785368D01*
X59759602Y43763973D01*
X59677363Y43750000D01*
X57987730Y43750000D01*
X57892442Y43768954D01*
X57811660Y43822930D01*
X56948430Y44686160D01*
X56894454Y44766942D01*
X56875500Y44862230D01*
X56875500Y49636605D01*
X56875500Y49636606D01*
X56873693Y49645689D01*
X56852626Y49751606D01*
X56851463Y49757452D01*
X56819204Y49835331D01*
X56804312Y49871285D01*
X56754784Y49945408D01*
X56752562Y49948734D01*
X56735860Y49973730D01*
X56735858Y49973733D01*
X56648733Y50060858D01*
X56648729Y50060861D01*
X56300023Y50409567D01*
X56246047Y50490349D01*
X56227093Y50585637D01*
X56246047Y50680925D01*
X56292203Y50750004D01*
X58694435Y50750004D01*
X58694435Y50749997D01*
X58714630Y50570755D01*
X58714631Y50570749D01*
X58714632Y50570745D01*
X58774211Y50400478D01*
X58836335Y50301609D01*
X58870982Y50210844D01*
X58874500Y50169134D01*
X58874500Y48788391D01*
X58896205Y48679266D01*
X58898534Y48667560D01*
X58898541Y48667537D01*
X58945687Y48553716D01*
X58972164Y48514091D01*
X58972165Y48514089D01*
X58981579Y48500000D01*
X59014142Y48451267D01*
X59101267Y48364142D01*
X59101270Y48364140D01*
X63130162Y44335248D01*
X63184138Y44254466D01*
X63201526Y44187057D01*
X63214630Y44070755D01*
X63214631Y44070749D01*
X63214632Y44070745D01*
X63274211Y43900478D01*
X63274212Y43900477D01*
X63274214Y43900471D01*
X63370180Y43747743D01*
X63370182Y43747741D01*
X63370184Y43747738D01*
X63497738Y43620184D01*
X63497740Y43620183D01*
X63497742Y43620181D01*
X63650470Y43524215D01*
X63650473Y43524214D01*
X63650478Y43524211D01*
X63820745Y43464632D01*
X63820754Y43464631D01*
X63999996Y43444435D01*
X64000000Y43444435D01*
X64000004Y43444435D01*
X64155123Y43461913D01*
X64179255Y43464632D01*
X64349522Y43524211D01*
X64349527Y43524215D01*
X64349529Y43524215D01*
X64502260Y43620183D01*
X64502259Y43620183D01*
X64502262Y43620184D01*
X64629816Y43747738D01*
X64636249Y43757976D01*
X64702995Y43828574D01*
X64791676Y43868256D01*
X64847083Y43874499D01*
X64973895Y43874499D01*
X64973915Y43874500D01*
X68169133Y43874500D01*
X68264421Y43855546D01*
X68301609Y43836334D01*
X68400470Y43774215D01*
X68400473Y43774214D01*
X68400478Y43774211D01*
X68570745Y43714632D01*
X68570754Y43714631D01*
X68749996Y43694435D01*
X68750000Y43694435D01*
X68750004Y43694435D01*
X68889908Y43710199D01*
X68929255Y43714632D01*
X69099522Y43774211D01*
X69099527Y43774215D01*
X69099529Y43774215D01*
X69228966Y43855546D01*
X69252262Y43870184D01*
X69379816Y43997738D01*
X69413108Y44050722D01*
X69475785Y44150471D01*
X69475785Y44150473D01*
X69475789Y44150478D01*
X69535368Y44320745D01*
X69542024Y44379820D01*
X69555565Y44499997D01*
X69555565Y44500004D01*
X69535369Y44679246D01*
X69535368Y44679255D01*
X69475789Y44849522D01*
X69475786Y44849527D01*
X69475785Y44849530D01*
X69379819Y45002258D01*
X69379817Y45002260D01*
X69379816Y45002262D01*
X69252262Y45129816D01*
X69252259Y45129818D01*
X69252257Y45129820D01*
X69099529Y45225786D01*
X69099524Y45225788D01*
X69099522Y45225789D01*
X68929255Y45285368D01*
X68929251Y45285369D01*
X68929245Y45285370D01*
X68750004Y45305565D01*
X68749996Y45305565D01*
X68570754Y45285370D01*
X68570746Y45285369D01*
X68570745Y45285368D01*
X68400478Y45225789D01*
X68400476Y45225789D01*
X68400476Y45225788D01*
X68400470Y45225786D01*
X68301609Y45163666D01*
X68210842Y45129018D01*
X68169133Y45125500D01*
X67199500Y45125500D01*
X67104212Y45144454D01*
X67023430Y45198430D01*
X66969454Y45279212D01*
X66950500Y45374500D01*
X66950500Y47989882D01*
X66919976Y48063573D01*
X66919976Y48063574D01*
X66863574Y48119976D01*
X66845450Y48127483D01*
X66789882Y48150500D01*
X64999500Y48150500D01*
X64904212Y48169454D01*
X64823430Y48223430D01*
X64769454Y48304212D01*
X64750500Y48399500D01*
X64750500Y49289882D01*
X64719976Y49363574D01*
X64663574Y49419976D01*
X64589882Y49450500D01*
X61499500Y49450500D01*
X61404212Y49469454D01*
X61323430Y49523430D01*
X61269454Y49604212D01*
X61250500Y49699500D01*
X61250500Y55950500D01*
X61269454Y56045788D01*
X61323430Y56126570D01*
X61404212Y56180546D01*
X61499500Y56199500D01*
X78200500Y56199500D01*
X78295788Y56180546D01*
X78376570Y56126570D01*
X78430546Y56045788D01*
X78449500Y55950500D01*
X78449500Y44936190D01*
X78430546Y44840902D01*
X78376570Y44760120D01*
X76389880Y42773430D01*
X76309098Y42719454D01*
X76213810Y42700500D01*
X73360118Y42700500D01*
X73286427Y42669977D01*
X73230023Y42613573D01*
X73214852Y42576945D01*
X73199500Y42539882D01*
X73199500Y42460118D01*
X73213578Y42426131D01*
X73226472Y42395000D01*
X73230024Y42386426D01*
X73286426Y42330024D01*
X73360118Y42299500D01*
X76439882Y42299500D01*
X76513574Y42330024D01*
X76513578Y42330029D01*
X76533966Y42343650D01*
X76534418Y42342973D01*
X76591401Y42381046D01*
X76686689Y42400000D01*
X78625500Y42400000D01*
X78720788Y42381046D01*
X78801570Y42327070D01*
X78855546Y42246288D01*
X78874500Y42151000D01*
X78874500Y36062230D01*
X78855546Y35966942D01*
X78801570Y35886160D01*
X76663840Y33748430D01*
X76583058Y33694454D01*
X76487770Y33675500D01*
X73988390Y33675500D01*
X73957900Y33669435D01*
X73957899Y33669436D01*
X73867551Y33651464D01*
X73867546Y33651463D01*
X73753718Y33604314D01*
X73753713Y33604311D01*
X73651269Y33535860D01*
X70964140Y30848731D01*
X70947950Y30824500D01*
X70937010Y30808127D01*
X70895688Y30746286D01*
X70869248Y30682452D01*
X70864417Y30670788D01*
X70858083Y30655496D01*
X70858082Y30655494D01*
X70848538Y30632456D01*
X70848537Y30632452D01*
X70848537Y30632451D01*
X70837210Y30575500D01*
X70832877Y30553717D01*
X70832876Y30553713D01*
X70824500Y30511607D01*
X70824500Y26338390D01*
X70832993Y26295690D01*
X70832994Y26295690D01*
X70832994Y26295689D01*
X70838175Y26269642D01*
X70848537Y26217546D01*
X70848538Y26217545D01*
X70855599Y26200499D01*
X70855601Y26200493D01*
X70895686Y26103718D01*
X70895687Y26103715D01*
X70919855Y26067546D01*
X70951935Y26019536D01*
X70964142Y26001267D01*
X71051267Y25914142D01*
X71051270Y25914140D01*
X71717860Y25247550D01*
X71771836Y25166768D01*
X71789224Y25099361D01*
X71789630Y25095753D01*
X71789631Y25095749D01*
X71789632Y25095745D01*
X71849211Y24925478D01*
X71849212Y24925477D01*
X71849214Y24925471D01*
X71945180Y24772743D01*
X71945182Y24772741D01*
X71945184Y24772738D01*
X72072738Y24645184D01*
X72072740Y24645183D01*
X72072742Y24645181D01*
X72225470Y24549215D01*
X72225474Y24549214D01*
X72225478Y24549211D01*
X72302675Y24522199D01*
X72386354Y24472839D01*
X72444776Y24395211D01*
X72469043Y24301136D01*
X72469435Y24287173D01*
X72469435Y24274997D01*
X72489630Y24095755D01*
X72489631Y24095749D01*
X72489632Y24095745D01*
X72549211Y23925478D01*
X72549212Y23925477D01*
X72549214Y23925471D01*
X72645180Y23772743D01*
X72645182Y23772741D01*
X72645184Y23772738D01*
X72772738Y23645184D01*
X72772740Y23645183D01*
X72772742Y23645181D01*
X72925470Y23549215D01*
X72925473Y23549214D01*
X72925478Y23549211D01*
X73095745Y23489632D01*
X73099349Y23489226D01*
X73103953Y23487759D01*
X73109376Y23486521D01*
X73109271Y23486064D01*
X73191917Y23459725D01*
X73247548Y23417861D01*
X73339141Y23326268D01*
X73339142Y23326267D01*
X73426267Y23239142D01*
X73502217Y23188394D01*
X73528714Y23170689D01*
X73642548Y23123537D01*
X73763393Y23099500D01*
X73763394Y23099500D01*
X73763396Y23099500D01*
X77586606Y23099500D01*
X77586607Y23099500D01*
X77647469Y23111606D01*
X77690595Y23120184D01*
X77707448Y23123536D01*
X77707448Y23123537D01*
X77707452Y23123537D01*
X77740782Y23137344D01*
X77740791Y23137346D01*
X77740791Y23137347D01*
X77799615Y23161712D01*
X77821286Y23170688D01*
X77881192Y23210717D01*
X77923733Y23239142D01*
X78010858Y23326267D01*
X78010859Y23326270D01*
X81585857Y26901266D01*
X81593755Y26913085D01*
X81654311Y27003714D01*
X81701463Y27117548D01*
X81721625Y27218913D01*
X81725500Y27238393D01*
X81725500Y27361606D01*
X81725500Y27361607D01*
X81725500Y28561606D01*
X81701463Y28682452D01*
X81679342Y28735857D01*
X81679341Y28735858D01*
X81679341Y28735861D01*
X81666110Y28767801D01*
X81654312Y28796286D01*
X81605408Y28869474D01*
X81585858Y28898733D01*
X81585856Y28898736D01*
X81492485Y28992106D01*
X81492484Y28992106D01*
X81485161Y28999429D01*
X81431185Y29080211D01*
X81412231Y29175499D01*
X81431185Y29270787D01*
X81485161Y29351569D01*
X81565943Y29405545D01*
X81661231Y29424499D01*
X86398865Y29424499D01*
X86398881Y29424498D01*
X86414142Y29424498D01*
X86572255Y29424498D01*
X86572256Y29424498D01*
X86724984Y29465422D01*
X86775232Y29494434D01*
X86775236Y29494435D01*
X86861910Y29544476D01*
X86861910Y29544477D01*
X86861915Y29544479D01*
X86973719Y29656283D01*
X86973720Y29656286D01*
X88193713Y30876279D01*
X88193716Y30876280D01*
X88305520Y30988084D01*
X88356546Y31076465D01*
X88384577Y31125015D01*
X88425501Y31277743D01*
X88425501Y31435857D01*
X88425501Y31451117D01*
X88425500Y31451135D01*
X88425500Y36004926D01*
X88444454Y36100214D01*
X88498427Y36180993D01*
X89294005Y36976569D01*
X89374786Y37030545D01*
X89470074Y37049499D01*
X90705791Y37049499D01*
X90801079Y37030545D01*
X90881861Y36976569D01*
X90916625Y36932976D01*
X90970181Y36847743D01*
X90970184Y36847738D01*
X91097738Y36720184D01*
X91097740Y36720183D01*
X91097742Y36720181D01*
X91250470Y36624215D01*
X91250473Y36624214D01*
X91250478Y36624211D01*
X91420745Y36564632D01*
X91420754Y36564631D01*
X91599996Y36544435D01*
X91600000Y36544435D01*
X91600004Y36544435D01*
X91739908Y36560199D01*
X91779255Y36564632D01*
X91949522Y36624211D01*
X91949527Y36624215D01*
X91949529Y36624215D01*
X92102257Y36720181D01*
X92102256Y36720181D01*
X92102262Y36720184D01*
X92229816Y36847738D01*
X92293083Y36948427D01*
X92325785Y37000471D01*
X92325785Y37000473D01*
X92325789Y37000478D01*
X92385368Y37170745D01*
X92390875Y37219629D01*
X92405565Y37349997D01*
X92405565Y37350004D01*
X92385369Y37529246D01*
X92385368Y37529255D01*
X92325789Y37699522D01*
X92325785Y37699528D01*
X92325784Y37699531D01*
X92298770Y37742523D01*
X92264121Y37833289D01*
X92266846Y37930406D01*
X92298770Y38007477D01*
X92325784Y38050470D01*
X92325784Y38050471D01*
X92325789Y38050478D01*
X92385368Y38220745D01*
X92397807Y38331143D01*
X92405565Y38399997D01*
X92405565Y38400004D01*
X92385369Y38579246D01*
X92385368Y38579255D01*
X92325789Y38749522D01*
X92325786Y38749527D01*
X92325785Y38749530D01*
X92229819Y38902258D01*
X92229817Y38902260D01*
X92229816Y38902262D01*
X92102262Y39029816D01*
X92102259Y39029818D01*
X92102257Y39029820D01*
X91949529Y39125786D01*
X91949524Y39125788D01*
X91949522Y39125789D01*
X91779255Y39185368D01*
X91779251Y39185369D01*
X91779245Y39185370D01*
X91600004Y39205565D01*
X91599996Y39205565D01*
X91420754Y39185370D01*
X91420746Y39185369D01*
X91420745Y39185368D01*
X91250478Y39125789D01*
X91250476Y39125789D01*
X91250476Y39125788D01*
X91250470Y39125786D01*
X91097742Y39029820D01*
X90970182Y38902260D01*
X90916625Y38817024D01*
X90849879Y38746426D01*
X90761198Y38706744D01*
X90705791Y38700501D01*
X88852742Y38700501D01*
X88700014Y38659578D01*
X88700010Y38659576D01*
X88679513Y38647741D01*
X88679510Y38647739D01*
X88563087Y38580523D01*
X88563081Y38580518D01*
X88451280Y38468718D01*
X88451281Y38468717D01*
X88451279Y38468715D01*
X87006286Y37023722D01*
X87006284Y37023720D01*
X87006283Y37023721D01*
X86894483Y36911920D01*
X86894481Y36911917D01*
X86894480Y36911916D01*
X86844360Y36825105D01*
X86844359Y36825106D01*
X86815424Y36774988D01*
X86815422Y36774985D01*
X86774499Y36622257D01*
X86774499Y36444078D01*
X86774500Y36444065D01*
X86774500Y32999000D01*
X86755546Y32903712D01*
X86701570Y32822930D01*
X86620788Y32768954D01*
X86525500Y32750000D01*
X85159906Y32750000D01*
X85064618Y32768954D01*
X85051876Y32774655D01*
X85049524Y32775788D01*
X85049523Y32775789D01*
X85049522Y32775789D01*
X84879255Y32835368D01*
X84879251Y32835369D01*
X84879245Y32835370D01*
X84700004Y32855565D01*
X84699996Y32855565D01*
X84520754Y32835370D01*
X84520746Y32835369D01*
X84520745Y32835368D01*
X84350478Y32775789D01*
X84350476Y32775789D01*
X84350476Y32775788D01*
X84350470Y32775786D01*
X84197742Y32679820D01*
X84070180Y32552258D01*
X83974214Y32399530D01*
X83974211Y32399524D01*
X83974211Y32399522D01*
X83931939Y32278714D01*
X83914632Y32229254D01*
X83914630Y32229246D01*
X83894435Y32050004D01*
X83894435Y32049997D01*
X83914630Y31870755D01*
X83914631Y31870749D01*
X83914632Y31870745D01*
X83974211Y31700478D01*
X83974212Y31700477D01*
X83974214Y31700471D01*
X84070180Y31547743D01*
X84070182Y31547741D01*
X84070184Y31547738D01*
X84117354Y31500568D01*
X84171328Y31419789D01*
X84190282Y31324501D01*
X84171328Y31229213D01*
X84117352Y31148431D01*
X84036570Y31094455D01*
X83941282Y31075501D01*
X79077743Y31075501D01*
X78925014Y31034578D01*
X78874897Y31005643D01*
X78874896Y31005641D01*
X78788085Y30955521D01*
X78788084Y30955520D01*
X78788081Y30955518D01*
X78676280Y30843718D01*
X78676281Y30843717D01*
X78676279Y30843715D01*
X77656286Y29823722D01*
X77656284Y29823720D01*
X77656283Y29823721D01*
X77544483Y29711920D01*
X77544481Y29711917D01*
X77544480Y29711916D01*
X77494588Y29625500D01*
X77490380Y29618211D01*
X77465422Y29574984D01*
X77424499Y29422257D01*
X77424499Y29244078D01*
X77424500Y29244065D01*
X77424500Y28649000D01*
X77405546Y28553712D01*
X77351570Y28472930D01*
X77270788Y28418954D01*
X77175500Y28400000D01*
X76349000Y28400000D01*
X76253712Y28418954D01*
X76172930Y28472930D01*
X76118954Y28553712D01*
X76100000Y28649000D01*
X76100000Y30575500D01*
X76118954Y30670788D01*
X76172930Y30751570D01*
X76253712Y30805546D01*
X76349000Y30824500D01*
X77661607Y30824500D01*
X77722029Y30836519D01*
X77782452Y30848537D01*
X77818257Y30863368D01*
X77896286Y30895688D01*
X77965405Y30941873D01*
X77998733Y30964142D01*
X78085858Y31051267D01*
X78085860Y31051271D01*
X81311659Y34277070D01*
X81392441Y34331046D01*
X81487729Y34350000D01*
X83528841Y34350000D01*
X83578092Y34412431D01*
X83662875Y34459874D01*
X83675994Y34463492D01*
X83679250Y34464632D01*
X83679255Y34464632D01*
X83849522Y34524211D01*
X83849527Y34524215D01*
X83849529Y34524215D01*
X84002257Y34620181D01*
X84002256Y34620181D01*
X84002262Y34620184D01*
X84129816Y34747738D01*
X84178063Y34824522D01*
X84225785Y34900471D01*
X84225785Y34900473D01*
X84225789Y34900478D01*
X84285368Y35070745D01*
X84299446Y35195688D01*
X84305565Y35249997D01*
X84305565Y35250004D01*
X84285369Y35429246D01*
X84285368Y35429255D01*
X84225789Y35599522D01*
X84225786Y35599527D01*
X84225785Y35599530D01*
X84129819Y35752258D01*
X84129817Y35752260D01*
X84129816Y35752262D01*
X84002262Y35879816D01*
X84002259Y35879818D01*
X84002257Y35879820D01*
X83837682Y35983229D01*
X83839208Y35985659D01*
X83792712Y36018656D01*
X82923430Y36887938D01*
X82869454Y36968720D01*
X82850500Y37064008D01*
X82850500Y42945001D01*
X97625136Y42945001D01*
X97625137Y42945000D01*
X98428012Y42945000D01*
X98410795Y42935060D01*
X98354940Y42879205D01*
X98315444Y42810796D01*
X98295000Y42734496D01*
X98295000Y42655504D01*
X98315444Y42579204D01*
X98354940Y42510795D01*
X98410795Y42454940D01*
X98428012Y42445000D01*
X97625136Y42445000D01*
X97633428Y42403313D01*
X97633428Y42403311D01*
X97708810Y42221325D01*
X97708811Y42221321D01*
X97818246Y42057541D01*
X97957540Y41918247D01*
X98121320Y41808812D01*
X98121327Y41808809D01*
X98303308Y41733430D01*
X98496511Y41695000D01*
X98839913Y41695000D01*
X98935201Y41676046D01*
X99015983Y41622070D01*
X99069959Y41541288D01*
X99088913Y41446000D01*
X99080429Y41381555D01*
X99069500Y41340767D01*
X99069500Y41189234D01*
X99107559Y41047191D01*
X99108719Y41042865D01*
X99119489Y41024211D01*
X99184482Y40911639D01*
X99184483Y40911638D01*
X99184485Y40911635D01*
X99291635Y40804485D01*
X99422865Y40728719D01*
X99569234Y40689500D01*
X99720766Y40689500D01*
X99867135Y40728719D01*
X99998365Y40804485D01*
X100105515Y40911635D01*
X100181281Y41042865D01*
X100220500Y41189234D01*
X100220500Y41340766D01*
X100216012Y41357514D01*
X100181282Y41487132D01*
X100181281Y41487133D01*
X100181281Y41487135D01*
X100160358Y41523375D01*
X100129130Y41615367D01*
X100135484Y41712314D01*
X100178454Y41799450D01*
X100237664Y41854906D01*
X100332457Y41918245D01*
X100471753Y42057541D01*
X100581188Y42221321D01*
X100581189Y42221325D01*
X100656571Y42403311D01*
X100656571Y42403313D01*
X100664863Y42445000D01*
X99861988Y42445000D01*
X99879205Y42454940D01*
X99935060Y42510795D01*
X99974556Y42579204D01*
X99995000Y42655504D01*
X99995000Y42734496D01*
X99974556Y42810796D01*
X99935060Y42879205D01*
X99879205Y42935060D01*
X99861988Y42945000D01*
X100664863Y42945000D01*
X100664863Y42945001D01*
X100656571Y42986688D01*
X100656571Y42986690D01*
X100581189Y43168676D01*
X100581188Y43168680D01*
X100471753Y43332460D01*
X100332459Y43471754D01*
X100168679Y43581189D01*
X100168672Y43581192D01*
X99986691Y43656571D01*
X99793489Y43695000D01*
X99395001Y43695000D01*
X99395000Y43694999D01*
X99395000Y42995000D01*
X98895000Y42995000D01*
X98895000Y43694999D01*
X98894999Y43695000D01*
X98496511Y43695000D01*
X98303308Y43656571D01*
X98121327Y43581192D01*
X98121320Y43581189D01*
X97957540Y43471754D01*
X97818246Y43332460D01*
X97708811Y43168680D01*
X97708810Y43168676D01*
X97633428Y42986690D01*
X97633428Y42986688D01*
X97625136Y42945001D01*
X82850500Y42945001D01*
X82850500Y45785993D01*
X82869454Y45881281D01*
X82923430Y45962063D01*
X83307937Y46346570D01*
X83388719Y46400546D01*
X83484007Y46419500D01*
X84628791Y46419500D01*
X84711029Y46405527D01*
X84747225Y46392862D01*
X84770745Y46384632D01*
X84770754Y46384631D01*
X84949996Y46364435D01*
X84950000Y46364435D01*
X84950004Y46364435D01*
X85089908Y46380199D01*
X85129255Y46384632D01*
X85299522Y46444211D01*
X85299527Y46444215D01*
X85299529Y46444215D01*
X85429351Y46525788D01*
X85452262Y46540184D01*
X85579816Y46667738D01*
X85675789Y46820478D01*
X85735368Y46990745D01*
X85738350Y47017218D01*
X85767853Y47109782D01*
X85827924Y47181903D01*
X85849999Y47200001D01*
X85850000Y47200000D01*
X85850000Y48815500D01*
X85868954Y48910788D01*
X85922930Y48991570D01*
X86003712Y49045546D01*
X86099000Y49064500D01*
X95304810Y49064500D01*
X95400098Y49045546D01*
X95480880Y48991570D01*
X95534856Y48910788D01*
X95553810Y48815500D01*
X95534856Y48720212D01*
X95480880Y48639430D01*
X95437285Y48604665D01*
X95397741Y48579819D01*
X95270180Y48452258D01*
X95174214Y48299530D01*
X95174211Y48299524D01*
X95174211Y48299522D01*
X95122059Y48150478D01*
X95114632Y48129254D01*
X95114630Y48129246D01*
X95094435Y47950004D01*
X95094435Y47949997D01*
X95114630Y47770755D01*
X95114631Y47770749D01*
X95114632Y47770745D01*
X95174211Y47600478D01*
X95174212Y47600477D01*
X95174214Y47600471D01*
X95270180Y47447743D01*
X95270182Y47447741D01*
X95270184Y47447738D01*
X95397738Y47320184D01*
X95397740Y47320183D01*
X95397742Y47320181D01*
X95550470Y47224215D01*
X95550473Y47224214D01*
X95550478Y47224211D01*
X95720745Y47164632D01*
X95720754Y47164631D01*
X95899996Y47144435D01*
X95900000Y47144435D01*
X95900004Y47144435D01*
X96039908Y47160199D01*
X96079255Y47164632D01*
X96249522Y47224211D01*
X96249527Y47224215D01*
X96249529Y47224215D01*
X96402257Y47320181D01*
X96402256Y47320181D01*
X96402262Y47320184D01*
X96529816Y47447738D01*
X96622842Y47595788D01*
X96625785Y47600471D01*
X96625785Y47600473D01*
X96625789Y47600478D01*
X96685368Y47770745D01*
X96697240Y47876109D01*
X96705565Y47949997D01*
X96705565Y47950004D01*
X96685369Y48129246D01*
X96685368Y48129255D01*
X96625789Y48299522D01*
X96625786Y48299527D01*
X96625785Y48299530D01*
X96529819Y48452258D01*
X96529817Y48452260D01*
X96529816Y48452262D01*
X96402262Y48579816D01*
X96402259Y48579818D01*
X96402258Y48579819D01*
X96362715Y48604665D01*
X96292116Y48671410D01*
X96252433Y48760092D01*
X96249708Y48857208D01*
X96284355Y48947975D01*
X96351100Y49018574D01*
X96439782Y49058257D01*
X96495190Y49064500D01*
X99901000Y49064500D01*
X99996288Y49045546D01*
X100077070Y48991570D01*
X100131046Y48910788D01*
X100150000Y48815500D01*
X100150000Y48083867D01*
X100149643Y48070536D01*
X100149500Y48067869D01*
X100149500Y46272135D01*
X100149500Y46272132D01*
X100149501Y46272128D01*
X100151181Y46256497D01*
X100155908Y46212520D01*
X100155909Y46212516D01*
X100186753Y46129820D01*
X100206204Y46077669D01*
X100292454Y45962454D01*
X100407669Y45876204D01*
X100542517Y45825909D01*
X100602127Y45819500D01*
X102397872Y45819501D01*
X102457483Y45825909D01*
X102592331Y45876204D01*
X102707546Y45962454D01*
X102793796Y46077669D01*
X102844091Y46212517D01*
X102850500Y46272127D01*
X102850499Y48067872D01*
X102850498Y48067876D01*
X102850357Y48070516D01*
X102850000Y48083847D01*
X102850000Y49634452D01*
X102850948Y49656156D01*
X102855659Y49709998D01*
X102855659Y49710004D01*
X102850948Y49763847D01*
X102850000Y49785550D01*
X102850000Y52174452D01*
X102850948Y52196156D01*
X102855659Y52249998D01*
X102855659Y52250004D01*
X102850948Y52303847D01*
X102850000Y52325550D01*
X102850000Y54514764D01*
X102830636Y54540000D01*
X101933012Y54540000D01*
X101965925Y54597007D01*
X102000000Y54724174D01*
X102000000Y54855826D01*
X101965925Y54982993D01*
X101933012Y55040000D01*
X102830636Y55040000D01*
X102830636Y55040002D01*
X102773433Y55253484D01*
X102773429Y55253495D01*
X102673603Y55467572D01*
X102673599Y55467580D01*
X102538110Y55661077D01*
X102371076Y55828111D01*
X102177576Y55963601D01*
X101963484Y56063434D01*
X101750001Y56120637D01*
X101750000Y56120636D01*
X101750000Y55223012D01*
X101692993Y55255925D01*
X101565826Y55290000D01*
X101434174Y55290000D01*
X101307007Y55255925D01*
X101250000Y55223012D01*
X101250000Y56120636D01*
X101249998Y56120637D01*
X101036516Y56063434D01*
X101036505Y56063430D01*
X100822428Y55963604D01*
X100822420Y55963600D01*
X100628923Y55828111D01*
X100461889Y55661077D01*
X100326400Y55467580D01*
X100326396Y55467572D01*
X100226570Y55253495D01*
X100226566Y55253484D01*
X100169363Y55040002D01*
X100169364Y55040000D01*
X101066988Y55040000D01*
X101034075Y54982993D01*
X101000000Y54855826D01*
X101000000Y54724174D01*
X101034075Y54597007D01*
X101066988Y54540000D01*
X100169364Y54540000D01*
X100191515Y54457333D01*
X100200000Y54392886D01*
X100200000Y52770839D01*
X100200267Y52770357D01*
X100211295Y52673830D01*
X100203660Y52629928D01*
X100164937Y52485408D01*
X100164935Y52485402D01*
X100144341Y52250006D01*
X100144341Y52249995D01*
X100164935Y52014599D01*
X100164937Y52014590D01*
X100173178Y51983832D01*
X100179530Y51886885D01*
X100148298Y51794887D01*
X100108731Y51743324D01*
X99263840Y50898431D01*
X99183058Y50844454D01*
X99087770Y50825500D01*
X81188390Y50825500D01*
X81157900Y50819435D01*
X81157899Y50819436D01*
X81067551Y50801464D01*
X81067543Y50801462D01*
X81029786Y50785822D01*
X80934498Y50766869D01*
X80839210Y50785824D01*
X80758429Y50839801D01*
X80704453Y50920583D01*
X80685500Y51015869D01*
X80685500Y59347772D01*
X80704454Y59443060D01*
X80758426Y59523837D01*
X81561162Y60326574D01*
X81641941Y60380547D01*
X81737229Y60399501D01*
X82997866Y60399501D01*
X82997872Y60399501D01*
X83057483Y60405909D01*
X83192331Y60456204D01*
X83307546Y60542454D01*
X83393796Y60657669D01*
X83444091Y60792517D01*
X83450500Y60852127D01*
X83450499Y62647872D01*
X83444091Y62707483D01*
X83393796Y62842331D01*
X83307546Y62957546D01*
X83192331Y63043796D01*
X83093555Y63080637D01*
X83057481Y63094092D01*
X82997873Y63100500D01*
X81202134Y63100500D01*
X81202130Y63100500D01*
X81202128Y63100499D01*
X81189314Y63099122D01*
X81142519Y63094092D01*
X81142515Y63094091D01*
X81007670Y63043797D01*
X80892455Y62957547D01*
X80892453Y62957545D01*
X80795531Y62828073D01*
X80792234Y62830541D01*
X80751587Y62781949D01*
X80665478Y62736956D01*
X80568706Y62728340D01*
X80476003Y62757413D01*
X80435387Y62785151D01*
X80431403Y62788493D01*
X80431401Y62788495D01*
X80237830Y62924035D01*
X80023663Y63023903D01*
X80023660Y63023904D01*
X79795401Y63085065D01*
X79560005Y63105659D01*
X79559995Y63105659D01*
X79324598Y63085065D01*
X79096335Y63023903D01*
X79096333Y63023902D01*
X78882177Y62924039D01*
X78882169Y62924035D01*
X78688600Y62788496D01*
X78521502Y62621398D01*
X78493661Y62581637D01*
X78423479Y62514454D01*
X78332929Y62479242D01*
X78235797Y62481363D01*
X78146871Y62520493D01*
X78085725Y62581639D01*
X78058110Y62621077D01*
X77891076Y62788111D01*
X77697576Y62923601D01*
X77483484Y63023434D01*
X77270001Y63080637D01*
X77270000Y63080636D01*
X77270000Y62183012D01*
X77212993Y62215925D01*
X77085826Y62250000D01*
X76954174Y62250000D01*
X76827007Y62215925D01*
X76770000Y62183012D01*
X76770000Y63080636D01*
X76769998Y63080637D01*
X76556516Y63023434D01*
X76556505Y63023430D01*
X76342428Y62923604D01*
X76342420Y62923600D01*
X76148923Y62788111D01*
X75981889Y62621077D01*
X75954272Y62581636D01*
X75884089Y62514453D01*
X75793539Y62479242D01*
X75696408Y62481363D01*
X75607481Y62520493D01*
X75546337Y62581638D01*
X75518495Y62621401D01*
X75351401Y62788495D01*
X75157830Y62924035D01*
X74943663Y63023903D01*
X74943660Y63023904D01*
X74715401Y63085065D01*
X74480005Y63105659D01*
X74479995Y63105659D01*
X74244598Y63085065D01*
X74016335Y63023903D01*
X74016333Y63023902D01*
X73802177Y62924039D01*
X73802169Y62924035D01*
X73608600Y62788496D01*
X73441504Y62621400D01*
X73305965Y62427831D01*
X73305961Y62427823D01*
X73206098Y62213667D01*
X73206097Y62213665D01*
X73144935Y61985402D01*
X73124341Y61750006D01*
X73124341Y61749995D01*
X73144935Y61514599D01*
X73181263Y61379018D01*
X73206097Y61286337D01*
X73293207Y61099530D01*
X73305965Y61072170D01*
X73413662Y60918362D01*
X73441505Y60878599D01*
X73608599Y60711505D01*
X73802170Y60575965D01*
X74016337Y60476097D01*
X74244592Y60414937D01*
X74244595Y60414937D01*
X74244598Y60414936D01*
X74479995Y60394341D01*
X74480000Y60394341D01*
X74480005Y60394341D01*
X74715401Y60414936D01*
X74715403Y60414937D01*
X74715408Y60414937D01*
X74943663Y60476097D01*
X75157830Y60575965D01*
X75351401Y60711505D01*
X75518495Y60878599D01*
X75546337Y60918363D01*
X75616515Y60985544D01*
X75707064Y61020758D01*
X75804196Y61018639D01*
X75893124Y60979511D01*
X75954273Y60918363D01*
X75981888Y60878925D01*
X76148923Y60711890D01*
X76342423Y60576400D01*
X76556511Y60476569D01*
X76770000Y60419365D01*
X76770000Y61316988D01*
X76827007Y61284075D01*
X76954174Y61250000D01*
X77085826Y61250000D01*
X77212993Y61284075D01*
X77270000Y61316988D01*
X77270000Y60419365D01*
X77483488Y60476569D01*
X77697576Y60576400D01*
X77891076Y60711890D01*
X78058111Y60878925D01*
X78085724Y60918360D01*
X78155905Y60985544D01*
X78246454Y61020758D01*
X78343586Y61018639D01*
X78432513Y60979511D01*
X78493662Y60918362D01*
X78521501Y60878604D01*
X78521505Y60878599D01*
X78688599Y60711505D01*
X78688602Y60711503D01*
X78768320Y60655684D01*
X78835504Y60585503D01*
X78870717Y60494954D01*
X78874500Y60451715D01*
X78874500Y56849500D01*
X78855546Y56754212D01*
X78801570Y56673430D01*
X78720788Y56619454D01*
X78625500Y56600500D01*
X61374500Y56600500D01*
X61279212Y56619454D01*
X61198430Y56673430D01*
X61144454Y56754212D01*
X61125500Y56849500D01*
X61125500Y58769498D01*
X61144454Y58864786D01*
X61198430Y58945568D01*
X61279212Y58999544D01*
X61374500Y59018498D01*
X61456734Y59004526D01*
X61570745Y58964632D01*
X61570754Y58964631D01*
X61749996Y58944435D01*
X61750000Y58944435D01*
X61750004Y58944435D01*
X61889908Y58960199D01*
X61929255Y58964632D01*
X62099522Y59024211D01*
X62099527Y59024215D01*
X62099529Y59024215D01*
X62252257Y59120181D01*
X62252256Y59120181D01*
X62252262Y59120184D01*
X62379816Y59247738D01*
X62443771Y59349522D01*
X62475785Y59400471D01*
X62475785Y59400473D01*
X62475789Y59400478D01*
X62535368Y59570745D01*
X62555565Y59750000D01*
X62549304Y59805565D01*
X62535369Y59929246D01*
X62535368Y59929255D01*
X62475789Y60099522D01*
X62475786Y60099527D01*
X62475785Y60099530D01*
X62379819Y60252258D01*
X62379817Y60252260D01*
X62379816Y60252262D01*
X62252262Y60379816D01*
X62252259Y60379818D01*
X62252257Y60379820D01*
X62217037Y60401950D01*
X62146438Y60468695D01*
X62106756Y60557377D01*
X62104031Y60654493D01*
X62138679Y60745260D01*
X62173443Y60788853D01*
X62186169Y60801579D01*
X62266951Y60855550D01*
X62362230Y60874500D01*
X65887770Y60874500D01*
X65983058Y60855546D01*
X66063840Y60801570D01*
X66514139Y60351271D01*
X66514142Y60351267D01*
X66601267Y60264142D01*
X66703714Y60195689D01*
X66703716Y60195689D01*
X66703718Y60195687D01*
X66779603Y60164255D01*
X66817548Y60148537D01*
X66874022Y60137304D01*
X66938393Y60124500D01*
X66938394Y60124500D01*
X70919133Y60124500D01*
X71014421Y60105546D01*
X71051609Y60086334D01*
X71150470Y60024215D01*
X71150473Y60024214D01*
X71150478Y60024211D01*
X71320745Y59964632D01*
X71320754Y59964631D01*
X71499996Y59944435D01*
X71500000Y59944435D01*
X71500004Y59944435D01*
X71639908Y59960199D01*
X71679255Y59964632D01*
X71849522Y60024211D01*
X71849527Y60024215D01*
X71849529Y60024215D01*
X72002257Y60120181D01*
X72002256Y60120181D01*
X72002262Y60120184D01*
X72129816Y60247738D01*
X72202049Y60362696D01*
X72225785Y60400471D01*
X72225785Y60400473D01*
X72225789Y60400478D01*
X72285368Y60570745D01*
X72295162Y60657670D01*
X72305565Y60749997D01*
X72305565Y60750004D01*
X72285369Y60929246D01*
X72285368Y60929255D01*
X72225789Y61099522D01*
X72225786Y61099527D01*
X72225785Y61099530D01*
X72129819Y61252258D01*
X72129817Y61252260D01*
X72129816Y61252262D01*
X72002262Y61379816D01*
X72002259Y61379818D01*
X72002257Y61379820D01*
X71849529Y61475786D01*
X71849524Y61475788D01*
X71849522Y61475789D01*
X71679255Y61535368D01*
X71679251Y61535369D01*
X71679245Y61535370D01*
X71500004Y61555565D01*
X71499996Y61555565D01*
X71320754Y61535370D01*
X71320746Y61535369D01*
X71320745Y61535368D01*
X71150478Y61475789D01*
X71150476Y61475789D01*
X71150476Y61475788D01*
X71150470Y61475786D01*
X71051609Y61413666D01*
X70960842Y61379018D01*
X70919133Y61375500D01*
X67362230Y61375500D01*
X67266942Y61394454D01*
X67186160Y61448430D01*
X66735860Y61898730D01*
X66735858Y61898733D01*
X66648733Y61985858D01*
X66597509Y62020085D01*
X66546286Y62054312D01*
X66539780Y62057007D01*
X66463184Y62088734D01*
X66432456Y62101462D01*
X66432449Y62101464D01*
X66372026Y62113483D01*
X66372026Y62113484D01*
X66311612Y62125500D01*
X66311607Y62125500D01*
X66311606Y62125500D01*
X62061606Y62125500D01*
X61938393Y62125500D01*
X61938387Y62125500D01*
X61877968Y62113482D01*
X61817551Y62101465D01*
X61772077Y62082628D01*
X61772076Y62082628D01*
X61703715Y62054312D01*
X61703709Y62054310D01*
X61601270Y61985861D01*
X60014137Y60398728D01*
X59990065Y60362700D01*
X59990063Y60362696D01*
X59945686Y60296285D01*
X59927451Y60252258D01*
X59916355Y60225469D01*
X59907446Y60203961D01*
X59898538Y60182456D01*
X59898537Y60182453D01*
X59898537Y60182452D01*
X59882042Y60099524D01*
X59874500Y60061605D01*
X59874500Y51792001D01*
X59855546Y51696713D01*
X59801570Y51615931D01*
X59720788Y51561955D01*
X59625500Y51543001D01*
X59597623Y51544566D01*
X59546729Y51550300D01*
X59500000Y51555565D01*
X59499998Y51555565D01*
X59499997Y51555565D01*
X59499996Y51555565D01*
X59320754Y51535370D01*
X59320746Y51535369D01*
X59320745Y51535368D01*
X59150478Y51475789D01*
X59150476Y51475789D01*
X59150476Y51475788D01*
X59150470Y51475786D01*
X58997742Y51379820D01*
X58870180Y51252258D01*
X58774214Y51099530D01*
X58774211Y51099524D01*
X58774211Y51099522D01*
X58731071Y50976233D01*
X58714632Y50929254D01*
X58714630Y50929246D01*
X58694435Y50750004D01*
X56292203Y50750004D01*
X56300023Y50761707D01*
X56380805Y50815683D01*
X56476093Y50834637D01*
X56503972Y50833071D01*
X56624997Y50819435D01*
X56625000Y50819435D01*
X56625004Y50819435D01*
X56764908Y50835199D01*
X56804255Y50839632D01*
X56974522Y50899211D01*
X56974527Y50899215D01*
X56974529Y50899215D01*
X57127257Y50995181D01*
X57127256Y50995181D01*
X57127262Y50995184D01*
X57254816Y51122738D01*
X57321371Y51228659D01*
X57350785Y51275471D01*
X57350785Y51275473D01*
X57350789Y51275478D01*
X57410368Y51445745D01*
X57430565Y51625000D01*
X57410368Y51804255D01*
X57350789Y51974522D01*
X57350786Y51974527D01*
X57350785Y51974530D01*
X57254819Y52127258D01*
X57254817Y52127260D01*
X57254816Y52127262D01*
X57127262Y52254816D01*
X57127259Y52254818D01*
X57127257Y52254820D01*
X56974529Y52350786D01*
X56974524Y52350788D01*
X56974522Y52350789D01*
X56804255Y52410368D01*
X56804251Y52410369D01*
X56804245Y52410370D01*
X56625004Y52430565D01*
X56624996Y52430565D01*
X56445754Y52410370D01*
X56445746Y52410369D01*
X56445745Y52410368D01*
X56275478Y52350789D01*
X56275476Y52350789D01*
X56275476Y52350788D01*
X56275470Y52350786D01*
X56122742Y52254820D01*
X55995180Y52127258D01*
X55899214Y51974530D01*
X55899211Y51974524D01*
X55899211Y51974522D01*
X55868546Y51886885D01*
X55839632Y51804254D01*
X55839630Y51804246D01*
X55819435Y51625004D01*
X55819435Y51625000D01*
X55823150Y51592026D01*
X55833071Y51503971D01*
X55824904Y51407160D01*
X55780311Y51320843D01*
X55706080Y51258162D01*
X55613513Y51228659D01*
X55516702Y51236826D01*
X55430385Y51281419D01*
X55409566Y51300024D01*
X54409010Y52300580D01*
X54409008Y52300583D01*
X54321883Y52387708D01*
X54257743Y52430565D01*
X54219436Y52456162D01*
X54138942Y52489503D01*
X54138941Y52489504D01*
X54120704Y52497058D01*
X54105602Y52503313D01*
X54105599Y52503314D01*
X54105596Y52503315D01*
X54045182Y52515332D01*
X53984762Y52527350D01*
X53984757Y52527350D01*
X53984756Y52527350D01*
X33510567Y52527350D01*
X33415279Y52546304D01*
X33334497Y52600280D01*
X33280521Y52681062D01*
X33261567Y52776350D01*
X33280521Y52871638D01*
X33334494Y52952417D01*
X33379816Y52997738D01*
X33404998Y53037816D01*
X33475785Y53150471D01*
X33475785Y53150473D01*
X33475789Y53150478D01*
X33535368Y53320745D01*
X33552112Y53469352D01*
X33555565Y53499997D01*
X33555565Y53500004D01*
X33535369Y53679246D01*
X33535368Y53679255D01*
X33475789Y53849522D01*
X33475786Y53849527D01*
X33475785Y53849530D01*
X33379819Y54002258D01*
X33379817Y54002260D01*
X33379816Y54002262D01*
X33252262Y54129816D01*
X33252259Y54129818D01*
X33252257Y54129820D01*
X33099529Y54225786D01*
X33099524Y54225788D01*
X33099522Y54225789D01*
X32929255Y54285368D01*
X32929251Y54285369D01*
X32929245Y54285370D01*
X32750004Y54305565D01*
X32749996Y54305565D01*
X32570754Y54285370D01*
X32570746Y54285369D01*
X32570745Y54285368D01*
X32400478Y54225789D01*
X32400476Y54225789D01*
X32400476Y54225788D01*
X32400473Y54225787D01*
X32257475Y54135935D01*
X32166708Y54101288D01*
X32069592Y54104013D01*
X31992525Y54135935D01*
X31849526Y54225787D01*
X31849524Y54225788D01*
X31849522Y54225789D01*
X31679255Y54285368D01*
X31679251Y54285369D01*
X31679245Y54285370D01*
X31500004Y54305565D01*
X31499996Y54305565D01*
X31320754Y54285370D01*
X31320746Y54285369D01*
X31320745Y54285368D01*
X31150478Y54225789D01*
X31150476Y54225789D01*
X31150476Y54225788D01*
X31150470Y54225786D01*
X30997742Y54129820D01*
X30870180Y54002258D01*
X30774214Y53849530D01*
X30774211Y53849524D01*
X30774211Y53849522D01*
X30740179Y53752262D01*
X30714632Y53679254D01*
X30714630Y53679246D01*
X30694435Y53500004D01*
X30694435Y53499997D01*
X30714630Y53320755D01*
X30714631Y53320749D01*
X30714632Y53320745D01*
X30774211Y53150478D01*
X30774212Y53150477D01*
X30774214Y53150471D01*
X30870180Y52997743D01*
X30870182Y52997741D01*
X30870184Y52997738D01*
X30915505Y52952417D01*
X30969479Y52871638D01*
X30988433Y52776350D01*
X30969479Y52681062D01*
X30915503Y52600280D01*
X30834721Y52546304D01*
X30739433Y52527350D01*
X15391869Y52527350D01*
X15296581Y52546304D01*
X15215799Y52600280D01*
X15161823Y52681062D01*
X15142869Y52776350D01*
X15161823Y52871638D01*
X15170112Y52887685D01*
X15169719Y52887874D01*
X15175782Y52900468D01*
X15175789Y52900478D01*
X15235368Y53070745D01*
X15255565Y53250000D01*
X15242309Y53367648D01*
X15235369Y53429246D01*
X15235368Y53429255D01*
X15175789Y53599522D01*
X15175786Y53599527D01*
X15175785Y53599530D01*
X15079819Y53752258D01*
X15079817Y53752260D01*
X15079816Y53752262D01*
X14952262Y53879816D01*
X14952259Y53879818D01*
X14952257Y53879820D01*
X14799529Y53975786D01*
X14799524Y53975788D01*
X14799522Y53975789D01*
X14629255Y54035368D01*
X14629251Y54035369D01*
X14629245Y54035370D01*
X14450004Y54055565D01*
X14449996Y54055565D01*
X14270754Y54035370D01*
X14270746Y54035369D01*
X14270745Y54035368D01*
X14100478Y53975789D01*
X14100476Y53975789D01*
X14100476Y53975788D01*
X14100470Y53975786D01*
X13947742Y53879820D01*
X13820180Y53752258D01*
X13724214Y53599530D01*
X13724211Y53599524D01*
X13724211Y53599522D01*
X13676219Y53462367D01*
X13664632Y53429254D01*
X13664630Y53429246D01*
X13644435Y53250004D01*
X13644435Y53249997D01*
X13664630Y53070755D01*
X13664631Y53070749D01*
X13664632Y53070745D01*
X13724211Y52900478D01*
X13724212Y52900477D01*
X13730281Y52887874D01*
X13727479Y52886525D01*
X13753614Y52818051D01*
X13750886Y52720934D01*
X13711201Y52632254D01*
X13640600Y52565511D01*
X13549832Y52530867D01*
X13508131Y52527350D01*
X11760567Y52527350D01*
X11665279Y52546304D01*
X11584497Y52600280D01*
X11530521Y52681062D01*
X11511567Y52776350D01*
X11530521Y52871638D01*
X11584494Y52952417D01*
X11629816Y52997738D01*
X11654998Y53037816D01*
X11725785Y53150471D01*
X11725785Y53150473D01*
X11725789Y53150478D01*
X11785368Y53320745D01*
X11802112Y53469352D01*
X11805565Y53499997D01*
X11805565Y53500004D01*
X11785369Y53679246D01*
X11785368Y53679255D01*
X11725789Y53849522D01*
X11725786Y53849527D01*
X11725785Y53849530D01*
X11629819Y54002258D01*
X11629817Y54002260D01*
X11629816Y54002262D01*
X11502262Y54129816D01*
X11502259Y54129818D01*
X11502257Y54129820D01*
X11349529Y54225786D01*
X11349524Y54225788D01*
X11349522Y54225789D01*
X11179255Y54285368D01*
X11179251Y54285369D01*
X11179245Y54285370D01*
X11000004Y54305565D01*
X10999996Y54305565D01*
X10820754Y54285370D01*
X10820746Y54285369D01*
X10820745Y54285368D01*
X10650478Y54225789D01*
X10650476Y54225789D01*
X10650476Y54225788D01*
X10650470Y54225786D01*
X10497742Y54129820D01*
X10370180Y54002258D01*
X10274214Y53849530D01*
X10274211Y53849524D01*
X10274211Y53849522D01*
X10240179Y53752262D01*
X10214632Y53679254D01*
X10214630Y53679246D01*
X10194435Y53500004D01*
X10194435Y53499997D01*
X10214630Y53320755D01*
X10214631Y53320749D01*
X10214632Y53320745D01*
X10274211Y53150478D01*
X10274212Y53150477D01*
X10274214Y53150471D01*
X10370180Y52997743D01*
X10370182Y52997741D01*
X10370184Y52997738D01*
X10415505Y52952417D01*
X10469479Y52871638D01*
X10488433Y52776350D01*
X10469479Y52681062D01*
X10415503Y52600280D01*
X10334721Y52546304D01*
X10239433Y52527350D01*
X9975765Y52527350D01*
X9975745Y52527351D01*
X9963457Y52527351D01*
X9840244Y52527351D01*
X9840242Y52527351D01*
X9739440Y52507301D01*
X9719402Y52503315D01*
X9719395Y52503313D01*
X9676171Y52485408D01*
X9605567Y52456163D01*
X9605563Y52456162D01*
X9503118Y52387710D01*
X9503116Y52387708D01*
X7901609Y50786202D01*
X7820828Y50732226D01*
X7725540Y50713272D01*
X7630252Y50732226D01*
X7549470Y50786203D01*
X7495494Y50866984D01*
X7476540Y50962272D01*
X7476932Y50976233D01*
X7492306Y51249995D01*
X7492306Y51250006D01*
X7473099Y51592020D01*
X7473098Y51592026D01*
X7415718Y51929747D01*
X7415715Y51929762D01*
X7320882Y52258931D01*
X7320875Y52258951D01*
X7189788Y52575425D01*
X7024079Y52875252D01*
X6825840Y53154645D01*
X6764423Y53223371D01*
X5803457Y52262406D01*
X5718370Y52373293D01*
X5560793Y52530870D01*
X5449904Y52615959D01*
X6410870Y53576925D01*
X6342144Y53638341D01*
X6117935Y53797425D01*
X6051190Y53868024D01*
X6016542Y53958791D01*
X6019267Y54055908D01*
X6058949Y54144589D01*
X6129548Y54211334D01*
X6220315Y54245982D01*
X6262024Y54249500D01*
X7148541Y54249500D01*
X7328860Y54285368D01*
X7341836Y54287949D01*
X7395165Y54310039D01*
X7523914Y54363368D01*
X7687782Y54472861D01*
X7827139Y54612218D01*
X7827139Y54612220D01*
X7847639Y54632719D01*
X7847640Y54632722D01*
X8827140Y55612219D01*
X8936632Y55776086D01*
X9012052Y55958165D01*
X9050501Y56151460D01*
X9050501Y56348541D01*
X9012052Y56541836D01*
X9000396Y56569976D01*
X8936634Y56723911D01*
X8936631Y56723916D01*
X8919202Y56750000D01*
X8827140Y56887782D01*
X8687782Y57027140D01*
X8523915Y57136632D01*
X8523910Y57136635D01*
X8341835Y57212053D01*
X8341832Y57212054D01*
X8148545Y57250501D01*
X8148541Y57250501D01*
X7951460Y57250501D01*
X7951455Y57250501D01*
X7758168Y57212054D01*
X7758165Y57212053D01*
X7594288Y57144172D01*
X7499000Y57125218D01*
X7403712Y57144172D01*
X7322930Y57198149D01*
X7268954Y57278930D01*
X7250000Y57374218D01*
X7250000Y59000004D01*
X42944435Y59000004D01*
X42944435Y58999997D01*
X42964630Y58820755D01*
X42964631Y58820749D01*
X42964632Y58820745D01*
X43024211Y58650478D01*
X43024212Y58650477D01*
X43024214Y58650471D01*
X43120180Y58497743D01*
X43120182Y58497741D01*
X43120184Y58497738D01*
X43247738Y58370184D01*
X43247740Y58370183D01*
X43247742Y58370181D01*
X43400470Y58274215D01*
X43400473Y58274214D01*
X43400478Y58274211D01*
X43570745Y58214632D01*
X43570754Y58214631D01*
X43749996Y58194435D01*
X43750000Y58194435D01*
X43750004Y58194435D01*
X43889908Y58210199D01*
X43929255Y58214632D01*
X44099522Y58274211D01*
X44099527Y58274215D01*
X44099529Y58274215D01*
X44252257Y58370181D01*
X44252256Y58370181D01*
X44252262Y58370184D01*
X44379816Y58497738D01*
X44475789Y58650478D01*
X44535368Y58820745D01*
X44540875Y58869629D01*
X44555565Y58999997D01*
X44555565Y59000004D01*
X44535369Y59179246D01*
X44535368Y59179255D01*
X44475789Y59349522D01*
X44475786Y59349527D01*
X44475785Y59349530D01*
X44379819Y59502258D01*
X44379817Y59502260D01*
X44379816Y59502262D01*
X44252262Y59629816D01*
X44252259Y59629818D01*
X44252257Y59629820D01*
X44099529Y59725786D01*
X44099524Y59725788D01*
X44099522Y59725789D01*
X43929255Y59785368D01*
X43929251Y59785369D01*
X43929245Y59785370D01*
X43750004Y59805565D01*
X43749996Y59805565D01*
X43570754Y59785370D01*
X43570746Y59785369D01*
X43570745Y59785368D01*
X43400478Y59725789D01*
X43400476Y59725789D01*
X43400476Y59725788D01*
X43400470Y59725786D01*
X43247742Y59629820D01*
X43120180Y59502258D01*
X43024214Y59349530D01*
X43024211Y59349524D01*
X43024211Y59349522D01*
X42988596Y59247738D01*
X42964632Y59179254D01*
X42964630Y59179246D01*
X42944435Y59000004D01*
X7250000Y59000004D01*
X7250000Y63675500D01*
X7268954Y63770788D01*
X7322930Y63851570D01*
X7403712Y63905546D01*
X7499000Y63924500D01*
X97301000Y63924500D01*
X97396288Y63905546D01*
G37*
%TD.AperFunction*%
%TA.AperFunction,Conductor*%
G36*
X3156630Y50126707D02*
G01*
X3314207Y49969130D01*
X3425094Y49884043D01*
X2464129Y48923077D01*
X2532855Y48861660D01*
X2812248Y48663421D01*
X3112076Y48497712D01*
X3112075Y48497712D01*
X3428549Y48366625D01*
X3428569Y48366618D01*
X3757738Y48271785D01*
X3757753Y48271782D01*
X4095474Y48214402D01*
X4095480Y48214401D01*
X4437495Y48195194D01*
X4437505Y48195194D01*
X4711267Y48210568D01*
X4807468Y48196987D01*
X4891148Y48147625D01*
X4949569Y48069997D01*
X4973836Y47975921D01*
X4960255Y47879720D01*
X4910893Y47796040D01*
X4901298Y47785891D01*
X4101269Y46985861D01*
X4101269Y46985860D01*
X4014139Y46898730D01*
X3979915Y46847510D01*
X3945686Y46796284D01*
X3920498Y46735471D01*
X3920498Y46735469D01*
X3904187Y46696090D01*
X3904185Y46696086D01*
X3898538Y46682456D01*
X3898538Y46682454D01*
X3898537Y46682451D01*
X3892177Y46650476D01*
X3875274Y46565495D01*
X3875268Y46565467D01*
X3874500Y46561609D01*
X3874500Y46561606D01*
X3874500Y27561607D01*
X3874500Y27438393D01*
X3889774Y27361606D01*
X3894390Y27338395D01*
X3898537Y27317549D01*
X3945688Y27203714D01*
X3972130Y27164142D01*
X4014142Y27101267D01*
X4101267Y27014142D01*
X4101269Y27014141D01*
X6177071Y24938338D01*
X6231046Y24857558D01*
X6250000Y24762270D01*
X6250000Y21865851D01*
X6249500Y21855670D01*
X6249500Y15655484D01*
X6230546Y15560196D01*
X6176570Y15479414D01*
X6095788Y15425438D01*
X6000500Y15406484D01*
X5905212Y15425438D01*
X5880054Y15437553D01*
X5762923Y15502289D01*
X5762924Y15502289D01*
X5446450Y15633376D01*
X5446430Y15633383D01*
X5117261Y15728216D01*
X5117246Y15728219D01*
X4779525Y15785599D01*
X4779519Y15785600D01*
X4437505Y15804806D01*
X4437495Y15804806D01*
X4095480Y15785600D01*
X4095474Y15785599D01*
X3757753Y15728219D01*
X3757738Y15728216D01*
X3428569Y15633383D01*
X3428549Y15633376D01*
X3112075Y15502289D01*
X2812248Y15336580D01*
X2532855Y15138340D01*
X2464129Y15076925D01*
X3425095Y14115959D01*
X3314207Y14030870D01*
X3156630Y13873293D01*
X3071541Y13762405D01*
X2110574Y14723372D01*
X2006485Y14720450D01*
X1910703Y14736723D01*
X1828439Y14788412D01*
X1772218Y14867648D01*
X1750598Y14962367D01*
X1750500Y14969352D01*
X1750500Y49030649D01*
X1769454Y49125937D01*
X1823430Y49206719D01*
X1904212Y49260695D01*
X1999500Y49279649D01*
X2006485Y49279551D01*
X2110575Y49276630D01*
X3071541Y50237596D01*
X3156630Y50126707D01*
G37*
%TD.AperFunction*%
%TA.AperFunction,Conductor*%
G36*
X97720788Y18731046D02*
G01*
X97801570Y18677070D01*
X97855546Y18596288D01*
X97874500Y18501000D01*
X97874500Y16580867D01*
X97855546Y16485579D01*
X97836334Y16448391D01*
X97774214Y16349530D01*
X97774211Y16349524D01*
X97774211Y16349522D01*
X97714634Y16179259D01*
X97714632Y16179254D01*
X97714630Y16179246D01*
X97694054Y15996622D01*
X97664551Y15904055D01*
X97601870Y15829824D01*
X97515553Y15785232D01*
X97446620Y15775500D01*
X96462230Y15775500D01*
X96366942Y15794454D01*
X96286161Y15848430D01*
X96107140Y16027450D01*
X96053163Y16108231D01*
X96035774Y16175646D01*
X96035368Y16179255D01*
X95975789Y16349522D01*
X95975786Y16349527D01*
X95975785Y16349530D01*
X95879819Y16502258D01*
X95879817Y16502260D01*
X95879816Y16502262D01*
X95752262Y16629816D01*
X95752259Y16629818D01*
X95752257Y16629820D01*
X95599529Y16725786D01*
X95599524Y16725788D01*
X95599522Y16725789D01*
X95429255Y16785368D01*
X95429251Y16785369D01*
X95429245Y16785370D01*
X95250004Y16805565D01*
X95249996Y16805565D01*
X95202378Y16800200D01*
X95105567Y16808366D01*
X95019250Y16852959D01*
X94956569Y16927189D01*
X94927066Y17019756D01*
X94925500Y17047634D01*
X94925500Y17287771D01*
X94944454Y17383059D01*
X94998427Y17463838D01*
X95185857Y17651266D01*
X95210666Y17688394D01*
X95254311Y17753714D01*
X95301463Y17867548D01*
X95306825Y17894505D01*
X95316965Y17945479D01*
X95325499Y17988388D01*
X95325500Y17988396D01*
X95325500Y18501000D01*
X95344454Y18596288D01*
X95398430Y18677070D01*
X95479212Y18731046D01*
X95574500Y18750000D01*
X97625500Y18750000D01*
X97720788Y18731046D01*
G37*
%TD.AperFunction*%
%TA.AperFunction,Conductor*%
G36*
X35338542Y49030546D02*
G01*
X35419324Y48976570D01*
X35473300Y48895788D01*
X35492254Y48800500D01*
X35478281Y48718264D01*
X35473715Y48705212D01*
X35464632Y48679254D01*
X35464630Y48679246D01*
X35444435Y48500004D01*
X35444435Y48499997D01*
X35464630Y48320755D01*
X35464631Y48320749D01*
X35464632Y48320745D01*
X35524211Y48150478D01*
X35524212Y48150477D01*
X35524214Y48150471D01*
X35620180Y47997743D01*
X35620182Y47997741D01*
X35620184Y47997738D01*
X35747738Y47870184D01*
X35747740Y47870183D01*
X35747742Y47870181D01*
X35900470Y47774215D01*
X35900473Y47774214D01*
X35900478Y47774211D01*
X36070745Y47714632D01*
X36070754Y47714631D01*
X36249996Y47694435D01*
X36250000Y47694435D01*
X36250004Y47694435D01*
X36389908Y47710199D01*
X36429255Y47714632D01*
X36599522Y47774211D01*
X36599527Y47774215D01*
X36599529Y47774215D01*
X36752257Y47870181D01*
X36752256Y47870181D01*
X36752262Y47870184D01*
X36879816Y47997738D01*
X36925219Y48069997D01*
X36975785Y48150471D01*
X36975785Y48150473D01*
X36975789Y48150478D01*
X37035368Y48320745D01*
X37041768Y48377546D01*
X37055565Y48499997D01*
X37055565Y48500004D01*
X37035369Y48679246D01*
X37035368Y48679255D01*
X37021718Y48718263D01*
X37008138Y48814461D01*
X37032405Y48908537D01*
X37090826Y48986165D01*
X37174506Y49035527D01*
X37256746Y49049500D01*
X44677414Y49049500D01*
X44772702Y49030546D01*
X44853484Y48976570D01*
X48026570Y45803485D01*
X48080546Y45722703D01*
X48099500Y45627415D01*
X48099500Y40541080D01*
X48080546Y40445792D01*
X48061335Y40408605D01*
X48024213Y40349527D01*
X48024211Y40349524D01*
X48024211Y40349522D01*
X47979783Y40222552D01*
X47964632Y40179254D01*
X47964630Y40179246D01*
X47944435Y40000004D01*
X47944435Y39999997D01*
X47964630Y39820755D01*
X47964631Y39820747D01*
X47973190Y39796287D01*
X48004525Y39706736D01*
X48018106Y39610539D01*
X47993840Y39516464D01*
X47935419Y39438836D01*
X47851738Y39389473D01*
X47769498Y39375500D01*
X44080867Y39375500D01*
X43985579Y39394454D01*
X43948391Y39413666D01*
X43849529Y39475786D01*
X43849524Y39475788D01*
X43849522Y39475789D01*
X43679255Y39535368D01*
X43679251Y39535369D01*
X43679245Y39535370D01*
X43500004Y39555565D01*
X43499996Y39555565D01*
X43320754Y39535370D01*
X43320746Y39535369D01*
X43320745Y39535368D01*
X43150478Y39475789D01*
X43150476Y39475789D01*
X43150476Y39475788D01*
X43150470Y39475786D01*
X42997742Y39379820D01*
X42870180Y39252258D01*
X42774214Y39099530D01*
X42774211Y39099524D01*
X42774211Y39099522D01*
X42715751Y38932451D01*
X42714632Y38929254D01*
X42714630Y38929246D01*
X42694435Y38750004D01*
X42694435Y38749997D01*
X42714630Y38570755D01*
X42714631Y38570749D01*
X42714632Y38570745D01*
X42774211Y38400478D01*
X42774212Y38400477D01*
X42774214Y38400472D01*
X42864379Y38256976D01*
X42899027Y38166209D01*
X42896302Y38069092D01*
X42856620Y37980411D01*
X42786021Y37913666D01*
X42695254Y37879018D01*
X42653545Y37875500D01*
X39362231Y37875500D01*
X39266943Y37894454D01*
X39186161Y37948430D01*
X37448430Y39686161D01*
X37394454Y39766943D01*
X37375500Y39862231D01*
X37375500Y43750004D01*
X45194435Y43750004D01*
X45194435Y43750000D01*
X45214630Y43570755D01*
X45214631Y43570749D01*
X45214632Y43570745D01*
X45274211Y43400478D01*
X45274212Y43400477D01*
X45274214Y43400471D01*
X45370180Y43247743D01*
X45370182Y43247741D01*
X45370184Y43247738D01*
X45497738Y43120184D01*
X45497740Y43120183D01*
X45497742Y43120181D01*
X45650470Y43024215D01*
X45650473Y43024214D01*
X45650478Y43024211D01*
X45820745Y42964632D01*
X45820754Y42964631D01*
X45999996Y42944435D01*
X46000000Y42944435D01*
X46000004Y42944435D01*
X46139908Y42960199D01*
X46179255Y42964632D01*
X46349522Y43024211D01*
X46349527Y43024215D01*
X46349529Y43024215D01*
X46502257Y43120181D01*
X46502256Y43120181D01*
X46502262Y43120184D01*
X46629816Y43247738D01*
X46654998Y43287816D01*
X46725785Y43400471D01*
X46725785Y43400473D01*
X46725789Y43400478D01*
X46785368Y43570745D01*
X46805565Y43750000D01*
X46804666Y43757976D01*
X46785369Y43929246D01*
X46785368Y43929255D01*
X46725789Y44099522D01*
X46725786Y44099527D01*
X46725785Y44099530D01*
X46629819Y44252258D01*
X46629817Y44252260D01*
X46629816Y44252262D01*
X46502262Y44379816D01*
X46502259Y44379818D01*
X46502257Y44379820D01*
X46349529Y44475786D01*
X46349524Y44475788D01*
X46349522Y44475789D01*
X46179255Y44535368D01*
X46179251Y44535369D01*
X46179245Y44535370D01*
X46000004Y44555565D01*
X45999996Y44555565D01*
X45820754Y44535370D01*
X45820746Y44535369D01*
X45820745Y44535368D01*
X45650478Y44475789D01*
X45650476Y44475789D01*
X45650476Y44475788D01*
X45650470Y44475786D01*
X45497742Y44379820D01*
X45370180Y44252258D01*
X45274214Y44099530D01*
X45274211Y44099524D01*
X45274211Y44099522D01*
X45222875Y43952810D01*
X45214632Y43929254D01*
X45214630Y43929246D01*
X45194435Y43750004D01*
X37375500Y43750004D01*
X37375500Y45061609D01*
X37374732Y45065467D01*
X37374726Y45065496D01*
X37369532Y45091606D01*
X37351463Y45182451D01*
X37348442Y45189744D01*
X37323691Y45249500D01*
X37304312Y45296285D01*
X37272976Y45343182D01*
X37252050Y45374500D01*
X37235862Y45398728D01*
X37235860Y45398730D01*
X37235858Y45398733D01*
X37148733Y45485858D01*
X37148729Y45485861D01*
X37134586Y45500004D01*
X42444435Y45500004D01*
X42444435Y45499997D01*
X42464630Y45320755D01*
X42464631Y45320749D01*
X42464632Y45320745D01*
X42524211Y45150478D01*
X42524212Y45150477D01*
X42524214Y45150471D01*
X42620180Y44997743D01*
X42620182Y44997741D01*
X42620184Y44997738D01*
X42747738Y44870184D01*
X42747740Y44870183D01*
X42747742Y44870181D01*
X42900470Y44774215D01*
X42900473Y44774214D01*
X42900478Y44774211D01*
X43070745Y44714632D01*
X43070754Y44714631D01*
X43249996Y44694435D01*
X43250000Y44694435D01*
X43250004Y44694435D01*
X43389908Y44710199D01*
X43429255Y44714632D01*
X43599522Y44774211D01*
X43599527Y44774215D01*
X43599529Y44774215D01*
X43752257Y44870181D01*
X43752256Y44870181D01*
X43752262Y44870184D01*
X43879816Y44997738D01*
X43927867Y45074211D01*
X43975785Y45150471D01*
X43975785Y45150473D01*
X43975789Y45150478D01*
X44035368Y45320745D01*
X44041425Y45374500D01*
X44055565Y45499997D01*
X44055565Y45500004D01*
X44035369Y45679246D01*
X44035368Y45679255D01*
X43975789Y45849522D01*
X43975786Y45849527D01*
X43975785Y45849530D01*
X43879819Y46002258D01*
X43879817Y46002260D01*
X43879816Y46002262D01*
X43752262Y46129816D01*
X43752259Y46129818D01*
X43752257Y46129820D01*
X43599529Y46225786D01*
X43599524Y46225788D01*
X43599522Y46225789D01*
X43429255Y46285368D01*
X43429251Y46285369D01*
X43429245Y46285370D01*
X43250004Y46305565D01*
X43249996Y46305565D01*
X43070754Y46285370D01*
X43070746Y46285369D01*
X43070745Y46285368D01*
X42900478Y46225789D01*
X42900476Y46225789D01*
X42900476Y46225788D01*
X42900470Y46225786D01*
X42747742Y46129820D01*
X42620180Y46002258D01*
X42524214Y45849530D01*
X42524211Y45849524D01*
X42524211Y45849522D01*
X42501982Y45785993D01*
X42464632Y45679254D01*
X42464630Y45679246D01*
X42444435Y45500004D01*
X37134586Y45500004D01*
X36435860Y46198730D01*
X36435858Y46198733D01*
X36348733Y46285858D01*
X36297509Y46320085D01*
X36246286Y46354312D01*
X36221847Y46364435D01*
X36153218Y46392862D01*
X36132458Y46401461D01*
X36132453Y46401463D01*
X36132452Y46401463D01*
X36132450Y46401464D01*
X36132448Y46401464D01*
X36066061Y46414670D01*
X36066061Y46414669D01*
X36011608Y46425500D01*
X36011607Y46425500D01*
X36011606Y46425500D01*
X35480867Y46425500D01*
X35385579Y46444454D01*
X35348391Y46463666D01*
X35249529Y46525786D01*
X35249524Y46525788D01*
X35249522Y46525789D01*
X35198892Y46543505D01*
X35115216Y46592865D01*
X35056795Y46670493D01*
X35032528Y46764569D01*
X35036098Y46806590D01*
X35033803Y46806848D01*
X35055565Y46999997D01*
X35055565Y47000004D01*
X35035369Y47179246D01*
X35035368Y47179255D01*
X34975789Y47349522D01*
X34975786Y47349527D01*
X34975785Y47349530D01*
X34879819Y47502258D01*
X34879817Y47502260D01*
X34879816Y47502262D01*
X34752262Y47629816D01*
X34752259Y47629818D01*
X34752257Y47629820D01*
X34599529Y47725786D01*
X34599524Y47725788D01*
X34599522Y47725789D01*
X34429255Y47785368D01*
X34429251Y47785369D01*
X34429245Y47785370D01*
X34250004Y47805565D01*
X34249996Y47805565D01*
X34070754Y47785370D01*
X34070746Y47785369D01*
X34070745Y47785368D01*
X33900478Y47725789D01*
X33900476Y47725789D01*
X33900476Y47725788D01*
X33900470Y47725786D01*
X33747742Y47629820D01*
X33620180Y47502258D01*
X33524214Y47349530D01*
X33524211Y47349524D01*
X33524211Y47349522D01*
X33471892Y47200001D01*
X33464632Y47179254D01*
X33464630Y47179246D01*
X33444435Y47000004D01*
X33444435Y46999997D01*
X33464630Y46820755D01*
X33464631Y46820749D01*
X33464632Y46820745D01*
X33524211Y46650478D01*
X33524212Y46650477D01*
X33524214Y46650471D01*
X33620180Y46497743D01*
X33620182Y46497741D01*
X33620184Y46497738D01*
X33747738Y46370184D01*
X33747740Y46370183D01*
X33747742Y46370181D01*
X33900470Y46274215D01*
X33900472Y46274215D01*
X33900478Y46274211D01*
X33951107Y46256496D01*
X34034784Y46207134D01*
X34093205Y46129506D01*
X34117471Y46035430D01*
X34113945Y45993406D01*
X34116197Y45993152D01*
X34094435Y45800004D01*
X34094435Y45799997D01*
X34114630Y45620755D01*
X34114631Y45620749D01*
X34114632Y45620745D01*
X34174211Y45450478D01*
X34174212Y45450477D01*
X34174214Y45450471D01*
X34270180Y45297743D01*
X34270182Y45297741D01*
X34270184Y45297738D01*
X34397738Y45170184D01*
X34397740Y45170183D01*
X34397742Y45170181D01*
X34550470Y45074215D01*
X34550473Y45074214D01*
X34550478Y45074211D01*
X34720745Y45014632D01*
X34720754Y45014631D01*
X34899996Y44994435D01*
X34900000Y44994435D01*
X34900004Y44994435D01*
X35039908Y45010199D01*
X35079255Y45014632D01*
X35249522Y45074211D01*
X35249527Y45074215D01*
X35249529Y45074215D01*
X35348391Y45136334D01*
X35439158Y45170982D01*
X35480867Y45174500D01*
X35587770Y45174500D01*
X35683058Y45155546D01*
X35763840Y45101570D01*
X36051570Y44813840D01*
X36105546Y44733058D01*
X36124500Y44637770D01*
X36124500Y39924500D01*
X36105546Y39829212D01*
X36051570Y39748430D01*
X35970788Y39694454D01*
X35875500Y39675500D01*
X35062231Y39675500D01*
X34966943Y39694454D01*
X34886161Y39748430D01*
X34698430Y39936161D01*
X34644454Y40016943D01*
X34625500Y40112231D01*
X34625500Y41369134D01*
X34644454Y41464422D01*
X34663662Y41501605D01*
X34725789Y41600478D01*
X34785368Y41770745D01*
X34800508Y41905115D01*
X34805565Y41949997D01*
X34805565Y41950004D01*
X34785369Y42129246D01*
X34785368Y42129255D01*
X34725789Y42299522D01*
X34725786Y42299527D01*
X34725785Y42299530D01*
X34629819Y42452258D01*
X34629817Y42452260D01*
X34629816Y42452262D01*
X34502262Y42579816D01*
X34449380Y42613044D01*
X34434586Y42622340D01*
X34363988Y42689086D01*
X34324306Y42777767D01*
X34321581Y42874884D01*
X34356229Y42965651D01*
X34372391Y42988427D01*
X34379816Y42997738D01*
X34475785Y43150471D01*
X34475785Y43150473D01*
X34475789Y43150478D01*
X34535368Y43320745D01*
X34548835Y43440267D01*
X34555565Y43499997D01*
X34555565Y43500004D01*
X34535369Y43679246D01*
X34535368Y43679255D01*
X34475789Y43849522D01*
X34475786Y43849527D01*
X34475785Y43849530D01*
X34379819Y44002258D01*
X34379817Y44002260D01*
X34379816Y44002262D01*
X34252262Y44129816D01*
X34252259Y44129818D01*
X34252257Y44129820D01*
X34099529Y44225786D01*
X34099524Y44225788D01*
X34099522Y44225789D01*
X33929255Y44285368D01*
X33929251Y44285369D01*
X33929245Y44285370D01*
X33750004Y44305565D01*
X33749996Y44305565D01*
X33570754Y44285370D01*
X33570746Y44285369D01*
X33570745Y44285368D01*
X33400478Y44225789D01*
X33400476Y44225789D01*
X33400476Y44225788D01*
X33400470Y44225786D01*
X33247742Y44129820D01*
X33120180Y44002258D01*
X33024214Y43849530D01*
X33024211Y43849524D01*
X33024211Y43849522D01*
X32970142Y43695000D01*
X32964632Y43679254D01*
X32964630Y43679246D01*
X32944435Y43500004D01*
X32944435Y43499997D01*
X32964630Y43320755D01*
X32964631Y43320749D01*
X32964632Y43320745D01*
X33024211Y43150478D01*
X33024212Y43150477D01*
X33024214Y43150471D01*
X33120180Y42997743D01*
X33120182Y42997741D01*
X33120184Y42997738D01*
X33247738Y42870184D01*
X33247740Y42870183D01*
X33247742Y42870181D01*
X33315412Y42827661D01*
X33386011Y42760916D01*
X33425693Y42672235D01*
X33428418Y42575118D01*
X33393770Y42484351D01*
X33377617Y42461584D01*
X33370183Y42452263D01*
X33274214Y42299530D01*
X33274211Y42299524D01*
X33274211Y42299522D01*
X33222923Y42152947D01*
X33214632Y42129254D01*
X33214630Y42129246D01*
X33194435Y41950004D01*
X33194435Y41949997D01*
X33214630Y41770755D01*
X33214631Y41770749D01*
X33214632Y41770745D01*
X33274211Y41600478D01*
X33336335Y41501609D01*
X33370982Y41410844D01*
X33374500Y41369134D01*
X33374500Y39688393D01*
X33379472Y39663398D01*
X33379473Y39663392D01*
X33398535Y39567552D01*
X33398537Y39567548D01*
X33406969Y39547191D01*
X33426328Y39500453D01*
X33445687Y39453715D01*
X33449219Y39448430D01*
X33465854Y39423535D01*
X33514142Y39351267D01*
X33527072Y39338337D01*
X33581046Y39257558D01*
X33600000Y39162270D01*
X33600000Y34463123D01*
X33652320Y34424624D01*
X33702581Y34341480D01*
X33710161Y34309075D01*
X33711519Y34309384D01*
X33714631Y34295749D01*
X33714632Y34295745D01*
X33774211Y34125478D01*
X33774212Y34125477D01*
X33774214Y34125471D01*
X33870180Y33972743D01*
X33870182Y33972741D01*
X33870184Y33972738D01*
X33997738Y33845184D01*
X33997740Y33845183D01*
X33997742Y33845181D01*
X34150470Y33749215D01*
X34150473Y33749214D01*
X34150478Y33749211D01*
X34320745Y33689632D01*
X34320754Y33689631D01*
X34499996Y33669435D01*
X34500000Y33669435D01*
X34500004Y33669435D01*
X34639908Y33685199D01*
X34679255Y33689632D01*
X34849522Y33749211D01*
X34849527Y33749215D01*
X34849529Y33749215D01*
X35002257Y33845181D01*
X35002256Y33845181D01*
X35002262Y33845184D01*
X35129816Y33972738D01*
X35173090Y34041608D01*
X35225785Y34125471D01*
X35225785Y34125473D01*
X35225789Y34125478D01*
X35285368Y34295745D01*
X35285774Y34299355D01*
X35287245Y34303969D01*
X35288479Y34309375D01*
X35288934Y34309271D01*
X35315272Y34391917D01*
X35357136Y34447548D01*
X35961160Y35051570D01*
X36041941Y35105546D01*
X36137229Y35124500D01*
X45061607Y35124500D01*
X45122026Y35136519D01*
X45122030Y35136519D01*
X45152662Y35142612D01*
X45182452Y35148537D01*
X45222400Y35165084D01*
X45296286Y35195688D01*
X45361529Y35239283D01*
X45398733Y35264142D01*
X45485858Y35351267D01*
X45485858Y35351269D01*
X45506358Y35371768D01*
X45506359Y35371771D01*
X46186161Y36051570D01*
X46266942Y36105546D01*
X46362230Y36124500D01*
X47020144Y36124500D01*
X47115432Y36105546D01*
X47196214Y36051570D01*
X47250190Y35970788D01*
X47251432Y35964544D01*
X47258991Y35990476D01*
X47319802Y36066245D01*
X47404981Y36112976D01*
X47479856Y36124500D01*
X55266283Y36124500D01*
X55361571Y36105546D01*
X55442353Y36051570D01*
X55496329Y35970788D01*
X55515283Y35875500D01*
X55496329Y35780212D01*
X55442355Y35699434D01*
X55397557Y35654635D01*
X55370180Y35627258D01*
X55274214Y35474530D01*
X55274211Y35474524D01*
X55274211Y35474522D01*
X55217340Y35311992D01*
X55214632Y35304254D01*
X55214630Y35304246D01*
X55194435Y35125004D01*
X55194435Y35124997D01*
X55214630Y34945755D01*
X55214632Y34945744D01*
X55235527Y34886031D01*
X55249500Y34803792D01*
X55249500Y34426080D01*
X55278341Y34281089D01*
X55278342Y34281086D01*
X55334910Y34144516D01*
X55334916Y34144505D01*
X55351167Y34120184D01*
X55367802Y34095288D01*
X55415292Y34024211D01*
X55417048Y34021584D01*
X59721584Y29717048D01*
X59791719Y29670187D01*
X59791721Y29670185D01*
X59809395Y29658376D01*
X59844505Y29634916D01*
X59844510Y29634914D01*
X59844512Y29634913D01*
X59894963Y29614016D01*
X59981087Y29578342D01*
X60126080Y29549501D01*
X60126081Y29549500D01*
X60126082Y29549500D01*
X60126083Y29549500D01*
X60273917Y29549500D01*
X60278791Y29549500D01*
X60361029Y29535527D01*
X60433942Y29510014D01*
X60433194Y29507879D01*
X60504029Y29476182D01*
X60528782Y29450000D01*
X63062270Y29450000D01*
X63157558Y29431046D01*
X63238340Y29377070D01*
X63301570Y29313840D01*
X63355546Y29233058D01*
X63374500Y29137770D01*
X63374500Y28230503D01*
X63355546Y28135215D01*
X63301570Y28054433D01*
X63220788Y28000457D01*
X63125500Y27981503D01*
X63043262Y27995476D01*
X62929254Y28035369D01*
X62929250Y28035370D01*
X62844354Y28044935D01*
X62776950Y28062321D01*
X62715792Y28087653D01*
X62715791Y28087654D01*
X62697554Y28095208D01*
X62682452Y28101463D01*
X62682449Y28101464D01*
X62682446Y28101465D01*
X62622032Y28113482D01*
X62561612Y28125500D01*
X62561607Y28125500D01*
X62561606Y28125500D01*
X48849500Y28125500D01*
X48754212Y28144454D01*
X48673430Y28198430D01*
X48619454Y28279212D01*
X48600500Y28374500D01*
X48600499Y30107866D01*
X48600499Y30107872D01*
X48594091Y30167483D01*
X48543796Y30302331D01*
X48457546Y30417546D01*
X48342331Y30503796D01*
X48342329Y30503797D01*
X48328073Y30514469D01*
X48330543Y30517769D01*
X48281995Y30558354D01*
X48236976Y30644450D01*
X48228331Y30741219D01*
X48257376Y30833931D01*
X48285158Y30874622D01*
X48288494Y30878598D01*
X48288495Y30878599D01*
X48424035Y31072170D01*
X48523903Y31286337D01*
X48585063Y31514592D01*
X48587963Y31547738D01*
X48605659Y31749995D01*
X48605659Y31750006D01*
X48585064Y31985402D01*
X48585063Y31985405D01*
X48585063Y31985408D01*
X48523903Y32213663D01*
X48437231Y32399530D01*
X48424038Y32427823D01*
X48424034Y32427831D01*
X48336906Y32552262D01*
X48288495Y32621401D01*
X48121401Y32788495D01*
X48082074Y32816033D01*
X48014891Y32886211D01*
X47979678Y32976760D01*
X47981797Y33073892D01*
X48020925Y33162819D01*
X48082073Y33223968D01*
X48121401Y33251505D01*
X48288495Y33418599D01*
X48424035Y33612170D01*
X48523903Y33826337D01*
X48585063Y34054592D01*
X48585064Y34054599D01*
X48605659Y34289995D01*
X48605659Y34290006D01*
X48585064Y34525402D01*
X48585063Y34525405D01*
X48585063Y34525408D01*
X48523903Y34753663D01*
X48455442Y34900478D01*
X48424038Y34967823D01*
X48424034Y34967831D01*
X48326969Y35106454D01*
X48288495Y35161401D01*
X48121401Y35328495D01*
X48094910Y35347044D01*
X47927830Y35464035D01*
X47905323Y35474530D01*
X47713663Y35563903D01*
X47713660Y35563904D01*
X47485401Y35625065D01*
X47458154Y35627448D01*
X47364880Y35654635D01*
X47289111Y35715446D01*
X47251091Y35784746D01*
X47250190Y35780212D01*
X47196214Y35699430D01*
X47115432Y35645454D01*
X47041846Y35627448D01*
X47014598Y35625065D01*
X46786335Y35563903D01*
X46786333Y35563902D01*
X46572177Y35464039D01*
X46572169Y35464035D01*
X46378600Y35328496D01*
X46211504Y35161400D01*
X46075965Y34967831D01*
X46075961Y34967823D01*
X45976098Y34753667D01*
X45976097Y34753665D01*
X45914935Y34525402D01*
X45894341Y34290006D01*
X45894341Y34289995D01*
X45914935Y34054599D01*
X45970548Y33847044D01*
X45976097Y33826337D01*
X46043926Y33680877D01*
X46075965Y33612170D01*
X46204043Y33429255D01*
X46211505Y33418599D01*
X46378599Y33251505D01*
X46417925Y33223969D01*
X46485107Y33153791D01*
X46520321Y33063242D01*
X46518202Y32966110D01*
X46479074Y32877182D01*
X46417928Y32816035D01*
X46378603Y32788499D01*
X46211504Y32621400D01*
X46075965Y32427831D01*
X46075961Y32427823D01*
X45976098Y32213667D01*
X45976097Y32213665D01*
X45914935Y31985402D01*
X45894341Y31750006D01*
X45894341Y31749995D01*
X45914935Y31514599D01*
X45939335Y31423534D01*
X45976097Y31286337D01*
X46075965Y31072170D01*
X46211505Y30878599D01*
X46211506Y30878598D01*
X46211507Y30878597D01*
X46214849Y30874613D01*
X46216849Y30870966D01*
X46217741Y30869693D01*
X46217601Y30869596D01*
X46261577Y30789434D01*
X46272151Y30692856D01*
X46244961Y30599583D01*
X46184147Y30523815D01*
X46171431Y30515132D01*
X46171927Y30514469D01*
X46157670Y30503797D01*
X46157669Y30503796D01*
X46091892Y30454555D01*
X46042455Y30417547D01*
X46042453Y30417545D01*
X45956204Y30302331D01*
X45905908Y30167482D01*
X45899500Y30107877D01*
X45899500Y30107873D01*
X45899500Y29233058D01*
X45899501Y28374500D01*
X45880547Y28279212D01*
X45826571Y28198431D01*
X45745789Y28144454D01*
X45650501Y28125500D01*
X35612231Y28125500D01*
X35516943Y28144454D01*
X35436161Y28198430D01*
X33485859Y30148731D01*
X33485858Y30148733D01*
X33398733Y30235858D01*
X33339405Y30275500D01*
X33302744Y30299997D01*
X33296288Y30304311D01*
X33296286Y30304312D01*
X33215792Y30337653D01*
X33215791Y30337654D01*
X33182452Y30351463D01*
X33069560Y30373918D01*
X33069559Y30373919D01*
X33069555Y30373919D01*
X33061607Y30375500D01*
X33061606Y30375500D01*
X23062230Y30375500D01*
X22966942Y30394454D01*
X22886160Y30448430D01*
X22298430Y31036160D01*
X22244454Y31116942D01*
X22225500Y31212230D01*
X22225500Y32500004D01*
X38694435Y32500004D01*
X38694435Y32499997D01*
X38714630Y32320755D01*
X38714631Y32320749D01*
X38714632Y32320745D01*
X38774211Y32150478D01*
X38774212Y32150477D01*
X38774214Y32150471D01*
X38870180Y31997743D01*
X38870182Y31997741D01*
X38870184Y31997738D01*
X38997738Y31870184D01*
X38997740Y31870183D01*
X38997742Y31870181D01*
X39150470Y31774215D01*
X39150473Y31774214D01*
X39150478Y31774211D01*
X39320745Y31714632D01*
X39320754Y31714631D01*
X39499996Y31694435D01*
X39500000Y31694435D01*
X39500004Y31694435D01*
X39639908Y31710199D01*
X39679255Y31714632D01*
X39849522Y31774211D01*
X39849527Y31774215D01*
X39849529Y31774215D01*
X39962184Y31845002D01*
X40002262Y31870184D01*
X40129816Y31997738D01*
X40225789Y32150478D01*
X40285368Y32320745D01*
X40297433Y32427823D01*
X40305565Y32499997D01*
X40305565Y32500004D01*
X40285369Y32679246D01*
X40285368Y32679255D01*
X40225789Y32849522D01*
X40225786Y32849527D01*
X40225785Y32849530D01*
X40129819Y33002258D01*
X40129817Y33002260D01*
X40129816Y33002262D01*
X40002262Y33129816D01*
X40002259Y33129818D01*
X40002257Y33129820D01*
X39849529Y33225786D01*
X39849524Y33225788D01*
X39849522Y33225789D01*
X39679255Y33285368D01*
X39679251Y33285369D01*
X39679245Y33285370D01*
X39500004Y33305565D01*
X39499996Y33305565D01*
X39320754Y33285370D01*
X39320746Y33285369D01*
X39320745Y33285368D01*
X39150478Y33225789D01*
X39150476Y33225789D01*
X39150476Y33225788D01*
X39150470Y33225786D01*
X38997742Y33129820D01*
X38870180Y33002258D01*
X38774214Y32849530D01*
X38774211Y32849524D01*
X38774211Y32849522D01*
X38714829Y32679816D01*
X38714632Y32679254D01*
X38714630Y32679246D01*
X38694435Y32500004D01*
X22225500Y32500004D01*
X22225500Y36250004D01*
X23944435Y36250004D01*
X23944435Y36249997D01*
X23964630Y36070755D01*
X23964631Y36070749D01*
X23964632Y36070745D01*
X24024211Y35900478D01*
X24024212Y35900477D01*
X24024214Y35900471D01*
X24120180Y35747743D01*
X24120182Y35747741D01*
X24120184Y35747738D01*
X24247738Y35620184D01*
X24247740Y35620183D01*
X24247742Y35620181D01*
X24400470Y35524215D01*
X24400473Y35524214D01*
X24400478Y35524211D01*
X24570745Y35464632D01*
X24570754Y35464631D01*
X24749996Y35444435D01*
X24750000Y35444435D01*
X24750004Y35444435D01*
X24889908Y35460199D01*
X24929255Y35464632D01*
X25099522Y35524211D01*
X25099527Y35524215D01*
X25099529Y35524215D01*
X25252257Y35620181D01*
X25252256Y35620181D01*
X25252262Y35620184D01*
X25379816Y35747738D01*
X25409469Y35794930D01*
X25475785Y35900471D01*
X25475785Y35900473D01*
X25475789Y35900478D01*
X25535368Y36070745D01*
X25555565Y36250000D01*
X25548730Y36310659D01*
X25535369Y36429246D01*
X25535368Y36429255D01*
X25475789Y36599522D01*
X25475786Y36599527D01*
X25475785Y36599530D01*
X25379819Y36752258D01*
X25379817Y36752260D01*
X25379816Y36752262D01*
X25252262Y36879816D01*
X25252259Y36879818D01*
X25252257Y36879820D01*
X25099529Y36975786D01*
X25099524Y36975788D01*
X25099522Y36975789D01*
X24929255Y37035368D01*
X24929251Y37035369D01*
X24929245Y37035370D01*
X24750004Y37055565D01*
X24749996Y37055565D01*
X24570754Y37035370D01*
X24570746Y37035369D01*
X24570745Y37035368D01*
X24400478Y36975789D01*
X24400476Y36975789D01*
X24400476Y36975788D01*
X24400470Y36975786D01*
X24247742Y36879820D01*
X24120180Y36752258D01*
X24024214Y36599530D01*
X24024211Y36599524D01*
X24024211Y36599522D01*
X23969815Y36444065D01*
X23964632Y36429254D01*
X23964630Y36429246D01*
X23944435Y36250004D01*
X22225500Y36250004D01*
X22225500Y38811608D01*
X22224896Y38814642D01*
X22224890Y38814671D01*
X22216340Y38857654D01*
X22201463Y38932451D01*
X22192608Y38953828D01*
X22154311Y39046286D01*
X22118738Y39099524D01*
X22085860Y39148730D01*
X22085858Y39148733D01*
X21998733Y39235858D01*
X21998729Y39235861D01*
X21335860Y39898730D01*
X21335858Y39898733D01*
X21248733Y39985858D01*
X21247954Y39986379D01*
X21227563Y40000004D01*
X25444435Y40000004D01*
X25444435Y39999997D01*
X25464630Y39820755D01*
X25464631Y39820749D01*
X25464632Y39820745D01*
X25524211Y39650478D01*
X25524212Y39650477D01*
X25524214Y39650471D01*
X25620180Y39497743D01*
X25620182Y39497741D01*
X25620184Y39497738D01*
X25747738Y39370184D01*
X25747740Y39370183D01*
X25747742Y39370181D01*
X25900470Y39274215D01*
X25900473Y39274214D01*
X25900478Y39274211D01*
X26070745Y39214632D01*
X26070754Y39214631D01*
X26249996Y39194435D01*
X26250000Y39194435D01*
X26250004Y39194435D01*
X26389908Y39210199D01*
X26429255Y39214632D01*
X26599522Y39274211D01*
X26599527Y39274215D01*
X26599529Y39274215D01*
X26752257Y39370181D01*
X26752256Y39370181D01*
X26752262Y39370184D01*
X26879816Y39497738D01*
X26923683Y39567552D01*
X26975785Y39650471D01*
X26975785Y39650473D01*
X26975789Y39650478D01*
X27035368Y39820745D01*
X27048427Y39936645D01*
X27055565Y39999997D01*
X27055565Y40000004D01*
X27035369Y40179246D01*
X27035368Y40179255D01*
X26975789Y40349522D01*
X26975786Y40349527D01*
X26975785Y40349530D01*
X26879819Y40502258D01*
X26879817Y40502260D01*
X26879816Y40502262D01*
X26752262Y40629816D01*
X26752259Y40629818D01*
X26752257Y40629820D01*
X26599529Y40725786D01*
X26599524Y40725788D01*
X26599522Y40725789D01*
X26429255Y40785368D01*
X26429251Y40785369D01*
X26429245Y40785370D01*
X26250004Y40805565D01*
X26249996Y40805565D01*
X26070754Y40785370D01*
X26070746Y40785369D01*
X26070745Y40785368D01*
X25900478Y40725789D01*
X25900476Y40725789D01*
X25900476Y40725788D01*
X25900470Y40725786D01*
X25747742Y40629820D01*
X25620180Y40502258D01*
X25524214Y40349530D01*
X25524211Y40349524D01*
X25524211Y40349522D01*
X25479783Y40222552D01*
X25464632Y40179254D01*
X25464630Y40179246D01*
X25444435Y40000004D01*
X21227563Y40000004D01*
X21191333Y40024212D01*
X21191331Y40024213D01*
X21146286Y40054312D01*
X21052443Y40093183D01*
X21052443Y40093184D01*
X21032455Y40101462D01*
X21032449Y40101464D01*
X20972026Y40113483D01*
X20972026Y40113484D01*
X20911612Y40125500D01*
X20911607Y40125500D01*
X20911606Y40125500D01*
X20707353Y40125500D01*
X20612065Y40144454D01*
X20531283Y40198430D01*
X20477307Y40279212D01*
X20458353Y40374500D01*
X20477307Y40469788D01*
X20481729Y40480467D01*
X20488222Y40496140D01*
X20547952Y40744930D01*
X20562458Y40929254D01*
X20568026Y40999995D01*
X20568026Y41000006D01*
X20547952Y41255066D01*
X20547952Y41255070D01*
X20488222Y41503860D01*
X20390309Y41740243D01*
X20289276Y41905114D01*
X20256625Y41958397D01*
X20256621Y41958402D01*
X20090464Y42152947D01*
X20090461Y42152950D01*
X20090456Y42152956D01*
X20090449Y42152962D01*
X20090446Y42152965D01*
X19918849Y42299522D01*
X19905808Y42310660D01*
X19845661Y42386956D01*
X19819289Y42480463D01*
X19830708Y42576945D01*
X19878180Y42661712D01*
X19905809Y42689341D01*
X19935421Y42714632D01*
X20090456Y42847044D01*
X20256623Y43041601D01*
X20390309Y43259757D01*
X20488222Y43496140D01*
X20547952Y43744930D01*
X20562458Y43929254D01*
X20568026Y43999995D01*
X20568026Y44000006D01*
X20553305Y44187057D01*
X20547952Y44255070D01*
X20488222Y44503860D01*
X20390309Y44740243D01*
X20270233Y44936190D01*
X20256625Y44958397D01*
X20256621Y44958402D01*
X20090464Y45152947D01*
X20090461Y45152950D01*
X20090456Y45152956D01*
X20090449Y45152962D01*
X20090446Y45152965D01*
X19895901Y45319122D01*
X19895896Y45319126D01*
X19765987Y45398733D01*
X19677743Y45452809D01*
X19563804Y45500004D01*
X19441366Y45550720D01*
X19441361Y45550722D01*
X19199513Y45608785D01*
X19192570Y45610452D01*
X19192568Y45610453D01*
X19192565Y45610453D01*
X18937506Y45630526D01*
X18937494Y45630526D01*
X18682434Y45610453D01*
X18433638Y45550722D01*
X18433633Y45550720D01*
X18197259Y45452810D01*
X17979103Y45319126D01*
X17979098Y45319122D01*
X17784553Y45152965D01*
X17784535Y45152947D01*
X17618378Y44958402D01*
X17618374Y44958397D01*
X17484690Y44740241D01*
X17386780Y44503867D01*
X17386778Y44503862D01*
X17327047Y44255068D01*
X17326144Y44243591D01*
X17299769Y44150085D01*
X17239618Y44073790D01*
X17154849Y44026320D01*
X17058367Y44014904D01*
X16982624Y44033090D01*
X16941211Y44050244D01*
X16941203Y44050247D01*
X16692489Y44109958D01*
X16437506Y44130025D01*
X16437494Y44130025D01*
X16182510Y44109958D01*
X15933796Y44050247D01*
X15933788Y44050244D01*
X15697489Y43952366D01*
X15479391Y43818716D01*
X15475587Y43815468D01*
X16113475Y43177579D01*
X16082242Y43164641D01*
X15959403Y43082563D01*
X15854937Y42978097D01*
X15772859Y42855258D01*
X15759921Y42824025D01*
X15122032Y43461913D01*
X15119393Y43461809D01*
X15050914Y43407802D01*
X14957412Y43381411D01*
X14860928Y43392812D01*
X14776151Y43440267D01*
X14748485Y43467928D01*
X14590464Y43652947D01*
X14590461Y43652950D01*
X14590456Y43652956D01*
X14590449Y43652962D01*
X14590446Y43652965D01*
X14395901Y43819122D01*
X14395896Y43819126D01*
X14263141Y43900477D01*
X14177743Y43952809D01*
X14063814Y44000000D01*
X13941366Y44050720D01*
X13941361Y44050722D01*
X13738096Y44099522D01*
X13692570Y44110452D01*
X13692568Y44110453D01*
X13692565Y44110453D01*
X13437506Y44130526D01*
X13437494Y44130526D01*
X13182434Y44110453D01*
X12933638Y44050722D01*
X12933633Y44050720D01*
X12892334Y44033613D01*
X12797045Y44014659D01*
X12701757Y44033613D01*
X12620976Y44087590D01*
X12567000Y44168371D01*
X12548813Y44244124D01*
X12547952Y44255070D01*
X12488222Y44503860D01*
X12390309Y44740243D01*
X12270233Y44936190D01*
X12256625Y44958397D01*
X12256621Y44958402D01*
X12090464Y45152947D01*
X12090461Y45152950D01*
X12090456Y45152956D01*
X12090449Y45152962D01*
X12090446Y45152965D01*
X11895901Y45319122D01*
X11895896Y45319126D01*
X11765987Y45398733D01*
X11677743Y45452809D01*
X11563804Y45500004D01*
X11441366Y45550720D01*
X11441361Y45550722D01*
X11199513Y45608785D01*
X11192570Y45610452D01*
X11192568Y45610453D01*
X11192565Y45610453D01*
X10937506Y45630526D01*
X10937494Y45630526D01*
X10682432Y45610453D01*
X10551305Y45578972D01*
X10454224Y45575158D01*
X10363075Y45608785D01*
X10291732Y45674734D01*
X10251057Y45762964D01*
X10247243Y45860045D01*
X10280870Y45951194D01*
X10317103Y45997158D01*
X13296516Y48976570D01*
X13377298Y49030546D01*
X13472586Y49049500D01*
X35243254Y49049500D01*
X35338542Y49030546D01*
G37*
%TD.AperFunction*%
%TA.AperFunction,Conductor*%
G36*
X54970788Y48981046D02*
G01*
X55051570Y48927070D01*
X55105546Y48846288D01*
X55124500Y48751000D01*
X55124500Y47846456D01*
X55105546Y47751168D01*
X55051570Y47670386D01*
X54970788Y47616410D01*
X54875500Y47597456D01*
X54780212Y47616410D01*
X54743025Y47635621D01*
X54599526Y47725787D01*
X54599524Y47725788D01*
X54599522Y47725789D01*
X54429255Y47785368D01*
X54429251Y47785369D01*
X54429245Y47785370D01*
X54250004Y47805565D01*
X54249996Y47805565D01*
X54070754Y47785370D01*
X54070746Y47785369D01*
X54070745Y47785368D01*
X53900478Y47725789D01*
X53900476Y47725789D01*
X53900476Y47725788D01*
X53900470Y47725786D01*
X53747742Y47629820D01*
X53620180Y47502258D01*
X53524214Y47349530D01*
X53524211Y47349524D01*
X53524211Y47349522D01*
X53471892Y47200001D01*
X53464632Y47179254D01*
X53464630Y47179246D01*
X53444435Y47000004D01*
X53444435Y46999997D01*
X53464630Y46820755D01*
X53464631Y46820749D01*
X53464632Y46820745D01*
X53524211Y46650478D01*
X53586335Y46551609D01*
X53620982Y46460844D01*
X53624500Y46419134D01*
X53624500Y44763391D01*
X53647787Y44646313D01*
X53648535Y44642553D01*
X53695687Y44528716D01*
X53714877Y44499997D01*
X53714877Y44499996D01*
X53764138Y44426272D01*
X53764139Y44426271D01*
X53764142Y44426267D01*
X53851267Y44339142D01*
X53851270Y44339140D01*
X56419135Y41771275D01*
X56473111Y41690493D01*
X56492065Y41595205D01*
X56473111Y41499917D01*
X56419135Y41419135D01*
X56419134Y41419135D01*
X56109412Y41109414D01*
X56028631Y41055438D01*
X55933343Y41036484D01*
X55905466Y41038049D01*
X55792983Y41050722D01*
X55750000Y41055565D01*
X55749998Y41055565D01*
X55749997Y41055565D01*
X55749996Y41055565D01*
X55570754Y41035370D01*
X55570746Y41035369D01*
X55570745Y41035368D01*
X55400478Y40975789D01*
X55400476Y40975788D01*
X55400475Y40975788D01*
X55366432Y40954398D01*
X55341395Y40938665D01*
X55250631Y40904018D01*
X55208921Y40900500D01*
X51622586Y40900500D01*
X51527298Y40919454D01*
X51446516Y40973430D01*
X50473430Y41946516D01*
X50419454Y42027298D01*
X50400500Y42122586D01*
X50400500Y46321198D01*
X50400000Y46331379D01*
X50400000Y46851000D01*
X50418954Y46946288D01*
X50472930Y47027070D01*
X50553712Y47081046D01*
X50649000Y47100000D01*
X51273042Y47100000D01*
X51331881Y47168243D01*
X51418652Y47211945D01*
X51429140Y47214593D01*
X51429249Y47214632D01*
X51429255Y47214632D01*
X51599522Y47274211D01*
X51599527Y47274215D01*
X51599529Y47274215D01*
X51739137Y47361937D01*
X51752262Y47370184D01*
X51879816Y47497738D01*
X51942473Y47597456D01*
X51975785Y47650471D01*
X51975785Y47650473D01*
X51975789Y47650478D01*
X52035368Y47820745D01*
X52049931Y47949997D01*
X52055565Y47999997D01*
X52055565Y48000004D01*
X52035369Y48179246D01*
X52035368Y48179255D01*
X52029791Y48195194D01*
X52013973Y48240400D01*
X52000000Y48322638D01*
X52000000Y48751000D01*
X52018954Y48846288D01*
X52072930Y48927070D01*
X52153712Y48981046D01*
X52249000Y49000000D01*
X54875500Y49000000D01*
X54970788Y48981046D01*
G37*
%TD.AperFunction*%
%TA.AperFunction,Conductor*%
G36*
X2708264Y54230546D02*
G01*
X2789046Y54176570D01*
X2843022Y54095788D01*
X2861976Y54000500D01*
X2843022Y53905212D01*
X2789046Y53824430D01*
X2757065Y53797425D01*
X2532855Y53638340D01*
X2464129Y53576925D01*
X3425095Y52615959D01*
X3314207Y52530870D01*
X3156630Y52373293D01*
X3071541Y52262405D01*
X2110574Y53223372D01*
X2006485Y53220450D01*
X1910703Y53236723D01*
X1828439Y53288412D01*
X1772218Y53367648D01*
X1750598Y53462367D01*
X1750500Y53469352D01*
X1750500Y53482440D01*
X1769454Y53577728D01*
X1823430Y53658510D01*
X2341490Y54176570D01*
X2422272Y54230546D01*
X2517560Y54249500D01*
X2612976Y54249500D01*
X2708264Y54230546D01*
G37*
%TD.AperFunction*%
%TD*%
M02*
