%TF.GenerationSoftware,KiCad,Pcbnew,8.0.6*%
%TF.CreationDate,2024-10-30T09:11:15+07:00*%
%TF.ProjectId,NO2C,4e4f3243-2e6b-4696-9361-645f70636258,vD1*%
%TF.SameCoordinates,Original*%
%TF.FileFunction,Paste,Top*%
%TF.FilePolarity,Positive*%
%FSLAX46Y46*%
G04 Gerber Fmt 4.6, Leading zero omitted, Abs format (unit mm)*
G04 Created by KiCad (PCBNEW 8.0.6) date 2024-10-30 09:11:15*
%MOMM*%
%LPD*%
G01*
G04 APERTURE LIST*
G04 Aperture macros list*
%AMRoundRect*
0 Rectangle with rounded corners*
0 $1 Rounding radius*
0 $2 $3 $4 $5 $6 $7 $8 $9 X,Y pos of 4 corners*
0 Add a 4 corners polygon primitive as box body*
4,1,4,$2,$3,$4,$5,$6,$7,$8,$9,$2,$3,0*
0 Add four circle primitives for the rounded corners*
1,1,$1+$1,$2,$3*
1,1,$1+$1,$4,$5*
1,1,$1+$1,$6,$7*
1,1,$1+$1,$8,$9*
0 Add four rect primitives between the rounded corners*
20,1,$1+$1,$2,$3,$4,$5,0*
20,1,$1+$1,$4,$5,$6,$7,0*
20,1,$1+$1,$6,$7,$8,$9,0*
20,1,$1+$1,$8,$9,$2,$3,0*%
G04 Aperture macros list end*
%ADD10RoundRect,0.200000X0.275000X-0.200000X0.275000X0.200000X-0.275000X0.200000X-0.275000X-0.200000X0*%
%ADD11RoundRect,0.200000X-0.275000X0.200000X-0.275000X-0.200000X0.275000X-0.200000X0.275000X0.200000X0*%
%ADD12RoundRect,0.225000X-0.250000X0.225000X-0.250000X-0.225000X0.250000X-0.225000X0.250000X0.225000X0*%
%ADD13RoundRect,0.225000X0.225000X0.250000X-0.225000X0.250000X-0.225000X-0.250000X0.225000X-0.250000X0*%
%ADD14RoundRect,0.225000X-0.225000X-0.250000X0.225000X-0.250000X0.225000X0.250000X-0.225000X0.250000X0*%
%ADD15RoundRect,0.225000X0.250000X-0.225000X0.250000X0.225000X-0.250000X0.225000X-0.250000X-0.225000X0*%
%ADD16RoundRect,0.250000X0.550000X-1.500000X0.550000X1.500000X-0.550000X1.500000X-0.550000X-1.500000X0*%
%ADD17RoundRect,0.150000X-0.150000X0.587500X-0.150000X-0.587500X0.150000X-0.587500X0.150000X0.587500X0*%
%ADD18RoundRect,0.250000X1.000000X0.650000X-1.000000X0.650000X-1.000000X-0.650000X1.000000X-0.650000X0*%
%ADD19RoundRect,0.243750X0.456250X-0.243750X0.456250X0.243750X-0.456250X0.243750X-0.456250X-0.243750X0*%
%ADD20RoundRect,0.243750X-0.456250X0.243750X-0.456250X-0.243750X0.456250X-0.243750X0.456250X0.243750X0*%
%ADD21RoundRect,0.243750X0.243750X0.456250X-0.243750X0.456250X-0.243750X-0.456250X0.243750X-0.456250X0*%
%ADD22RoundRect,0.375000X0.625000X0.375000X-0.625000X0.375000X-0.625000X-0.375000X0.625000X-0.375000X0*%
%ADD23RoundRect,0.500000X0.500000X1.400000X-0.500000X1.400000X-0.500000X-1.400000X0.500000X-1.400000X0*%
%ADD24RoundRect,0.375000X-0.375000X0.625000X-0.375000X-0.625000X0.375000X-0.625000X0.375000X0.625000X0*%
%ADD25RoundRect,0.500000X-1.400000X0.500000X-1.400000X-0.500000X1.400000X-0.500000X1.400000X0.500000X0*%
%ADD26RoundRect,0.250000X0.350000X-0.850000X0.350000X0.850000X-0.350000X0.850000X-0.350000X-0.850000X0*%
%ADD27RoundRect,0.250000X1.125000X-1.275000X1.125000X1.275000X-1.125000X1.275000X-1.125000X-1.275000X0*%
%ADD28RoundRect,0.200000X-0.200000X-0.275000X0.200000X-0.275000X0.200000X0.275000X-0.200000X0.275000X0*%
%ADD29RoundRect,0.200000X0.200000X0.275000X-0.200000X0.275000X-0.200000X-0.275000X0.200000X-0.275000X0*%
%ADD30RoundRect,0.150000X0.587500X0.150000X-0.587500X0.150000X-0.587500X-0.150000X0.587500X-0.150000X0*%
%ADD31RoundRect,0.250000X-0.650000X1.000000X-0.650000X-1.000000X0.650000X-1.000000X0.650000X1.000000X0*%
%ADD32R,0.650000X1.525000*%
%ADD33RoundRect,0.150000X-0.587500X-0.150000X0.587500X-0.150000X0.587500X0.150000X-0.587500X0.150000X0*%
%ADD34R,1.550000X0.435000*%
%ADD35R,1.550000X1.300000*%
%ADD36RoundRect,0.225000X0.225000X0.375000X-0.225000X0.375000X-0.225000X-0.375000X0.225000X-0.375000X0*%
%ADD37RoundRect,0.150000X-0.150000X0.800000X-0.150000X-0.800000X0.150000X-0.800000X0.150000X0.800000X0*%
%ADD38RoundRect,0.250000X0.375000X0.625000X-0.375000X0.625000X-0.375000X-0.625000X0.375000X-0.625000X0*%
%ADD39RoundRect,0.075000X-0.075000X0.725000X-0.075000X-0.725000X0.075000X-0.725000X0.075000X0.725000X0*%
%ADD40RoundRect,0.075000X-0.725000X0.075000X-0.725000X-0.075000X0.725000X-0.075000X0.725000X0.075000X0*%
%ADD41RoundRect,0.225000X-0.375000X0.225000X-0.375000X-0.225000X0.375000X-0.225000X0.375000X0.225000X0*%
%ADD42RoundRect,0.225000X-0.225000X-0.375000X0.225000X-0.375000X0.225000X0.375000X-0.225000X0.375000X0*%
%ADD43R,4.500000X2.000000*%
%ADD44R,1.000000X1.800000*%
%ADD45RoundRect,0.150000X0.425000X-0.150000X0.425000X0.150000X-0.425000X0.150000X-0.425000X-0.150000X0*%
%ADD46RoundRect,0.075000X0.500000X-0.075000X0.500000X0.075000X-0.500000X0.075000X-0.500000X-0.075000X0*%
%ADD47O,2.100000X1.000000*%
%ADD48O,1.800000X1.000000*%
%ADD49RoundRect,0.375000X0.375000X-0.625000X0.375000X0.625000X-0.375000X0.625000X-0.375000X-0.625000X0*%
%ADD50RoundRect,0.500000X1.400000X-0.500000X1.400000X0.500000X-1.400000X0.500000X-1.400000X-0.500000X0*%
%ADD51RoundRect,0.250000X0.650000X-1.000000X0.650000X1.000000X-0.650000X1.000000X-0.650000X-1.000000X0*%
%ADD52R,0.690000X1.350000*%
%ADD53RoundRect,0.250000X1.000000X0.900000X-1.000000X0.900000X-1.000000X-0.900000X1.000000X-0.900000X0*%
G04 APERTURE END LIST*
D10*
%TO.C,R74*%
X57250000Y43425000D03*
X57250000Y45075000D03*
%TD*%
%TO.C,R64*%
X55750000Y43425000D03*
X55750000Y45075000D03*
%TD*%
D11*
%TO.C,R63*%
X57250000Y48825000D03*
X57250000Y47175000D03*
%TD*%
D10*
%TO.C,R62*%
X55750000Y47175000D03*
X55750000Y48825000D03*
%TD*%
D12*
%TO.C,C9*%
X29250000Y35250000D03*
X29250000Y33700000D03*
%TD*%
D13*
%TO.C,C12*%
X82025000Y43500000D03*
X80475000Y43500000D03*
%TD*%
D14*
%TO.C,C13*%
X58425000Y41250000D03*
X59975000Y41250000D03*
%TD*%
D13*
%TO.C,C2*%
X27050000Y41250000D03*
X25500000Y41250000D03*
%TD*%
D15*
%TO.C,C3*%
X52000000Y37225000D03*
X52000000Y38775000D03*
%TD*%
D13*
%TO.C,C19*%
X37850000Y44250000D03*
X36300000Y44250000D03*
%TD*%
D14*
%TO.C,C15*%
X57975000Y30250000D03*
X59525000Y30250000D03*
%TD*%
D15*
%TO.C,C16*%
X59250000Y45975000D03*
X59250000Y47525000D03*
%TD*%
D16*
%TO.C,C5*%
X31750000Y56050000D03*
X31750000Y61450000D03*
%TD*%
D15*
%TO.C,C14*%
X57000000Y60975000D03*
X57000000Y62525000D03*
%TD*%
%TO.C,C11*%
X38250000Y7950000D03*
X38250000Y9500000D03*
%TD*%
D17*
%TO.C,D2*%
X49700000Y20437500D03*
X47800000Y20437500D03*
X48750000Y18562500D03*
%TD*%
D18*
%TO.C,D3*%
X21750000Y50000000D03*
X17750000Y50000000D03*
%TD*%
D19*
%TO.C,LED1*%
X24750000Y28282500D03*
X24750000Y30157500D03*
%TD*%
D20*
%TO.C,LED3*%
X24750000Y23187500D03*
X24750000Y21312500D03*
%TD*%
D21*
%TO.C,LED2*%
X51937500Y40750000D03*
X50062500Y40750000D03*
%TD*%
D20*
%TO.C,LED4*%
X54000000Y42187500D03*
X54000000Y40312500D03*
%TD*%
D22*
%TO.C,Q1*%
X37150000Y26950000D03*
X37150000Y29250000D03*
D23*
X30850000Y29250000D03*
D22*
X37150000Y31550000D03*
%TD*%
%TO.C,Q2*%
X37150000Y19950000D03*
X37150000Y22250000D03*
D23*
X30850000Y22250000D03*
D22*
X37150000Y24550000D03*
%TD*%
D24*
%TO.C,Q5*%
X57700000Y12400000D03*
X55400000Y12400000D03*
D25*
X55400000Y6100000D03*
D24*
X53100000Y12400000D03*
%TD*%
%TO.C,Q6*%
X64925000Y12400000D03*
X62625000Y12400000D03*
D25*
X62625000Y6100000D03*
D24*
X60325000Y12400000D03*
%TD*%
%TO.C,Q3*%
X71950000Y12400000D03*
X69650000Y12400000D03*
D25*
X69650000Y6100000D03*
D24*
X67350000Y12400000D03*
%TD*%
%TO.C,Q4*%
X79300000Y12400000D03*
X77000000Y12400000D03*
D25*
X77000000Y6100000D03*
D24*
X74700000Y12400000D03*
%TD*%
D26*
%TO.C,U1*%
X21970000Y53710000D03*
D27*
X22725000Y58335000D03*
X25775000Y58335000D03*
X22725000Y61685000D03*
X25775000Y61685000D03*
D26*
X26530000Y53710000D03*
%TD*%
D16*
%TO.C,C4*%
X16750000Y56050000D03*
X16750000Y61450000D03*
%TD*%
D11*
%TO.C,R7*%
X39500000Y28325000D03*
X39500000Y26675000D03*
%TD*%
%TO.C,R9*%
X24750000Y35300000D03*
X24750000Y33650000D03*
%TD*%
D28*
%TO.C,R10*%
X36250000Y47250000D03*
X37900000Y47250000D03*
%TD*%
D10*
%TO.C,R6*%
X54000000Y37175000D03*
X54000000Y38825000D03*
%TD*%
%TO.C,R3*%
X48750000Y37175000D03*
X48750000Y38825000D03*
%TD*%
%TO.C,R2*%
X50250000Y37175000D03*
X50250000Y38825000D03*
%TD*%
D29*
%TO.C,R8*%
X82325000Y37250000D03*
X80675000Y37250000D03*
%TD*%
%TO.C,R11*%
X37900000Y45725000D03*
X36250000Y45725000D03*
%TD*%
D13*
%TO.C,C1*%
X27050000Y42750000D03*
X25500000Y42750000D03*
%TD*%
D11*
%TO.C,R1*%
X23000000Y30075000D03*
X23000000Y28425000D03*
%TD*%
%TO.C,R4*%
X28525000Y42825000D03*
X28525000Y41175000D03*
%TD*%
D29*
%TO.C,R12*%
X50075000Y48000000D03*
X48425000Y48000000D03*
%TD*%
D11*
%TO.C,R13*%
X54250000Y46075000D03*
X54250000Y44425000D03*
%TD*%
D30*
%TO.C,Q7*%
X50687500Y44550000D03*
X50687500Y46450000D03*
X48812500Y45500000D03*
%TD*%
D14*
%TO.C,C22*%
X57975000Y28750000D03*
X59525000Y28750000D03*
%TD*%
D11*
%TO.C,R14*%
X50000000Y27075000D03*
X50000000Y25425000D03*
%TD*%
D15*
%TO.C,C8*%
X26250000Y33700000D03*
X26250000Y35250000D03*
%TD*%
D13*
%TO.C,C21*%
X82025000Y45500000D03*
X80475000Y45500000D03*
%TD*%
%TO.C,C20*%
X37850000Y42750000D03*
X36300000Y42750000D03*
%TD*%
D10*
%TO.C,R5*%
X39500000Y29675000D03*
X39500000Y31325000D03*
%TD*%
D31*
%TO.C,D1*%
X27500000Y31220000D03*
X27500000Y27220000D03*
%TD*%
D32*
%TO.C,IC1*%
X50095000Y29038000D03*
X51365000Y29038000D03*
X52635000Y29038000D03*
X53905000Y29038000D03*
X53905000Y34462000D03*
X52635000Y34462000D03*
X51365000Y34462000D03*
X50095000Y34462000D03*
%TD*%
D30*
%TO.C,D6*%
X32212500Y41050000D03*
X32212500Y42950000D03*
X30337500Y42000000D03*
%TD*%
D33*
%TO.C,D5*%
X57625000Y27200000D03*
X57625000Y25300000D03*
X59500000Y26250000D03*
%TD*%
D10*
%TO.C,R15*%
X61375000Y25575000D03*
X61375000Y27225000D03*
%TD*%
D15*
%TO.C,C18*%
X45633000Y49955000D03*
X45633000Y51505000D03*
%TD*%
%TO.C,C17*%
X44000000Y49975000D03*
X44000000Y51525000D03*
%TD*%
D14*
%TO.C,C28*%
X57975000Y31750000D03*
X59525000Y31750000D03*
%TD*%
D28*
%TO.C,R34*%
X47925000Y11250000D03*
X49575000Y11250000D03*
%TD*%
D30*
%TO.C,D8*%
X32937500Y37300000D03*
X32937500Y39200000D03*
X31062500Y38250000D03*
%TD*%
D33*
%TO.C,D17*%
X57812500Y52950000D03*
X57812500Y51050000D03*
X59687500Y52000000D03*
%TD*%
D17*
%TO.C,D20*%
X87950000Y22437500D03*
X86050000Y22437500D03*
X87000000Y20562500D03*
%TD*%
D14*
%TO.C,C31*%
X76475000Y48250000D03*
X78025000Y48250000D03*
%TD*%
D10*
%TO.C,R33*%
X41000000Y21425000D03*
X41000000Y23075000D03*
%TD*%
D34*
%TO.C,U3*%
X45950000Y4576000D03*
X45950000Y5210000D03*
X45950000Y5846000D03*
X45950000Y6480000D03*
X45950000Y7116000D03*
X45950000Y7750000D03*
X45950000Y8386000D03*
X45950000Y9020000D03*
X40500000Y9020000D03*
X40500000Y8386000D03*
X40500000Y7750000D03*
X40500000Y7116000D03*
X40500000Y6480000D03*
X40500000Y5846000D03*
X40500000Y5210000D03*
X40500000Y4576000D03*
%TD*%
D30*
%TO.C,D18*%
X43187500Y42550000D03*
X43187500Y44450000D03*
X41312500Y43500000D03*
%TD*%
D11*
%TO.C,R19*%
X51500000Y27075000D03*
X51500000Y25425000D03*
%TD*%
D28*
%TO.C,R21*%
X42425000Y16750000D03*
X44075000Y16750000D03*
%TD*%
D15*
%TO.C,C39*%
X85500000Y36975000D03*
X85500000Y38525000D03*
%TD*%
D29*
%TO.C,R42*%
X79075000Y16750000D03*
X77425000Y16750000D03*
%TD*%
%TO.C,R44*%
X57575000Y16750000D03*
X55925000Y16750000D03*
%TD*%
D11*
%TO.C,R66*%
X56500000Y30325000D03*
X56500000Y28675000D03*
%TD*%
D17*
%TO.C,D14*%
X46200000Y20437500D03*
X44300000Y20437500D03*
X45250000Y18562500D03*
%TD*%
D35*
%TO.C,SW1*%
X71475000Y58000000D03*
X63525000Y58000000D03*
X71475000Y62500000D03*
X63525000Y62500000D03*
%TD*%
D36*
%TO.C,D9*%
X72150000Y2750000D03*
X68850000Y2750000D03*
%TD*%
D28*
%TO.C,R59*%
X58675000Y56250000D03*
X60325000Y56250000D03*
%TD*%
D17*
%TO.C,D21*%
X84200000Y22437500D03*
X82300000Y22437500D03*
X83250000Y20562500D03*
%TD*%
D15*
%TO.C,C42*%
X43740000Y60725000D03*
X43740000Y62275000D03*
%TD*%
D37*
%TO.C,U5*%
X87155000Y18000000D03*
X85885000Y18000000D03*
X84615000Y18000000D03*
X83345000Y18000000D03*
X83345000Y11000000D03*
X84615000Y11000000D03*
X85885000Y11000000D03*
X87155000Y11000000D03*
%TD*%
D10*
%TO.C,R39*%
X65250000Y45675000D03*
X65250000Y47325000D03*
%TD*%
%TO.C,R36*%
X27750000Y33650000D03*
X27750000Y35300000D03*
%TD*%
D13*
%TO.C,C40*%
X41025000Y51750000D03*
X39475000Y51750000D03*
%TD*%
D36*
%TO.C,D12*%
X57150000Y2750000D03*
X53850000Y2750000D03*
%TD*%
D10*
%TO.C,R38*%
X60750000Y45675000D03*
X60750000Y47325000D03*
%TD*%
D38*
%TO.C,F1*%
X14650000Y50500000D03*
X11850000Y50500000D03*
%TD*%
D12*
%TO.C,C25*%
X62250000Y47275000D03*
X62250000Y45725000D03*
%TD*%
D28*
%TO.C,R73*%
X82925000Y40250000D03*
X84575000Y40250000D03*
%TD*%
D12*
%TO.C,C10*%
X38250000Y5750000D03*
X38250000Y4200000D03*
%TD*%
D13*
%TO.C,C32*%
X24775000Y46500000D03*
X23225000Y46500000D03*
%TD*%
D11*
%TO.C,R51*%
X39490000Y44325000D03*
X39490000Y42675000D03*
%TD*%
D28*
%TO.C,R20*%
X47925000Y16750000D03*
X49575000Y16750000D03*
%TD*%
D20*
%TO.C,LED6*%
X8000000Y62687500D03*
X8000000Y60812500D03*
%TD*%
D12*
%TO.C,C7*%
X29250000Y39025000D03*
X29250000Y37475000D03*
%TD*%
D28*
%TO.C,R70*%
X84425000Y8750000D03*
X86075000Y8750000D03*
%TD*%
D39*
%TO.C,U2*%
X76675000Y42425000D03*
X76175000Y42425000D03*
X75675000Y42425000D03*
X75175000Y42425000D03*
X74675000Y42425000D03*
X74175000Y42425000D03*
X73675000Y42425000D03*
X73175000Y42425000D03*
X72675000Y42425000D03*
X72175000Y42425000D03*
X71675000Y42425000D03*
X71175000Y42425000D03*
X70675000Y42425000D03*
X70175000Y42425000D03*
X69675000Y42425000D03*
X69175000Y42425000D03*
X68675000Y42425000D03*
X68175000Y42425000D03*
X67675000Y42425000D03*
X67175000Y42425000D03*
X66675000Y42425000D03*
X66175000Y42425000D03*
X65675000Y42425000D03*
X65175000Y42425000D03*
X64675000Y42425000D03*
D40*
X63000000Y40750000D03*
X63000000Y40250000D03*
X63000000Y39750000D03*
X63000000Y39250000D03*
X63000000Y38750000D03*
X63000000Y38250000D03*
X63000000Y37750000D03*
X63000000Y37250000D03*
X63000000Y36750000D03*
X63000000Y36250000D03*
X63000000Y35750000D03*
X63000000Y35250000D03*
X63000000Y34750000D03*
X63000000Y34250000D03*
X63000000Y33750000D03*
X63000000Y33250000D03*
X63000000Y32750000D03*
X63000000Y32250000D03*
X63000000Y31750000D03*
X63000000Y31250000D03*
X63000000Y30750000D03*
X63000000Y30250000D03*
X63000000Y29750000D03*
X63000000Y29250000D03*
X63000000Y28750000D03*
D39*
X64675000Y27075000D03*
X65175000Y27075000D03*
X65675000Y27075000D03*
X66175000Y27075000D03*
X66675000Y27075000D03*
X67175000Y27075000D03*
X67675000Y27075000D03*
X68175000Y27075000D03*
X68675000Y27075000D03*
X69175000Y27075000D03*
X69675000Y27075000D03*
X70175000Y27075000D03*
X70675000Y27075000D03*
X71175000Y27075000D03*
X71675000Y27075000D03*
X72175000Y27075000D03*
X72675000Y27075000D03*
X73175000Y27075000D03*
X73675000Y27075000D03*
X74175000Y27075000D03*
X74675000Y27075000D03*
X75175000Y27075000D03*
X75675000Y27075000D03*
X76175000Y27075000D03*
X76675000Y27075000D03*
D40*
X78350000Y28750000D03*
X78350000Y29250000D03*
X78350000Y29750000D03*
X78350000Y30250000D03*
X78350000Y30750000D03*
X78350000Y31250000D03*
X78350000Y31750000D03*
X78350000Y32250000D03*
X78350000Y32750000D03*
X78350000Y33250000D03*
X78350000Y33750000D03*
X78350000Y34250000D03*
X78350000Y34750000D03*
X78350000Y35250000D03*
X78350000Y35750000D03*
X78350000Y36250000D03*
X78350000Y36750000D03*
X78350000Y37250000D03*
X78350000Y37750000D03*
X78350000Y38250000D03*
X78350000Y38750000D03*
X78350000Y39250000D03*
X78350000Y39750000D03*
X78350000Y40250000D03*
X78350000Y40750000D03*
%TD*%
D10*
%TO.C,R29*%
X55750000Y37175000D03*
X55750000Y38825000D03*
%TD*%
D41*
%TO.C,D4*%
X87750000Y40400000D03*
X87750000Y37100000D03*
%TD*%
D29*
%TO.C,R52*%
X72075000Y15250000D03*
X70425000Y15250000D03*
%TD*%
%TO.C,R37*%
X72075000Y16750000D03*
X70425000Y16750000D03*
%TD*%
D10*
%TO.C,R57*%
X29250000Y44950000D03*
X29250000Y46600000D03*
%TD*%
%TO.C,R31*%
X39500000Y21425000D03*
X39500000Y23075000D03*
%TD*%
D29*
%TO.C,R72*%
X82325000Y32000000D03*
X80675000Y32000000D03*
%TD*%
D10*
%TO.C,R27*%
X23000000Y21425000D03*
X23000000Y23075000D03*
%TD*%
D15*
%TO.C,C34*%
X58500000Y60975000D03*
X58500000Y62525000D03*
%TD*%
D30*
%TO.C,D13*%
X32937500Y44800000D03*
X32937500Y46700000D03*
X31062500Y45750000D03*
%TD*%
D15*
%TO.C,C6*%
X24750000Y37475000D03*
X24750000Y39025000D03*
%TD*%
D28*
%TO.C,R48*%
X35175000Y9475000D03*
X36825000Y9475000D03*
%TD*%
D13*
%TO.C,C27*%
X67025000Y55500000D03*
X65475000Y55500000D03*
%TD*%
%TO.C,C35*%
X60162500Y57925000D03*
X58612500Y57925000D03*
%TD*%
D30*
%TO.C,D10*%
X32937500Y33550000D03*
X32937500Y35450000D03*
X31062500Y34500000D03*
%TD*%
D14*
%TO.C,C26*%
X70975000Y55500000D03*
X72525000Y55500000D03*
%TD*%
D10*
%TO.C,R30*%
X27750000Y37425000D03*
X27750000Y39075000D03*
%TD*%
D29*
%TO.C,R61*%
X65075000Y15250000D03*
X63425000Y15250000D03*
%TD*%
D28*
%TO.C,R46*%
X35175000Y4250000D03*
X36825000Y4250000D03*
%TD*%
D10*
%TO.C,R55*%
X27750000Y44950000D03*
X27750000Y46600000D03*
%TD*%
%TO.C,R41*%
X74500000Y22025000D03*
X74500000Y23675000D03*
%TD*%
%TO.C,R16*%
X61750000Y61175000D03*
X61750000Y62825000D03*
%TD*%
D11*
%TO.C,R32*%
X54000000Y27075000D03*
X54000000Y25425000D03*
%TD*%
D42*
%TO.C,D11*%
X75600000Y2750000D03*
X78900000Y2750000D03*
%TD*%
D13*
%TO.C,C30*%
X75025000Y48250000D03*
X73475000Y48250000D03*
%TD*%
D29*
%TO.C,R53*%
X79075000Y15250000D03*
X77425000Y15250000D03*
%TD*%
D11*
%TO.C,R45*%
X57000000Y59325000D03*
X57000000Y57675000D03*
%TD*%
%TO.C,R28*%
X55500000Y27075000D03*
X55500000Y25425000D03*
%TD*%
D29*
%TO.C,R23*%
X33825000Y2250000D03*
X32175000Y2250000D03*
%TD*%
D13*
%TO.C,C41*%
X41025000Y53250000D03*
X39475000Y53250000D03*
%TD*%
D20*
%TO.C,LED5*%
X10500000Y62687500D03*
X10500000Y60812500D03*
%TD*%
D29*
%TO.C,R35*%
X44825000Y11250000D03*
X43175000Y11250000D03*
%TD*%
D28*
%TO.C,R25*%
X42400000Y15250000D03*
X44050000Y15250000D03*
%TD*%
D15*
%TO.C,C23*%
X77500000Y22075000D03*
X77500000Y23625000D03*
%TD*%
D28*
%TO.C,R49*%
X35175000Y7975000D03*
X36825000Y7975000D03*
%TD*%
D29*
%TO.C,R50*%
X65075000Y16750000D03*
X63425000Y16750000D03*
%TD*%
D28*
%TO.C,R47*%
X35175000Y5725000D03*
X36825000Y5725000D03*
%TD*%
D11*
%TO.C,R22*%
X26250000Y39075000D03*
X26250000Y37425000D03*
%TD*%
D43*
%TO.C,Y1*%
X73475000Y51750000D03*
X64975000Y51750000D03*
%TD*%
D44*
%TO.C,Y2*%
X74500000Y46250000D03*
X77000000Y46250000D03*
%TD*%
D12*
%TO.C,C24*%
X63750000Y47275000D03*
X63750000Y45725000D03*
%TD*%
D29*
%TO.C,R40*%
X70050000Y48250000D03*
X68400000Y48250000D03*
%TD*%
D28*
%TO.C,R60*%
X58675000Y54625000D03*
X60325000Y54625000D03*
%TD*%
D10*
%TO.C,R65*%
X52687500Y44425000D03*
X52687500Y46075000D03*
%TD*%
D11*
%TO.C,R17*%
X10500000Y59325000D03*
X10500000Y57675000D03*
%TD*%
D28*
%TO.C,R24*%
X47925000Y15250000D03*
X49575000Y15250000D03*
%TD*%
D45*
%TO.C,J2*%
X84320000Y26440000D03*
X84320000Y27240000D03*
D46*
X84320000Y28390000D03*
X84320000Y29390000D03*
X84320000Y29890000D03*
X84320000Y30890000D03*
D45*
X84320000Y32040000D03*
X84320000Y32840000D03*
X84320000Y32840000D03*
X84320000Y32040000D03*
D46*
X84320000Y31390000D03*
X84320000Y30390000D03*
X84320000Y28890000D03*
X84320000Y27890000D03*
D45*
X84320000Y27240000D03*
X84320000Y26440000D03*
D47*
X84895000Y25320000D03*
D48*
X89075000Y25320000D03*
D47*
X84895000Y33960000D03*
D48*
X89075000Y33960000D03*
%TD*%
D49*
%TO.C,U6*%
X36950000Y55350000D03*
X39250000Y55350000D03*
D50*
X39250000Y61650000D03*
D49*
X41550000Y55350000D03*
%TD*%
D51*
%TO.C,D15*%
X27500000Y20250000D03*
X27500000Y24250000D03*
%TD*%
D29*
%TO.C,R56*%
X57575000Y15250000D03*
X55925000Y15250000D03*
%TD*%
D15*
%TO.C,C29*%
X76000000Y22075000D03*
X76000000Y23625000D03*
%TD*%
D11*
%TO.C,R43*%
X80000000Y27075000D03*
X80000000Y25425000D03*
%TD*%
%TO.C,R54*%
X26250000Y46600000D03*
X26250000Y44950000D03*
%TD*%
D29*
%TO.C,R26*%
X33825000Y11250000D03*
X32175000Y11250000D03*
%TD*%
D11*
%TO.C,R71*%
X81500000Y27075000D03*
X81500000Y25425000D03*
%TD*%
D42*
%TO.C,D16*%
X61100000Y2750000D03*
X64400000Y2750000D03*
%TD*%
D15*
%TO.C,C44*%
X81000000Y16950000D03*
X81000000Y18500000D03*
%TD*%
D13*
%TO.C,C33*%
X24775000Y45000000D03*
X23225000Y45000000D03*
%TD*%
D28*
%TO.C,R58*%
X58562500Y59425000D03*
X60212500Y59425000D03*
%TD*%
D15*
%TO.C,C43*%
X45250000Y60725000D03*
X45250000Y62275000D03*
%TD*%
D52*
%TO.C,IC2*%
X49345000Y52335000D03*
X50615000Y52335000D03*
X51885000Y52335000D03*
X53155000Y52335000D03*
X53155000Y62165000D03*
X51885000Y62165000D03*
X50615000Y62165000D03*
X49345000Y62165000D03*
%TD*%
D10*
%TO.C,R18*%
X8000000Y57675000D03*
X8000000Y59325000D03*
%TD*%
D28*
%TO.C,R69*%
X82925000Y41750000D03*
X84575000Y41750000D03*
%TD*%
D53*
%TO.C,D7*%
X29400000Y50000000D03*
X25100000Y50000000D03*
%TD*%
M02*
