%TF.GenerationSoftware,KiCad,Pcbnew,8.0.6*%
%TF.CreationDate,2024-10-30T20:12:06+07:00*%
%TF.ProjectId,NO2C,4e4f3243-2e6b-4696-9361-645f70636258,vD1*%
%TF.SameCoordinates,Original*%
%TF.FileFunction,Copper,L3,Inr*%
%TF.FilePolarity,Positive*%
%FSLAX46Y46*%
G04 Gerber Fmt 4.6, Leading zero omitted, Abs format (unit mm)*
G04 Created by KiCad (PCBNEW 8.0.6) date 2024-10-30 20:12:06*
%MOMM*%
%LPD*%
G01*
G04 APERTURE LIST*
%TA.AperFunction,ComponentPad*%
%ADD10O,1.600000X1.600000*%
%TD*%
%TA.AperFunction,ComponentPad*%
%ADD11R,1.600000X1.600000*%
%TD*%
%TA.AperFunction,ComponentPad*%
%ADD12C,2.250000*%
%TD*%
%TA.AperFunction,ComponentPad*%
%ADD13C,5.100000*%
%TD*%
%TA.AperFunction,ComponentPad*%
%ADD14R,1.700000X1.700000*%
%TD*%
%TA.AperFunction,ComponentPad*%
%ADD15O,1.700000X1.700000*%
%TD*%
%TA.AperFunction,ComponentPad*%
%ADD16C,0.800000*%
%TD*%
%TA.AperFunction,ComponentPad*%
%ADD17C,6.400000*%
%TD*%
%TA.AperFunction,ComponentPad*%
%ADD18O,2.100000X1.000000*%
%TD*%
%TA.AperFunction,ComponentPad*%
%ADD19O,1.800000X1.000000*%
%TD*%
%TA.AperFunction,ViaPad*%
%ADD20C,0.800000*%
%TD*%
%TA.AperFunction,Conductor*%
%ADD21C,1.000000*%
%TD*%
%TA.AperFunction,Conductor*%
%ADD22C,0.500000*%
%TD*%
%TA.AperFunction,Conductor*%
%ADD23C,0.250000*%
%TD*%
%TA.AperFunction,Conductor*%
%ADD24C,0.300000*%
%TD*%
G04 APERTURE END LIST*
D10*
%TO.N,/ENBL*%
%TO.C,IC4*%
X11150000Y1902000D03*
%TO.N,unconnected-(IC4-P2-Pad2)*%
X13690000Y1902000D03*
%TO.N,unconnected-(IC4-P3-Pad3)*%
X16230000Y1902000D03*
%TO.N,unconnected-(IC4-P4-Pad4)*%
X18770000Y1902000D03*
%TO.N,+5V*%
X21310000Y1902000D03*
X23850000Y1902000D03*
%TO.N,/STEP*%
X26390000Y1902000D03*
%TO.N,/DIR*%
X28930000Y1902000D03*
D11*
%TO.N,GND*%
X28930000Y14602000D03*
D10*
%TO.N,unconnected-(IC4-P10-Pad10)*%
X26390000Y14602000D03*
%TO.N,/STP-A2*%
X23850000Y14602000D03*
%TO.N,/STP-A1*%
X21310000Y14602000D03*
%TO.N,/STP-B1*%
X18770000Y14602000D03*
%TO.N,/STP-B2*%
X16230000Y14602000D03*
D11*
%TO.N,Earth*%
X13690000Y14602000D03*
D10*
%TO.N,+12V*%
X11150000Y14602000D03*
%TD*%
D12*
%TO.N,+BATT*%
%TO.C,J1*%
X10937500Y44000000D03*
%TO.N,VR1+*%
X10937500Y41000000D03*
%TO.N,/VR1-*%
X10937500Y38000000D03*
%TO.N,/IGN1*%
X10937500Y35000000D03*
%TO.N,/IGN2*%
X10937500Y32000000D03*
%TO.N,/STP-A1*%
X10937500Y29000000D03*
%TO.N,/STP-A2*%
X10937500Y26000000D03*
%TO.N,/STP-B2*%
X10937500Y23000000D03*
%TO.N,/STP-B1*%
X10937500Y20000000D03*
%TO.N,+5V*%
X13437500Y42500000D03*
%TO.N,GND*%
X13437500Y39500000D03*
%TO.N,/VR2-*%
X13437500Y36500000D03*
%TO.N,VR2+*%
X13437500Y33500000D03*
%TO.N,/TACHO*%
X13437500Y30500000D03*
%TO.N,Net-(J1-Pad15)*%
X13437500Y27500000D03*
%TO.N,Net-(J1-Pad16)*%
X13437500Y24500000D03*
%TO.N,/IDLE*%
X13437500Y21500000D03*
%TO.N,GND*%
X16437500Y42500000D03*
%TO.N,/LAUNCH*%
X16437500Y39500000D03*
%TO.N,GND*%
X16437500Y36500000D03*
X16437500Y33500000D03*
%TO.N,/SWCLK*%
X16437500Y30500000D03*
%TO.N,/SWDIO*%
X16437500Y27500000D03*
%TO.N,CANH*%
X16437500Y24500000D03*
%TO.N,CANL*%
X16437500Y21500000D03*
%TO.N,/O2*%
X18937500Y44000000D03*
%TO.N,/TPS*%
X18937500Y41000000D03*
%TO.N,/CLT*%
X18937500Y38000000D03*
%TO.N,/IAT*%
X18937500Y35000000D03*
%TO.N,/INJ1*%
X18937500Y32000000D03*
%TO.N,/INJ2*%
X18937500Y29000000D03*
%TO.N,/VVT*%
X18937500Y26000000D03*
%TO.N,/BOOST*%
X18937500Y23000000D03*
%TO.N,/FUELP*%
X18937500Y20000000D03*
D13*
%TO.N,GND*%
X4437500Y51250000D03*
X4437500Y12750000D03*
%TD*%
D14*
%TO.N,+3.3V*%
%TO.C,P1*%
X88250000Y47150000D03*
D15*
%TO.N,/SWDIO*%
X88250000Y49690000D03*
%TO.N,/SWCLK*%
X88250000Y52230000D03*
%TO.N,GND*%
X88250000Y54770000D03*
%TD*%
D16*
%TO.N,N/C*%
%TO.C,REF\u002A\u002A*%
X85100000Y3500000D03*
X85802944Y5197056D03*
X85802944Y1802944D03*
X87500000Y5900000D03*
D17*
X87500000Y3500000D03*
D16*
X87500000Y1100000D03*
X89197056Y5197056D03*
X89197056Y1802944D03*
X89900000Y3500000D03*
%TD*%
%TO.N,N/C*%
%TO.C,REF\u002A\u002A*%
X1100000Y60500000D03*
X1802944Y62197056D03*
X1802944Y58802944D03*
X3500000Y62900000D03*
D17*
X3500000Y60500000D03*
D16*
X3500000Y58100000D03*
X5197056Y62197056D03*
X5197056Y58802944D03*
X5900000Y60500000D03*
%TD*%
%TO.N,N/C*%
%TO.C,REF\u002A\u002A*%
X1100000Y3500000D03*
X1802944Y5197056D03*
X1802944Y1802944D03*
X3500000Y5900000D03*
D17*
X3500000Y3500000D03*
D16*
X3500000Y1100000D03*
X5197056Y5197056D03*
X5197056Y1802944D03*
X5900000Y3500000D03*
%TD*%
%TO.N,N/C*%
%TO.C,REF\u002A\u002A*%
X85100000Y60500000D03*
X85802944Y62197056D03*
X85802944Y58802944D03*
X87500000Y62900000D03*
D17*
X87500000Y60500000D03*
D16*
X87500000Y58100000D03*
X89197056Y62197056D03*
X89197056Y58802944D03*
X89900000Y60500000D03*
%TD*%
D14*
%TO.N,+5V*%
%TO.C,JP1*%
X47250000Y29210000D03*
D15*
%TO.N,Net-(IC1-VDD)*%
X47250000Y31750000D03*
%TO.N,+12V*%
X47250000Y34290000D03*
%TD*%
D18*
%TO.N,GND*%
%TO.C,J2*%
X84895000Y25320000D03*
D19*
X89075000Y25320000D03*
D18*
X84895000Y33960000D03*
D19*
X89075000Y33960000D03*
%TD*%
D14*
%TO.N,/PA10*%
%TO.C,P4*%
X82100000Y61750000D03*
D15*
%TO.N,/PA9*%
X79560000Y61750000D03*
%TO.N,GND*%
X77020000Y61750000D03*
%TO.N,+5V*%
X74480000Y61750000D03*
%TD*%
D20*
%TO.N,+5V*%
X32750000Y53500000D03*
X87750000Y42000000D03*
X31500000Y53500000D03*
X81000000Y15000000D03*
X42500000Y4750000D03*
X8050000Y56250000D03*
%TO.N,+12V*%
X25500000Y25550000D03*
X14450000Y53250000D03*
X49750000Y7250000D03*
X58500000Y2750000D03*
X46000000Y43750000D03*
X49750000Y6250000D03*
X49750000Y8250000D03*
X24200000Y25550000D03*
X74500000Y2750000D03*
X73250000Y2750000D03*
X59750000Y2750000D03*
%TO.N,/PA3*%
X58000000Y37300000D03*
X34000000Y41950000D03*
%TO.N,/PA4*%
X34500000Y38050000D03*
X57350000Y36450000D03*
%TO.N,/PA5*%
X58100000Y35650000D03*
X34500000Y34475000D03*
%TO.N,/STEP*%
X67000000Y17850000D03*
X69750000Y21500000D03*
%TO.N,/DIR*%
X70000000Y20250000D03*
X68150000Y17850000D03*
%TO.N,/ENBL*%
X65800000Y17850000D03*
X68300000Y21200000D03*
%TO.N,/VR1-*%
X34250000Y5750000D03*
%TO.N,/VR2-*%
X34250000Y8000000D03*
%TO.N,/FUELP*%
X65750000Y4250000D03*
X65750000Y2750000D03*
%TO.N,/BOOST*%
X67500000Y4250000D03*
X67500000Y2750000D03*
%TO.N,/IDLE*%
X51750000Y2750000D03*
X52750000Y2750000D03*
%TO.N,/IGN2*%
X55750000Y40250000D03*
%TO.N,/IGN1*%
X48750000Y40000000D03*
%TO.N,/TACHO*%
X51250000Y48000000D03*
%TO.N,/VVT*%
X80500000Y4000000D03*
X80500000Y2750000D03*
%TO.N,/LAUNCH*%
X62750000Y27250000D03*
%TO.N,/PD11*%
X69350000Y24550000D03*
X46750000Y15250000D03*
%TO.N,Net-(D5-COM)*%
X68750000Y28750000D03*
X62750000Y25750000D03*
%TO.N,/PA2*%
X34900000Y45800000D03*
X57400000Y38200000D03*
%TO.N,/PD10*%
X68200000Y24600000D03*
X41250000Y15250000D03*
%TO.N,/PA0*%
X64000000Y44250000D03*
X59500000Y50750000D03*
%TO.N,/PA1*%
X57850000Y39150000D03*
X43500000Y38750000D03*
%TO.N,Net-(D20-COM)*%
X85750000Y41750000D03*
X85750000Y20500000D03*
%TO.N,Net-(D21-COM)*%
X84500000Y20500000D03*
X85750000Y40250000D03*
%TO.N,/SCL*%
X64900000Y30500000D03*
X55750000Y46250000D03*
%TO.N,CANL*%
X84500000Y7750000D03*
%TO.N,CANH*%
X85750000Y7750000D03*
%TO.N,/SDA*%
X64900000Y29300000D03*
X57250000Y46250000D03*
%TO.N,+BATT*%
X36250000Y48500000D03*
X11000000Y53500000D03*
%TO.N,VR2+*%
X34250000Y9500000D03*
%TO.N,VR1+*%
X34250000Y4250000D03*
%TO.N,/PD8*%
X60500000Y34750000D03*
X39500000Y32500000D03*
%TO.N,/PD14*%
X57500000Y34700000D03*
X54250000Y47000000D03*
%TO.N,/PD9*%
X42750000Y24750000D03*
X60500000Y33250000D03*
%TO.N,/SWDIO*%
X73250000Y23000000D03*
%TO.N,Net-(U2-NRST)*%
X68750000Y44500000D03*
X71500000Y60750000D03*
%TO.N,GND*%
X24100000Y42200000D03*
X73250000Y36000000D03*
X34000000Y63000000D03*
X90250000Y23500000D03*
X90250000Y11500000D03*
X90250000Y46750000D03*
X61750000Y54000000D03*
X64750000Y38500000D03*
X72000000Y20550000D03*
X70500000Y29000000D03*
X38500000Y12000000D03*
X68750000Y32750000D03*
X29750000Y63000000D03*
X12250000Y61250000D03*
X90250000Y20750000D03*
X34950000Y44300000D03*
X55500000Y20000000D03*
X63700000Y48650000D03*
X12250000Y59500000D03*
X63250000Y42000000D03*
X30250000Y43650000D03*
X69050000Y14700000D03*
X76500000Y36000000D03*
X72250000Y47000000D03*
X73500000Y57350000D03*
X73450000Y15700000D03*
X68750000Y30250000D03*
X46750000Y63250000D03*
X80650000Y33450000D03*
X44000000Y57050000D03*
X61750000Y52250000D03*
X52700000Y47400000D03*
X79900000Y20950000D03*
X76500000Y34250000D03*
X13500000Y48500000D03*
X67500000Y58000000D03*
X69650000Y55550000D03*
X75650000Y57350000D03*
X76750000Y51750000D03*
X33000000Y48000000D03*
X60000000Y61000000D03*
X30750000Y36250000D03*
X43000000Y31000000D03*
X62250000Y48650000D03*
X74750000Y49750000D03*
X31000000Y47250000D03*
X55750000Y41750000D03*
X24250000Y40500000D03*
X90250000Y56000000D03*
X18750000Y63000000D03*
X48150000Y5900000D03*
X21750000Y46500000D03*
X68750000Y36000000D03*
X21750000Y45250000D03*
X54500000Y20000000D03*
X36250000Y60000000D03*
X43000000Y29000000D03*
X55000000Y30650000D03*
X64750000Y36000000D03*
X28500000Y63000000D03*
X90250000Y7600000D03*
X34950000Y43000000D03*
X63950000Y55450000D03*
X74500000Y55500000D03*
X73250000Y32750000D03*
X66750000Y29000000D03*
X59250000Y24750000D03*
X76500000Y39500000D03*
X76500000Y37500000D03*
X61500000Y42000000D03*
X73000000Y45750000D03*
X76500000Y29250000D03*
X18500000Y47750000D03*
X35625000Y41375000D03*
X68750000Y46000000D03*
X16750000Y47750000D03*
X83900000Y36750000D03*
X61750000Y50500000D03*
X61850000Y55400000D03*
X12250000Y63000000D03*
X75300000Y14350000D03*
X65500000Y58000000D03*
X69100000Y16700000D03*
X55200000Y28700000D03*
X35750000Y63000000D03*
X52750000Y24250000D03*
X68500000Y39500000D03*
X60250000Y16500000D03*
X83350000Y750000D03*
X76750000Y49750000D03*
X37000000Y16250000D03*
X66400000Y14700000D03*
X38000000Y41250000D03*
X70750000Y39500000D03*
X45250000Y32750000D03*
X63500000Y60000000D03*
X90250000Y14500000D03*
X48200000Y4600000D03*
X90250000Y43750000D03*
X44000000Y53000000D03*
X59000000Y16500000D03*
X42250000Y63250000D03*
X45500000Y15750000D03*
X73250000Y49750000D03*
X90250000Y9250000D03*
X61500000Y16500000D03*
X38500000Y16250000D03*
X20250000Y63000000D03*
X54000000Y24250000D03*
X72000000Y48250000D03*
X90250000Y50250000D03*
X90250000Y53000000D03*
X90250000Y38500000D03*
X36250000Y57500000D03*
X66800000Y48600000D03*
X53500000Y20000000D03*
X36450000Y34500000D03*
X49500000Y23500000D03*
X69500000Y58000000D03*
X72900000Y21500000D03*
X76750000Y53750000D03*
X90250000Y17750000D03*
X90250000Y36000000D03*
X27500000Y48000000D03*
X64750000Y33750000D03*
X57000000Y56000000D03*
X76750000Y55500000D03*
X60500000Y23500000D03*
X83900000Y38700000D03*
X26250000Y36275000D03*
X68400000Y55550000D03*
X15000000Y47750000D03*
X90250000Y41250000D03*
X73250000Y38500000D03*
X43250000Y6480000D03*
X14250000Y63000000D03*
X77800000Y57400000D03*
%TO.N,/SWCLK*%
X80200000Y28800000D03*
%TO.N,+3.3V*%
X61750000Y59750000D03*
X49500000Y10000000D03*
X57625000Y23750000D03*
X60600000Y30300000D03*
X56625000Y51625000D03*
X60000000Y43000000D03*
X33750000Y43500000D03*
X43250000Y45500000D03*
X83500000Y35250000D03*
X26250000Y40000000D03*
X56000000Y35125000D03*
X42000000Y11250000D03*
X24750000Y36250000D03*
X34250000Y47000000D03*
X85500000Y23500000D03*
X39750000Y15500000D03*
X43750000Y59000000D03*
X79000000Y23500000D03*
X74500000Y20800000D03*
X34500000Y36225000D03*
%TO.N,/PA9*%
X72750000Y25250000D03*
%TO.N,/PA10*%
X74000000Y25250000D03*
%TO.N,/USB_D-*%
X81750000Y29615000D03*
X73750000Y28750000D03*
%TO.N,/USB_D+*%
X75000000Y28750000D03*
X81750000Y30665000D03*
%TO.N,Net-(J1-Pad16)*%
X56750000Y49750000D03*
%TO.N,Net-(J1-Pad15)*%
X55250000Y49750000D03*
%TD*%
D21*
%TO.N,+5V*%
X78500000Y59000000D02*
X75500000Y59000000D01*
X49000000Y59650000D02*
X47950000Y60700000D01*
X49000000Y59350000D02*
X49000000Y44200000D01*
X31500000Y53500000D02*
X23000000Y53500000D01*
X57500000Y62850000D02*
X55350000Y60700000D01*
X8000000Y51500000D02*
X8000000Y56200000D01*
X41500000Y59300000D02*
X42900000Y60700000D01*
X50350000Y60700000D02*
X50450000Y60700000D01*
D22*
X85000000Y15000000D02*
X87000000Y17000000D01*
D21*
X74480000Y61750000D02*
X74400000Y61750000D01*
X10875000Y48625000D02*
X8000000Y51500000D01*
X73300000Y62850000D02*
X57500000Y62850000D01*
X13437500Y46062500D02*
X10875000Y48625000D01*
X87750000Y43750000D02*
X80750000Y50750000D01*
D22*
X81000000Y15000000D02*
X85000000Y15000000D01*
D21*
X74400000Y61750000D02*
X73300000Y62850000D01*
X49000000Y59350000D02*
X50350000Y60700000D01*
X80750000Y50750000D02*
X80750000Y56750000D01*
X75500000Y59000000D02*
X74480000Y60020000D01*
X13437500Y42500000D02*
X13437500Y46062500D01*
X50450000Y60700000D02*
X47950000Y60700000D01*
X51100000Y42100000D02*
X51100000Y31250000D01*
X55350000Y60700000D02*
X50450000Y60700000D01*
X8000000Y56200000D02*
X8050000Y56250000D01*
X42900000Y60700000D02*
X47950000Y60700000D01*
X80750000Y56750000D02*
X78500000Y59000000D01*
D22*
X87000000Y35250000D02*
X87750000Y36000000D01*
X87750000Y36000000D02*
X87750000Y42000000D01*
D21*
X87750000Y42000000D02*
X87750000Y43750000D01*
X49000000Y59350000D02*
X49000000Y59650000D01*
X31500000Y53500000D02*
X40050000Y53500000D01*
X23000000Y53500000D02*
X20250000Y56250000D01*
X41500000Y54950000D02*
X41500000Y59300000D01*
X20250000Y56250000D02*
X8050000Y56250000D01*
X49000000Y44200000D02*
X51100000Y42100000D01*
X51100000Y31250000D02*
X49060000Y29210000D01*
X74480000Y60020000D02*
X74480000Y61750000D01*
X49060000Y29210000D02*
X47250000Y29210000D01*
X40050000Y53500000D02*
X41500000Y54950000D01*
X49000000Y60500000D02*
X49000000Y59350000D01*
D22*
X87000000Y17000000D02*
X87000000Y35250000D01*
D21*
%TO.N,+12V*%
X24250000Y25500000D02*
X24250000Y24250000D01*
X25000000Y31750000D02*
X36250000Y31750000D01*
X14450000Y53250000D02*
X19450000Y53250000D01*
X24500000Y48200000D02*
X24500000Y46000000D01*
X44600000Y34290000D02*
X46000000Y34290000D01*
X22687500Y44187500D02*
X22687500Y34062500D01*
X23500000Y17250000D02*
X22750000Y17250000D01*
X12250000Y17250000D02*
X11150000Y16150000D01*
X24250000Y19000000D02*
X24250000Y17250000D01*
X38250000Y9500000D02*
X30500000Y17250000D01*
X46000000Y35750000D02*
X46000000Y43750000D01*
X49750000Y7250000D02*
X48750000Y8250000D01*
X38790000Y34290000D02*
X44600000Y34290000D01*
X24500000Y46000000D02*
X22687500Y44187500D01*
X24250000Y19000000D02*
X24250000Y18750000D01*
X30500000Y17250000D02*
X25500000Y17250000D01*
X25500000Y25500000D02*
X24250000Y24250000D01*
X58500000Y2750000D02*
X59750000Y2750000D01*
X24250000Y24250000D02*
X24250000Y19000000D01*
X24250000Y19000000D02*
X24250000Y18500000D01*
X46000000Y34290000D02*
X46000000Y35750000D01*
X49750000Y7250000D02*
X49750000Y6250000D01*
X46000000Y35690000D02*
X44600000Y34290000D01*
X11150000Y16150000D02*
X11150000Y14602000D01*
X46000000Y35750000D02*
X46000000Y35690000D01*
X74500000Y2750000D02*
X73250000Y2750000D01*
X49750000Y8250000D02*
X49750000Y7250000D01*
X49750000Y8250000D02*
X48750000Y8250000D01*
X22687500Y34062500D02*
X25000000Y31750000D01*
X25500000Y25550000D02*
X24200000Y25550000D01*
X25500000Y25550000D02*
X25500000Y25500000D01*
X19450000Y53250000D02*
X24500000Y48200000D01*
X48750000Y8250000D02*
X45950000Y8250000D01*
X46000000Y34290000D02*
X47250000Y34290000D01*
X45950000Y8250000D02*
X44700000Y9500000D01*
X44700000Y9500000D02*
X38250000Y9500000D01*
X24250000Y18500000D02*
X25500000Y17250000D01*
X24250000Y18750000D02*
X22750000Y17250000D01*
X24200000Y25550000D02*
X24250000Y25500000D01*
X22750000Y17250000D02*
X12250000Y17250000D01*
X24250000Y17250000D02*
X23500000Y17250000D01*
X36250000Y31750000D02*
X38790000Y34290000D01*
X25500000Y17250000D02*
X23500000Y17250000D01*
D23*
%TO.N,/STEP*%
X67000000Y17850000D02*
X66150000Y17000000D01*
X59250000Y11500000D02*
X57500000Y11500000D01*
X27738000Y3250000D02*
X26390000Y1902000D01*
X64750000Y17000000D02*
X59250000Y11500000D01*
X30500000Y3000000D02*
X30250000Y3250000D01*
X30250000Y3250000D02*
X27738000Y3250000D01*
X49000000Y3000000D02*
X30500000Y3000000D01*
X57500000Y11500000D02*
X49000000Y3000000D01*
X66150000Y17000000D02*
X64750000Y17000000D01*
%TO.N,/DIR*%
X68150000Y17850000D02*
X66800000Y16500000D01*
X66800000Y16500000D02*
X65000000Y16500000D01*
X49250000Y2500000D02*
X29528000Y2500000D01*
X57750000Y11000000D02*
X49250000Y2500000D01*
X29528000Y2500000D02*
X28930000Y1902000D01*
X59500000Y11000000D02*
X57750000Y11000000D01*
X65000000Y16500000D02*
X59500000Y11000000D01*
%TO.N,/ENBL*%
X57250000Y12000000D02*
X48750000Y3500000D01*
X59000000Y12000000D02*
X57250000Y12000000D01*
X13000000Y3750000D02*
X11152000Y1902000D01*
X30500000Y3750000D02*
X13000000Y3750000D01*
X64850000Y17850000D02*
X59000000Y12000000D01*
X30750000Y3500000D02*
X30500000Y3750000D01*
X48750000Y3500000D02*
X30750000Y3500000D01*
X11152000Y1902000D02*
X11150000Y1902000D01*
X65800000Y17850000D02*
X64850000Y17850000D01*
D24*
%TO.N,/VR1-*%
X5000000Y34750000D02*
X8250000Y38000000D01*
X5000000Y18500000D02*
X5000000Y34750000D01*
X15100000Y5750000D02*
X8450000Y12400000D01*
X34250000Y5750000D02*
X15100000Y5750000D01*
X8250000Y38000000D02*
X10937500Y38000000D01*
X8450000Y12400000D02*
X8450000Y15050000D01*
X8450000Y15050000D02*
X5000000Y18500000D01*
%TO.N,/VR2-*%
X5750000Y18750000D02*
X9000000Y15500000D01*
X5750000Y34000000D02*
X5750000Y18750000D01*
X13700000Y8000000D02*
X34250000Y8000000D01*
X13437500Y36500000D02*
X8250000Y36500000D01*
X9000000Y15500000D02*
X9000000Y12700000D01*
X8250000Y36500000D02*
X5750000Y34000000D01*
X9000000Y12700000D02*
X13700000Y8000000D01*
D21*
%TO.N,/FUELP*%
X65750000Y4250000D02*
X65750000Y2750000D01*
%TO.N,/BOOST*%
X67500000Y4250000D02*
X67500000Y2750000D01*
%TO.N,/IDLE*%
X51750000Y2750000D02*
X52750000Y2750000D01*
%TO.N,/VVT*%
X80500000Y4000000D02*
X80500000Y2750000D01*
D24*
%TO.N,/PD11*%
X52850000Y21350000D02*
X62800000Y21350000D01*
X68475000Y23675000D02*
X65125000Y23675000D01*
X65125000Y23675000D02*
X62800000Y21350000D01*
X46750000Y15250000D02*
X52850000Y21350000D01*
X68475000Y23675000D02*
X69350000Y24550000D01*
D23*
%TO.N,Net-(D5-COM)*%
X68750000Y26500000D02*
X68000000Y25750000D01*
X68750000Y28750000D02*
X68750000Y26500000D01*
X68000000Y25750000D02*
X62750000Y25750000D01*
D24*
%TO.N,/PD10*%
X47100000Y16850000D02*
X52250000Y22000000D01*
X42850000Y16850000D02*
X47100000Y16850000D01*
X65050000Y24600000D02*
X68200000Y24600000D01*
X52250000Y22000000D02*
X62450000Y22000000D01*
X41250000Y15250000D02*
X42850000Y16850000D01*
X62450000Y22000000D02*
X65050000Y24600000D01*
%TO.N,CANL*%
X23250000Y27500000D02*
X22250000Y26500000D01*
X28750000Y21750000D02*
X28750000Y25500000D01*
X26750000Y27500000D02*
X23250000Y27500000D01*
X84750000Y8000000D02*
X84750000Y10000000D01*
X52000000Y13500000D02*
X37000000Y13500000D01*
X21000000Y21500000D02*
X16437500Y21500000D01*
X28750000Y25500000D02*
X26750000Y27500000D01*
X83500000Y11250000D02*
X80000000Y11250000D01*
X80000000Y11250000D02*
X72550000Y18700000D01*
X57200000Y18700000D02*
X52000000Y13500000D01*
X84750000Y10000000D02*
X83500000Y11250000D01*
X37000000Y13500000D02*
X28750000Y21750000D01*
X84500000Y7750000D02*
X84750000Y8000000D01*
X22250000Y22750000D02*
X21000000Y21500000D01*
X72550000Y18700000D02*
X57200000Y18700000D01*
X22250000Y26500000D02*
X22250000Y22750000D01*
%TO.N,CANH*%
X37227818Y14050000D02*
X51550000Y14050000D01*
X85500000Y10250000D02*
X85500000Y8000000D01*
X21500000Y25750000D02*
X21500000Y27000000D01*
X21500000Y27000000D02*
X22750000Y28250000D01*
X73000000Y19250000D02*
X80250000Y12000000D01*
X56750000Y19250000D02*
X73000000Y19250000D01*
X20250000Y24500000D02*
X21500000Y25750000D01*
X29500000Y25750000D02*
X29500000Y21777818D01*
X51550000Y14050000D02*
X56750000Y19250000D01*
X27000000Y28250000D02*
X29500000Y25750000D01*
X83750000Y12000000D02*
X85500000Y10250000D01*
X16437500Y24500000D02*
X20250000Y24500000D01*
X80250000Y12000000D02*
X83750000Y12000000D01*
X85500000Y8000000D02*
X85750000Y7750000D01*
X22750000Y28250000D02*
X27000000Y28250000D01*
X29500000Y21777818D02*
X37227818Y14050000D01*
D22*
%TO.N,+BATT*%
X19750000Y54750000D02*
X12250000Y54750000D01*
X36250000Y51350000D02*
X35350000Y52250000D01*
X22250000Y52250000D02*
X19750000Y54750000D01*
X12250000Y54750000D02*
X11000000Y53500000D01*
X36250000Y48500000D02*
X36250000Y51350000D01*
X35350000Y52250000D02*
X22250000Y52250000D01*
D24*
%TO.N,VR2+*%
X9550000Y15950000D02*
X6500000Y19000000D01*
X9500000Y33500000D02*
X13437500Y33500000D01*
X9550000Y12950000D02*
X9550000Y15950000D01*
X13000000Y9500000D02*
X9550000Y12950000D01*
X6500000Y30500000D02*
X9500000Y33500000D01*
X6500000Y19000000D02*
X6500000Y30500000D01*
X34250000Y9500000D02*
X13000000Y9500000D01*
%TO.N,VR1+*%
X33750000Y4750000D02*
X15250000Y4750000D01*
X15250000Y4750000D02*
X7900000Y12100000D01*
X34250000Y4250000D02*
X33750000Y4750000D01*
X4250000Y18250000D02*
X4250000Y36250000D01*
X7900000Y12100000D02*
X7900000Y14600000D01*
X9000000Y41000000D02*
X10937500Y41000000D01*
X7900000Y14600000D02*
X4250000Y18250000D01*
X4250000Y36250000D02*
X9000000Y41000000D01*
D23*
%TO.N,/PD8*%
X55700000Y33900000D02*
X59400000Y33900000D01*
X44250000Y25250000D02*
X50750000Y25250000D01*
X60250000Y34750000D02*
X60500000Y34750000D01*
X39500000Y32500000D02*
X41250000Y30750000D01*
X41250000Y28250000D02*
X44250000Y25250000D01*
X53350000Y27850000D02*
X53350000Y31550000D01*
X53350000Y31550000D02*
X55700000Y33900000D01*
X41250000Y30750000D02*
X41250000Y28250000D01*
X59400000Y33900000D02*
X60250000Y34750000D01*
X50750000Y25250000D02*
X53350000Y27850000D01*
%TO.N,/PD9*%
X53875000Y27625000D02*
X53875000Y31275000D01*
X55850000Y33250000D02*
X60500000Y33250000D01*
X51000000Y24750000D02*
X53875000Y27625000D01*
X42750000Y24750000D02*
X51000000Y24750000D01*
X53875000Y31275000D02*
X55850000Y33250000D01*
D21*
%TO.N,GND*%
X13437500Y39500000D02*
X16437500Y42500000D01*
X16437500Y42500000D02*
X16437500Y45987500D01*
D22*
X16437500Y45987500D02*
X16550000Y46100000D01*
D21*
X16437500Y36500000D02*
X13437500Y39500000D01*
X16437500Y36500000D02*
X16437500Y33500000D01*
D22*
%TO.N,+3.3V*%
X32850000Y41750000D02*
X32850000Y41200000D01*
X42500000Y47000000D02*
X43250000Y47000000D01*
X57650000Y29300000D02*
X58650000Y30300000D01*
X83250000Y23500000D02*
X82500000Y23500000D01*
X32850000Y37875000D02*
X34500000Y36225000D01*
X82250000Y34750000D02*
X82250000Y33000000D01*
X57625000Y51625000D02*
X58000000Y51250000D01*
X82250000Y33000000D02*
X83250000Y32000000D01*
X43250000Y46500000D02*
X43250000Y47000000D01*
X57875000Y51625000D02*
X58000000Y51750000D01*
X32850000Y42600000D02*
X32850000Y41750000D01*
X55125000Y35125000D02*
X53750000Y36500000D01*
X45550000Y57200000D02*
X43750000Y59000000D01*
X43750000Y47000000D02*
X44500000Y47000000D01*
X58000000Y51250000D02*
X58000000Y51000000D01*
X42750000Y47000000D02*
X42500000Y47000000D01*
X32000000Y41200000D02*
X32850000Y41200000D01*
X59200000Y44250000D02*
X59400000Y44250000D01*
X47125000Y18225000D02*
X51900000Y23000000D01*
X32400000Y41200000D02*
X32850000Y40750000D01*
X82500000Y26250000D02*
X82500000Y24500000D01*
X82000000Y23500000D02*
X79000000Y23500000D01*
X43250000Y46500000D02*
X42750000Y47000000D01*
X82500000Y24500000D02*
X82500000Y24250000D01*
X24750000Y38500000D02*
X26250000Y40000000D01*
X82500000Y24500000D02*
X82500000Y23500000D01*
X59200000Y44250000D02*
X60000000Y44250000D01*
X51900000Y23000000D02*
X56875000Y23000000D01*
X43250000Y45500000D02*
X43250000Y46500000D01*
X58650000Y30300000D02*
X60600000Y30300000D01*
X32300000Y41200000D02*
X32850000Y41750000D01*
X57650000Y23775000D02*
X57650000Y29300000D01*
X78500000Y23500000D02*
X79000000Y23500000D01*
X74500000Y20800000D02*
X75800000Y20800000D01*
X82500000Y23500000D02*
X82000000Y23500000D01*
X24750000Y36250000D02*
X24750000Y38500000D01*
X82750000Y35250000D02*
X82250000Y34750000D01*
X60000000Y44850000D02*
X60000000Y44250000D01*
X32850000Y41200000D02*
X32850000Y40750000D01*
X34250000Y47000000D02*
X42500000Y47000000D01*
X60000000Y44250000D02*
X60000000Y43400000D01*
X56625000Y51625000D02*
X57250000Y51625000D01*
X46000000Y11250000D02*
X42000000Y11250000D01*
X53750000Y43000000D02*
X55000000Y44250000D01*
X55000000Y44250000D02*
X59200000Y44250000D01*
X83500000Y35250000D02*
X82750000Y35250000D01*
X58000000Y53600000D02*
X61750000Y57350000D01*
X42475000Y18225000D02*
X47125000Y18225000D01*
X82500000Y24250000D02*
X81750000Y23500000D01*
X44500000Y47000000D02*
X45550000Y48050000D01*
X58000000Y49750000D02*
X58000000Y51000000D01*
X33750000Y43500000D02*
X32850000Y42600000D01*
X59400000Y44250000D02*
X60000000Y44850000D01*
X29300000Y40000000D02*
X30500000Y41200000D01*
X56875000Y23000000D02*
X57625000Y23750000D01*
X33750000Y46500000D02*
X33750000Y43500000D01*
X26250000Y40000000D02*
X29300000Y40000000D01*
X60000000Y43400000D02*
X60000000Y43000000D01*
X58250000Y49500000D02*
X58000000Y49750000D01*
X30500000Y41200000D02*
X32000000Y41200000D01*
X58000000Y52000000D02*
X58000000Y53600000D01*
X58000000Y51000000D02*
X58000000Y51750000D01*
X83250000Y27000000D02*
X82500000Y26250000D01*
X60000000Y43450000D02*
X60000000Y43400000D01*
X45550000Y48050000D02*
X45550000Y57200000D01*
X85500000Y23500000D02*
X83250000Y23500000D01*
X32850000Y40750000D02*
X32850000Y37875000D01*
X39750000Y15500000D02*
X42475000Y18225000D01*
X57250000Y51625000D02*
X57625000Y51625000D01*
X82500000Y24250000D02*
X83250000Y23500000D01*
X58250000Y49500000D02*
X60000000Y47750000D01*
X81750000Y23500000D02*
X81500000Y23500000D01*
X57625000Y51625000D02*
X58000000Y52000000D01*
X83250000Y32000000D02*
X83250000Y27000000D01*
X34250000Y47000000D02*
X33750000Y46500000D01*
X81500000Y23500000D02*
X82000000Y23500000D01*
X61750000Y57350000D02*
X61750000Y59750000D01*
X32000000Y41200000D02*
X32400000Y41200000D01*
X58000000Y51750000D02*
X58000000Y52000000D01*
X32000000Y41200000D02*
X32300000Y41200000D01*
X60000000Y47750000D02*
X60000000Y44850000D01*
X43250000Y47000000D02*
X43750000Y47000000D01*
X47250000Y10000000D02*
X46000000Y11250000D01*
X57625000Y23750000D02*
X57650000Y23775000D01*
X49500000Y10000000D02*
X47250000Y10000000D01*
X57250000Y51625000D02*
X57875000Y51625000D01*
X43250000Y46500000D02*
X43750000Y47000000D01*
X59200000Y44250000D02*
X60000000Y43450000D01*
X75800000Y20800000D02*
X78500000Y23500000D01*
X53750000Y36500000D02*
X53750000Y43000000D01*
X56000000Y35125000D02*
X55125000Y35125000D01*
%TD*%
%TA.AperFunction,Conductor*%
%TO.N,GND*%
G36*
X46996288Y63905546D02*
G01*
X47077070Y63851570D01*
X47131046Y63770788D01*
X47150000Y63675500D01*
X47150000Y61949500D01*
X47131046Y61854212D01*
X47077070Y61773430D01*
X46996288Y61719454D01*
X46901000Y61700500D01*
X42801459Y61700500D01*
X42704812Y61681276D01*
X42632243Y61666841D01*
X42608163Y61662051D01*
X42582593Y61651459D01*
X42582592Y61651459D01*
X42426088Y61586633D01*
X42426084Y61586631D01*
X42262219Y61477140D01*
X42262216Y61477138D01*
X42122860Y61337783D01*
X42122861Y61337782D01*
X42122858Y61337779D01*
X40862221Y60077142D01*
X40862218Y60077139D01*
X40862217Y60077140D01*
X40722862Y59937784D01*
X40722860Y59937781D01*
X40613369Y59773916D01*
X40613367Y59773912D01*
X40567877Y59664089D01*
X40567877Y59664088D01*
X40537948Y59591836D01*
X40531964Y59561747D01*
X40531963Y59561745D01*
X40499500Y59398546D01*
X40499500Y55467560D01*
X40480546Y55372272D01*
X40426570Y55291491D01*
X39708511Y54573431D01*
X39627729Y54519454D01*
X39532441Y54500500D01*
X23517561Y54500500D01*
X23422273Y54519454D01*
X23341491Y54573430D01*
X21027140Y56887780D01*
X21027139Y56887782D01*
X20887782Y57027139D01*
X20723914Y57136632D01*
X20682442Y57153810D01*
X20569722Y57200500D01*
X20556270Y57206072D01*
X20541837Y57212051D01*
X20517756Y57216841D01*
X20445188Y57231276D01*
X20348541Y57250500D01*
X7951459Y57250500D01*
X7919389Y57244122D01*
X7919386Y57244122D01*
X7758168Y57212054D01*
X7758167Y57212053D01*
X7576090Y57136635D01*
X7576085Y57136632D01*
X7501256Y57086632D01*
X7412218Y57027140D01*
X7222862Y56837784D01*
X7222860Y56837781D01*
X7113369Y56673916D01*
X7113367Y56673912D01*
X7070315Y56569977D01*
X7070316Y56569976D01*
X7046954Y56513574D01*
X7046953Y56513573D01*
X7037949Y56491838D01*
X7037947Y56491829D01*
X6999500Y56298546D01*
X6999500Y53472860D01*
X6980546Y53377572D01*
X6926570Y53296790D01*
X6845788Y53242814D01*
X6768491Y53227439D01*
X5803457Y52262406D01*
X5718370Y52373293D01*
X5560793Y52530870D01*
X5449904Y52615959D01*
X6410870Y53576925D01*
X6342144Y53638341D01*
X6062751Y53836580D01*
X5762923Y54002289D01*
X5762924Y54002289D01*
X5446450Y54133376D01*
X5446430Y54133383D01*
X5117261Y54228216D01*
X5117246Y54228219D01*
X4779525Y54285599D01*
X4779519Y54285600D01*
X4437505Y54304806D01*
X4437495Y54304806D01*
X4095480Y54285600D01*
X4095474Y54285599D01*
X3757753Y54228219D01*
X3757738Y54228216D01*
X3428569Y54133383D01*
X3428549Y54133376D01*
X3112075Y54002289D01*
X2812248Y53836580D01*
X2532855Y53638340D01*
X2464129Y53576925D01*
X3425095Y52615959D01*
X3314207Y52530870D01*
X3156630Y52373293D01*
X3071541Y52262405D01*
X2110575Y53223371D01*
X2049160Y53154645D01*
X1850920Y52875252D01*
X1685211Y52575425D01*
X1554124Y52258951D01*
X1554117Y52258931D01*
X1459284Y51929762D01*
X1459281Y51929747D01*
X1401901Y51592026D01*
X1401900Y51592020D01*
X1382694Y51250006D01*
X1382694Y51249995D01*
X1401900Y50907981D01*
X1401901Y50907975D01*
X1459281Y50570254D01*
X1459284Y50570239D01*
X1554117Y50241070D01*
X1554124Y50241050D01*
X1685211Y49924576D01*
X1850920Y49624749D01*
X2049159Y49345356D01*
X2110575Y49276631D01*
X3071541Y50237597D01*
X3156630Y50126707D01*
X3314207Y49969130D01*
X3425094Y49884043D01*
X2464129Y48923077D01*
X2532855Y48861660D01*
X2812248Y48663421D01*
X3112076Y48497712D01*
X3112075Y48497712D01*
X3428549Y48366625D01*
X3428569Y48366618D01*
X3757738Y48271785D01*
X3757753Y48271782D01*
X4095474Y48214402D01*
X4095480Y48214401D01*
X4437495Y48195194D01*
X4437505Y48195194D01*
X4779519Y48214401D01*
X4779525Y48214402D01*
X5117246Y48271782D01*
X5117261Y48271785D01*
X5446430Y48366618D01*
X5446450Y48366625D01*
X5762924Y48497712D01*
X6062751Y48663421D01*
X6342138Y48861656D01*
X6342141Y48861658D01*
X6410869Y48923077D01*
X5449904Y49884042D01*
X5560793Y49969130D01*
X5718370Y50126707D01*
X5803458Y50237596D01*
X6764423Y49276631D01*
X6825842Y49345359D01*
X6825844Y49345362D01*
X7024079Y49624749D01*
X7189788Y49924576D01*
X7320875Y50241050D01*
X7320875Y50241051D01*
X7321024Y50241565D01*
X7321122Y50241756D01*
X7323183Y50247645D01*
X7323553Y50247516D01*
X7323554Y50247516D01*
X7323566Y50247511D01*
X7324014Y50247355D01*
X7365613Y50327884D01*
X7439840Y50390569D01*
X7532406Y50420077D01*
X7629217Y50411916D01*
X7715536Y50367327D01*
X7736366Y50348714D01*
X9177070Y48908010D01*
X9231046Y48827228D01*
X9250000Y48731940D01*
X9250000Y41899500D01*
X9231046Y41804212D01*
X9177070Y41723430D01*
X9096288Y41669454D01*
X9001000Y41650500D01*
X8935926Y41650500D01*
X8813204Y41626089D01*
X8813205Y41626088D01*
X8810259Y41625502D01*
X8810256Y41625502D01*
X8691878Y41576468D01*
X8691874Y41576466D01*
X8691873Y41576465D01*
X8585330Y41505276D01*
X8585326Y41505273D01*
X3744724Y36664671D01*
X3677502Y36564065D01*
X3673534Y36558126D01*
X3673531Y36558121D01*
X3624499Y36439746D01*
X3624498Y36439743D01*
X3599500Y36314072D01*
X3599500Y36314069D01*
X3599500Y18185931D01*
X3606758Y18149444D01*
X3609307Y18136633D01*
X3609307Y18136629D01*
X3624497Y18060260D01*
X3624498Y18060257D01*
X3673534Y17941873D01*
X3744723Y17835331D01*
X5466543Y16113511D01*
X5520519Y16032729D01*
X5539473Y15937441D01*
X5520519Y15842153D01*
X5466543Y15761371D01*
X5385761Y15707395D01*
X5290473Y15688441D01*
X5221542Y15698172D01*
X5117250Y15728218D01*
X5117246Y15728219D01*
X4779525Y15785599D01*
X4779519Y15785600D01*
X4437505Y15804806D01*
X4437495Y15804806D01*
X4095480Y15785600D01*
X4095474Y15785599D01*
X3757753Y15728219D01*
X3757738Y15728216D01*
X3428569Y15633383D01*
X3428549Y15633376D01*
X3112075Y15502289D01*
X2812248Y15336580D01*
X2532855Y15138340D01*
X2464129Y15076925D01*
X3425095Y14115959D01*
X3314207Y14030870D01*
X3156630Y13873293D01*
X3071541Y13762405D01*
X2110575Y14723371D01*
X2049160Y14654645D01*
X1850920Y14375252D01*
X1685211Y14075425D01*
X1554124Y13758951D01*
X1554117Y13758931D01*
X1459284Y13429762D01*
X1459281Y13429747D01*
X1401901Y13092026D01*
X1401900Y13092020D01*
X1382694Y12750006D01*
X1382694Y12749995D01*
X1401900Y12407981D01*
X1401901Y12407975D01*
X1459281Y12070254D01*
X1459284Y12070239D01*
X1554117Y11741070D01*
X1554124Y11741050D01*
X1685211Y11424576D01*
X1850920Y11124749D01*
X2049159Y10845356D01*
X2110575Y10776631D01*
X3071541Y11737597D01*
X3156630Y11626707D01*
X3314207Y11469130D01*
X3425094Y11384043D01*
X2464129Y10423077D01*
X2532855Y10361660D01*
X2812248Y10163421D01*
X3112076Y9997712D01*
X3112075Y9997712D01*
X3428549Y9866625D01*
X3428569Y9866618D01*
X3757738Y9771785D01*
X3757753Y9771782D01*
X4095474Y9714402D01*
X4095480Y9714401D01*
X4437495Y9695194D01*
X4437505Y9695194D01*
X4779519Y9714401D01*
X4779525Y9714402D01*
X5117246Y9771782D01*
X5117261Y9771785D01*
X5446430Y9866618D01*
X5446450Y9866625D01*
X5762924Y9997712D01*
X6062751Y10163421D01*
X6342138Y10361656D01*
X6342141Y10361658D01*
X6410869Y10423077D01*
X5449904Y11384042D01*
X5560793Y11469130D01*
X5718370Y11626707D01*
X5803458Y11737596D01*
X6764423Y10776631D01*
X6825842Y10845359D01*
X6825844Y10845362D01*
X7024079Y11124749D01*
X7193164Y11430684D01*
X7194385Y11430010D01*
X7247292Y11500327D01*
X7330967Y11549698D01*
X7427167Y11563291D01*
X7521245Y11539035D01*
X7589300Y11490754D01*
X9777072Y9302982D01*
X9831046Y9222203D01*
X9850000Y9126915D01*
X9850000Y1975367D01*
X9849052Y1953664D01*
X9844532Y1902004D01*
X9844532Y1901995D01*
X9864363Y1675321D01*
X9864365Y1675306D01*
X9923261Y1455504D01*
X9923262Y1455501D01*
X10019428Y1249273D01*
X10019436Y1249259D01*
X10149949Y1062866D01*
X10149953Y1062861D01*
X10310861Y901953D01*
X10310864Y901951D01*
X10310865Y901950D01*
X10497258Y771437D01*
X10497262Y771435D01*
X10497266Y771432D01*
X10703504Y675261D01*
X10923308Y616365D01*
X10942984Y614644D01*
X11149994Y596532D01*
X11150000Y596532D01*
X11150006Y596532D01*
X11329668Y612251D01*
X11376692Y616365D01*
X11596496Y675261D01*
X11802734Y771432D01*
X11989139Y901953D01*
X12150047Y1062861D01*
X12216031Y1157098D01*
X12286211Y1224281D01*
X12376760Y1259494D01*
X12473892Y1257375D01*
X12562819Y1218247D01*
X12623968Y1157098D01*
X12689953Y1062861D01*
X12850861Y901953D01*
X12850864Y901951D01*
X12850865Y901950D01*
X13037258Y771437D01*
X13037262Y771435D01*
X13037266Y771432D01*
X13243504Y675261D01*
X13463308Y616365D01*
X13482984Y614644D01*
X13689994Y596532D01*
X13690000Y596532D01*
X13690006Y596532D01*
X13869668Y612251D01*
X13916692Y616365D01*
X14136496Y675261D01*
X14342734Y771432D01*
X14529139Y901953D01*
X14690047Y1062861D01*
X14756031Y1157098D01*
X14826211Y1224281D01*
X14916760Y1259494D01*
X15013892Y1257375D01*
X15102819Y1218247D01*
X15163968Y1157098D01*
X15229953Y1062861D01*
X15390861Y901953D01*
X15390864Y901951D01*
X15390865Y901950D01*
X15577258Y771437D01*
X15577262Y771435D01*
X15577266Y771432D01*
X15783504Y675261D01*
X16003308Y616365D01*
X16022984Y614644D01*
X16229994Y596532D01*
X16230000Y596532D01*
X16230006Y596532D01*
X16409668Y612251D01*
X16456692Y616365D01*
X16676496Y675261D01*
X16882734Y771432D01*
X17069139Y901953D01*
X17230047Y1062861D01*
X17296031Y1157098D01*
X17366211Y1224281D01*
X17456760Y1259494D01*
X17553892Y1257375D01*
X17642819Y1218247D01*
X17703968Y1157098D01*
X17769953Y1062861D01*
X17930861Y901953D01*
X17930864Y901951D01*
X17930865Y901950D01*
X18117258Y771437D01*
X18117262Y771435D01*
X18117266Y771432D01*
X18323504Y675261D01*
X18543308Y616365D01*
X18562984Y614644D01*
X18769994Y596532D01*
X18770000Y596532D01*
X18770006Y596532D01*
X18949668Y612251D01*
X18996692Y616365D01*
X19216496Y675261D01*
X19422734Y771432D01*
X19609139Y901953D01*
X19770047Y1062861D01*
X19836031Y1157098D01*
X19906211Y1224281D01*
X19996760Y1259494D01*
X20093892Y1257375D01*
X20182819Y1218247D01*
X20243968Y1157098D01*
X20309953Y1062861D01*
X20470861Y901953D01*
X20470864Y901951D01*
X20470865Y901950D01*
X20657258Y771437D01*
X20657262Y771435D01*
X20657266Y771432D01*
X20863504Y675261D01*
X21083308Y616365D01*
X21102984Y614644D01*
X21309994Y596532D01*
X21310000Y596532D01*
X21310006Y596532D01*
X21489668Y612251D01*
X21536692Y616365D01*
X21756496Y675261D01*
X21962734Y771432D01*
X22149139Y901953D01*
X22310047Y1062861D01*
X22376031Y1157098D01*
X22446211Y1224281D01*
X22536760Y1259494D01*
X22633892Y1257375D01*
X22722819Y1218247D01*
X22783968Y1157098D01*
X22849953Y1062861D01*
X23010861Y901953D01*
X23010864Y901951D01*
X23010865Y901950D01*
X23197258Y771437D01*
X23197262Y771435D01*
X23197266Y771432D01*
X23403504Y675261D01*
X23623308Y616365D01*
X23642984Y614644D01*
X23849994Y596532D01*
X23850000Y596532D01*
X23850006Y596532D01*
X24029668Y612251D01*
X24076692Y616365D01*
X24296496Y675261D01*
X24502734Y771432D01*
X24689139Y901953D01*
X24850047Y1062861D01*
X24916031Y1157098D01*
X24986211Y1224281D01*
X25076760Y1259494D01*
X25173892Y1257375D01*
X25262819Y1218247D01*
X25323968Y1157098D01*
X25389953Y1062861D01*
X25550861Y901953D01*
X25550864Y901951D01*
X25550865Y901950D01*
X25737258Y771437D01*
X25737262Y771435D01*
X25737266Y771432D01*
X25943504Y675261D01*
X26163308Y616365D01*
X26182984Y614644D01*
X26389994Y596532D01*
X26390000Y596532D01*
X26390006Y596532D01*
X26569668Y612251D01*
X26616692Y616365D01*
X26836496Y675261D01*
X27042734Y771432D01*
X27229139Y901953D01*
X27390047Y1062861D01*
X27456031Y1157098D01*
X27526211Y1224281D01*
X27616760Y1259494D01*
X27713892Y1257375D01*
X27802819Y1218247D01*
X27863968Y1157098D01*
X27929953Y1062861D01*
X28090861Y901953D01*
X28090864Y901951D01*
X28090865Y901950D01*
X28277258Y771437D01*
X28277262Y771435D01*
X28277266Y771432D01*
X28483504Y675261D01*
X28703308Y616365D01*
X28722984Y614644D01*
X28929994Y596532D01*
X28930000Y596532D01*
X28930006Y596532D01*
X29109668Y612251D01*
X29156692Y616365D01*
X29376496Y675261D01*
X29582734Y771432D01*
X29769139Y901953D01*
X29930047Y1062861D01*
X30060568Y1249266D01*
X30156739Y1455504D01*
X30215635Y1675308D01*
X30215635Y1675311D01*
X30218448Y1685808D01*
X30220859Y1685162D01*
X30249706Y1759314D01*
X30316899Y1829487D01*
X30405831Y1868604D01*
X30459694Y1874500D01*
X49311606Y1874500D01*
X49311607Y1874500D01*
X49383781Y1888856D01*
X49432452Y1898537D01*
X49465777Y1912343D01*
X49465791Y1912345D01*
X49465791Y1912347D01*
X49509817Y1930584D01*
X49546286Y1945688D01*
X49613636Y1990691D01*
X49648733Y2014142D01*
X49735858Y2101267D01*
X49735860Y2101271D01*
X50343208Y2708620D01*
X50423987Y2762593D01*
X50519275Y2781547D01*
X50614563Y2762593D01*
X50695345Y2708617D01*
X50749321Y2627835D01*
X50763490Y2581125D01*
X50787947Y2458170D01*
X50787949Y2458165D01*
X50863365Y2276092D01*
X50863366Y2276089D01*
X50863368Y2276086D01*
X50972861Y2112218D01*
X51112218Y1972861D01*
X51276086Y1863368D01*
X51458165Y1787949D01*
X51458167Y1787949D01*
X51458169Y1787948D01*
X51602121Y1759314D01*
X51651459Y1749500D01*
X52848541Y1749500D01*
X53041835Y1787949D01*
X53223914Y1863368D01*
X53387782Y1972861D01*
X53527139Y2112218D01*
X53636632Y2276086D01*
X53712051Y2458165D01*
X53750500Y2651459D01*
X53750500Y2848541D01*
X53750499Y2848546D01*
X57499500Y2848546D01*
X57499500Y2651455D01*
X57537947Y2458170D01*
X57537949Y2458165D01*
X57613365Y2276092D01*
X57613366Y2276089D01*
X57613368Y2276086D01*
X57722861Y2112218D01*
X57862218Y1972861D01*
X58026086Y1863368D01*
X58208165Y1787949D01*
X58208167Y1787949D01*
X58208169Y1787948D01*
X58352121Y1759314D01*
X58401459Y1749500D01*
X59848541Y1749500D01*
X60041835Y1787949D01*
X60223914Y1863368D01*
X60387782Y1972861D01*
X60527139Y2112218D01*
X60636632Y2276086D01*
X60712051Y2458165D01*
X60750500Y2651459D01*
X60750500Y2848541D01*
X60728885Y2957206D01*
X60712052Y3041831D01*
X60712051Y3041833D01*
X60712051Y3041835D01*
X60636632Y3223914D01*
X60527139Y3387782D01*
X60387782Y3527139D01*
X60223914Y3636632D01*
X60223911Y3636634D01*
X60223908Y3636635D01*
X60041835Y3712051D01*
X60041830Y3712053D01*
X59848545Y3750500D01*
X59848541Y3750500D01*
X58401459Y3750500D01*
X58401454Y3750500D01*
X58208169Y3712053D01*
X58208164Y3712051D01*
X58026091Y3636635D01*
X58026084Y3636631D01*
X57862221Y3527142D01*
X57722858Y3387779D01*
X57613369Y3223916D01*
X57613365Y3223909D01*
X57537949Y3041836D01*
X57537947Y3041831D01*
X57499500Y2848546D01*
X53750499Y2848546D01*
X53728885Y2957206D01*
X53712052Y3041831D01*
X53712051Y3041833D01*
X53712051Y3041835D01*
X53636632Y3223914D01*
X53527139Y3387782D01*
X53387782Y3527139D01*
X53223914Y3636632D01*
X53223911Y3636634D01*
X53223908Y3636635D01*
X53041835Y3712051D01*
X53041830Y3712053D01*
X52848545Y3750500D01*
X52848541Y3750500D01*
X51986229Y3750500D01*
X51890941Y3769454D01*
X51810159Y3823430D01*
X51756183Y3904212D01*
X51737229Y3999500D01*
X51756183Y4094788D01*
X51810159Y4175570D01*
X51983135Y4348546D01*
X64749500Y4348546D01*
X64749500Y2651455D01*
X64787947Y2458170D01*
X64787949Y2458165D01*
X64863365Y2276092D01*
X64863366Y2276089D01*
X64863368Y2276086D01*
X64972861Y2112218D01*
X65112218Y1972861D01*
X65276086Y1863368D01*
X65458165Y1787949D01*
X65458167Y1787949D01*
X65458169Y1787948D01*
X65602121Y1759314D01*
X65651459Y1749500D01*
X65848541Y1749500D01*
X66041835Y1787949D01*
X66223914Y1863368D01*
X66387782Y1972861D01*
X66448933Y2034013D01*
X66529712Y2087986D01*
X66625000Y2106940D01*
X66720288Y2087986D01*
X66801066Y2034013D01*
X66862218Y1972861D01*
X67026086Y1863368D01*
X67208165Y1787949D01*
X67208167Y1787949D01*
X67208169Y1787948D01*
X67352121Y1759314D01*
X67401459Y1749500D01*
X67598541Y1749500D01*
X67791835Y1787949D01*
X67973914Y1863368D01*
X68137782Y1972861D01*
X68277139Y2112218D01*
X68386632Y2276086D01*
X68462051Y2458165D01*
X68500500Y2651459D01*
X68500500Y2848546D01*
X72249500Y2848546D01*
X72249500Y2651455D01*
X72287947Y2458170D01*
X72287949Y2458165D01*
X72363365Y2276092D01*
X72363366Y2276089D01*
X72363368Y2276086D01*
X72472861Y2112218D01*
X72612218Y1972861D01*
X72776086Y1863368D01*
X72958165Y1787949D01*
X72958167Y1787949D01*
X72958169Y1787948D01*
X73102121Y1759314D01*
X73151459Y1749500D01*
X74598541Y1749500D01*
X74791835Y1787949D01*
X74973914Y1863368D01*
X75137782Y1972861D01*
X75277139Y2112218D01*
X75386632Y2276086D01*
X75462051Y2458165D01*
X75500500Y2651459D01*
X75500500Y2848541D01*
X75478885Y2957206D01*
X75462052Y3041831D01*
X75462051Y3041833D01*
X75462051Y3041835D01*
X75386632Y3223914D01*
X75277139Y3387782D01*
X75137782Y3527139D01*
X74973914Y3636632D01*
X74973911Y3636634D01*
X74973908Y3636635D01*
X74791835Y3712051D01*
X74791830Y3712053D01*
X74598545Y3750500D01*
X74598541Y3750500D01*
X73151459Y3750500D01*
X73151454Y3750500D01*
X72958169Y3712053D01*
X72958164Y3712051D01*
X72776091Y3636635D01*
X72776084Y3636631D01*
X72612221Y3527142D01*
X72472858Y3387779D01*
X72363369Y3223916D01*
X72363365Y3223909D01*
X72287949Y3041836D01*
X72287947Y3041831D01*
X72249500Y2848546D01*
X68500500Y2848546D01*
X68500500Y4098546D01*
X79499500Y4098546D01*
X79499500Y2651455D01*
X79537947Y2458170D01*
X79537949Y2458165D01*
X79613365Y2276092D01*
X79613366Y2276089D01*
X79613368Y2276086D01*
X79722861Y2112218D01*
X79862218Y1972861D01*
X80026086Y1863368D01*
X80208165Y1787949D01*
X80208167Y1787949D01*
X80208169Y1787948D01*
X80352121Y1759314D01*
X80401459Y1749500D01*
X80598541Y1749500D01*
X80791835Y1787949D01*
X80973914Y1863368D01*
X81137782Y1972861D01*
X81277139Y2112218D01*
X81386632Y2276086D01*
X81462051Y2458165D01*
X81500500Y2651459D01*
X81500500Y4098541D01*
X81485178Y4175570D01*
X81462052Y4291831D01*
X81462051Y4291833D01*
X81462051Y4291835D01*
X81386632Y4473914D01*
X81277139Y4637782D01*
X81137782Y4777139D01*
X81075608Y4818682D01*
X80973915Y4886631D01*
X80973914Y4886632D01*
X80973911Y4886634D01*
X80973908Y4886635D01*
X80791835Y4962051D01*
X80791830Y4962053D01*
X80598545Y5000500D01*
X80598541Y5000500D01*
X80401459Y5000500D01*
X80401454Y5000500D01*
X80208169Y4962053D01*
X80208164Y4962051D01*
X80026091Y4886635D01*
X80026084Y4886631D01*
X79862221Y4777142D01*
X79722858Y4637779D01*
X79613369Y4473916D01*
X79613365Y4473909D01*
X79537949Y4291836D01*
X79537947Y4291831D01*
X79499500Y4098546D01*
X68500500Y4098546D01*
X68500500Y4348541D01*
X68479585Y4453685D01*
X68462052Y4541831D01*
X68462051Y4541833D01*
X68462051Y4541835D01*
X68386632Y4723914D01*
X68277139Y4887782D01*
X68137782Y5027139D01*
X67973914Y5136632D01*
X67973911Y5136634D01*
X67973908Y5136635D01*
X67791835Y5212051D01*
X67791830Y5212053D01*
X67598545Y5250500D01*
X67598541Y5250500D01*
X67401459Y5250500D01*
X67401454Y5250500D01*
X67208169Y5212053D01*
X67208164Y5212051D01*
X67026091Y5136635D01*
X67026084Y5136631D01*
X66862221Y5027142D01*
X66862218Y5027140D01*
X66862218Y5027139D01*
X66801066Y4965988D01*
X66720288Y4912014D01*
X66625000Y4893060D01*
X66529712Y4912014D01*
X66448933Y4965988D01*
X66387782Y5027139D01*
X66223914Y5136632D01*
X66223911Y5136634D01*
X66223908Y5136635D01*
X66041835Y5212051D01*
X66041830Y5212053D01*
X65848545Y5250500D01*
X65848541Y5250500D01*
X65651459Y5250500D01*
X65651454Y5250500D01*
X65458169Y5212053D01*
X65458164Y5212051D01*
X65276091Y5136635D01*
X65276084Y5136631D01*
X65112221Y5027142D01*
X64972858Y4887779D01*
X64863369Y4723916D01*
X64863365Y4723909D01*
X64787949Y4541836D01*
X64787947Y4541831D01*
X64749500Y4348546D01*
X51983135Y4348546D01*
X54639802Y7005212D01*
X57936160Y10301570D01*
X58016942Y10355546D01*
X58112230Y10374500D01*
X59561606Y10374500D01*
X59561607Y10374500D01*
X59633781Y10388856D01*
X59682452Y10398537D01*
X59721398Y10414669D01*
X59721398Y10414670D01*
X59721402Y10414670D01*
X59781933Y10439743D01*
X59796286Y10445688D01*
X59847509Y10479916D01*
X59898733Y10514142D01*
X59985858Y10601267D01*
X59985859Y10601270D01*
X65186161Y15801570D01*
X65266943Y15855546D01*
X65362231Y15874500D01*
X66861606Y15874500D01*
X66861607Y15874500D01*
X66927642Y15887635D01*
X66982452Y15898537D01*
X67021398Y15914669D01*
X67021399Y15914670D01*
X67021401Y15914670D01*
X67058842Y15930179D01*
X67096286Y15945688D01*
X67147509Y15979916D01*
X67198733Y16014142D01*
X67285858Y16101267D01*
X67285859Y16101270D01*
X67300051Y16115461D01*
X67300053Y16115465D01*
X68061160Y16876570D01*
X68141941Y16930546D01*
X68237229Y16949500D01*
X68244645Y16949500D01*
X68244646Y16949500D01*
X68429803Y16988856D01*
X68602730Y17065849D01*
X68755871Y17177112D01*
X68882533Y17317784D01*
X68977179Y17481716D01*
X69035674Y17661744D01*
X69052993Y17826527D01*
X69081803Y17919312D01*
X69143928Y17994009D01*
X69229909Y18039246D01*
X69300629Y18049500D01*
X72177414Y18049500D01*
X72272702Y18030546D01*
X72353484Y17976570D01*
X79585330Y10744724D01*
X79691872Y10673535D01*
X79731334Y10657190D01*
X79810256Y10624499D01*
X79935929Y10599501D01*
X79935930Y10599500D01*
X79935931Y10599500D01*
X83127414Y10599500D01*
X83222702Y10580546D01*
X83303484Y10526570D01*
X84026570Y9803484D01*
X84080546Y9722702D01*
X84099500Y9627414D01*
X84099500Y8698970D01*
X84080546Y8603682D01*
X84026570Y8522900D01*
X83996858Y8497525D01*
X83894130Y8422889D01*
X83894127Y8422887D01*
X83767469Y8282220D01*
X83672822Y8118286D01*
X83614325Y7938256D01*
X83594540Y7750000D01*
X83614325Y7561745D01*
X83643037Y7473381D01*
X83672821Y7381716D01*
X83672822Y7381714D01*
X83672823Y7381712D01*
X83672824Y7381710D01*
X83766640Y7219217D01*
X83797870Y7127219D01*
X83800000Y7094717D01*
X83800000Y3612959D01*
X83799659Y3599928D01*
X83794422Y3500001D01*
X83799659Y3400074D01*
X83800000Y3387043D01*
X83800000Y324500D01*
X83781046Y229212D01*
X83727070Y148430D01*
X83646288Y94454D01*
X83551000Y75500D01*
X7449000Y75500D01*
X7353712Y94454D01*
X7272930Y148430D01*
X7218954Y229212D01*
X7200000Y324500D01*
X7200000Y3387043D01*
X7200341Y3400074D01*
X7200455Y3402268D01*
X7205578Y3500000D01*
X7185278Y3887338D01*
X7124602Y4270433D01*
X7024214Y4645087D01*
X6885214Y5007194D01*
X6709125Y5352789D01*
X6541349Y5611142D01*
X6497875Y5678086D01*
X6253786Y5979510D01*
X6253785Y5979511D01*
X6253781Y5979516D01*
X5979516Y6253781D01*
X5939503Y6286183D01*
X5678085Y6497876D01*
X5352789Y6709125D01*
X5352784Y6709128D01*
X5007195Y6885214D01*
X4797125Y6965852D01*
X4645087Y7024214D01*
X4270433Y7124602D01*
X4270429Y7124603D01*
X4270428Y7124603D01*
X3887344Y7185277D01*
X3887345Y7185277D01*
X3887343Y7185278D01*
X3887338Y7185278D01*
X3500000Y7205578D01*
X3499999Y7205578D01*
X3400074Y7200341D01*
X3387043Y7200000D01*
X324500Y7200000D01*
X229212Y7218954D01*
X148430Y7272930D01*
X94454Y7353712D01*
X75500Y7449000D01*
X75500Y56551000D01*
X94454Y56646288D01*
X148430Y56727070D01*
X229212Y56781046D01*
X324500Y56800000D01*
X3387043Y56800000D01*
X3400074Y56799659D01*
X3500000Y56794422D01*
X3887338Y56814722D01*
X4270433Y56875398D01*
X4645087Y56975786D01*
X5007194Y57114786D01*
X5352789Y57290875D01*
X5678084Y57502124D01*
X5979516Y57746219D01*
X6253781Y58020484D01*
X6497876Y58321916D01*
X6709125Y58647211D01*
X6885214Y58992806D01*
X7024214Y59354913D01*
X7124602Y59729567D01*
X7185278Y60112662D01*
X7205578Y60500000D01*
X7200341Y60599928D01*
X7200000Y60612959D01*
X7200000Y63675500D01*
X7218954Y63770788D01*
X7272930Y63851570D01*
X7353712Y63905546D01*
X7449000Y63924500D01*
X46901000Y63924500D01*
X46996288Y63905546D01*
G37*
%TD.AperFunction*%
%TA.AperFunction,Conductor*%
G36*
X30150000Y14850000D02*
G01*
X30177916Y14850000D01*
X30255527Y14834563D01*
X30333139Y14850000D01*
X31381940Y14850000D01*
X31477228Y14831046D01*
X31558010Y14777070D01*
X37472858Y8862222D01*
X37472861Y8862218D01*
X37612218Y8722861D01*
X37776086Y8613368D01*
X37883519Y8568868D01*
X37904834Y8560039D01*
X37958164Y8537949D01*
X37986980Y8532217D01*
X37986982Y8532217D01*
X37986986Y8532216D01*
X38151459Y8499500D01*
X38151460Y8499500D01*
X38348540Y8499500D01*
X44182440Y8499500D01*
X44277728Y8480546D01*
X44358510Y8426570D01*
X45172858Y7612222D01*
X45172861Y7612218D01*
X45312218Y7472861D01*
X45476086Y7363368D01*
X45604834Y7310039D01*
X45658164Y7287949D01*
X45687709Y7282072D01*
X45687711Y7282072D01*
X45687715Y7282071D01*
X45851459Y7249500D01*
X45851460Y7249500D01*
X46048540Y7249500D01*
X48232440Y7249500D01*
X48327728Y7230546D01*
X48408510Y7176570D01*
X48676570Y6908510D01*
X48730546Y6827728D01*
X48749500Y6732440D01*
X48749500Y6151455D01*
X48787947Y5958170D01*
X48787949Y5958165D01*
X48863365Y5776092D01*
X48863366Y5776089D01*
X48863368Y5776086D01*
X48972861Y5612218D01*
X49112218Y5472861D01*
X49211034Y5406834D01*
X49286257Y5356572D01*
X49285452Y5355368D01*
X49350090Y5302328D01*
X49395894Y5216647D01*
X49405422Y5119961D01*
X49377226Y5026988D01*
X49333690Y4968283D01*
X48563840Y4198431D01*
X48483058Y4144454D01*
X48387770Y4125500D01*
X43586649Y4125500D01*
X43491361Y4144454D01*
X43410579Y4198430D01*
X43356603Y4279212D01*
X43337649Y4374500D01*
X43349836Y4451446D01*
X43363324Y4492960D01*
X43385674Y4561744D01*
X43405460Y4750000D01*
X43385674Y4938256D01*
X43327179Y5118284D01*
X43232533Y5282216D01*
X43232531Y5282219D01*
X43232530Y5282220D01*
X43105873Y5422886D01*
X43105872Y5422887D01*
X43105871Y5422888D01*
X43029300Y5478520D01*
X42952728Y5534153D01*
X42779810Y5611142D01*
X42779796Y5611146D01*
X42594646Y5650500D01*
X42405354Y5650500D01*
X42220203Y5611146D01*
X42220189Y5611142D01*
X42047271Y5534153D01*
X41894126Y5422886D01*
X41767469Y5282220D01*
X41672822Y5118286D01*
X41614325Y4938256D01*
X41594540Y4750000D01*
X41614326Y4561744D01*
X41614326Y4561742D01*
X41650164Y4451446D01*
X41661583Y4354964D01*
X41635212Y4261457D01*
X41575064Y4185159D01*
X41490297Y4137687D01*
X41413351Y4125500D01*
X35392746Y4125500D01*
X35297458Y4144454D01*
X35216676Y4198430D01*
X35162700Y4279212D01*
X35145110Y4348474D01*
X35145102Y4348546D01*
X35135674Y4438256D01*
X35077179Y4618284D01*
X35065922Y4637782D01*
X35033359Y4694184D01*
X35002130Y4786183D01*
X35000000Y4818682D01*
X35000000Y5181319D01*
X35018954Y5276607D01*
X35033360Y5305819D01*
X35052540Y5339040D01*
X35077179Y5381716D01*
X35135674Y5561744D01*
X35155460Y5750000D01*
X35135674Y5938256D01*
X35077179Y6118284D01*
X35058028Y6151455D01*
X35033359Y6194184D01*
X35002130Y6286183D01*
X35000000Y6318682D01*
X35000000Y7431319D01*
X35018954Y7526607D01*
X35033360Y7555819D01*
X35038296Y7564369D01*
X35077179Y7631716D01*
X35135674Y7811744D01*
X35155460Y8000000D01*
X35135674Y8188256D01*
X35077179Y8368284D01*
X35071742Y8377700D01*
X35033359Y8444184D01*
X35002130Y8536183D01*
X35000000Y8568682D01*
X35000000Y8931319D01*
X35018954Y9026607D01*
X35033360Y9055819D01*
X35074407Y9126915D01*
X35077179Y9131716D01*
X35135674Y9311744D01*
X35155460Y9500000D01*
X35135674Y9688256D01*
X35077179Y9868284D01*
X34982533Y10032216D01*
X34982531Y10032219D01*
X34982530Y10032220D01*
X34855873Y10172886D01*
X34855872Y10172887D01*
X34855871Y10172888D01*
X34742030Y10255598D01*
X34702728Y10284153D01*
X34529810Y10361142D01*
X34529796Y10361146D01*
X34344646Y10400500D01*
X34155354Y10400500D01*
X33970203Y10361146D01*
X33970189Y10361142D01*
X33797272Y10284153D01*
X33678767Y10198054D01*
X33590536Y10157380D01*
X33532409Y10150500D01*
X28899000Y10150500D01*
X28803712Y10169454D01*
X28722930Y10223430D01*
X28668954Y10304212D01*
X28650000Y10399500D01*
X28650000Y13168861D01*
X28668954Y13264149D01*
X28680000Y13280681D01*
X28680000Y14286314D01*
X28684394Y14281920D01*
X28775606Y14229259D01*
X28877339Y14202000D01*
X28982661Y14202000D01*
X29084394Y14229259D01*
X29175606Y14281920D01*
X29180000Y14286314D01*
X29180000Y13302001D01*
X29180001Y13302000D01*
X29777825Y13302000D01*
X29777832Y13302001D01*
X29837371Y13308402D01*
X29837378Y13308404D01*
X29972087Y13358647D01*
X30087187Y13444811D01*
X30087189Y13444813D01*
X30173353Y13559913D01*
X30223596Y13694622D01*
X30223598Y13694629D01*
X30229999Y13754168D01*
X30230000Y13754175D01*
X30230000Y14351999D01*
X30220021Y14361978D01*
X30169861Y14352000D01*
X29245686Y14352000D01*
X29250080Y14356394D01*
X29302741Y14447606D01*
X29330000Y14549339D01*
X29330000Y14654661D01*
X29302741Y14756394D01*
X29250080Y14847606D01*
X29245686Y14852000D01*
X30160667Y14852000D01*
X30150000Y14850000D01*
G37*
%TD.AperFunction*%
%TA.AperFunction,Conductor*%
G36*
X70814551Y61830546D02*
G01*
X70895333Y61776570D01*
X70949309Y61695788D01*
X70968263Y61600500D01*
X70949309Y61505212D01*
X70901562Y61433754D01*
X70902860Y61432585D01*
X70767469Y61282220D01*
X70672822Y61118286D01*
X70614325Y60938256D01*
X70594540Y60750000D01*
X70614325Y60561745D01*
X70642155Y60476097D01*
X70672821Y60381716D01*
X70767467Y60217784D01*
X70767469Y60217781D01*
X70894126Y60077115D01*
X70894129Y60077112D01*
X70973489Y60019454D01*
X71047271Y59965848D01*
X71220189Y59888859D01*
X71220192Y59888858D01*
X71220197Y59888856D01*
X71405354Y59849500D01*
X71602917Y59849500D01*
X71612453Y59850000D01*
X73301107Y59850000D01*
X73396395Y59831046D01*
X73477177Y59777070D01*
X73531153Y59696288D01*
X73531153Y59696287D01*
X73593365Y59546092D01*
X73593366Y59546089D01*
X73593368Y59546086D01*
X73702861Y59382218D01*
X73842218Y59242861D01*
X73842221Y59242859D01*
X74722858Y58362222D01*
X74722861Y58362218D01*
X74862218Y58222861D01*
X75026086Y58113368D01*
X75126783Y58071659D01*
X75126785Y58071657D01*
X75208161Y58037950D01*
X75208162Y58037950D01*
X75208164Y58037949D01*
X75295966Y58020484D01*
X75401459Y57999500D01*
X75401460Y57999500D01*
X75598540Y57999500D01*
X77982440Y57999500D01*
X78077728Y57980546D01*
X78158510Y57926570D01*
X79676570Y56408510D01*
X79730546Y56327728D01*
X79749500Y56232440D01*
X79749500Y50651455D01*
X79787947Y50458170D01*
X79787949Y50458165D01*
X79863365Y50276092D01*
X79863366Y50276089D01*
X79863368Y50276086D01*
X79882688Y50247172D01*
X79963179Y50126707D01*
X79972861Y50112218D01*
X80112218Y49972861D01*
X80112221Y49972859D01*
X84777070Y45308010D01*
X84831046Y45227228D01*
X84850000Y45131940D01*
X84850000Y41815000D01*
X84848636Y41788974D01*
X84844540Y41750000D01*
X84847333Y41723430D01*
X84848636Y41711029D01*
X84850000Y41685002D01*
X84850000Y40315000D01*
X84848636Y40288974D01*
X84844930Y40253712D01*
X84844540Y40250000D01*
X84845845Y40237583D01*
X84864325Y40061745D01*
X84884388Y40000000D01*
X84922821Y39881716D01*
X85017467Y39717784D01*
X85017469Y39717781D01*
X85113486Y39611144D01*
X85144129Y39577112D01*
X85225099Y39518284D01*
X85297271Y39465848D01*
X85470189Y39388859D01*
X85470192Y39388858D01*
X85470197Y39388856D01*
X85655354Y39349500D01*
X85852917Y39349500D01*
X85862453Y39350000D01*
X86750500Y39350000D01*
X86845788Y39331046D01*
X86926570Y39277070D01*
X86980546Y39196288D01*
X86999500Y39101000D01*
X86999500Y36414008D01*
X86980546Y36318720D01*
X86926570Y36237939D01*
X86417048Y35728417D01*
X86388278Y35685357D01*
X86388276Y35685354D01*
X86334917Y35605497D01*
X86334915Y35605493D01*
X86278341Y35468912D01*
X86249500Y35323921D01*
X86249500Y35081813D01*
X86230546Y34986525D01*
X86176570Y34905743D01*
X86095788Y34851767D01*
X86000500Y34832813D01*
X85905213Y34851767D01*
X85736691Y34921571D01*
X85543489Y34960000D01*
X85145001Y34960000D01*
X85145000Y34959999D01*
X85145000Y34260000D01*
X84645000Y34260000D01*
X84645000Y34959999D01*
X84643379Y34961620D01*
X84556234Y34978954D01*
X84475452Y35032930D01*
X84421476Y35113712D01*
X84402522Y35209000D01*
X84403885Y35235019D01*
X84405460Y35250000D01*
X84385674Y35438256D01*
X84327179Y35618284D01*
X84232533Y35782216D01*
X84232531Y35782219D01*
X84232530Y35782220D01*
X84105873Y35922886D01*
X84105872Y35922887D01*
X84105871Y35922888D01*
X84018806Y35986144D01*
X83952728Y36034153D01*
X83779810Y36111142D01*
X83779796Y36111146D01*
X83594646Y36150500D01*
X83405354Y36150500D01*
X83220203Y36111146D01*
X83220189Y36111142D01*
X83047272Y36034153D01*
X83046762Y36033858D01*
X83046124Y36033642D01*
X83035349Y36028844D01*
X83034908Y36029835D01*
X82954763Y36002630D01*
X82922265Y36000500D01*
X82676079Y36000500D01*
X82531088Y35971659D01*
X82394507Y35915085D01*
X82394502Y35915083D01*
X82345271Y35882189D01*
X82345270Y35882187D01*
X82335262Y35875500D01*
X82271579Y35832949D01*
X82271578Y35832948D01*
X81667049Y35228418D01*
X81667047Y35228415D01*
X81626634Y35167931D01*
X81626633Y35167929D01*
X81584917Y35105497D01*
X81584915Y35105493D01*
X81528341Y34968912D01*
X81499500Y34823921D01*
X81499500Y32918944D01*
X81500000Y32908771D01*
X81500000Y31701115D01*
X81481046Y31605827D01*
X81427070Y31525045D01*
X81352278Y31473643D01*
X81297271Y31449153D01*
X81144126Y31337886D01*
X81017469Y31197220D01*
X80922822Y31033286D01*
X80922821Y31033284D01*
X80922474Y31032216D01*
X80864325Y30853256D01*
X80844540Y30665000D01*
X80864326Y30476744D01*
X80864326Y30476742D01*
X80922819Y30296720D01*
X80941423Y30264496D01*
X80972650Y30172496D01*
X80966294Y30075549D01*
X80941423Y30015504D01*
X80922820Y29983282D01*
X80860845Y29792546D01*
X80813372Y29707779D01*
X80737074Y29647632D01*
X80643567Y29621260D01*
X80547085Y29632680D01*
X80522753Y29642021D01*
X80503709Y29650500D01*
X80479803Y29661144D01*
X80479800Y29661145D01*
X80479796Y29661146D01*
X80294646Y29700500D01*
X80105354Y29700500D01*
X79920203Y29661146D01*
X79920189Y29661142D01*
X79747271Y29584153D01*
X79594126Y29472886D01*
X79467469Y29332220D01*
X79372822Y29168286D01*
X79314325Y28988256D01*
X79294540Y28800000D01*
X79314325Y28611745D01*
X79330572Y28561744D01*
X79372821Y28431716D01*
X79459220Y28282069D01*
X79467469Y28267781D01*
X79594126Y28127115D01*
X79594129Y28127112D01*
X79676112Y28067548D01*
X79747271Y28015848D01*
X79920189Y27938859D01*
X79920192Y27938858D01*
X79920197Y27938856D01*
X80105354Y27899500D01*
X80302917Y27899500D01*
X80312453Y27900000D01*
X82250500Y27900000D01*
X82345788Y27881046D01*
X82426570Y27827070D01*
X82480546Y27746288D01*
X82499500Y27651000D01*
X82499500Y27414008D01*
X82480546Y27318720D01*
X82426570Y27237939D01*
X81917047Y26728416D01*
X81891210Y26689745D01*
X81891208Y26689743D01*
X81834918Y26605498D01*
X81834913Y26605490D01*
X81778341Y26468912D01*
X81749500Y26323921D01*
X81749500Y24664008D01*
X81730546Y24568720D01*
X81676570Y24487938D01*
X81512062Y24323430D01*
X81431280Y24269454D01*
X81335992Y24250500D01*
X79577735Y24250500D01*
X79482447Y24269454D01*
X79453238Y24283858D01*
X79452727Y24284153D01*
X79279810Y24361142D01*
X79279796Y24361146D01*
X79094646Y24400500D01*
X78905354Y24400500D01*
X78720203Y24361146D01*
X78720189Y24361142D01*
X78547272Y24284153D01*
X78546762Y24283858D01*
X78546124Y24283642D01*
X78535349Y24278844D01*
X78534908Y24279835D01*
X78454763Y24252630D01*
X78433676Y24251248D01*
X78426082Y24250500D01*
X78398079Y24244930D01*
X78398078Y24244931D01*
X78281092Y24221661D01*
X78281087Y24221659D01*
X78201081Y24188521D01*
X78201082Y24188520D01*
X78144507Y24165086D01*
X78083767Y24124500D01*
X78083765Y24124499D01*
X78021589Y24082956D01*
X75562062Y21623430D01*
X75481280Y21569454D01*
X75385992Y21550500D01*
X75077735Y21550500D01*
X74982447Y21569454D01*
X74953238Y21583858D01*
X74952727Y21584153D01*
X74779810Y21661142D01*
X74779796Y21661146D01*
X74594646Y21700500D01*
X74405354Y21700500D01*
X74220203Y21661146D01*
X74220189Y21661142D01*
X74047271Y21584153D01*
X73894126Y21472886D01*
X73767469Y21332220D01*
X73722577Y21254464D01*
X73672821Y21168284D01*
X73663113Y21138407D01*
X73614325Y20988256D01*
X73594540Y20800000D01*
X73614325Y20611745D01*
X73637117Y20541601D01*
X73672821Y20431716D01*
X73721711Y20347036D01*
X73767469Y20267781D01*
X73889984Y20131715D01*
X73894129Y20127112D01*
X73984101Y20061744D01*
X74047271Y20015848D01*
X74220189Y19938859D01*
X74220192Y19938858D01*
X74220197Y19938856D01*
X74405354Y19899500D01*
X74594645Y19899500D01*
X74594646Y19899500D01*
X74779803Y19938856D01*
X74803216Y19949280D01*
X74844769Y19967781D01*
X74952730Y20015849D01*
X74952734Y20015853D01*
X74953238Y20016142D01*
X74953875Y20016359D01*
X74964651Y20021156D01*
X74965091Y20020166D01*
X75045237Y20047370D01*
X75077735Y20049500D01*
X75873919Y20049500D01*
X75873919Y20049501D01*
X76018913Y20078342D01*
X76155495Y20134916D01*
X76224281Y20180877D01*
X76278416Y20217048D01*
X78608129Y22546764D01*
X78688908Y22600737D01*
X78784196Y22619691D01*
X78835961Y22614250D01*
X78905354Y22599500D01*
X79094645Y22599500D01*
X79094646Y22599500D01*
X79279803Y22638856D01*
X79311479Y22652959D01*
X79399221Y22692025D01*
X79452730Y22715849D01*
X79452734Y22715853D01*
X79453238Y22716142D01*
X79453875Y22716359D01*
X79464651Y22721156D01*
X79465091Y22720166D01*
X79545237Y22747370D01*
X79577735Y22749500D01*
X81426082Y22749500D01*
X81676083Y22749500D01*
X81823917Y22749500D01*
X81926082Y22749500D01*
X82426082Y22749500D01*
X82573918Y22749500D01*
X83176082Y22749500D01*
X83323917Y22749500D01*
X83501000Y22749500D01*
X83596288Y22730546D01*
X83677070Y22676570D01*
X83731046Y22595788D01*
X83750000Y22500500D01*
X83750000Y21068682D01*
X83731046Y20973394D01*
X83716641Y20944184D01*
X83672823Y20868289D01*
X83614325Y20688256D01*
X83594540Y20500000D01*
X83614325Y20311745D01*
X83632742Y20255066D01*
X83672821Y20131716D01*
X83764367Y19973154D01*
X83767469Y19967781D01*
X83874076Y19849383D01*
X83894129Y19827112D01*
X83993002Y19755277D01*
X84047271Y19715848D01*
X84220189Y19638859D01*
X84220192Y19638858D01*
X84220197Y19638856D01*
X84405354Y19599500D01*
X84594645Y19599500D01*
X84594646Y19599500D01*
X84779803Y19638856D01*
X84952730Y19715849D01*
X84978639Y19734674D01*
X85066869Y19775349D01*
X85163949Y19779165D01*
X85255099Y19745539D01*
X85271361Y19734673D01*
X85297270Y19715849D01*
X85470189Y19638859D01*
X85470192Y19638858D01*
X85470197Y19638856D01*
X85655354Y19599500D01*
X85844645Y19599500D01*
X85844646Y19599500D01*
X85948732Y19621625D01*
X86045877Y19622895D01*
X86136115Y19586894D01*
X86205707Y19519100D01*
X86244059Y19429835D01*
X86249500Y19378065D01*
X86249500Y17414008D01*
X86230546Y17318720D01*
X86176570Y17237938D01*
X84762062Y15823430D01*
X84681280Y15769454D01*
X84585992Y15750500D01*
X81577735Y15750500D01*
X81482447Y15769454D01*
X81453238Y15783858D01*
X81452727Y15784153D01*
X81279810Y15861142D01*
X81279796Y15861146D01*
X81094646Y15900500D01*
X80905354Y15900500D01*
X80720203Y15861146D01*
X80720189Y15861142D01*
X80547271Y15784153D01*
X80394126Y15672886D01*
X80267469Y15532220D01*
X80172822Y15368286D01*
X80114325Y15188256D01*
X80094540Y15000000D01*
X80114325Y14811745D01*
X80132310Y14756394D01*
X80172821Y14631716D01*
X80267467Y14467784D01*
X80267469Y14467781D01*
X80394126Y14327115D01*
X80394129Y14327112D01*
X80500952Y14249501D01*
X80547271Y14215848D01*
X80720189Y14138859D01*
X80720192Y14138858D01*
X80720197Y14138856D01*
X80905354Y14099500D01*
X81094645Y14099500D01*
X81094646Y14099500D01*
X81279803Y14138856D01*
X81452730Y14215849D01*
X81452734Y14215853D01*
X81453238Y14216142D01*
X81453875Y14216359D01*
X81464651Y14221156D01*
X81465091Y14220166D01*
X81545237Y14247370D01*
X81577735Y14249500D01*
X85073919Y14249500D01*
X85073919Y14249501D01*
X85218913Y14278342D01*
X85355495Y14334916D01*
X85415946Y14375308D01*
X85478416Y14417048D01*
X87582951Y16521584D01*
X87618977Y16575501D01*
X87665084Y16644505D01*
X87721658Y16781087D01*
X87750500Y16926082D01*
X87750500Y24269195D01*
X87769454Y24364483D01*
X87823430Y24445265D01*
X87904212Y24499241D01*
X87999500Y24518195D01*
X88094788Y24499241D01*
X88137838Y24476230D01*
X88201318Y24433813D01*
X88201327Y24433809D01*
X88383308Y24358430D01*
X88576511Y24320000D01*
X88824999Y24320000D01*
X88825000Y24320001D01*
X88825000Y25020000D01*
X89325000Y25020000D01*
X89325000Y24320001D01*
X89325001Y24320000D01*
X89573489Y24320000D01*
X89766691Y24358430D01*
X89948672Y24433809D01*
X89948679Y24433812D01*
X90112459Y24543247D01*
X90251753Y24682541D01*
X90361188Y24846321D01*
X90361191Y24846328D01*
X90436568Y25028306D01*
X90437222Y25030459D01*
X90438282Y25032444D01*
X90441252Y25039612D01*
X90441958Y25039320D01*
X90483021Y25116141D01*
X90558123Y25177776D01*
X90651094Y25205978D01*
X90747782Y25196455D01*
X90833464Y25150656D01*
X90895099Y25075554D01*
X90923301Y24982583D01*
X90924500Y24958177D01*
X90924500Y7449000D01*
X90905546Y7353712D01*
X90851570Y7272930D01*
X90770788Y7218954D01*
X90675500Y7200000D01*
X87612957Y7200000D01*
X87599926Y7200341D01*
X87500000Y7205578D01*
X87400074Y7200341D01*
X87387043Y7200000D01*
X86860856Y7200000D01*
X86765568Y7218954D01*
X86684786Y7272930D01*
X86630810Y7353712D01*
X86611856Y7449000D01*
X86624043Y7525945D01*
X86635672Y7561738D01*
X86635671Y7561738D01*
X86635674Y7561744D01*
X86655460Y7750000D01*
X86635674Y7938256D01*
X86577179Y8118284D01*
X86482533Y8282216D01*
X86482531Y8282219D01*
X86482530Y8282220D01*
X86355872Y8422887D01*
X86355871Y8422888D01*
X86253142Y8497525D01*
X86187193Y8568868D01*
X86153566Y8660018D01*
X86150500Y8698970D01*
X86150500Y10314070D01*
X86150499Y10314072D01*
X86141135Y10361146D01*
X86125501Y10439744D01*
X86099453Y10502630D01*
X86076466Y10558126D01*
X86055028Y10590210D01*
X86005277Y10664669D01*
X84164669Y12505277D01*
X84163599Y12505992D01*
X84058127Y12576466D01*
X83939746Y12625500D01*
X83939744Y12625501D01*
X83939742Y12625502D01*
X83939741Y12625502D01*
X83814071Y12650500D01*
X83814069Y12650500D01*
X80622586Y12650500D01*
X80527298Y12669454D01*
X80446516Y12723430D01*
X73414669Y19755277D01*
X73308127Y19826466D01*
X73204294Y19869474D01*
X73189744Y19875501D01*
X73189742Y19875502D01*
X73189741Y19875502D01*
X73064071Y19900500D01*
X73064069Y19900500D01*
X71145269Y19900500D01*
X71049981Y19919454D01*
X70969199Y19973430D01*
X70915223Y20054212D01*
X70896269Y20149500D01*
X70897633Y20175526D01*
X70905460Y20249999D01*
X70905460Y20250000D01*
X70885674Y20438256D01*
X70865612Y20500000D01*
X70827179Y20618284D01*
X70732533Y20782216D01*
X70631120Y20894846D01*
X70581446Y20978341D01*
X70567505Y21074490D01*
X70579350Y21138400D01*
X70635674Y21311744D01*
X70655460Y21500000D01*
X70635674Y21688256D01*
X70577179Y21868284D01*
X70482533Y22032216D01*
X70482531Y22032219D01*
X70482530Y22032220D01*
X70355873Y22172886D01*
X70355872Y22172887D01*
X70355871Y22172888D01*
X70279300Y22228520D01*
X70202728Y22284153D01*
X70029810Y22361142D01*
X70029796Y22361146D01*
X69844646Y22400500D01*
X69655354Y22400500D01*
X69470203Y22361146D01*
X69470189Y22361142D01*
X69297271Y22284153D01*
X69144126Y22172886D01*
X69144125Y22172886D01*
X69031864Y22048208D01*
X68954018Y21990078D01*
X68859852Y21966164D01*
X68763703Y21980106D01*
X68745545Y21987350D01*
X68739418Y21990078D01*
X68579803Y22061144D01*
X68579798Y22061145D01*
X68579796Y22061146D01*
X68394646Y22100500D01*
X68205354Y22100500D01*
X68020203Y22061146D01*
X68020189Y22061142D01*
X67847271Y21984153D01*
X67694126Y21872886D01*
X67567469Y21732220D01*
X67477444Y21576292D01*
X67472821Y21568284D01*
X67459293Y21526648D01*
X67414325Y21388256D01*
X67394540Y21200001D01*
X67398636Y21161029D01*
X67400000Y21135002D01*
X67400000Y20149500D01*
X67381046Y20054212D01*
X67327070Y19973430D01*
X67246288Y19919454D01*
X67151000Y19900500D01*
X56685925Y19900500D01*
X56560262Y19875504D01*
X56560259Y19875502D01*
X56560257Y19875502D01*
X56560256Y19875501D01*
X56549000Y19870839D01*
X56545701Y19869472D01*
X56441871Y19826465D01*
X56335329Y19755276D01*
X51353484Y14773430D01*
X51272702Y14719454D01*
X51177414Y14700500D01*
X47861018Y14700500D01*
X47765730Y14719454D01*
X47684948Y14773430D01*
X47630972Y14854212D01*
X47612018Y14949500D01*
X47624205Y15026446D01*
X47635673Y15061742D01*
X47635674Y15061744D01*
X47644541Y15146121D01*
X47673350Y15238903D01*
X47716104Y15296160D01*
X53046516Y20626570D01*
X53127298Y20680546D01*
X53222586Y20699500D01*
X62864070Y20699500D01*
X62864070Y20699501D01*
X62989744Y20724499D01*
X63108127Y20773535D01*
X63121119Y20782216D01*
X63214669Y20844723D01*
X65321516Y22951570D01*
X65393998Y23000000D01*
X72344540Y23000000D01*
X72364325Y22811745D01*
X72386034Y22744935D01*
X72422821Y22631716D01*
X72501099Y22496134D01*
X72517469Y22467781D01*
X72636729Y22335330D01*
X72644129Y22327112D01*
X72758984Y22243665D01*
X72797271Y22215848D01*
X72970189Y22138859D01*
X72970192Y22138858D01*
X72970197Y22138856D01*
X73155354Y22099500D01*
X73344645Y22099500D01*
X73344646Y22099500D01*
X73529803Y22138856D01*
X73702730Y22215849D01*
X73855871Y22327112D01*
X73982533Y22467784D01*
X74077179Y22631716D01*
X74135674Y22811744D01*
X74155460Y23000000D01*
X74135674Y23188256D01*
X74077179Y23368284D01*
X73982533Y23532216D01*
X73982531Y23532219D01*
X73982530Y23532220D01*
X73855873Y23672886D01*
X73855872Y23672887D01*
X73855871Y23672888D01*
X73763167Y23740241D01*
X73702728Y23784153D01*
X73529810Y23861142D01*
X73529796Y23861146D01*
X73344646Y23900500D01*
X73155354Y23900500D01*
X72970203Y23861146D01*
X72970189Y23861142D01*
X72797271Y23784153D01*
X72644126Y23672886D01*
X72517469Y23532220D01*
X72422822Y23368286D01*
X72364325Y23188256D01*
X72344540Y23000000D01*
X65393998Y23000000D01*
X65402298Y23005546D01*
X65497586Y23024500D01*
X68539070Y23024500D01*
X68539070Y23024501D01*
X68664744Y23049499D01*
X68783127Y23098535D01*
X68800962Y23110452D01*
X68889669Y23169723D01*
X69298267Y23578322D01*
X69379046Y23632295D01*
X69432098Y23645769D01*
X69431882Y23646787D01*
X69444646Y23649500D01*
X69629803Y23688856D01*
X69703484Y23721661D01*
X69802728Y23765848D01*
X69802728Y23765849D01*
X69802730Y23765849D01*
X69955871Y23877112D01*
X70082533Y24017784D01*
X70177179Y24181716D01*
X70235674Y24361744D01*
X70255460Y24550000D01*
X70235674Y24738256D01*
X70177179Y24918284D01*
X70082533Y25082216D01*
X70082531Y25082219D01*
X70082530Y25082220D01*
X69955873Y25222886D01*
X69955872Y25222887D01*
X69955871Y25222888D01*
X69918554Y25250000D01*
X71844540Y25250000D01*
X71864325Y25061745D01*
X71890047Y24982583D01*
X71922821Y24881716D01*
X71984784Y24774393D01*
X72017469Y24717781D01*
X72125000Y24598357D01*
X72144129Y24577112D01*
X72210123Y24529165D01*
X72297271Y24465848D01*
X72470189Y24388859D01*
X72470192Y24388858D01*
X72470197Y24388856D01*
X72655354Y24349500D01*
X72844645Y24349500D01*
X72844646Y24349500D01*
X73029803Y24388856D01*
X73202730Y24465849D01*
X73228639Y24484674D01*
X73316869Y24525349D01*
X73413949Y24529165D01*
X73505099Y24495539D01*
X73521361Y24484673D01*
X73547270Y24465849D01*
X73720189Y24388859D01*
X73720192Y24388858D01*
X73720197Y24388856D01*
X73905354Y24349500D01*
X74094645Y24349500D01*
X74094646Y24349500D01*
X74279803Y24388856D01*
X74356615Y24423055D01*
X74452728Y24465848D01*
X74452728Y24465849D01*
X74452730Y24465849D01*
X74605871Y24577112D01*
X74732533Y24717784D01*
X74827179Y24881716D01*
X74885674Y25061744D01*
X74905460Y25250000D01*
X74885674Y25438256D01*
X74827179Y25618284D01*
X74732533Y25782216D01*
X74732531Y25782219D01*
X74732530Y25782220D01*
X74605873Y25922886D01*
X74605872Y25922887D01*
X74605871Y25922888D01*
X74529300Y25978520D01*
X74452728Y26034153D01*
X74279810Y26111142D01*
X74279796Y26111146D01*
X74094646Y26150500D01*
X73905354Y26150500D01*
X73720203Y26111146D01*
X73720189Y26111142D01*
X73547272Y26034153D01*
X73521358Y26015325D01*
X73433127Y25974651D01*
X73336047Y25970837D01*
X73244897Y26004464D01*
X73228642Y26015325D01*
X73202727Y26034153D01*
X73029810Y26111142D01*
X73029796Y26111146D01*
X72844646Y26150500D01*
X72655354Y26150500D01*
X72470203Y26111146D01*
X72470189Y26111142D01*
X72297271Y26034153D01*
X72144126Y25922886D01*
X72017469Y25782220D01*
X71942839Y25652956D01*
X71922821Y25618284D01*
X71916736Y25599556D01*
X71864325Y25438256D01*
X71844540Y25250000D01*
X69918554Y25250000D01*
X69802730Y25334151D01*
X69802729Y25334152D01*
X69647721Y25403167D01*
X69568381Y25459240D01*
X69516538Y25541407D01*
X69500000Y25630639D01*
X69500000Y28181319D01*
X69518954Y28276607D01*
X69533360Y28305819D01*
X69551577Y28337372D01*
X69577179Y28381716D01*
X69635674Y28561744D01*
X69655460Y28750000D01*
X72844540Y28750000D01*
X72864325Y28561745D01*
X72881434Y28509091D01*
X72922821Y28381716D01*
X73017467Y28217784D01*
X73017469Y28217781D01*
X73124499Y28098913D01*
X73144129Y28077112D01*
X73246885Y28002456D01*
X73297271Y27965848D01*
X73470189Y27888859D01*
X73470192Y27888858D01*
X73470197Y27888856D01*
X73655354Y27849500D01*
X73844645Y27849500D01*
X73844646Y27849500D01*
X74029803Y27888856D01*
X74202730Y27965849D01*
X74228639Y27984674D01*
X74316869Y28025349D01*
X74413949Y28029165D01*
X74505099Y27995539D01*
X74521361Y27984673D01*
X74547270Y27965849D01*
X74720189Y27888859D01*
X74720192Y27888858D01*
X74720197Y27888856D01*
X74905354Y27849500D01*
X75094645Y27849500D01*
X75094646Y27849500D01*
X75279803Y27888856D01*
X75392104Y27938856D01*
X75452728Y27965848D01*
X75452728Y27965849D01*
X75452730Y27965849D01*
X75605871Y28077112D01*
X75732533Y28217784D01*
X75827179Y28381716D01*
X75885674Y28561744D01*
X75905460Y28750000D01*
X75885674Y28938256D01*
X75827179Y29118284D01*
X75732533Y29282216D01*
X75732531Y29282219D01*
X75732530Y29282220D01*
X75605873Y29422886D01*
X75605872Y29422887D01*
X75605871Y29422888D01*
X75494422Y29503860D01*
X75452728Y29534153D01*
X75279810Y29611142D01*
X75279796Y29611146D01*
X75094646Y29650500D01*
X74905354Y29650500D01*
X74720203Y29611146D01*
X74720189Y29611142D01*
X74547272Y29534153D01*
X74521358Y29515325D01*
X74433127Y29474651D01*
X74336047Y29470837D01*
X74244897Y29504464D01*
X74228642Y29515325D01*
X74202727Y29534153D01*
X74029810Y29611142D01*
X74029796Y29611146D01*
X73844646Y29650500D01*
X73655354Y29650500D01*
X73470203Y29611146D01*
X73470189Y29611142D01*
X73297271Y29534153D01*
X73144126Y29422886D01*
X73017469Y29282220D01*
X72951688Y29168284D01*
X72922821Y29118284D01*
X72920696Y29111744D01*
X72864325Y28938256D01*
X72844540Y28750000D01*
X69655460Y28750000D01*
X69635674Y28938256D01*
X69577179Y29118284D01*
X69482533Y29282216D01*
X69482531Y29282219D01*
X69482530Y29282220D01*
X69355873Y29422886D01*
X69355872Y29422887D01*
X69355871Y29422888D01*
X69244422Y29503860D01*
X69202728Y29534153D01*
X69029810Y29611142D01*
X69029796Y29611146D01*
X68844646Y29650500D01*
X68655354Y29650500D01*
X68470203Y29611146D01*
X68470189Y29611142D01*
X68297271Y29534153D01*
X68144126Y29422886D01*
X68017469Y29282220D01*
X67951688Y29168284D01*
X67922821Y29118284D01*
X67920696Y29111744D01*
X67864325Y28938256D01*
X67844540Y28750000D01*
X67864325Y28561745D01*
X67881434Y28509091D01*
X67922821Y28381716D01*
X67922822Y28381715D01*
X67922823Y28381712D01*
X67922824Y28381710D01*
X68000051Y28247949D01*
X68017467Y28217784D01*
X68060542Y28169944D01*
X68110217Y28086452D01*
X68124500Y28003331D01*
X68124500Y26862230D01*
X68105546Y26766942D01*
X68051570Y26686160D01*
X67813840Y26448430D01*
X67733058Y26394454D01*
X67637770Y26375500D01*
X63716196Y26375500D01*
X63620908Y26394454D01*
X63540126Y26448430D01*
X63486150Y26529212D01*
X63467196Y26624500D01*
X63486150Y26719788D01*
X63500556Y26749000D01*
X63558579Y26849500D01*
X63577179Y26881716D01*
X63635674Y27061744D01*
X63655460Y27250000D01*
X63635674Y27438256D01*
X63577179Y27618284D01*
X63482533Y27782216D01*
X63482531Y27782219D01*
X63482530Y27782220D01*
X63355873Y27922886D01*
X63355872Y27922887D01*
X63355871Y27922888D01*
X63255875Y27995539D01*
X63202728Y28034153D01*
X63029810Y28111142D01*
X63029796Y28111146D01*
X62844646Y28150500D01*
X62655354Y28150500D01*
X62470203Y28111146D01*
X62470189Y28111142D01*
X62297271Y28034153D01*
X62144126Y27922886D01*
X62017469Y27782220D01*
X61931195Y27632788D01*
X61922821Y27618284D01*
X61909389Y27576945D01*
X61864325Y27438256D01*
X61844540Y27250000D01*
X61864325Y27061745D01*
X61893037Y26973381D01*
X61922821Y26881716D01*
X61922822Y26881714D01*
X61922823Y26881712D01*
X61922824Y26881710D01*
X61966640Y26805819D01*
X61997870Y26713820D01*
X62000000Y26681319D01*
X62000000Y26318682D01*
X61981046Y26223394D01*
X61966641Y26194184D01*
X61922823Y26118289D01*
X61922821Y26118286D01*
X61922821Y26118284D01*
X61909389Y26076945D01*
X61864325Y25938256D01*
X61844540Y25750000D01*
X61864325Y25561745D01*
X61885642Y25496140D01*
X61922821Y25381716D01*
X61922822Y25381714D01*
X61922823Y25381712D01*
X61922824Y25381710D01*
X61966640Y25305819D01*
X61997870Y25213820D01*
X62000000Y25181319D01*
X62000000Y22899500D01*
X61981046Y22804212D01*
X61927070Y22723430D01*
X61846288Y22669454D01*
X61751000Y22650500D01*
X58405737Y22650500D01*
X58310449Y22669454D01*
X58229667Y22723430D01*
X58175691Y22804212D01*
X58156737Y22899500D01*
X58175691Y22994788D01*
X58223437Y23066247D01*
X58222140Y23067415D01*
X58314256Y23169720D01*
X58357533Y23217784D01*
X58452179Y23381716D01*
X58510674Y23561744D01*
X58530460Y23750000D01*
X58510674Y23938256D01*
X58452179Y24118284D01*
X58448591Y24124499D01*
X58433859Y24150017D01*
X58402630Y24242016D01*
X58400500Y24274515D01*
X58400500Y28885993D01*
X58419454Y28981281D01*
X58473430Y29062063D01*
X58887937Y29476570D01*
X58968719Y29530546D01*
X59064007Y29549500D01*
X60022265Y29549500D01*
X60117553Y29530546D01*
X60146762Y29516142D01*
X60147272Y29515848D01*
X60320189Y29438859D01*
X60320192Y29438858D01*
X60320197Y29438856D01*
X60505354Y29399500D01*
X60694645Y29399500D01*
X60694646Y29399500D01*
X60879803Y29438856D01*
X61025819Y29503867D01*
X61052728Y29515848D01*
X61052728Y29515849D01*
X61052730Y29515849D01*
X61205871Y29627112D01*
X61332533Y29767784D01*
X61427179Y29931716D01*
X61485674Y30111744D01*
X61505460Y30300000D01*
X61485674Y30488256D01*
X61481858Y30500000D01*
X63994540Y30500000D01*
X64014325Y30311745D01*
X64029678Y30264496D01*
X64072821Y30131716D01*
X64075304Y30127415D01*
X64134722Y30024499D01*
X64165951Y29932500D01*
X64159596Y29835553D01*
X64134722Y29775501D01*
X64072825Y29668291D01*
X64072821Y29668284D01*
X64057542Y29621260D01*
X64014325Y29488256D01*
X63994540Y29300000D01*
X64014325Y29111745D01*
X64043573Y29021730D01*
X64072821Y28931716D01*
X64142713Y28810659D01*
X64167469Y28767781D01*
X64294126Y28627115D01*
X64294129Y28627112D01*
X64384101Y28561744D01*
X64447271Y28515848D01*
X64620189Y28438859D01*
X64620192Y28438858D01*
X64620197Y28438856D01*
X64805354Y28399500D01*
X64994645Y28399500D01*
X64994646Y28399500D01*
X65179803Y28438856D01*
X65194342Y28445329D01*
X65352728Y28515848D01*
X65352728Y28515849D01*
X65352730Y28515849D01*
X65505871Y28627112D01*
X65632533Y28767784D01*
X65727179Y28931716D01*
X65785674Y29111744D01*
X65805460Y29300000D01*
X65785674Y29488256D01*
X65727179Y29668284D01*
X65674367Y29759757D01*
X65665278Y29775500D01*
X65634048Y29867499D01*
X65640402Y29964446D01*
X65665278Y30024500D01*
X65713413Y30107873D01*
X65727179Y30131716D01*
X65785674Y30311744D01*
X65805460Y30500000D01*
X65785674Y30688256D01*
X65727179Y30868284D01*
X65632533Y31032216D01*
X65632531Y31032219D01*
X65632530Y31032220D01*
X65505873Y31172886D01*
X65505872Y31172887D01*
X65505871Y31172888D01*
X65419196Y31235861D01*
X65352728Y31284153D01*
X65179810Y31361142D01*
X65179796Y31361146D01*
X64994646Y31400500D01*
X64805354Y31400500D01*
X64620203Y31361146D01*
X64620189Y31361142D01*
X64447271Y31284153D01*
X64294126Y31172886D01*
X64167469Y31032220D01*
X64081288Y30882950D01*
X64072821Y30868284D01*
X64057651Y30821597D01*
X64014325Y30688256D01*
X63994540Y30500000D01*
X61481858Y30500000D01*
X61427179Y30668284D01*
X61332533Y30832216D01*
X61332531Y30832219D01*
X61332530Y30832220D01*
X61205873Y30972886D01*
X61205872Y30972887D01*
X61205871Y30972888D01*
X61105004Y31046172D01*
X61052728Y31084153D01*
X60879810Y31161142D01*
X60879796Y31161146D01*
X60694646Y31200500D01*
X60505354Y31200500D01*
X60320203Y31161146D01*
X60320189Y31161142D01*
X60147272Y31084153D01*
X60146762Y31083858D01*
X60146124Y31083642D01*
X60135349Y31078844D01*
X60134908Y31079835D01*
X60054763Y31052630D01*
X60022265Y31050500D01*
X58576080Y31050500D01*
X58554322Y31046172D01*
X58554321Y31046173D01*
X58431091Y31021660D01*
X58431089Y31021660D01*
X58361731Y30992930D01*
X58294503Y30965084D01*
X58212374Y30910208D01*
X58212373Y30910206D01*
X58198716Y30901081D01*
X58171584Y30882952D01*
X58171582Y30882950D01*
X57067049Y29778419D01*
X57067047Y29778416D01*
X57027526Y29719269D01*
X57027527Y29719268D01*
X56984917Y29655496D01*
X56984913Y29655490D01*
X56928341Y29518912D01*
X56899500Y29373921D01*
X56899500Y24361118D01*
X56880546Y24265830D01*
X56866141Y24236619D01*
X56801409Y24124499D01*
X56797821Y24118284D01*
X56751753Y23976501D01*
X56704280Y23891734D01*
X56691011Y23877380D01*
X56663132Y23849500D01*
X56637064Y23823432D01*
X56556283Y23769455D01*
X56460995Y23750500D01*
X51826074Y23750500D01*
X51797239Y23744764D01*
X51681090Y23721661D01*
X51681088Y23721660D01*
X51601898Y23688857D01*
X51601896Y23688856D01*
X51544506Y23665085D01*
X51544503Y23665084D01*
X51521182Y23649500D01*
X51521180Y23649499D01*
X51421588Y23582956D01*
X46887062Y19048430D01*
X46806280Y18994454D01*
X46710992Y18975500D01*
X42401079Y18975500D01*
X42256088Y18946659D01*
X42119507Y18890085D01*
X42119502Y18890083D01*
X42070271Y18857189D01*
X42070270Y18857187D01*
X42055105Y18847054D01*
X41996582Y18807951D01*
X39623409Y16434779D01*
X39542627Y16380803D01*
X39499116Y16367292D01*
X39470206Y16361147D01*
X39470186Y16361140D01*
X39297271Y16284153D01*
X39144126Y16172886D01*
X39017469Y16032220D01*
X38938875Y15896091D01*
X38922821Y15868284D01*
X38911122Y15832279D01*
X38864325Y15688256D01*
X38844540Y15500000D01*
X38864325Y15311745D01*
X38872770Y15285755D01*
X38922821Y15131716D01*
X38922822Y15131714D01*
X38922823Y15131712D01*
X38922824Y15131710D01*
X38956143Y15074000D01*
X38987373Y14982001D01*
X38981019Y14885054D01*
X38938048Y14797918D01*
X38865003Y14733860D01*
X38773004Y14702630D01*
X38740503Y14700500D01*
X37600404Y14700500D01*
X37505116Y14719454D01*
X37424334Y14773430D01*
X30223430Y21974334D01*
X30169454Y22055116D01*
X30150500Y22150404D01*
X30150500Y25814070D01*
X30150499Y25814072D01*
X30149494Y25819123D01*
X30125501Y25939744D01*
X30076465Y26058127D01*
X30041503Y26110452D01*
X30041503Y26110453D01*
X30041501Y26110455D01*
X30005281Y26164664D01*
X30005279Y26164666D01*
X30005277Y26164669D01*
X27414669Y28755277D01*
X27395951Y28767784D01*
X27308127Y28826466D01*
X27209753Y28867213D01*
X27189744Y28875501D01*
X27189742Y28875502D01*
X27189741Y28875502D01*
X27064071Y28900500D01*
X27064069Y28900500D01*
X22685931Y28900500D01*
X22678806Y28900500D01*
X22668622Y28900000D01*
X20806069Y28900000D01*
X20710781Y28918954D01*
X20629999Y28972930D01*
X20576023Y29053712D01*
X20557837Y29129459D01*
X20550766Y29219312D01*
X20550000Y29238826D01*
X20550000Y31761176D01*
X20550768Y31780712D01*
X20568026Y31999995D01*
X20568026Y32000006D01*
X20550768Y32219290D01*
X20550000Y32238826D01*
X20550000Y34761176D01*
X20550768Y34780712D01*
X20568026Y34999995D01*
X20568026Y35000006D01*
X20550768Y35219290D01*
X20550000Y35238826D01*
X20550000Y37761176D01*
X20550768Y37780712D01*
X20568026Y37999995D01*
X20568026Y38000006D01*
X20550768Y38219290D01*
X20550000Y38238826D01*
X20550000Y40761176D01*
X20550768Y40780712D01*
X20568026Y40999995D01*
X20568026Y41000006D01*
X20550768Y41219290D01*
X20550000Y41238826D01*
X20550000Y43761176D01*
X20550768Y43780712D01*
X20568026Y43999995D01*
X20568026Y44000006D01*
X20547952Y44255066D01*
X20547952Y44255068D01*
X20547952Y44255070D01*
X20488222Y44503860D01*
X20390309Y44740243D01*
X20292717Y44899499D01*
X20256625Y44958397D01*
X20256621Y44958402D01*
X20090464Y45152947D01*
X20090461Y45152950D01*
X20090456Y45152956D01*
X20090449Y45152962D01*
X20090446Y45152965D01*
X19895901Y45319122D01*
X19895896Y45319126D01*
X19762154Y45401082D01*
X19677743Y45452809D01*
X19563814Y45500000D01*
X19441366Y45550720D01*
X19441361Y45550722D01*
X19305759Y45583278D01*
X19192570Y45610452D01*
X19192568Y45610453D01*
X19192565Y45610453D01*
X18937506Y45630526D01*
X18937494Y45630526D01*
X18682434Y45610453D01*
X18433638Y45550722D01*
X18433633Y45550720D01*
X18197259Y45452810D01*
X17979103Y45319126D01*
X17979098Y45319122D01*
X17784553Y45152965D01*
X17784535Y45152947D01*
X17618378Y44958402D01*
X17618374Y44958397D01*
X17510412Y44782216D01*
X17490977Y44750500D01*
X17484690Y44740241D01*
X17386780Y44503867D01*
X17386778Y44503862D01*
X17327047Y44255068D01*
X17326144Y44243591D01*
X17299769Y44150085D01*
X17239618Y44073790D01*
X17154849Y44026320D01*
X17058367Y44014904D01*
X16982624Y44033090D01*
X16941211Y44050244D01*
X16941203Y44050247D01*
X16692489Y44109958D01*
X16437506Y44130025D01*
X16437494Y44130025D01*
X16182510Y44109958D01*
X15933796Y44050247D01*
X15933788Y44050244D01*
X15697489Y43952366D01*
X15479391Y43818716D01*
X15475587Y43815468D01*
X16113475Y43177579D01*
X16082242Y43164641D01*
X15959403Y43082563D01*
X15854937Y42978097D01*
X15772859Y42855258D01*
X15759921Y42824025D01*
X15122032Y43461913D01*
X15119393Y43461809D01*
X15050914Y43407802D01*
X14957412Y43381411D01*
X14860928Y43392812D01*
X14776151Y43440267D01*
X14748484Y43467928D01*
X14739526Y43478416D01*
X14590456Y43652956D01*
X14570569Y43669941D01*
X14525286Y43708617D01*
X14465139Y43784915D01*
X14438767Y43878422D01*
X14438000Y43897957D01*
X14438000Y46161041D01*
X14437999Y46161044D01*
X14431738Y46192519D01*
X14411983Y46291836D01*
X14399551Y46354336D01*
X14350020Y46473914D01*
X14324132Y46536414D01*
X14214639Y46700282D01*
X14162958Y46751963D01*
X14075282Y46839640D01*
X14075282Y46839639D01*
X14075281Y46839640D01*
X11512781Y49402139D01*
X9089990Y51824930D01*
X9036014Y51905712D01*
X9017060Y52001000D01*
X9036014Y52096288D01*
X9089990Y52177070D01*
X9170772Y52231046D01*
X9266060Y52250000D01*
X14324433Y52250000D01*
X14373009Y52245216D01*
X14385867Y52242659D01*
X14440228Y52249500D01*
X18932440Y52249500D01*
X19027728Y52230546D01*
X19108510Y52176570D01*
X23426570Y47858510D01*
X23480546Y47777728D01*
X23499500Y47682440D01*
X23499500Y46517561D01*
X23480546Y46422273D01*
X23426570Y46341491D01*
X22049718Y44964639D01*
X22049717Y44964640D01*
X21910362Y44825284D01*
X21910360Y44825281D01*
X21800869Y44661417D01*
X21800868Y44661414D01*
X21766288Y44577930D01*
X21725758Y44480081D01*
X21725732Y44480018D01*
X21725448Y44479334D01*
X21687000Y44286046D01*
X21687000Y44286041D01*
X21687000Y34161040D01*
X21687000Y33963960D01*
X21708622Y33855258D01*
X21725449Y33770663D01*
X21734216Y33749499D01*
X21734215Y33749499D01*
X21734218Y33749495D01*
X21734218Y33749494D01*
X21800865Y33588592D01*
X21800869Y33588585D01*
X21869194Y33486328D01*
X21910361Y33424718D01*
X22049718Y33285361D01*
X22049721Y33285359D01*
X24222858Y31112222D01*
X24222861Y31112218D01*
X24362218Y30972861D01*
X24526086Y30863368D01*
X24611641Y30827931D01*
X24611643Y30827929D01*
X24651051Y30811606D01*
X24708164Y30787949D01*
X24804812Y30768725D01*
X24901459Y30749500D01*
X24901460Y30749500D01*
X36348539Y30749500D01*
X36348540Y30749500D01*
X36348541Y30749500D01*
X36445188Y30768725D01*
X36541836Y30787949D01*
X36638358Y30827930D01*
X36723914Y30863368D01*
X36887782Y30972861D01*
X37027139Y31112218D01*
X37027140Y31112221D01*
X38231939Y32317020D01*
X38312719Y32370994D01*
X38408007Y32389948D01*
X38503295Y32370994D01*
X38584077Y32317018D01*
X38638053Y32236236D01*
X38644819Y32217895D01*
X38672819Y32131721D01*
X38672821Y32131716D01*
X38767467Y31967784D01*
X38767469Y31967781D01*
X38894126Y31827115D01*
X38894129Y31827112D01*
X39000257Y31750006D01*
X39047271Y31715848D01*
X39220189Y31638859D01*
X39220192Y31638858D01*
X39220197Y31638856D01*
X39405354Y31599500D01*
X39412770Y31599500D01*
X39508058Y31580546D01*
X39588840Y31526570D01*
X40551570Y30563840D01*
X40605546Y30483058D01*
X40624500Y30387770D01*
X40624500Y28188393D01*
X40632875Y28146291D01*
X40632875Y28146286D01*
X40632876Y28146286D01*
X40632876Y28146285D01*
X40639865Y28111146D01*
X40648537Y28067548D01*
X40648538Y28067544D01*
X40656013Y28049500D01*
X40656014Y28049496D01*
X40690662Y27965848D01*
X40695688Y27953714D01*
X40720752Y27916204D01*
X40754357Y27865910D01*
X40764142Y27851267D01*
X40851267Y27764142D01*
X40851269Y27764141D01*
X42586364Y26029045D01*
X42640340Y25948263D01*
X42659294Y25852975D01*
X42640340Y25757687D01*
X42586364Y25676905D01*
X42505582Y25622929D01*
X42482430Y25615739D01*
X42482613Y25615178D01*
X42470189Y25611142D01*
X42297271Y25534153D01*
X42144126Y25422886D01*
X42017469Y25282220D01*
X41941511Y25150656D01*
X41922821Y25118284D01*
X41911103Y25082220D01*
X41864325Y24938256D01*
X41844540Y24750000D01*
X41864325Y24561745D01*
X41885837Y24495539D01*
X41922821Y24381716D01*
X42003477Y24242016D01*
X42017469Y24217781D01*
X42144126Y24077115D01*
X42144129Y24077112D01*
X42246371Y24002829D01*
X42297271Y23965848D01*
X42470189Y23888859D01*
X42470192Y23888858D01*
X42470197Y23888856D01*
X42655354Y23849500D01*
X42844645Y23849500D01*
X42844646Y23849500D01*
X43029803Y23888856D01*
X43073949Y23908511D01*
X43202730Y23965849D01*
X43202731Y23965850D01*
X43355642Y24076945D01*
X43443872Y24117620D01*
X43502000Y24124500D01*
X51061607Y24124500D01*
X51122029Y24136519D01*
X51182452Y24148537D01*
X51232496Y24169266D01*
X51296286Y24195688D01*
X51369980Y24244930D01*
X51398733Y24264142D01*
X51485858Y24351267D01*
X51485860Y24351271D01*
X54273729Y27139140D01*
X54273733Y27139142D01*
X54360858Y27226267D01*
X54400958Y27286281D01*
X54429312Y27328714D01*
X54476463Y27442549D01*
X54477802Y27449278D01*
X54487891Y27500000D01*
X54497276Y27547185D01*
X54497277Y27547191D01*
X54500500Y27563393D01*
X54500500Y30912770D01*
X54519454Y31008058D01*
X54573430Y31088840D01*
X56036160Y32551570D01*
X56116942Y32605546D01*
X56212230Y32624500D01*
X59748000Y32624500D01*
X59843288Y32605546D01*
X59894358Y32576945D01*
X60047268Y32465850D01*
X60047269Y32465849D01*
X60220189Y32388859D01*
X60220192Y32388858D01*
X60220197Y32388856D01*
X60405354Y32349500D01*
X60594645Y32349500D01*
X60594646Y32349500D01*
X60779803Y32388856D01*
X60867324Y32427823D01*
X60952728Y32465848D01*
X60952728Y32465849D01*
X60952730Y32465849D01*
X61105871Y32577112D01*
X61232533Y32717784D01*
X61327179Y32881716D01*
X61385674Y33061744D01*
X61405460Y33250000D01*
X61385674Y33438256D01*
X61327179Y33618284D01*
X61232533Y33782216D01*
X61186458Y33833388D01*
X61136784Y33916880D01*
X61122842Y34013029D01*
X61146756Y34107195D01*
X61186457Y34166612D01*
X61232533Y34217784D01*
X61327179Y34381716D01*
X61385674Y34561744D01*
X61405460Y34750000D01*
X61385674Y34938256D01*
X61327179Y35118284D01*
X61232533Y35282216D01*
X61232531Y35282219D01*
X61232530Y35282220D01*
X61105873Y35422886D01*
X61105872Y35422887D01*
X61105871Y35422888D01*
X60994422Y35503860D01*
X60952728Y35534153D01*
X60779810Y35611142D01*
X60779796Y35611146D01*
X60594646Y35650500D01*
X60405354Y35650500D01*
X60397083Y35650500D01*
X60387547Y35650000D01*
X59227326Y35650000D01*
X59132038Y35668954D01*
X59051256Y35722930D01*
X58997280Y35803712D01*
X58990343Y35826051D01*
X58989707Y35825844D01*
X58982332Y35848541D01*
X58927179Y36018284D01*
X58832533Y36182216D01*
X58832531Y36182219D01*
X58832530Y36182220D01*
X58813956Y36202849D01*
X58764282Y36286345D01*
X58750000Y36369461D01*
X58750000Y36731319D01*
X58768954Y36826607D01*
X58783360Y36855819D01*
X58807648Y36897888D01*
X58827179Y36931716D01*
X58885674Y37111744D01*
X58905460Y37300000D01*
X58885674Y37488256D01*
X58827179Y37668284D01*
X58817416Y37685194D01*
X58783359Y37744184D01*
X58752130Y37836183D01*
X58750000Y37868682D01*
X58750000Y39085002D01*
X58751364Y39111029D01*
X58752031Y39117376D01*
X58755460Y39150000D01*
X58735674Y39338256D01*
X58677179Y39518284D01*
X58582533Y39682216D01*
X58582531Y39682219D01*
X58582530Y39682220D01*
X58455873Y39822886D01*
X58455872Y39822887D01*
X58455871Y39822888D01*
X58330517Y39913963D01*
X58302728Y39934153D01*
X58129810Y40011142D01*
X58129796Y40011146D01*
X57944646Y40050500D01*
X57755354Y40050500D01*
X57747089Y40050500D01*
X57737548Y40050000D01*
X56900681Y40050000D01*
X56805393Y40068954D01*
X56724611Y40122930D01*
X56670635Y40203712D01*
X56653045Y40272974D01*
X56651363Y40288974D01*
X56635674Y40438256D01*
X56577179Y40618284D01*
X56482533Y40782216D01*
X56482531Y40782219D01*
X56482530Y40782220D01*
X56355873Y40922886D01*
X56355872Y40922887D01*
X56355871Y40922888D01*
X56249727Y41000006D01*
X56202728Y41034153D01*
X56029810Y41111142D01*
X56029796Y41111146D01*
X55844646Y41150500D01*
X55655354Y41150500D01*
X55647083Y41150500D01*
X55637547Y41150000D01*
X54749500Y41150000D01*
X54654212Y41168954D01*
X54573430Y41222930D01*
X54519454Y41303712D01*
X54500500Y41399000D01*
X54500500Y42585992D01*
X54519454Y42681280D01*
X54573430Y42762062D01*
X55237938Y43426570D01*
X55318720Y43480546D01*
X55414008Y43499500D01*
X58785992Y43499500D01*
X58881280Y43480546D01*
X58962062Y43426570D01*
X59038529Y43350103D01*
X59092505Y43269321D01*
X59111459Y43174033D01*
X59110095Y43148007D01*
X59094540Y43000002D01*
X59094540Y43000001D01*
X59114325Y42811745D01*
X59138357Y42737784D01*
X59172821Y42631716D01*
X59259135Y42482216D01*
X59267469Y42467781D01*
X59391507Y42330024D01*
X59394129Y42327112D01*
X59507243Y42244930D01*
X59547271Y42215848D01*
X59720189Y42138859D01*
X59720192Y42138858D01*
X59720197Y42138856D01*
X59905354Y42099500D01*
X60094645Y42099500D01*
X60094646Y42099500D01*
X60279803Y42138856D01*
X60413859Y42198542D01*
X60452728Y42215848D01*
X60452728Y42215849D01*
X60452730Y42215849D01*
X60605871Y42327112D01*
X60732533Y42467784D01*
X60827179Y42631716D01*
X60885674Y42811744D01*
X60905460Y43000000D01*
X60885674Y43188256D01*
X60827179Y43368284D01*
X60813018Y43392812D01*
X60783859Y43443318D01*
X60752630Y43535317D01*
X60750500Y43567816D01*
X60750500Y44250000D01*
X63094540Y44250000D01*
X63114325Y44061745D01*
X63138798Y43986428D01*
X63172821Y43881716D01*
X63255542Y43738439D01*
X63267469Y43717781D01*
X63394126Y43577115D01*
X63394129Y43577112D01*
X63467345Y43523918D01*
X63547271Y43465848D01*
X63720189Y43388859D01*
X63720192Y43388858D01*
X63720197Y43388856D01*
X63905354Y43349500D01*
X64094645Y43349500D01*
X64094646Y43349500D01*
X64279803Y43388856D01*
X64356177Y43422860D01*
X64452728Y43465848D01*
X64452728Y43465849D01*
X64452730Y43465849D01*
X64605871Y43577112D01*
X64732533Y43717784D01*
X64827179Y43881716D01*
X64885674Y44061744D01*
X64905460Y44250000D01*
X64885674Y44438256D01*
X64827179Y44618284D01*
X64732533Y44782216D01*
X64732531Y44782219D01*
X64732530Y44782220D01*
X64605873Y44922886D01*
X64605872Y44922887D01*
X64605871Y44922888D01*
X64499047Y45000500D01*
X64452728Y45034153D01*
X64279810Y45111142D01*
X64279796Y45111146D01*
X64094646Y45150500D01*
X63905354Y45150500D01*
X63720203Y45111146D01*
X63720189Y45111142D01*
X63547271Y45034153D01*
X63394126Y44922886D01*
X63267469Y44782220D01*
X63172822Y44618286D01*
X63114325Y44438256D01*
X63094540Y44250000D01*
X60750500Y44250000D01*
X60750500Y47823918D01*
X60748012Y47836426D01*
X60733742Y47908165D01*
X60721659Y47968912D01*
X60718689Y47976081D01*
X60686326Y48054212D01*
X60669765Y48094193D01*
X60666455Y48103444D01*
X60609788Y48188252D01*
X60609784Y48188257D01*
X60582952Y48228416D01*
X60347360Y48464008D01*
X60086438Y48724931D01*
X60032462Y48805712D01*
X60013508Y48901000D01*
X60032462Y48996288D01*
X60086439Y49077070D01*
X60167220Y49131046D01*
X60262508Y49150000D01*
X60763311Y49150000D01*
X60858599Y49131046D01*
X60915581Y49092973D01*
X60916034Y49093650D01*
X60936423Y49080027D01*
X60936426Y49080024D01*
X61010118Y49049500D01*
X61089882Y49049500D01*
X64100500Y49049500D01*
X64195788Y49030546D01*
X64276570Y48976570D01*
X64330546Y48895788D01*
X64349500Y48800500D01*
X64349500Y47910118D01*
X64380024Y47836426D01*
X64436426Y47780024D01*
X64510118Y47749500D01*
X64589882Y47749500D01*
X66300500Y47749500D01*
X66395788Y47730546D01*
X66476570Y47676570D01*
X66530546Y47595788D01*
X66549500Y47500500D01*
X66549500Y44060118D01*
X66568228Y44014904D01*
X66574401Y44000000D01*
X66580024Y43986426D01*
X66636426Y43930024D01*
X66710118Y43899500D01*
X66789882Y43899500D01*
X66863574Y43930024D01*
X66919976Y43986426D01*
X66950500Y44060118D01*
X66950500Y44500000D01*
X67844540Y44500000D01*
X67864325Y44311745D01*
X67882741Y44255068D01*
X67922821Y44131716D01*
X67998234Y44001097D01*
X68017469Y43967781D01*
X68124831Y43848544D01*
X68144129Y43827112D01*
X68257243Y43744930D01*
X68297271Y43715848D01*
X68470189Y43638859D01*
X68470192Y43638858D01*
X68470197Y43638856D01*
X68655354Y43599500D01*
X68844645Y43599500D01*
X68844646Y43599500D01*
X69029803Y43638856D01*
X69036270Y43641735D01*
X69202728Y43715848D01*
X69202728Y43715849D01*
X69202730Y43715849D01*
X69355871Y43827112D01*
X69482533Y43967784D01*
X69577179Y44131716D01*
X69635674Y44311744D01*
X69655460Y44500000D01*
X69635674Y44688256D01*
X69577179Y44868284D01*
X69482533Y45032216D01*
X69482531Y45032219D01*
X69482530Y45032220D01*
X69355873Y45172886D01*
X69355872Y45172887D01*
X69355871Y45172888D01*
X69230455Y45264008D01*
X69202728Y45284153D01*
X69029810Y45361142D01*
X69029796Y45361146D01*
X68844646Y45400500D01*
X68655354Y45400500D01*
X68470203Y45361146D01*
X68470189Y45361142D01*
X68297271Y45284153D01*
X68144126Y45172886D01*
X68017469Y45032220D01*
X67922822Y44868286D01*
X67922821Y44868284D01*
X67909444Y44827115D01*
X67864325Y44688256D01*
X67844540Y44500000D01*
X66950500Y44500000D01*
X66950500Y47989882D01*
X66919976Y48063574D01*
X66863574Y48119976D01*
X66789882Y48150500D01*
X64999500Y48150500D01*
X64904212Y48169454D01*
X64823430Y48223430D01*
X64769454Y48304212D01*
X64750500Y48399500D01*
X64750500Y49289882D01*
X64727521Y49345359D01*
X64719976Y49363574D01*
X64663574Y49419976D01*
X64649303Y49425887D01*
X64589882Y49450500D01*
X61499500Y49450500D01*
X61404212Y49469454D01*
X61323430Y49523430D01*
X61269454Y49604212D01*
X61250500Y49699500D01*
X61250500Y55685992D01*
X61269454Y55781280D01*
X61323430Y55862062D01*
X61587938Y56126570D01*
X61668720Y56180546D01*
X61764008Y56199500D01*
X78200500Y56199500D01*
X78295788Y56180546D01*
X78376570Y56126570D01*
X78430546Y56045788D01*
X78449500Y55950500D01*
X78449500Y44936190D01*
X78430546Y44840902D01*
X78376570Y44760120D01*
X76389880Y42773430D01*
X76309098Y42719454D01*
X76213810Y42700500D01*
X73360118Y42700500D01*
X73286427Y42669977D01*
X73230023Y42613573D01*
X73213578Y42573869D01*
X73199500Y42539882D01*
X73199500Y42460118D01*
X73230024Y42386426D01*
X73286426Y42330024D01*
X73360118Y42299500D01*
X76439882Y42299500D01*
X76513574Y42330024D01*
X78819976Y44636426D01*
X78850500Y44710118D01*
X78850500Y44789883D01*
X78850500Y56439882D01*
X78819976Y56513574D01*
X78763574Y56569976D01*
X78689882Y56600500D01*
X62617665Y56600500D01*
X62522377Y56619454D01*
X62441595Y56673430D01*
X62387619Y56754212D01*
X62368665Y56849500D01*
X62387619Y56944788D01*
X62410626Y56987833D01*
X62411072Y56988502D01*
X62415084Y56994505D01*
X62471658Y57131087D01*
X62500500Y57276082D01*
X62500500Y59182185D01*
X62519454Y59277473D01*
X62533860Y59306685D01*
X62569424Y59368284D01*
X62577179Y59381716D01*
X62635674Y59561744D01*
X62655460Y59750000D01*
X62635674Y59938256D01*
X62577179Y60118284D01*
X62482533Y60282216D01*
X62482531Y60282219D01*
X62482530Y60282220D01*
X62355873Y60422886D01*
X62355872Y60422887D01*
X62355871Y60422888D01*
X62272659Y60483345D01*
X62202728Y60534153D01*
X62029810Y60611142D01*
X62029796Y60611146D01*
X61844646Y60650500D01*
X61655354Y60650500D01*
X61470203Y60611146D01*
X61470189Y60611142D01*
X61297271Y60534153D01*
X61144126Y60422886D01*
X61017469Y60282220D01*
X60943564Y60154212D01*
X60922821Y60118284D01*
X60920992Y60112655D01*
X60864325Y59938256D01*
X60844540Y59750000D01*
X60864325Y59561745D01*
X60873920Y59532216D01*
X60922821Y59381716D01*
X60922822Y59381714D01*
X60922823Y59381712D01*
X60922824Y59381710D01*
X60966140Y59306685D01*
X60997370Y59214686D01*
X60999500Y59182185D01*
X60999500Y57764008D01*
X60980546Y57668720D01*
X60926570Y57587938D01*
X57417045Y54078413D01*
X57382790Y54027143D01*
X57382787Y54027139D01*
X57334917Y53955497D01*
X57334915Y53955493D01*
X57278341Y53818912D01*
X57249500Y53673921D01*
X57249500Y52716102D01*
X57230546Y52620814D01*
X57176570Y52540032D01*
X57095788Y52486056D01*
X57000500Y52467102D01*
X56917685Y52483575D01*
X56917210Y52482112D01*
X56904805Y52486143D01*
X56904803Y52486144D01*
X56904800Y52486145D01*
X56904796Y52486146D01*
X56719646Y52525500D01*
X56530354Y52525500D01*
X56345203Y52486146D01*
X56345189Y52486142D01*
X56172271Y52409153D01*
X56019126Y52297886D01*
X55892469Y52157220D01*
X55797822Y51993286D01*
X55739325Y51813256D01*
X55719540Y51625000D01*
X55739325Y51436747D01*
X55742039Y51423982D01*
X55740618Y51423681D01*
X55750000Y51364456D01*
X55750000Y50871830D01*
X55731046Y50776542D01*
X55677070Y50695760D01*
X55596288Y50641784D01*
X55501000Y50622830D01*
X55449233Y50628271D01*
X55344650Y50650500D01*
X55344646Y50650500D01*
X55155354Y50650500D01*
X54970203Y50611146D01*
X54970189Y50611142D01*
X54797271Y50534153D01*
X54644126Y50422886D01*
X54517469Y50282220D01*
X54443249Y50153667D01*
X54422821Y50118284D01*
X54420850Y50112218D01*
X54364325Y49938256D01*
X54344540Y49750000D01*
X54364325Y49561745D01*
X54380130Y49513104D01*
X54422821Y49381716D01*
X54422822Y49381714D01*
X54422823Y49381712D01*
X54422824Y49381710D01*
X54466640Y49305819D01*
X54497870Y49213820D01*
X54500000Y49181319D01*
X54500000Y48149500D01*
X54481046Y48054212D01*
X54427070Y47973430D01*
X54346288Y47919454D01*
X54251000Y47900500D01*
X54155354Y47900500D01*
X53970203Y47861146D01*
X53970189Y47861142D01*
X53797271Y47784153D01*
X53644126Y47672886D01*
X53517469Y47532220D01*
X53422822Y47368286D01*
X53364325Y47188256D01*
X53344540Y47000000D01*
X53364325Y46811745D01*
X53373919Y46782220D01*
X53422821Y46631716D01*
X53422822Y46631714D01*
X53422823Y46631712D01*
X53422824Y46631710D01*
X53466640Y46555819D01*
X53497870Y46463820D01*
X53500000Y46431319D01*
X53500000Y43914508D01*
X53481046Y43819220D01*
X53427070Y43738439D01*
X53167044Y43478413D01*
X53129928Y43422862D01*
X53129928Y43422861D01*
X53084916Y43355496D01*
X53028341Y43218912D01*
X52999500Y43073921D01*
X52999500Y36426080D01*
X53028341Y36281089D01*
X53036354Y36261744D01*
X53081415Y36152956D01*
X53084915Y36144508D01*
X53084919Y36144499D01*
X53107207Y36111143D01*
X53107208Y36111142D01*
X53167047Y36021585D01*
X53167049Y36021582D01*
X53313132Y35875500D01*
X53727070Y35461563D01*
X53781046Y35380783D01*
X53800000Y35285494D01*
X53800000Y32987731D01*
X53781046Y32892443D01*
X53727070Y32811661D01*
X52864142Y31948734D01*
X52844454Y31919268D01*
X52844453Y31919266D01*
X52795689Y31846288D01*
X52776308Y31799498D01*
X52748538Y31732458D01*
X52748538Y31732457D01*
X52724500Y31611605D01*
X52724500Y28212230D01*
X52705546Y28116942D01*
X52651570Y28036160D01*
X50563840Y25948430D01*
X50483058Y25894454D01*
X50387770Y25875500D01*
X44612231Y25875500D01*
X44516943Y25894454D01*
X44436161Y25948430D01*
X41948430Y28436161D01*
X41894454Y28516943D01*
X41875500Y28612231D01*
X41875500Y30811605D01*
X41872253Y30827930D01*
X41851463Y30932452D01*
X41825270Y30995688D01*
X41804312Y31046285D01*
X41784146Y31076465D01*
X41735858Y31148733D01*
X41648733Y31235858D01*
X41648729Y31235861D01*
X40470260Y32414330D01*
X40416284Y32495112D01*
X40398694Y32564374D01*
X40392700Y32621401D01*
X40385674Y32688256D01*
X40327179Y32868284D01*
X40299630Y32916001D01*
X40268401Y33008000D01*
X40274756Y33104947D01*
X40317727Y33192083D01*
X40390772Y33256141D01*
X40482771Y33287370D01*
X40515271Y33289500D01*
X44501459Y33289500D01*
X44501460Y33289500D01*
X44698540Y33289500D01*
X45901459Y33289500D01*
X46245827Y33289500D01*
X46341115Y33270546D01*
X46388643Y33244472D01*
X46417922Y33223971D01*
X46485105Y33153793D01*
X46520320Y33063245D01*
X46518203Y32966113D01*
X46479076Y32877185D01*
X46417928Y32816035D01*
X46378603Y32788499D01*
X46211504Y32621400D01*
X46075965Y32427831D01*
X46075961Y32427823D01*
X45976098Y32213667D01*
X45976097Y32213665D01*
X45914935Y31985402D01*
X45894341Y31750006D01*
X45894341Y31749995D01*
X45914935Y31514599D01*
X45966957Y31320446D01*
X45976097Y31286337D01*
X46075965Y31072170D01*
X46211505Y30878599D01*
X46211506Y30878598D01*
X46211507Y30878597D01*
X46214849Y30874613D01*
X46216849Y30870966D01*
X46217741Y30869693D01*
X46217601Y30869596D01*
X46261577Y30789434D01*
X46272151Y30692856D01*
X46244961Y30599583D01*
X46184147Y30523815D01*
X46171431Y30515132D01*
X46171927Y30514469D01*
X46157670Y30503797D01*
X46157669Y30503796D01*
X46121530Y30476742D01*
X46042455Y30417547D01*
X46042453Y30417545D01*
X45956204Y30302331D01*
X45905908Y30167482D01*
X45899500Y30107877D01*
X45899500Y28312135D01*
X45899501Y28312131D01*
X45905908Y28252520D01*
X45905909Y28252516D01*
X45956203Y28117671D01*
X45956204Y28117669D01*
X46042454Y28002454D01*
X46157669Y27916204D01*
X46292517Y27865909D01*
X46352127Y27859500D01*
X48147872Y27859501D01*
X48207483Y27865909D01*
X48342331Y27916204D01*
X48457546Y28002454D01*
X48537846Y28109722D01*
X48610124Y28174644D01*
X48701745Y28206966D01*
X48737180Y28209500D01*
X49158541Y28209500D01*
X49313095Y28240243D01*
X49351836Y28247949D01*
X49434213Y28282071D01*
X49533914Y28323368D01*
X49697782Y28432861D01*
X49837139Y28572218D01*
X49837140Y28572221D01*
X51877140Y30612219D01*
X51986632Y30776086D01*
X52062052Y30958165D01*
X52100500Y31151460D01*
X52100500Y31348541D01*
X52100500Y42198541D01*
X52076681Y42318284D01*
X52062051Y42391836D01*
X52017041Y42500500D01*
X51986632Y42573914D01*
X51877139Y42737782D01*
X51818709Y42796212D01*
X51737782Y42877140D01*
X51737782Y42877139D01*
X50073430Y44541491D01*
X50019454Y44622273D01*
X50000500Y44717561D01*
X50000500Y46851000D01*
X50019454Y46946288D01*
X50073430Y47027070D01*
X50154212Y47081046D01*
X50249500Y47100000D01*
X51137547Y47100000D01*
X51147083Y47099500D01*
X51155354Y47099500D01*
X51344645Y47099500D01*
X51344646Y47099500D01*
X51529803Y47138856D01*
X51702730Y47215849D01*
X51855871Y47327112D01*
X51982533Y47467784D01*
X52077179Y47631716D01*
X52135674Y47811744D01*
X52155460Y48000000D01*
X52137555Y48170353D01*
X52135674Y48188257D01*
X52118104Y48242331D01*
X52077179Y48368284D01*
X51982533Y48532216D01*
X51982531Y48532219D01*
X51982530Y48532220D01*
X51855873Y48672886D01*
X51855872Y48672887D01*
X51855871Y48672888D01*
X51774593Y48731940D01*
X51702728Y48784153D01*
X51529810Y48861142D01*
X51529796Y48861146D01*
X51344646Y48900500D01*
X51155354Y48900500D01*
X51147083Y48900500D01*
X51137547Y48900000D01*
X50249500Y48900000D01*
X50154212Y48918954D01*
X50073430Y48972930D01*
X50019454Y49053712D01*
X50000500Y49149000D01*
X50000500Y58832441D01*
X50019454Y58927729D01*
X50073427Y59008508D01*
X50691491Y59626570D01*
X50772272Y59680546D01*
X50867560Y59699500D01*
X55448541Y59699500D01*
X55559936Y59721658D01*
X55641836Y59737949D01*
X55695165Y59760039D01*
X55823914Y59813368D01*
X55987782Y59922861D01*
X56127139Y60062218D01*
X56127140Y60062221D01*
X56141332Y60076412D01*
X56141335Y60076416D01*
X57841491Y61776570D01*
X57922272Y61830546D01*
X58017560Y61849500D01*
X70719263Y61849500D01*
X70814551Y61830546D01*
G37*
%TD.AperFunction*%
%TA.AperFunction,Conductor*%
G36*
X62096288Y18030546D02*
G01*
X62177070Y17976570D01*
X62231046Y17895788D01*
X62250000Y17800500D01*
X62250000Y16237731D01*
X62231046Y16142443D01*
X62177070Y16061661D01*
X58813840Y12698430D01*
X58733058Y12644454D01*
X58637770Y12625500D01*
X57188387Y12625500D01*
X57127968Y12613482D01*
X57067551Y12601465D01*
X57067550Y12601464D01*
X56953718Y12554314D01*
X56953713Y12554311D01*
X56851269Y12485860D01*
X55338339Y10972930D01*
X55257557Y10918954D01*
X55162269Y10900000D01*
X49612453Y10900000D01*
X49602917Y10900500D01*
X49594646Y10900500D01*
X49405354Y10900500D01*
X49220203Y10861146D01*
X49220189Y10861142D01*
X49047272Y10784153D01*
X49046762Y10783858D01*
X49046124Y10783642D01*
X49035349Y10778844D01*
X49034908Y10779835D01*
X48954763Y10752630D01*
X48922265Y10750500D01*
X47664008Y10750500D01*
X47568720Y10769454D01*
X47487938Y10823430D01*
X47061368Y11250000D01*
X46478416Y11832952D01*
X46379966Y11898733D01*
X46355495Y11915084D01*
X46218913Y11971658D01*
X46218911Y11971659D01*
X46073920Y12000500D01*
X46073918Y12000500D01*
X42577735Y12000500D01*
X42482447Y12019454D01*
X42453238Y12033858D01*
X42452727Y12034153D01*
X42279810Y12111142D01*
X42279796Y12111146D01*
X42094646Y12150500D01*
X41905354Y12150500D01*
X41720203Y12111146D01*
X41720189Y12111142D01*
X41547271Y12034153D01*
X41394126Y11922886D01*
X41267469Y11782220D01*
X41172822Y11618286D01*
X41114325Y11438256D01*
X41094540Y11250000D01*
X41114325Y11061745D01*
X41136991Y10991990D01*
X41172821Y10881716D01*
X41172823Y10881713D01*
X41177278Y10873996D01*
X41208505Y10781996D01*
X41202149Y10685050D01*
X41159177Y10597915D01*
X41086131Y10533857D01*
X40994131Y10502630D01*
X40961635Y10500500D01*
X38767560Y10500500D01*
X38672272Y10519454D01*
X38591490Y10573430D01*
X38172930Y10991990D01*
X38118954Y11072772D01*
X38100000Y11168060D01*
X38100000Y12600500D01*
X38118954Y12695788D01*
X38172930Y12776570D01*
X38253712Y12830546D01*
X38349000Y12849500D01*
X52064070Y12849500D01*
X52064070Y12849501D01*
X52189744Y12874499D01*
X52308127Y12923535D01*
X52414669Y12994723D01*
X57396516Y17976570D01*
X57477298Y18030546D01*
X57572586Y18049500D01*
X62001000Y18049500D01*
X62096288Y18030546D01*
G37*
%TD.AperFunction*%
%TA.AperFunction,Conductor*%
G36*
X45929216Y16180546D02*
G01*
X46009998Y16126570D01*
X46063974Y16045788D01*
X46082928Y15950500D01*
X46063974Y15855212D01*
X46024753Y15793052D01*
X46025137Y15792773D01*
X46020880Y15786915D01*
X46018969Y15783885D01*
X46017469Y15782220D01*
X45922822Y15618286D01*
X45864325Y15438256D01*
X45844540Y15250000D01*
X45864326Y15061744D01*
X45864327Y15061736D01*
X45875794Y15026447D01*
X45887215Y14929966D01*
X45860843Y14836458D01*
X45800696Y14760160D01*
X45715929Y14712688D01*
X45638982Y14700500D01*
X42361018Y14700500D01*
X42265730Y14719454D01*
X42184948Y14773430D01*
X42130972Y14854212D01*
X42112018Y14949500D01*
X42124205Y15026446D01*
X42135673Y15061742D01*
X42135674Y15061744D01*
X42144541Y15146121D01*
X42173350Y15238904D01*
X42216104Y15296160D01*
X43046516Y16126570D01*
X43127297Y16180546D01*
X43222585Y16199500D01*
X45833928Y16199500D01*
X45929216Y16180546D01*
G37*
%TD.AperFunction*%
%TA.AperFunction,Conductor*%
G36*
X90747782Y33836455D02*
G01*
X90833464Y33790656D01*
X90895099Y33715554D01*
X90923301Y33622583D01*
X90924500Y33598177D01*
X90924500Y25681824D01*
X90905546Y25586536D01*
X90851570Y25505754D01*
X90770788Y25451778D01*
X90675500Y25432824D01*
X90580212Y25451778D01*
X90499430Y25505754D01*
X90445454Y25586536D01*
X90437224Y25609538D01*
X90436572Y25611686D01*
X90361191Y25793673D01*
X90361188Y25793680D01*
X90251753Y25957460D01*
X90112459Y26096754D01*
X89948679Y26206189D01*
X89948672Y26206192D01*
X89766691Y26281571D01*
X89573489Y26320000D01*
X89325001Y26320000D01*
X89325000Y26319999D01*
X89325000Y25620000D01*
X88825000Y25620000D01*
X88825000Y26319999D01*
X88824999Y26320000D01*
X88576511Y26320000D01*
X88383308Y26281571D01*
X88201327Y26206192D01*
X88201315Y26206186D01*
X88137836Y26163770D01*
X88048077Y26126590D01*
X87950922Y26126591D01*
X87861162Y26163771D01*
X87792464Y26232470D01*
X87755284Y26322229D01*
X87750500Y26370806D01*
X87750500Y32909195D01*
X87769454Y33004483D01*
X87823430Y33085265D01*
X87904212Y33139241D01*
X87999500Y33158195D01*
X88094788Y33139241D01*
X88137838Y33116230D01*
X88201318Y33073813D01*
X88201327Y33073809D01*
X88383308Y32998430D01*
X88576511Y32960000D01*
X88824999Y32960000D01*
X88825000Y32960001D01*
X88825000Y33660000D01*
X89325000Y33660000D01*
X89325000Y32960001D01*
X89325001Y32960000D01*
X89573489Y32960000D01*
X89766691Y32998430D01*
X89948672Y33073809D01*
X89948679Y33073812D01*
X90112459Y33183247D01*
X90251753Y33322541D01*
X90361188Y33486321D01*
X90361191Y33486328D01*
X90436568Y33668306D01*
X90437222Y33670459D01*
X90438282Y33672444D01*
X90441252Y33679612D01*
X90441958Y33679320D01*
X90483021Y33756141D01*
X90558123Y33817776D01*
X90651094Y33845978D01*
X90747782Y33836455D01*
G37*
%TD.AperFunction*%
%TA.AperFunction,Conductor*%
G36*
X47845788Y49831046D02*
G01*
X47926570Y49777070D01*
X47980546Y49696288D01*
X47999500Y49601000D01*
X47999500Y44211405D01*
X47988564Y44156428D01*
X47995215Y44122993D01*
X48000000Y44074414D01*
X48000000Y40568682D01*
X47981046Y40473394D01*
X47966641Y40444184D01*
X47922823Y40368289D01*
X47864325Y40188256D01*
X47844540Y40000000D01*
X47864325Y39811745D01*
X47883237Y39753543D01*
X47922821Y39631716D01*
X47987588Y39519536D01*
X48017469Y39467781D01*
X48144126Y39327115D01*
X48144129Y39327112D01*
X48250952Y39249501D01*
X48297271Y39215848D01*
X48470189Y39138859D01*
X48470192Y39138858D01*
X48470197Y39138856D01*
X48655354Y39099500D01*
X48852917Y39099500D01*
X48862453Y39100000D01*
X49850500Y39100000D01*
X49945788Y39081046D01*
X50026570Y39027070D01*
X50080546Y38946288D01*
X50099500Y38851000D01*
X50099500Y35899000D01*
X50080546Y35803712D01*
X50026570Y35722930D01*
X49945788Y35668954D01*
X49850500Y35650000D01*
X47249500Y35650000D01*
X47154212Y35668954D01*
X47073430Y35722930D01*
X47019454Y35803712D01*
X47000500Y35899000D01*
X47000500Y43848541D01*
X47000499Y43848546D01*
X46962052Y44041831D01*
X46962051Y44041833D01*
X46962051Y44041835D01*
X46886632Y44223914D01*
X46777139Y44387782D01*
X46637782Y44527139D01*
X46633500Y44530000D01*
X46507155Y44614421D01*
X46473914Y44636632D01*
X46473911Y44636634D01*
X46473908Y44636635D01*
X46291835Y44712051D01*
X46291830Y44712053D01*
X46098545Y44750500D01*
X46098541Y44750500D01*
X45901459Y44750500D01*
X45901454Y44750500D01*
X45708169Y44712053D01*
X45708164Y44712051D01*
X45526091Y44636635D01*
X45526084Y44636631D01*
X45362221Y44527142D01*
X45222858Y44387779D01*
X45113369Y44223916D01*
X45113365Y44223909D01*
X45037949Y44041836D01*
X45037947Y44041831D01*
X44999500Y43848546D01*
X44999500Y39399000D01*
X44980546Y39303712D01*
X44926570Y39222930D01*
X44845788Y39168954D01*
X44750500Y39150000D01*
X44452628Y39150000D01*
X44357340Y39168954D01*
X44276558Y39222930D01*
X44236992Y39274492D01*
X44232533Y39282216D01*
X44232527Y39282222D01*
X44232524Y39282227D01*
X44105873Y39422886D01*
X44105872Y39422887D01*
X44105871Y39422888D01*
X44029300Y39478520D01*
X43952728Y39534153D01*
X43779810Y39611142D01*
X43779796Y39611146D01*
X43594646Y39650500D01*
X43405354Y39650500D01*
X43220203Y39611146D01*
X43220189Y39611142D01*
X43047271Y39534153D01*
X42894126Y39422886D01*
X42767469Y39282220D01*
X42672822Y39118286D01*
X42614325Y38938256D01*
X42594540Y38750000D01*
X42614325Y38561745D01*
X42632673Y38505277D01*
X42672821Y38381716D01*
X42672822Y38381715D01*
X42672823Y38381712D01*
X42672824Y38381710D01*
X42766598Y38219290D01*
X42767467Y38217784D01*
X42786042Y38197154D01*
X42835717Y38113660D01*
X42850000Y38030540D01*
X42850000Y35539500D01*
X42831046Y35444212D01*
X42777070Y35363430D01*
X42696288Y35309454D01*
X42601000Y35290500D01*
X38691454Y35290500D01*
X38498165Y35252052D01*
X38498160Y35252051D01*
X38422745Y35220812D01*
X38316090Y35176635D01*
X38316085Y35176632D01*
X38199029Y35098417D01*
X38152221Y35067142D01*
X38152218Y35067140D01*
X38152218Y35067139D01*
X37001960Y33916880D01*
X35908510Y32823430D01*
X35827728Y32769454D01*
X35732440Y32750500D01*
X25899000Y32750500D01*
X25803712Y32769454D01*
X25722930Y32823430D01*
X25668954Y32904212D01*
X25650000Y32999500D01*
X25650000Y36066416D01*
X25652253Y36080647D01*
X25650000Y36111153D01*
X25650000Y36185002D01*
X25651364Y36211029D01*
X25654192Y36237939D01*
X25655460Y36250000D01*
X25635674Y36438256D01*
X25577179Y36618284D01*
X25550398Y36664671D01*
X25533859Y36693318D01*
X25502630Y36785317D01*
X25500500Y36817816D01*
X25500500Y38085995D01*
X25519454Y38181283D01*
X25573428Y38262062D01*
X26376589Y39065224D01*
X26457368Y39119198D01*
X26500889Y39132711D01*
X26529803Y39138856D01*
X26702730Y39215849D01*
X26702736Y39215854D01*
X26703238Y39216142D01*
X26703871Y39216358D01*
X26714650Y39221156D01*
X26715091Y39220166D01*
X26795237Y39247370D01*
X26827735Y39249500D01*
X29373919Y39249500D01*
X29373919Y39249501D01*
X29518913Y39278342D01*
X29655495Y39334916D01*
X29707215Y39369474D01*
X29778416Y39417048D01*
X30737937Y40376571D01*
X30818719Y40430546D01*
X30914007Y40449500D01*
X31850500Y40449500D01*
X31945788Y40430546D01*
X32026570Y40376570D01*
X32080546Y40295788D01*
X32099500Y40200500D01*
X32099500Y37801080D01*
X32128341Y37656089D01*
X32128342Y37656086D01*
X32184912Y37519513D01*
X32184917Y37519503D01*
X32198282Y37499501D01*
X32198284Y37499498D01*
X32267046Y37396586D01*
X32267047Y37396585D01*
X32267048Y37396584D01*
X32932313Y36731319D01*
X33566009Y36097624D01*
X33619985Y36016842D01*
X33626751Y35998501D01*
X33672819Y35856721D01*
X33672821Y35856716D01*
X33765733Y35695788D01*
X33767469Y35692781D01*
X33894127Y35552114D01*
X33894128Y35552113D01*
X33895054Y35551440D01*
X33895939Y35550482D01*
X33903826Y35543381D01*
X33903173Y35542656D01*
X33961000Y35480094D01*
X33994624Y35388943D01*
X33990806Y35291863D01*
X33950128Y35203634D01*
X33903488Y35156995D01*
X33903826Y35156619D01*
X33896667Y35150174D01*
X33895054Y35148560D01*
X33894128Y35147888D01*
X33894127Y35147887D01*
X33767469Y35007220D01*
X33672822Y34843286D01*
X33614325Y34663256D01*
X33594540Y34475000D01*
X33614325Y34286745D01*
X33643573Y34196730D01*
X33672821Y34106716D01*
X33747079Y33978097D01*
X33767469Y33942781D01*
X33894126Y33802115D01*
X33894129Y33802112D01*
X33966552Y33749494D01*
X34047271Y33690848D01*
X34220189Y33613859D01*
X34220192Y33613858D01*
X34220197Y33613856D01*
X34405354Y33574500D01*
X34594645Y33574500D01*
X34594646Y33574500D01*
X34779803Y33613856D01*
X34789749Y33618284D01*
X34952728Y33690848D01*
X34952728Y33690849D01*
X34952730Y33690849D01*
X35105871Y33802112D01*
X35232533Y33942784D01*
X35327179Y34106716D01*
X35385674Y34286744D01*
X35405460Y34475000D01*
X35385674Y34663256D01*
X35327179Y34843284D01*
X35232533Y35007216D01*
X35232531Y35007219D01*
X35232530Y35007220D01*
X35105874Y35147885D01*
X35105873Y35147886D01*
X35105871Y35147888D01*
X35104950Y35148557D01*
X35104068Y35149511D01*
X35096174Y35156619D01*
X35096827Y35157345D01*
X35039004Y35219897D01*
X35005377Y35311047D01*
X35009191Y35408127D01*
X35049865Y35496358D01*
X35096512Y35543006D01*
X35096174Y35543381D01*
X35103342Y35549836D01*
X35104949Y35551443D01*
X35105871Y35552112D01*
X35232533Y35692784D01*
X35327179Y35856716D01*
X35385674Y36036744D01*
X35405460Y36225000D01*
X35385674Y36413256D01*
X35327179Y36593284D01*
X35232533Y36757216D01*
X35232531Y36757219D01*
X35232530Y36757220D01*
X35105872Y36897887D01*
X35105871Y36897888D01*
X35083685Y36914007D01*
X35053337Y36936056D01*
X34987389Y37007397D01*
X34953762Y37098546D01*
X34957576Y37195626D01*
X34998250Y37283857D01*
X35053336Y37338944D01*
X35105871Y37377112D01*
X35232533Y37517784D01*
X35327179Y37681716D01*
X35385674Y37861744D01*
X35405460Y38050000D01*
X35385674Y38238256D01*
X35327179Y38418284D01*
X35232533Y38582216D01*
X35232531Y38582219D01*
X35232530Y38582220D01*
X35105873Y38722886D01*
X35105872Y38722887D01*
X35105871Y38722888D01*
X35004141Y38796799D01*
X34952728Y38834153D01*
X34779810Y38911142D01*
X34779796Y38911146D01*
X34594646Y38950500D01*
X34405354Y38950500D01*
X34220203Y38911146D01*
X34220189Y38911142D01*
X34047269Y38834152D01*
X34047268Y38834151D01*
X33995858Y38796799D01*
X33907628Y38756124D01*
X33810548Y38752310D01*
X33719398Y38785937D01*
X33648055Y38851886D01*
X33607380Y38940116D01*
X33600500Y38998244D01*
X33600500Y40806810D01*
X33619454Y40902098D01*
X33673430Y40982880D01*
X33754212Y41036856D01*
X33849500Y41055810D01*
X33901271Y41050368D01*
X33905354Y41049500D01*
X33905357Y41049500D01*
X34094645Y41049500D01*
X34094646Y41049500D01*
X34279803Y41088856D01*
X34324533Y41108771D01*
X34452728Y41165848D01*
X34452728Y41165849D01*
X34452730Y41165849D01*
X34605871Y41277112D01*
X34732533Y41417784D01*
X34827179Y41581716D01*
X34885674Y41761744D01*
X34905460Y41950000D01*
X34885674Y42138256D01*
X34827179Y42318284D01*
X34732533Y42482216D01*
X34732531Y42482219D01*
X34732530Y42482220D01*
X34605872Y42622887D01*
X34605871Y42622888D01*
X34560079Y42656158D01*
X34494131Y42727501D01*
X34460504Y42818651D01*
X34464319Y42915731D01*
X34490796Y42982098D01*
X34577179Y43131716D01*
X34635674Y43311744D01*
X34655460Y43500000D01*
X34635674Y43688256D01*
X34577179Y43868284D01*
X34569424Y43881716D01*
X34533859Y43943318D01*
X34502630Y44035317D01*
X34500500Y44067816D01*
X34500500Y44656810D01*
X34519454Y44752098D01*
X34573430Y44832880D01*
X34654212Y44886856D01*
X34749500Y44905810D01*
X34801271Y44900368D01*
X34805354Y44899500D01*
X34805357Y44899500D01*
X34994645Y44899500D01*
X34994646Y44899500D01*
X35179803Y44938856D01*
X35223693Y44958397D01*
X35352728Y45015848D01*
X35352728Y45015849D01*
X35352730Y45015849D01*
X35505871Y45127112D01*
X35632533Y45267784D01*
X35727179Y45431716D01*
X35785674Y45611744D01*
X35805460Y45800000D01*
X35799503Y45856682D01*
X35787123Y45974474D01*
X35796013Y46071221D01*
X35841250Y46157202D01*
X35915948Y46219326D01*
X36008733Y46248136D01*
X36034759Y46249500D01*
X42211636Y46249500D01*
X42306924Y46230546D01*
X42387706Y46176570D01*
X42441682Y46095788D01*
X42460636Y46000500D01*
X42441682Y45905212D01*
X42427284Y45876015D01*
X42422821Y45868284D01*
X42364325Y45688256D01*
X42344540Y45500000D01*
X42364325Y45311745D01*
X42378764Y45267309D01*
X42422821Y45131716D01*
X42517467Y44967784D01*
X42517469Y44967781D01*
X42638935Y44832880D01*
X42644129Y44827112D01*
X42736336Y44760120D01*
X42797271Y44715848D01*
X42970189Y44638859D01*
X42970192Y44638858D01*
X42970197Y44638856D01*
X43155354Y44599500D01*
X43344645Y44599500D01*
X43344646Y44599500D01*
X43529803Y44638856D01*
X43580469Y44661414D01*
X43702728Y44715848D01*
X43702728Y44715849D01*
X43702730Y44715849D01*
X43855871Y44827112D01*
X43982533Y44967784D01*
X44077179Y45131716D01*
X44135674Y45311744D01*
X44155460Y45500000D01*
X44135674Y45688256D01*
X44077179Y45868284D01*
X44072721Y45876006D01*
X44041494Y45967999D01*
X44047849Y46064946D01*
X44090819Y46152082D01*
X44163864Y46216141D01*
X44255863Y46247370D01*
X44288364Y46249500D01*
X44573919Y46249500D01*
X44573919Y46249501D01*
X44718913Y46278342D01*
X44855495Y46334916D01*
X44924067Y46380734D01*
X44978416Y46417048D01*
X46132951Y47571584D01*
X46215084Y47694505D01*
X46271658Y47831087D01*
X46300500Y47976082D01*
X46300500Y48123917D01*
X46300500Y49601000D01*
X46319454Y49696288D01*
X46373430Y49777070D01*
X46454212Y49831046D01*
X46549500Y49850000D01*
X47750500Y49850000D01*
X47845788Y49831046D01*
G37*
%TD.AperFunction*%
%TA.AperFunction,Conductor*%
G36*
X87400074Y56799659D02*
G01*
X87500000Y56794422D01*
X87599926Y56799659D01*
X87612957Y56800000D01*
X90675500Y56800000D01*
X90770788Y56781046D01*
X90851570Y56727070D01*
X90905546Y56646288D01*
X90924500Y56551000D01*
X90924500Y34321824D01*
X90905546Y34226536D01*
X90851570Y34145754D01*
X90770788Y34091778D01*
X90675500Y34072824D01*
X90580212Y34091778D01*
X90499430Y34145754D01*
X90445454Y34226536D01*
X90437224Y34249538D01*
X90436572Y34251686D01*
X90361191Y34433673D01*
X90361188Y34433680D01*
X90251753Y34597460D01*
X90112459Y34736754D01*
X89948679Y34846189D01*
X89948672Y34846192D01*
X89766691Y34921571D01*
X89573489Y34960000D01*
X89325001Y34960000D01*
X89325000Y34959999D01*
X89325000Y34260000D01*
X88825000Y34260000D01*
X88825000Y34959999D01*
X88824999Y34960000D01*
X88576509Y34960000D01*
X88376517Y34920220D01*
X88279362Y34920221D01*
X88189603Y34957401D01*
X88120904Y35026100D01*
X88083725Y35115860D01*
X88083726Y35213015D01*
X88120906Y35302774D01*
X88151867Y35340501D01*
X88332951Y35521584D01*
X88415084Y35644505D01*
X88471658Y35781087D01*
X88500500Y35926082D01*
X88500500Y36073917D01*
X88500500Y41246817D01*
X88519454Y41342105D01*
X88542464Y41385154D01*
X88636631Y41526085D01*
X88636632Y41526086D01*
X88712051Y41708165D01*
X88750500Y41901459D01*
X88750500Y43848541D01*
X88713993Y44032071D01*
X88712051Y44041836D01*
X88703804Y44061745D01*
X88683630Y44110450D01*
X88683629Y44110452D01*
X88636632Y44223914D01*
X88527139Y44387782D01*
X88387782Y44527139D01*
X88387778Y44527142D01*
X87540489Y45374431D01*
X87486513Y45455213D01*
X87467559Y45550501D01*
X87486513Y45645789D01*
X87540489Y45726571D01*
X87621271Y45780547D01*
X87716554Y45799501D01*
X89147872Y45799501D01*
X89207483Y45805909D01*
X89342331Y45856204D01*
X89457546Y45942454D01*
X89543796Y46057669D01*
X89594091Y46192517D01*
X89600500Y46252127D01*
X89600499Y48047872D01*
X89594091Y48107483D01*
X89543796Y48242331D01*
X89457546Y48357546D01*
X89342331Y48443796D01*
X89342329Y48443797D01*
X89328073Y48454469D01*
X89330543Y48457769D01*
X89281995Y48498354D01*
X89236976Y48584450D01*
X89228331Y48681219D01*
X89257376Y48773931D01*
X89285158Y48814622D01*
X89288494Y48818598D01*
X89318285Y48861144D01*
X89424035Y49012170D01*
X89523903Y49226337D01*
X89585063Y49454592D01*
X89585064Y49454599D01*
X89605659Y49689995D01*
X89605659Y49690006D01*
X89585064Y49925402D01*
X89585063Y49925405D01*
X89585063Y49925408D01*
X89523903Y50153663D01*
X89463957Y50282216D01*
X89424038Y50367823D01*
X89424034Y50367831D01*
X89360778Y50458170D01*
X89288495Y50561401D01*
X89121401Y50728495D01*
X89082074Y50756033D01*
X89014891Y50826211D01*
X88979678Y50916760D01*
X88981797Y51013892D01*
X89020925Y51102819D01*
X89082073Y51163968D01*
X89121401Y51191505D01*
X89288495Y51358599D01*
X89424035Y51552170D01*
X89523903Y51766337D01*
X89585063Y51994592D01*
X89585843Y52003504D01*
X89605659Y52229995D01*
X89605659Y52230006D01*
X89585064Y52465402D01*
X89585063Y52465405D01*
X89585063Y52465408D01*
X89523903Y52693663D01*
X89424035Y52907829D01*
X89409331Y52928828D01*
X89344913Y53020827D01*
X89288495Y53101401D01*
X89121401Y53268495D01*
X89121397Y53268498D01*
X89121396Y53268499D01*
X89081638Y53296338D01*
X89014454Y53366519D01*
X88979242Y53457069D01*
X88981362Y53554200D01*
X89020491Y53643127D01*
X89081640Y53704276D01*
X89121075Y53731889D01*
X89288110Y53898924D01*
X89423600Y54092424D01*
X89523433Y54306515D01*
X89523433Y54306517D01*
X89580636Y54519999D01*
X89580636Y54520000D01*
X88683012Y54520000D01*
X88715925Y54577007D01*
X88750000Y54704174D01*
X88750000Y54835826D01*
X88715925Y54962993D01*
X88683012Y55020000D01*
X89580636Y55020000D01*
X89580636Y55020002D01*
X89523433Y55233484D01*
X89523429Y55233495D01*
X89423603Y55447572D01*
X89423599Y55447580D01*
X89288110Y55641077D01*
X89121076Y55808111D01*
X88927576Y55943601D01*
X88713484Y56043434D01*
X88500001Y56100637D01*
X88500000Y56100636D01*
X88500000Y55203012D01*
X88442993Y55235925D01*
X88315826Y55270000D01*
X88184174Y55270000D01*
X88057007Y55235925D01*
X88000000Y55203012D01*
X88000000Y56100636D01*
X87999998Y56100637D01*
X87786516Y56043434D01*
X87786505Y56043430D01*
X87572428Y55943604D01*
X87572420Y55943600D01*
X87378923Y55808111D01*
X87211889Y55641077D01*
X87076400Y55447580D01*
X87076396Y55447572D01*
X86976570Y55233495D01*
X86976566Y55233484D01*
X86919363Y55020002D01*
X86919364Y55020000D01*
X87816988Y55020000D01*
X87784075Y54962993D01*
X87750000Y54835826D01*
X87750000Y54704174D01*
X87784075Y54577007D01*
X87816988Y54520000D01*
X86866367Y54520000D01*
X86813721Y54502130D01*
X86781224Y54500000D01*
X81999500Y54500000D01*
X81904212Y54518954D01*
X81823430Y54572930D01*
X81769454Y54653712D01*
X81750500Y54749000D01*
X81750500Y56551000D01*
X81769454Y56646288D01*
X81823430Y56727070D01*
X81904212Y56781046D01*
X81999500Y56800000D01*
X87387043Y56800000D01*
X87400074Y56799659D01*
G37*
%TD.AperFunction*%
%TA.AperFunction,Conductor*%
G36*
X35031281Y51480546D02*
G01*
X35112062Y51426570D01*
X35426569Y51112064D01*
X35480546Y51031283D01*
X35499500Y50935994D01*
X35499500Y49067816D01*
X35480546Y48972528D01*
X35466141Y48943318D01*
X35422823Y48868289D01*
X35422821Y48868286D01*
X35422821Y48868284D01*
X35416718Y48849500D01*
X35364325Y48688256D01*
X35344540Y48500000D01*
X35364325Y48311745D01*
X35386880Y48242331D01*
X35422821Y48131716D01*
X35422823Y48131713D01*
X35427278Y48123996D01*
X35458505Y48031996D01*
X35452149Y47935050D01*
X35409177Y47847915D01*
X35336131Y47783857D01*
X35244131Y47752630D01*
X35211635Y47750500D01*
X34827735Y47750500D01*
X34732447Y47769454D01*
X34703238Y47783858D01*
X34702727Y47784153D01*
X34529810Y47861142D01*
X34529796Y47861146D01*
X34344646Y47900500D01*
X34155354Y47900500D01*
X33970203Y47861146D01*
X33970189Y47861142D01*
X33797271Y47784153D01*
X33644126Y47672886D01*
X33517469Y47532220D01*
X33463725Y47439132D01*
X33422821Y47368284D01*
X33377712Y47229451D01*
X33376753Y47226501D01*
X33329280Y47141734D01*
X33316010Y47127379D01*
X33167048Y46978417D01*
X33129946Y46922888D01*
X33084916Y46855496D01*
X33028341Y46718912D01*
X32999500Y46573921D01*
X32999500Y44067816D01*
X32980546Y43972528D01*
X32966141Y43943318D01*
X32922821Y43868285D01*
X32922820Y43868284D01*
X32876752Y43726502D01*
X32829280Y43641735D01*
X32816010Y43627380D01*
X32267046Y43078415D01*
X32267045Y43078414D01*
X32245505Y43046174D01*
X32245503Y43046171D01*
X32184918Y42955498D01*
X32184913Y42955490D01*
X32128341Y42818912D01*
X32099500Y42673921D01*
X32099500Y42199500D01*
X32080546Y42104212D01*
X32026570Y42023430D01*
X31945788Y41969454D01*
X31850500Y41950500D01*
X30426079Y41950500D01*
X30281088Y41921659D01*
X30144507Y41865085D01*
X30144503Y41865083D01*
X30021585Y41782952D01*
X30021583Y41782951D01*
X29062061Y40823430D01*
X28981280Y40769454D01*
X28885992Y40750500D01*
X26827735Y40750500D01*
X26732447Y40769454D01*
X26703238Y40783858D01*
X26702727Y40784153D01*
X26529810Y40861142D01*
X26529796Y40861146D01*
X26344646Y40900500D01*
X26155354Y40900500D01*
X25970203Y40861146D01*
X25970189Y40861142D01*
X25797271Y40784153D01*
X25644126Y40672886D01*
X25517469Y40532220D01*
X25463219Y40438256D01*
X25422821Y40368284D01*
X25391552Y40272051D01*
X25344081Y40187286D01*
X25267783Y40127139D01*
X25174276Y40100767D01*
X25154741Y40100000D01*
X23937000Y40100000D01*
X23841712Y40118954D01*
X23760930Y40172930D01*
X23706954Y40253712D01*
X23688000Y40349000D01*
X23688000Y43669941D01*
X23706954Y43765229D01*
X23760928Y43846009D01*
X25137778Y45222859D01*
X25137782Y45222861D01*
X25277139Y45362218D01*
X25386632Y45526086D01*
X25439961Y45654835D01*
X25462051Y45708164D01*
X25500500Y45901460D01*
X25500500Y46098540D01*
X25500500Y48298541D01*
X25486627Y48368284D01*
X25462051Y48491836D01*
X25388720Y48668872D01*
X25386632Y48673914D01*
X25277139Y48837782D01*
X25213921Y48901000D01*
X25137782Y48977140D01*
X25137782Y48977139D01*
X25137781Y48977140D01*
X24142060Y49972861D01*
X23040489Y51074431D01*
X22986514Y51155212D01*
X22967560Y51250500D01*
X22986514Y51345788D01*
X23040490Y51426570D01*
X23121272Y51480546D01*
X23216560Y51499500D01*
X34935993Y51499500D01*
X35031281Y51480546D01*
G37*
%TD.AperFunction*%
%TA.AperFunction,Conductor*%
G36*
X44230781Y57431046D02*
G01*
X44311563Y57377070D01*
X44726570Y56962063D01*
X44780546Y56881281D01*
X44799500Y56785993D01*
X44799500Y48464008D01*
X44780546Y48368720D01*
X44726570Y48287938D01*
X44262062Y47823430D01*
X44181280Y47769454D01*
X44085992Y47750500D01*
X37288365Y47750500D01*
X37193077Y47769454D01*
X37112295Y47823430D01*
X37058319Y47904212D01*
X37039365Y47999500D01*
X37058319Y48094788D01*
X37072722Y48123996D01*
X37073151Y48124741D01*
X37077179Y48131716D01*
X37135674Y48311744D01*
X37155460Y48500000D01*
X37135674Y48688256D01*
X37077179Y48868284D01*
X37058291Y48901000D01*
X37033859Y48943318D01*
X37002630Y49035317D01*
X37000500Y49067816D01*
X37000500Y51423919D01*
X37000499Y51423921D01*
X36997948Y51436744D01*
X36971658Y51568913D01*
X36915084Y51705495D01*
X36832951Y51828416D01*
X36832949Y51828418D01*
X36728421Y51932947D01*
X36728418Y51932949D01*
X36728416Y51932951D01*
X36586933Y52074434D01*
X36532960Y52155212D01*
X36514006Y52250500D01*
X36532960Y52345788D01*
X36586936Y52426570D01*
X36667718Y52480546D01*
X36763006Y52499500D01*
X40148539Y52499500D01*
X40148540Y52499500D01*
X40148541Y52499500D01*
X40245188Y52518725D01*
X40341836Y52537949D01*
X40395165Y52560039D01*
X40523914Y52613368D01*
X40687782Y52722861D01*
X40827139Y52862218D01*
X40827139Y52862220D01*
X40847639Y52882719D01*
X40847640Y52882722D01*
X42277140Y54312219D01*
X42386632Y54476086D01*
X42462052Y54658165D01*
X42500500Y54851460D01*
X42500500Y55048541D01*
X42500500Y57201000D01*
X42519454Y57296288D01*
X42573430Y57377070D01*
X42654212Y57431046D01*
X42749500Y57450000D01*
X44135493Y57450000D01*
X44230781Y57431046D01*
G37*
%TD.AperFunction*%
%TD*%
M02*
