%TF.GenerationSoftware,KiCad,Pcbnew,8.0.6*%
%TF.CreationDate,2024-10-30T20:12:06+07:00*%
%TF.ProjectId,NO2C,4e4f3243-2e6b-4696-9361-645f70636258,vD1*%
%TF.SameCoordinates,Original*%
%TF.FileFunction,Legend,Bot*%
%TF.FilePolarity,Positive*%
%FSLAX46Y46*%
G04 Gerber Fmt 4.6, Leading zero omitted, Abs format (unit mm)*
G04 Created by KiCad (PCBNEW 8.0.6) date 2024-10-30 20:12:06*
%MOMM*%
%LPD*%
G01*
G04 APERTURE LIST*
G04 Aperture macros list*
%AMRoundRect*
0 Rectangle with rounded corners*
0 $1 Rounding radius*
0 $2 $3 $4 $5 $6 $7 $8 $9 X,Y pos of 4 corners*
0 Add a 4 corners polygon primitive as box body*
4,1,4,$2,$3,$4,$5,$6,$7,$8,$9,$2,$3,0*
0 Add four circle primitives for the rounded corners*
1,1,$1+$1,$2,$3*
1,1,$1+$1,$4,$5*
1,1,$1+$1,$6,$7*
1,1,$1+$1,$8,$9*
0 Add four rect primitives between the rounded corners*
20,1,$1+$1,$2,$3,$4,$5,0*
20,1,$1+$1,$4,$5,$6,$7,0*
20,1,$1+$1,$6,$7,$8,$9,0*
20,1,$1+$1,$8,$9,$2,$3,0*%
G04 Aperture macros list end*
%ADD10C,0.150000*%
%ADD11O,1.803200X1.803200*%
%ADD12RoundRect,0.101600X0.800000X-0.800000X0.800000X0.800000X-0.800000X0.800000X-0.800000X-0.800000X0*%
%ADD13C,2.453200*%
%ADD14C,5.303200*%
%ADD15RoundRect,0.101600X0.850000X0.850000X-0.850000X0.850000X-0.850000X-0.850000X0.850000X-0.850000X0*%
%ADD16O,1.903200X1.903200*%
%ADD17C,1.003200*%
%ADD18C,6.603200*%
%ADD19C,0.853200*%
%ADD20O,2.303200X1.203200*%
%ADD21O,2.003200X1.203200*%
%ADD22RoundRect,0.101600X-0.850000X0.850000X-0.850000X-0.850000X0.850000X-0.850000X0.850000X0.850000X0*%
G04 APERTURE END LIST*
D10*
G36*
X23606888Y9270923D02*
G01*
X23637295Y9240516D01*
X23675788Y9163529D01*
X23719172Y8989995D01*
X23719172Y8770368D01*
X23675788Y8596834D01*
X23637294Y8519847D01*
X23606887Y8489439D01*
X23538372Y8455181D01*
X23478544Y8455181D01*
X23410028Y8489439D01*
X23379621Y8519847D01*
X23341127Y8596834D01*
X23297744Y8770368D01*
X23297744Y8989995D01*
X23341127Y9163529D01*
X23379621Y9240516D01*
X23410028Y9270923D01*
X23478544Y9305181D01*
X23538372Y9305181D01*
X23606888Y9270923D01*
G37*
G36*
X25511650Y9270923D02*
G01*
X25542057Y9240516D01*
X25580550Y9163529D01*
X25623934Y8989995D01*
X25623934Y8770368D01*
X25580550Y8596834D01*
X25542056Y8519847D01*
X25511649Y8489439D01*
X25443134Y8455181D01*
X25383306Y8455181D01*
X25314790Y8489439D01*
X25284383Y8519847D01*
X25245889Y8596834D01*
X25202506Y8770368D01*
X25202506Y8989995D01*
X25245889Y9163529D01*
X25284383Y9240516D01*
X25314790Y9270923D01*
X25383306Y9305181D01*
X25443134Y9305181D01*
X25511650Y9270923D01*
G37*
G36*
X29321174Y9270923D02*
G01*
X29351581Y9240516D01*
X29390074Y9163529D01*
X29433458Y8989995D01*
X29433458Y8770368D01*
X29390074Y8596834D01*
X29351580Y8519847D01*
X29321173Y8489439D01*
X29252658Y8455181D01*
X29192830Y8455181D01*
X29124314Y8489439D01*
X29093907Y8519847D01*
X29055413Y8596834D01*
X29012030Y8770368D01*
X29012030Y8989995D01*
X29055413Y9163529D01*
X29093907Y9240516D01*
X29124314Y9270923D01*
X29192830Y9305181D01*
X29252658Y9305181D01*
X29321174Y9270923D01*
G37*
G36*
X30693128Y8194070D02*
G01*
X23036633Y8194070D01*
X23036633Y8999229D01*
X23147744Y8999229D01*
X23147744Y8761134D01*
X23147995Y8758581D01*
X23147833Y8757488D01*
X23148642Y8752015D01*
X23149185Y8746502D01*
X23149607Y8745481D01*
X23149983Y8742944D01*
X23197602Y8552468D01*
X23197987Y8551389D01*
X23198026Y8550849D01*
X23200353Y8544768D01*
X23202549Y8538622D01*
X23202871Y8538187D01*
X23203281Y8537117D01*
X23250900Y8441879D01*
X23254863Y8435583D01*
X23255621Y8433753D01*
X23257310Y8431695D01*
X23258732Y8429436D01*
X23260230Y8428137D01*
X23264948Y8422388D01*
X23312567Y8374768D01*
X23318316Y8370050D01*
X23319617Y8368550D01*
X23321876Y8367128D01*
X23323933Y8365440D01*
X23325760Y8364683D01*
X23332060Y8360718D01*
X23427298Y8313099D01*
X23441029Y8307844D01*
X23443718Y8307653D01*
X23446207Y8306622D01*
X23460839Y8305181D01*
X23556077Y8305181D01*
X23570709Y8306622D01*
X23573198Y8307654D01*
X23575886Y8307844D01*
X23589618Y8313099D01*
X23684856Y8360718D01*
X23691155Y8364683D01*
X23692983Y8365440D01*
X23695039Y8367128D01*
X23697299Y8368550D01*
X23698599Y8370050D01*
X23704349Y8374768D01*
X23751967Y8422387D01*
X23756685Y8428137D01*
X23758184Y8429436D01*
X23759605Y8431695D01*
X23761295Y8433753D01*
X23762052Y8435583D01*
X23766016Y8441879D01*
X23813635Y8537117D01*
X23814044Y8538187D01*
X23814367Y8538622D01*
X23816559Y8544759D01*
X23818890Y8550848D01*
X23818928Y8551389D01*
X23819314Y8552468D01*
X23866933Y8742944D01*
X23867308Y8745481D01*
X23867731Y8746502D01*
X23868273Y8752015D01*
X23869083Y8757488D01*
X23868920Y8758581D01*
X23869172Y8761134D01*
X23869172Y8808753D01*
X24100125Y8808753D01*
X24100125Y8570658D01*
X24101566Y8556026D01*
X24102597Y8553537D01*
X24102788Y8550849D01*
X24108043Y8537117D01*
X24155662Y8441879D01*
X24159625Y8435583D01*
X24160383Y8433753D01*
X24162072Y8431695D01*
X24163494Y8429436D01*
X24164992Y8428137D01*
X24169710Y8422388D01*
X24217329Y8374768D01*
X24223078Y8370050D01*
X24224379Y8368550D01*
X24226638Y8367128D01*
X24228695Y8365440D01*
X24230522Y8364683D01*
X24236822Y8360718D01*
X24332060Y8313099D01*
X24345791Y8307844D01*
X24348480Y8307653D01*
X24350969Y8306622D01*
X24365601Y8305181D01*
X24651315Y8305181D01*
X24665947Y8306622D01*
X24668436Y8307654D01*
X24671124Y8307844D01*
X24684856Y8313099D01*
X24780094Y8360718D01*
X24786393Y8364683D01*
X24788221Y8365440D01*
X24790277Y8367128D01*
X24792537Y8368550D01*
X24793837Y8370050D01*
X24799587Y8374768D01*
X24847205Y8422387D01*
X24856533Y8433753D01*
X24867731Y8460789D01*
X24867731Y8490052D01*
X24856532Y8517088D01*
X24835839Y8537781D01*
X24808803Y8548979D01*
X24779540Y8548979D01*
X24752504Y8537780D01*
X24741138Y8528452D01*
X24702125Y8489439D01*
X24633610Y8455181D01*
X24383306Y8455181D01*
X24314790Y8489439D01*
X24284383Y8519847D01*
X24250125Y8588363D01*
X24250125Y8791048D01*
X24284383Y8859564D01*
X24314790Y8889971D01*
X24383306Y8924229D01*
X24508458Y8924229D01*
X24516196Y8924992D01*
X24518164Y8924860D01*
X24519519Y8925319D01*
X24523090Y8925670D01*
X24534347Y8930334D01*
X24545885Y8934235D01*
X24547789Y8935901D01*
X24550126Y8936869D01*
X24558736Y8945480D01*
X24567909Y8953505D01*
X24569031Y8955775D01*
X24570818Y8957561D01*
X24575478Y8968812D01*
X24580881Y8979737D01*
X24581049Y8982261D01*
X24582017Y8984597D01*
X24582017Y8996782D01*
X24582180Y8999229D01*
X25052506Y8999229D01*
X25052506Y8761134D01*
X25052757Y8758581D01*
X25052595Y8757488D01*
X25053404Y8752015D01*
X25053947Y8746502D01*
X25054369Y8745481D01*
X25054745Y8742944D01*
X25102364Y8552468D01*
X25102749Y8551389D01*
X25102788Y8550849D01*
X25105115Y8544768D01*
X25107311Y8538622D01*
X25107633Y8538187D01*
X25108043Y8537117D01*
X25155662Y8441879D01*
X25159625Y8435583D01*
X25160383Y8433753D01*
X25162072Y8431695D01*
X25163494Y8429436D01*
X25164992Y8428137D01*
X25169710Y8422388D01*
X25217329Y8374768D01*
X25223078Y8370050D01*
X25224379Y8368550D01*
X25226638Y8367128D01*
X25228695Y8365440D01*
X25230522Y8364683D01*
X25236822Y8360718D01*
X25332060Y8313099D01*
X25345791Y8307844D01*
X25348480Y8307653D01*
X25350969Y8306622D01*
X25365601Y8305181D01*
X25460839Y8305181D01*
X25475471Y8306622D01*
X25477960Y8307654D01*
X25480648Y8307844D01*
X25494380Y8313099D01*
X25589618Y8360718D01*
X25595917Y8364683D01*
X25597745Y8365440D01*
X25599801Y8367128D01*
X25602061Y8368550D01*
X25603361Y8370050D01*
X25609111Y8374768D01*
X25629156Y8394813D01*
X26006328Y8394813D01*
X26006328Y8365549D01*
X26017527Y8338513D01*
X26038219Y8317821D01*
X26065255Y8306622D01*
X26079887Y8305181D01*
X26651315Y8305181D01*
X26665947Y8306622D01*
X26692983Y8317821D01*
X26713675Y8338513D01*
X26724874Y8365549D01*
X26724874Y8394813D01*
X26713675Y8421849D01*
X26692983Y8442541D01*
X26665947Y8453740D01*
X26651315Y8455181D01*
X26440601Y8455181D01*
X26440601Y8728147D01*
X26911090Y8728147D01*
X26911090Y8698883D01*
X26922289Y8671847D01*
X26942981Y8651155D01*
X26970017Y8639956D01*
X26984649Y8638515D01*
X27052506Y8638515D01*
X27052506Y8380181D01*
X27053947Y8365549D01*
X27065146Y8338513D01*
X27085838Y8317821D01*
X27112874Y8306622D01*
X27142138Y8306622D01*
X27169174Y8317821D01*
X27189866Y8338513D01*
X27201065Y8365549D01*
X27202506Y8380181D01*
X27202506Y8638515D01*
X27603696Y8638515D01*
X27611101Y8639245D01*
X27613076Y8639104D01*
X27614501Y8639580D01*
X27618328Y8639956D01*
X27629437Y8644558D01*
X27640838Y8648358D01*
X27642873Y8650124D01*
X27645364Y8651155D01*
X27653866Y8659658D01*
X27662946Y8667532D01*
X27664150Y8669942D01*
X27666056Y8671847D01*
X27670658Y8682959D01*
X27676032Y8693706D01*
X27676222Y8696392D01*
X27677255Y8698883D01*
X27677255Y8710911D01*
X27678107Y8722896D01*
X27677255Y8726643D01*
X27677255Y8728147D01*
X27676496Y8729978D01*
X27674847Y8737233D01*
X27524023Y9189705D01*
X27909649Y9189705D01*
X27909649Y9094467D01*
X27910378Y9087062D01*
X27910238Y9085087D01*
X27910828Y9082490D01*
X27911090Y9079835D01*
X27911848Y9078004D01*
X27913498Y9070750D01*
X27961117Y8927893D01*
X27967111Y8914468D01*
X27968876Y8912433D01*
X27969908Y8909942D01*
X27979235Y8898577D01*
X28422630Y8455181D01*
X27984649Y8455181D01*
X27970017Y8453740D01*
X27942981Y8442541D01*
X27922289Y8421849D01*
X27911090Y8394813D01*
X27911090Y8365549D01*
X27922289Y8338513D01*
X27942981Y8317821D01*
X27970017Y8306622D01*
X27984649Y8305181D01*
X28603696Y8305181D01*
X28618328Y8306622D01*
X28626246Y8309902D01*
X28645364Y8317820D01*
X28666056Y8338513D01*
X28677255Y8365549D01*
X28677255Y8394812D01*
X28666057Y8421849D01*
X28656729Y8433214D01*
X28097820Y8992124D01*
X28095452Y8999229D01*
X28862030Y8999229D01*
X28862030Y8761134D01*
X28862281Y8758581D01*
X28862119Y8757488D01*
X28862928Y8752015D01*
X28863471Y8746502D01*
X28863893Y8745481D01*
X28864269Y8742944D01*
X28911888Y8552468D01*
X28912273Y8551389D01*
X28912312Y8550849D01*
X28914639Y8544768D01*
X28916835Y8538622D01*
X28917157Y8538187D01*
X28917567Y8537117D01*
X28965186Y8441879D01*
X28969149Y8435583D01*
X28969907Y8433753D01*
X28971596Y8431695D01*
X28973018Y8429436D01*
X28974516Y8428137D01*
X28979234Y8422388D01*
X29026853Y8374768D01*
X29032602Y8370050D01*
X29033903Y8368550D01*
X29036162Y8367128D01*
X29038219Y8365440D01*
X29040046Y8364683D01*
X29046346Y8360718D01*
X29141584Y8313099D01*
X29155315Y8307844D01*
X29158004Y8307653D01*
X29160493Y8306622D01*
X29175125Y8305181D01*
X29270363Y8305181D01*
X29284995Y8306622D01*
X29287484Y8307654D01*
X29290172Y8307844D01*
X29303904Y8313099D01*
X29399142Y8360718D01*
X29405441Y8364683D01*
X29407269Y8365440D01*
X29409325Y8367128D01*
X29411585Y8368550D01*
X29412885Y8370050D01*
X29418635Y8374768D01*
X29466253Y8422387D01*
X29470971Y8428137D01*
X29472470Y8429436D01*
X29473891Y8431695D01*
X29475581Y8433753D01*
X29476338Y8435583D01*
X29480302Y8441879D01*
X29527921Y8537117D01*
X29528330Y8538187D01*
X29528653Y8538622D01*
X29530845Y8544759D01*
X29533176Y8550848D01*
X29533214Y8551389D01*
X29533600Y8552468D01*
X29581219Y8742944D01*
X29581594Y8745481D01*
X29582017Y8746502D01*
X29582559Y8752015D01*
X29583369Y8757488D01*
X29583206Y8758581D01*
X29583458Y8761134D01*
X29583458Y8999229D01*
X29583206Y9001783D01*
X29583369Y9002875D01*
X29582559Y9008349D01*
X29582017Y9013861D01*
X29581594Y9014883D01*
X29581219Y9017419D01*
X29538147Y9189705D01*
X29814411Y9189705D01*
X29814411Y9094467D01*
X29815140Y9087062D01*
X29815000Y9085087D01*
X29815590Y9082490D01*
X29815852Y9079835D01*
X29816610Y9078004D01*
X29818260Y9070750D01*
X29865879Y8927893D01*
X29871873Y8914468D01*
X29873638Y8912433D01*
X29874670Y8909942D01*
X29883997Y8898577D01*
X30327392Y8455181D01*
X29889411Y8455181D01*
X29874779Y8453740D01*
X29847743Y8442541D01*
X29827051Y8421849D01*
X29815852Y8394813D01*
X29815852Y8365549D01*
X29827051Y8338513D01*
X29847743Y8317821D01*
X29874779Y8306622D01*
X29889411Y8305181D01*
X30508458Y8305181D01*
X30523090Y8306622D01*
X30531008Y8309902D01*
X30550126Y8317820D01*
X30570818Y8338513D01*
X30582017Y8365549D01*
X30582017Y8394812D01*
X30570819Y8421849D01*
X30561491Y8433214D01*
X30002582Y8992124D01*
X29964411Y9106638D01*
X29964411Y9172000D01*
X29998669Y9240516D01*
X30029076Y9270923D01*
X30097592Y9305181D01*
X30300277Y9305181D01*
X30368793Y9270923D01*
X30407806Y9231910D01*
X30419171Y9222583D01*
X30446207Y9211384D01*
X30475470Y9211384D01*
X30502506Y9222583D01*
X30523199Y9243276D01*
X30534398Y9270312D01*
X30534398Y9299575D01*
X30523199Y9326611D01*
X30513872Y9337976D01*
X30466253Y9385595D01*
X30460503Y9390314D01*
X30459204Y9391812D01*
X30456944Y9393234D01*
X30454888Y9394922D01*
X30453060Y9395680D01*
X30446761Y9399644D01*
X30351523Y9447263D01*
X30337791Y9452518D01*
X30335103Y9452709D01*
X30332614Y9453740D01*
X30317982Y9455181D01*
X30079887Y9455181D01*
X30065255Y9453740D01*
X30062766Y9452710D01*
X30060077Y9452518D01*
X30046346Y9447263D01*
X29951108Y9399644D01*
X29944808Y9395680D01*
X29942981Y9394922D01*
X29940924Y9393234D01*
X29938665Y9391812D01*
X29937365Y9390314D01*
X29931616Y9385595D01*
X29883997Y9337976D01*
X29879278Y9332227D01*
X29877780Y9330927D01*
X29876358Y9328668D01*
X29874670Y9326611D01*
X29873912Y9324784D01*
X29869948Y9318484D01*
X29822329Y9223246D01*
X29817074Y9209514D01*
X29816883Y9206827D01*
X29815852Y9204337D01*
X29814411Y9189705D01*
X29538147Y9189705D01*
X29533600Y9207895D01*
X29533214Y9208975D01*
X29533176Y9209515D01*
X29530845Y9215605D01*
X29528653Y9221741D01*
X29528330Y9222177D01*
X29527921Y9223246D01*
X29480302Y9318484D01*
X29476337Y9324784D01*
X29475580Y9326611D01*
X29473891Y9328668D01*
X29472470Y9330927D01*
X29470971Y9332227D01*
X29466253Y9337976D01*
X29418634Y9385595D01*
X29412884Y9390314D01*
X29411585Y9391812D01*
X29409325Y9393234D01*
X29407269Y9394922D01*
X29405441Y9395680D01*
X29399142Y9399644D01*
X29303904Y9447263D01*
X29290172Y9452518D01*
X29287484Y9452709D01*
X29284995Y9453740D01*
X29270363Y9455181D01*
X29175125Y9455181D01*
X29160493Y9453740D01*
X29158004Y9452710D01*
X29155315Y9452518D01*
X29141584Y9447263D01*
X29046346Y9399644D01*
X29040046Y9395680D01*
X29038219Y9394922D01*
X29036162Y9393234D01*
X29033903Y9391812D01*
X29032603Y9390314D01*
X29026854Y9385595D01*
X28979235Y9337976D01*
X28974516Y9332227D01*
X28973018Y9330927D01*
X28971596Y9328668D01*
X28969908Y9326611D01*
X28969150Y9324784D01*
X28965186Y9318484D01*
X28917567Y9223246D01*
X28917157Y9222177D01*
X28916835Y9221741D01*
X28914639Y9215596D01*
X28912312Y9209514D01*
X28912273Y9208975D01*
X28911888Y9207895D01*
X28864269Y9017419D01*
X28863893Y9014883D01*
X28863471Y9013861D01*
X28862928Y9008349D01*
X28862119Y9002875D01*
X28862281Y9001783D01*
X28862030Y8999229D01*
X28095452Y8999229D01*
X28059649Y9106638D01*
X28059649Y9172000D01*
X28093907Y9240516D01*
X28124314Y9270923D01*
X28192830Y9305181D01*
X28395515Y9305181D01*
X28464031Y9270923D01*
X28503044Y9231910D01*
X28514409Y9222583D01*
X28541445Y9211384D01*
X28570708Y9211384D01*
X28597744Y9222583D01*
X28618437Y9243276D01*
X28629636Y9270312D01*
X28629636Y9299575D01*
X28618437Y9326611D01*
X28609110Y9337976D01*
X28561491Y9385595D01*
X28555741Y9390314D01*
X28554442Y9391812D01*
X28552182Y9393234D01*
X28550126Y9394922D01*
X28548298Y9395680D01*
X28541999Y9399644D01*
X28446761Y9447263D01*
X28433029Y9452518D01*
X28430341Y9452709D01*
X28427852Y9453740D01*
X28413220Y9455181D01*
X28175125Y9455181D01*
X28160493Y9453740D01*
X28158004Y9452710D01*
X28155315Y9452518D01*
X28141584Y9447263D01*
X28046346Y9399644D01*
X28040046Y9395680D01*
X28038219Y9394922D01*
X28036162Y9393234D01*
X28033903Y9391812D01*
X28032603Y9390314D01*
X28026854Y9385595D01*
X27979235Y9337976D01*
X27974516Y9332227D01*
X27973018Y9330927D01*
X27971596Y9328668D01*
X27969908Y9326611D01*
X27969150Y9324784D01*
X27965186Y9318484D01*
X27917567Y9223246D01*
X27912312Y9209514D01*
X27912121Y9206827D01*
X27911090Y9204337D01*
X27909649Y9189705D01*
X27524023Y9189705D01*
X27436752Y9451517D01*
X27430758Y9464943D01*
X27411584Y9487050D01*
X27385411Y9500136D01*
X27356221Y9502211D01*
X27328458Y9492957D01*
X27306351Y9473783D01*
X27293265Y9447610D01*
X27291190Y9418420D01*
X27294450Y9404083D01*
X27499639Y8788515D01*
X27202506Y8788515D01*
X27202506Y9046848D01*
X27201065Y9061480D01*
X27189866Y9088516D01*
X27169174Y9109208D01*
X27142138Y9120407D01*
X27112874Y9120407D01*
X27085838Y9109208D01*
X27065146Y9088516D01*
X27053947Y9061480D01*
X27052506Y9046848D01*
X27052506Y8788515D01*
X26984649Y8788515D01*
X26970017Y8787074D01*
X26942981Y8775875D01*
X26922289Y8755183D01*
X26911090Y8728147D01*
X26440601Y8728147D01*
X26440601Y9151496D01*
X26503044Y9089053D01*
X26508794Y9084333D01*
X26510093Y9082836D01*
X26512347Y9081417D01*
X26514409Y9079725D01*
X26516241Y9078967D01*
X26522536Y9075004D01*
X26617774Y9027385D01*
X26631505Y9022130D01*
X26660695Y9020056D01*
X26688457Y9029310D01*
X26710564Y9048483D01*
X26723652Y9074658D01*
X26725726Y9103848D01*
X26716472Y9131609D01*
X26697299Y9153717D01*
X26684856Y9161549D01*
X26600504Y9203725D01*
X26519123Y9285106D01*
X26428005Y9421784D01*
X26427970Y9421827D01*
X26427961Y9421849D01*
X26427909Y9421901D01*
X26418689Y9433159D01*
X26412519Y9437291D01*
X26407269Y9442541D01*
X26400479Y9445354D01*
X26394374Y9449442D01*
X26387093Y9450899D01*
X26380233Y9453740D01*
X26372885Y9453740D01*
X26365680Y9455181D01*
X26358396Y9453740D01*
X26350969Y9453740D01*
X26344180Y9450928D01*
X26336972Y9449502D01*
X26330793Y9445383D01*
X26323933Y9442541D01*
X26318737Y9437346D01*
X26312623Y9433269D01*
X26308491Y9427100D01*
X26303241Y9421849D01*
X26300428Y9415060D01*
X26296340Y9408954D01*
X26294883Y9401674D01*
X26292042Y9394813D01*
X26290616Y9380337D01*
X26290601Y9380260D01*
X26290606Y9380234D01*
X26290601Y9380181D01*
X26290601Y8455181D01*
X26079887Y8455181D01*
X26065255Y8453740D01*
X26038219Y8442541D01*
X26017527Y8421849D01*
X26006328Y8394813D01*
X25629156Y8394813D01*
X25656729Y8422387D01*
X25661447Y8428137D01*
X25662946Y8429436D01*
X25664367Y8431695D01*
X25666057Y8433753D01*
X25666814Y8435583D01*
X25670778Y8441879D01*
X25718397Y8537117D01*
X25718806Y8538187D01*
X25719129Y8538622D01*
X25721321Y8544759D01*
X25723652Y8550848D01*
X25723690Y8551389D01*
X25724076Y8552468D01*
X25771695Y8742944D01*
X25772070Y8745481D01*
X25772493Y8746502D01*
X25773035Y8752015D01*
X25773845Y8757488D01*
X25773682Y8758581D01*
X25773934Y8761134D01*
X25773934Y8999229D01*
X25773682Y9001783D01*
X25773845Y9002875D01*
X25773035Y9008349D01*
X25772493Y9013861D01*
X25772070Y9014883D01*
X25771695Y9017419D01*
X25724076Y9207895D01*
X25723690Y9208975D01*
X25723652Y9209515D01*
X25721321Y9215605D01*
X25719129Y9221741D01*
X25718806Y9222177D01*
X25718397Y9223246D01*
X25670778Y9318484D01*
X25666813Y9324784D01*
X25666056Y9326611D01*
X25664367Y9328668D01*
X25662946Y9330927D01*
X25661447Y9332227D01*
X25656729Y9337976D01*
X25609110Y9385595D01*
X25603360Y9390314D01*
X25602061Y9391812D01*
X25599801Y9393234D01*
X25597745Y9394922D01*
X25595917Y9395680D01*
X25589618Y9399644D01*
X25494380Y9447263D01*
X25480648Y9452518D01*
X25477960Y9452709D01*
X25475471Y9453740D01*
X25460839Y9455181D01*
X25365601Y9455181D01*
X25350969Y9453740D01*
X25348480Y9452710D01*
X25345791Y9452518D01*
X25332060Y9447263D01*
X25236822Y9399644D01*
X25230522Y9395680D01*
X25228695Y9394922D01*
X25226638Y9393234D01*
X25224379Y9391812D01*
X25223079Y9390314D01*
X25217330Y9385595D01*
X25169711Y9337976D01*
X25164992Y9332227D01*
X25163494Y9330927D01*
X25162072Y9328668D01*
X25160384Y9326611D01*
X25159626Y9324784D01*
X25155662Y9318484D01*
X25108043Y9223246D01*
X25107633Y9222177D01*
X25107311Y9221741D01*
X25105115Y9215596D01*
X25102788Y9209514D01*
X25102749Y9208975D01*
X25102364Y9207895D01*
X25054745Y9017419D01*
X25054369Y9014883D01*
X25053947Y9013861D01*
X25053404Y9008349D01*
X25052595Y9002875D01*
X25052757Y9001783D01*
X25052506Y8999229D01*
X24582180Y8999229D01*
X24582827Y9008935D01*
X24582017Y9011331D01*
X24582017Y9013861D01*
X24577353Y9025119D01*
X24573452Y9036656D01*
X24571366Y9039574D01*
X24570818Y9040897D01*
X24569422Y9042293D01*
X24564901Y9048617D01*
X24340407Y9305181D01*
X24794172Y9305181D01*
X24808804Y9306622D01*
X24835840Y9317821D01*
X24856532Y9338513D01*
X24867731Y9365549D01*
X24867731Y9394813D01*
X24856532Y9421849D01*
X24835840Y9442541D01*
X24808804Y9453740D01*
X24794172Y9455181D01*
X24175125Y9455181D01*
X24167386Y9454419D01*
X24165419Y9454550D01*
X24164063Y9454092D01*
X24160493Y9453740D01*
X24149235Y9449077D01*
X24137698Y9445175D01*
X24135793Y9443510D01*
X24133457Y9442541D01*
X24124846Y9433931D01*
X24115674Y9425905D01*
X24114551Y9423636D01*
X24112765Y9421849D01*
X24108104Y9410599D01*
X24102702Y9399673D01*
X24102533Y9397150D01*
X24101566Y9394813D01*
X24101566Y9382629D01*
X24100756Y9370475D01*
X24101566Y9368080D01*
X24101566Y9365549D01*
X24106229Y9354292D01*
X24110131Y9342754D01*
X24112216Y9339837D01*
X24112765Y9338513D01*
X24114160Y9337118D01*
X24118682Y9330793D01*
X24345577Y9071485D01*
X24332060Y9066311D01*
X24236822Y9018692D01*
X24230522Y9014728D01*
X24228695Y9013970D01*
X24226638Y9012282D01*
X24224379Y9010860D01*
X24223079Y9009362D01*
X24217330Y9004643D01*
X24169711Y8957024D01*
X24164992Y8951275D01*
X24163494Y8949975D01*
X24162072Y8947716D01*
X24160384Y8945659D01*
X24159626Y8943832D01*
X24155662Y8937532D01*
X24108043Y8842294D01*
X24102788Y8828562D01*
X24102597Y8825875D01*
X24101566Y8823385D01*
X24100125Y8808753D01*
X23869172Y8808753D01*
X23869172Y8999229D01*
X23868920Y9001783D01*
X23869083Y9002875D01*
X23868273Y9008349D01*
X23867731Y9013861D01*
X23867308Y9014883D01*
X23866933Y9017419D01*
X23819314Y9207895D01*
X23818928Y9208975D01*
X23818890Y9209515D01*
X23816559Y9215605D01*
X23814367Y9221741D01*
X23814044Y9222177D01*
X23813635Y9223246D01*
X23766016Y9318484D01*
X23762051Y9324784D01*
X23761294Y9326611D01*
X23759605Y9328668D01*
X23758184Y9330927D01*
X23756685Y9332227D01*
X23751967Y9337976D01*
X23704348Y9385595D01*
X23698598Y9390314D01*
X23697299Y9391812D01*
X23695039Y9393234D01*
X23692983Y9394922D01*
X23691155Y9395680D01*
X23684856Y9399644D01*
X23589618Y9447263D01*
X23575886Y9452518D01*
X23573198Y9452709D01*
X23570709Y9453740D01*
X23556077Y9455181D01*
X23460839Y9455181D01*
X23446207Y9453740D01*
X23443718Y9452710D01*
X23441029Y9452518D01*
X23427298Y9447263D01*
X23332060Y9399644D01*
X23325760Y9395680D01*
X23323933Y9394922D01*
X23321876Y9393234D01*
X23319617Y9391812D01*
X23318317Y9390314D01*
X23312568Y9385595D01*
X23264949Y9337976D01*
X23260230Y9332227D01*
X23258732Y9330927D01*
X23257310Y9328668D01*
X23255622Y9326611D01*
X23254864Y9324784D01*
X23250900Y9318484D01*
X23203281Y9223246D01*
X23202871Y9222177D01*
X23202549Y9221741D01*
X23200353Y9215596D01*
X23198026Y9209514D01*
X23197987Y9208975D01*
X23197602Y9207895D01*
X23149983Y9017419D01*
X23149607Y9014883D01*
X23149185Y9013861D01*
X23148642Y9008349D01*
X23147833Y9002875D01*
X23147995Y9001783D01*
X23147744Y8999229D01*
X23036633Y8999229D01*
X23036633Y9613322D01*
X30693128Y9613322D01*
X30693128Y8194070D01*
G37*
G36*
X29273555Y10770923D02*
G01*
X29303962Y10740516D01*
X29342455Y10663529D01*
X29385839Y10489995D01*
X29385839Y10270368D01*
X29342455Y10096834D01*
X29303961Y10019847D01*
X29273554Y9989439D01*
X29205039Y9955181D01*
X29145211Y9955181D01*
X29076695Y9989439D01*
X29046288Y10019847D01*
X29007794Y10096834D01*
X28964411Y10270368D01*
X28964411Y10489995D01*
X29007794Y10663529D01*
X29046288Y10740516D01*
X29076695Y10770923D01*
X29145211Y10805181D01*
X29205039Y10805181D01*
X29273555Y10770923D01*
G37*
G36*
X30338220Y10431372D02*
G01*
X30049973Y10431372D01*
X29981457Y10465630D01*
X29951050Y10496037D01*
X29916792Y10564553D01*
X29916792Y10672000D01*
X29951050Y10740516D01*
X29981457Y10770923D01*
X30049973Y10805181D01*
X30338220Y10805181D01*
X30338220Y10431372D01*
G37*
G36*
X30599331Y9694070D02*
G01*
X27750919Y9694070D01*
X27750919Y10689705D01*
X27862030Y10689705D01*
X27862030Y10594467D01*
X27862759Y10587062D01*
X27862619Y10585087D01*
X27863209Y10582490D01*
X27863471Y10579835D01*
X27864229Y10578004D01*
X27865879Y10570750D01*
X27913498Y10427893D01*
X27919492Y10414468D01*
X27921257Y10412433D01*
X27922289Y10409942D01*
X27931616Y10398577D01*
X28375011Y9955181D01*
X27937030Y9955181D01*
X27922398Y9953740D01*
X27895362Y9942541D01*
X27874670Y9921849D01*
X27863471Y9894813D01*
X27863471Y9865549D01*
X27874670Y9838513D01*
X27895362Y9817821D01*
X27922398Y9806622D01*
X27937030Y9805181D01*
X28556077Y9805181D01*
X28570709Y9806622D01*
X28582553Y9811528D01*
X28597745Y9817820D01*
X28618437Y9838513D01*
X28629636Y9865549D01*
X28629636Y9894812D01*
X28618438Y9921849D01*
X28609110Y9933214D01*
X28050201Y10492124D01*
X28047833Y10499229D01*
X28814411Y10499229D01*
X28814411Y10261134D01*
X28814662Y10258581D01*
X28814500Y10257488D01*
X28815309Y10252015D01*
X28815852Y10246502D01*
X28816274Y10245481D01*
X28816650Y10242944D01*
X28864269Y10052468D01*
X28864654Y10051389D01*
X28864693Y10050849D01*
X28867020Y10044768D01*
X28869216Y10038622D01*
X28869538Y10038187D01*
X28869948Y10037117D01*
X28917567Y9941879D01*
X28921530Y9935583D01*
X28922288Y9933753D01*
X28923977Y9931695D01*
X28925399Y9929436D01*
X28926897Y9928137D01*
X28931615Y9922388D01*
X28979234Y9874768D01*
X28984983Y9870050D01*
X28986284Y9868550D01*
X28988543Y9867128D01*
X28990600Y9865440D01*
X28992427Y9864683D01*
X28998727Y9860718D01*
X29093965Y9813099D01*
X29107696Y9807844D01*
X29110385Y9807653D01*
X29112874Y9806622D01*
X29127506Y9805181D01*
X29222744Y9805181D01*
X29237376Y9806622D01*
X29239865Y9807654D01*
X29242553Y9807844D01*
X29256285Y9813099D01*
X29351523Y9860718D01*
X29357822Y9864683D01*
X29359650Y9865440D01*
X29361706Y9867128D01*
X29363966Y9868550D01*
X29365266Y9870050D01*
X29371016Y9874768D01*
X29418634Y9922387D01*
X29423352Y9928137D01*
X29424851Y9929436D01*
X29426272Y9931695D01*
X29427962Y9933753D01*
X29428719Y9935583D01*
X29432683Y9941879D01*
X29480302Y10037117D01*
X29480711Y10038187D01*
X29481034Y10038622D01*
X29483226Y10044759D01*
X29485557Y10050848D01*
X29485595Y10051389D01*
X29485981Y10052468D01*
X29533600Y10242944D01*
X29533975Y10245481D01*
X29534398Y10246502D01*
X29534940Y10252015D01*
X29535750Y10257488D01*
X29535587Y10258581D01*
X29535839Y10261134D01*
X29535839Y10499229D01*
X29535587Y10501783D01*
X29535750Y10502875D01*
X29534940Y10508349D01*
X29534398Y10513861D01*
X29533975Y10514883D01*
X29533600Y10517419D01*
X29490528Y10689705D01*
X29766792Y10689705D01*
X29766792Y10546848D01*
X29768233Y10532216D01*
X29769264Y10529727D01*
X29769455Y10527039D01*
X29774710Y10513307D01*
X29822329Y10418069D01*
X29826293Y10411770D01*
X29827051Y10409942D01*
X29828739Y10407886D01*
X29830161Y10405626D01*
X29831659Y10404327D01*
X29836378Y10398577D01*
X29883997Y10350958D01*
X29889746Y10346240D01*
X29891046Y10344741D01*
X29893305Y10343320D01*
X29895362Y10341631D01*
X29897189Y10340874D01*
X29903489Y10336909D01*
X29998727Y10289290D01*
X30012458Y10284035D01*
X30015147Y10283844D01*
X30017636Y10282813D01*
X30031153Y10281482D01*
X29780350Y9923191D01*
X29773139Y9910377D01*
X29766810Y9881806D01*
X29771895Y9852989D01*
X29787622Y9828310D01*
X29811596Y9811528D01*
X29840167Y9805199D01*
X29868984Y9810284D01*
X29893663Y9826011D01*
X29903234Y9837171D01*
X30214174Y10281372D01*
X30338220Y10281372D01*
X30338220Y9880181D01*
X30339661Y9865549D01*
X30350860Y9838513D01*
X30371552Y9817821D01*
X30398588Y9806622D01*
X30427852Y9806622D01*
X30454888Y9817821D01*
X30475580Y9838513D01*
X30486779Y9865549D01*
X30488220Y9880181D01*
X30488220Y10880181D01*
X30486779Y10894813D01*
X30475580Y10921849D01*
X30454888Y10942541D01*
X30427852Y10953740D01*
X30413220Y10955181D01*
X30032268Y10955181D01*
X30017636Y10953740D01*
X30015147Y10952710D01*
X30012458Y10952518D01*
X29998727Y10947263D01*
X29903489Y10899644D01*
X29897189Y10895680D01*
X29895362Y10894922D01*
X29893305Y10893234D01*
X29891046Y10891812D01*
X29889746Y10890314D01*
X29883997Y10885595D01*
X29836378Y10837976D01*
X29831659Y10832227D01*
X29830161Y10830927D01*
X29828739Y10828668D01*
X29827051Y10826611D01*
X29826293Y10824784D01*
X29822329Y10818484D01*
X29774710Y10723246D01*
X29769455Y10709514D01*
X29769264Y10706827D01*
X29768233Y10704337D01*
X29766792Y10689705D01*
X29490528Y10689705D01*
X29485981Y10707895D01*
X29485595Y10708975D01*
X29485557Y10709515D01*
X29483226Y10715605D01*
X29481034Y10721741D01*
X29480711Y10722177D01*
X29480302Y10723246D01*
X29432683Y10818484D01*
X29428718Y10824784D01*
X29427961Y10826611D01*
X29426272Y10828668D01*
X29424851Y10830927D01*
X29423352Y10832227D01*
X29418634Y10837976D01*
X29371015Y10885595D01*
X29365265Y10890314D01*
X29363966Y10891812D01*
X29361706Y10893234D01*
X29359650Y10894922D01*
X29357822Y10895680D01*
X29351523Y10899644D01*
X29256285Y10947263D01*
X29242553Y10952518D01*
X29239865Y10952709D01*
X29237376Y10953740D01*
X29222744Y10955181D01*
X29127506Y10955181D01*
X29112874Y10953740D01*
X29110385Y10952710D01*
X29107696Y10952518D01*
X29093965Y10947263D01*
X28998727Y10899644D01*
X28992427Y10895680D01*
X28990600Y10894922D01*
X28988543Y10893234D01*
X28986284Y10891812D01*
X28984984Y10890314D01*
X28979235Y10885595D01*
X28931616Y10837976D01*
X28926897Y10832227D01*
X28925399Y10830927D01*
X28923977Y10828668D01*
X28922289Y10826611D01*
X28921531Y10824784D01*
X28917567Y10818484D01*
X28869948Y10723246D01*
X28869538Y10722177D01*
X28869216Y10721741D01*
X28867020Y10715596D01*
X28864693Y10709514D01*
X28864654Y10708975D01*
X28864269Y10707895D01*
X28816650Y10517419D01*
X28816274Y10514883D01*
X28815852Y10513861D01*
X28815309Y10508349D01*
X28814500Y10502875D01*
X28814662Y10501783D01*
X28814411Y10499229D01*
X28047833Y10499229D01*
X28012030Y10606638D01*
X28012030Y10672000D01*
X28046288Y10740516D01*
X28076695Y10770923D01*
X28145211Y10805181D01*
X28347896Y10805181D01*
X28416412Y10770923D01*
X28455425Y10731910D01*
X28466790Y10722583D01*
X28493826Y10711384D01*
X28523089Y10711384D01*
X28550125Y10722583D01*
X28570818Y10743276D01*
X28582017Y10770312D01*
X28582017Y10799575D01*
X28570818Y10826611D01*
X28561491Y10837976D01*
X28513872Y10885595D01*
X28508122Y10890314D01*
X28506823Y10891812D01*
X28504563Y10893234D01*
X28502507Y10894922D01*
X28500679Y10895680D01*
X28494380Y10899644D01*
X28399142Y10947263D01*
X28385410Y10952518D01*
X28382722Y10952709D01*
X28380233Y10953740D01*
X28365601Y10955181D01*
X28127506Y10955181D01*
X28112874Y10953740D01*
X28110385Y10952710D01*
X28107696Y10952518D01*
X28093965Y10947263D01*
X27998727Y10899644D01*
X27992427Y10895680D01*
X27990600Y10894922D01*
X27988543Y10893234D01*
X27986284Y10891812D01*
X27984984Y10890314D01*
X27979235Y10885595D01*
X27931616Y10837976D01*
X27926897Y10832227D01*
X27925399Y10830927D01*
X27923977Y10828668D01*
X27922289Y10826611D01*
X27921531Y10824784D01*
X27917567Y10818484D01*
X27869948Y10723246D01*
X27864693Y10709514D01*
X27864502Y10706827D01*
X27863471Y10704337D01*
X27862030Y10689705D01*
X27750919Y10689705D01*
X27750919Y11066292D01*
X30599331Y11066292D01*
X30599331Y9694070D01*
G37*
%LPC*%
D11*
%TO.C,IC4*%
X11150000Y1902000D03*
X13690000Y1902000D03*
X16230000Y1902000D03*
X18770000Y1902000D03*
X21310000Y1902000D03*
X23850000Y1902000D03*
X26390000Y1902000D03*
X28930000Y1902000D03*
D12*
X28930000Y14602000D03*
D11*
X26390000Y14602000D03*
X23850000Y14602000D03*
X21310000Y14602000D03*
X18770000Y14602000D03*
X16230000Y14602000D03*
D12*
X13690000Y14602000D03*
D11*
X11150000Y14602000D03*
%TD*%
D13*
%TO.C,J1*%
X10937500Y44000000D03*
X10937500Y41000000D03*
X10937500Y38000000D03*
X10937500Y35000000D03*
X10937500Y32000000D03*
X10937500Y29000000D03*
X10937500Y26000000D03*
X10937500Y23000000D03*
X10937500Y20000000D03*
X13437500Y42500000D03*
X13437500Y39500000D03*
X13437500Y36500000D03*
X13437500Y33500000D03*
X13437500Y30500000D03*
X13437500Y27500000D03*
X13437500Y24500000D03*
X13437500Y21500000D03*
X16437500Y42500000D03*
X16437500Y39500000D03*
X16437500Y36500000D03*
X16437500Y33500000D03*
X16437500Y30500000D03*
X16437500Y27500000D03*
X16437500Y24500000D03*
X16437500Y21500000D03*
X18937500Y44000000D03*
X18937500Y41000000D03*
X18937500Y38000000D03*
X18937500Y35000000D03*
X18937500Y32000000D03*
X18937500Y29000000D03*
X18937500Y26000000D03*
X18937500Y23000000D03*
X18937500Y20000000D03*
D14*
X4437500Y51250000D03*
X4437500Y12750000D03*
%TD*%
D15*
%TO.C,P1*%
X88250000Y47150000D03*
D16*
X88250000Y49690000D03*
X88250000Y52230000D03*
X88250000Y54770000D03*
%TD*%
D17*
%TO.C,REF\u002A\u002A*%
X85100000Y3500000D03*
X85802944Y5197056D03*
X85802944Y1802944D03*
X87500000Y5900000D03*
D18*
X87500000Y3500000D03*
D17*
X87500000Y1100000D03*
X89197056Y5197056D03*
X89197056Y1802944D03*
X89900000Y3500000D03*
%TD*%
%TO.C,REF\u002A\u002A*%
X1100000Y60500000D03*
X1802944Y62197056D03*
X1802944Y58802944D03*
X3500000Y62900000D03*
D18*
X3500000Y60500000D03*
D17*
X3500000Y58100000D03*
X5197056Y62197056D03*
X5197056Y58802944D03*
X5900000Y60500000D03*
%TD*%
%TO.C,REF\u002A\u002A*%
X1100000Y3500000D03*
X1802944Y5197056D03*
X1802944Y1802944D03*
X3500000Y5900000D03*
D18*
X3500000Y3500000D03*
D17*
X3500000Y1100000D03*
X5197056Y5197056D03*
X5197056Y1802944D03*
X5900000Y3500000D03*
%TD*%
%TO.C,REF\u002A\u002A*%
X85100000Y60500000D03*
X85802944Y62197056D03*
X85802944Y58802944D03*
X87500000Y62900000D03*
D18*
X87500000Y60500000D03*
D17*
X87500000Y58100000D03*
X89197056Y62197056D03*
X89197056Y58802944D03*
X89900000Y60500000D03*
%TD*%
D15*
%TO.C,JP1*%
X47250000Y29210000D03*
D16*
X47250000Y31750000D03*
X47250000Y34290000D03*
%TD*%
D19*
%TO.C,J2*%
X85395000Y26750000D03*
X85395000Y32530000D03*
D20*
X84895000Y25320000D03*
D21*
X89075000Y25320000D03*
D20*
X84895000Y33960000D03*
D21*
X89075000Y33960000D03*
%TD*%
D22*
%TO.C,P4*%
X82100000Y61750000D03*
D16*
X79560000Y61750000D03*
X77020000Y61750000D03*
X74480000Y61750000D03*
%TD*%
%LPD*%
M02*
