%TF.GenerationSoftware,KiCad,Pcbnew,8.0.6*%
%TF.CreationDate,2024-10-30T09:11:15+07:00*%
%TF.ProjectId,NO2C,4e4f3243-2e6b-4696-9361-645f70636258,vD1*%
%TF.SameCoordinates,Original*%
%TF.FileFunction,Copper,L4,Bot*%
%TF.FilePolarity,Positive*%
%FSLAX46Y46*%
G04 Gerber Fmt 4.6, Leading zero omitted, Abs format (unit mm)*
G04 Created by KiCad (PCBNEW 8.0.6) date 2024-10-30 09:11:15*
%MOMM*%
%LPD*%
G01*
G04 APERTURE LIST*
%TA.AperFunction,ComponentPad*%
%ADD10O,1.600000X1.600000*%
%TD*%
%TA.AperFunction,ComponentPad*%
%ADD11R,1.600000X1.600000*%
%TD*%
%TA.AperFunction,ComponentPad*%
%ADD12C,2.250000*%
%TD*%
%TA.AperFunction,ComponentPad*%
%ADD13C,5.100000*%
%TD*%
%TA.AperFunction,ComponentPad*%
%ADD14R,1.700000X1.700000*%
%TD*%
%TA.AperFunction,ComponentPad*%
%ADD15O,1.700000X1.700000*%
%TD*%
%TA.AperFunction,ComponentPad*%
%ADD16C,0.800000*%
%TD*%
%TA.AperFunction,ComponentPad*%
%ADD17C,6.400000*%
%TD*%
%TA.AperFunction,ComponentPad*%
%ADD18O,2.100000X1.000000*%
%TD*%
%TA.AperFunction,ComponentPad*%
%ADD19O,1.800000X1.000000*%
%TD*%
%TA.AperFunction,ViaPad*%
%ADD20C,0.800000*%
%TD*%
%TA.AperFunction,Conductor*%
%ADD21C,1.000000*%
%TD*%
%TA.AperFunction,Conductor*%
%ADD22C,0.300000*%
%TD*%
%TA.AperFunction,Conductor*%
%ADD23C,0.250000*%
%TD*%
%TA.AperFunction,Conductor*%
%ADD24C,0.500000*%
%TD*%
%TA.AperFunction,Conductor*%
%ADD25C,0.200000*%
%TD*%
G04 APERTURE END LIST*
D10*
%TO.P,IC4,1,P1*%
%TO.N,/ENBL*%
X11150000Y1902000D03*
%TO.P,IC4,2,P2*%
%TO.N,unconnected-(IC4-P2-Pad2)*%
X13690000Y1902000D03*
%TO.P,IC4,3,P3*%
%TO.N,unconnected-(IC4-P3-Pad3)*%
X16230000Y1902000D03*
%TO.P,IC4,4,P4*%
%TO.N,unconnected-(IC4-P4-Pad4)*%
X18770000Y1902000D03*
%TO.P,IC4,5,P5*%
%TO.N,+5V*%
X21310000Y1902000D03*
%TO.P,IC4,6,P6*%
X23850000Y1902000D03*
%TO.P,IC4,7,P7*%
%TO.N,/STEP*%
X26390000Y1902000D03*
%TO.P,IC4,8,P8*%
%TO.N,/DIR*%
X28930000Y1902000D03*
D11*
%TO.P,IC4,9,P9*%
%TO.N,GND*%
X28930000Y14602000D03*
D10*
%TO.P,IC4,10,P10*%
%TO.N,unconnected-(IC4-P10-Pad10)*%
X26390000Y14602000D03*
%TO.P,IC4,11,P11*%
%TO.N,/STP-A2*%
X23850000Y14602000D03*
%TO.P,IC4,12,P12*%
%TO.N,/STP-A1*%
X21310000Y14602000D03*
%TO.P,IC4,13,P13*%
%TO.N,/STP-B1*%
X18770000Y14602000D03*
%TO.P,IC4,14,P14*%
%TO.N,/STP-B2*%
X16230000Y14602000D03*
D11*
%TO.P,IC4,15,P15*%
%TO.N,Earth*%
X13690000Y14602000D03*
D10*
%TO.P,IC4,16,P16*%
%TO.N,+12V*%
X11150000Y14602000D03*
%TD*%
D12*
%TO.P,J1,1,1*%
%TO.N,+BATT*%
X10937500Y44000000D03*
%TO.P,J1,2,2*%
%TO.N,VR1+*%
X10937500Y41000000D03*
%TO.P,J1,3,3*%
%TO.N,/VR1-*%
X10937500Y38000000D03*
%TO.P,J1,4,4*%
%TO.N,/IGN1*%
X10937500Y35000000D03*
%TO.P,J1,5,5*%
%TO.N,/IGN2*%
X10937500Y32000000D03*
%TO.P,J1,6,6*%
%TO.N,/STP-A1*%
X10937500Y29000000D03*
%TO.P,J1,7,7*%
%TO.N,/STP-A2*%
X10937500Y26000000D03*
%TO.P,J1,8,8*%
%TO.N,/STP-B2*%
X10937500Y23000000D03*
%TO.P,J1,9,9*%
%TO.N,/STP-B1*%
X10937500Y20000000D03*
%TO.P,J1,10,10*%
%TO.N,+5V*%
X13437500Y42500000D03*
%TO.P,J1,11,11*%
%TO.N,GND*%
X13437500Y39500000D03*
%TO.P,J1,12,12*%
%TO.N,/VR2-*%
X13437500Y36500000D03*
%TO.P,J1,13,13*%
%TO.N,VR2+*%
X13437500Y33500000D03*
%TO.P,J1,14,14*%
%TO.N,/TACHO*%
X13437500Y30500000D03*
%TO.P,J1,15,15*%
%TO.N,Net-(J1-Pad15)*%
X13437500Y27500000D03*
%TO.P,J1,16,16*%
%TO.N,Net-(J1-Pad16)*%
X13437500Y24500000D03*
%TO.P,J1,17,17*%
%TO.N,/IDLE*%
X13437500Y21500000D03*
%TO.P,J1,18,18*%
%TO.N,GND*%
X16437500Y42500000D03*
%TO.P,J1,19,19*%
%TO.N,/LAUNCH*%
X16437500Y39500000D03*
%TO.P,J1,20,20*%
%TO.N,GND*%
X16437500Y36500000D03*
%TO.P,J1,21,21*%
X16437500Y33500000D03*
%TO.P,J1,22,22*%
%TO.N,/SWCLK*%
X16437500Y30500000D03*
%TO.P,J1,23,23*%
%TO.N,/SWDIO*%
X16437500Y27500000D03*
%TO.P,J1,24,24*%
%TO.N,CANH*%
X16437500Y24500000D03*
%TO.P,J1,25,25*%
%TO.N,CANL*%
X16437500Y21500000D03*
%TO.P,J1,26,26*%
%TO.N,/O2*%
X18937500Y44000000D03*
%TO.P,J1,27,27*%
%TO.N,/TPS*%
X18937500Y41000000D03*
%TO.P,J1,28,28*%
%TO.N,/CLT*%
X18937500Y38000000D03*
%TO.P,J1,29,29*%
%TO.N,/IAT*%
X18937500Y35000000D03*
%TO.P,J1,30,30*%
%TO.N,/INJ1*%
X18937500Y32000000D03*
%TO.P,J1,31,31*%
%TO.N,/INJ2*%
X18937500Y29000000D03*
%TO.P,J1,32,32*%
%TO.N,/VVT*%
X18937500Y26000000D03*
%TO.P,J1,33,33*%
%TO.N,/BOOST*%
X18937500Y23000000D03*
%TO.P,J1,34,34*%
%TO.N,/FUELP*%
X18937500Y20000000D03*
D13*
%TO.P,J1,MH1,MH1*%
%TO.N,GND*%
X4437500Y51250000D03*
%TO.P,J1,MH2,MH2*%
X4437500Y12750000D03*
%TD*%
D14*
%TO.P,P1,1,Pin_1*%
%TO.N,+3.3V*%
X88250000Y47150000D03*
D15*
%TO.P,P1,2,Pin_2*%
%TO.N,/SWDIO*%
X88250000Y49690000D03*
%TO.P,P1,3,Pin_3*%
%TO.N,/SWCLK*%
X88250000Y52230000D03*
%TO.P,P1,4,Pin_4*%
%TO.N,GND*%
X88250000Y54770000D03*
%TD*%
D16*
%TO.P,REF\u002A\u002A,1*%
%TO.N,N/C*%
X85100000Y3500000D03*
X85802944Y5197056D03*
X85802944Y1802944D03*
X87500000Y5900000D03*
D17*
X87500000Y3500000D03*
D16*
X87500000Y1100000D03*
X89197056Y5197056D03*
X89197056Y1802944D03*
X89900000Y3500000D03*
%TD*%
%TO.P,REF\u002A\u002A,1*%
%TO.N,N/C*%
X1100000Y60500000D03*
X1802944Y62197056D03*
X1802944Y58802944D03*
X3500000Y62900000D03*
D17*
X3500000Y60500000D03*
D16*
X3500000Y58100000D03*
X5197056Y62197056D03*
X5197056Y58802944D03*
X5900000Y60500000D03*
%TD*%
%TO.P,REF\u002A\u002A,1*%
%TO.N,N/C*%
X1100000Y3500000D03*
X1802944Y5197056D03*
X1802944Y1802944D03*
X3500000Y5900000D03*
D17*
X3500000Y3500000D03*
D16*
X3500000Y1100000D03*
X5197056Y5197056D03*
X5197056Y1802944D03*
X5900000Y3500000D03*
%TD*%
%TO.P,REF\u002A\u002A,1*%
%TO.N,N/C*%
X85100000Y60500000D03*
X85802944Y62197056D03*
X85802944Y58802944D03*
X87500000Y62900000D03*
D17*
X87500000Y60500000D03*
D16*
X87500000Y58100000D03*
X89197056Y62197056D03*
X89197056Y58802944D03*
X89900000Y60500000D03*
%TD*%
D14*
%TO.P,JP1,1,1*%
%TO.N,+5V*%
X47250000Y29210000D03*
D15*
%TO.P,JP1,2,2*%
%TO.N,Net-(IC1-VDD)*%
X47250000Y31750000D03*
%TO.P,JP1,3,3*%
%TO.N,+12V*%
X47250000Y34290000D03*
%TD*%
D18*
%TO.P,J2,S1,SHIELD*%
%TO.N,GND*%
X84895000Y25320000D03*
D19*
X89075000Y25320000D03*
D18*
X84895000Y33960000D03*
D19*
X89075000Y33960000D03*
%TD*%
D14*
%TO.P,P4,1,Pin_1*%
%TO.N,/PA10*%
X82100000Y61750000D03*
D15*
%TO.P,P4,2,Pin_2*%
%TO.N,/PA9*%
X79560000Y61750000D03*
%TO.P,P4,3,Pin_3*%
%TO.N,GND*%
X77020000Y61750000D03*
%TO.P,P4,4,Pin_4*%
%TO.N,+5V*%
X74480000Y61750000D03*
%TD*%
D20*
%TO.N,GND*%
X55750000Y41750000D03*
%TO.N,Net-(J1-Pad16)*%
X56750000Y49750000D03*
%TO.N,Net-(J1-Pad15)*%
X55250000Y49750000D03*
%TO.N,+3.3V*%
X56625000Y51625000D03*
%TO.N,/SDA*%
X57250000Y46250000D03*
%TO.N,/SCL*%
X55750000Y46250000D03*
%TO.N,+5V*%
X32750000Y53500000D03*
X87750000Y42000000D03*
X31500000Y53500000D03*
X81000000Y15000000D03*
X42500000Y4750000D03*
X8050000Y56250000D03*
%TO.N,+12V*%
X25500000Y25550000D03*
X14450000Y53250000D03*
X49750000Y7250000D03*
X58500000Y2750000D03*
X46000000Y43750000D03*
X49750000Y6250000D03*
X49750000Y8250000D03*
X24200000Y25550000D03*
X74500000Y2750000D03*
X73250000Y2750000D03*
X59750000Y2750000D03*
%TO.N,/PA3*%
X58000000Y37300000D03*
X34000000Y41950000D03*
%TO.N,/PA4*%
X34500000Y38050000D03*
X57350000Y36450000D03*
%TO.N,/PA5*%
X58100000Y35650000D03*
X34500000Y34475000D03*
%TO.N,/STEP*%
X67000000Y17850000D03*
X69750000Y21500000D03*
%TO.N,/DIR*%
X70000000Y20250000D03*
X68150000Y17850000D03*
%TO.N,/ENBL*%
X65800000Y17850000D03*
X68300000Y21200000D03*
%TO.N,/VR1-*%
X34250000Y5750000D03*
%TO.N,/VR2-*%
X34250000Y8000000D03*
%TO.N,/FUELP*%
X65750000Y4250000D03*
X65750000Y2750000D03*
%TO.N,/BOOST*%
X67500000Y4250000D03*
X67500000Y2750000D03*
%TO.N,/IDLE*%
X51750000Y2750000D03*
X52750000Y2750000D03*
%TO.N,/IGN2*%
X55750000Y40250000D03*
%TO.N,/IGN1*%
X48750000Y40000000D03*
%TO.N,/TACHO*%
X51250000Y48000000D03*
%TO.N,/VVT*%
X80500000Y4000000D03*
X80500000Y2750000D03*
%TO.N,/LAUNCH*%
X62750000Y27250000D03*
%TO.N,/PD11*%
X69350000Y24550000D03*
X46750000Y15250000D03*
%TO.N,Net-(D5-COM)*%
X68750000Y28750000D03*
X62750000Y25750000D03*
%TO.N,/PA2*%
X34900000Y45800000D03*
X57400000Y38200000D03*
%TO.N,/PD10*%
X68200000Y24600000D03*
X41250000Y15250000D03*
%TO.N,/PA0*%
X64000000Y44250000D03*
X59500000Y50750000D03*
%TO.N,/PA1*%
X57850000Y39150000D03*
X43500000Y38750000D03*
%TO.N,Net-(D20-COM)*%
X85750000Y41750000D03*
X85750000Y20500000D03*
%TO.N,Net-(D21-COM)*%
X84500000Y20500000D03*
X85750000Y40250000D03*
%TO.N,/SCL*%
X64900000Y30500000D03*
%TO.N,CANL*%
X84500000Y7750000D03*
%TO.N,CANH*%
X85750000Y7750000D03*
%TO.N,/SDA*%
X64900000Y29300000D03*
%TO.N,+BATT*%
X36250000Y48500000D03*
X11000000Y53500000D03*
%TO.N,VR2+*%
X34250000Y9500000D03*
%TO.N,VR1+*%
X34250000Y4250000D03*
%TO.N,/PD8*%
X60500000Y34750000D03*
X39500000Y32500000D03*
%TO.N,/PD14*%
X57500000Y34700000D03*
X54250000Y47000000D03*
%TO.N,/PD9*%
X42750000Y24750000D03*
X60500000Y33250000D03*
%TO.N,/SWDIO*%
X73250000Y23000000D03*
%TO.N,Net-(U2-NRST)*%
X68750000Y44500000D03*
X71500000Y60750000D03*
%TO.N,GND*%
X24100000Y42200000D03*
X73250000Y36000000D03*
X34000000Y63000000D03*
X90250000Y23500000D03*
X90250000Y11500000D03*
X90250000Y46750000D03*
X61750000Y54000000D03*
X64750000Y38500000D03*
X72000000Y20550000D03*
X70500000Y29000000D03*
X38500000Y12000000D03*
X68750000Y32750000D03*
X29750000Y63000000D03*
X12250000Y61250000D03*
X90250000Y20750000D03*
X34950000Y44300000D03*
X55500000Y20000000D03*
X63700000Y48650000D03*
X12250000Y59500000D03*
X63250000Y42000000D03*
X30250000Y43650000D03*
X69050000Y14700000D03*
X76500000Y36000000D03*
X72250000Y47000000D03*
X73500000Y57350000D03*
X73450000Y15700000D03*
X68750000Y30250000D03*
X46750000Y63250000D03*
X80650000Y33450000D03*
X44000000Y57050000D03*
X61750000Y52250000D03*
X52700000Y47400000D03*
X79900000Y20950000D03*
X76500000Y34250000D03*
X13500000Y48500000D03*
X67500000Y58000000D03*
X69650000Y55550000D03*
X75650000Y57350000D03*
X76750000Y51750000D03*
X33000000Y48000000D03*
X60000000Y61000000D03*
X30750000Y36250000D03*
X43000000Y31000000D03*
X62250000Y48650000D03*
X74750000Y49750000D03*
X31000000Y47250000D03*
X24250000Y40500000D03*
X90250000Y56000000D03*
X18750000Y63000000D03*
X48150000Y5900000D03*
X21750000Y46500000D03*
X68750000Y36000000D03*
X21750000Y45250000D03*
X54500000Y20000000D03*
X36250000Y60000000D03*
X43000000Y29000000D03*
X55000000Y30650000D03*
X64750000Y36000000D03*
X28500000Y63000000D03*
X90250000Y7600000D03*
X34950000Y43000000D03*
X63950000Y55450000D03*
X74500000Y55500000D03*
X73250000Y32750000D03*
X66750000Y29000000D03*
X59250000Y24750000D03*
X76500000Y39500000D03*
X76500000Y37500000D03*
X61500000Y42000000D03*
X73000000Y45750000D03*
X76500000Y29250000D03*
X18500000Y47750000D03*
X35625000Y41375000D03*
X68750000Y46000000D03*
X16750000Y47750000D03*
X83900000Y36750000D03*
X61750000Y50500000D03*
X61850000Y55400000D03*
X12250000Y63000000D03*
X75300000Y14350000D03*
X65500000Y58000000D03*
X69100000Y16700000D03*
X55200000Y28700000D03*
X35750000Y63000000D03*
X52750000Y24250000D03*
X68500000Y39500000D03*
X60250000Y16500000D03*
X83350000Y750000D03*
X76750000Y49750000D03*
X37000000Y16250000D03*
X66400000Y14700000D03*
X38000000Y41250000D03*
X70750000Y39500000D03*
X45250000Y32750000D03*
X63500000Y60000000D03*
X90250000Y14500000D03*
X48200000Y4600000D03*
X90250000Y43750000D03*
X44000000Y53000000D03*
X59000000Y16500000D03*
X42250000Y63250000D03*
X45500000Y15750000D03*
X73250000Y49750000D03*
X90250000Y9250000D03*
X61500000Y16500000D03*
X38500000Y16250000D03*
X20250000Y63000000D03*
X54000000Y24250000D03*
X72000000Y48250000D03*
X90250000Y50250000D03*
X90250000Y53000000D03*
X90250000Y38500000D03*
X36250000Y57500000D03*
X66800000Y48600000D03*
X53500000Y20000000D03*
X36450000Y34500000D03*
X49500000Y23500000D03*
X69500000Y58000000D03*
X72900000Y21500000D03*
X76750000Y53750000D03*
X90250000Y17750000D03*
X90250000Y36000000D03*
X27500000Y48000000D03*
X64750000Y33750000D03*
X57000000Y56000000D03*
X76750000Y55500000D03*
X60500000Y23500000D03*
X83900000Y38700000D03*
X26250000Y36275000D03*
X68400000Y55550000D03*
X15000000Y47750000D03*
X90250000Y41250000D03*
X73250000Y38500000D03*
X43250000Y6480000D03*
X14250000Y63000000D03*
X77800000Y57400000D03*
%TO.N,/SWCLK*%
X80200000Y28800000D03*
%TO.N,+3.3V*%
X61750000Y59750000D03*
X49500000Y10000000D03*
X57625000Y23750000D03*
X60600000Y30300000D03*
X60000000Y43000000D03*
X33750000Y43500000D03*
X43250000Y45500000D03*
X83500000Y35250000D03*
X26250000Y40000000D03*
X56000000Y35125000D03*
X42000000Y11250000D03*
X24750000Y36250000D03*
X34250000Y47000000D03*
X85500000Y23500000D03*
X39750000Y15500000D03*
X43750000Y59000000D03*
X79000000Y23500000D03*
X74500000Y20800000D03*
X34500000Y36225000D03*
%TO.N,/PA9*%
X72750000Y25250000D03*
%TO.N,/PA10*%
X74000000Y25250000D03*
%TO.N,/USB_D-*%
X81750000Y29615000D03*
X73750000Y28750000D03*
%TO.N,/USB_D+*%
X75000000Y28750000D03*
X81750000Y30665000D03*
%TD*%
D21*
%TO.N,/FUELP*%
X46200000Y20000000D02*
X18937500Y20000000D01*
X60000000Y6200000D02*
X46200000Y20000000D01*
X65750000Y4250000D02*
X63800000Y6200000D01*
X63800000Y6200000D02*
X60000000Y6200000D01*
X65750000Y2750000D02*
X65750000Y4250000D01*
%TO.N,/BOOST*%
X20187500Y21750000D02*
X18937500Y23000000D01*
X46650000Y21750000D02*
X20187500Y21750000D01*
X60400000Y8000000D02*
X46650000Y21750000D01*
X67500000Y5450000D02*
X64950000Y8000000D01*
X64950000Y8000000D02*
X60400000Y8000000D01*
X67500000Y2750000D02*
X67500000Y5450000D01*
D22*
%TO.N,/IGN2*%
X49750000Y41750000D02*
X49750000Y46250000D01*
X55750000Y40250000D02*
X51250000Y40250000D01*
X51250000Y40250000D02*
X49750000Y41750000D01*
X45750000Y50250000D02*
X49750000Y46250000D01*
D23*
%TO.N,/PD14*%
X54250000Y44825000D02*
X54250000Y47000000D01*
X59350000Y39725000D02*
X54250000Y44825000D01*
X58900000Y34700000D02*
X59350000Y35150000D01*
X57500000Y34700000D02*
X58900000Y34700000D01*
X59350000Y35150000D02*
X59350000Y39725000D01*
D22*
%TO.N,/SCL*%
X61800000Y33600000D02*
X64900000Y30500000D01*
X61800000Y38200000D02*
X61800000Y33600000D01*
X55750000Y46250000D02*
X55750000Y44250000D01*
X55750000Y44250000D02*
X61800000Y38200000D01*
%TO.N,/SDA*%
X65700000Y31000000D02*
X65700000Y30100000D01*
X62450000Y34250000D02*
X65700000Y31000000D01*
X62450000Y38550000D02*
X62450000Y34250000D01*
X57250000Y43750000D02*
X62450000Y38550000D01*
X57250000Y46250000D02*
X57250000Y43750000D01*
X65700000Y30100000D02*
X64900000Y29300000D01*
%TO.N,Net-(J1-Pad16)*%
X9901850Y51901850D02*
X54598150Y51901850D01*
X4500000Y46500000D02*
X9901850Y51901850D01*
X4500000Y27500000D02*
X4500000Y46500000D01*
X54598150Y51901850D02*
X56750000Y49750000D01*
X7500000Y24500000D02*
X4500000Y27500000D01*
X13437500Y24500000D02*
X7500000Y24500000D01*
%TO.N,Net-(J1-Pad15)*%
X10975000Y51350000D02*
X53650000Y51350000D01*
X53650000Y51350000D02*
X55250000Y49750000D01*
X5500000Y45875000D02*
X10975000Y51350000D01*
X7250000Y27500000D02*
X5500000Y29250000D01*
X13437500Y27500000D02*
X7250000Y27500000D01*
X5500000Y29250000D02*
X5500000Y45875000D01*
D21*
%TO.N,+5V*%
X21310000Y3690000D02*
X16750000Y8250000D01*
X750000Y10500000D02*
X750000Y54000000D01*
D24*
X31250000Y2250000D02*
X29500000Y4000000D01*
X25250000Y4000000D02*
X23850000Y2600000D01*
D21*
X21310000Y1902000D02*
X21310000Y3690000D01*
X3000000Y8250000D02*
X750000Y10500000D01*
X7050000Y55250000D02*
X8050000Y56250000D01*
D24*
X42500000Y4750000D02*
X42500000Y3750000D01*
X23850000Y2600000D02*
X23850000Y1902000D01*
D21*
X2000000Y55250000D02*
X7050000Y55250000D01*
D24*
X41000000Y2250000D02*
X31250000Y2250000D01*
D21*
X16750000Y8250000D02*
X3000000Y8250000D01*
D24*
X42500000Y3750000D02*
X41000000Y2250000D01*
D21*
X750000Y54000000D02*
X2000000Y55250000D01*
D24*
X29500000Y4000000D02*
X25250000Y4000000D01*
D21*
%TO.N,+12V*%
X53750000Y1250000D02*
X50750000Y1250000D01*
X61000000Y2750000D02*
X58500000Y2750000D01*
X49750000Y6250000D02*
X49750000Y8250000D01*
X73250000Y2750000D02*
X74500000Y2750000D01*
X50750000Y1250000D02*
X49750000Y2250000D01*
X70125000Y1000000D02*
X62750000Y1000000D01*
X58500000Y2750000D02*
X55250000Y2750000D01*
X71875000Y2750000D02*
X70125000Y1000000D01*
X49750000Y2250000D02*
X49750000Y6250000D01*
X73250000Y2750000D02*
X71875000Y2750000D01*
X55250000Y2750000D02*
X53750000Y1250000D01*
X62750000Y1000000D02*
X61000000Y2750000D01*
X24200000Y25550000D02*
X25500000Y25550000D01*
D23*
%TO.N,/PA3*%
X58000000Y37300000D02*
X57950000Y37350000D01*
X45500000Y37750000D02*
X44500000Y36750000D01*
X44500000Y36750000D02*
X38750000Y36750000D01*
X56750000Y37750000D02*
X45500000Y37750000D01*
X34000000Y41500000D02*
X34000000Y41950000D01*
X57150000Y37350000D02*
X56750000Y37750000D01*
X57950000Y37350000D02*
X57150000Y37350000D01*
X38750000Y36750000D02*
X34000000Y41500000D01*
%TO.N,/PA4*%
X36700000Y38050000D02*
X38500000Y36250000D01*
X45750000Y37250000D02*
X56250000Y37250000D01*
X38500000Y36250000D02*
X44750000Y36250000D01*
X44750000Y36250000D02*
X45750000Y37250000D01*
X56250000Y37250000D02*
X57050000Y36450000D01*
X34500000Y38050000D02*
X36700000Y38050000D01*
X57050000Y36450000D02*
X57350000Y36450000D01*
%TO.N,/PA5*%
X58100000Y35650000D02*
X57950000Y35500000D01*
X55750000Y36750000D02*
X46000000Y36750000D01*
X45000000Y35750000D02*
X35775000Y35750000D01*
X46000000Y36750000D02*
X45000000Y35750000D01*
X35775000Y35750000D02*
X34500000Y34475000D01*
X57000000Y35500000D02*
X55750000Y36750000D01*
X57950000Y35500000D02*
X57000000Y35500000D01*
%TO.N,/STEP*%
X67000000Y17850000D02*
X69000000Y19850000D01*
X69000000Y20750000D02*
X69750000Y21500000D01*
X69000000Y19850000D02*
X69000000Y20750000D01*
%TO.N,/DIR*%
X70000000Y19700000D02*
X70000000Y20250000D01*
X68150000Y17850000D02*
X70000000Y19700000D01*
%TO.N,/ENBL*%
X68300000Y20350000D02*
X65800000Y17850000D01*
X68300000Y21200000D02*
X68300000Y20350000D01*
D21*
%TO.N,/STP-B1*%
X18770000Y14602000D02*
X18770000Y14730000D01*
X12000000Y16500000D02*
X10937500Y17562500D01*
X18770000Y14730000D02*
X17000000Y16500000D01*
X17000000Y16500000D02*
X12000000Y16500000D01*
X10937500Y17562500D02*
X10937500Y20000000D01*
%TO.N,/STP-B2*%
X16230000Y13230000D02*
X15000000Y12000000D01*
X8500000Y23000000D02*
X10937500Y23000000D01*
X7250000Y15250000D02*
X7250000Y21750000D01*
X15000000Y12000000D02*
X10500000Y12000000D01*
X16230000Y14602000D02*
X16230000Y13230000D01*
X10500000Y12000000D02*
X7250000Y15250000D01*
X7250000Y21750000D02*
X8500000Y23000000D01*
%TO.N,/IDLE*%
X52750000Y2750000D02*
X53500000Y3500000D01*
X45900000Y18000000D02*
X17000000Y18000000D01*
X13500000Y21500000D02*
X13437500Y21500000D01*
X51750000Y2750000D02*
X52750000Y2750000D01*
X53500000Y10400000D02*
X45900000Y18000000D01*
X53500000Y3500000D02*
X53500000Y10400000D01*
X52250000Y2750000D02*
X51750000Y2750000D01*
X17000000Y18000000D02*
X13500000Y21500000D01*
D22*
%TO.N,/IGN2*%
X10937500Y32000000D02*
X9750000Y32000000D01*
X7250000Y34500000D02*
X7250000Y45000000D01*
X7250000Y45000000D02*
X12500000Y50250000D01*
X12500000Y50250000D02*
X45750000Y50250000D01*
X9750000Y32000000D02*
X7250000Y34500000D01*
%TO.N,/IGN1*%
X13100000Y49700000D02*
X45050000Y49700000D01*
X45050000Y49700000D02*
X48750000Y46000000D01*
X48750000Y46000000D02*
X48750000Y40000000D01*
X8250000Y44850000D02*
X13100000Y49700000D01*
X8250000Y35750000D02*
X8250000Y44850000D01*
X10937500Y35000000D02*
X9000000Y35000000D01*
X9000000Y35000000D02*
X8250000Y35750000D01*
%TO.N,/TACHO*%
X6250000Y45500000D02*
X11550000Y50800000D01*
X13437500Y30500000D02*
X7000000Y30500000D01*
X46200000Y50800000D02*
X49000000Y48000000D01*
X11550000Y50800000D02*
X46200000Y50800000D01*
X6250000Y31250000D02*
X6250000Y45500000D01*
X7000000Y30500000D02*
X6250000Y31250000D01*
X49000000Y48000000D02*
X51250000Y48000000D01*
D21*
%TO.N,/VVT*%
X60900000Y9750000D02*
X47150000Y23500000D01*
X70500000Y9750000D02*
X60900000Y9750000D01*
X80500000Y2750000D02*
X77500000Y2750000D01*
X47150000Y23500000D02*
X21437500Y23500000D01*
X77500000Y2750000D02*
X70500000Y9750000D01*
X21437500Y23500000D02*
X18937500Y26000000D01*
D22*
%TO.N,/LAUNCH*%
X16437500Y39500000D02*
X20850000Y39500000D01*
X21600000Y30650000D02*
X22500000Y29750000D01*
X22500000Y29750000D02*
X33000000Y29750000D01*
X20850000Y39500000D02*
X21600000Y38750000D01*
X62500000Y27500000D02*
X62750000Y27250000D01*
X35250000Y27500000D02*
X62500000Y27500000D01*
X21600000Y38750000D02*
X21600000Y30650000D01*
X33000000Y29750000D02*
X35250000Y27500000D01*
D23*
%TO.N,/PA2*%
X57350000Y38250000D02*
X57400000Y38200000D01*
X39000000Y37250000D02*
X44250000Y37250000D01*
X36750000Y39500000D02*
X39000000Y37250000D01*
X36750000Y45000000D02*
X36750000Y39500000D01*
X34900000Y45800000D02*
X35950000Y45800000D01*
X44250000Y37250000D02*
X45250000Y38250000D01*
X35950000Y45800000D02*
X36750000Y45000000D01*
X45250000Y38250000D02*
X57350000Y38250000D01*
%TO.N,/PA0*%
X64000000Y44350000D02*
X64000000Y44250000D01*
X59500000Y48850000D02*
X64000000Y44350000D01*
X59500000Y50750000D02*
X59500000Y48850000D01*
%TO.N,/PA1*%
X43500000Y38750000D02*
X56700000Y38750000D01*
X57100000Y39150000D02*
X57850000Y39150000D01*
X56700000Y38750000D02*
X57100000Y39150000D01*
%TO.N,Net-(D20-COM)*%
X87250000Y40250000D02*
X87250000Y22750000D01*
X87250000Y22750000D02*
X85750000Y21250000D01*
X85750000Y41750000D02*
X87250000Y40250000D01*
X85750000Y21250000D02*
X85750000Y20500000D01*
%TO.N,Net-(D21-COM)*%
X86750000Y23000000D02*
X86750000Y39250000D01*
X86750000Y39250000D02*
X85750000Y40250000D01*
X84500000Y20750000D02*
X86750000Y23000000D01*
X84500000Y20500000D02*
X84500000Y20750000D01*
%TO.N,/SWDIO*%
X83200000Y33250000D02*
X81150000Y35300000D01*
D22*
X73000000Y22750000D02*
X63450000Y22750000D01*
X21250000Y28250000D02*
X20500000Y27500000D01*
X20500000Y27500000D02*
X16437500Y27500000D01*
D23*
X77050431Y23000000D02*
X83200000Y29149569D01*
X73250000Y23000000D02*
X77050431Y23000000D01*
X81840000Y49690000D02*
X88250000Y49690000D01*
X83200000Y29149569D02*
X83200000Y33250000D01*
D22*
X63450000Y22750000D02*
X60100000Y26100000D01*
D23*
X81150000Y49000000D02*
X81840000Y49690000D01*
X81150000Y35300000D02*
X81150000Y49000000D01*
D22*
X60100000Y26100000D02*
X34650000Y26100000D01*
X32500000Y28250000D02*
X21250000Y28250000D01*
X73250000Y23000000D02*
X73000000Y22750000D01*
X34650000Y26100000D02*
X32500000Y28250000D01*
D23*
%TO.N,Net-(U2-NRST)*%
X60500000Y60000000D02*
X62000000Y61500000D01*
X60500000Y48900000D02*
X60500000Y60000000D01*
X67000000Y60750000D02*
X71500000Y60750000D01*
X62000000Y61500000D02*
X66250000Y61500000D01*
X66250000Y61500000D02*
X67000000Y60750000D01*
X68750000Y44500000D02*
X64900000Y44500000D01*
X64900000Y44500000D02*
X60500000Y48900000D01*
D24*
%TO.N,GND*%
X16437500Y42500000D02*
X16500000Y42562500D01*
D21*
X13437500Y39500000D02*
X16437500Y42500000D01*
X16437500Y36500000D02*
X13437500Y39500000D01*
D24*
X16500000Y44687500D02*
X16437500Y44750000D01*
D21*
X16500000Y42562500D02*
X16500000Y44687500D01*
D24*
X4437500Y17437500D02*
X4500000Y17500000D01*
X4437500Y12750000D02*
X4437500Y17437500D01*
D21*
X16437500Y33500000D02*
X16437500Y36500000D01*
D22*
%TO.N,/SWCLK*%
X20250000Y30500000D02*
X16437500Y30500000D01*
X72900000Y23800000D02*
X72400000Y23300000D01*
D23*
X82525000Y29293984D02*
X82525000Y33175000D01*
D22*
X32750000Y29000000D02*
X21750000Y29000000D01*
X80200000Y28800000D02*
X80200000Y26950000D01*
X21750000Y29000000D02*
X20250000Y30500000D01*
X63850000Y23300000D02*
X60400000Y26750000D01*
X35000000Y26750000D02*
X32750000Y29000000D01*
D23*
X80600000Y35100000D02*
X80600000Y50950000D01*
D22*
X60400000Y26750000D02*
X35000000Y26750000D01*
D23*
X81880000Y52230000D02*
X88250000Y52230000D01*
X80200000Y28800000D02*
X82031016Y28800000D01*
X80600000Y50950000D02*
X81880000Y52230000D01*
D22*
X77050000Y23800000D02*
X72900000Y23800000D01*
D23*
X82031016Y28800000D02*
X82525000Y29293984D01*
D22*
X80200000Y26950000D02*
X77050000Y23800000D01*
D23*
X82525000Y33175000D02*
X80600000Y35100000D01*
D22*
X72400000Y23300000D02*
X63850000Y23300000D01*
D24*
%TO.N,+3.3V*%
X71750000Y18150000D02*
X71750000Y15250000D01*
X70000000Y13500000D02*
X64500000Y13500000D01*
X74400000Y20800000D02*
X71750000Y18150000D01*
X56000000Y35125000D02*
X56000000Y34500000D01*
X82100000Y44100000D02*
X85150000Y47150000D01*
X56000000Y34500000D02*
X60200000Y30300000D01*
X64500000Y13500000D02*
X63000000Y15000000D01*
X71750000Y15250000D02*
X70000000Y13500000D01*
X82100000Y36650000D02*
X82100000Y44100000D01*
X42000000Y11250000D02*
X40750000Y11250000D01*
X85150000Y47150000D02*
X88250000Y47150000D01*
X63000000Y18400000D02*
X57650000Y23750000D01*
X57650000Y23750000D02*
X57625000Y23750000D01*
X74500000Y20800000D02*
X74400000Y20800000D01*
X83500000Y35250000D02*
X82100000Y36650000D01*
X40750000Y11250000D02*
X39750000Y12250000D01*
X63000000Y15000000D02*
X63000000Y18400000D01*
X39750000Y12250000D02*
X39750000Y15500000D01*
X60200000Y30300000D02*
X60600000Y30300000D01*
D23*
%TO.N,/PA9*%
X75400000Y31100000D02*
X79500000Y35200000D01*
X72475000Y29278123D02*
X74296877Y31100000D01*
X79500000Y61690000D02*
X79560000Y61750000D01*
X74296877Y31100000D02*
X75400000Y31100000D01*
X79500000Y35200000D02*
X79500000Y61690000D01*
X72475000Y25525000D02*
X72475000Y29278123D01*
X72750000Y25250000D02*
X72475000Y25525000D01*
%TO.N,/PA10*%
X72975000Y29071016D02*
X74503984Y30600000D01*
X72975000Y26275000D02*
X72975000Y29071016D01*
X75650000Y30600000D02*
X80060000Y35010000D01*
X74000000Y25250000D02*
X72975000Y26275000D01*
X80060000Y35010000D02*
X80060000Y59710000D01*
X74503984Y30600000D02*
X75650000Y30600000D01*
X80060000Y59710000D02*
X82100000Y61750000D01*
D25*
%TO.N,/USB_D-*%
X78475000Y27406800D02*
X77343200Y26275000D01*
X78475000Y29156800D02*
X78475000Y27406800D01*
X79233199Y29914999D02*
X78475000Y29156800D01*
X81750000Y29615000D02*
X81450001Y29914999D01*
X81450001Y29914999D02*
X79233199Y29914999D01*
X74149999Y27281801D02*
X74149999Y28350001D01*
X74149999Y28350001D02*
X73750000Y28750000D01*
X77343200Y26275000D02*
X75156800Y26275000D01*
X75156800Y26275000D02*
X74149999Y27281801D01*
%TO.N,/USB_D+*%
X74600001Y27468199D02*
X74600001Y28350001D01*
X81750000Y30665000D02*
X81450001Y30365001D01*
X78025000Y29343200D02*
X78025000Y27593200D01*
X74600001Y28350001D02*
X75000000Y28750000D01*
X79046801Y30365001D02*
X78025000Y29343200D01*
X77156800Y26725000D02*
X75343200Y26725000D01*
X81450001Y30365001D02*
X79046801Y30365001D01*
X75343200Y26725000D02*
X74600001Y27468199D01*
X78025000Y27593200D02*
X77156800Y26725000D01*
%TD*%
%TA.AperFunction,Conductor*%
%TO.N,GND*%
G36*
X45477728Y16980546D02*
G01*
X45558510Y16926570D01*
X46180117Y16304963D01*
X46234093Y16224181D01*
X46253047Y16128893D01*
X46234093Y16033605D01*
X46180117Y15952823D01*
X46150409Y15927452D01*
X46145812Y15924112D01*
X46144126Y15922886D01*
X46017469Y15782220D01*
X45922822Y15618286D01*
X45864325Y15438256D01*
X45844540Y15250000D01*
X45864325Y15061745D01*
X45884388Y15000000D01*
X45922821Y14881716D01*
X46000500Y14747172D01*
X46017469Y14717781D01*
X46121721Y14601998D01*
X46144129Y14577112D01*
X46220553Y14521587D01*
X46297271Y14465848D01*
X46470189Y14388859D01*
X46470192Y14388858D01*
X46470197Y14388856D01*
X46655354Y14349500D01*
X46844645Y14349500D01*
X46844646Y14349500D01*
X47029803Y14388856D01*
X47101804Y14420913D01*
X47202728Y14465848D01*
X47202728Y14465849D01*
X47202730Y14465849D01*
X47355871Y14577112D01*
X47441880Y14672635D01*
X47519724Y14730763D01*
X47613890Y14754678D01*
X47710039Y14740737D01*
X47793535Y14691062D01*
X47802991Y14682089D01*
X48677070Y13808010D01*
X48731046Y13727228D01*
X48750000Y13631940D01*
X48750000Y10568682D01*
X48731046Y10473394D01*
X48716641Y10444184D01*
X48672823Y10368289D01*
X48672821Y10368286D01*
X48672821Y10368284D01*
X48656856Y10319152D01*
X48614325Y10188256D01*
X48594540Y10000000D01*
X48614325Y9811745D01*
X48634807Y9748711D01*
X48672821Y9631716D01*
X48672822Y9631715D01*
X48672823Y9631712D01*
X48672824Y9631710D01*
X48716640Y9555819D01*
X48747870Y9463820D01*
X48750000Y9431319D01*
X48750000Y8365851D01*
X48749500Y8355670D01*
X48749500Y2151459D01*
X48757305Y2112223D01*
X48757305Y2112218D01*
X48757306Y2112218D01*
X48786420Y1965849D01*
X48786422Y1965840D01*
X48786421Y1965840D01*
X48787948Y1958168D01*
X48787949Y1958165D01*
X48858454Y1787948D01*
X48863368Y1776086D01*
X48972861Y1612218D01*
X49112218Y1472861D01*
X49112220Y1472860D01*
X50084511Y500568D01*
X50138486Y419788D01*
X50157440Y324500D01*
X50138486Y229212D01*
X50084510Y148430D01*
X50003728Y94454D01*
X49908440Y75500D01*
X7449000Y75500D01*
X7353712Y94454D01*
X7272930Y148430D01*
X7218954Y229212D01*
X7200000Y324500D01*
X7200000Y3387043D01*
X7200341Y3400074D01*
X7203347Y3457433D01*
X7205578Y3500000D01*
X7200341Y3599928D01*
X7200000Y3612959D01*
X7200000Y7000500D01*
X7218954Y7095788D01*
X7272930Y7176570D01*
X7353712Y7230546D01*
X7449000Y7249500D01*
X16232440Y7249500D01*
X16327728Y7230546D01*
X16408510Y7176570D01*
X20236570Y3348510D01*
X20290546Y3267728D01*
X20309500Y3172440D01*
X20309500Y2819002D01*
X20290546Y2723714D01*
X20264468Y2676180D01*
X20243967Y2646902D01*
X20173785Y2579719D01*
X20083236Y2544507D01*
X19986104Y2546627D01*
X19897177Y2585756D01*
X19836030Y2646904D01*
X19770047Y2741139D01*
X19609139Y2902047D01*
X19609135Y2902050D01*
X19609134Y2902051D01*
X19422741Y3032564D01*
X19422727Y3032572D01*
X19216499Y3128738D01*
X19216496Y3128739D01*
X18996694Y3187635D01*
X18996679Y3187637D01*
X18770006Y3207468D01*
X18769994Y3207468D01*
X18543320Y3187637D01*
X18543305Y3187635D01*
X18323503Y3128739D01*
X18323500Y3128738D01*
X18117272Y3032572D01*
X18117258Y3032564D01*
X17930865Y2902051D01*
X17769949Y2741135D01*
X17703969Y2646904D01*
X17633788Y2579720D01*
X17543239Y2544507D01*
X17446107Y2546626D01*
X17357180Y2585755D01*
X17296031Y2646904D01*
X17230050Y2741135D01*
X17230049Y2741136D01*
X17230047Y2741139D01*
X17069139Y2902047D01*
X17069135Y2902050D01*
X17069134Y2902051D01*
X16882741Y3032564D01*
X16882727Y3032572D01*
X16676499Y3128738D01*
X16676496Y3128739D01*
X16456694Y3187635D01*
X16456679Y3187637D01*
X16230006Y3207468D01*
X16229994Y3207468D01*
X16003320Y3187637D01*
X16003305Y3187635D01*
X15783503Y3128739D01*
X15783500Y3128738D01*
X15577272Y3032572D01*
X15577258Y3032564D01*
X15390865Y2902051D01*
X15229949Y2741135D01*
X15163969Y2646904D01*
X15093788Y2579720D01*
X15003239Y2544507D01*
X14906107Y2546626D01*
X14817180Y2585755D01*
X14756031Y2646904D01*
X14690050Y2741135D01*
X14690049Y2741136D01*
X14690047Y2741139D01*
X14529139Y2902047D01*
X14529135Y2902050D01*
X14529134Y2902051D01*
X14342741Y3032564D01*
X14342727Y3032572D01*
X14136499Y3128738D01*
X14136496Y3128739D01*
X13916694Y3187635D01*
X13916679Y3187637D01*
X13690006Y3207468D01*
X13689994Y3207468D01*
X13463320Y3187637D01*
X13463305Y3187635D01*
X13243503Y3128739D01*
X13243500Y3128738D01*
X13037272Y3032572D01*
X13037258Y3032564D01*
X12850865Y2902051D01*
X12689949Y2741135D01*
X12623969Y2646904D01*
X12553788Y2579720D01*
X12463239Y2544507D01*
X12366107Y2546626D01*
X12277180Y2585755D01*
X12216031Y2646904D01*
X12150050Y2741135D01*
X12150049Y2741136D01*
X12150047Y2741139D01*
X11989139Y2902047D01*
X11989135Y2902050D01*
X11989134Y2902051D01*
X11802741Y3032564D01*
X11802727Y3032572D01*
X11596499Y3128738D01*
X11596496Y3128739D01*
X11376694Y3187635D01*
X11376679Y3187637D01*
X11150006Y3207468D01*
X11149994Y3207468D01*
X10923320Y3187637D01*
X10923305Y3187635D01*
X10703503Y3128739D01*
X10703500Y3128738D01*
X10497272Y3032572D01*
X10497258Y3032564D01*
X10310865Y2902051D01*
X10149949Y2741135D01*
X10019436Y2554742D01*
X10019428Y2554728D01*
X9923262Y2348500D01*
X9923261Y2348497D01*
X9864365Y2128695D01*
X9864363Y2128680D01*
X9844532Y1902006D01*
X9844532Y1901995D01*
X9864363Y1675321D01*
X9864365Y1675306D01*
X9923261Y1455504D01*
X9923262Y1455501D01*
X10019428Y1249273D01*
X10019436Y1249259D01*
X10149949Y1062866D01*
X10149953Y1062861D01*
X10310861Y901953D01*
X10310864Y901951D01*
X10310865Y901950D01*
X10497258Y771437D01*
X10497262Y771435D01*
X10497266Y771432D01*
X10703504Y675261D01*
X10923308Y616365D01*
X10942984Y614644D01*
X11149994Y596532D01*
X11150000Y596532D01*
X11150006Y596532D01*
X11329668Y612251D01*
X11376692Y616365D01*
X11596496Y675261D01*
X11802734Y771432D01*
X11989139Y901953D01*
X12150047Y1062861D01*
X12216031Y1157098D01*
X12286211Y1224281D01*
X12376760Y1259494D01*
X12473892Y1257375D01*
X12562819Y1218247D01*
X12623968Y1157098D01*
X12689953Y1062861D01*
X12850861Y901953D01*
X12850864Y901951D01*
X12850865Y901950D01*
X13037258Y771437D01*
X13037262Y771435D01*
X13037266Y771432D01*
X13243504Y675261D01*
X13463308Y616365D01*
X13482984Y614644D01*
X13689994Y596532D01*
X13690000Y596532D01*
X13690006Y596532D01*
X13869668Y612251D01*
X13916692Y616365D01*
X14136496Y675261D01*
X14342734Y771432D01*
X14529139Y901953D01*
X14690047Y1062861D01*
X14756031Y1157098D01*
X14826211Y1224281D01*
X14916760Y1259494D01*
X15013892Y1257375D01*
X15102819Y1218247D01*
X15163968Y1157098D01*
X15229953Y1062861D01*
X15390861Y901953D01*
X15390864Y901951D01*
X15390865Y901950D01*
X15577258Y771437D01*
X15577262Y771435D01*
X15577266Y771432D01*
X15783504Y675261D01*
X16003308Y616365D01*
X16022984Y614644D01*
X16229994Y596532D01*
X16230000Y596532D01*
X16230006Y596532D01*
X16409668Y612251D01*
X16456692Y616365D01*
X16676496Y675261D01*
X16882734Y771432D01*
X17069139Y901953D01*
X17230047Y1062861D01*
X17296031Y1157098D01*
X17366211Y1224281D01*
X17456760Y1259494D01*
X17553892Y1257375D01*
X17642819Y1218247D01*
X17703968Y1157098D01*
X17769953Y1062861D01*
X17930861Y901953D01*
X17930864Y901951D01*
X17930865Y901950D01*
X18117258Y771437D01*
X18117262Y771435D01*
X18117266Y771432D01*
X18323504Y675261D01*
X18543308Y616365D01*
X18562984Y614644D01*
X18769994Y596532D01*
X18770000Y596532D01*
X18770006Y596532D01*
X18949668Y612251D01*
X18996692Y616365D01*
X19216496Y675261D01*
X19422734Y771432D01*
X19609139Y901953D01*
X19770047Y1062861D01*
X19836031Y1157098D01*
X19906211Y1224281D01*
X19996760Y1259494D01*
X20093892Y1257375D01*
X20182819Y1218247D01*
X20243968Y1157098D01*
X20309953Y1062861D01*
X20470861Y901953D01*
X20470864Y901951D01*
X20470865Y901950D01*
X20657258Y771437D01*
X20657262Y771435D01*
X20657266Y771432D01*
X20863504Y675261D01*
X21083308Y616365D01*
X21102984Y614644D01*
X21309994Y596532D01*
X21310000Y596532D01*
X21310006Y596532D01*
X21489668Y612251D01*
X21536692Y616365D01*
X21756496Y675261D01*
X21962734Y771432D01*
X22149139Y901953D01*
X22310047Y1062861D01*
X22376031Y1157098D01*
X22446211Y1224281D01*
X22536760Y1259494D01*
X22633892Y1257375D01*
X22722819Y1218247D01*
X22783968Y1157098D01*
X22849953Y1062861D01*
X23010861Y901953D01*
X23010864Y901951D01*
X23010865Y901950D01*
X23197258Y771437D01*
X23197262Y771435D01*
X23197266Y771432D01*
X23403504Y675261D01*
X23623308Y616365D01*
X23642984Y614644D01*
X23849994Y596532D01*
X23850000Y596532D01*
X23850006Y596532D01*
X24029668Y612251D01*
X24076692Y616365D01*
X24296496Y675261D01*
X24502734Y771432D01*
X24689139Y901953D01*
X24850047Y1062861D01*
X24916031Y1157098D01*
X24986211Y1224281D01*
X25076760Y1259494D01*
X25173892Y1257375D01*
X25262819Y1218247D01*
X25323968Y1157098D01*
X25389953Y1062861D01*
X25550861Y901953D01*
X25550864Y901951D01*
X25550865Y901950D01*
X25737258Y771437D01*
X25737262Y771435D01*
X25737266Y771432D01*
X25943504Y675261D01*
X26163308Y616365D01*
X26182984Y614644D01*
X26389994Y596532D01*
X26390000Y596532D01*
X26390006Y596532D01*
X26569668Y612251D01*
X26616692Y616365D01*
X26836496Y675261D01*
X27042734Y771432D01*
X27229139Y901953D01*
X27390047Y1062861D01*
X27456031Y1157098D01*
X27526211Y1224281D01*
X27616760Y1259494D01*
X27713892Y1257375D01*
X27802819Y1218247D01*
X27863968Y1157098D01*
X27929953Y1062861D01*
X28090861Y901953D01*
X28090864Y901951D01*
X28090865Y901950D01*
X28277258Y771437D01*
X28277262Y771435D01*
X28277266Y771432D01*
X28483504Y675261D01*
X28703308Y616365D01*
X28722984Y614644D01*
X28929994Y596532D01*
X28930000Y596532D01*
X28930006Y596532D01*
X29109668Y612251D01*
X29156692Y616365D01*
X29376496Y675261D01*
X29582734Y771432D01*
X29769139Y901953D01*
X29930047Y1062861D01*
X30060568Y1249266D01*
X30156739Y1455504D01*
X30215635Y1675308D01*
X30215635Y1675311D01*
X30218448Y1685808D01*
X30220651Y1685218D01*
X30249876Y1760381D01*
X30317056Y1830566D01*
X30405981Y1869700D01*
X30503113Y1871825D01*
X30593664Y1836617D01*
X30635952Y1802680D01*
X30771584Y1667048D01*
X30823715Y1632216D01*
X30894505Y1584916D01*
X30894510Y1584914D01*
X30951080Y1561482D01*
X30951082Y1561481D01*
X31031084Y1528342D01*
X31031086Y1528342D01*
X31031088Y1528341D01*
X31067676Y1521064D01*
X31139847Y1506707D01*
X31139854Y1506707D01*
X31139861Y1506705D01*
X31176082Y1499500D01*
X31176083Y1499500D01*
X31176085Y1499500D01*
X41073919Y1499500D01*
X41073919Y1499501D01*
X41218913Y1528342D01*
X41355495Y1584916D01*
X41426285Y1632216D01*
X41478416Y1667048D01*
X43082951Y3271584D01*
X43165084Y3394505D01*
X43221658Y3531087D01*
X43250500Y3676082D01*
X43250500Y3823917D01*
X43250500Y4182185D01*
X43269454Y4277473D01*
X43283860Y4306685D01*
X43319425Y4368286D01*
X43327179Y4381716D01*
X43385674Y4561744D01*
X43405460Y4750000D01*
X43385674Y4938256D01*
X43327179Y5118284D01*
X43232533Y5282216D01*
X43232531Y5282219D01*
X43232530Y5282220D01*
X43105873Y5422886D01*
X43105872Y5422887D01*
X43105871Y5422888D01*
X43029300Y5478520D01*
X42952728Y5534153D01*
X42779810Y5611142D01*
X42779796Y5611146D01*
X42594646Y5650500D01*
X42405354Y5650500D01*
X42220203Y5611146D01*
X42220189Y5611142D01*
X42047271Y5534153D01*
X41894126Y5422886D01*
X41767469Y5282220D01*
X41672822Y5118286D01*
X41614325Y4938256D01*
X41594540Y4750000D01*
X41614325Y4561745D01*
X41623919Y4532220D01*
X41672821Y4381716D01*
X41672822Y4381714D01*
X41672823Y4381712D01*
X41672824Y4381710D01*
X41716140Y4306685D01*
X41747370Y4214686D01*
X41749500Y4182185D01*
X41749500Y4164008D01*
X41730546Y4068720D01*
X41676570Y3987938D01*
X40762062Y3073430D01*
X40681280Y3019454D01*
X40585992Y3000500D01*
X34826003Y3000500D01*
X34730715Y3019454D01*
X34649933Y3073430D01*
X34595957Y3154212D01*
X34577003Y3249500D01*
X34595957Y3344788D01*
X34649933Y3425570D01*
X34692264Y3458052D01*
X34692172Y3458178D01*
X34697017Y3461699D01*
X34701504Y3465141D01*
X34702725Y3465848D01*
X34702730Y3465849D01*
X34855871Y3577112D01*
X34982533Y3717784D01*
X35077179Y3881716D01*
X35135674Y4061744D01*
X35155460Y4250000D01*
X35135674Y4438256D01*
X35077179Y4618284D01*
X34982533Y4782216D01*
X34936458Y4833388D01*
X34886784Y4916880D01*
X34872842Y5013029D01*
X34896756Y5107195D01*
X34936459Y5166614D01*
X34982533Y5217784D01*
X35077179Y5381716D01*
X35135674Y5561744D01*
X35155460Y5750000D01*
X35135674Y5938256D01*
X35077179Y6118284D01*
X34982533Y6282216D01*
X34982531Y6282219D01*
X34982530Y6282220D01*
X34855873Y6422886D01*
X34855872Y6422887D01*
X34855871Y6422888D01*
X34779300Y6478520D01*
X34702728Y6534153D01*
X34529810Y6611142D01*
X34529796Y6611146D01*
X34434312Y6631441D01*
X34345047Y6669792D01*
X34277253Y6739384D01*
X34250385Y6806726D01*
X34219126Y6733965D01*
X34149534Y6666171D01*
X34065687Y6631441D01*
X33970203Y6611146D01*
X33970189Y6611142D01*
X33797271Y6534153D01*
X33644126Y6422886D01*
X33517469Y6282220D01*
X33422822Y6118286D01*
X33364325Y5938256D01*
X33344540Y5750000D01*
X33364325Y5561745D01*
X33393573Y5471730D01*
X33422821Y5381716D01*
X33422822Y5381715D01*
X33517467Y5217784D01*
X33563541Y5166614D01*
X33613216Y5083118D01*
X33627157Y4986969D01*
X33603242Y4892803D01*
X33563541Y4833386D01*
X33517467Y4782217D01*
X33430849Y4632189D01*
X33422821Y4618284D01*
X33411341Y4582952D01*
X33364325Y4438256D01*
X33344540Y4250000D01*
X33364325Y4061745D01*
X33378682Y4017560D01*
X33422821Y3881716D01*
X33516725Y3719069D01*
X33517469Y3717781D01*
X33590540Y3636628D01*
X33644129Y3577112D01*
X33724319Y3518851D01*
X33797270Y3465849D01*
X33798496Y3465141D01*
X33799711Y3464075D01*
X33807828Y3458178D01*
X33807286Y3457433D01*
X33871542Y3401082D01*
X33914512Y3313947D01*
X33920867Y3217000D01*
X33889638Y3125001D01*
X33825579Y3051955D01*
X33738444Y3008985D01*
X33673997Y3000500D01*
X31664008Y3000500D01*
X31568720Y3019454D01*
X31487938Y3073430D01*
X30733640Y3827728D01*
X29978416Y4582952D01*
X29978412Y4582955D01*
X29978410Y4582957D01*
X29978411Y4582957D01*
X29904732Y4632185D01*
X29904729Y4632188D01*
X29904729Y4632187D01*
X29855495Y4665084D01*
X29718913Y4721658D01*
X29718911Y4721659D01*
X29573920Y4750500D01*
X29573918Y4750500D01*
X25176082Y4750500D01*
X25176079Y4750500D01*
X25031088Y4721659D01*
X24894507Y4665085D01*
X24894502Y4665083D01*
X24845271Y4632189D01*
X24845270Y4632187D01*
X24824466Y4618286D01*
X24771582Y4582951D01*
X23273156Y3084525D01*
X23202334Y3034932D01*
X23197271Y3032571D01*
X23197268Y3032570D01*
X23010864Y2902050D01*
X22849949Y2741135D01*
X22783969Y2646904D01*
X22713788Y2579720D01*
X22623239Y2544507D01*
X22526107Y2546626D01*
X22437180Y2585755D01*
X22376029Y2646907D01*
X22355529Y2676185D01*
X22316401Y2765112D01*
X22310500Y2819002D01*
X22310500Y3788541D01*
X22310499Y3788546D01*
X22272052Y3981831D01*
X22272051Y3981833D01*
X22272051Y3981835D01*
X22196632Y4163914D01*
X22087139Y4327782D01*
X21947782Y4467139D01*
X21947778Y4467142D01*
X17527141Y8887779D01*
X17527139Y8887782D01*
X17387782Y9027139D01*
X17223914Y9136632D01*
X17223909Y9136635D01*
X17134868Y9173517D01*
X17095165Y9189962D01*
X17041836Y9212051D01*
X17041833Y9212052D01*
X16945189Y9231276D01*
X16945188Y9231276D01*
X16848541Y9250500D01*
X16848538Y9250500D01*
X6499000Y9250500D01*
X6403712Y9269454D01*
X6322930Y9323430D01*
X6268954Y9404212D01*
X6250000Y9499500D01*
X6250000Y9500000D01*
X33344540Y9500000D01*
X33364325Y9311745D01*
X33390472Y9231276D01*
X33422821Y9131716D01*
X33517467Y8967784D01*
X33563541Y8916614D01*
X33613216Y8833118D01*
X33627157Y8736969D01*
X33603242Y8642803D01*
X33563541Y8583386D01*
X33517467Y8532217D01*
X33454345Y8422886D01*
X33422821Y8368284D01*
X33416408Y8348546D01*
X33364325Y8188256D01*
X33344540Y8000000D01*
X33364325Y7811745D01*
X33384388Y7750000D01*
X33422821Y7631716D01*
X33515232Y7471655D01*
X33517469Y7467781D01*
X33644126Y7327115D01*
X33644129Y7327112D01*
X33683640Y7298406D01*
X33797271Y7215848D01*
X33970189Y7138859D01*
X33970192Y7138858D01*
X33970197Y7138856D01*
X34032475Y7125619D01*
X34065687Y7118559D01*
X34154953Y7080208D01*
X34222747Y7010616D01*
X34249613Y6943275D01*
X34280873Y7016034D01*
X34350465Y7083828D01*
X34434312Y7118559D01*
X34529803Y7138856D01*
X34702730Y7215849D01*
X34855871Y7327112D01*
X34982533Y7467784D01*
X35077179Y7631716D01*
X35135674Y7811744D01*
X35155460Y8000000D01*
X35135674Y8188256D01*
X35077179Y8368284D01*
X34982533Y8532216D01*
X34936458Y8583388D01*
X34886784Y8666880D01*
X34872842Y8763029D01*
X34896756Y8857195D01*
X34936459Y8916614D01*
X34982533Y8967784D01*
X35077179Y9131716D01*
X35135674Y9311744D01*
X35155460Y9500000D01*
X35135674Y9688256D01*
X35077179Y9868284D01*
X34982533Y10032216D01*
X34982531Y10032219D01*
X34982530Y10032220D01*
X34855873Y10172886D01*
X34855872Y10172887D01*
X34855871Y10172888D01*
X34731081Y10263553D01*
X34702728Y10284153D01*
X34529810Y10361142D01*
X34529796Y10361146D01*
X34344646Y10400500D01*
X34155354Y10400500D01*
X33970203Y10361146D01*
X33970189Y10361142D01*
X33797271Y10284153D01*
X33644126Y10172886D01*
X33517469Y10032220D01*
X33431587Y9883468D01*
X33422821Y9868284D01*
X33422280Y9866618D01*
X33364325Y9688256D01*
X33344540Y9500000D01*
X6250000Y9500000D01*
X6250000Y10168265D01*
X6268954Y10263553D01*
X6322930Y10344335D01*
X6337007Y10356916D01*
X6336931Y10357001D01*
X6410869Y10423077D01*
X5449904Y11384042D01*
X5560793Y11469130D01*
X5718370Y11626707D01*
X5803458Y11737596D01*
X6764423Y10776631D01*
X6825842Y10845359D01*
X6825844Y10845362D01*
X7024079Y11124749D01*
X7160424Y11371446D01*
X7223106Y11445676D01*
X7309423Y11490268D01*
X7378355Y11500000D01*
X9481940Y11500000D01*
X9577228Y11481046D01*
X9658010Y11427070D01*
X9722858Y11362222D01*
X9722861Y11362218D01*
X9862218Y11222861D01*
X10026086Y11113368D01*
X10150718Y11061744D01*
X10208164Y11037949D01*
X10216846Y11036222D01*
X10242654Y11031088D01*
X10242659Y11031088D01*
X10242662Y11031087D01*
X10401459Y10999500D01*
X15098541Y10999500D01*
X15257338Y11031087D01*
X15291836Y11037949D01*
X15349282Y11061744D01*
X15473914Y11113368D01*
X15637782Y11222861D01*
X15777139Y11362218D01*
X15777139Y11362220D01*
X15797639Y11382719D01*
X15797640Y11382722D01*
X17007140Y12592219D01*
X17116632Y12756086D01*
X17192052Y12938165D01*
X17224158Y13099578D01*
X17261338Y13189337D01*
X17330037Y13258036D01*
X17419796Y13295215D01*
X17468374Y13300000D01*
X18719493Y13300000D01*
X18741195Y13299053D01*
X18746660Y13298574D01*
X18769998Y13296532D01*
X18770000Y13296532D01*
X18770002Y13296532D01*
X18793340Y13298574D01*
X18798804Y13299053D01*
X18820507Y13300000D01*
X21259493Y13300000D01*
X21281195Y13299053D01*
X21286660Y13298574D01*
X21309998Y13296532D01*
X21310000Y13296532D01*
X21310002Y13296532D01*
X21333340Y13298574D01*
X21338804Y13299053D01*
X21360507Y13300000D01*
X23799493Y13300000D01*
X23821195Y13299053D01*
X23826660Y13298574D01*
X23849998Y13296532D01*
X23850000Y13296532D01*
X23850002Y13296532D01*
X23873340Y13298574D01*
X23878804Y13299053D01*
X23900507Y13300000D01*
X26339493Y13300000D01*
X26361195Y13299053D01*
X26366660Y13298574D01*
X26389998Y13296532D01*
X26390000Y13296532D01*
X26390002Y13296532D01*
X26413340Y13298574D01*
X26418804Y13299053D01*
X26440507Y13300000D01*
X28087459Y13300000D01*
X28114066Y13298574D01*
X28195585Y13289814D01*
X28259386Y13300000D01*
X28432822Y13300000D01*
X28443503Y13302000D01*
X28679999Y13302000D01*
X28680000Y13302001D01*
X28680000Y14286314D01*
X28684394Y14281920D01*
X28775606Y14229259D01*
X28877339Y14202000D01*
X28982661Y14202000D01*
X29084394Y14229259D01*
X29175606Y14281920D01*
X29180000Y14286314D01*
X29180000Y13302001D01*
X29180001Y13302000D01*
X29777825Y13302000D01*
X29777832Y13302001D01*
X29837371Y13308402D01*
X29837378Y13308404D01*
X29972087Y13358647D01*
X30087187Y13444811D01*
X30087189Y13444813D01*
X30173353Y13559913D01*
X30223596Y13694622D01*
X30223598Y13694629D01*
X30229999Y13754168D01*
X30230000Y13754175D01*
X30230000Y14351999D01*
X30229999Y14352000D01*
X29245686Y14352000D01*
X29250080Y14356394D01*
X29302741Y14447606D01*
X29330000Y14549339D01*
X29330000Y14654661D01*
X29302741Y14756394D01*
X29250080Y14847606D01*
X29245686Y14852000D01*
X30229999Y14852000D01*
X30230000Y14852001D01*
X30230000Y15449825D01*
X30229999Y15449833D01*
X30224606Y15500000D01*
X38844540Y15500000D01*
X38864325Y15311745D01*
X38884388Y15250000D01*
X38922821Y15131716D01*
X38922822Y15131714D01*
X38922823Y15131712D01*
X38922824Y15131710D01*
X38966140Y15056685D01*
X38997370Y14964686D01*
X38999500Y14932185D01*
X38999500Y12176080D01*
X39028341Y12031089D01*
X39042670Y11996496D01*
X39084916Y11894505D01*
X39117813Y11845271D01*
X39167048Y11771584D01*
X40167049Y10771584D01*
X40167048Y10771584D01*
X40220849Y10717784D01*
X40271584Y10667049D01*
X40394505Y10584916D01*
X40413339Y10577115D01*
X40413345Y10577111D01*
X40413346Y10577112D01*
X40531088Y10528341D01*
X40531091Y10528341D01*
X40531092Y10528340D01*
X40531091Y10528340D01*
X40647237Y10505237D01*
X40647245Y10505237D01*
X40676080Y10499501D01*
X40676081Y10499500D01*
X40676082Y10499500D01*
X40676083Y10499500D01*
X40823918Y10499500D01*
X41422265Y10499500D01*
X41517553Y10480546D01*
X41546762Y10466142D01*
X41547272Y10465848D01*
X41720189Y10388859D01*
X41720192Y10388858D01*
X41720197Y10388856D01*
X41905354Y10349500D01*
X42094645Y10349500D01*
X42094646Y10349500D01*
X42279803Y10388856D01*
X42452730Y10465849D01*
X42605871Y10577112D01*
X42732533Y10717784D01*
X42827179Y10881716D01*
X42885674Y11061744D01*
X42905460Y11250000D01*
X42885674Y11438256D01*
X42827179Y11618284D01*
X42732533Y11782216D01*
X42732531Y11782219D01*
X42732530Y11782220D01*
X42605873Y11922886D01*
X42605872Y11922887D01*
X42605871Y11922888D01*
X42472959Y12019454D01*
X42452728Y12034153D01*
X42279810Y12111142D01*
X42279796Y12111146D01*
X42094646Y12150500D01*
X41905354Y12150500D01*
X41720203Y12111146D01*
X41720189Y12111142D01*
X41547272Y12034153D01*
X41546762Y12033858D01*
X41546124Y12033642D01*
X41535349Y12028844D01*
X41534908Y12029835D01*
X41454763Y12002630D01*
X41422265Y12000500D01*
X41164006Y12000500D01*
X41068718Y12019454D01*
X40987939Y12073428D01*
X40573430Y12487938D01*
X40519454Y12568719D01*
X40500500Y12664007D01*
X40500500Y14214553D01*
X40519454Y14309841D01*
X40573430Y14390623D01*
X40654212Y14444599D01*
X40749500Y14463553D01*
X40844788Y14444599D01*
X40850778Y14442025D01*
X40966228Y14390623D01*
X40970197Y14388856D01*
X41155354Y14349500D01*
X41344645Y14349500D01*
X41344646Y14349500D01*
X41529803Y14388856D01*
X41601804Y14420913D01*
X41702728Y14465848D01*
X41702728Y14465849D01*
X41702730Y14465849D01*
X41855871Y14577112D01*
X41982533Y14717784D01*
X42077179Y14881716D01*
X42135674Y15061744D01*
X42155460Y15250000D01*
X42135674Y15438256D01*
X42077179Y15618284D01*
X41982533Y15782216D01*
X41982531Y15782219D01*
X41982530Y15782220D01*
X41855873Y15922886D01*
X41855872Y15922887D01*
X41855871Y15922888D01*
X41757919Y15994054D01*
X41702728Y16034153D01*
X41529810Y16111142D01*
X41529796Y16111146D01*
X41344646Y16150500D01*
X41155354Y16150500D01*
X40970203Y16111146D01*
X40970189Y16111142D01*
X40797269Y16034152D01*
X40787324Y16026926D01*
X40699093Y15986254D01*
X40602012Y15982443D01*
X40510863Y16016073D01*
X40455931Y16061761D01*
X40355871Y16172888D01*
X40249006Y16250530D01*
X40202728Y16284153D01*
X40029810Y16361142D01*
X40029796Y16361146D01*
X39844646Y16400500D01*
X39655354Y16400500D01*
X39470203Y16361146D01*
X39470189Y16361142D01*
X39297271Y16284153D01*
X39144126Y16172886D01*
X39017469Y16032220D01*
X38938591Y15895599D01*
X38922821Y15868284D01*
X38915371Y15845354D01*
X38864325Y15688256D01*
X38844540Y15500000D01*
X30224606Y15500000D01*
X30223598Y15509372D01*
X30223596Y15509379D01*
X30173353Y15644088D01*
X30087189Y15759188D01*
X30087187Y15759190D01*
X29972087Y15845354D01*
X29837378Y15895597D01*
X29837371Y15895599D01*
X29777832Y15902000D01*
X29180001Y15902000D01*
X29180000Y15901999D01*
X29180000Y14917686D01*
X29175606Y14922080D01*
X29084394Y14974741D01*
X28982661Y15002000D01*
X28877339Y15002000D01*
X28775606Y14974741D01*
X28684394Y14922080D01*
X28680000Y14917686D01*
X28680000Y15923320D01*
X28668954Y15939851D01*
X28650000Y16035139D01*
X28650000Y16750500D01*
X28668954Y16845788D01*
X28722930Y16926570D01*
X28803712Y16980546D01*
X28899000Y16999500D01*
X45382440Y16999500D01*
X45477728Y16980546D01*
G37*
%TD.AperFunction*%
%TA.AperFunction,Conductor*%
G36*
X84123078Y32984552D02*
G01*
X84246504Y32960001D01*
X84246509Y32960000D01*
X84589913Y32960000D01*
X84685201Y32941046D01*
X84765983Y32887070D01*
X84819959Y32806288D01*
X84838913Y32711000D01*
X84830429Y32646555D01*
X84819500Y32605767D01*
X84819500Y32454234D01*
X84858718Y32307867D01*
X84934482Y32176639D01*
X84934483Y32176638D01*
X84934485Y32176635D01*
X85041635Y32069485D01*
X85172865Y31993719D01*
X85319234Y31954500D01*
X85470766Y31954500D01*
X85586095Y31985402D01*
X85617135Y31993719D01*
X85748365Y32069485D01*
X85748367Y32069488D01*
X85750999Y32071007D01*
X85842998Y32102237D01*
X85939945Y32095883D01*
X86027081Y32052913D01*
X86091140Y31979868D01*
X86122370Y31887869D01*
X86124500Y31855367D01*
X86124500Y27424634D01*
X86105546Y27329346D01*
X86051570Y27248564D01*
X85970788Y27194588D01*
X85875500Y27175634D01*
X85780212Y27194588D01*
X85751000Y27208994D01*
X85679975Y27250000D01*
X85617135Y27286281D01*
X85617132Y27286282D01*
X85617134Y27286282D01*
X85470766Y27325500D01*
X85319234Y27325500D01*
X85172866Y27286282D01*
X85041638Y27210518D01*
X84934482Y27103362D01*
X84858718Y26972134D01*
X84819500Y26825767D01*
X84819500Y26674234D01*
X84830429Y26633445D01*
X84836783Y26536498D01*
X84805553Y26444499D01*
X84741494Y26371454D01*
X84654358Y26328484D01*
X84589913Y26320000D01*
X84246511Y26320000D01*
X84053308Y26281571D01*
X83871327Y26206192D01*
X83871320Y26206189D01*
X83707540Y26096754D01*
X83568246Y25957460D01*
X83458811Y25793680D01*
X83458810Y25793676D01*
X83383428Y25611690D01*
X83383428Y25611688D01*
X83375136Y25570001D01*
X83375137Y25570000D01*
X84178012Y25570000D01*
X84160795Y25560060D01*
X84104940Y25504205D01*
X84065444Y25435796D01*
X84045000Y25359496D01*
X84045000Y25280504D01*
X84065444Y25204204D01*
X84104940Y25135795D01*
X84160795Y25079940D01*
X84178012Y25070000D01*
X83375136Y25070000D01*
X83383428Y25028313D01*
X83383428Y25028311D01*
X83458810Y24846325D01*
X83458811Y24846321D01*
X83568246Y24682541D01*
X83707540Y24543247D01*
X83871320Y24433812D01*
X83871327Y24433809D01*
X84053308Y24358430D01*
X84246511Y24320000D01*
X84502338Y24320000D01*
X84597626Y24301046D01*
X84678408Y24247070D01*
X84732384Y24166288D01*
X84751338Y24071000D01*
X84732384Y23975712D01*
X84717979Y23946501D01*
X84714347Y23940210D01*
X84672821Y23868284D01*
X84666718Y23849500D01*
X84614325Y23688256D01*
X84594540Y23500000D01*
X84614325Y23311745D01*
X84643573Y23221730D01*
X84672821Y23131716D01*
X84767467Y22967784D01*
X84767469Y22967781D01*
X84862519Y22862218D01*
X84894129Y22827112D01*
X85047270Y22715849D01*
X85085780Y22698703D01*
X85165117Y22642634D01*
X85216961Y22560467D01*
X85233415Y22464716D01*
X85211974Y22369956D01*
X85160570Y22295162D01*
X84264286Y21398878D01*
X84189496Y21347476D01*
X84047268Y21284151D01*
X83894126Y21172886D01*
X83767469Y21032220D01*
X83672822Y20868286D01*
X83614325Y20688256D01*
X83594540Y20500000D01*
X83614325Y20311745D01*
X83634388Y20250000D01*
X83672821Y20131716D01*
X83748864Y20000006D01*
X83767469Y19967781D01*
X83874076Y19849383D01*
X83894129Y19827112D01*
X84006405Y19745539D01*
X84047271Y19715848D01*
X84220189Y19638859D01*
X84220192Y19638858D01*
X84220197Y19638856D01*
X84405354Y19599500D01*
X84594645Y19599500D01*
X84594646Y19599500D01*
X84779803Y19638856D01*
X84952730Y19715849D01*
X84978639Y19734674D01*
X85066869Y19775349D01*
X85163949Y19779165D01*
X85255099Y19745539D01*
X85271361Y19734673D01*
X85297270Y19715849D01*
X85470189Y19638859D01*
X85470192Y19638858D01*
X85470197Y19638856D01*
X85655354Y19599500D01*
X85844645Y19599500D01*
X85844646Y19599500D01*
X86029803Y19638856D01*
X86202730Y19715849D01*
X86355871Y19827112D01*
X86482533Y19967784D01*
X86577179Y20131716D01*
X86635674Y20311744D01*
X86655460Y20500000D01*
X86635674Y20688256D01*
X86577179Y20868284D01*
X86554006Y20908421D01*
X86522777Y21000420D01*
X86529132Y21097367D01*
X86572102Y21184502D01*
X86593569Y21208981D01*
X87735857Y22351266D01*
X87742458Y22361144D01*
X87804311Y22453714D01*
X87851463Y22567548D01*
X87875500Y22688394D01*
X87875500Y24196117D01*
X87894454Y24291405D01*
X87948430Y24372187D01*
X88029212Y24426163D01*
X88124500Y24445117D01*
X88219788Y24426163D01*
X88383310Y24358430D01*
X88576511Y24320000D01*
X88824999Y24320000D01*
X88825000Y24320001D01*
X88825000Y25020000D01*
X89325000Y25020000D01*
X89325000Y24320001D01*
X89325001Y24320000D01*
X89573489Y24320000D01*
X89766691Y24358430D01*
X89948672Y24433809D01*
X89948679Y24433812D01*
X90112459Y24543247D01*
X90251753Y24682541D01*
X90361188Y24846321D01*
X90361191Y24846328D01*
X90436568Y25028306D01*
X90437222Y25030459D01*
X90438282Y25032444D01*
X90441252Y25039612D01*
X90441958Y25039320D01*
X90483021Y25116141D01*
X90558123Y25177776D01*
X90651094Y25205978D01*
X90747782Y25196455D01*
X90833464Y25150656D01*
X90895099Y25075554D01*
X90923301Y24982583D01*
X90924500Y24958177D01*
X90924500Y6849000D01*
X90905546Y6753712D01*
X90851570Y6672930D01*
X90770788Y6618954D01*
X90675500Y6600000D01*
X89594584Y6600000D01*
X89499296Y6618954D01*
X89458969Y6640171D01*
X89352789Y6709125D01*
X89352784Y6709128D01*
X89007195Y6885214D01*
X88767721Y6977139D01*
X88645087Y7024214D01*
X88270433Y7124602D01*
X88270429Y7124603D01*
X88270428Y7124603D01*
X87887344Y7185277D01*
X87887345Y7185277D01*
X87887343Y7185278D01*
X87887338Y7185278D01*
X87500000Y7205578D01*
X87112662Y7185278D01*
X86882164Y7148771D01*
X86785084Y7152586D01*
X86696854Y7193261D01*
X86630905Y7264605D01*
X86597278Y7355755D01*
X86601093Y7452835D01*
X86606393Y7471629D01*
X86635674Y7561744D01*
X86655460Y7750000D01*
X86635674Y7938256D01*
X86577179Y8118284D01*
X86482533Y8282216D01*
X86482531Y8282219D01*
X86482530Y8282220D01*
X86355873Y8422886D01*
X86355872Y8422887D01*
X86355871Y8422888D01*
X86228642Y8515325D01*
X86202728Y8534153D01*
X86029810Y8611142D01*
X86029796Y8611146D01*
X85844646Y8650500D01*
X85655354Y8650500D01*
X85470203Y8611146D01*
X85470189Y8611142D01*
X85297272Y8534153D01*
X85271358Y8515325D01*
X85183127Y8474651D01*
X85086047Y8470837D01*
X84994897Y8504464D01*
X84978642Y8515325D01*
X84952727Y8534153D01*
X84779810Y8611142D01*
X84779796Y8611146D01*
X84594646Y8650500D01*
X84405354Y8650500D01*
X84220203Y8611146D01*
X84220189Y8611142D01*
X84047271Y8534153D01*
X83894126Y8422886D01*
X83767469Y8282220D01*
X83672822Y8118286D01*
X83614325Y7938256D01*
X83594540Y7750000D01*
X83614325Y7561745D01*
X83614326Y7561743D01*
X83672821Y7381716D01*
X83756192Y7237313D01*
X83767469Y7217781D01*
X83875000Y7098357D01*
X83894129Y7077112D01*
X83972688Y7020036D01*
X84047271Y6965848D01*
X84220189Y6888859D01*
X84220193Y6888858D01*
X84220197Y6888856D01*
X84220202Y6888855D01*
X84220205Y6888854D01*
X84252767Y6881933D01*
X84342032Y6843583D01*
X84409827Y6773992D01*
X84445830Y6683754D01*
X84450000Y6638374D01*
X84450000Y5671578D01*
X84431046Y5576290D01*
X84409830Y5535964D01*
X84309661Y5381716D01*
X84290870Y5352781D01*
X84114786Y5007196D01*
X83975786Y4645087D01*
X83875397Y4270429D01*
X83815957Y3895136D01*
X83814722Y3887338D01*
X83794422Y3500000D01*
X83814722Y3112662D01*
X83814722Y3112657D01*
X83814723Y3112655D01*
X83874784Y2733440D01*
X83875398Y2729567D01*
X83975786Y2354913D01*
X83979673Y2344787D01*
X84114785Y1992807D01*
X84114786Y1992806D01*
X84122858Y1976963D01*
X84149232Y1883459D01*
X84150000Y1863916D01*
X84150000Y324500D01*
X84131046Y229212D01*
X84077070Y148430D01*
X83996288Y94454D01*
X83901000Y75500D01*
X81749000Y75500D01*
X81653712Y94454D01*
X81572930Y148430D01*
X81518954Y229212D01*
X81500000Y324500D01*
X81500000Y2634148D01*
X81500500Y2644321D01*
X81500500Y2848541D01*
X81500499Y2848546D01*
X81462052Y3041831D01*
X81462051Y3041833D01*
X81462051Y3041835D01*
X81386632Y3223914D01*
X81357356Y3267728D01*
X81314454Y3331936D01*
X81277274Y3421696D01*
X81277274Y3518851D01*
X81305848Y3594772D01*
X81327179Y3631716D01*
X81385674Y3811744D01*
X81405460Y4000000D01*
X81385674Y4188256D01*
X81327179Y4368284D01*
X81232533Y4532216D01*
X81232531Y4532219D01*
X81232530Y4532220D01*
X81105873Y4672886D01*
X81105872Y4672887D01*
X81105871Y4672888D01*
X80999047Y4750500D01*
X80952728Y4784153D01*
X80779810Y4861142D01*
X80779796Y4861146D01*
X80594646Y4900500D01*
X80405354Y4900500D01*
X80220203Y4861146D01*
X80220189Y4861142D01*
X80047271Y4784153D01*
X79894126Y4672886D01*
X79767469Y4532220D01*
X79672822Y4368286D01*
X79614325Y4188256D01*
X79594540Y4000000D01*
X79594540Y3999500D01*
X79594428Y3998940D01*
X79593176Y3987022D01*
X79592080Y3987138D01*
X79575586Y3904212D01*
X79521610Y3823430D01*
X79440828Y3769454D01*
X79345540Y3750500D01*
X78017560Y3750500D01*
X77922272Y3769454D01*
X77841490Y3823430D01*
X71277141Y10387779D01*
X71277139Y10387782D01*
X71137782Y10527139D01*
X71135983Y10528341D01*
X70973915Y10636631D01*
X70973914Y10636632D01*
X70900480Y10667049D01*
X70819722Y10700500D01*
X70809418Y10704768D01*
X70791837Y10712051D01*
X70763015Y10717784D01*
X70695188Y10731276D01*
X70598541Y10750500D01*
X70598538Y10750500D01*
X61417561Y10750500D01*
X61322273Y10769454D01*
X61241491Y10823430D01*
X48572930Y23491991D01*
X48518954Y23572773D01*
X48500000Y23668061D01*
X48500000Y23750000D01*
X56719540Y23750000D01*
X56739325Y23561745D01*
X56759388Y23500000D01*
X56797821Y23381716D01*
X56892467Y23217784D01*
X56892469Y23217781D01*
X57019126Y23077115D01*
X57019129Y23077112D01*
X57172270Y22965849D01*
X57345197Y22888856D01*
X57345205Y22888855D01*
X57345206Y22888854D01*
X57405856Y22875963D01*
X57495122Y22837613D01*
X57530159Y22808474D01*
X62176570Y18162063D01*
X62230546Y18081281D01*
X62249500Y17985993D01*
X62249500Y14926080D01*
X62278341Y14781089D01*
X62278342Y14781086D01*
X62334912Y14644513D01*
X62334916Y14644505D01*
X62363317Y14602000D01*
X62363318Y14601998D01*
X62379946Y14577112D01*
X62417048Y14521584D01*
X64021584Y12917049D01*
X64144505Y12834916D01*
X64281087Y12778342D01*
X64426080Y12749501D01*
X64426081Y12749500D01*
X64426082Y12749500D01*
X70073919Y12749500D01*
X70073919Y12749501D01*
X70218913Y12778342D01*
X70355495Y12834916D01*
X70432894Y12886632D01*
X70478416Y12917048D01*
X72332952Y14771584D01*
X72395146Y14864666D01*
X72415084Y14894505D01*
X72445437Y14967784D01*
X72458782Y15000000D01*
X80094540Y15000000D01*
X80114325Y14811745D01*
X80132310Y14756394D01*
X80172821Y14631716D01*
X80262687Y14476064D01*
X80267469Y14467781D01*
X80394126Y14327115D01*
X80394129Y14327112D01*
X80473489Y14269454D01*
X80547271Y14215848D01*
X80720189Y14138859D01*
X80720192Y14138858D01*
X80720197Y14138856D01*
X80905354Y14099500D01*
X81094645Y14099500D01*
X81094646Y14099500D01*
X81279803Y14138856D01*
X81424168Y14203132D01*
X81452728Y14215848D01*
X81452728Y14215849D01*
X81452730Y14215849D01*
X81605871Y14327112D01*
X81732533Y14467784D01*
X81827179Y14631716D01*
X81885674Y14811744D01*
X81905460Y15000000D01*
X81885674Y15188256D01*
X81827179Y15368284D01*
X81732533Y15532216D01*
X81732531Y15532219D01*
X81732530Y15532220D01*
X81605873Y15672886D01*
X81605872Y15672887D01*
X81605871Y15672888D01*
X81475566Y15767560D01*
X81452728Y15784153D01*
X81279810Y15861142D01*
X81279796Y15861146D01*
X81094646Y15900500D01*
X80905354Y15900500D01*
X80720203Y15861146D01*
X80720189Y15861142D01*
X80547271Y15784153D01*
X80394126Y15672886D01*
X80267469Y15532220D01*
X80172822Y15368286D01*
X80114325Y15188256D01*
X80094540Y15000000D01*
X72458782Y15000000D01*
X72471659Y15031088D01*
X72491674Y15131710D01*
X72499703Y15172072D01*
X72500499Y15176077D01*
X72500500Y15176085D01*
X72500500Y17735992D01*
X72519454Y17831280D01*
X72573430Y17912062D01*
X73508422Y18847054D01*
X74499599Y19838232D01*
X74580378Y19892205D01*
X74623894Y19905717D01*
X74717824Y19925682D01*
X74779795Y19938854D01*
X74779797Y19938855D01*
X74779803Y19938856D01*
X74882489Y19984575D01*
X74952728Y20015848D01*
X74952728Y20015849D01*
X74952730Y20015849D01*
X75105871Y20127112D01*
X75232533Y20267784D01*
X75327179Y20431716D01*
X75385674Y20611744D01*
X75405460Y20800000D01*
X75385674Y20988256D01*
X75327179Y21168284D01*
X75232533Y21332216D01*
X75232531Y21332219D01*
X75232530Y21332220D01*
X75105873Y21472886D01*
X75105872Y21472887D01*
X75105871Y21472888D01*
X75029300Y21528520D01*
X74952728Y21584153D01*
X74779810Y21661142D01*
X74779796Y21661146D01*
X74594646Y21700500D01*
X74405354Y21700500D01*
X74220203Y21661146D01*
X74220189Y21661142D01*
X74047271Y21584153D01*
X73894126Y21472886D01*
X73767469Y21332220D01*
X73767464Y21332213D01*
X73672822Y21168289D01*
X73667517Y21156371D01*
X73665229Y21157390D01*
X73627397Y21089851D01*
X73614142Y21075512D01*
X71167049Y18628418D01*
X71117812Y18554728D01*
X71084917Y18505498D01*
X71084915Y18505493D01*
X71028341Y18368912D01*
X70999500Y18223921D01*
X70999500Y15664008D01*
X70980546Y15568720D01*
X70926570Y15487938D01*
X69762062Y14323430D01*
X69681280Y14269454D01*
X69585992Y14250500D01*
X64914007Y14250500D01*
X64818719Y14269454D01*
X64737937Y14323430D01*
X64737937Y14323431D01*
X63823430Y15237939D01*
X63769454Y15318720D01*
X63750500Y15414008D01*
X63750500Y18473919D01*
X63732780Y18562999D01*
X63732779Y18563003D01*
X63721659Y18618912D01*
X63720553Y18621581D01*
X63683455Y18711142D01*
X63669765Y18744193D01*
X63666455Y18753444D01*
X63582955Y18878411D01*
X63582949Y18878418D01*
X63478416Y18982952D01*
X63478416Y18982951D01*
X58546956Y23914412D01*
X58492980Y23995194D01*
X58486220Y24013515D01*
X58452179Y24118284D01*
X58357533Y24282216D01*
X58357531Y24282219D01*
X58357530Y24282220D01*
X58230873Y24422886D01*
X58230872Y24422887D01*
X58230871Y24422888D01*
X58154300Y24478520D01*
X58077728Y24534153D01*
X57904810Y24611142D01*
X57904796Y24611146D01*
X57719646Y24650500D01*
X57530354Y24650500D01*
X57345203Y24611146D01*
X57345189Y24611142D01*
X57172271Y24534153D01*
X57019126Y24422886D01*
X56892469Y24282220D01*
X56797822Y24118286D01*
X56739325Y23938256D01*
X56719540Y23750000D01*
X48500000Y23750000D01*
X48500000Y25200500D01*
X48518954Y25295788D01*
X48572930Y25376570D01*
X48653712Y25430546D01*
X48749000Y25449500D01*
X59727414Y25449500D01*
X59822702Y25430546D01*
X59903484Y25376570D01*
X63035330Y22244724D01*
X63141873Y22173535D01*
X63260256Y22124499D01*
X63385929Y22099501D01*
X63385930Y22099500D01*
X63385931Y22099500D01*
X64651000Y22099500D01*
X64746288Y22080546D01*
X64827070Y22026570D01*
X64881046Y21945788D01*
X64900000Y21850500D01*
X64900000Y17915000D01*
X64898636Y17888974D01*
X64894540Y17850002D01*
X64894540Y17850001D01*
X64914325Y17661745D01*
X64916773Y17654212D01*
X64972821Y17481716D01*
X65067467Y17317784D01*
X65067469Y17317781D01*
X65151461Y17224499D01*
X65194129Y17177112D01*
X65285125Y17111000D01*
X65347271Y17065848D01*
X65520189Y16988859D01*
X65520192Y16988858D01*
X65520197Y16988856D01*
X65705354Y16949500D01*
X65894645Y16949500D01*
X65894646Y16949500D01*
X66079803Y16988856D01*
X66252730Y17065849D01*
X66253641Y17066512D01*
X66254815Y17067053D01*
X66264027Y17072371D01*
X66264515Y17071525D01*
X66341872Y17107186D01*
X66438952Y17111000D01*
X66530102Y17077373D01*
X66546356Y17066513D01*
X66547270Y17065849D01*
X66720197Y16988856D01*
X66905354Y16949500D01*
X67094645Y16949500D01*
X67094646Y16949500D01*
X67279803Y16988856D01*
X67303710Y16999500D01*
X67464651Y17071156D01*
X67465344Y17069600D01*
X67542482Y17095789D01*
X67639429Y17089442D01*
X67685072Y17070536D01*
X67685349Y17071156D01*
X67870189Y16988859D01*
X67870192Y16988858D01*
X67870197Y16988856D01*
X68055354Y16949500D01*
X68244645Y16949500D01*
X68244646Y16949500D01*
X68429803Y16988856D01*
X68602730Y17065849D01*
X68755871Y17177112D01*
X68882533Y17317784D01*
X68977179Y17481716D01*
X69035674Y17661744D01*
X69048694Y17785630D01*
X69077504Y17878413D01*
X69120257Y17935669D01*
X70398729Y19214140D01*
X70398733Y19214142D01*
X70485858Y19301267D01*
X70527870Y19364142D01*
X70554312Y19403714D01*
X70601463Y19517549D01*
X70602061Y19520557D01*
X70603233Y19523387D01*
X70605011Y19529248D01*
X70605588Y19529073D01*
X70639232Y19610311D01*
X70661220Y19638585D01*
X70732533Y19717784D01*
X70827179Y19881716D01*
X70885674Y20061744D01*
X70905460Y20250000D01*
X70901364Y20288974D01*
X70900000Y20315000D01*
X70900000Y21850500D01*
X70918954Y21945788D01*
X70972930Y22026570D01*
X71053712Y22080546D01*
X71149000Y22099500D01*
X73064071Y22099500D01*
X73076241Y22100699D01*
X73076419Y22098886D01*
X73142171Y22098888D01*
X73142379Y22100864D01*
X73155353Y22099500D01*
X73155354Y22099500D01*
X73344645Y22099500D01*
X73344646Y22099500D01*
X73529803Y22138856D01*
X73607693Y22173535D01*
X73702730Y22215849D01*
X73702731Y22215850D01*
X73713831Y22223914D01*
X73749405Y22249761D01*
X73855642Y22326945D01*
X73943872Y22367620D01*
X74002000Y22374500D01*
X77112037Y22374500D01*
X77112038Y22374500D01*
X77178812Y22387782D01*
X77232883Y22398537D01*
X77282927Y22419266D01*
X77346717Y22445688D01*
X77397940Y22479916D01*
X77449164Y22514142D01*
X77536289Y22601267D01*
X77536291Y22601271D01*
X77909155Y22974136D01*
X77989934Y23028109D01*
X78085222Y23047063D01*
X78180510Y23028109D01*
X78261292Y22974133D01*
X78270256Y22964687D01*
X78394129Y22827112D01*
X78499577Y22750500D01*
X78547271Y22715848D01*
X78720189Y22638859D01*
X78720192Y22638858D01*
X78720197Y22638856D01*
X78905354Y22599500D01*
X79094645Y22599500D01*
X79094646Y22599500D01*
X79279803Y22638856D01*
X79288289Y22642634D01*
X79452728Y22715848D01*
X79452728Y22715849D01*
X79452730Y22715849D01*
X79605871Y22827112D01*
X79732533Y22967784D01*
X79827179Y23131716D01*
X79885674Y23311744D01*
X79905460Y23500000D01*
X79885674Y23688256D01*
X79827179Y23868284D01*
X79732533Y24032216D01*
X79732531Y24032219D01*
X79732530Y24032220D01*
X79605873Y24172886D01*
X79605872Y24172887D01*
X79605871Y24172888D01*
X79553315Y24211072D01*
X79487367Y24282414D01*
X79453741Y24373564D01*
X79457555Y24470644D01*
X79498230Y24558875D01*
X79523599Y24588580D01*
X83598729Y28663709D01*
X83598733Y28663711D01*
X83685858Y28750836D01*
X83754311Y28853283D01*
X83754312Y28853284D01*
X83789508Y28938256D01*
X83801463Y28967117D01*
X83823467Y29077743D01*
X83825500Y29087962D01*
X83825500Y29211176D01*
X83825500Y32740337D01*
X83844454Y32835625D01*
X83898430Y32916407D01*
X83979212Y32970383D01*
X84074500Y32989337D01*
X84123078Y32984552D01*
G37*
%TD.AperFunction*%
%TA.AperFunction,Conductor*%
G36*
X3156630Y50126707D02*
G01*
X3314207Y49969130D01*
X3425094Y49884043D01*
X2464129Y48923077D01*
X2532855Y48861660D01*
X2812248Y48663421D01*
X3112076Y48497712D01*
X3112075Y48497712D01*
X3428549Y48366625D01*
X3428569Y48366618D01*
X3757738Y48271785D01*
X3757753Y48271782D01*
X4095474Y48214402D01*
X4095480Y48214401D01*
X4437495Y48195194D01*
X4437504Y48195194D01*
X4673808Y48208465D01*
X4770009Y48194884D01*
X4853690Y48145522D01*
X4912111Y48067894D01*
X4936378Y47973819D01*
X4922797Y47877618D01*
X4873435Y47793937D01*
X4863840Y47783788D01*
X3994722Y46914669D01*
X3994719Y46914666D01*
X3956969Y46858168D01*
X3956970Y46858167D01*
X3923533Y46808124D01*
X3874498Y46689743D01*
X3849500Y46564072D01*
X3849500Y27435930D01*
X3871019Y27327752D01*
X3871019Y27327747D01*
X3871020Y27327747D01*
X3874498Y27310259D01*
X3874500Y27310253D01*
X3923535Y27191872D01*
X3994723Y27085331D01*
X6177070Y24902984D01*
X6231046Y24822202D01*
X6250000Y24726914D01*
X6250000Y21865851D01*
X6249500Y21855670D01*
X6249500Y15655484D01*
X6230546Y15560196D01*
X6176570Y15479414D01*
X6095788Y15425438D01*
X6000500Y15406484D01*
X5905212Y15425438D01*
X5880054Y15437553D01*
X5762923Y15502289D01*
X5762924Y15502289D01*
X5446450Y15633376D01*
X5446430Y15633383D01*
X5117261Y15728216D01*
X5117246Y15728219D01*
X4779525Y15785599D01*
X4779519Y15785600D01*
X4437505Y15804806D01*
X4437495Y15804806D01*
X4095480Y15785600D01*
X4095474Y15785599D01*
X3757753Y15728219D01*
X3757738Y15728216D01*
X3428569Y15633383D01*
X3428549Y15633376D01*
X3112075Y15502289D01*
X2812248Y15336580D01*
X2532855Y15138340D01*
X2464129Y15076925D01*
X3425095Y14115959D01*
X3314207Y14030870D01*
X3156630Y13873293D01*
X3071541Y13762405D01*
X2110574Y14723372D01*
X2006485Y14720450D01*
X1910703Y14736723D01*
X1828439Y14788412D01*
X1772218Y14867648D01*
X1750598Y14962367D01*
X1750500Y14969352D01*
X1750500Y49030649D01*
X1769454Y49125937D01*
X1823430Y49206719D01*
X1904212Y49260695D01*
X1999500Y49279649D01*
X2006485Y49279551D01*
X2110575Y49276630D01*
X3071541Y50237596D01*
X3156630Y50126707D01*
G37*
%TD.AperFunction*%
%TA.AperFunction,Conductor*%
G36*
X90747782Y33836455D02*
G01*
X90833464Y33790656D01*
X90895099Y33715554D01*
X90923301Y33622583D01*
X90924500Y33598177D01*
X90924500Y25681824D01*
X90905546Y25586536D01*
X90851570Y25505754D01*
X90770788Y25451778D01*
X90675500Y25432824D01*
X90580212Y25451778D01*
X90499430Y25505754D01*
X90445454Y25586536D01*
X90437224Y25609538D01*
X90436572Y25611686D01*
X90361191Y25793673D01*
X90361188Y25793680D01*
X90251753Y25957460D01*
X90112459Y26096754D01*
X89948679Y26206189D01*
X89948672Y26206192D01*
X89766691Y26281571D01*
X89573489Y26320000D01*
X89325001Y26320000D01*
X89325000Y26319999D01*
X89325000Y25620000D01*
X88825000Y25620000D01*
X88825000Y26319999D01*
X88824999Y26320000D01*
X88576511Y26320000D01*
X88383308Y26281571D01*
X88219787Y26213838D01*
X88124499Y26194884D01*
X88029211Y26213838D01*
X87948430Y26267815D01*
X87894454Y26348597D01*
X87875500Y26443884D01*
X87875500Y32836117D01*
X87894454Y32931405D01*
X87948430Y33012187D01*
X88029212Y33066163D01*
X88124500Y33085117D01*
X88219788Y33066163D01*
X88383310Y32998430D01*
X88576511Y32960000D01*
X88824999Y32960000D01*
X88825000Y32960001D01*
X88825000Y33660000D01*
X89325000Y33660000D01*
X89325000Y32960001D01*
X89325001Y32960000D01*
X89573489Y32960000D01*
X89766691Y32998430D01*
X89948672Y33073809D01*
X89948679Y33073812D01*
X90112459Y33183247D01*
X90251753Y33322541D01*
X90361188Y33486321D01*
X90361191Y33486328D01*
X90436568Y33668306D01*
X90437222Y33670459D01*
X90438282Y33672444D01*
X90441252Y33679612D01*
X90441958Y33679320D01*
X90483021Y33756141D01*
X90558123Y33817776D01*
X90651094Y33845978D01*
X90747782Y33836455D01*
G37*
%TD.AperFunction*%
%TA.AperFunction,Conductor*%
G36*
X85240886Y63905546D02*
G01*
X85321668Y63851570D01*
X85375644Y63770788D01*
X85394598Y63675500D01*
X85375644Y63580212D01*
X85321668Y63499430D01*
X85302299Y63481991D01*
X85020490Y63253787D01*
X84746213Y62979510D01*
X84502124Y62678086D01*
X84290875Y62352790D01*
X84290872Y62352785D01*
X84114786Y62007196D01*
X83975783Y61645080D01*
X83940014Y61511587D01*
X83897043Y61424452D01*
X83823998Y61360393D01*
X83731999Y61329164D01*
X83635052Y61335519D01*
X83547917Y61378490D01*
X83483858Y61451535D01*
X83452629Y61543534D01*
X83450499Y61576025D01*
X83450499Y62647872D01*
X83444091Y62707483D01*
X83393796Y62842331D01*
X83307546Y62957546D01*
X83192331Y63043796D01*
X83093555Y63080637D01*
X83057481Y63094092D01*
X82997873Y63100500D01*
X81202134Y63100500D01*
X81202130Y63100500D01*
X81202128Y63100499D01*
X81189314Y63099122D01*
X81142519Y63094092D01*
X81142515Y63094091D01*
X81007670Y63043797D01*
X80892455Y62957547D01*
X80892453Y62957545D01*
X80795531Y62828073D01*
X80792234Y62830541D01*
X80751587Y62781949D01*
X80665478Y62736956D01*
X80568706Y62728340D01*
X80476003Y62757413D01*
X80435387Y62785151D01*
X80431403Y62788493D01*
X80431401Y62788495D01*
X80237830Y62924035D01*
X80023663Y63023903D01*
X80023660Y63023904D01*
X79795401Y63085065D01*
X79560005Y63105659D01*
X79559995Y63105659D01*
X79324598Y63085065D01*
X79096335Y63023903D01*
X79096333Y63023902D01*
X78882177Y62924039D01*
X78882169Y62924035D01*
X78688600Y62788496D01*
X78521502Y62621398D01*
X78493661Y62581637D01*
X78423479Y62514454D01*
X78332929Y62479242D01*
X78235797Y62481363D01*
X78146871Y62520493D01*
X78085725Y62581639D01*
X78058110Y62621077D01*
X77891076Y62788111D01*
X77697576Y62923601D01*
X77483484Y63023434D01*
X77270001Y63080637D01*
X77270000Y63080636D01*
X77270000Y62183012D01*
X77212993Y62215925D01*
X77085826Y62250000D01*
X76954174Y62250000D01*
X76827007Y62215925D01*
X76770000Y62183012D01*
X76770000Y63080636D01*
X76769998Y63080637D01*
X76556516Y63023434D01*
X76556505Y63023430D01*
X76342428Y62923604D01*
X76342420Y62923600D01*
X76148923Y62788111D01*
X75981889Y62621077D01*
X75954272Y62581636D01*
X75884089Y62514453D01*
X75793539Y62479242D01*
X75696408Y62481363D01*
X75607481Y62520493D01*
X75546337Y62581638D01*
X75518495Y62621401D01*
X75351401Y62788495D01*
X75157830Y62924035D01*
X74943663Y63023903D01*
X74943660Y63023904D01*
X74715401Y63085065D01*
X74480005Y63105659D01*
X74479995Y63105659D01*
X74244598Y63085065D01*
X74016335Y63023903D01*
X74016333Y63023902D01*
X73802177Y62924039D01*
X73802169Y62924035D01*
X73608600Y62788496D01*
X73441504Y62621400D01*
X73305965Y62427831D01*
X73305961Y62427823D01*
X73206098Y62213667D01*
X73206097Y62213665D01*
X73144935Y61985402D01*
X73124341Y61750006D01*
X73124341Y61749995D01*
X73144935Y61514599D01*
X73194621Y61329164D01*
X73206097Y61286337D01*
X73284461Y61118286D01*
X73305965Y61072170D01*
X73413662Y60918362D01*
X73441505Y60878599D01*
X73608599Y60711505D01*
X73802170Y60575965D01*
X74016337Y60476097D01*
X74244592Y60414937D01*
X74244595Y60414937D01*
X74244598Y60414936D01*
X74479995Y60394341D01*
X74480000Y60394341D01*
X74480005Y60394341D01*
X74715401Y60414936D01*
X74715403Y60414937D01*
X74715408Y60414937D01*
X74943663Y60476097D01*
X75157830Y60575965D01*
X75351401Y60711505D01*
X75518495Y60878599D01*
X75546337Y60918363D01*
X75616515Y60985544D01*
X75707064Y61020758D01*
X75804196Y61018639D01*
X75893124Y60979511D01*
X75954273Y60918363D01*
X75981888Y60878925D01*
X76148923Y60711890D01*
X76342423Y60576400D01*
X76556511Y60476569D01*
X76770000Y60419365D01*
X76770000Y61316988D01*
X76827007Y61284075D01*
X76954174Y61250000D01*
X77085826Y61250000D01*
X77212993Y61284075D01*
X77270000Y61316988D01*
X77270000Y60419365D01*
X77483488Y60476569D01*
X77697576Y60576400D01*
X77891076Y60711890D01*
X78058111Y60878925D01*
X78085724Y60918360D01*
X78155905Y60985544D01*
X78246454Y61020758D01*
X78343586Y61018639D01*
X78432513Y60979511D01*
X78493662Y60918362D01*
X78521501Y60878604D01*
X78521505Y60878599D01*
X78688599Y60711505D01*
X78688602Y60711503D01*
X78768320Y60655684D01*
X78835504Y60585503D01*
X78870717Y60494954D01*
X78874500Y60451715D01*
X78874500Y56849500D01*
X78855546Y56754212D01*
X78801570Y56673430D01*
X78720788Y56619454D01*
X78625500Y56600500D01*
X61374500Y56600500D01*
X61279212Y56619454D01*
X61198430Y56673430D01*
X61144454Y56754212D01*
X61125500Y56849500D01*
X61125500Y58658899D01*
X61144454Y58754187D01*
X61198430Y58834969D01*
X61279212Y58888945D01*
X61374500Y58907899D01*
X61457314Y58891427D01*
X61457790Y58892888D01*
X61470189Y58888860D01*
X61470197Y58888856D01*
X61655354Y58849500D01*
X61844645Y58849500D01*
X61844646Y58849500D01*
X62029803Y58888856D01*
X62035578Y58891427D01*
X62202728Y58965848D01*
X62202728Y58965849D01*
X62202730Y58965849D01*
X62355871Y59077112D01*
X62482533Y59217784D01*
X62577179Y59381716D01*
X62635674Y59561744D01*
X62655460Y59750000D01*
X62635674Y59938256D01*
X62577179Y60118284D01*
X62482533Y60282216D01*
X62482531Y60282219D01*
X62482530Y60282220D01*
X62355873Y60422886D01*
X62355872Y60422887D01*
X62355871Y60422888D01*
X62354262Y60424057D01*
X62352721Y60425724D01*
X62346174Y60431619D01*
X62346715Y60432221D01*
X62288315Y60495399D01*
X62254688Y60586549D01*
X62258503Y60683629D01*
X62299178Y60771859D01*
X62370522Y60837808D01*
X62461672Y60871435D01*
X62500623Y60874500D01*
X65887770Y60874500D01*
X65983058Y60855546D01*
X66063840Y60801570D01*
X66514139Y60351271D01*
X66514142Y60351267D01*
X66601267Y60264142D01*
X66703714Y60195689D01*
X66817548Y60148537D01*
X66877971Y60136519D01*
X66907767Y60130592D01*
X66938392Y60124500D01*
X66938393Y60124500D01*
X66938394Y60124500D01*
X70748000Y60124500D01*
X70843288Y60105546D01*
X70894358Y60076945D01*
X71047268Y59965850D01*
X71047269Y59965849D01*
X71220189Y59888859D01*
X71220192Y59888858D01*
X71220197Y59888856D01*
X71405354Y59849500D01*
X71594645Y59849500D01*
X71594646Y59849500D01*
X71779803Y59888856D01*
X71952730Y59965849D01*
X72105871Y60077112D01*
X72232533Y60217784D01*
X72327179Y60381716D01*
X72385674Y60561744D01*
X72405460Y60750000D01*
X72385674Y60938256D01*
X72327179Y61118284D01*
X72232533Y61282216D01*
X72232531Y61282219D01*
X72232530Y61282220D01*
X72105873Y61422886D01*
X72105872Y61422887D01*
X72105871Y61422888D01*
X71979651Y61514592D01*
X71952728Y61534153D01*
X71779810Y61611142D01*
X71779796Y61611146D01*
X71594646Y61650500D01*
X71405354Y61650500D01*
X71220203Y61611146D01*
X71220189Y61611142D01*
X71047269Y61534152D01*
X71047268Y61534151D01*
X70894358Y61423055D01*
X70806128Y61382380D01*
X70748000Y61375500D01*
X67362230Y61375500D01*
X67266942Y61394454D01*
X67186160Y61448430D01*
X66735860Y61898730D01*
X66735858Y61898733D01*
X66648733Y61985858D01*
X66597509Y62020085D01*
X66546286Y62054312D01*
X66539780Y62057007D01*
X66463184Y62088734D01*
X66432456Y62101462D01*
X66432449Y62101464D01*
X66372026Y62113483D01*
X66372026Y62113484D01*
X66311612Y62125500D01*
X66311607Y62125500D01*
X66311606Y62125500D01*
X62061606Y62125500D01*
X61938393Y62125500D01*
X61938387Y62125500D01*
X61877968Y62113482D01*
X61817551Y62101465D01*
X61772077Y62082628D01*
X61772076Y62082628D01*
X61703715Y62054312D01*
X61703709Y62054310D01*
X61601270Y61985861D01*
X60014139Y60398730D01*
X60002774Y60381719D01*
X60002768Y60381710D01*
X59945689Y60296289D01*
X59898535Y60182447D01*
X59880191Y60090216D01*
X59880190Y60090208D01*
X59874500Y60061606D01*
X59874500Y51897629D01*
X59855546Y51802341D01*
X59801570Y51721559D01*
X59720788Y51667583D01*
X59625500Y51648629D01*
X59599478Y51649992D01*
X59594647Y51650500D01*
X59594646Y51650500D01*
X59405354Y51650500D01*
X59220203Y51611146D01*
X59220189Y51611142D01*
X59047271Y51534153D01*
X58894126Y51422886D01*
X58767469Y51282220D01*
X58672822Y51118286D01*
X58672821Y51118284D01*
X58657651Y51071597D01*
X58614325Y50938256D01*
X58594540Y50750000D01*
X58614325Y50561745D01*
X58635526Y50496496D01*
X58672821Y50381716D01*
X58672822Y50381714D01*
X58672823Y50381712D01*
X58672824Y50381710D01*
X58717989Y50303482D01*
X58767467Y50217784D01*
X58810542Y50169944D01*
X58860217Y50086452D01*
X58874500Y50003331D01*
X58874500Y48788394D01*
X58892469Y48698054D01*
X58898537Y48667548D01*
X58898538Y48667543D01*
X58905599Y48650499D01*
X58905601Y48650493D01*
X58945685Y48553718D01*
X58945688Y48553714D01*
X58978054Y48505276D01*
X59005757Y48463815D01*
X59014142Y48451267D01*
X59101267Y48364142D01*
X59101270Y48364140D01*
X63022055Y44443355D01*
X63076031Y44362573D01*
X63094985Y44267285D01*
X63094540Y44258788D01*
X63094540Y44250001D01*
X63114325Y44061745D01*
X63143573Y43971730D01*
X63172821Y43881716D01*
X63267467Y43717784D01*
X63267469Y43717781D01*
X63376495Y43596696D01*
X63394129Y43577112D01*
X63505578Y43496140D01*
X63547271Y43465848D01*
X63720189Y43388859D01*
X63720192Y43388858D01*
X63720197Y43388856D01*
X63905354Y43349500D01*
X64094645Y43349500D01*
X64094646Y43349500D01*
X64279803Y43388856D01*
X64452730Y43465849D01*
X64605871Y43577112D01*
X64732533Y43717784D01*
X64751132Y43750000D01*
X64815189Y43823043D01*
X64902324Y43866014D01*
X64949236Y43872191D01*
X64949129Y43873263D01*
X64949139Y43873264D01*
X64962426Y43873927D01*
X64966772Y43874499D01*
X64973895Y43874499D01*
X64973915Y43874500D01*
X67998000Y43874500D01*
X68093288Y43855546D01*
X68144358Y43826945D01*
X68297268Y43715850D01*
X68297269Y43715849D01*
X68470189Y43638859D01*
X68470192Y43638858D01*
X68470197Y43638856D01*
X68655354Y43599500D01*
X68844645Y43599500D01*
X68844646Y43599500D01*
X69029803Y43638856D01*
X69202730Y43715849D01*
X69355871Y43827112D01*
X69482533Y43967784D01*
X69577179Y44131716D01*
X69635674Y44311744D01*
X69655460Y44500000D01*
X69635674Y44688256D01*
X69577179Y44868284D01*
X69482533Y45032216D01*
X69482531Y45032219D01*
X69482530Y45032220D01*
X69355873Y45172886D01*
X69355872Y45172887D01*
X69355871Y45172888D01*
X69233304Y45261938D01*
X69202728Y45284153D01*
X69029810Y45361142D01*
X69029796Y45361146D01*
X68844646Y45400500D01*
X68655354Y45400500D01*
X68470203Y45361146D01*
X68470189Y45361142D01*
X68297269Y45284152D01*
X68297268Y45284151D01*
X68144358Y45173055D01*
X68056128Y45132380D01*
X67998000Y45125500D01*
X67199500Y45125500D01*
X67104212Y45144454D01*
X67023430Y45198430D01*
X66969454Y45279212D01*
X66950500Y45374500D01*
X66950500Y47989882D01*
X66926482Y48047866D01*
X66919976Y48063574D01*
X66863574Y48119976D01*
X66835233Y48131715D01*
X66789882Y48150500D01*
X64999500Y48150500D01*
X64904212Y48169454D01*
X64823430Y48223430D01*
X64769454Y48304212D01*
X64750500Y48399500D01*
X64750500Y49289882D01*
X64719976Y49363573D01*
X64719976Y49363574D01*
X64663574Y49419976D01*
X64589882Y49450500D01*
X61499500Y49450500D01*
X61404212Y49469454D01*
X61323430Y49523430D01*
X61269454Y49604212D01*
X61250500Y49699500D01*
X61250500Y55950500D01*
X61269454Y56045788D01*
X61323430Y56126570D01*
X61404212Y56180546D01*
X61499500Y56199500D01*
X78200500Y56199500D01*
X78295788Y56180546D01*
X78376570Y56126570D01*
X78430546Y56045788D01*
X78449500Y55950500D01*
X78449500Y44936190D01*
X78430546Y44840902D01*
X78376570Y44760120D01*
X76389880Y42773430D01*
X76309098Y42719454D01*
X76213810Y42700500D01*
X73360118Y42700500D01*
X73286427Y42669977D01*
X73230023Y42613573D01*
X73217563Y42583491D01*
X73199500Y42539882D01*
X73199500Y42460118D01*
X73211429Y42431319D01*
X73224401Y42400000D01*
X73230024Y42386426D01*
X73286426Y42330024D01*
X73360118Y42299500D01*
X76439882Y42299500D01*
X76513574Y42330024D01*
X76513578Y42330029D01*
X76533966Y42343650D01*
X76534418Y42342973D01*
X76591401Y42381046D01*
X76686689Y42400000D01*
X78625500Y42400000D01*
X78720788Y42381046D01*
X78801570Y42327070D01*
X78855546Y42246288D01*
X78874500Y42151000D01*
X78874500Y35562231D01*
X78855546Y35466943D01*
X78801570Y35386161D01*
X75213840Y31798430D01*
X75133058Y31744454D01*
X75037770Y31725500D01*
X74235264Y31725500D01*
X74174845Y31713482D01*
X74114428Y31701465D01*
X74114427Y31701464D01*
X74000595Y31654314D01*
X74000590Y31654311D01*
X73898146Y31585860D01*
X71989142Y29676856D01*
X71961121Y29634920D01*
X71961119Y29634918D01*
X71920689Y29574413D01*
X71920687Y29574409D01*
X71899616Y29523537D01*
X71873538Y29460579D01*
X71873536Y29460575D01*
X71870608Y29445851D01*
X71851645Y29350511D01*
X71851643Y29350502D01*
X71849500Y29339730D01*
X71849500Y25749000D01*
X71830546Y25653712D01*
X71776570Y25572930D01*
X71695788Y25518954D01*
X71600500Y25500000D01*
X68312453Y25500000D01*
X68302917Y25500500D01*
X68294646Y25500500D01*
X68105354Y25500500D01*
X68097083Y25500500D01*
X68087547Y25500000D01*
X63904460Y25500000D01*
X63809172Y25518954D01*
X63728390Y25572930D01*
X63674414Y25653712D01*
X63657821Y25737127D01*
X63656824Y25737022D01*
X63655682Y25747880D01*
X63655460Y25749000D01*
X63655460Y25750000D01*
X63635674Y25938256D01*
X63621960Y25980463D01*
X63577179Y26118284D01*
X63482533Y26282216D01*
X63436458Y26333388D01*
X63386784Y26416880D01*
X63372842Y26513029D01*
X63396756Y26607195D01*
X63436457Y26666612D01*
X63482533Y26717784D01*
X63577179Y26881716D01*
X63635674Y27061744D01*
X63655460Y27250000D01*
X63635674Y27438256D01*
X63577179Y27618284D01*
X63482533Y27782216D01*
X63482531Y27782219D01*
X63482530Y27782220D01*
X63355873Y27922886D01*
X63355872Y27922887D01*
X63355871Y27922888D01*
X63279300Y27978520D01*
X63202728Y28034153D01*
X63029810Y28111142D01*
X63029796Y28111146D01*
X62844646Y28150500D01*
X62655354Y28150500D01*
X62642376Y28149136D01*
X62642125Y28151517D01*
X62576378Y28150664D01*
X62576244Y28149301D01*
X62564070Y28150500D01*
X62564069Y28150500D01*
X48849500Y28150500D01*
X48754212Y28169454D01*
X48673430Y28223430D01*
X48619454Y28304212D01*
X48600500Y28399500D01*
X48600499Y30107866D01*
X48600499Y30107872D01*
X48594091Y30167483D01*
X48543796Y30302331D01*
X48457546Y30417546D01*
X48342331Y30503796D01*
X48342329Y30503797D01*
X48328073Y30514469D01*
X48330543Y30517769D01*
X48281995Y30558354D01*
X48236976Y30644450D01*
X48228331Y30741219D01*
X48257376Y30833931D01*
X48285158Y30874622D01*
X48288494Y30878598D01*
X48317096Y30919446D01*
X48424035Y31072170D01*
X48523903Y31286337D01*
X48585063Y31514592D01*
X48589517Y31565501D01*
X48605659Y31749995D01*
X48605659Y31750006D01*
X48585064Y31985402D01*
X48585063Y31985405D01*
X48585063Y31985408D01*
X48523903Y32213663D01*
X48424035Y32427829D01*
X48288495Y32621401D01*
X48121401Y32788495D01*
X48082074Y32816033D01*
X48014891Y32886211D01*
X47979678Y32976760D01*
X47981797Y33073892D01*
X48020925Y33162819D01*
X48082073Y33223968D01*
X48121401Y33251505D01*
X48288495Y33418599D01*
X48424035Y33612170D01*
X48523903Y33826337D01*
X48585063Y34054592D01*
X48586203Y34067620D01*
X48605659Y34289995D01*
X48605659Y34290006D01*
X48585064Y34525402D01*
X48585063Y34525405D01*
X48585063Y34525408D01*
X48523903Y34753663D01*
X48470953Y34867213D01*
X48424038Y34967823D01*
X48424034Y34967831D01*
X48348446Y35075782D01*
X48288495Y35161401D01*
X48121401Y35328495D01*
X48094910Y35347044D01*
X47927830Y35464035D01*
X47777466Y35534151D01*
X47713663Y35563903D01*
X47713660Y35563904D01*
X47485401Y35625065D01*
X47458154Y35627448D01*
X47364880Y35654635D01*
X47289111Y35715446D01*
X47251091Y35784746D01*
X47250190Y35780212D01*
X47196214Y35699430D01*
X47115432Y35645454D01*
X47041846Y35627448D01*
X47014598Y35625065D01*
X46786335Y35563903D01*
X46786333Y35563902D01*
X46572177Y35464039D01*
X46572169Y35464035D01*
X46378600Y35328496D01*
X46211504Y35161400D01*
X46075965Y34967831D01*
X46075961Y34967823D01*
X45976098Y34753667D01*
X45976097Y34753665D01*
X45914935Y34525402D01*
X45894341Y34290006D01*
X45894341Y34289995D01*
X45914935Y34054599D01*
X45972742Y33838856D01*
X45976097Y33826337D01*
X46058915Y33648733D01*
X46075965Y33612170D01*
X46164085Y33486321D01*
X46211505Y33418599D01*
X46378599Y33251505D01*
X46417925Y33223969D01*
X46485107Y33153791D01*
X46520321Y33063242D01*
X46518202Y32966110D01*
X46479074Y32877182D01*
X46417928Y32816035D01*
X46378603Y32788499D01*
X46211504Y32621400D01*
X46075965Y32427831D01*
X46075961Y32427823D01*
X45976098Y32213667D01*
X45976097Y32213665D01*
X45914935Y31985402D01*
X45894341Y31750006D01*
X45894341Y31749995D01*
X45914935Y31514599D01*
X45965793Y31324790D01*
X45976097Y31286337D01*
X46075965Y31072170D01*
X46211505Y30878599D01*
X46211506Y30878598D01*
X46211507Y30878597D01*
X46214849Y30874613D01*
X46216849Y30870966D01*
X46217741Y30869693D01*
X46217601Y30869596D01*
X46261577Y30789434D01*
X46272151Y30692856D01*
X46244961Y30599583D01*
X46184147Y30523815D01*
X46171431Y30515132D01*
X46171927Y30514469D01*
X46157670Y30503797D01*
X46157669Y30503796D01*
X46106353Y30465381D01*
X46042455Y30417547D01*
X46042453Y30417545D01*
X45956204Y30302331D01*
X45905908Y30167482D01*
X45899916Y30111745D01*
X45899500Y30107873D01*
X45899500Y29211176D01*
X45899501Y28399500D01*
X45880547Y28304212D01*
X45826571Y28223431D01*
X45745789Y28169454D01*
X45650501Y28150500D01*
X35622586Y28150500D01*
X35527298Y28169454D01*
X35446516Y28223430D01*
X33414669Y30255277D01*
X33308127Y30326466D01*
X33212857Y30365927D01*
X33189744Y30375501D01*
X33189742Y30375502D01*
X33189741Y30375502D01*
X33064071Y30400500D01*
X33064069Y30400500D01*
X22872584Y30400500D01*
X22777296Y30419454D01*
X22696517Y30473428D01*
X22323430Y30846516D01*
X22269454Y30927297D01*
X22250500Y31022585D01*
X22250500Y32500000D01*
X38594540Y32500000D01*
X38614325Y32311745D01*
X38643573Y32221730D01*
X38672821Y32131716D01*
X38767467Y31967784D01*
X38767469Y31967781D01*
X38868688Y31855367D01*
X38894129Y31827112D01*
X38933607Y31798430D01*
X39047271Y31715848D01*
X39220189Y31638859D01*
X39220192Y31638858D01*
X39220197Y31638856D01*
X39405354Y31599500D01*
X39594645Y31599500D01*
X39594646Y31599500D01*
X39779803Y31638856D01*
X39920424Y31701465D01*
X39952728Y31715848D01*
X39952728Y31715849D01*
X39952730Y31715849D01*
X40105871Y31827112D01*
X40232533Y31967784D01*
X40327179Y32131716D01*
X40385674Y32311744D01*
X40405460Y32500000D01*
X40385674Y32688256D01*
X40327179Y32868284D01*
X40232533Y33032216D01*
X40232531Y33032219D01*
X40232530Y33032220D01*
X40105873Y33172886D01*
X40105872Y33172887D01*
X40105871Y33172888D01*
X40029300Y33228520D01*
X39952728Y33284153D01*
X39779810Y33361142D01*
X39779796Y33361146D01*
X39594646Y33400500D01*
X39405354Y33400500D01*
X39220203Y33361146D01*
X39220189Y33361142D01*
X39047271Y33284153D01*
X38894126Y33172886D01*
X38767469Y33032220D01*
X38672822Y32868286D01*
X38614325Y32688256D01*
X38594540Y32500000D01*
X22250500Y32500000D01*
X22250500Y36250000D01*
X23844540Y36250000D01*
X23864325Y36061745D01*
X23893573Y35971730D01*
X23922821Y35881716D01*
X24017467Y35717784D01*
X24017469Y35717781D01*
X24113486Y35611144D01*
X24144129Y35577112D01*
X24244952Y35503860D01*
X24297271Y35465848D01*
X24470189Y35388859D01*
X24470192Y35388858D01*
X24470197Y35388856D01*
X24655354Y35349500D01*
X24844645Y35349500D01*
X24844646Y35349500D01*
X25029803Y35388856D01*
X25081783Y35411999D01*
X25202728Y35465848D01*
X25202728Y35465849D01*
X25202730Y35465849D01*
X25355871Y35577112D01*
X25482533Y35717784D01*
X25577179Y35881716D01*
X25635674Y36061744D01*
X25655460Y36250000D01*
X25635674Y36438256D01*
X25577179Y36618284D01*
X25482533Y36782216D01*
X25482531Y36782219D01*
X25482530Y36782220D01*
X25355873Y36922886D01*
X25355872Y36922887D01*
X25355871Y36922888D01*
X25244422Y37003860D01*
X25202728Y37034153D01*
X25029810Y37111142D01*
X25029796Y37111146D01*
X24844646Y37150500D01*
X24655354Y37150500D01*
X24470203Y37111146D01*
X24470189Y37111142D01*
X24297271Y37034153D01*
X24144126Y36922886D01*
X24017469Y36782220D01*
X23958959Y36680877D01*
X23922821Y36618284D01*
X23914698Y36593285D01*
X23864325Y36438256D01*
X23844540Y36250000D01*
X22250500Y36250000D01*
X22250500Y38814070D01*
X22250499Y38814072D01*
X22247487Y38829212D01*
X22225501Y38939744D01*
X22176465Y39058127D01*
X22105276Y39164669D01*
X22070002Y39199943D01*
X22014674Y39255272D01*
X22014671Y39255274D01*
X22014669Y39255276D01*
X21834786Y39435159D01*
X21269947Y40000000D01*
X25344540Y40000000D01*
X25364325Y39811745D01*
X25386102Y39744724D01*
X25422821Y39631716D01*
X25498867Y39500000D01*
X25517469Y39467781D01*
X25634067Y39338287D01*
X25644129Y39327112D01*
X25743002Y39255277D01*
X25797271Y39215848D01*
X25970189Y39138859D01*
X25970192Y39138858D01*
X25970197Y39138856D01*
X26155354Y39099500D01*
X26344645Y39099500D01*
X26344646Y39099500D01*
X26529803Y39138856D01*
X26561479Y39152959D01*
X26702728Y39215848D01*
X26702728Y39215849D01*
X26702730Y39215849D01*
X26855871Y39327112D01*
X26982533Y39467784D01*
X27077179Y39631716D01*
X27135674Y39811744D01*
X27155460Y40000000D01*
X27135674Y40188256D01*
X27077179Y40368284D01*
X26982533Y40532216D01*
X26982531Y40532219D01*
X26982530Y40532220D01*
X26855873Y40672886D01*
X26855872Y40672887D01*
X26855871Y40672888D01*
X26769199Y40735859D01*
X26702728Y40784153D01*
X26529810Y40861142D01*
X26529796Y40861146D01*
X26344646Y40900500D01*
X26155354Y40900500D01*
X25970203Y40861146D01*
X25970189Y40861142D01*
X25797271Y40784153D01*
X25644126Y40672886D01*
X25517469Y40532220D01*
X25425112Y40372253D01*
X25422821Y40368284D01*
X25407752Y40321907D01*
X25364325Y40188256D01*
X25344540Y40000000D01*
X21269947Y40000000D01*
X21264672Y40005275D01*
X21158127Y40076466D01*
X21062857Y40115927D01*
X21039744Y40125501D01*
X21039742Y40125502D01*
X21039741Y40125502D01*
X20914071Y40150500D01*
X20914069Y40150500D01*
X20717708Y40150500D01*
X20622420Y40169454D01*
X20541638Y40223430D01*
X20487662Y40304212D01*
X20468708Y40399500D01*
X20486025Y40486561D01*
X20485197Y40486830D01*
X20487471Y40493832D01*
X20487662Y40494788D01*
X20487665Y40494794D01*
X20487906Y40495378D01*
X20488222Y40496140D01*
X20547952Y40744930D01*
X20565935Y40973430D01*
X20568026Y40999995D01*
X20568026Y41000006D01*
X20553791Y41180877D01*
X20547952Y41255070D01*
X20488222Y41503860D01*
X20390309Y41740243D01*
X20268967Y41938256D01*
X20256625Y41958397D01*
X20256621Y41958402D01*
X20090464Y42152947D01*
X20090461Y42152950D01*
X20090456Y42152956D01*
X20090449Y42152962D01*
X20090446Y42152965D01*
X19905809Y42310659D01*
X19845661Y42386956D01*
X19819289Y42480463D01*
X19830708Y42576945D01*
X19878180Y42661712D01*
X19905809Y42689341D01*
X19936846Y42715849D01*
X20090456Y42847044D01*
X20256623Y43041601D01*
X20390309Y43259757D01*
X20488222Y43496140D01*
X20547952Y43744930D01*
X20564312Y43952810D01*
X20568026Y43999995D01*
X20568026Y44000006D01*
X20547952Y44255066D01*
X20547952Y44255068D01*
X20547952Y44255070D01*
X20488222Y44503860D01*
X20390309Y44740243D01*
X20300617Y44886607D01*
X20256625Y44958397D01*
X20256621Y44958402D01*
X20090464Y45152947D01*
X20090461Y45152950D01*
X20090456Y45152956D01*
X20090449Y45152962D01*
X20090446Y45152965D01*
X19895901Y45319122D01*
X19895896Y45319126D01*
X19763104Y45400500D01*
X19677743Y45452809D01*
X19563814Y45500000D01*
X19441366Y45550720D01*
X19441361Y45550722D01*
X19199513Y45608785D01*
X19192570Y45610452D01*
X19192568Y45610453D01*
X19192565Y45610453D01*
X18937506Y45630526D01*
X18937494Y45630526D01*
X18682434Y45610453D01*
X18433638Y45550722D01*
X18433633Y45550720D01*
X18197259Y45452810D01*
X17979103Y45319126D01*
X17979098Y45319122D01*
X17784553Y45152965D01*
X17784535Y45152947D01*
X17618378Y44958402D01*
X17618374Y44958397D01*
X17484690Y44740241D01*
X17386780Y44503867D01*
X17386778Y44503862D01*
X17327047Y44255068D01*
X17326144Y44243591D01*
X17299769Y44150085D01*
X17239618Y44073790D01*
X17154849Y44026320D01*
X17058367Y44014904D01*
X16982624Y44033090D01*
X16941211Y44050244D01*
X16941203Y44050247D01*
X16692489Y44109958D01*
X16437506Y44130025D01*
X16437494Y44130025D01*
X16182510Y44109958D01*
X15933796Y44050247D01*
X15933788Y44050244D01*
X15697489Y43952366D01*
X15479391Y43818716D01*
X15475587Y43815468D01*
X16113475Y43177579D01*
X16082242Y43164641D01*
X15959403Y43082563D01*
X15854937Y42978097D01*
X15772859Y42855258D01*
X15759921Y42824025D01*
X15122032Y43461913D01*
X15119393Y43461809D01*
X15050914Y43407802D01*
X14957412Y43381411D01*
X14860928Y43392812D01*
X14776151Y43440267D01*
X14748485Y43467928D01*
X14590464Y43652947D01*
X14590461Y43652950D01*
X14590456Y43652956D01*
X14590449Y43652962D01*
X14590446Y43652965D01*
X14395901Y43819122D01*
X14395896Y43819126D01*
X14263104Y43900500D01*
X14177743Y43952809D01*
X14063814Y44000000D01*
X13941366Y44050720D01*
X13941361Y44050722D01*
X13778545Y44089811D01*
X13692570Y44110452D01*
X13692568Y44110453D01*
X13692565Y44110453D01*
X13437506Y44130526D01*
X13437494Y44130526D01*
X13182434Y44110453D01*
X12933638Y44050722D01*
X12933633Y44050720D01*
X12892334Y44033613D01*
X12797045Y44014659D01*
X12701757Y44033613D01*
X12620976Y44087590D01*
X12567000Y44168371D01*
X12548813Y44244124D01*
X12547952Y44255070D01*
X12488222Y44503860D01*
X12390309Y44740243D01*
X12300617Y44886607D01*
X12256625Y44958397D01*
X12256621Y44958402D01*
X12090464Y45152947D01*
X12090461Y45152950D01*
X12090456Y45152956D01*
X12090449Y45152962D01*
X12090446Y45152965D01*
X11895901Y45319122D01*
X11895896Y45319126D01*
X11763104Y45400500D01*
X11677743Y45452809D01*
X11563814Y45500000D01*
X11441366Y45550720D01*
X11441361Y45550722D01*
X11199513Y45608785D01*
X11192570Y45610452D01*
X11192568Y45610453D01*
X11192565Y45610453D01*
X10937506Y45630526D01*
X10937494Y45630526D01*
X10682432Y45610453D01*
X10551305Y45578972D01*
X10454224Y45575158D01*
X10363075Y45608785D01*
X10291732Y45674734D01*
X10251057Y45762964D01*
X10247243Y45860045D01*
X10280870Y45951194D01*
X10317103Y45997158D01*
X13296516Y48976570D01*
X13377298Y49030546D01*
X13472586Y49049500D01*
X35138982Y49049500D01*
X35234270Y49030546D01*
X35315052Y48976570D01*
X35369028Y48895788D01*
X35387982Y48800500D01*
X35375794Y48723553D01*
X35364327Y48688265D01*
X35364326Y48688257D01*
X35344540Y48500000D01*
X35364325Y48311745D01*
X35386880Y48242331D01*
X35422821Y48131716D01*
X35471232Y48047866D01*
X35517469Y47967781D01*
X35644126Y47827115D01*
X35644129Y47827112D01*
X35750953Y47749500D01*
X35797271Y47715848D01*
X35970189Y47638859D01*
X35970192Y47638858D01*
X35970197Y47638856D01*
X36155354Y47599500D01*
X36344645Y47599500D01*
X36344646Y47599500D01*
X36529803Y47638856D01*
X36702730Y47715849D01*
X36855871Y47827112D01*
X36982533Y47967784D01*
X37077179Y48131716D01*
X37135674Y48311744D01*
X37155460Y48500000D01*
X37135674Y48688256D01*
X37135672Y48688261D01*
X37135672Y48688265D01*
X37124206Y48723553D01*
X37112785Y48820034D01*
X37139157Y48913542D01*
X37199304Y48989840D01*
X37284071Y49037312D01*
X37361018Y49049500D01*
X44677414Y49049500D01*
X44772702Y49030546D01*
X44853484Y48976570D01*
X48026570Y45803485D01*
X48080546Y45722703D01*
X48099500Y45627415D01*
X48099500Y40718906D01*
X48080546Y40623618D01*
X48035545Y40552295D01*
X48017469Y40532220D01*
X47925112Y40372253D01*
X47922821Y40368284D01*
X47907752Y40321907D01*
X47864325Y40188256D01*
X47844540Y40000000D01*
X47864326Y39811744D01*
X47864326Y39811742D01*
X47900164Y39701446D01*
X47911583Y39604964D01*
X47885212Y39511457D01*
X47825064Y39435159D01*
X47740297Y39387687D01*
X47663351Y39375500D01*
X44252000Y39375500D01*
X44156712Y39394454D01*
X44105642Y39423055D01*
X43952731Y39534151D01*
X43952730Y39534152D01*
X43779810Y39611142D01*
X43779796Y39611146D01*
X43594646Y39650500D01*
X43405354Y39650500D01*
X43220203Y39611146D01*
X43220189Y39611142D01*
X43047271Y39534153D01*
X42894126Y39422886D01*
X42767469Y39282220D01*
X42677068Y39125640D01*
X42672821Y39118284D01*
X42666718Y39099500D01*
X42614325Y38938256D01*
X42594540Y38750000D01*
X42614325Y38561745D01*
X42635963Y38495153D01*
X42672821Y38381716D01*
X42672822Y38381714D01*
X42672823Y38381712D01*
X42672824Y38381710D01*
X42749444Y38249000D01*
X42780674Y38157001D01*
X42774319Y38060054D01*
X42731349Y37972918D01*
X42658304Y37908860D01*
X42566305Y37877630D01*
X42533804Y37875500D01*
X39362231Y37875500D01*
X39266943Y37894454D01*
X39186161Y37948430D01*
X37448430Y39686161D01*
X37394454Y39766943D01*
X37375500Y39862231D01*
X37375500Y43750000D01*
X45094540Y43750000D01*
X45114325Y43561745D01*
X45123919Y43532220D01*
X45172821Y43381716D01*
X45267467Y43217784D01*
X45267469Y43217781D01*
X45294054Y43188256D01*
X45394129Y43077112D01*
X45492400Y43005714D01*
X45547271Y42965848D01*
X45720189Y42888859D01*
X45720192Y42888858D01*
X45720197Y42888856D01*
X45905354Y42849500D01*
X46094645Y42849500D01*
X46094646Y42849500D01*
X46279803Y42888856D01*
X46452730Y42965849D01*
X46605871Y43077112D01*
X46732533Y43217784D01*
X46827179Y43381716D01*
X46885674Y43561744D01*
X46905460Y43750000D01*
X46885674Y43938256D01*
X46827179Y44118284D01*
X46732533Y44282216D01*
X46732531Y44282219D01*
X46732530Y44282220D01*
X46605873Y44422886D01*
X46605872Y44422887D01*
X46605871Y44422888D01*
X46494422Y44503860D01*
X46452728Y44534153D01*
X46279810Y44611142D01*
X46279796Y44611146D01*
X46094646Y44650500D01*
X45905354Y44650500D01*
X45720203Y44611146D01*
X45720189Y44611142D01*
X45547271Y44534153D01*
X45394126Y44422886D01*
X45267469Y44282220D01*
X45175305Y44122586D01*
X45172821Y44118284D01*
X45170116Y44109958D01*
X45114325Y43938256D01*
X45094540Y43750000D01*
X37375500Y43750000D01*
X37375500Y45061605D01*
X37372927Y45074542D01*
X37351463Y45182452D01*
X37351462Y45182455D01*
X37323691Y45249500D01*
X37317231Y45265095D01*
X37304312Y45296285D01*
X37268754Y45349500D01*
X37235858Y45398733D01*
X37235856Y45398736D01*
X37142485Y45492106D01*
X37142484Y45492106D01*
X37134590Y45500000D01*
X42344540Y45500000D01*
X42364325Y45311745D01*
X42380509Y45261938D01*
X42422821Y45131716D01*
X42517467Y44967784D01*
X42517469Y44967781D01*
X42638782Y44833050D01*
X42644129Y44827112D01*
X42731831Y44763393D01*
X42797271Y44715848D01*
X42970189Y44638859D01*
X42970192Y44638858D01*
X42970197Y44638856D01*
X43155354Y44599500D01*
X43344645Y44599500D01*
X43344646Y44599500D01*
X43529803Y44638856D01*
X43538096Y44642548D01*
X43702728Y44715848D01*
X43702728Y44715849D01*
X43702730Y44715849D01*
X43855871Y44827112D01*
X43982533Y44967784D01*
X44077179Y45131716D01*
X44135674Y45311744D01*
X44155460Y45500000D01*
X44135674Y45688256D01*
X44077179Y45868284D01*
X43982533Y46032216D01*
X43982531Y46032219D01*
X43982530Y46032220D01*
X43855873Y46172886D01*
X43855872Y46172887D01*
X43855871Y46172888D01*
X43779300Y46228520D01*
X43702728Y46284153D01*
X43529810Y46361142D01*
X43529796Y46361146D01*
X43344646Y46400500D01*
X43155354Y46400500D01*
X42970203Y46361146D01*
X42970189Y46361142D01*
X42797271Y46284153D01*
X42644126Y46172886D01*
X42517469Y46032220D01*
X42430572Y45881710D01*
X42422821Y45868284D01*
X42418896Y45856204D01*
X42364325Y45688256D01*
X42344540Y45500000D01*
X37134590Y45500000D01*
X36435860Y46198730D01*
X36435858Y46198733D01*
X36348733Y46285858D01*
X36286992Y46327112D01*
X36246286Y46354312D01*
X36165792Y46387653D01*
X36165791Y46387654D01*
X36150073Y46394164D01*
X36132452Y46401463D01*
X36132448Y46401464D01*
X36066061Y46414670D01*
X36066061Y46414669D01*
X36011608Y46425500D01*
X36011607Y46425500D01*
X36011606Y46425500D01*
X35652000Y46425500D01*
X35556712Y46444454D01*
X35505642Y46473055D01*
X35352732Y46584151D01*
X35287792Y46613064D01*
X35208452Y46669137D01*
X35156609Y46751304D01*
X35140156Y46847056D01*
X35141433Y46866548D01*
X35155460Y47000000D01*
X35135674Y47188256D01*
X35077179Y47368284D01*
X34982533Y47532216D01*
X34982531Y47532219D01*
X34982530Y47532220D01*
X34855873Y47672886D01*
X34855872Y47672887D01*
X34855871Y47672888D01*
X34750423Y47749500D01*
X34702728Y47784153D01*
X34529810Y47861142D01*
X34529796Y47861146D01*
X34344646Y47900500D01*
X34155354Y47900500D01*
X33970203Y47861146D01*
X33970189Y47861142D01*
X33797271Y47784153D01*
X33644126Y47672886D01*
X33517469Y47532220D01*
X33422822Y47368286D01*
X33364325Y47188256D01*
X33344540Y47000000D01*
X33364325Y46811745D01*
X33365501Y46808127D01*
X33422821Y46631716D01*
X33461877Y46564069D01*
X33517469Y46467781D01*
X33624499Y46348913D01*
X33644129Y46327112D01*
X33797270Y46215849D01*
X33862208Y46186937D01*
X33941546Y46130865D01*
X33993390Y46048698D01*
X34009843Y45952947D01*
X34008564Y45933439D01*
X34000447Y45856205D01*
X33994540Y45800000D01*
X33994593Y45799500D01*
X34014325Y45611745D01*
X34034153Y45550722D01*
X34072821Y45431716D01*
X34158017Y45284152D01*
X34167469Y45267781D01*
X34289984Y45131715D01*
X34294129Y45127112D01*
X34353344Y45084090D01*
X34447271Y45015848D01*
X34620189Y44938859D01*
X34620192Y44938858D01*
X34620197Y44938856D01*
X34805354Y44899500D01*
X34994645Y44899500D01*
X34994646Y44899500D01*
X35179803Y44938856D01*
X35223693Y44958397D01*
X35352728Y45015848D01*
X35352728Y45015849D01*
X35352730Y45015849D01*
X35468442Y45099919D01*
X35556669Y45140592D01*
X35653749Y45144407D01*
X35744899Y45110780D01*
X35790868Y45074542D01*
X36051570Y44813840D01*
X36105546Y44733058D01*
X36124500Y44637770D01*
X36124500Y40861231D01*
X36105546Y40765943D01*
X36051570Y40685161D01*
X35970788Y40631185D01*
X35875500Y40612231D01*
X35780212Y40631185D01*
X35699431Y40685161D01*
X34929115Y41455476D01*
X34875138Y41536258D01*
X34856184Y41631546D01*
X34868372Y41708494D01*
X34885673Y41761740D01*
X34885673Y41761741D01*
X34885674Y41761744D01*
X34905460Y41950000D01*
X34885674Y42138256D01*
X34827179Y42318284D01*
X34732533Y42482216D01*
X34732531Y42482219D01*
X34732530Y42482220D01*
X34605872Y42622887D01*
X34605871Y42622888D01*
X34560079Y42656158D01*
X34494131Y42727501D01*
X34460504Y42818651D01*
X34464319Y42915731D01*
X34490796Y42982098D01*
X34577179Y43131716D01*
X34635674Y43311744D01*
X34655460Y43500000D01*
X34635674Y43688256D01*
X34577179Y43868284D01*
X34482533Y44032216D01*
X34482531Y44032219D01*
X34482530Y44032220D01*
X34355873Y44172886D01*
X34355872Y44172887D01*
X34355871Y44172888D01*
X34249734Y44250001D01*
X34202728Y44284153D01*
X34029810Y44361142D01*
X34029796Y44361146D01*
X33844646Y44400500D01*
X33655354Y44400500D01*
X33470203Y44361146D01*
X33470189Y44361142D01*
X33297271Y44284153D01*
X33144126Y44172886D01*
X33017469Y44032220D01*
X32925077Y43872191D01*
X32922821Y43868284D01*
X32918682Y43855546D01*
X32864325Y43688256D01*
X32844540Y43500000D01*
X32864325Y43311745D01*
X32884388Y43250000D01*
X32922821Y43131716D01*
X32954345Y43077115D01*
X33017469Y42967781D01*
X33126173Y42847054D01*
X33144129Y42827112D01*
X33189919Y42793844D01*
X33255868Y42722501D01*
X33289495Y42631351D01*
X33285680Y42534270D01*
X33259201Y42467900D01*
X33173305Y42319123D01*
X33172821Y42318284D01*
X33157951Y42272518D01*
X33114325Y42138256D01*
X33094540Y41950000D01*
X33114325Y41761745D01*
X33131628Y41708494D01*
X33172821Y41581716D01*
X33245706Y41455476D01*
X33267469Y41417781D01*
X33402861Y41267414D01*
X33400376Y41265178D01*
X33438704Y41213852D01*
X33439922Y41214502D01*
X33445688Y41203714D01*
X33507541Y41111146D01*
X33514142Y41101267D01*
X33527072Y41088337D01*
X33581046Y41007558D01*
X33600000Y40912270D01*
X33600000Y38115000D01*
X33598636Y38088974D01*
X33594540Y38050002D01*
X33594540Y38050001D01*
X33598636Y38011030D01*
X33600000Y37985002D01*
X33600000Y36290000D01*
X33598636Y36263974D01*
X33594540Y36225002D01*
X33594540Y36225001D01*
X33598636Y36186030D01*
X33600000Y36160002D01*
X33600000Y34540000D01*
X33598636Y34513974D01*
X33594540Y34475002D01*
X33594540Y34475001D01*
X33614325Y34286745D01*
X33643573Y34196730D01*
X33672821Y34106716D01*
X33741957Y33986969D01*
X33767469Y33942781D01*
X33880025Y33817776D01*
X33894129Y33802112D01*
X33985316Y33735861D01*
X34047271Y33690848D01*
X34220189Y33613859D01*
X34220192Y33613858D01*
X34220197Y33613856D01*
X34405354Y33574500D01*
X34594645Y33574500D01*
X34594646Y33574500D01*
X34779803Y33613856D01*
X34789749Y33618284D01*
X34952728Y33690848D01*
X34952728Y33690849D01*
X34952730Y33690849D01*
X35105871Y33802112D01*
X35232533Y33942784D01*
X35327179Y34106716D01*
X35385674Y34286744D01*
X35398694Y34410632D01*
X35427504Y34503414D01*
X35470257Y34560669D01*
X35961160Y35051570D01*
X36041941Y35105546D01*
X36137229Y35124500D01*
X45061606Y35124500D01*
X45061607Y35124500D01*
X45131458Y35138394D01*
X45182452Y35148537D01*
X45229268Y35167929D01*
X45296286Y35195688D01*
X45360198Y35238394D01*
X45398733Y35264142D01*
X45485858Y35351267D01*
X45485858Y35351269D01*
X45506354Y35371764D01*
X45506357Y35371769D01*
X46186161Y36051570D01*
X46266942Y36105546D01*
X46362230Y36124500D01*
X47020144Y36124500D01*
X47115432Y36105546D01*
X47196214Y36051570D01*
X47250190Y35970788D01*
X47251432Y35964544D01*
X47258991Y35990476D01*
X47319802Y36066245D01*
X47404981Y36112976D01*
X47479856Y36124500D01*
X55128948Y36124500D01*
X55224236Y36105546D01*
X55305018Y36051570D01*
X55358994Y35970788D01*
X55377948Y35875500D01*
X55358994Y35780212D01*
X55313991Y35708886D01*
X55267467Y35657217D01*
X55178927Y35503860D01*
X55172821Y35493284D01*
X55163319Y35464039D01*
X55114325Y35313256D01*
X55094540Y35125000D01*
X55114325Y34936745D01*
X55131272Y34884589D01*
X55172821Y34756716D01*
X55172822Y34756714D01*
X55172823Y34756712D01*
X55172824Y34756710D01*
X55216140Y34681685D01*
X55247370Y34589686D01*
X55249500Y34557185D01*
X55249500Y34426080D01*
X55278341Y34281089D01*
X55334913Y34144511D01*
X55334914Y34144509D01*
X55334916Y34144505D01*
X55340512Y34136130D01*
X55351776Y34119271D01*
X55351780Y34119266D01*
X55417046Y34021586D01*
X55417047Y34021585D01*
X55417048Y34021584D01*
X59721584Y29717048D01*
X59781737Y29676856D01*
X59844505Y29634916D01*
X59981087Y29578342D01*
X60037897Y29567042D01*
X60127655Y29529863D01*
X60135673Y29524275D01*
X60147270Y29515849D01*
X60320197Y29438856D01*
X60505354Y29399500D01*
X60694645Y29399500D01*
X60694646Y29399500D01*
X60801710Y29422257D01*
X60892568Y29441569D01*
X60892820Y29440383D01*
X60953539Y29450000D01*
X63754574Y29450000D01*
X63849862Y29431046D01*
X63930644Y29377070D01*
X63984620Y29296288D01*
X64002210Y29227026D01*
X64014325Y29111745D01*
X64043573Y29021730D01*
X64072821Y28931716D01*
X64142713Y28810659D01*
X64167469Y28767781D01*
X64273951Y28649522D01*
X64294129Y28627112D01*
X64384101Y28561744D01*
X64447271Y28515848D01*
X64620189Y28438859D01*
X64620192Y28438858D01*
X64620197Y28438856D01*
X64805354Y28399500D01*
X64994645Y28399500D01*
X64994646Y28399500D01*
X65179803Y28438856D01*
X65305441Y28494794D01*
X65352728Y28515848D01*
X65352728Y28515849D01*
X65352730Y28515849D01*
X65505871Y28627112D01*
X65616520Y28750000D01*
X67844540Y28750000D01*
X67864325Y28561745D01*
X67893573Y28471730D01*
X67922821Y28381716D01*
X68017467Y28217784D01*
X68017469Y28217781D01*
X68144126Y28077115D01*
X68144129Y28077112D01*
X68258984Y27993665D01*
X68297271Y27965848D01*
X68470189Y27888859D01*
X68470192Y27888858D01*
X68470197Y27888856D01*
X68655354Y27849500D01*
X68844645Y27849500D01*
X68844646Y27849500D01*
X69029803Y27888856D01*
X69156072Y27945075D01*
X69202728Y27965848D01*
X69202728Y27965849D01*
X69202730Y27965849D01*
X69355871Y28077112D01*
X69482533Y28217784D01*
X69577179Y28381716D01*
X69635674Y28561744D01*
X69655460Y28750000D01*
X69635674Y28938256D01*
X69577179Y29118284D01*
X69482533Y29282216D01*
X69482531Y29282219D01*
X69482530Y29282220D01*
X69355873Y29422886D01*
X69355872Y29422887D01*
X69355871Y29422888D01*
X69244422Y29503860D01*
X69202728Y29534153D01*
X69029810Y29611142D01*
X69029796Y29611146D01*
X68844646Y29650500D01*
X68655354Y29650500D01*
X68470203Y29611146D01*
X68470189Y29611142D01*
X68297271Y29534153D01*
X68144126Y29422886D01*
X68017469Y29282220D01*
X67958959Y29180877D01*
X67922821Y29118284D01*
X67920696Y29111744D01*
X67864325Y28938256D01*
X67844540Y28750000D01*
X65616520Y28750000D01*
X65632533Y28767784D01*
X65727179Y28931716D01*
X65785674Y29111744D01*
X65794541Y29196121D01*
X65823350Y29288904D01*
X65866104Y29346160D01*
X66205277Y29685331D01*
X66276465Y29791873D01*
X66325501Y29910256D01*
X66329770Y29931716D01*
X66336945Y29967784D01*
X66344245Y30004486D01*
X66350500Y30035931D01*
X66350500Y31064069D01*
X66325501Y31189744D01*
X66285491Y31286337D01*
X66276468Y31308120D01*
X66276467Y31308122D01*
X66276465Y31308127D01*
X66265331Y31324790D01*
X66205277Y31414669D01*
X63173430Y34446516D01*
X63119454Y34527298D01*
X63100500Y34622586D01*
X63100500Y38614070D01*
X63100499Y38614075D01*
X63075503Y38739738D01*
X63075500Y38739747D01*
X63055193Y38788769D01*
X63055191Y38788778D01*
X63055190Y38788777D01*
X63026464Y38858130D01*
X62955277Y38964669D01*
X60822930Y41097016D01*
X60768954Y41177798D01*
X60750000Y41273086D01*
X60750000Y42431319D01*
X60768954Y42526607D01*
X60783360Y42555819D01*
X60806148Y42595289D01*
X60827179Y42631716D01*
X60885674Y42811744D01*
X60905460Y43000000D01*
X60885674Y43188256D01*
X60827179Y43368284D01*
X60732533Y43532216D01*
X60732531Y43532219D01*
X60732530Y43532220D01*
X60605873Y43672886D01*
X60605872Y43672887D01*
X60605871Y43672888D01*
X60529300Y43728520D01*
X60452728Y43784153D01*
X60279810Y43861142D01*
X60279796Y43861146D01*
X60094646Y43900500D01*
X59905354Y43900500D01*
X59720203Y43861146D01*
X59720189Y43861142D01*
X59547277Y43784155D01*
X59545897Y43783358D01*
X59544173Y43782774D01*
X59535349Y43778844D01*
X59534987Y43779656D01*
X59453897Y43752130D01*
X59421399Y43750000D01*
X58273086Y43750000D01*
X58177798Y43768954D01*
X58097016Y43822930D01*
X57973430Y43946516D01*
X57919454Y44027298D01*
X57900500Y44122586D01*
X57900500Y45531097D01*
X57919454Y45626385D01*
X57964455Y45697708D01*
X57982533Y45717784D01*
X58077179Y45881716D01*
X58135674Y46061744D01*
X58155460Y46250000D01*
X58135674Y46438256D01*
X58077179Y46618284D01*
X57982533Y46782216D01*
X57982531Y46782219D01*
X57982530Y46782220D01*
X57855873Y46922886D01*
X57855872Y46922887D01*
X57855871Y46922888D01*
X57749734Y47000001D01*
X57702728Y47034153D01*
X57529810Y47111142D01*
X57529796Y47111146D01*
X57344646Y47150500D01*
X57155354Y47150500D01*
X56970203Y47111146D01*
X56970189Y47111142D01*
X56797269Y47034152D01*
X56797268Y47034151D01*
X56646358Y46924508D01*
X56558128Y46883833D01*
X56461048Y46880019D01*
X56369898Y46913646D01*
X56353642Y46924508D01*
X56202731Y47034151D01*
X56202730Y47034152D01*
X56029810Y47111142D01*
X56029796Y47111146D01*
X55844646Y47150500D01*
X55655354Y47150500D01*
X55470203Y47111146D01*
X55470193Y47111143D01*
X55452471Y47103252D01*
X55357712Y47081811D01*
X55261960Y47098265D01*
X55179794Y47150110D01*
X55123722Y47229451D01*
X55114386Y47253773D01*
X55077179Y47368284D01*
X54982533Y47532216D01*
X54982531Y47532219D01*
X54982530Y47532220D01*
X54855873Y47672886D01*
X54855872Y47672887D01*
X54855871Y47672888D01*
X54750423Y47749500D01*
X54702728Y47784153D01*
X54529810Y47861142D01*
X54529796Y47861146D01*
X54344646Y47900500D01*
X54155354Y47900500D01*
X53970203Y47861146D01*
X53970189Y47861142D01*
X53797271Y47784153D01*
X53644126Y47672886D01*
X53517469Y47532220D01*
X53422822Y47368286D01*
X53364325Y47188256D01*
X53344540Y47000000D01*
X53364325Y46811745D01*
X53365501Y46808127D01*
X53422821Y46631716D01*
X53422822Y46631715D01*
X53422823Y46631712D01*
X53422824Y46631710D01*
X53514424Y46473055D01*
X53517467Y46467784D01*
X53560542Y46419944D01*
X53610217Y46336452D01*
X53624500Y46253331D01*
X53624500Y44763395D01*
X53627416Y44748733D01*
X53648537Y44642546D01*
X53648538Y44642545D01*
X53651069Y44636435D01*
X53651070Y44636426D01*
X53651072Y44636426D01*
X53695684Y44528720D01*
X53695685Y44528719D01*
X53714877Y44499997D01*
X53714877Y44499996D01*
X53764138Y44426272D01*
X53764139Y44426271D01*
X53764142Y44426267D01*
X53851267Y44339142D01*
X53851270Y44339140D01*
X56419135Y41771275D01*
X56473111Y41690493D01*
X56492065Y41595205D01*
X56473111Y41499917D01*
X56419135Y41419135D01*
X56192483Y41192483D01*
X56111701Y41138507D01*
X56016413Y41119553D01*
X55964644Y41124994D01*
X55844646Y41150500D01*
X55655354Y41150500D01*
X55470203Y41111146D01*
X55470189Y41111142D01*
X55297272Y41034153D01*
X55178767Y40948054D01*
X55090536Y40907380D01*
X55032409Y40900500D01*
X51622586Y40900500D01*
X51527298Y40919454D01*
X51446516Y40973430D01*
X50473430Y41946516D01*
X50419454Y42027298D01*
X50400500Y42122586D01*
X50400500Y46321198D01*
X50400000Y46331379D01*
X50400000Y46851000D01*
X50418954Y46946288D01*
X50472930Y47027070D01*
X50553712Y47081046D01*
X50649000Y47100000D01*
X51137547Y47100000D01*
X51147083Y47099500D01*
X51155354Y47099500D01*
X51344645Y47099500D01*
X51344646Y47099500D01*
X51529803Y47138856D01*
X51702730Y47215849D01*
X51855871Y47327112D01*
X51982533Y47467784D01*
X52077179Y47631716D01*
X52135674Y47811744D01*
X52155460Y48000000D01*
X52135674Y48188256D01*
X52077179Y48368284D01*
X52071742Y48377700D01*
X52033359Y48444184D01*
X52002130Y48536183D01*
X52000000Y48568682D01*
X52000000Y48751000D01*
X52018954Y48846288D01*
X52072930Y48927070D01*
X52153712Y48981046D01*
X52249000Y49000000D01*
X54671399Y49000000D01*
X54766687Y48981046D01*
X54795897Y48966642D01*
X54797263Y48965855D01*
X54797270Y48965849D01*
X54797277Y48965846D01*
X54970189Y48888859D01*
X54970192Y48888858D01*
X54970197Y48888856D01*
X55155354Y48849500D01*
X55344645Y48849500D01*
X55344646Y48849500D01*
X55529803Y48888856D01*
X55545373Y48895788D01*
X55702728Y48965848D01*
X55702728Y48965849D01*
X55702730Y48965849D01*
X55853645Y49075496D01*
X55941871Y49116168D01*
X56038951Y49119983D01*
X56130101Y49086356D01*
X56146338Y49075507D01*
X56250265Y49000000D01*
X56297271Y48965848D01*
X56470189Y48888859D01*
X56470192Y48888858D01*
X56470197Y48888856D01*
X56655354Y48849500D01*
X56844645Y48849500D01*
X56844646Y48849500D01*
X57029803Y48888856D01*
X57045373Y48895788D01*
X57202728Y48965848D01*
X57202728Y48965849D01*
X57202730Y48965849D01*
X57355871Y49077112D01*
X57482533Y49217784D01*
X57577179Y49381716D01*
X57635674Y49561744D01*
X57655460Y49750000D01*
X57635674Y49938256D01*
X57577179Y50118284D01*
X57556751Y50153667D01*
X57533359Y50194184D01*
X57502130Y50286183D01*
X57500000Y50318682D01*
X57500000Y51364456D01*
X57509381Y51423681D01*
X57507961Y51423982D01*
X57510672Y51436739D01*
X57510674Y51436744D01*
X57530460Y51625000D01*
X57510674Y51813256D01*
X57452179Y51993284D01*
X57357533Y52157216D01*
X57357531Y52157219D01*
X57357530Y52157220D01*
X57230873Y52297886D01*
X57230872Y52297887D01*
X57230871Y52297888D01*
X57127085Y52373293D01*
X57077728Y52409153D01*
X56904810Y52486142D01*
X56904796Y52486146D01*
X56719646Y52525500D01*
X56530354Y52525500D01*
X56435982Y52505441D01*
X56384213Y52500000D01*
X54903454Y52500000D01*
X54808166Y52518954D01*
X54802669Y52521231D01*
X54787894Y52527351D01*
X54787892Y52527352D01*
X54787891Y52527352D01*
X54662221Y52552350D01*
X54662219Y52552350D01*
X33667738Y52552350D01*
X33572450Y52571304D01*
X33491668Y52625280D01*
X33437692Y52706062D01*
X33418738Y52801350D01*
X33437692Y52896638D01*
X33475587Y52956701D01*
X33474863Y52957227D01*
X33482530Y52967781D01*
X33482529Y52967781D01*
X33482533Y52967784D01*
X33577179Y53131716D01*
X33635674Y53311744D01*
X33655460Y53500000D01*
X33635674Y53688256D01*
X33577179Y53868284D01*
X33482533Y54032216D01*
X33482531Y54032219D01*
X33482530Y54032220D01*
X33355873Y54172886D01*
X33355872Y54172887D01*
X33355871Y54172888D01*
X33276511Y54230546D01*
X33202728Y54284153D01*
X33029810Y54361142D01*
X33029796Y54361146D01*
X32844646Y54400500D01*
X32655354Y54400500D01*
X32470203Y54361146D01*
X32470189Y54361142D01*
X32297272Y54284153D01*
X32271358Y54265325D01*
X32183127Y54224651D01*
X32086047Y54220837D01*
X31994897Y54254464D01*
X31978642Y54265325D01*
X31952727Y54284153D01*
X31779810Y54361142D01*
X31779796Y54361146D01*
X31594646Y54400500D01*
X31405354Y54400500D01*
X31220203Y54361146D01*
X31220189Y54361142D01*
X31047271Y54284153D01*
X30894126Y54172886D01*
X30767469Y54032220D01*
X30672822Y53868286D01*
X30614325Y53688256D01*
X30594540Y53500000D01*
X30614325Y53311745D01*
X30634388Y53250000D01*
X30672821Y53131716D01*
X30767467Y52967784D01*
X30767469Y52967781D01*
X30775137Y52957227D01*
X30774128Y52956495D01*
X30816980Y52884467D01*
X30830921Y52788318D01*
X30807005Y52694152D01*
X30748875Y52616306D01*
X30665379Y52566632D01*
X30582262Y52552350D01*
X15512880Y52552350D01*
X15417592Y52571304D01*
X15336810Y52625280D01*
X15282834Y52706062D01*
X15263880Y52801350D01*
X15276067Y52878297D01*
X15277176Y52881712D01*
X15277179Y52881716D01*
X15335674Y53061744D01*
X15355460Y53250000D01*
X15335674Y53438256D01*
X15277179Y53618284D01*
X15182533Y53782216D01*
X15182531Y53782219D01*
X15182530Y53782220D01*
X15055873Y53922886D01*
X15055872Y53922887D01*
X15055871Y53922888D01*
X14949047Y54000500D01*
X14902728Y54034153D01*
X14729810Y54111142D01*
X14729796Y54111146D01*
X14544646Y54150500D01*
X14355354Y54150500D01*
X14170203Y54111146D01*
X14170189Y54111142D01*
X13997271Y54034153D01*
X13844126Y53922886D01*
X13717469Y53782220D01*
X13672468Y53704276D01*
X13622821Y53618284D01*
X13609383Y53576925D01*
X13564325Y53438256D01*
X13544540Y53250000D01*
X13564325Y53061745D01*
X13587087Y52991694D01*
X13622821Y52881716D01*
X13622823Y52881712D01*
X13623933Y52878297D01*
X13635353Y52781815D01*
X13608981Y52688308D01*
X13548834Y52612010D01*
X13464067Y52564537D01*
X13387120Y52552350D01*
X11917738Y52552350D01*
X11822450Y52571304D01*
X11741668Y52625280D01*
X11687692Y52706062D01*
X11668738Y52801350D01*
X11687692Y52896638D01*
X11725587Y52956701D01*
X11724863Y52957227D01*
X11732530Y52967781D01*
X11732529Y52967781D01*
X11732533Y52967784D01*
X11827179Y53131716D01*
X11885674Y53311744D01*
X11905460Y53500000D01*
X11885674Y53688256D01*
X11827179Y53868284D01*
X11732533Y54032216D01*
X11732531Y54032219D01*
X11732530Y54032220D01*
X11605873Y54172886D01*
X11605872Y54172887D01*
X11605871Y54172888D01*
X11526511Y54230546D01*
X11452728Y54284153D01*
X11279810Y54361142D01*
X11279796Y54361146D01*
X11094646Y54400500D01*
X10905354Y54400500D01*
X10720203Y54361146D01*
X10720189Y54361142D01*
X10547271Y54284153D01*
X10394126Y54172886D01*
X10267469Y54032220D01*
X10172822Y53868286D01*
X10114325Y53688256D01*
X10094540Y53500000D01*
X10114325Y53311745D01*
X10134388Y53250000D01*
X10172821Y53131716D01*
X10267467Y52967784D01*
X10267469Y52967781D01*
X10275137Y52957227D01*
X10274128Y52956495D01*
X10316980Y52884467D01*
X10330921Y52788318D01*
X10307005Y52694152D01*
X10248875Y52616306D01*
X10165379Y52566632D01*
X10082262Y52552350D01*
X9837778Y52552350D01*
X9712108Y52527352D01*
X9663070Y52507040D01*
X9663069Y52507041D01*
X9593726Y52478318D01*
X9593722Y52478315D01*
X9539724Y52442236D01*
X9490211Y52409151D01*
X9487177Y52407124D01*
X9487175Y52407123D01*
X7903712Y50823661D01*
X7822931Y50769685D01*
X7727643Y50750731D01*
X7632355Y50769685D01*
X7551573Y50823662D01*
X7497597Y50904443D01*
X7478643Y50999731D01*
X7479035Y51013693D01*
X7492306Y51249997D01*
X7492306Y51250006D01*
X7473099Y51592020D01*
X7473098Y51592026D01*
X7415718Y51929747D01*
X7415715Y51929762D01*
X7320882Y52258931D01*
X7320875Y52258951D01*
X7189788Y52575425D01*
X7024079Y52875252D01*
X6825840Y53154645D01*
X6764423Y53223371D01*
X5803457Y52262406D01*
X5718370Y52373293D01*
X5560793Y52530870D01*
X5449904Y52615959D01*
X6410870Y53576925D01*
X6342144Y53638341D01*
X6117935Y53797425D01*
X6051190Y53868024D01*
X6016542Y53958791D01*
X6019267Y54055908D01*
X6058949Y54144589D01*
X6129548Y54211334D01*
X6220315Y54245982D01*
X6262024Y54249500D01*
X7148539Y54249500D01*
X7148540Y54249500D01*
X7148541Y54249500D01*
X7245188Y54268725D01*
X7341836Y54287949D01*
X7395165Y54310039D01*
X7523914Y54363368D01*
X7687782Y54472861D01*
X7827139Y54612218D01*
X7827139Y54612220D01*
X7847639Y54632719D01*
X7847640Y54632722D01*
X8827140Y55612219D01*
X8936632Y55776086D01*
X9012052Y55958165D01*
X9050501Y56151460D01*
X9050501Y56348541D01*
X9012052Y56541836D01*
X9000396Y56569976D01*
X8936634Y56723911D01*
X8936631Y56723916D01*
X8875955Y56814724D01*
X8827140Y56887782D01*
X8687782Y57027140D01*
X8556608Y57114787D01*
X8523915Y57136632D01*
X8523910Y57136635D01*
X8341835Y57212053D01*
X8341832Y57212054D01*
X8148545Y57250501D01*
X8148541Y57250501D01*
X7951460Y57250501D01*
X7951455Y57250501D01*
X7758168Y57212054D01*
X7758165Y57212053D01*
X7576090Y57136635D01*
X7576085Y57136632D01*
X7412221Y57027142D01*
X7406964Y57022827D01*
X7321281Y56977029D01*
X7224594Y56967506D01*
X7131622Y56995709D01*
X7056520Y57057343D01*
X7010722Y57143026D01*
X7000000Y57215307D01*
X7000000Y59000000D01*
X42844540Y59000000D01*
X42864325Y58811745D01*
X42893573Y58721730D01*
X42922821Y58631716D01*
X42922822Y58631715D01*
X43017469Y58467781D01*
X43144126Y58327115D01*
X43144129Y58327112D01*
X43258984Y58243665D01*
X43297271Y58215848D01*
X43470189Y58138859D01*
X43470192Y58138858D01*
X43470197Y58138856D01*
X43655354Y58099500D01*
X43844645Y58099500D01*
X43844646Y58099500D01*
X44029803Y58138856D01*
X44103403Y58171625D01*
X44202728Y58215848D01*
X44202728Y58215849D01*
X44202730Y58215849D01*
X44355871Y58327112D01*
X44482533Y58467784D01*
X44577179Y58631716D01*
X44635674Y58811744D01*
X44655460Y59000000D01*
X44635674Y59188256D01*
X44577179Y59368284D01*
X44482533Y59532216D01*
X44482531Y59532219D01*
X44482530Y59532220D01*
X44355873Y59672886D01*
X44355872Y59672887D01*
X44355871Y59672888D01*
X44249735Y59750000D01*
X44202728Y59784153D01*
X44029810Y59861142D01*
X44029796Y59861146D01*
X43844646Y59900500D01*
X43655354Y59900500D01*
X43470203Y59861146D01*
X43470189Y59861142D01*
X43297271Y59784153D01*
X43144126Y59672886D01*
X43017469Y59532220D01*
X43017467Y59532216D01*
X42922821Y59368284D01*
X42918475Y59354908D01*
X42864325Y59188256D01*
X42844540Y59000000D01*
X7000000Y59000000D01*
X7000000Y59245685D01*
X7016540Y59334922D01*
X7024212Y59354908D01*
X7024211Y59354908D01*
X7024214Y59354913D01*
X7124602Y59729567D01*
X7185278Y60112662D01*
X7205578Y60500000D01*
X7185278Y60887338D01*
X7124602Y61270433D01*
X7024214Y61645087D01*
X7021331Y61652596D01*
X7016538Y61665085D01*
X7000000Y61754316D01*
X7000000Y63675500D01*
X7018954Y63770788D01*
X7072930Y63851570D01*
X7153712Y63905546D01*
X7249000Y63924500D01*
X85145598Y63924500D01*
X85240886Y63905546D01*
G37*
%TD.AperFunction*%
%TA.AperFunction,Conductor*%
G36*
X80470287Y34318317D02*
G01*
X80551069Y34264341D01*
X81826570Y32988840D01*
X81880546Y32908058D01*
X81899500Y32812770D01*
X81899500Y31814500D01*
X81880546Y31719212D01*
X81826570Y31638430D01*
X81745788Y31584454D01*
X81668107Y31569003D01*
X81668332Y31566864D01*
X81655354Y31565501D01*
X81470203Y31526146D01*
X81470189Y31526142D01*
X81297271Y31449153D01*
X81144126Y31337886D01*
X81017469Y31197220D01*
X81017467Y31197216D01*
X80976063Y31125501D01*
X80955567Y31090001D01*
X80891508Y31016956D01*
X80804372Y30973986D01*
X80739926Y30965501D01*
X79141135Y30965501D01*
X79141119Y30965502D01*
X79125858Y30965502D01*
X78967744Y30965502D01*
X78935469Y30956854D01*
X78815016Y30924579D01*
X78778256Y30903355D01*
X78766878Y30896785D01*
X78678085Y30845522D01*
X78678084Y30845521D01*
X78566280Y30733718D01*
X78566281Y30733717D01*
X78566279Y30733715D01*
X77656286Y29823722D01*
X77656284Y29823720D01*
X77656283Y29823721D01*
X77544483Y29711920D01*
X77544481Y29711917D01*
X77544480Y29711916D01*
X77495991Y29627930D01*
X77495990Y29627931D01*
X77465424Y29574988D01*
X77465422Y29574985D01*
X77424499Y29422257D01*
X77424499Y29244078D01*
X77424500Y29244065D01*
X77424500Y27945075D01*
X77405546Y27849787D01*
X77351570Y27769005D01*
X76980995Y27398430D01*
X76900213Y27344454D01*
X76804925Y27325500D01*
X75695075Y27325500D01*
X75599787Y27344454D01*
X75519005Y27398430D01*
X75362155Y27555280D01*
X75308179Y27636062D01*
X75289225Y27731350D01*
X75308179Y27826638D01*
X75362155Y27907420D01*
X75436948Y27958823D01*
X75452730Y27965849D01*
X75605871Y28077112D01*
X75732533Y28217784D01*
X75827179Y28381716D01*
X75885674Y28561744D01*
X75905460Y28750000D01*
X75885674Y28938256D01*
X75827179Y29118284D01*
X75732533Y29282216D01*
X75732531Y29282219D01*
X75732530Y29282220D01*
X75605873Y29422886D01*
X75605872Y29422887D01*
X75605871Y29422888D01*
X75466625Y29524056D01*
X75400677Y29595398D01*
X75367051Y29686548D01*
X75370865Y29783628D01*
X75411540Y29871859D01*
X75482883Y29937808D01*
X75574033Y29971434D01*
X75612985Y29974500D01*
X75711606Y29974500D01*
X75711607Y29974500D01*
X75800150Y29992112D01*
X75832452Y29998537D01*
X75865782Y30012344D01*
X75865791Y30012346D01*
X75865791Y30012347D01*
X75946281Y30045686D01*
X75946280Y30045686D01*
X75946286Y30045688D01*
X75999263Y30081087D01*
X76048733Y30114142D01*
X76135858Y30201267D01*
X76135860Y30201271D01*
X80198934Y34264345D01*
X80279711Y34318317D01*
X80374999Y34337271D01*
X80470287Y34318317D01*
G37*
%TD.AperFunction*%
%TA.AperFunction,Conductor*%
G36*
X83609390Y60689174D02*
G01*
X83697030Y60647244D01*
X83761954Y60574966D01*
X83794276Y60483345D01*
X83796468Y60460943D01*
X83814722Y60112662D01*
X83814722Y60112657D01*
X83814723Y60112655D01*
X83856402Y59849500D01*
X83875398Y59729567D01*
X83975786Y59354913D01*
X83983460Y59334922D01*
X84114786Y58992805D01*
X84290872Y58647216D01*
X84290875Y58647211D01*
X84502124Y58321915D01*
X84682233Y58099500D01*
X84746219Y58020484D01*
X85020484Y57746219D01*
X85020489Y57746215D01*
X85020490Y57746214D01*
X85321914Y57502125D01*
X85444611Y57422445D01*
X85647211Y57290875D01*
X85992806Y57114786D01*
X86354913Y56975786D01*
X86729567Y56875398D01*
X87112662Y56814722D01*
X87500000Y56794422D01*
X87887338Y56814722D01*
X88270433Y56875398D01*
X88645087Y56975786D01*
X89007194Y57114786D01*
X89352789Y57290875D01*
X89678084Y57502124D01*
X89979516Y57746219D01*
X90253781Y58020484D01*
X90451309Y58264410D01*
X90481991Y58302299D01*
X90556688Y58364424D01*
X90649473Y58393234D01*
X90746220Y58384344D01*
X90832201Y58339107D01*
X90894326Y58264410D01*
X90923136Y58171625D01*
X90924500Y58145598D01*
X90924500Y34321824D01*
X90905546Y34226536D01*
X90851570Y34145754D01*
X90770788Y34091778D01*
X90675500Y34072824D01*
X90580212Y34091778D01*
X90499430Y34145754D01*
X90445454Y34226536D01*
X90437224Y34249538D01*
X90436572Y34251686D01*
X90361191Y34433673D01*
X90361188Y34433680D01*
X90251753Y34597460D01*
X90112459Y34736754D01*
X89948679Y34846189D01*
X89948672Y34846192D01*
X89766691Y34921571D01*
X89573489Y34960000D01*
X89325001Y34960000D01*
X89325000Y34959999D01*
X89325000Y34260000D01*
X88825000Y34260000D01*
X88825000Y34959999D01*
X88824999Y34960000D01*
X88576511Y34960000D01*
X88383308Y34921571D01*
X88219787Y34853838D01*
X88124499Y34834884D01*
X88029211Y34853838D01*
X87948430Y34907815D01*
X87894454Y34988597D01*
X87875500Y35083884D01*
X87875500Y40311608D01*
X87874896Y40314642D01*
X87874890Y40314672D01*
X87851463Y40432451D01*
X87849058Y40438257D01*
X87849051Y40438274D01*
X87804313Y40546281D01*
X87804310Y40546288D01*
X87735860Y40648730D01*
X87735858Y40648733D01*
X87707443Y40677148D01*
X87653470Y40757926D01*
X87634516Y40853214D01*
X87653470Y40948502D01*
X87707446Y41029284D01*
X87788228Y41083260D01*
X87832380Y41094441D01*
X87831882Y41096787D01*
X87844646Y41099500D01*
X88029803Y41138856D01*
X88060428Y41152491D01*
X88202728Y41215848D01*
X88202728Y41215849D01*
X88202730Y41215849D01*
X88355871Y41327112D01*
X88482533Y41467784D01*
X88577179Y41631716D01*
X88635674Y41811744D01*
X88655460Y42000000D01*
X88635674Y42188256D01*
X88577179Y42368284D01*
X88482533Y42532216D01*
X88482531Y42532219D01*
X88482530Y42532220D01*
X88355873Y42672886D01*
X88355872Y42672887D01*
X88355871Y42672888D01*
X88242757Y42755070D01*
X88202728Y42784153D01*
X88029810Y42861142D01*
X88029796Y42861146D01*
X87844646Y42900500D01*
X87655354Y42900500D01*
X87470203Y42861146D01*
X87470189Y42861142D01*
X87297271Y42784153D01*
X87144126Y42672886D01*
X87017469Y42532220D01*
X86922821Y42368284D01*
X86922820Y42368281D01*
X86918451Y42354836D01*
X86870976Y42270071D01*
X86794676Y42209926D01*
X86701167Y42183558D01*
X86604686Y42194981D01*
X86519921Y42242456D01*
X86491740Y42272945D01*
X86491266Y42272518D01*
X86355873Y42422886D01*
X86355872Y42422887D01*
X86355871Y42422888D01*
X86279300Y42478520D01*
X86202728Y42534153D01*
X86029810Y42611142D01*
X86029796Y42611146D01*
X85844646Y42650500D01*
X85655354Y42650500D01*
X85470203Y42611146D01*
X85470189Y42611142D01*
X85297271Y42534153D01*
X85144126Y42422886D01*
X85017469Y42282220D01*
X84922822Y42118286D01*
X84864325Y41938256D01*
X84844540Y41750000D01*
X84864325Y41561745D01*
X84884415Y41499917D01*
X84922821Y41381716D01*
X84988813Y41267414D01*
X85017467Y41217784D01*
X85063541Y41166614D01*
X85113216Y41083118D01*
X85127157Y40986969D01*
X85103242Y40892803D01*
X85063541Y40833386D01*
X85017467Y40782217D01*
X84925730Y40623323D01*
X84922821Y40618284D01*
X84901380Y40552295D01*
X84864326Y40438257D01*
X84844540Y40250000D01*
X84864325Y40061745D01*
X84882673Y40005277D01*
X84922821Y39881716D01*
X85016310Y39719788D01*
X85017469Y39717781D01*
X85144126Y39577115D01*
X85144129Y39577112D01*
X85250265Y39500000D01*
X85297271Y39465848D01*
X85470189Y39388859D01*
X85470192Y39388858D01*
X85470197Y39388856D01*
X85655354Y39349500D01*
X85662770Y39349500D01*
X85758058Y39330546D01*
X85838840Y39276570D01*
X86051570Y39063840D01*
X86105546Y38983058D01*
X86124500Y38887770D01*
X86124500Y35133589D01*
X86105546Y35038301D01*
X86051570Y34957519D01*
X85970788Y34903543D01*
X85875500Y34884589D01*
X85780213Y34903543D01*
X85736691Y34921571D01*
X85543489Y34960000D01*
X85145001Y34960000D01*
X85145000Y34959999D01*
X85145000Y34260000D01*
X84645000Y34260000D01*
X84645000Y34959999D01*
X84643379Y34961620D01*
X84556234Y34978954D01*
X84475452Y35032930D01*
X84421476Y35113712D01*
X84402522Y35209000D01*
X84403885Y35235019D01*
X84405460Y35250000D01*
X84385674Y35438256D01*
X84327179Y35618284D01*
X84232533Y35782216D01*
X84232531Y35782219D01*
X84232530Y35782220D01*
X84105873Y35922886D01*
X84105872Y35922887D01*
X84105871Y35922888D01*
X83962164Y36027297D01*
X83952728Y36034153D01*
X83779808Y36111142D01*
X83779805Y36111143D01*
X83779803Y36111144D01*
X83779801Y36111145D01*
X83779794Y36111147D01*
X83750884Y36117292D01*
X83661620Y36155645D01*
X83626588Y36184780D01*
X82923430Y36887938D01*
X82869454Y36968720D01*
X82850500Y37064008D01*
X82850500Y43685993D01*
X82869454Y43781281D01*
X82923430Y43862063D01*
X85387937Y46326570D01*
X85468719Y46380546D01*
X85564007Y46399500D01*
X86659991Y46399500D01*
X86755279Y46380546D01*
X86836061Y46326570D01*
X86890037Y46245788D01*
X86899902Y46207109D01*
X86902326Y46207681D01*
X86905909Y46192516D01*
X86954684Y46061744D01*
X86956204Y46057669D01*
X87042454Y45942454D01*
X87157669Y45856204D01*
X87292517Y45805909D01*
X87352127Y45799500D01*
X89147872Y45799501D01*
X89207483Y45805909D01*
X89342331Y45856204D01*
X89457546Y45942454D01*
X89543796Y46057669D01*
X89594091Y46192517D01*
X89600500Y46252127D01*
X89600499Y48047872D01*
X89594091Y48107483D01*
X89543796Y48242331D01*
X89457546Y48357546D01*
X89342331Y48443796D01*
X89342329Y48443797D01*
X89328073Y48454469D01*
X89330543Y48457769D01*
X89281995Y48498354D01*
X89236976Y48584450D01*
X89228331Y48681219D01*
X89257376Y48773931D01*
X89285158Y48814622D01*
X89288494Y48818598D01*
X89288495Y48818599D01*
X89424035Y49012170D01*
X89523903Y49226337D01*
X89585063Y49454592D01*
X89585064Y49454599D01*
X89605659Y49689995D01*
X89605659Y49690006D01*
X89585064Y49925402D01*
X89585063Y49925405D01*
X89585063Y49925408D01*
X89523903Y50153663D01*
X89463957Y50282216D01*
X89424038Y50367823D01*
X89424034Y50367831D01*
X89341882Y50485156D01*
X89288495Y50561401D01*
X89121401Y50728495D01*
X89082074Y50756033D01*
X89014891Y50826211D01*
X88979678Y50916760D01*
X88981797Y51013892D01*
X89020925Y51102819D01*
X89082073Y51163968D01*
X89121401Y51191505D01*
X89288495Y51358599D01*
X89424035Y51552170D01*
X89523903Y51766337D01*
X89585063Y51994592D01*
X89585843Y52003504D01*
X89605659Y52229995D01*
X89605659Y52230006D01*
X89585064Y52465402D01*
X89585063Y52465405D01*
X89585063Y52465408D01*
X89523903Y52693663D01*
X89454041Y52843482D01*
X89424038Y52907823D01*
X89424034Y52907831D01*
X89316262Y53061745D01*
X89288495Y53101401D01*
X89121401Y53268495D01*
X89121397Y53268498D01*
X89121396Y53268499D01*
X89081638Y53296338D01*
X89014454Y53366519D01*
X88979242Y53457069D01*
X88981362Y53554200D01*
X89020491Y53643127D01*
X89081640Y53704276D01*
X89121075Y53731889D01*
X89288110Y53898924D01*
X89423600Y54092424D01*
X89523433Y54306515D01*
X89523433Y54306517D01*
X89580636Y54519999D01*
X89580636Y54520000D01*
X88683012Y54520000D01*
X88715925Y54577007D01*
X88750000Y54704174D01*
X88750000Y54835826D01*
X88715925Y54962993D01*
X88683012Y55020000D01*
X89580636Y55020000D01*
X89580636Y55020002D01*
X89523433Y55233484D01*
X89523429Y55233495D01*
X89423603Y55447572D01*
X89423599Y55447580D01*
X89288110Y55641077D01*
X89121076Y55808111D01*
X88927576Y55943601D01*
X88713484Y56043434D01*
X88500001Y56100637D01*
X88500000Y56100636D01*
X88500000Y55203012D01*
X88442993Y55235925D01*
X88315826Y55270000D01*
X88184174Y55270000D01*
X88057007Y55235925D01*
X88000000Y55203012D01*
X88000000Y56100636D01*
X87999998Y56100637D01*
X87786516Y56043434D01*
X87786505Y56043430D01*
X87572428Y55943604D01*
X87572420Y55943600D01*
X87378923Y55808111D01*
X87211889Y55641077D01*
X87076400Y55447580D01*
X87076396Y55447572D01*
X86976570Y55233495D01*
X86976566Y55233484D01*
X86919363Y55020002D01*
X86919364Y55020000D01*
X87816988Y55020000D01*
X87784075Y54962993D01*
X87750000Y54835826D01*
X87750000Y54704174D01*
X87784075Y54577007D01*
X87816988Y54520000D01*
X86919364Y54520000D01*
X86919363Y54519999D01*
X86976566Y54306517D01*
X86976566Y54306515D01*
X87076399Y54092424D01*
X87211889Y53898924D01*
X87378923Y53731890D01*
X87418361Y53704275D01*
X87485545Y53634093D01*
X87520757Y53543544D01*
X87518638Y53446412D01*
X87479509Y53357485D01*
X87418363Y53296339D01*
X87378602Y53268498D01*
X87211502Y53101398D01*
X87113672Y52961680D01*
X87043491Y52894496D01*
X86952942Y52859283D01*
X86909703Y52855500D01*
X81818387Y52855500D01*
X81757968Y52843482D01*
X81697551Y52831465D01*
X81697549Y52831464D01*
X81583710Y52784310D01*
X81583707Y52784308D01*
X81484152Y52717786D01*
X81484150Y52717785D01*
X81481268Y52715860D01*
X81110570Y52345161D01*
X81029788Y52291185D01*
X80934500Y52272231D01*
X80839212Y52291185D01*
X80758430Y52345161D01*
X80704454Y52425943D01*
X80685500Y52521231D01*
X80685500Y59347772D01*
X80704454Y59443060D01*
X80758426Y59523837D01*
X81561162Y60326574D01*
X81641941Y60380547D01*
X81737229Y60399501D01*
X82997866Y60399501D01*
X82997872Y60399501D01*
X83057483Y60405909D01*
X83192331Y60456204D01*
X83307546Y60542454D01*
X83348477Y60597131D01*
X83420753Y60662053D01*
X83512374Y60694375D01*
X83609390Y60689174D01*
G37*
%TD.AperFunction*%
%TA.AperFunction,Conductor*%
G36*
X64195788Y49030546D02*
G01*
X64276570Y48976570D01*
X64330546Y48895788D01*
X64349500Y48800500D01*
X64349500Y47910118D01*
X64380024Y47836426D01*
X64436426Y47780024D01*
X64510118Y47749500D01*
X64589882Y47749500D01*
X66300500Y47749500D01*
X66395788Y47730546D01*
X66476570Y47676570D01*
X66530546Y47595788D01*
X66549500Y47500500D01*
X66549500Y45374500D01*
X66530546Y45279212D01*
X66476570Y45198430D01*
X66395788Y45144454D01*
X66300500Y45125500D01*
X65262231Y45125500D01*
X65166943Y45144454D01*
X65086161Y45198430D01*
X63400758Y46883833D01*
X61660159Y48624431D01*
X61606184Y48705212D01*
X61587230Y48800500D01*
X61606184Y48895788D01*
X61660160Y48976570D01*
X61740942Y49030546D01*
X61836230Y49049500D01*
X64100500Y49049500D01*
X64195788Y49030546D01*
G37*
%TD.AperFunction*%
%TA.AperFunction,Conductor*%
G36*
X2708264Y54230546D02*
G01*
X2789046Y54176570D01*
X2843022Y54095788D01*
X2861976Y54000500D01*
X2843022Y53905212D01*
X2789046Y53824430D01*
X2757065Y53797425D01*
X2532855Y53638340D01*
X2464129Y53576925D01*
X3425095Y52615959D01*
X3314207Y52530870D01*
X3156630Y52373293D01*
X3071541Y52262405D01*
X2110574Y53223372D01*
X2006485Y53220450D01*
X1910703Y53236723D01*
X1828439Y53288412D01*
X1772218Y53367648D01*
X1750598Y53462367D01*
X1750500Y53469352D01*
X1750500Y53482440D01*
X1769454Y53577728D01*
X1823430Y53658510D01*
X2341490Y54176570D01*
X2422272Y54230546D01*
X2517560Y54249500D01*
X2612976Y54249500D01*
X2708264Y54230546D01*
G37*
%TD.AperFunction*%
%TD*%
M02*
