%TF.GenerationSoftware,KiCad,Pcbnew,8.0.6*%
%TF.CreationDate,2024-11-23T21:07:21+07:00*%
%TF.ProjectId,NO2C,4e4f3243-2e6b-4696-9361-645f70636258,vD1*%
%TF.SameCoordinates,Original*%
%TF.FileFunction,Soldermask,Bot*%
%TF.FilePolarity,Negative*%
%FSLAX46Y46*%
G04 Gerber Fmt 4.6, Leading zero omitted, Abs format (unit mm)*
G04 Created by KiCad (PCBNEW 8.0.6) date 2024-11-23 21:07:21*
%MOMM*%
%LPD*%
G01*
G04 APERTURE LIST*
G04 APERTURE END LIST*
G36*
X4034139Y6758106D02*
G01*
X4383272Y6681257D01*
X4722048Y6567110D01*
X5046497Y6417003D01*
X5352815Y6232698D01*
X5637411Y6016354D01*
X5896947Y5770509D01*
X6128381Y5498043D01*
X6329000Y5202153D01*
X6496451Y4886306D01*
X6628772Y4554206D01*
X6724410Y4209746D01*
X6782246Y3856966D01*
X6801600Y3500000D01*
X6782246Y3143034D01*
X6724410Y2790254D01*
X6628772Y2445794D01*
X6496451Y2113694D01*
X6329000Y1797847D01*
X6128381Y1501957D01*
X5896947Y1229491D01*
X5637411Y983646D01*
X5352815Y767302D01*
X5046497Y582997D01*
X4722048Y432890D01*
X4383272Y318743D01*
X4034139Y241894D01*
X3678745Y203242D01*
X3321255Y203242D01*
X2965861Y241894D01*
X2616728Y318743D01*
X2277952Y432890D01*
X1953503Y582997D01*
X1647185Y767302D01*
X1362589Y983646D01*
X1103053Y1229491D01*
X871619Y1501957D01*
X671000Y1797847D01*
X503549Y2113694D01*
X371228Y2445794D01*
X275590Y2790254D01*
X217754Y3143034D01*
X198400Y3500000D01*
X217754Y3856966D01*
X275590Y4209746D01*
X371228Y4554206D01*
X503549Y4886306D01*
X671000Y5202153D01*
X871619Y5498043D01*
X1103053Y5770509D01*
X1362589Y6016354D01*
X1647185Y6232698D01*
X1953503Y6417003D01*
X2277952Y6567110D01*
X2616728Y6681257D01*
X2965861Y6758106D01*
X3321255Y6796758D01*
X3678745Y6796758D01*
X4034139Y6758106D01*
G37*
G36*
X101784139Y6758106D02*
G01*
X102133272Y6681257D01*
X102472048Y6567110D01*
X102796497Y6417003D01*
X103102815Y6232698D01*
X103387411Y6016354D01*
X103646947Y5770509D01*
X103878381Y5498043D01*
X104079000Y5202153D01*
X104246451Y4886306D01*
X104378772Y4554206D01*
X104474410Y4209746D01*
X104532246Y3856966D01*
X104551600Y3500000D01*
X104532246Y3143034D01*
X104474410Y2790254D01*
X104378772Y2445794D01*
X104246451Y2113694D01*
X104079000Y1797847D01*
X103878381Y1501957D01*
X103646947Y1229491D01*
X103387411Y983646D01*
X103102815Y767302D01*
X102796497Y582997D01*
X102472048Y432890D01*
X102133272Y318743D01*
X101784139Y241894D01*
X101428745Y203242D01*
X101071255Y203242D01*
X100715861Y241894D01*
X100366728Y318743D01*
X100027952Y432890D01*
X99703503Y582997D01*
X99397185Y767302D01*
X99112589Y983646D01*
X98853053Y1229491D01*
X98621619Y1501957D01*
X98421000Y1797847D01*
X98253549Y2113694D01*
X98121228Y2445794D01*
X98025590Y2790254D01*
X97967754Y3143034D01*
X97948400Y3500000D01*
X97967754Y3856966D01*
X98025590Y4209746D01*
X98121228Y4554206D01*
X98253549Y4886306D01*
X98421000Y5202153D01*
X98621619Y5498043D01*
X98853053Y5770509D01*
X99112589Y6016354D01*
X99397185Y6232698D01*
X99703503Y6417003D01*
X100027952Y6567110D01*
X100366728Y6681257D01*
X100715861Y6758106D01*
X101071255Y6796758D01*
X101428745Y6796758D01*
X101784139Y6758106D01*
G37*
G36*
X11197659Y2798661D02*
G01*
X11244243Y2798661D01*
X11284468Y2790111D01*
X11325842Y2786036D01*
X11377821Y2770269D01*
X11428610Y2759473D01*
X11461108Y2745004D01*
X11494934Y2734743D01*
X11548690Y2706010D01*
X11600800Y2682809D01*
X11625025Y2665208D01*
X11650765Y2651450D01*
X11703273Y2608358D01*
X11753288Y2572019D01*
X11769527Y2553983D01*
X11787353Y2539354D01*
X11835254Y2480987D01*
X11879410Y2431947D01*
X11888685Y2415881D01*
X11899449Y2402766D01*
X11939262Y2328281D01*
X11973653Y2268714D01*
X11977609Y2256538D01*
X11982742Y2246935D01*
X12011041Y2153644D01*
X12031898Y2089453D01*
X12032632Y2082468D01*
X12034035Y2077843D01*
X12047689Y1939203D01*
X12051600Y1902000D01*
X12047689Y1864795D01*
X12034035Y1726158D01*
X12032632Y1721535D01*
X12031898Y1714547D01*
X12011036Y1650343D01*
X11982742Y1557066D01*
X11977610Y1547465D01*
X11973653Y1535286D01*
X11939255Y1475708D01*
X11899449Y1401235D01*
X11888687Y1388123D01*
X11879410Y1372053D01*
X11835245Y1323004D01*
X11787353Y1264647D01*
X11769531Y1250022D01*
X11753288Y1231981D01*
X11703262Y1195636D01*
X11650765Y1152551D01*
X11625030Y1138796D01*
X11600800Y1121191D01*
X11548679Y1097986D01*
X11494934Y1069258D01*
X11461115Y1059000D01*
X11428610Y1044527D01*
X11377810Y1033730D01*
X11325842Y1017965D01*
X11284476Y1013891D01*
X11244243Y1005339D01*
X11197649Y1005339D01*
X11150000Y1000646D01*
X11102351Y1005339D01*
X11055757Y1005339D01*
X11015523Y1013891D01*
X10974157Y1017965D01*
X10922185Y1033731D01*
X10871390Y1044527D01*
X10838886Y1058999D01*
X10805065Y1069258D01*
X10751314Y1097989D01*
X10699200Y1121191D01*
X10674972Y1138794D01*
X10649234Y1152551D01*
X10596728Y1195642D01*
X10546712Y1231981D01*
X10530471Y1250018D01*
X10512646Y1264647D01*
X10464743Y1323017D01*
X10420590Y1372053D01*
X10411314Y1388119D01*
X10400550Y1401235D01*
X10360731Y1475731D01*
X10326347Y1535286D01*
X10322391Y1547461D01*
X10317257Y1557066D01*
X10288948Y1650389D01*
X10268102Y1714547D01*
X10267368Y1721530D01*
X10265964Y1726158D01*
X10252294Y1864946D01*
X10248400Y1902000D01*
X10252294Y1939052D01*
X10265964Y2077843D01*
X10267368Y2082473D01*
X10268102Y2089453D01*
X10288943Y2153598D01*
X10317257Y2246935D01*
X10322392Y2256543D01*
X10326347Y2268714D01*
X10360724Y2328257D01*
X10400550Y2402766D01*
X10411316Y2415885D01*
X10420590Y2431947D01*
X10464733Y2480974D01*
X10512646Y2539354D01*
X10530474Y2553986D01*
X10546712Y2572019D01*
X10596718Y2608351D01*
X10649234Y2651450D01*
X10674977Y2665210D01*
X10699200Y2682809D01*
X10751303Y2706007D01*
X10805065Y2734743D01*
X10838893Y2745005D01*
X10871390Y2759473D01*
X10922174Y2770268D01*
X10974157Y2786036D01*
X11015532Y2790112D01*
X11055757Y2798661D01*
X11102341Y2798661D01*
X11150000Y2803355D01*
X11197659Y2798661D01*
G37*
G36*
X13737659Y2798661D02*
G01*
X13784243Y2798661D01*
X13824468Y2790111D01*
X13865842Y2786036D01*
X13917821Y2770269D01*
X13968610Y2759473D01*
X14001108Y2745004D01*
X14034934Y2734743D01*
X14088690Y2706010D01*
X14140800Y2682809D01*
X14165025Y2665208D01*
X14190765Y2651450D01*
X14243273Y2608358D01*
X14293288Y2572019D01*
X14309527Y2553983D01*
X14327353Y2539354D01*
X14375254Y2480987D01*
X14419410Y2431947D01*
X14428685Y2415881D01*
X14439449Y2402766D01*
X14479262Y2328281D01*
X14513653Y2268714D01*
X14517609Y2256538D01*
X14522742Y2246935D01*
X14551041Y2153644D01*
X14571898Y2089453D01*
X14572632Y2082468D01*
X14574035Y2077843D01*
X14587689Y1939203D01*
X14591600Y1902000D01*
X14587689Y1864795D01*
X14574035Y1726158D01*
X14572632Y1721535D01*
X14571898Y1714547D01*
X14551036Y1650343D01*
X14522742Y1557066D01*
X14517610Y1547465D01*
X14513653Y1535286D01*
X14479255Y1475708D01*
X14439449Y1401235D01*
X14428687Y1388123D01*
X14419410Y1372053D01*
X14375245Y1323004D01*
X14327353Y1264647D01*
X14309531Y1250022D01*
X14293288Y1231981D01*
X14243262Y1195636D01*
X14190765Y1152551D01*
X14165030Y1138796D01*
X14140800Y1121191D01*
X14088679Y1097986D01*
X14034934Y1069258D01*
X14001115Y1059000D01*
X13968610Y1044527D01*
X13917810Y1033730D01*
X13865842Y1017965D01*
X13824476Y1013891D01*
X13784243Y1005339D01*
X13737649Y1005339D01*
X13690000Y1000646D01*
X13642351Y1005339D01*
X13595757Y1005339D01*
X13555523Y1013891D01*
X13514157Y1017965D01*
X13462185Y1033731D01*
X13411390Y1044527D01*
X13378886Y1058999D01*
X13345065Y1069258D01*
X13291314Y1097989D01*
X13239200Y1121191D01*
X13214972Y1138794D01*
X13189234Y1152551D01*
X13136728Y1195642D01*
X13086712Y1231981D01*
X13070471Y1250018D01*
X13052646Y1264647D01*
X13004743Y1323017D01*
X12960590Y1372053D01*
X12951314Y1388119D01*
X12940550Y1401235D01*
X12900731Y1475731D01*
X12866347Y1535286D01*
X12862391Y1547461D01*
X12857257Y1557066D01*
X12828948Y1650389D01*
X12808102Y1714547D01*
X12807368Y1721530D01*
X12805964Y1726158D01*
X12792294Y1864946D01*
X12788400Y1902000D01*
X12792294Y1939052D01*
X12805964Y2077843D01*
X12807368Y2082473D01*
X12808102Y2089453D01*
X12828943Y2153598D01*
X12857257Y2246935D01*
X12862392Y2256543D01*
X12866347Y2268714D01*
X12900724Y2328257D01*
X12940550Y2402766D01*
X12951316Y2415885D01*
X12960590Y2431947D01*
X13004733Y2480974D01*
X13052646Y2539354D01*
X13070474Y2553986D01*
X13086712Y2572019D01*
X13136718Y2608351D01*
X13189234Y2651450D01*
X13214977Y2665210D01*
X13239200Y2682809D01*
X13291303Y2706007D01*
X13345065Y2734743D01*
X13378893Y2745005D01*
X13411390Y2759473D01*
X13462174Y2770268D01*
X13514157Y2786036D01*
X13555532Y2790112D01*
X13595757Y2798661D01*
X13642341Y2798661D01*
X13690000Y2803355D01*
X13737659Y2798661D01*
G37*
G36*
X16277659Y2798661D02*
G01*
X16324243Y2798661D01*
X16364468Y2790111D01*
X16405842Y2786036D01*
X16457821Y2770269D01*
X16508610Y2759473D01*
X16541108Y2745004D01*
X16574934Y2734743D01*
X16628690Y2706010D01*
X16680800Y2682809D01*
X16705025Y2665208D01*
X16730765Y2651450D01*
X16783273Y2608358D01*
X16833288Y2572019D01*
X16849527Y2553983D01*
X16867353Y2539354D01*
X16915254Y2480987D01*
X16959410Y2431947D01*
X16968685Y2415881D01*
X16979449Y2402766D01*
X17019262Y2328281D01*
X17053653Y2268714D01*
X17057609Y2256538D01*
X17062742Y2246935D01*
X17091041Y2153644D01*
X17111898Y2089453D01*
X17112632Y2082468D01*
X17114035Y2077843D01*
X17127689Y1939203D01*
X17131600Y1902000D01*
X17127689Y1864795D01*
X17114035Y1726158D01*
X17112632Y1721535D01*
X17111898Y1714547D01*
X17091036Y1650343D01*
X17062742Y1557066D01*
X17057610Y1547465D01*
X17053653Y1535286D01*
X17019255Y1475708D01*
X16979449Y1401235D01*
X16968687Y1388123D01*
X16959410Y1372053D01*
X16915245Y1323004D01*
X16867353Y1264647D01*
X16849531Y1250022D01*
X16833288Y1231981D01*
X16783262Y1195636D01*
X16730765Y1152551D01*
X16705030Y1138796D01*
X16680800Y1121191D01*
X16628679Y1097986D01*
X16574934Y1069258D01*
X16541115Y1059000D01*
X16508610Y1044527D01*
X16457810Y1033730D01*
X16405842Y1017965D01*
X16364476Y1013891D01*
X16324243Y1005339D01*
X16277649Y1005339D01*
X16230000Y1000646D01*
X16182351Y1005339D01*
X16135757Y1005339D01*
X16095523Y1013891D01*
X16054157Y1017965D01*
X16002185Y1033731D01*
X15951390Y1044527D01*
X15918886Y1058999D01*
X15885065Y1069258D01*
X15831314Y1097989D01*
X15779200Y1121191D01*
X15754972Y1138794D01*
X15729234Y1152551D01*
X15676728Y1195642D01*
X15626712Y1231981D01*
X15610471Y1250018D01*
X15592646Y1264647D01*
X15544743Y1323017D01*
X15500590Y1372053D01*
X15491314Y1388119D01*
X15480550Y1401235D01*
X15440731Y1475731D01*
X15406347Y1535286D01*
X15402391Y1547461D01*
X15397257Y1557066D01*
X15368948Y1650389D01*
X15348102Y1714547D01*
X15347368Y1721530D01*
X15345964Y1726158D01*
X15332294Y1864946D01*
X15328400Y1902000D01*
X15332294Y1939052D01*
X15345964Y2077843D01*
X15347368Y2082473D01*
X15348102Y2089453D01*
X15368943Y2153598D01*
X15397257Y2246935D01*
X15402392Y2256543D01*
X15406347Y2268714D01*
X15440724Y2328257D01*
X15480550Y2402766D01*
X15491316Y2415885D01*
X15500590Y2431947D01*
X15544733Y2480974D01*
X15592646Y2539354D01*
X15610474Y2553986D01*
X15626712Y2572019D01*
X15676718Y2608351D01*
X15729234Y2651450D01*
X15754977Y2665210D01*
X15779200Y2682809D01*
X15831303Y2706007D01*
X15885065Y2734743D01*
X15918893Y2745005D01*
X15951390Y2759473D01*
X16002174Y2770268D01*
X16054157Y2786036D01*
X16095532Y2790112D01*
X16135757Y2798661D01*
X16182341Y2798661D01*
X16230000Y2803355D01*
X16277659Y2798661D01*
G37*
G36*
X18817659Y2798661D02*
G01*
X18864243Y2798661D01*
X18904468Y2790111D01*
X18945842Y2786036D01*
X18997821Y2770269D01*
X19048610Y2759473D01*
X19081108Y2745004D01*
X19114934Y2734743D01*
X19168690Y2706010D01*
X19220800Y2682809D01*
X19245025Y2665208D01*
X19270765Y2651450D01*
X19323273Y2608358D01*
X19373288Y2572019D01*
X19389527Y2553983D01*
X19407353Y2539354D01*
X19455254Y2480987D01*
X19499410Y2431947D01*
X19508685Y2415881D01*
X19519449Y2402766D01*
X19559262Y2328281D01*
X19593653Y2268714D01*
X19597609Y2256538D01*
X19602742Y2246935D01*
X19631041Y2153644D01*
X19651898Y2089453D01*
X19652632Y2082468D01*
X19654035Y2077843D01*
X19667689Y1939203D01*
X19671600Y1902000D01*
X19667689Y1864795D01*
X19654035Y1726158D01*
X19652632Y1721535D01*
X19651898Y1714547D01*
X19631036Y1650343D01*
X19602742Y1557066D01*
X19597610Y1547465D01*
X19593653Y1535286D01*
X19559255Y1475708D01*
X19519449Y1401235D01*
X19508687Y1388123D01*
X19499410Y1372053D01*
X19455245Y1323004D01*
X19407353Y1264647D01*
X19389531Y1250022D01*
X19373288Y1231981D01*
X19323262Y1195636D01*
X19270765Y1152551D01*
X19245030Y1138796D01*
X19220800Y1121191D01*
X19168679Y1097986D01*
X19114934Y1069258D01*
X19081115Y1059000D01*
X19048610Y1044527D01*
X18997810Y1033730D01*
X18945842Y1017965D01*
X18904476Y1013891D01*
X18864243Y1005339D01*
X18817649Y1005339D01*
X18770000Y1000646D01*
X18722351Y1005339D01*
X18675757Y1005339D01*
X18635523Y1013891D01*
X18594157Y1017965D01*
X18542185Y1033731D01*
X18491390Y1044527D01*
X18458886Y1058999D01*
X18425065Y1069258D01*
X18371314Y1097989D01*
X18319200Y1121191D01*
X18294972Y1138794D01*
X18269234Y1152551D01*
X18216728Y1195642D01*
X18166712Y1231981D01*
X18150471Y1250018D01*
X18132646Y1264647D01*
X18084743Y1323017D01*
X18040590Y1372053D01*
X18031314Y1388119D01*
X18020550Y1401235D01*
X17980731Y1475731D01*
X17946347Y1535286D01*
X17942391Y1547461D01*
X17937257Y1557066D01*
X17908948Y1650389D01*
X17888102Y1714547D01*
X17887368Y1721530D01*
X17885964Y1726158D01*
X17872294Y1864946D01*
X17868400Y1902000D01*
X17872294Y1939052D01*
X17885964Y2077843D01*
X17887368Y2082473D01*
X17888102Y2089453D01*
X17908943Y2153598D01*
X17937257Y2246935D01*
X17942392Y2256543D01*
X17946347Y2268714D01*
X17980724Y2328257D01*
X18020550Y2402766D01*
X18031316Y2415885D01*
X18040590Y2431947D01*
X18084733Y2480974D01*
X18132646Y2539354D01*
X18150474Y2553986D01*
X18166712Y2572019D01*
X18216718Y2608351D01*
X18269234Y2651450D01*
X18294977Y2665210D01*
X18319200Y2682809D01*
X18371303Y2706007D01*
X18425065Y2734743D01*
X18458893Y2745005D01*
X18491390Y2759473D01*
X18542174Y2770268D01*
X18594157Y2786036D01*
X18635532Y2790112D01*
X18675757Y2798661D01*
X18722341Y2798661D01*
X18770000Y2803355D01*
X18817659Y2798661D01*
G37*
G36*
X21357659Y2798661D02*
G01*
X21404243Y2798661D01*
X21444468Y2790111D01*
X21485842Y2786036D01*
X21537821Y2770269D01*
X21588610Y2759473D01*
X21621108Y2745004D01*
X21654934Y2734743D01*
X21708690Y2706010D01*
X21760800Y2682809D01*
X21785025Y2665208D01*
X21810765Y2651450D01*
X21863273Y2608358D01*
X21913288Y2572019D01*
X21929527Y2553983D01*
X21947353Y2539354D01*
X21995254Y2480987D01*
X22039410Y2431947D01*
X22048685Y2415881D01*
X22059449Y2402766D01*
X22099262Y2328281D01*
X22133653Y2268714D01*
X22137609Y2256538D01*
X22142742Y2246935D01*
X22171041Y2153644D01*
X22191898Y2089453D01*
X22192632Y2082468D01*
X22194035Y2077843D01*
X22207689Y1939203D01*
X22211600Y1902000D01*
X22207689Y1864795D01*
X22194035Y1726158D01*
X22192632Y1721535D01*
X22191898Y1714547D01*
X22171036Y1650343D01*
X22142742Y1557066D01*
X22137610Y1547465D01*
X22133653Y1535286D01*
X22099255Y1475708D01*
X22059449Y1401235D01*
X22048687Y1388123D01*
X22039410Y1372053D01*
X21995245Y1323004D01*
X21947353Y1264647D01*
X21929531Y1250022D01*
X21913288Y1231981D01*
X21863262Y1195636D01*
X21810765Y1152551D01*
X21785030Y1138796D01*
X21760800Y1121191D01*
X21708679Y1097986D01*
X21654934Y1069258D01*
X21621115Y1059000D01*
X21588610Y1044527D01*
X21537810Y1033730D01*
X21485842Y1017965D01*
X21444476Y1013891D01*
X21404243Y1005339D01*
X21357649Y1005339D01*
X21310000Y1000646D01*
X21262351Y1005339D01*
X21215757Y1005339D01*
X21175523Y1013891D01*
X21134157Y1017965D01*
X21082185Y1033731D01*
X21031390Y1044527D01*
X20998886Y1058999D01*
X20965065Y1069258D01*
X20911314Y1097989D01*
X20859200Y1121191D01*
X20834972Y1138794D01*
X20809234Y1152551D01*
X20756728Y1195642D01*
X20706712Y1231981D01*
X20690471Y1250018D01*
X20672646Y1264647D01*
X20624743Y1323017D01*
X20580590Y1372053D01*
X20571314Y1388119D01*
X20560550Y1401235D01*
X20520731Y1475731D01*
X20486347Y1535286D01*
X20482391Y1547461D01*
X20477257Y1557066D01*
X20448948Y1650389D01*
X20428102Y1714547D01*
X20427368Y1721530D01*
X20425964Y1726158D01*
X20412294Y1864946D01*
X20408400Y1902000D01*
X20412294Y1939052D01*
X20425964Y2077843D01*
X20427368Y2082473D01*
X20428102Y2089453D01*
X20448943Y2153598D01*
X20477257Y2246935D01*
X20482392Y2256543D01*
X20486347Y2268714D01*
X20520724Y2328257D01*
X20560550Y2402766D01*
X20571316Y2415885D01*
X20580590Y2431947D01*
X20624733Y2480974D01*
X20672646Y2539354D01*
X20690474Y2553986D01*
X20706712Y2572019D01*
X20756718Y2608351D01*
X20809234Y2651450D01*
X20834977Y2665210D01*
X20859200Y2682809D01*
X20911303Y2706007D01*
X20965065Y2734743D01*
X20998893Y2745005D01*
X21031390Y2759473D01*
X21082174Y2770268D01*
X21134157Y2786036D01*
X21175532Y2790112D01*
X21215757Y2798661D01*
X21262341Y2798661D01*
X21310000Y2803355D01*
X21357659Y2798661D01*
G37*
G36*
X23897659Y2798661D02*
G01*
X23944243Y2798661D01*
X23984468Y2790111D01*
X24025842Y2786036D01*
X24077821Y2770269D01*
X24128610Y2759473D01*
X24161108Y2745004D01*
X24194934Y2734743D01*
X24248690Y2706010D01*
X24300800Y2682809D01*
X24325025Y2665208D01*
X24350765Y2651450D01*
X24403273Y2608358D01*
X24453288Y2572019D01*
X24469527Y2553983D01*
X24487353Y2539354D01*
X24535254Y2480987D01*
X24579410Y2431947D01*
X24588685Y2415881D01*
X24599449Y2402766D01*
X24639262Y2328281D01*
X24673653Y2268714D01*
X24677609Y2256538D01*
X24682742Y2246935D01*
X24711041Y2153644D01*
X24731898Y2089453D01*
X24732632Y2082468D01*
X24734035Y2077843D01*
X24747689Y1939203D01*
X24751600Y1902000D01*
X24747689Y1864795D01*
X24734035Y1726158D01*
X24732632Y1721535D01*
X24731898Y1714547D01*
X24711036Y1650343D01*
X24682742Y1557066D01*
X24677610Y1547465D01*
X24673653Y1535286D01*
X24639255Y1475708D01*
X24599449Y1401235D01*
X24588687Y1388123D01*
X24579410Y1372053D01*
X24535245Y1323004D01*
X24487353Y1264647D01*
X24469531Y1250022D01*
X24453288Y1231981D01*
X24403262Y1195636D01*
X24350765Y1152551D01*
X24325030Y1138796D01*
X24300800Y1121191D01*
X24248679Y1097986D01*
X24194934Y1069258D01*
X24161115Y1059000D01*
X24128610Y1044527D01*
X24077810Y1033730D01*
X24025842Y1017965D01*
X23984476Y1013891D01*
X23944243Y1005339D01*
X23897649Y1005339D01*
X23850000Y1000646D01*
X23802351Y1005339D01*
X23755757Y1005339D01*
X23715523Y1013891D01*
X23674157Y1017965D01*
X23622185Y1033731D01*
X23571390Y1044527D01*
X23538886Y1058999D01*
X23505065Y1069258D01*
X23451314Y1097989D01*
X23399200Y1121191D01*
X23374972Y1138794D01*
X23349234Y1152551D01*
X23296728Y1195642D01*
X23246712Y1231981D01*
X23230471Y1250018D01*
X23212646Y1264647D01*
X23164743Y1323017D01*
X23120590Y1372053D01*
X23111314Y1388119D01*
X23100550Y1401235D01*
X23060731Y1475731D01*
X23026347Y1535286D01*
X23022391Y1547461D01*
X23017257Y1557066D01*
X22988948Y1650389D01*
X22968102Y1714547D01*
X22967368Y1721530D01*
X22965964Y1726158D01*
X22952294Y1864946D01*
X22948400Y1902000D01*
X22952294Y1939052D01*
X22965964Y2077843D01*
X22967368Y2082473D01*
X22968102Y2089453D01*
X22988943Y2153598D01*
X23017257Y2246935D01*
X23022392Y2256543D01*
X23026347Y2268714D01*
X23060724Y2328257D01*
X23100550Y2402766D01*
X23111316Y2415885D01*
X23120590Y2431947D01*
X23164733Y2480974D01*
X23212646Y2539354D01*
X23230474Y2553986D01*
X23246712Y2572019D01*
X23296718Y2608351D01*
X23349234Y2651450D01*
X23374977Y2665210D01*
X23399200Y2682809D01*
X23451303Y2706007D01*
X23505065Y2734743D01*
X23538893Y2745005D01*
X23571390Y2759473D01*
X23622174Y2770268D01*
X23674157Y2786036D01*
X23715532Y2790112D01*
X23755757Y2798661D01*
X23802341Y2798661D01*
X23850000Y2803355D01*
X23897659Y2798661D01*
G37*
G36*
X26437659Y2798661D02*
G01*
X26484243Y2798661D01*
X26524468Y2790111D01*
X26565842Y2786036D01*
X26617821Y2770269D01*
X26668610Y2759473D01*
X26701108Y2745004D01*
X26734934Y2734743D01*
X26788690Y2706010D01*
X26840800Y2682809D01*
X26865025Y2665208D01*
X26890765Y2651450D01*
X26943273Y2608358D01*
X26993288Y2572019D01*
X27009527Y2553983D01*
X27027353Y2539354D01*
X27075254Y2480987D01*
X27119410Y2431947D01*
X27128685Y2415881D01*
X27139449Y2402766D01*
X27179262Y2328281D01*
X27213653Y2268714D01*
X27217609Y2256538D01*
X27222742Y2246935D01*
X27251041Y2153644D01*
X27271898Y2089453D01*
X27272632Y2082468D01*
X27274035Y2077843D01*
X27287689Y1939203D01*
X27291600Y1902000D01*
X27287689Y1864795D01*
X27274035Y1726158D01*
X27272632Y1721535D01*
X27271898Y1714547D01*
X27251036Y1650343D01*
X27222742Y1557066D01*
X27217610Y1547465D01*
X27213653Y1535286D01*
X27179255Y1475708D01*
X27139449Y1401235D01*
X27128687Y1388123D01*
X27119410Y1372053D01*
X27075245Y1323004D01*
X27027353Y1264647D01*
X27009531Y1250022D01*
X26993288Y1231981D01*
X26943262Y1195636D01*
X26890765Y1152551D01*
X26865030Y1138796D01*
X26840800Y1121191D01*
X26788679Y1097986D01*
X26734934Y1069258D01*
X26701115Y1059000D01*
X26668610Y1044527D01*
X26617810Y1033730D01*
X26565842Y1017965D01*
X26524476Y1013891D01*
X26484243Y1005339D01*
X26437649Y1005339D01*
X26390000Y1000646D01*
X26342351Y1005339D01*
X26295757Y1005339D01*
X26255523Y1013891D01*
X26214157Y1017965D01*
X26162185Y1033731D01*
X26111390Y1044527D01*
X26078886Y1058999D01*
X26045065Y1069258D01*
X25991314Y1097989D01*
X25939200Y1121191D01*
X25914972Y1138794D01*
X25889234Y1152551D01*
X25836728Y1195642D01*
X25786712Y1231981D01*
X25770471Y1250018D01*
X25752646Y1264647D01*
X25704743Y1323017D01*
X25660590Y1372053D01*
X25651314Y1388119D01*
X25640550Y1401235D01*
X25600731Y1475731D01*
X25566347Y1535286D01*
X25562391Y1547461D01*
X25557257Y1557066D01*
X25528948Y1650389D01*
X25508102Y1714547D01*
X25507368Y1721530D01*
X25505964Y1726158D01*
X25492294Y1864946D01*
X25488400Y1902000D01*
X25492294Y1939052D01*
X25505964Y2077843D01*
X25507368Y2082473D01*
X25508102Y2089453D01*
X25528943Y2153598D01*
X25557257Y2246935D01*
X25562392Y2256543D01*
X25566347Y2268714D01*
X25600724Y2328257D01*
X25640550Y2402766D01*
X25651316Y2415885D01*
X25660590Y2431947D01*
X25704733Y2480974D01*
X25752646Y2539354D01*
X25770474Y2553986D01*
X25786712Y2572019D01*
X25836718Y2608351D01*
X25889234Y2651450D01*
X25914977Y2665210D01*
X25939200Y2682809D01*
X25991303Y2706007D01*
X26045065Y2734743D01*
X26078893Y2745005D01*
X26111390Y2759473D01*
X26162174Y2770268D01*
X26214157Y2786036D01*
X26255532Y2790112D01*
X26295757Y2798661D01*
X26342341Y2798661D01*
X26390000Y2803355D01*
X26437659Y2798661D01*
G37*
G36*
X28977659Y2798661D02*
G01*
X29024243Y2798661D01*
X29064468Y2790111D01*
X29105842Y2786036D01*
X29157821Y2770269D01*
X29208610Y2759473D01*
X29241108Y2745004D01*
X29274934Y2734743D01*
X29328690Y2706010D01*
X29380800Y2682809D01*
X29405025Y2665208D01*
X29430765Y2651450D01*
X29483273Y2608358D01*
X29533288Y2572019D01*
X29549527Y2553983D01*
X29567353Y2539354D01*
X29615254Y2480987D01*
X29659410Y2431947D01*
X29668685Y2415881D01*
X29679449Y2402766D01*
X29719262Y2328281D01*
X29753653Y2268714D01*
X29757609Y2256538D01*
X29762742Y2246935D01*
X29791041Y2153644D01*
X29811898Y2089453D01*
X29812632Y2082468D01*
X29814035Y2077843D01*
X29827689Y1939203D01*
X29831600Y1902000D01*
X29827689Y1864795D01*
X29814035Y1726158D01*
X29812632Y1721535D01*
X29811898Y1714547D01*
X29791036Y1650343D01*
X29762742Y1557066D01*
X29757610Y1547465D01*
X29753653Y1535286D01*
X29719255Y1475708D01*
X29679449Y1401235D01*
X29668687Y1388123D01*
X29659410Y1372053D01*
X29615245Y1323004D01*
X29567353Y1264647D01*
X29549531Y1250022D01*
X29533288Y1231981D01*
X29483262Y1195636D01*
X29430765Y1152551D01*
X29405030Y1138796D01*
X29380800Y1121191D01*
X29328679Y1097986D01*
X29274934Y1069258D01*
X29241115Y1059000D01*
X29208610Y1044527D01*
X29157810Y1033730D01*
X29105842Y1017965D01*
X29064476Y1013891D01*
X29024243Y1005339D01*
X28977649Y1005339D01*
X28930000Y1000646D01*
X28882351Y1005339D01*
X28835757Y1005339D01*
X28795523Y1013891D01*
X28754157Y1017965D01*
X28702185Y1033731D01*
X28651390Y1044527D01*
X28618886Y1058999D01*
X28585065Y1069258D01*
X28531314Y1097989D01*
X28479200Y1121191D01*
X28454972Y1138794D01*
X28429234Y1152551D01*
X28376728Y1195642D01*
X28326712Y1231981D01*
X28310471Y1250018D01*
X28292646Y1264647D01*
X28244743Y1323017D01*
X28200590Y1372053D01*
X28191314Y1388119D01*
X28180550Y1401235D01*
X28140731Y1475731D01*
X28106347Y1535286D01*
X28102391Y1547461D01*
X28097257Y1557066D01*
X28068948Y1650389D01*
X28048102Y1714547D01*
X28047368Y1721530D01*
X28045964Y1726158D01*
X28032294Y1864946D01*
X28028400Y1902000D01*
X28032294Y1939052D01*
X28045964Y2077843D01*
X28047368Y2082473D01*
X28048102Y2089453D01*
X28068943Y2153598D01*
X28097257Y2246935D01*
X28102392Y2256543D01*
X28106347Y2268714D01*
X28140724Y2328257D01*
X28180550Y2402766D01*
X28191316Y2415885D01*
X28200590Y2431947D01*
X28244733Y2480974D01*
X28292646Y2539354D01*
X28310474Y2553986D01*
X28326712Y2572019D01*
X28376718Y2608351D01*
X28429234Y2651450D01*
X28454977Y2665210D01*
X28479200Y2682809D01*
X28531303Y2706007D01*
X28585065Y2734743D01*
X28618893Y2745005D01*
X28651390Y2759473D01*
X28702174Y2770268D01*
X28754157Y2786036D01*
X28795532Y2790112D01*
X28835757Y2798661D01*
X28882341Y2798661D01*
X28930000Y2803355D01*
X28977659Y2798661D01*
G37*
G36*
X4757115Y15382267D02*
G01*
X5072069Y15324549D01*
X5377770Y15229289D01*
X5669760Y15097875D01*
X5943780Y14932224D01*
X6195836Y14734751D01*
X6422251Y14508336D01*
X6619724Y14256280D01*
X6785375Y13982260D01*
X6916789Y13690270D01*
X7012049Y13384569D01*
X7069767Y13069615D01*
X7089100Y12750000D01*
X7069767Y12430385D01*
X7012049Y12115431D01*
X6916789Y11809730D01*
X6785375Y11517740D01*
X6619724Y11243720D01*
X6422251Y10991664D01*
X6195836Y10765249D01*
X5943780Y10567776D01*
X5669760Y10402125D01*
X5377770Y10270711D01*
X5072069Y10175451D01*
X4757115Y10117733D01*
X4437500Y10098400D01*
X4117885Y10117733D01*
X3802931Y10175451D01*
X3497230Y10270711D01*
X3205240Y10402125D01*
X2931220Y10567776D01*
X2679164Y10765249D01*
X2452749Y10991664D01*
X2255276Y11243720D01*
X2089625Y11517740D01*
X1958211Y11809730D01*
X1862951Y12115431D01*
X1805233Y12430385D01*
X1785900Y12750000D01*
X1805233Y13069615D01*
X1862951Y13384569D01*
X1958211Y13690270D01*
X2089625Y13982260D01*
X2255276Y14256280D01*
X2452749Y14508336D01*
X2679164Y14734751D01*
X2931220Y14932224D01*
X3205240Y15097875D01*
X3497230Y15229289D01*
X3802931Y15324549D01*
X4117885Y15382267D01*
X4437500Y15401600D01*
X4757115Y15382267D01*
G37*
G36*
X14528881Y15495866D02*
G01*
X14561842Y15473842D01*
X14583866Y15440881D01*
X14591600Y15402000D01*
X14591600Y13802000D01*
X14583866Y13763119D01*
X14561842Y13730158D01*
X14528881Y13708134D01*
X14490000Y13700400D01*
X12890000Y13700400D01*
X12851119Y13708134D01*
X12818158Y13730158D01*
X12796134Y13763119D01*
X12788400Y13802000D01*
X12788400Y15402000D01*
X12796134Y15440881D01*
X12818158Y15473842D01*
X12851119Y15495866D01*
X12890000Y15503600D01*
X14490000Y15503600D01*
X14528881Y15495866D01*
G37*
G36*
X29768881Y15495866D02*
G01*
X29801842Y15473842D01*
X29823866Y15440881D01*
X29831600Y15402000D01*
X29831600Y13802000D01*
X29823866Y13763119D01*
X29801842Y13730158D01*
X29768881Y13708134D01*
X29730000Y13700400D01*
X28130000Y13700400D01*
X28091119Y13708134D01*
X28058158Y13730158D01*
X28036134Y13763119D01*
X28028400Y13802000D01*
X28028400Y15402000D01*
X28036134Y15440881D01*
X28058158Y15473842D01*
X28091119Y15495866D01*
X28130000Y15503600D01*
X29730000Y15503600D01*
X29768881Y15495866D01*
G37*
G36*
X11197659Y15498661D02*
G01*
X11244243Y15498661D01*
X11284468Y15490111D01*
X11325842Y15486036D01*
X11377821Y15470269D01*
X11428610Y15459473D01*
X11461108Y15445004D01*
X11494934Y15434743D01*
X11548690Y15406010D01*
X11600800Y15382809D01*
X11625025Y15365208D01*
X11650765Y15351450D01*
X11703273Y15308358D01*
X11753288Y15272019D01*
X11769527Y15253983D01*
X11787353Y15239354D01*
X11835254Y15180987D01*
X11879410Y15131947D01*
X11888685Y15115881D01*
X11899449Y15102766D01*
X11939262Y15028281D01*
X11973653Y14968714D01*
X11977609Y14956538D01*
X11982742Y14946935D01*
X12011041Y14853644D01*
X12031898Y14789453D01*
X12032632Y14782468D01*
X12034035Y14777843D01*
X12047689Y14639203D01*
X12051600Y14602000D01*
X12047689Y14564795D01*
X12034035Y14426158D01*
X12032632Y14421535D01*
X12031898Y14414547D01*
X12011036Y14350343D01*
X11982742Y14257066D01*
X11977610Y14247465D01*
X11973653Y14235286D01*
X11939255Y14175708D01*
X11899449Y14101235D01*
X11888687Y14088123D01*
X11879410Y14072053D01*
X11835245Y14023004D01*
X11787353Y13964647D01*
X11769531Y13950022D01*
X11753288Y13931981D01*
X11703262Y13895636D01*
X11650765Y13852551D01*
X11625030Y13838796D01*
X11600800Y13821191D01*
X11548679Y13797986D01*
X11494934Y13769258D01*
X11461115Y13759000D01*
X11428610Y13744527D01*
X11377810Y13733730D01*
X11325842Y13717965D01*
X11284476Y13713891D01*
X11244243Y13705339D01*
X11197649Y13705339D01*
X11150000Y13700646D01*
X11102351Y13705339D01*
X11055757Y13705339D01*
X11015523Y13713891D01*
X10974157Y13717965D01*
X10922185Y13733731D01*
X10871390Y13744527D01*
X10838886Y13758999D01*
X10805065Y13769258D01*
X10751314Y13797989D01*
X10699200Y13821191D01*
X10674972Y13838794D01*
X10649234Y13852551D01*
X10596728Y13895642D01*
X10546712Y13931981D01*
X10530471Y13950018D01*
X10512646Y13964647D01*
X10464743Y14023017D01*
X10420590Y14072053D01*
X10411314Y14088119D01*
X10400550Y14101235D01*
X10360731Y14175731D01*
X10326347Y14235286D01*
X10322391Y14247461D01*
X10317257Y14257066D01*
X10288948Y14350389D01*
X10268102Y14414547D01*
X10267368Y14421530D01*
X10265964Y14426158D01*
X10252294Y14564946D01*
X10248400Y14602000D01*
X10252294Y14639052D01*
X10265964Y14777843D01*
X10267368Y14782473D01*
X10268102Y14789453D01*
X10288943Y14853598D01*
X10317257Y14946935D01*
X10322392Y14956543D01*
X10326347Y14968714D01*
X10360724Y15028257D01*
X10400550Y15102766D01*
X10411316Y15115885D01*
X10420590Y15131947D01*
X10464733Y15180974D01*
X10512646Y15239354D01*
X10530474Y15253986D01*
X10546712Y15272019D01*
X10596718Y15308351D01*
X10649234Y15351450D01*
X10674977Y15365210D01*
X10699200Y15382809D01*
X10751303Y15406007D01*
X10805065Y15434743D01*
X10838893Y15445005D01*
X10871390Y15459473D01*
X10922174Y15470268D01*
X10974157Y15486036D01*
X11015532Y15490112D01*
X11055757Y15498661D01*
X11102341Y15498661D01*
X11150000Y15503355D01*
X11197659Y15498661D01*
G37*
G36*
X16277659Y15498661D02*
G01*
X16324243Y15498661D01*
X16364468Y15490111D01*
X16405842Y15486036D01*
X16457821Y15470269D01*
X16508610Y15459473D01*
X16541108Y15445004D01*
X16574934Y15434743D01*
X16628690Y15406010D01*
X16680800Y15382809D01*
X16705025Y15365208D01*
X16730765Y15351450D01*
X16783273Y15308358D01*
X16833288Y15272019D01*
X16849527Y15253983D01*
X16867353Y15239354D01*
X16915254Y15180987D01*
X16959410Y15131947D01*
X16968685Y15115881D01*
X16979449Y15102766D01*
X17019262Y15028281D01*
X17053653Y14968714D01*
X17057609Y14956538D01*
X17062742Y14946935D01*
X17091041Y14853644D01*
X17111898Y14789453D01*
X17112632Y14782468D01*
X17114035Y14777843D01*
X17127689Y14639203D01*
X17131600Y14602000D01*
X17127689Y14564795D01*
X17114035Y14426158D01*
X17112632Y14421535D01*
X17111898Y14414547D01*
X17091036Y14350343D01*
X17062742Y14257066D01*
X17057610Y14247465D01*
X17053653Y14235286D01*
X17019255Y14175708D01*
X16979449Y14101235D01*
X16968687Y14088123D01*
X16959410Y14072053D01*
X16915245Y14023004D01*
X16867353Y13964647D01*
X16849531Y13950022D01*
X16833288Y13931981D01*
X16783262Y13895636D01*
X16730765Y13852551D01*
X16705030Y13838796D01*
X16680800Y13821191D01*
X16628679Y13797986D01*
X16574934Y13769258D01*
X16541115Y13759000D01*
X16508610Y13744527D01*
X16457810Y13733730D01*
X16405842Y13717965D01*
X16364476Y13713891D01*
X16324243Y13705339D01*
X16277649Y13705339D01*
X16230000Y13700646D01*
X16182351Y13705339D01*
X16135757Y13705339D01*
X16095523Y13713891D01*
X16054157Y13717965D01*
X16002185Y13733731D01*
X15951390Y13744527D01*
X15918886Y13758999D01*
X15885065Y13769258D01*
X15831314Y13797989D01*
X15779200Y13821191D01*
X15754972Y13838794D01*
X15729234Y13852551D01*
X15676728Y13895642D01*
X15626712Y13931981D01*
X15610471Y13950018D01*
X15592646Y13964647D01*
X15544743Y14023017D01*
X15500590Y14072053D01*
X15491314Y14088119D01*
X15480550Y14101235D01*
X15440731Y14175731D01*
X15406347Y14235286D01*
X15402391Y14247461D01*
X15397257Y14257066D01*
X15368948Y14350389D01*
X15348102Y14414547D01*
X15347368Y14421530D01*
X15345964Y14426158D01*
X15332294Y14564946D01*
X15328400Y14602000D01*
X15332294Y14639052D01*
X15345964Y14777843D01*
X15347368Y14782473D01*
X15348102Y14789453D01*
X15368943Y14853598D01*
X15397257Y14946935D01*
X15402392Y14956543D01*
X15406347Y14968714D01*
X15440724Y15028257D01*
X15480550Y15102766D01*
X15491316Y15115885D01*
X15500590Y15131947D01*
X15544733Y15180974D01*
X15592646Y15239354D01*
X15610474Y15253986D01*
X15626712Y15272019D01*
X15676718Y15308351D01*
X15729234Y15351450D01*
X15754977Y15365210D01*
X15779200Y15382809D01*
X15831303Y15406007D01*
X15885065Y15434743D01*
X15918893Y15445005D01*
X15951390Y15459473D01*
X16002174Y15470268D01*
X16054157Y15486036D01*
X16095532Y15490112D01*
X16135757Y15498661D01*
X16182341Y15498661D01*
X16230000Y15503355D01*
X16277659Y15498661D01*
G37*
G36*
X18817659Y15498661D02*
G01*
X18864243Y15498661D01*
X18904468Y15490111D01*
X18945842Y15486036D01*
X18997821Y15470269D01*
X19048610Y15459473D01*
X19081108Y15445004D01*
X19114934Y15434743D01*
X19168690Y15406010D01*
X19220800Y15382809D01*
X19245025Y15365208D01*
X19270765Y15351450D01*
X19323273Y15308358D01*
X19373288Y15272019D01*
X19389527Y15253983D01*
X19407353Y15239354D01*
X19455254Y15180987D01*
X19499410Y15131947D01*
X19508685Y15115881D01*
X19519449Y15102766D01*
X19559262Y15028281D01*
X19593653Y14968714D01*
X19597609Y14956538D01*
X19602742Y14946935D01*
X19631041Y14853644D01*
X19651898Y14789453D01*
X19652632Y14782468D01*
X19654035Y14777843D01*
X19667689Y14639203D01*
X19671600Y14602000D01*
X19667689Y14564795D01*
X19654035Y14426158D01*
X19652632Y14421535D01*
X19651898Y14414547D01*
X19631036Y14350343D01*
X19602742Y14257066D01*
X19597610Y14247465D01*
X19593653Y14235286D01*
X19559255Y14175708D01*
X19519449Y14101235D01*
X19508687Y14088123D01*
X19499410Y14072053D01*
X19455245Y14023004D01*
X19407353Y13964647D01*
X19389531Y13950022D01*
X19373288Y13931981D01*
X19323262Y13895636D01*
X19270765Y13852551D01*
X19245030Y13838796D01*
X19220800Y13821191D01*
X19168679Y13797986D01*
X19114934Y13769258D01*
X19081115Y13759000D01*
X19048610Y13744527D01*
X18997810Y13733730D01*
X18945842Y13717965D01*
X18904476Y13713891D01*
X18864243Y13705339D01*
X18817649Y13705339D01*
X18770000Y13700646D01*
X18722351Y13705339D01*
X18675757Y13705339D01*
X18635523Y13713891D01*
X18594157Y13717965D01*
X18542185Y13733731D01*
X18491390Y13744527D01*
X18458886Y13758999D01*
X18425065Y13769258D01*
X18371314Y13797989D01*
X18319200Y13821191D01*
X18294972Y13838794D01*
X18269234Y13852551D01*
X18216728Y13895642D01*
X18166712Y13931981D01*
X18150471Y13950018D01*
X18132646Y13964647D01*
X18084743Y14023017D01*
X18040590Y14072053D01*
X18031314Y14088119D01*
X18020550Y14101235D01*
X17980731Y14175731D01*
X17946347Y14235286D01*
X17942391Y14247461D01*
X17937257Y14257066D01*
X17908948Y14350389D01*
X17888102Y14414547D01*
X17887368Y14421530D01*
X17885964Y14426158D01*
X17872294Y14564946D01*
X17868400Y14602000D01*
X17872294Y14639052D01*
X17885964Y14777843D01*
X17887368Y14782473D01*
X17888102Y14789453D01*
X17908943Y14853598D01*
X17937257Y14946935D01*
X17942392Y14956543D01*
X17946347Y14968714D01*
X17980724Y15028257D01*
X18020550Y15102766D01*
X18031316Y15115885D01*
X18040590Y15131947D01*
X18084733Y15180974D01*
X18132646Y15239354D01*
X18150474Y15253986D01*
X18166712Y15272019D01*
X18216718Y15308351D01*
X18269234Y15351450D01*
X18294977Y15365210D01*
X18319200Y15382809D01*
X18371303Y15406007D01*
X18425065Y15434743D01*
X18458893Y15445005D01*
X18491390Y15459473D01*
X18542174Y15470268D01*
X18594157Y15486036D01*
X18635532Y15490112D01*
X18675757Y15498661D01*
X18722341Y15498661D01*
X18770000Y15503355D01*
X18817659Y15498661D01*
G37*
G36*
X21357659Y15498661D02*
G01*
X21404243Y15498661D01*
X21444468Y15490111D01*
X21485842Y15486036D01*
X21537821Y15470269D01*
X21588610Y15459473D01*
X21621108Y15445004D01*
X21654934Y15434743D01*
X21708690Y15406010D01*
X21760800Y15382809D01*
X21785025Y15365208D01*
X21810765Y15351450D01*
X21863273Y15308358D01*
X21913288Y15272019D01*
X21929527Y15253983D01*
X21947353Y15239354D01*
X21995254Y15180987D01*
X22039410Y15131947D01*
X22048685Y15115881D01*
X22059449Y15102766D01*
X22099262Y15028281D01*
X22133653Y14968714D01*
X22137609Y14956538D01*
X22142742Y14946935D01*
X22171041Y14853644D01*
X22191898Y14789453D01*
X22192632Y14782468D01*
X22194035Y14777843D01*
X22207689Y14639203D01*
X22211600Y14602000D01*
X22207689Y14564795D01*
X22194035Y14426158D01*
X22192632Y14421535D01*
X22191898Y14414547D01*
X22171036Y14350343D01*
X22142742Y14257066D01*
X22137610Y14247465D01*
X22133653Y14235286D01*
X22099255Y14175708D01*
X22059449Y14101235D01*
X22048687Y14088123D01*
X22039410Y14072053D01*
X21995245Y14023004D01*
X21947353Y13964647D01*
X21929531Y13950022D01*
X21913288Y13931981D01*
X21863262Y13895636D01*
X21810765Y13852551D01*
X21785030Y13838796D01*
X21760800Y13821191D01*
X21708679Y13797986D01*
X21654934Y13769258D01*
X21621115Y13759000D01*
X21588610Y13744527D01*
X21537810Y13733730D01*
X21485842Y13717965D01*
X21444476Y13713891D01*
X21404243Y13705339D01*
X21357649Y13705339D01*
X21310000Y13700646D01*
X21262351Y13705339D01*
X21215757Y13705339D01*
X21175523Y13713891D01*
X21134157Y13717965D01*
X21082185Y13733731D01*
X21031390Y13744527D01*
X20998886Y13758999D01*
X20965065Y13769258D01*
X20911314Y13797989D01*
X20859200Y13821191D01*
X20834972Y13838794D01*
X20809234Y13852551D01*
X20756728Y13895642D01*
X20706712Y13931981D01*
X20690471Y13950018D01*
X20672646Y13964647D01*
X20624743Y14023017D01*
X20580590Y14072053D01*
X20571314Y14088119D01*
X20560550Y14101235D01*
X20520731Y14175731D01*
X20486347Y14235286D01*
X20482391Y14247461D01*
X20477257Y14257066D01*
X20448948Y14350389D01*
X20428102Y14414547D01*
X20427368Y14421530D01*
X20425964Y14426158D01*
X20412294Y14564946D01*
X20408400Y14602000D01*
X20412294Y14639052D01*
X20425964Y14777843D01*
X20427368Y14782473D01*
X20428102Y14789453D01*
X20448943Y14853598D01*
X20477257Y14946935D01*
X20482392Y14956543D01*
X20486347Y14968714D01*
X20520724Y15028257D01*
X20560550Y15102766D01*
X20571316Y15115885D01*
X20580590Y15131947D01*
X20624733Y15180974D01*
X20672646Y15239354D01*
X20690474Y15253986D01*
X20706712Y15272019D01*
X20756718Y15308351D01*
X20809234Y15351450D01*
X20834977Y15365210D01*
X20859200Y15382809D01*
X20911303Y15406007D01*
X20965065Y15434743D01*
X20998893Y15445005D01*
X21031390Y15459473D01*
X21082174Y15470268D01*
X21134157Y15486036D01*
X21175532Y15490112D01*
X21215757Y15498661D01*
X21262341Y15498661D01*
X21310000Y15503355D01*
X21357659Y15498661D01*
G37*
G36*
X23897659Y15498661D02*
G01*
X23944243Y15498661D01*
X23984468Y15490111D01*
X24025842Y15486036D01*
X24077821Y15470269D01*
X24128610Y15459473D01*
X24161108Y15445004D01*
X24194934Y15434743D01*
X24248690Y15406010D01*
X24300800Y15382809D01*
X24325025Y15365208D01*
X24350765Y15351450D01*
X24403273Y15308358D01*
X24453288Y15272019D01*
X24469527Y15253983D01*
X24487353Y15239354D01*
X24535254Y15180987D01*
X24579410Y15131947D01*
X24588685Y15115881D01*
X24599449Y15102766D01*
X24639262Y15028281D01*
X24673653Y14968714D01*
X24677609Y14956538D01*
X24682742Y14946935D01*
X24711041Y14853644D01*
X24731898Y14789453D01*
X24732632Y14782468D01*
X24734035Y14777843D01*
X24747689Y14639203D01*
X24751600Y14602000D01*
X24747689Y14564795D01*
X24734035Y14426158D01*
X24732632Y14421535D01*
X24731898Y14414547D01*
X24711036Y14350343D01*
X24682742Y14257066D01*
X24677610Y14247465D01*
X24673653Y14235286D01*
X24639255Y14175708D01*
X24599449Y14101235D01*
X24588687Y14088123D01*
X24579410Y14072053D01*
X24535245Y14023004D01*
X24487353Y13964647D01*
X24469531Y13950022D01*
X24453288Y13931981D01*
X24403262Y13895636D01*
X24350765Y13852551D01*
X24325030Y13838796D01*
X24300800Y13821191D01*
X24248679Y13797986D01*
X24194934Y13769258D01*
X24161115Y13759000D01*
X24128610Y13744527D01*
X24077810Y13733730D01*
X24025842Y13717965D01*
X23984476Y13713891D01*
X23944243Y13705339D01*
X23897649Y13705339D01*
X23850000Y13700646D01*
X23802351Y13705339D01*
X23755757Y13705339D01*
X23715523Y13713891D01*
X23674157Y13717965D01*
X23622185Y13733731D01*
X23571390Y13744527D01*
X23538886Y13758999D01*
X23505065Y13769258D01*
X23451314Y13797989D01*
X23399200Y13821191D01*
X23374972Y13838794D01*
X23349234Y13852551D01*
X23296728Y13895642D01*
X23246712Y13931981D01*
X23230471Y13950018D01*
X23212646Y13964647D01*
X23164743Y14023017D01*
X23120590Y14072053D01*
X23111314Y14088119D01*
X23100550Y14101235D01*
X23060731Y14175731D01*
X23026347Y14235286D01*
X23022391Y14247461D01*
X23017257Y14257066D01*
X22988948Y14350389D01*
X22968102Y14414547D01*
X22967368Y14421530D01*
X22965964Y14426158D01*
X22952294Y14564946D01*
X22948400Y14602000D01*
X22952294Y14639052D01*
X22965964Y14777843D01*
X22967368Y14782473D01*
X22968102Y14789453D01*
X22988943Y14853598D01*
X23017257Y14946935D01*
X23022392Y14956543D01*
X23026347Y14968714D01*
X23060724Y15028257D01*
X23100550Y15102766D01*
X23111316Y15115885D01*
X23120590Y15131947D01*
X23164733Y15180974D01*
X23212646Y15239354D01*
X23230474Y15253986D01*
X23246712Y15272019D01*
X23296718Y15308351D01*
X23349234Y15351450D01*
X23374977Y15365210D01*
X23399200Y15382809D01*
X23451303Y15406007D01*
X23505065Y15434743D01*
X23538893Y15445005D01*
X23571390Y15459473D01*
X23622174Y15470268D01*
X23674157Y15486036D01*
X23715532Y15490112D01*
X23755757Y15498661D01*
X23802341Y15498661D01*
X23850000Y15503355D01*
X23897659Y15498661D01*
G37*
G36*
X26437659Y15498661D02*
G01*
X26484243Y15498661D01*
X26524468Y15490111D01*
X26565842Y15486036D01*
X26617821Y15470269D01*
X26668610Y15459473D01*
X26701108Y15445004D01*
X26734934Y15434743D01*
X26788690Y15406010D01*
X26840800Y15382809D01*
X26865025Y15365208D01*
X26890765Y15351450D01*
X26943273Y15308358D01*
X26993288Y15272019D01*
X27009527Y15253983D01*
X27027353Y15239354D01*
X27075254Y15180987D01*
X27119410Y15131947D01*
X27128685Y15115881D01*
X27139449Y15102766D01*
X27179262Y15028281D01*
X27213653Y14968714D01*
X27217609Y14956538D01*
X27222742Y14946935D01*
X27251041Y14853644D01*
X27271898Y14789453D01*
X27272632Y14782468D01*
X27274035Y14777843D01*
X27287689Y14639203D01*
X27291600Y14602000D01*
X27287689Y14564795D01*
X27274035Y14426158D01*
X27272632Y14421535D01*
X27271898Y14414547D01*
X27251036Y14350343D01*
X27222742Y14257066D01*
X27217610Y14247465D01*
X27213653Y14235286D01*
X27179255Y14175708D01*
X27139449Y14101235D01*
X27128687Y14088123D01*
X27119410Y14072053D01*
X27075245Y14023004D01*
X27027353Y13964647D01*
X27009531Y13950022D01*
X26993288Y13931981D01*
X26943262Y13895636D01*
X26890765Y13852551D01*
X26865030Y13838796D01*
X26840800Y13821191D01*
X26788679Y13797986D01*
X26734934Y13769258D01*
X26701115Y13759000D01*
X26668610Y13744527D01*
X26617810Y13733730D01*
X26565842Y13717965D01*
X26524476Y13713891D01*
X26484243Y13705339D01*
X26437649Y13705339D01*
X26390000Y13700646D01*
X26342351Y13705339D01*
X26295757Y13705339D01*
X26255523Y13713891D01*
X26214157Y13717965D01*
X26162185Y13733731D01*
X26111390Y13744527D01*
X26078886Y13758999D01*
X26045065Y13769258D01*
X25991314Y13797989D01*
X25939200Y13821191D01*
X25914972Y13838794D01*
X25889234Y13852551D01*
X25836728Y13895642D01*
X25786712Y13931981D01*
X25770471Y13950018D01*
X25752646Y13964647D01*
X25704743Y14023017D01*
X25660590Y14072053D01*
X25651314Y14088119D01*
X25640550Y14101235D01*
X25600731Y14175731D01*
X25566347Y14235286D01*
X25562391Y14247461D01*
X25557257Y14257066D01*
X25528948Y14350389D01*
X25508102Y14414547D01*
X25507368Y14421530D01*
X25505964Y14426158D01*
X25492294Y14564946D01*
X25488400Y14602000D01*
X25492294Y14639052D01*
X25505964Y14777843D01*
X25507368Y14782473D01*
X25508102Y14789453D01*
X25528943Y14853598D01*
X25557257Y14946935D01*
X25562392Y14956543D01*
X25566347Y14968714D01*
X25600724Y15028257D01*
X25640550Y15102766D01*
X25651316Y15115885D01*
X25660590Y15131947D01*
X25704733Y15180974D01*
X25752646Y15239354D01*
X25770474Y15253986D01*
X25786712Y15272019D01*
X25836718Y15308351D01*
X25889234Y15351450D01*
X25914977Y15365210D01*
X25939200Y15382809D01*
X25991303Y15406007D01*
X26045065Y15434743D01*
X26078893Y15445005D01*
X26111390Y15459473D01*
X26162174Y15470268D01*
X26214157Y15486036D01*
X26255532Y15490112D01*
X26295757Y15498661D01*
X26342341Y15498661D01*
X26390000Y15503355D01*
X26437659Y15498661D01*
G37*
G36*
X11150497Y21207965D02*
G01*
X11357022Y21152627D01*
X11550800Y21062267D01*
X11725943Y20939630D01*
X11877130Y20788443D01*
X11999767Y20613300D01*
X12090127Y20419522D01*
X12145465Y20212997D01*
X12164100Y20000000D01*
X12145465Y19787003D01*
X12090127Y19580478D01*
X11999767Y19386700D01*
X11877130Y19211557D01*
X11725943Y19060370D01*
X11550800Y18937733D01*
X11357022Y18847373D01*
X11150497Y18792035D01*
X10937500Y18773400D01*
X10724503Y18792035D01*
X10517978Y18847373D01*
X10324200Y18937733D01*
X10149057Y19060370D01*
X9997870Y19211557D01*
X9875233Y19386700D01*
X9784873Y19580478D01*
X9729535Y19787003D01*
X9710900Y20000000D01*
X9729535Y20212997D01*
X9784873Y20419522D01*
X9875233Y20613300D01*
X9997870Y20788443D01*
X10149057Y20939630D01*
X10324200Y21062267D01*
X10517978Y21152627D01*
X10724503Y21207965D01*
X10937500Y21226600D01*
X11150497Y21207965D01*
G37*
G36*
X19150497Y21207965D02*
G01*
X19357022Y21152627D01*
X19550800Y21062267D01*
X19725943Y20939630D01*
X19877130Y20788443D01*
X19999767Y20613300D01*
X20090127Y20419522D01*
X20145465Y20212997D01*
X20164100Y20000000D01*
X20145465Y19787003D01*
X20090127Y19580478D01*
X19999767Y19386700D01*
X19877130Y19211557D01*
X19725943Y19060370D01*
X19550800Y18937733D01*
X19357022Y18847373D01*
X19150497Y18792035D01*
X18937500Y18773400D01*
X18724503Y18792035D01*
X18517978Y18847373D01*
X18324200Y18937733D01*
X18149057Y19060370D01*
X17997870Y19211557D01*
X17875233Y19386700D01*
X17784873Y19580478D01*
X17729535Y19787003D01*
X17710900Y20000000D01*
X17729535Y20212997D01*
X17784873Y20419522D01*
X17875233Y20613300D01*
X17997870Y20788443D01*
X18149057Y20939630D01*
X18324200Y21062267D01*
X18517978Y21152627D01*
X18724503Y21207965D01*
X18937500Y21226600D01*
X19150497Y21207965D01*
G37*
G36*
X13650497Y22707965D02*
G01*
X13857022Y22652627D01*
X14050800Y22562267D01*
X14225943Y22439630D01*
X14377130Y22288443D01*
X14499767Y22113300D01*
X14590127Y21919522D01*
X14645465Y21712997D01*
X14664100Y21500000D01*
X14645465Y21287003D01*
X14590127Y21080478D01*
X14499767Y20886700D01*
X14377130Y20711557D01*
X14225943Y20560370D01*
X14050800Y20437733D01*
X13857022Y20347373D01*
X13650497Y20292035D01*
X13437500Y20273400D01*
X13224503Y20292035D01*
X13017978Y20347373D01*
X12824200Y20437733D01*
X12649057Y20560370D01*
X12497870Y20711557D01*
X12375233Y20886700D01*
X12284873Y21080478D01*
X12229535Y21287003D01*
X12210900Y21500000D01*
X12229535Y21712997D01*
X12284873Y21919522D01*
X12375233Y22113300D01*
X12497870Y22288443D01*
X12649057Y22439630D01*
X12824200Y22562267D01*
X13017978Y22652627D01*
X13224503Y22707965D01*
X13437500Y22726600D01*
X13650497Y22707965D01*
G37*
G36*
X16650497Y22707965D02*
G01*
X16857022Y22652627D01*
X17050800Y22562267D01*
X17225943Y22439630D01*
X17377130Y22288443D01*
X17499767Y22113300D01*
X17590127Y21919522D01*
X17645465Y21712997D01*
X17664100Y21500000D01*
X17645465Y21287003D01*
X17590127Y21080478D01*
X17499767Y20886700D01*
X17377130Y20711557D01*
X17225943Y20560370D01*
X17050800Y20437733D01*
X16857022Y20347373D01*
X16650497Y20292035D01*
X16437500Y20273400D01*
X16224503Y20292035D01*
X16017978Y20347373D01*
X15824200Y20437733D01*
X15649057Y20560370D01*
X15497870Y20711557D01*
X15375233Y20886700D01*
X15284873Y21080478D01*
X15229535Y21287003D01*
X15210900Y21500000D01*
X15229535Y21712997D01*
X15284873Y21919522D01*
X15375233Y22113300D01*
X15497870Y22288443D01*
X15649057Y22439630D01*
X15824200Y22562267D01*
X16017978Y22652627D01*
X16224503Y22707965D01*
X16437500Y22726600D01*
X16650497Y22707965D01*
G37*
G36*
X11150497Y24207965D02*
G01*
X11357022Y24152627D01*
X11550800Y24062267D01*
X11725943Y23939630D01*
X11877130Y23788443D01*
X11999767Y23613300D01*
X12090127Y23419522D01*
X12145465Y23212997D01*
X12164100Y23000000D01*
X12145465Y22787003D01*
X12090127Y22580478D01*
X11999767Y22386700D01*
X11877130Y22211557D01*
X11725943Y22060370D01*
X11550800Y21937733D01*
X11357022Y21847373D01*
X11150497Y21792035D01*
X10937500Y21773400D01*
X10724503Y21792035D01*
X10517978Y21847373D01*
X10324200Y21937733D01*
X10149057Y22060370D01*
X9997870Y22211557D01*
X9875233Y22386700D01*
X9784873Y22580478D01*
X9729535Y22787003D01*
X9710900Y23000000D01*
X9729535Y23212997D01*
X9784873Y23419522D01*
X9875233Y23613300D01*
X9997870Y23788443D01*
X10149057Y23939630D01*
X10324200Y24062267D01*
X10517978Y24152627D01*
X10724503Y24207965D01*
X10937500Y24226600D01*
X11150497Y24207965D01*
G37*
G36*
X19150497Y24207965D02*
G01*
X19357022Y24152627D01*
X19550800Y24062267D01*
X19725943Y23939630D01*
X19877130Y23788443D01*
X19999767Y23613300D01*
X20090127Y23419522D01*
X20145465Y23212997D01*
X20164100Y23000000D01*
X20145465Y22787003D01*
X20090127Y22580478D01*
X19999767Y22386700D01*
X19877130Y22211557D01*
X19725943Y22060370D01*
X19550800Y21937733D01*
X19357022Y21847373D01*
X19150497Y21792035D01*
X18937500Y21773400D01*
X18724503Y21792035D01*
X18517978Y21847373D01*
X18324200Y21937733D01*
X18149057Y22060370D01*
X17997870Y22211557D01*
X17875233Y22386700D01*
X17784873Y22580478D01*
X17729535Y22787003D01*
X17710900Y23000000D01*
X17729535Y23212997D01*
X17784873Y23419522D01*
X17875233Y23613300D01*
X17997870Y23788443D01*
X18149057Y23939630D01*
X18324200Y24062267D01*
X18517978Y24152627D01*
X18724503Y24207965D01*
X18937500Y24226600D01*
X19150497Y24207965D01*
G37*
G36*
X13650497Y25707965D02*
G01*
X13857022Y25652627D01*
X14050800Y25562267D01*
X14225943Y25439630D01*
X14377130Y25288443D01*
X14499767Y25113300D01*
X14590127Y24919522D01*
X14645465Y24712997D01*
X14664100Y24500000D01*
X14645465Y24287003D01*
X14590127Y24080478D01*
X14499767Y23886700D01*
X14377130Y23711557D01*
X14225943Y23560370D01*
X14050800Y23437733D01*
X13857022Y23347373D01*
X13650497Y23292035D01*
X13437500Y23273400D01*
X13224503Y23292035D01*
X13017978Y23347373D01*
X12824200Y23437733D01*
X12649057Y23560370D01*
X12497870Y23711557D01*
X12375233Y23886700D01*
X12284873Y24080478D01*
X12229535Y24287003D01*
X12210900Y24500000D01*
X12229535Y24712997D01*
X12284873Y24919522D01*
X12375233Y25113300D01*
X12497870Y25288443D01*
X12649057Y25439630D01*
X12824200Y25562267D01*
X13017978Y25652627D01*
X13224503Y25707965D01*
X13437500Y25726600D01*
X13650497Y25707965D01*
G37*
G36*
X16650497Y25707965D02*
G01*
X16857022Y25652627D01*
X17050800Y25562267D01*
X17225943Y25439630D01*
X17377130Y25288443D01*
X17499767Y25113300D01*
X17590127Y24919522D01*
X17645465Y24712997D01*
X17664100Y24500000D01*
X17645465Y24287003D01*
X17590127Y24080478D01*
X17499767Y23886700D01*
X17377130Y23711557D01*
X17225943Y23560370D01*
X17050800Y23437733D01*
X16857022Y23347373D01*
X16650497Y23292035D01*
X16437500Y23273400D01*
X16224503Y23292035D01*
X16017978Y23347373D01*
X15824200Y23437733D01*
X15649057Y23560370D01*
X15497870Y23711557D01*
X15375233Y23886700D01*
X15284873Y24080478D01*
X15229535Y24287003D01*
X15210900Y24500000D01*
X15229535Y24712997D01*
X15284873Y24919522D01*
X15375233Y25113300D01*
X15497870Y25288443D01*
X15649057Y25439630D01*
X15824200Y25562267D01*
X16017978Y25652627D01*
X16224503Y25707965D01*
X16437500Y25726600D01*
X16650497Y25707965D01*
G37*
G36*
X11150497Y27207965D02*
G01*
X11357022Y27152627D01*
X11550800Y27062267D01*
X11725943Y26939630D01*
X11877130Y26788443D01*
X11999767Y26613300D01*
X12090127Y26419522D01*
X12145465Y26212997D01*
X12164100Y26000000D01*
X12145465Y25787003D01*
X12090127Y25580478D01*
X11999767Y25386700D01*
X11877130Y25211557D01*
X11725943Y25060370D01*
X11550800Y24937733D01*
X11357022Y24847373D01*
X11150497Y24792035D01*
X10937500Y24773400D01*
X10724503Y24792035D01*
X10517978Y24847373D01*
X10324200Y24937733D01*
X10149057Y25060370D01*
X9997870Y25211557D01*
X9875233Y25386700D01*
X9784873Y25580478D01*
X9729535Y25787003D01*
X9710900Y26000000D01*
X9729535Y26212997D01*
X9784873Y26419522D01*
X9875233Y26613300D01*
X9997870Y26788443D01*
X10149057Y26939630D01*
X10324200Y27062267D01*
X10517978Y27152627D01*
X10724503Y27207965D01*
X10937500Y27226600D01*
X11150497Y27207965D01*
G37*
G36*
X19150497Y27207965D02*
G01*
X19357022Y27152627D01*
X19550800Y27062267D01*
X19725943Y26939630D01*
X19877130Y26788443D01*
X19999767Y26613300D01*
X20090127Y26419522D01*
X20145465Y26212997D01*
X20164100Y26000000D01*
X20145465Y25787003D01*
X20090127Y25580478D01*
X19999767Y25386700D01*
X19877130Y25211557D01*
X19725943Y25060370D01*
X19550800Y24937733D01*
X19357022Y24847373D01*
X19150497Y24792035D01*
X18937500Y24773400D01*
X18724503Y24792035D01*
X18517978Y24847373D01*
X18324200Y24937733D01*
X18149057Y25060370D01*
X17997870Y25211557D01*
X17875233Y25386700D01*
X17784873Y25580478D01*
X17729535Y25787003D01*
X17710900Y26000000D01*
X17729535Y26212997D01*
X17784873Y26419522D01*
X17875233Y26613300D01*
X17997870Y26788443D01*
X18149057Y26939630D01*
X18324200Y27062267D01*
X18517978Y27152627D01*
X18724503Y27207965D01*
X18937500Y27226600D01*
X19150497Y27207965D01*
G37*
G36*
X13650497Y28707965D02*
G01*
X13857022Y28652627D01*
X14050800Y28562267D01*
X14225943Y28439630D01*
X14377130Y28288443D01*
X14499767Y28113300D01*
X14590127Y27919522D01*
X14645465Y27712997D01*
X14664100Y27500000D01*
X14645465Y27287003D01*
X14590127Y27080478D01*
X14499767Y26886700D01*
X14377130Y26711557D01*
X14225943Y26560370D01*
X14050800Y26437733D01*
X13857022Y26347373D01*
X13650497Y26292035D01*
X13437500Y26273400D01*
X13224503Y26292035D01*
X13017978Y26347373D01*
X12824200Y26437733D01*
X12649057Y26560370D01*
X12497870Y26711557D01*
X12375233Y26886700D01*
X12284873Y27080478D01*
X12229535Y27287003D01*
X12210900Y27500000D01*
X12229535Y27712997D01*
X12284873Y27919522D01*
X12375233Y28113300D01*
X12497870Y28288443D01*
X12649057Y28439630D01*
X12824200Y28562267D01*
X13017978Y28652627D01*
X13224503Y28707965D01*
X13437500Y28726600D01*
X13650497Y28707965D01*
G37*
G36*
X16650497Y28707965D02*
G01*
X16857022Y28652627D01*
X17050800Y28562267D01*
X17225943Y28439630D01*
X17377130Y28288443D01*
X17499767Y28113300D01*
X17590127Y27919522D01*
X17645465Y27712997D01*
X17650845Y27651499D01*
X17679763Y27625000D01*
X20500000Y27625000D01*
X20524386Y27622598D01*
X20569446Y27603934D01*
X20603934Y27569446D01*
X20622598Y27524386D01*
X20622598Y27475614D01*
X20603934Y27430554D01*
X20569446Y27396066D01*
X20524386Y27377402D01*
X20500000Y27375000D01*
X20497508Y27375000D01*
X17679763Y27375000D01*
X17650845Y27348502D01*
X17645465Y27287003D01*
X17590127Y27080478D01*
X17499767Y26886700D01*
X17377130Y26711557D01*
X17225943Y26560370D01*
X17050800Y26437733D01*
X16857022Y26347373D01*
X16650497Y26292035D01*
X16437500Y26273400D01*
X16224503Y26292035D01*
X16017978Y26347373D01*
X15824200Y26437733D01*
X15649057Y26560370D01*
X15497870Y26711557D01*
X15375233Y26886700D01*
X15284873Y27080478D01*
X15229535Y27287003D01*
X15210900Y27500000D01*
X15229535Y27712997D01*
X15284873Y27919522D01*
X15375233Y28113300D01*
X15497870Y28288443D01*
X15649057Y28439630D01*
X15824200Y28562267D01*
X16017978Y28652627D01*
X16224503Y28707965D01*
X16437500Y28726600D01*
X16650497Y28707965D01*
G37*
G36*
X11150497Y30207965D02*
G01*
X11357022Y30152627D01*
X11550800Y30062267D01*
X11725943Y29939630D01*
X11877130Y29788443D01*
X11999767Y29613300D01*
X12090127Y29419522D01*
X12145465Y29212997D01*
X12164100Y29000000D01*
X12145465Y28787003D01*
X12090127Y28580478D01*
X11999767Y28386700D01*
X11877130Y28211557D01*
X11725943Y28060370D01*
X11550800Y27937733D01*
X11357022Y27847373D01*
X11150497Y27792035D01*
X10937500Y27773400D01*
X10724503Y27792035D01*
X10517978Y27847373D01*
X10324200Y27937733D01*
X10149057Y28060370D01*
X9997870Y28211557D01*
X9875233Y28386700D01*
X9784873Y28580478D01*
X9729535Y28787003D01*
X9710900Y29000000D01*
X9729535Y29212997D01*
X9784873Y29419522D01*
X9875233Y29613300D01*
X9997870Y29788443D01*
X10149057Y29939630D01*
X10324200Y30062267D01*
X10517978Y30152627D01*
X10724503Y30207965D01*
X10937500Y30226600D01*
X11150497Y30207965D01*
G37*
G36*
X19150497Y30207965D02*
G01*
X19357022Y30152627D01*
X19550800Y30062267D01*
X19725943Y29939630D01*
X19877130Y29788443D01*
X19999767Y29613300D01*
X20090127Y29419522D01*
X20145465Y29212997D01*
X20164100Y29000000D01*
X20145465Y28787003D01*
X20090127Y28580478D01*
X19999767Y28386700D01*
X19877130Y28211557D01*
X19725943Y28060370D01*
X19550800Y27937733D01*
X19357022Y27847373D01*
X19150497Y27792035D01*
X18937500Y27773400D01*
X18724503Y27792035D01*
X18517978Y27847373D01*
X18324200Y27937733D01*
X18149057Y28060370D01*
X17997870Y28211557D01*
X17875233Y28386700D01*
X17784873Y28580478D01*
X17729535Y28787003D01*
X17710900Y29000000D01*
X17729535Y29212997D01*
X17784873Y29419522D01*
X17875233Y29613300D01*
X17997870Y29788443D01*
X18149057Y29939630D01*
X18324200Y30062267D01*
X18517978Y30152627D01*
X18724503Y30207965D01*
X18937500Y30226600D01*
X19150497Y30207965D01*
G37*
G36*
X48138881Y30153866D02*
G01*
X48171842Y30131842D01*
X48193866Y30098881D01*
X48201600Y30060000D01*
X48201600Y28360000D01*
X48193866Y28321119D01*
X48171842Y28288158D01*
X48138881Y28266134D01*
X48100000Y28258400D01*
X46400000Y28258400D01*
X46361119Y28266134D01*
X46328158Y28288158D01*
X46306134Y28321119D01*
X46298400Y28360000D01*
X46298400Y30060000D01*
X46306134Y30098881D01*
X46328158Y30131842D01*
X46361119Y30153866D01*
X46400000Y30161600D01*
X48100000Y30161600D01*
X48138881Y30153866D01*
G37*
G36*
X13650497Y31707965D02*
G01*
X13857022Y31652627D01*
X14050800Y31562267D01*
X14225943Y31439630D01*
X14377130Y31288443D01*
X14499767Y31113300D01*
X14590127Y30919522D01*
X14645465Y30712997D01*
X14664100Y30500000D01*
X14645465Y30287003D01*
X14590127Y30080478D01*
X14499767Y29886700D01*
X14377130Y29711557D01*
X14225943Y29560370D01*
X14050800Y29437733D01*
X13857022Y29347373D01*
X13650497Y29292035D01*
X13437500Y29273400D01*
X13224503Y29292035D01*
X13017978Y29347373D01*
X12824200Y29437733D01*
X12649057Y29560370D01*
X12497870Y29711557D01*
X12375233Y29886700D01*
X12284873Y30080478D01*
X12229535Y30287003D01*
X12210900Y30500000D01*
X12229535Y30712997D01*
X12284873Y30919522D01*
X12375233Y31113300D01*
X12497870Y31288443D01*
X12649057Y31439630D01*
X12824200Y31562267D01*
X13017978Y31652627D01*
X13224503Y31707965D01*
X13437500Y31726600D01*
X13650497Y31707965D01*
G37*
G36*
X16650497Y31707965D02*
G01*
X16857022Y31652627D01*
X17050800Y31562267D01*
X17225943Y31439630D01*
X17377130Y31288443D01*
X17499767Y31113300D01*
X17590127Y30919522D01*
X17645465Y30712997D01*
X17664100Y30500000D01*
X17645465Y30287003D01*
X17590127Y30080478D01*
X17499767Y29886700D01*
X17377130Y29711557D01*
X17225943Y29560370D01*
X17050800Y29437733D01*
X16857022Y29347373D01*
X16650497Y29292035D01*
X16437500Y29273400D01*
X16224503Y29292035D01*
X16017978Y29347373D01*
X15824200Y29437733D01*
X15649057Y29560370D01*
X15497870Y29711557D01*
X15375233Y29886700D01*
X15284873Y30080478D01*
X15229535Y30287003D01*
X15210900Y30500000D01*
X15229535Y30712997D01*
X15284873Y30919522D01*
X15375233Y31113300D01*
X15497870Y31288443D01*
X15649057Y31439630D01*
X15824200Y31562267D01*
X16017978Y31652627D01*
X16224503Y31707965D01*
X16437500Y31726600D01*
X16650497Y31707965D01*
G37*
G36*
X11150497Y33207965D02*
G01*
X11357022Y33152627D01*
X11550800Y33062267D01*
X11725943Y32939630D01*
X11877130Y32788443D01*
X11999767Y32613300D01*
X12090127Y32419522D01*
X12145465Y32212997D01*
X12164100Y32000000D01*
X12145465Y31787003D01*
X12090127Y31580478D01*
X11999767Y31386700D01*
X11877130Y31211557D01*
X11725943Y31060370D01*
X11550800Y30937733D01*
X11357022Y30847373D01*
X11150497Y30792035D01*
X10937500Y30773400D01*
X10724503Y30792035D01*
X10517978Y30847373D01*
X10324200Y30937733D01*
X10149057Y31060370D01*
X9997870Y31211557D01*
X9875233Y31386700D01*
X9784873Y31580478D01*
X9729535Y31787003D01*
X9710900Y32000000D01*
X9729535Y32212997D01*
X9784873Y32419522D01*
X9875233Y32613300D01*
X9997870Y32788443D01*
X10149057Y32939630D01*
X10324200Y33062267D01*
X10517978Y33152627D01*
X10724503Y33207965D01*
X10937500Y33226600D01*
X11150497Y33207965D01*
G37*
G36*
X19150497Y33207965D02*
G01*
X19357022Y33152627D01*
X19550800Y33062267D01*
X19725943Y32939630D01*
X19877130Y32788443D01*
X19999767Y32613300D01*
X20090127Y32419522D01*
X20145465Y32212997D01*
X20164100Y32000000D01*
X20145465Y31787003D01*
X20090127Y31580478D01*
X19999767Y31386700D01*
X19877130Y31211557D01*
X19725943Y31060370D01*
X19550800Y30937733D01*
X19357022Y30847373D01*
X19150497Y30792035D01*
X18937500Y30773400D01*
X18724503Y30792035D01*
X18517978Y30847373D01*
X18324200Y30937733D01*
X18149057Y31060370D01*
X17997870Y31211557D01*
X17875233Y31386700D01*
X17784873Y31580478D01*
X17729535Y31787003D01*
X17710900Y32000000D01*
X17729535Y32212997D01*
X17784873Y32419522D01*
X17875233Y32613300D01*
X17997870Y32788443D01*
X18149057Y32939630D01*
X18324200Y33062267D01*
X18517978Y33152627D01*
X18724503Y33207965D01*
X18937500Y33226600D01*
X19150497Y33207965D01*
G37*
G36*
X47435648Y32683315D02*
G01*
X47614162Y32629164D01*
X47778681Y32541226D01*
X47922883Y32422883D01*
X48041226Y32278681D01*
X48129164Y32114162D01*
X48183315Y31935648D01*
X48201600Y31750000D01*
X48183315Y31564352D01*
X48129164Y31385838D01*
X48041226Y31221319D01*
X47922883Y31077117D01*
X47778681Y30958774D01*
X47614162Y30870836D01*
X47435648Y30816685D01*
X47250000Y30798400D01*
X47064352Y30816685D01*
X46885838Y30870836D01*
X46721319Y30958774D01*
X46577117Y31077117D01*
X46458774Y31221319D01*
X46370836Y31385838D01*
X46316685Y31564352D01*
X46298400Y31750000D01*
X46316685Y31935648D01*
X46370836Y32114162D01*
X46458774Y32278681D01*
X46577117Y32422883D01*
X46721319Y32541226D01*
X46885838Y32629164D01*
X47064352Y32683315D01*
X47250000Y32701600D01*
X47435648Y32683315D01*
G37*
G36*
X13650497Y34707965D02*
G01*
X13857022Y34652627D01*
X14050800Y34562267D01*
X14225943Y34439630D01*
X14377130Y34288443D01*
X14499767Y34113300D01*
X14590127Y33919522D01*
X14645465Y33712997D01*
X14664100Y33500000D01*
X14645465Y33287003D01*
X14590127Y33080478D01*
X14499767Y32886700D01*
X14377130Y32711557D01*
X14225943Y32560370D01*
X14050800Y32437733D01*
X13857022Y32347373D01*
X13650497Y32292035D01*
X13437500Y32273400D01*
X13224503Y32292035D01*
X13017978Y32347373D01*
X12824200Y32437733D01*
X12649057Y32560370D01*
X12497870Y32711557D01*
X12375233Y32886700D01*
X12284873Y33080478D01*
X12229535Y33287003D01*
X12210900Y33500000D01*
X12229535Y33712997D01*
X12284873Y33919522D01*
X12375233Y34113300D01*
X12497870Y34288443D01*
X12649057Y34439630D01*
X12824200Y34562267D01*
X13017978Y34652627D01*
X13224503Y34707965D01*
X13437500Y34726600D01*
X13650497Y34707965D01*
G37*
G36*
X16650497Y34707965D02*
G01*
X16857022Y34652627D01*
X17050800Y34562267D01*
X17225943Y34439630D01*
X17377130Y34288443D01*
X17499767Y34113300D01*
X17590127Y33919522D01*
X17645465Y33712997D01*
X17664100Y33500000D01*
X17645465Y33287003D01*
X17590127Y33080478D01*
X17499767Y32886700D01*
X17377130Y32711557D01*
X17225943Y32560370D01*
X17050800Y32437733D01*
X16857022Y32347373D01*
X16650497Y32292035D01*
X16437500Y32273400D01*
X16224503Y32292035D01*
X16017978Y32347373D01*
X15824200Y32437733D01*
X15649057Y32560370D01*
X15497870Y32711557D01*
X15375233Y32886700D01*
X15284873Y33080478D01*
X15229535Y33287003D01*
X15210900Y33500000D01*
X15229535Y33712997D01*
X15284873Y33919522D01*
X15375233Y34113300D01*
X15497870Y34288443D01*
X15649057Y34439630D01*
X15824200Y34562267D01*
X16017978Y34652627D01*
X16224503Y34707965D01*
X16437500Y34726600D01*
X16650497Y34707965D01*
G37*
G36*
X47435648Y35223315D02*
G01*
X47614162Y35169164D01*
X47778681Y35081226D01*
X47922883Y34962883D01*
X48041226Y34818681D01*
X48129164Y34654162D01*
X48183315Y34475648D01*
X48201600Y34290000D01*
X48183315Y34104352D01*
X48129164Y33925838D01*
X48041226Y33761319D01*
X47922883Y33617117D01*
X47778681Y33498774D01*
X47614162Y33410836D01*
X47435648Y33356685D01*
X47250000Y33338400D01*
X47064352Y33356685D01*
X46885838Y33410836D01*
X46721319Y33498774D01*
X46577117Y33617117D01*
X46458774Y33761319D01*
X46370836Y33925838D01*
X46316685Y34104352D01*
X46298400Y34290000D01*
X46316685Y34475648D01*
X46370836Y34654162D01*
X46458774Y34818681D01*
X46577117Y34962883D01*
X46721319Y35081226D01*
X46885838Y35169164D01*
X47064352Y35223315D01*
X47250000Y35241600D01*
X47435648Y35223315D01*
G37*
G36*
X99698737Y34656356D02*
G01*
X99752710Y34653704D01*
X99759358Y34652382D01*
X99773525Y34651453D01*
X99800893Y34644120D01*
X99869565Y34630460D01*
X99901977Y34617035D01*
X99925222Y34610806D01*
X99946061Y34598775D01*
X99978473Y34585349D01*
X100036687Y34546452D01*
X100061231Y34532281D01*
X100067949Y34525563D01*
X100076499Y34519850D01*
X100159849Y34436500D01*
X100165561Y34427951D01*
X100172281Y34421231D01*
X100186453Y34396685D01*
X100225348Y34338474D01*
X100238772Y34306066D01*
X100250806Y34285222D01*
X100257035Y34261974D01*
X100270459Y34229566D01*
X100284118Y34160898D01*
X100291453Y34133525D01*
X100291453Y34124027D01*
X100293459Y34113942D01*
X100293459Y33996059D01*
X100291453Y33985975D01*
X100291453Y33976475D01*
X100284117Y33949100D01*
X100270459Y33880435D01*
X100257036Y33848030D01*
X100250806Y33824778D01*
X100238770Y33803933D01*
X100225348Y33771527D01*
X100186457Y33713324D01*
X100172281Y33688769D01*
X100165559Y33682048D01*
X100159849Y33673501D01*
X100076499Y33590151D01*
X100067952Y33584441D01*
X100061231Y33577719D01*
X100036676Y33563543D01*
X99978473Y33524652D01*
X99946067Y33511230D01*
X99925222Y33499194D01*
X99901970Y33492964D01*
X99869565Y33479541D01*
X99800907Y33465885D01*
X99773525Y33458547D01*
X99759350Y33457618D01*
X99752710Y33456297D01*
X99698742Y33453646D01*
X99695000Y33453400D01*
X99693750Y33453400D01*
X98596250Y33453400D01*
X98595000Y33453400D01*
X98591257Y33453646D01*
X98537289Y33456297D01*
X98530647Y33457619D01*
X98516475Y33458547D01*
X98489095Y33465884D01*
X98420434Y33479541D01*
X98388026Y33492965D01*
X98364778Y33499194D01*
X98343934Y33511228D01*
X98311526Y33524652D01*
X98253315Y33563547D01*
X98228769Y33577719D01*
X98222049Y33584439D01*
X98213500Y33590151D01*
X98130150Y33673501D01*
X98124437Y33682051D01*
X98117719Y33688769D01*
X98103548Y33713313D01*
X98064651Y33771527D01*
X98051225Y33803939D01*
X98039194Y33824778D01*
X98032965Y33848023D01*
X98019540Y33880435D01*
X98005880Y33949106D01*
X97998547Y33976475D01*
X97998547Y33985975D01*
X97996541Y33996059D01*
X97996541Y34113942D01*
X97998547Y34124027D01*
X97998547Y34133525D01*
X98005879Y34160892D01*
X98019540Y34229566D01*
X98032966Y34261981D01*
X98039194Y34285222D01*
X98051224Y34306060D01*
X98064651Y34338474D01*
X98103553Y34396696D01*
X98117719Y34421231D01*
X98124435Y34427948D01*
X98130150Y34436500D01*
X98213500Y34519850D01*
X98222052Y34525565D01*
X98228769Y34532281D01*
X98253304Y34546447D01*
X98311526Y34585349D01*
X98343940Y34598776D01*
X98364778Y34610806D01*
X98388019Y34617034D01*
X98420434Y34630460D01*
X98489109Y34644121D01*
X98516475Y34651453D01*
X98530640Y34652382D01*
X98537289Y34653704D01*
X98591262Y34656356D01*
X98595000Y34656600D01*
X99695000Y34656600D01*
X99698737Y34656356D01*
G37*
G36*
X103728737Y34656356D02*
G01*
X103782710Y34653704D01*
X103789358Y34652382D01*
X103803525Y34651453D01*
X103830893Y34644120D01*
X103899565Y34630460D01*
X103931977Y34617035D01*
X103955222Y34610806D01*
X103976061Y34598775D01*
X104008473Y34585349D01*
X104066687Y34546452D01*
X104091231Y34532281D01*
X104097949Y34525563D01*
X104106499Y34519850D01*
X104189849Y34436500D01*
X104195561Y34427951D01*
X104202281Y34421231D01*
X104216453Y34396685D01*
X104255348Y34338474D01*
X104268772Y34306066D01*
X104280806Y34285222D01*
X104287035Y34261974D01*
X104300459Y34229566D01*
X104314118Y34160898D01*
X104321453Y34133525D01*
X104321453Y34124027D01*
X104323459Y34113942D01*
X104323459Y33996059D01*
X104321453Y33985975D01*
X104321453Y33976475D01*
X104314117Y33949100D01*
X104300459Y33880435D01*
X104287036Y33848030D01*
X104280806Y33824778D01*
X104268770Y33803933D01*
X104255348Y33771527D01*
X104216457Y33713324D01*
X104202281Y33688769D01*
X104195559Y33682048D01*
X104189849Y33673501D01*
X104106499Y33590151D01*
X104097952Y33584441D01*
X104091231Y33577719D01*
X104066676Y33563543D01*
X104008473Y33524652D01*
X103976067Y33511230D01*
X103955222Y33499194D01*
X103931970Y33492964D01*
X103899565Y33479541D01*
X103830907Y33465885D01*
X103803525Y33458547D01*
X103789350Y33457618D01*
X103782710Y33456297D01*
X103728742Y33453646D01*
X103725000Y33453400D01*
X103723750Y33453400D01*
X102926250Y33453400D01*
X102925000Y33453400D01*
X102921257Y33453646D01*
X102867289Y33456297D01*
X102860647Y33457619D01*
X102846475Y33458547D01*
X102819095Y33465884D01*
X102750434Y33479541D01*
X102718026Y33492965D01*
X102694778Y33499194D01*
X102673934Y33511228D01*
X102641526Y33524652D01*
X102583315Y33563547D01*
X102558769Y33577719D01*
X102552049Y33584439D01*
X102543500Y33590151D01*
X102460150Y33673501D01*
X102454437Y33682051D01*
X102447719Y33688769D01*
X102433548Y33713313D01*
X102394651Y33771527D01*
X102381225Y33803939D01*
X102369194Y33824778D01*
X102362965Y33848023D01*
X102349540Y33880435D01*
X102335880Y33949106D01*
X102328547Y33976475D01*
X102328547Y33985975D01*
X102326541Y33996059D01*
X102326541Y34113942D01*
X102328547Y34124027D01*
X102328547Y34133525D01*
X102335879Y34160892D01*
X102349540Y34229566D01*
X102362966Y34261981D01*
X102369194Y34285222D01*
X102381224Y34306060D01*
X102394651Y34338474D01*
X102433553Y34396696D01*
X102447719Y34421231D01*
X102454435Y34427948D01*
X102460150Y34436500D01*
X102543500Y34519850D01*
X102552052Y34525565D01*
X102558769Y34532281D01*
X102583304Y34546447D01*
X102641526Y34585349D01*
X102673940Y34598776D01*
X102694778Y34610806D01*
X102718019Y34617034D01*
X102750434Y34630460D01*
X102819109Y34644121D01*
X102846475Y34651453D01*
X102860640Y34652382D01*
X102867289Y34653704D01*
X102921262Y34656356D01*
X102925000Y34656600D01*
X103725000Y34656600D01*
X103728737Y34656356D01*
G37*
G36*
X11150497Y36207965D02*
G01*
X11357022Y36152627D01*
X11550800Y36062267D01*
X11725943Y35939630D01*
X11877130Y35788443D01*
X11999767Y35613300D01*
X12090127Y35419522D01*
X12145465Y35212997D01*
X12164100Y35000000D01*
X12145465Y34787003D01*
X12090127Y34580478D01*
X11999767Y34386700D01*
X11877130Y34211557D01*
X11725943Y34060370D01*
X11550800Y33937733D01*
X11357022Y33847373D01*
X11150497Y33792035D01*
X10937500Y33773400D01*
X10724503Y33792035D01*
X10517978Y33847373D01*
X10324200Y33937733D01*
X10149057Y34060370D01*
X9997870Y34211557D01*
X9875233Y34386700D01*
X9784873Y34580478D01*
X9729535Y34787003D01*
X9710900Y35000000D01*
X9729535Y35212997D01*
X9784873Y35419522D01*
X9875233Y35613300D01*
X9997870Y35788443D01*
X10149057Y35939630D01*
X10324200Y36062267D01*
X10517978Y36152627D01*
X10724503Y36207965D01*
X10937500Y36226600D01*
X11150497Y36207965D01*
G37*
G36*
X19150497Y36207965D02*
G01*
X19357022Y36152627D01*
X19550800Y36062267D01*
X19725943Y35939630D01*
X19877130Y35788443D01*
X19999767Y35613300D01*
X20090127Y35419522D01*
X20145465Y35212997D01*
X20164100Y35000000D01*
X20145465Y34787003D01*
X20090127Y34580478D01*
X19999767Y34386700D01*
X19877130Y34211557D01*
X19725943Y34060370D01*
X19550800Y33937733D01*
X19357022Y33847373D01*
X19150497Y33792035D01*
X18937500Y33773400D01*
X18724503Y33792035D01*
X18517978Y33847373D01*
X18324200Y33937733D01*
X18149057Y34060370D01*
X17997870Y34211557D01*
X17875233Y34386700D01*
X17784873Y34580478D01*
X17729535Y34787003D01*
X17710900Y35000000D01*
X17729535Y35212997D01*
X17784873Y35419522D01*
X17875233Y35613300D01*
X17997870Y35788443D01*
X18149057Y35939630D01*
X18324200Y36062267D01*
X18517978Y36152627D01*
X18724503Y36207965D01*
X18937500Y36226600D01*
X19150497Y36207965D01*
G37*
G36*
X99675679Y35906741D02*
G01*
X99705638Y35906741D01*
X99740720Y35896440D01*
X99776827Y35890721D01*
X99799446Y35879196D01*
X99821998Y35872574D01*
X99858570Y35849071D01*
X99895749Y35830127D01*
X99909599Y35816277D01*
X99924023Y35807007D01*
X99957477Y35768399D01*
X99990127Y35735749D01*
X99996348Y35723540D01*
X100003439Y35715356D01*
X100028684Y35660077D01*
X100050721Y35616827D01*
X100051934Y35609166D01*
X100053818Y35605041D01*
X100065928Y35520808D01*
X100071600Y35485000D01*
X100065928Y35449190D01*
X100053818Y35364960D01*
X100051934Y35360837D01*
X100050721Y35353173D01*
X100028679Y35309916D01*
X100003439Y35254645D01*
X99996349Y35246464D01*
X99990127Y35234251D01*
X99957470Y35201595D01*
X99924023Y35162994D01*
X99909602Y35153727D01*
X99895749Y35139873D01*
X99858562Y35120926D01*
X99821998Y35097427D01*
X99799449Y35090806D01*
X99776827Y35079279D01*
X99740718Y35073561D01*
X99705638Y35063259D01*
X99675679Y35063259D01*
X99645000Y35058400D01*
X99614321Y35063259D01*
X99584362Y35063259D01*
X99549280Y35073561D01*
X99513173Y35079279D01*
X99490551Y35090806D01*
X99468001Y35097427D01*
X99431432Y35120929D01*
X99394251Y35139873D01*
X99380399Y35153725D01*
X99365976Y35162994D01*
X99332521Y35201603D01*
X99299873Y35234251D01*
X99293651Y35246461D01*
X99286560Y35254645D01*
X99261310Y35309935D01*
X99239279Y35353173D01*
X99238065Y35360833D01*
X99236181Y35364960D01*
X99224060Y35449259D01*
X99218400Y35485000D01*
X99224060Y35520739D01*
X99236181Y35605041D01*
X99238066Y35609169D01*
X99239279Y35616827D01*
X99261306Y35660058D01*
X99286560Y35715356D01*
X99293653Y35723542D01*
X99299873Y35735749D01*
X99332515Y35768392D01*
X99365976Y35807007D01*
X99380401Y35816278D01*
X99394251Y35830127D01*
X99431424Y35849069D01*
X99468001Y35872574D01*
X99490555Y35879197D01*
X99513173Y35890721D01*
X99549278Y35896440D01*
X99584362Y35906741D01*
X99614321Y35906741D01*
X99645000Y35911600D01*
X99675679Y35906741D01*
G37*
G36*
X13650497Y37707965D02*
G01*
X13857022Y37652627D01*
X14050800Y37562267D01*
X14225943Y37439630D01*
X14377130Y37288443D01*
X14499767Y37113300D01*
X14590127Y36919522D01*
X14645465Y36712997D01*
X14664100Y36500000D01*
X14645465Y36287003D01*
X14590127Y36080478D01*
X14499767Y35886700D01*
X14377130Y35711557D01*
X14225943Y35560370D01*
X14050800Y35437733D01*
X13857022Y35347373D01*
X13650497Y35292035D01*
X13437500Y35273400D01*
X13224503Y35292035D01*
X13017978Y35347373D01*
X12824200Y35437733D01*
X12649057Y35560370D01*
X12497870Y35711557D01*
X12375233Y35886700D01*
X12284873Y36080478D01*
X12229535Y36287003D01*
X12210900Y36500000D01*
X12229535Y36712997D01*
X12284873Y36919522D01*
X12375233Y37113300D01*
X12497870Y37288443D01*
X12649057Y37439630D01*
X12824200Y37562267D01*
X13017978Y37652627D01*
X13224503Y37707965D01*
X13437500Y37726600D01*
X13650497Y37707965D01*
G37*
G36*
X16650497Y37707965D02*
G01*
X16857022Y37652627D01*
X17050800Y37562267D01*
X17225943Y37439630D01*
X17377130Y37288443D01*
X17499767Y37113300D01*
X17590127Y36919522D01*
X17645465Y36712997D01*
X17664100Y36500000D01*
X17645465Y36287003D01*
X17590127Y36080478D01*
X17499767Y35886700D01*
X17377130Y35711557D01*
X17225943Y35560370D01*
X17050800Y35437733D01*
X16857022Y35347373D01*
X16650497Y35292035D01*
X16437500Y35273400D01*
X16224503Y35292035D01*
X16017978Y35347373D01*
X15824200Y35437733D01*
X15649057Y35560370D01*
X15497870Y35711557D01*
X15375233Y35886700D01*
X15284873Y36080478D01*
X15229535Y36287003D01*
X15210900Y36500000D01*
X15229535Y36712997D01*
X15284873Y36919522D01*
X15375233Y37113300D01*
X15497870Y37288443D01*
X15649057Y37439630D01*
X15824200Y37562267D01*
X16017978Y37652627D01*
X16224503Y37707965D01*
X16437500Y37726600D01*
X16650497Y37707965D01*
G37*
G36*
X11150497Y39207965D02*
G01*
X11357022Y39152627D01*
X11550800Y39062267D01*
X11725943Y38939630D01*
X11877130Y38788443D01*
X11999767Y38613300D01*
X12090127Y38419522D01*
X12145465Y38212997D01*
X12164100Y38000000D01*
X12145465Y37787003D01*
X12090127Y37580478D01*
X11999767Y37386700D01*
X11877130Y37211557D01*
X11725943Y37060370D01*
X11550800Y36937733D01*
X11357022Y36847373D01*
X11150497Y36792035D01*
X10937500Y36773400D01*
X10724503Y36792035D01*
X10517978Y36847373D01*
X10324200Y36937733D01*
X10149057Y37060370D01*
X9997870Y37211557D01*
X9875233Y37386700D01*
X9784873Y37580478D01*
X9729535Y37787003D01*
X9710900Y38000000D01*
X9729535Y38212997D01*
X9784873Y38419522D01*
X9875233Y38613300D01*
X9997870Y38788443D01*
X10149057Y38939630D01*
X10324200Y39062267D01*
X10517978Y39152627D01*
X10724503Y39207965D01*
X10937500Y39226600D01*
X11150497Y39207965D01*
G37*
G36*
X19150497Y39207965D02*
G01*
X19357022Y39152627D01*
X19550800Y39062267D01*
X19725943Y38939630D01*
X19877130Y38788443D01*
X19999767Y38613300D01*
X20090127Y38419522D01*
X20145465Y38212997D01*
X20164100Y38000000D01*
X20145465Y37787003D01*
X20090127Y37580478D01*
X19999767Y37386700D01*
X19877130Y37211557D01*
X19725943Y37060370D01*
X19550800Y36937733D01*
X19357022Y36847373D01*
X19150497Y36792035D01*
X18937500Y36773400D01*
X18724503Y36792035D01*
X18517978Y36847373D01*
X18324200Y36937733D01*
X18149057Y37060370D01*
X17997870Y37211557D01*
X17875233Y37386700D01*
X17784873Y37580478D01*
X17729535Y37787003D01*
X17710900Y38000000D01*
X17729535Y38212997D01*
X17784873Y38419522D01*
X17875233Y38613300D01*
X17997870Y38788443D01*
X18149057Y38939630D01*
X18324200Y39062267D01*
X18517978Y39152627D01*
X18724503Y39207965D01*
X18937500Y39226600D01*
X19150497Y39207965D01*
G37*
G36*
X13650497Y40707965D02*
G01*
X13857022Y40652627D01*
X14050800Y40562267D01*
X14225943Y40439630D01*
X14377130Y40288443D01*
X14499767Y40113300D01*
X14590127Y39919522D01*
X14645465Y39712997D01*
X14664100Y39500000D01*
X14645465Y39287003D01*
X14590127Y39080478D01*
X14499767Y38886700D01*
X14377130Y38711557D01*
X14225943Y38560370D01*
X14050800Y38437733D01*
X13857022Y38347373D01*
X13650497Y38292035D01*
X13437500Y38273400D01*
X13224503Y38292035D01*
X13017978Y38347373D01*
X12824200Y38437733D01*
X12649057Y38560370D01*
X12497870Y38711557D01*
X12375233Y38886700D01*
X12284873Y39080478D01*
X12229535Y39287003D01*
X12210900Y39500000D01*
X12229535Y39712997D01*
X12284873Y39919522D01*
X12375233Y40113300D01*
X12497870Y40288443D01*
X12649057Y40439630D01*
X12824200Y40562267D01*
X13017978Y40652627D01*
X13224503Y40707965D01*
X13437500Y40726600D01*
X13650497Y40707965D01*
G37*
G36*
X16650497Y40707965D02*
G01*
X16857022Y40652627D01*
X17050800Y40562267D01*
X17225943Y40439630D01*
X17377130Y40288443D01*
X17499767Y40113300D01*
X17590127Y39919522D01*
X17645465Y39712997D01*
X17664100Y39500000D01*
X17645465Y39287003D01*
X17590127Y39080478D01*
X17499767Y38886700D01*
X17377130Y38711557D01*
X17225943Y38560370D01*
X17050800Y38437733D01*
X16857022Y38347373D01*
X16650497Y38292035D01*
X16437500Y38273400D01*
X16224503Y38292035D01*
X16017978Y38347373D01*
X15824200Y38437733D01*
X15649057Y38560370D01*
X15497870Y38711557D01*
X15375233Y38886700D01*
X15284873Y39080478D01*
X15229535Y39287003D01*
X15210900Y39500000D01*
X15229535Y39712997D01*
X15284873Y39919522D01*
X15375233Y40113300D01*
X15497870Y40288443D01*
X15649057Y40439630D01*
X15824200Y40562267D01*
X16017978Y40652627D01*
X16224503Y40707965D01*
X16437500Y40726600D01*
X16650497Y40707965D01*
G37*
G36*
X11150497Y42207965D02*
G01*
X11357022Y42152627D01*
X11550800Y42062267D01*
X11725943Y41939630D01*
X11877130Y41788443D01*
X11999767Y41613300D01*
X12090127Y41419522D01*
X12145465Y41212997D01*
X12164100Y41000000D01*
X12145465Y40787003D01*
X12090127Y40580478D01*
X11999767Y40386700D01*
X11877130Y40211557D01*
X11725943Y40060370D01*
X11550800Y39937733D01*
X11357022Y39847373D01*
X11150497Y39792035D01*
X10937500Y39773400D01*
X10724503Y39792035D01*
X10517978Y39847373D01*
X10324200Y39937733D01*
X10149057Y40060370D01*
X9997870Y40211557D01*
X9875233Y40386700D01*
X9784873Y40580478D01*
X9729535Y40787003D01*
X9710900Y41000000D01*
X9729535Y41212997D01*
X9784873Y41419522D01*
X9875233Y41613300D01*
X9997870Y41788443D01*
X10149057Y41939630D01*
X10324200Y42062267D01*
X10517978Y42152627D01*
X10724503Y42207965D01*
X10937500Y42226600D01*
X11150497Y42207965D01*
G37*
G36*
X19150497Y42207965D02*
G01*
X19357022Y42152627D01*
X19550800Y42062267D01*
X19725943Y41939630D01*
X19877130Y41788443D01*
X19999767Y41613300D01*
X20090127Y41419522D01*
X20145465Y41212997D01*
X20164100Y41000000D01*
X20145465Y40787003D01*
X20090127Y40580478D01*
X19999767Y40386700D01*
X19877130Y40211557D01*
X19725943Y40060370D01*
X19550800Y39937733D01*
X19357022Y39847373D01*
X19150497Y39792035D01*
X18937500Y39773400D01*
X18724503Y39792035D01*
X18517978Y39847373D01*
X18324200Y39937733D01*
X18149057Y40060370D01*
X17997870Y40211557D01*
X17875233Y40386700D01*
X17784873Y40580478D01*
X17729535Y40787003D01*
X17710900Y41000000D01*
X17729535Y41212997D01*
X17784873Y41419522D01*
X17875233Y41613300D01*
X17997870Y41788443D01*
X18149057Y41939630D01*
X18324200Y42062267D01*
X18517978Y42152627D01*
X18724503Y42207965D01*
X18937500Y42226600D01*
X19150497Y42207965D01*
G37*
G36*
X99675679Y41686741D02*
G01*
X99705638Y41686741D01*
X99740720Y41676440D01*
X99776827Y41670721D01*
X99799446Y41659196D01*
X99821998Y41652574D01*
X99858570Y41629071D01*
X99895749Y41610127D01*
X99909599Y41596277D01*
X99924023Y41587007D01*
X99957477Y41548399D01*
X99990127Y41515749D01*
X99996348Y41503540D01*
X100003439Y41495356D01*
X100028684Y41440077D01*
X100050721Y41396827D01*
X100051934Y41389166D01*
X100053818Y41385041D01*
X100065928Y41300808D01*
X100071600Y41265000D01*
X100065928Y41229190D01*
X100053818Y41144960D01*
X100051934Y41140837D01*
X100050721Y41133173D01*
X100028679Y41089916D01*
X100003439Y41034645D01*
X99996349Y41026464D01*
X99990127Y41014251D01*
X99957470Y40981595D01*
X99924023Y40942994D01*
X99909602Y40933727D01*
X99895749Y40919873D01*
X99858562Y40900926D01*
X99821998Y40877427D01*
X99799449Y40870806D01*
X99776827Y40859279D01*
X99740718Y40853561D01*
X99705638Y40843259D01*
X99675679Y40843259D01*
X99645000Y40838400D01*
X99614321Y40843259D01*
X99584362Y40843259D01*
X99549280Y40853561D01*
X99513173Y40859279D01*
X99490551Y40870806D01*
X99468001Y40877427D01*
X99431432Y40900929D01*
X99394251Y40919873D01*
X99380399Y40933725D01*
X99365976Y40942994D01*
X99332521Y40981603D01*
X99299873Y41014251D01*
X99293651Y41026461D01*
X99286560Y41034645D01*
X99261310Y41089935D01*
X99239279Y41133173D01*
X99238065Y41140833D01*
X99236181Y41144960D01*
X99224060Y41229259D01*
X99218400Y41265000D01*
X99224060Y41300739D01*
X99236181Y41385041D01*
X99238066Y41389169D01*
X99239279Y41396827D01*
X99261306Y41440058D01*
X99286560Y41495356D01*
X99293653Y41503542D01*
X99299873Y41515749D01*
X99332515Y41548392D01*
X99365976Y41587007D01*
X99380401Y41596278D01*
X99394251Y41610127D01*
X99431424Y41629069D01*
X99468001Y41652574D01*
X99490555Y41659197D01*
X99513173Y41670721D01*
X99549278Y41676440D01*
X99584362Y41686741D01*
X99614321Y41686741D01*
X99645000Y41691600D01*
X99675679Y41686741D01*
G37*
G36*
X13650497Y43707965D02*
G01*
X13857022Y43652627D01*
X14050800Y43562267D01*
X14225943Y43439630D01*
X14377130Y43288443D01*
X14499767Y43113300D01*
X14590127Y42919522D01*
X14645465Y42712997D01*
X14664100Y42500000D01*
X14645465Y42287003D01*
X14590127Y42080478D01*
X14499767Y41886700D01*
X14377130Y41711557D01*
X14225943Y41560370D01*
X14050800Y41437733D01*
X13857022Y41347373D01*
X13650497Y41292035D01*
X13437500Y41273400D01*
X13224503Y41292035D01*
X13017978Y41347373D01*
X12824200Y41437733D01*
X12649057Y41560370D01*
X12497870Y41711557D01*
X12375233Y41886700D01*
X12284873Y42080478D01*
X12229535Y42287003D01*
X12210900Y42500000D01*
X12229535Y42712997D01*
X12284873Y42919522D01*
X12375233Y43113300D01*
X12497870Y43288443D01*
X12649057Y43439630D01*
X12824200Y43562267D01*
X13017978Y43652627D01*
X13224503Y43707965D01*
X13437500Y43726600D01*
X13650497Y43707965D01*
G37*
G36*
X16650497Y43707965D02*
G01*
X16857022Y43652627D01*
X17050800Y43562267D01*
X17225943Y43439630D01*
X17377130Y43288443D01*
X17499767Y43113300D01*
X17590127Y42919522D01*
X17645465Y42712997D01*
X17664100Y42500000D01*
X17645465Y42287003D01*
X17590127Y42080478D01*
X17499767Y41886700D01*
X17377130Y41711557D01*
X17225943Y41560370D01*
X17050800Y41437733D01*
X16857022Y41347373D01*
X16650497Y41292035D01*
X16437500Y41273400D01*
X16224503Y41292035D01*
X16017978Y41347373D01*
X15824200Y41437733D01*
X15649057Y41560370D01*
X15497870Y41711557D01*
X15375233Y41886700D01*
X15284873Y42080478D01*
X15229535Y42287003D01*
X15210900Y42500000D01*
X15229535Y42712997D01*
X15284873Y42919522D01*
X15375233Y43113300D01*
X15497870Y43288443D01*
X15649057Y43439630D01*
X15824200Y43562267D01*
X16017978Y43652627D01*
X16224503Y43707965D01*
X16437500Y43726600D01*
X16650497Y43707965D01*
G37*
G36*
X99698737Y43296356D02*
G01*
X99752710Y43293704D01*
X99759358Y43292382D01*
X99773525Y43291453D01*
X99800893Y43284120D01*
X99869565Y43270460D01*
X99901977Y43257035D01*
X99925222Y43250806D01*
X99946061Y43238775D01*
X99978473Y43225349D01*
X100036687Y43186452D01*
X100061231Y43172281D01*
X100067949Y43165563D01*
X100076499Y43159850D01*
X100159849Y43076500D01*
X100165561Y43067951D01*
X100172281Y43061231D01*
X100186453Y43036685D01*
X100225348Y42978474D01*
X100238772Y42946066D01*
X100250806Y42925222D01*
X100257035Y42901974D01*
X100270459Y42869566D01*
X100284118Y42800898D01*
X100291453Y42773525D01*
X100291453Y42764027D01*
X100293459Y42753942D01*
X100293459Y42636059D01*
X100291453Y42625975D01*
X100291453Y42616475D01*
X100284117Y42589100D01*
X100270459Y42520435D01*
X100257036Y42488030D01*
X100250806Y42464778D01*
X100238770Y42443933D01*
X100225348Y42411527D01*
X100186457Y42353324D01*
X100172281Y42328769D01*
X100165559Y42322048D01*
X100159849Y42313501D01*
X100076499Y42230151D01*
X100067952Y42224441D01*
X100061231Y42217719D01*
X100036676Y42203543D01*
X99978473Y42164652D01*
X99946067Y42151230D01*
X99925222Y42139194D01*
X99901970Y42132964D01*
X99869565Y42119541D01*
X99800907Y42105885D01*
X99773525Y42098547D01*
X99759350Y42097618D01*
X99752710Y42096297D01*
X99698742Y42093646D01*
X99695000Y42093400D01*
X99693750Y42093400D01*
X98596250Y42093400D01*
X98595000Y42093400D01*
X98591257Y42093646D01*
X98537289Y42096297D01*
X98530647Y42097619D01*
X98516475Y42098547D01*
X98489095Y42105884D01*
X98420434Y42119541D01*
X98388026Y42132965D01*
X98364778Y42139194D01*
X98343934Y42151228D01*
X98311526Y42164652D01*
X98253315Y42203547D01*
X98228769Y42217719D01*
X98222049Y42224439D01*
X98213500Y42230151D01*
X98130150Y42313501D01*
X98124437Y42322051D01*
X98117719Y42328769D01*
X98103548Y42353313D01*
X98064651Y42411527D01*
X98051225Y42443939D01*
X98039194Y42464778D01*
X98032965Y42488023D01*
X98019540Y42520435D01*
X98005880Y42589106D01*
X97998547Y42616475D01*
X97998547Y42625975D01*
X97996541Y42636059D01*
X97996541Y42753942D01*
X97998547Y42764027D01*
X97998547Y42773525D01*
X98005879Y42800892D01*
X98019540Y42869566D01*
X98032966Y42901981D01*
X98039194Y42925222D01*
X98051224Y42946060D01*
X98064651Y42978474D01*
X98103553Y43036696D01*
X98117719Y43061231D01*
X98124435Y43067948D01*
X98130150Y43076500D01*
X98213500Y43159850D01*
X98222052Y43165565D01*
X98228769Y43172281D01*
X98253304Y43186447D01*
X98311526Y43225349D01*
X98343940Y43238776D01*
X98364778Y43250806D01*
X98388019Y43257034D01*
X98420434Y43270460D01*
X98489109Y43284121D01*
X98516475Y43291453D01*
X98530640Y43292382D01*
X98537289Y43293704D01*
X98591262Y43296356D01*
X98595000Y43296600D01*
X99695000Y43296600D01*
X99698737Y43296356D01*
G37*
G36*
X103728737Y43296356D02*
G01*
X103782710Y43293704D01*
X103789358Y43292382D01*
X103803525Y43291453D01*
X103830893Y43284120D01*
X103899565Y43270460D01*
X103931977Y43257035D01*
X103955222Y43250806D01*
X103976061Y43238775D01*
X104008473Y43225349D01*
X104066687Y43186452D01*
X104091231Y43172281D01*
X104097949Y43165563D01*
X104106499Y43159850D01*
X104189849Y43076500D01*
X104195561Y43067951D01*
X104202281Y43061231D01*
X104216453Y43036685D01*
X104255348Y42978474D01*
X104268772Y42946066D01*
X104280806Y42925222D01*
X104287035Y42901974D01*
X104300459Y42869566D01*
X104314118Y42800898D01*
X104321453Y42773525D01*
X104321453Y42764027D01*
X104323459Y42753942D01*
X104323459Y42636059D01*
X104321453Y42625975D01*
X104321453Y42616475D01*
X104314117Y42589100D01*
X104300459Y42520435D01*
X104287036Y42488030D01*
X104280806Y42464778D01*
X104268770Y42443933D01*
X104255348Y42411527D01*
X104216457Y42353324D01*
X104202281Y42328769D01*
X104195559Y42322048D01*
X104189849Y42313501D01*
X104106499Y42230151D01*
X104097952Y42224441D01*
X104091231Y42217719D01*
X104066676Y42203543D01*
X104008473Y42164652D01*
X103976067Y42151230D01*
X103955222Y42139194D01*
X103931970Y42132964D01*
X103899565Y42119541D01*
X103830907Y42105885D01*
X103803525Y42098547D01*
X103789350Y42097618D01*
X103782710Y42096297D01*
X103728742Y42093646D01*
X103725000Y42093400D01*
X103723750Y42093400D01*
X102926250Y42093400D01*
X102925000Y42093400D01*
X102921257Y42093646D01*
X102867289Y42096297D01*
X102860647Y42097619D01*
X102846475Y42098547D01*
X102819095Y42105884D01*
X102750434Y42119541D01*
X102718026Y42132965D01*
X102694778Y42139194D01*
X102673934Y42151228D01*
X102641526Y42164652D01*
X102583315Y42203547D01*
X102558769Y42217719D01*
X102552049Y42224439D01*
X102543500Y42230151D01*
X102460150Y42313501D01*
X102454437Y42322051D01*
X102447719Y42328769D01*
X102433548Y42353313D01*
X102394651Y42411527D01*
X102381225Y42443939D01*
X102369194Y42464778D01*
X102362965Y42488023D01*
X102349540Y42520435D01*
X102335880Y42589106D01*
X102328547Y42616475D01*
X102328547Y42625975D01*
X102326541Y42636059D01*
X102326541Y42753942D01*
X102328547Y42764027D01*
X102328547Y42773525D01*
X102335879Y42800892D01*
X102349540Y42869566D01*
X102362966Y42901981D01*
X102369194Y42925222D01*
X102381224Y42946060D01*
X102394651Y42978474D01*
X102433553Y43036696D01*
X102447719Y43061231D01*
X102454435Y43067948D01*
X102460150Y43076500D01*
X102543500Y43159850D01*
X102552052Y43165565D01*
X102558769Y43172281D01*
X102583304Y43186447D01*
X102641526Y43225349D01*
X102673940Y43238776D01*
X102694778Y43250806D01*
X102718019Y43257034D01*
X102750434Y43270460D01*
X102819109Y43284121D01*
X102846475Y43291453D01*
X102860640Y43292382D01*
X102867289Y43293704D01*
X102921262Y43296356D01*
X102925000Y43296600D01*
X103725000Y43296600D01*
X103728737Y43296356D01*
G37*
G36*
X11150497Y45207965D02*
G01*
X11357022Y45152627D01*
X11550800Y45062267D01*
X11725943Y44939630D01*
X11877130Y44788443D01*
X11999767Y44613300D01*
X12090127Y44419522D01*
X12145465Y44212997D01*
X12164100Y44000000D01*
X12145465Y43787003D01*
X12090127Y43580478D01*
X11999767Y43386700D01*
X11877130Y43211557D01*
X11725943Y43060370D01*
X11550800Y42937733D01*
X11357022Y42847373D01*
X11150497Y42792035D01*
X10937500Y42773400D01*
X10724503Y42792035D01*
X10517978Y42847373D01*
X10324200Y42937733D01*
X10149057Y43060370D01*
X9997870Y43211557D01*
X9875233Y43386700D01*
X9784873Y43580478D01*
X9729535Y43787003D01*
X9710900Y44000000D01*
X9729535Y44212997D01*
X9784873Y44419522D01*
X9875233Y44613300D01*
X9997870Y44788443D01*
X10149057Y44939630D01*
X10324200Y45062267D01*
X10517978Y45152627D01*
X10724503Y45207965D01*
X10937500Y45226600D01*
X11150497Y45207965D01*
G37*
G36*
X19150497Y45207965D02*
G01*
X19357022Y45152627D01*
X19550800Y45062267D01*
X19725943Y44939630D01*
X19877130Y44788443D01*
X19999767Y44613300D01*
X20090127Y44419522D01*
X20145465Y44212997D01*
X20164100Y44000000D01*
X20145465Y43787003D01*
X20090127Y43580478D01*
X19999767Y43386700D01*
X19877130Y43211557D01*
X19725943Y43060370D01*
X19550800Y42937733D01*
X19357022Y42847373D01*
X19150497Y42792035D01*
X18937500Y42773400D01*
X18724503Y42792035D01*
X18517978Y42847373D01*
X18324200Y42937733D01*
X18149057Y43060370D01*
X17997870Y43211557D01*
X17875233Y43386700D01*
X17784873Y43580478D01*
X17729535Y43787003D01*
X17710900Y44000000D01*
X17729535Y44212997D01*
X17784873Y44419522D01*
X17875233Y44613300D01*
X17997870Y44788443D01*
X18149057Y44939630D01*
X18324200Y45062267D01*
X18517978Y45152627D01*
X18724503Y45207965D01*
X18937500Y45226600D01*
X19150497Y45207965D01*
G37*
G36*
X102388881Y48113866D02*
G01*
X102421842Y48091842D01*
X102443866Y48058881D01*
X102451600Y48020000D01*
X102451600Y46320000D01*
X102443866Y46281119D01*
X102421842Y46248158D01*
X102388881Y46226134D01*
X102350000Y46218400D01*
X100650000Y46218400D01*
X100611119Y46226134D01*
X100578158Y46248158D01*
X100556134Y46281119D01*
X100548400Y46320000D01*
X100548400Y48020000D01*
X100556134Y48058881D01*
X100578158Y48091842D01*
X100611119Y48113866D01*
X100650000Y48121600D01*
X102350000Y48121600D01*
X102388881Y48113866D01*
G37*
G36*
X4757115Y53882267D02*
G01*
X5072069Y53824549D01*
X5377770Y53729289D01*
X5669760Y53597875D01*
X5943780Y53432224D01*
X6195836Y53234751D01*
X6422251Y53008336D01*
X6619724Y52756280D01*
X6785375Y52482260D01*
X6916789Y52190270D01*
X7012049Y51884569D01*
X7069767Y51569615D01*
X7089100Y51250000D01*
X7069767Y50930385D01*
X7012049Y50615431D01*
X6916789Y50309730D01*
X6785375Y50017740D01*
X6619724Y49743720D01*
X6422251Y49491664D01*
X6195836Y49265249D01*
X5943780Y49067776D01*
X5669760Y48902125D01*
X5377770Y48770711D01*
X5072069Y48675451D01*
X4757115Y48617733D01*
X4437500Y48598400D01*
X4117885Y48617733D01*
X3802931Y48675451D01*
X3497230Y48770711D01*
X3205240Y48902125D01*
X2931220Y49067776D01*
X2679164Y49265249D01*
X2452749Y49491664D01*
X2255276Y49743720D01*
X2089625Y50017740D01*
X1958211Y50309730D01*
X1862951Y50615431D01*
X1805233Y50930385D01*
X1785900Y51250000D01*
X1805233Y51569615D01*
X1862951Y51884569D01*
X1958211Y52190270D01*
X2089625Y52482260D01*
X2255276Y52756280D01*
X2452749Y53008336D01*
X2679164Y53234751D01*
X2931220Y53432224D01*
X3205240Y53597875D01*
X3497230Y53729289D01*
X3802931Y53824549D01*
X4117885Y53882267D01*
X4437500Y53901600D01*
X4757115Y53882267D01*
G37*
G36*
X101685648Y50643315D02*
G01*
X101864162Y50589164D01*
X102028681Y50501226D01*
X102172883Y50382883D01*
X102291226Y50238681D01*
X102379164Y50074162D01*
X102433315Y49895648D01*
X102451600Y49710000D01*
X102433315Y49524352D01*
X102379164Y49345838D01*
X102291226Y49181319D01*
X102172883Y49037117D01*
X102028681Y48918774D01*
X101864162Y48830836D01*
X101685648Y48776685D01*
X101500000Y48758400D01*
X101314352Y48776685D01*
X101135838Y48830836D01*
X100971319Y48918774D01*
X100827117Y49037117D01*
X100708774Y49181319D01*
X100620836Y49345838D01*
X100566685Y49524352D01*
X100548400Y49710000D01*
X100566685Y49895648D01*
X100620836Y50074162D01*
X100708774Y50238681D01*
X100827117Y50382883D01*
X100971319Y50501226D01*
X101135838Y50589164D01*
X101314352Y50643315D01*
X101500000Y50661600D01*
X101685648Y50643315D01*
G37*
G36*
X101685648Y53183315D02*
G01*
X101864162Y53129164D01*
X102028681Y53041226D01*
X102172883Y52922883D01*
X102291226Y52778681D01*
X102379164Y52614162D01*
X102433315Y52435648D01*
X102451600Y52250000D01*
X102433315Y52064352D01*
X102379164Y51885838D01*
X102291226Y51721319D01*
X102172883Y51577117D01*
X102028681Y51458774D01*
X101864162Y51370836D01*
X101685648Y51316685D01*
X101500000Y51298400D01*
X101314352Y51316685D01*
X101135838Y51370836D01*
X100971319Y51458774D01*
X100827117Y51577117D01*
X100708774Y51721319D01*
X100620836Y51885838D01*
X100566685Y52064352D01*
X100548400Y52250000D01*
X100566685Y52435648D01*
X100620836Y52614162D01*
X100708774Y52778681D01*
X100827117Y52922883D01*
X100971319Y53041226D01*
X101135838Y53129164D01*
X101314352Y53183315D01*
X101500000Y53201600D01*
X101685648Y53183315D01*
G37*
G36*
X101685648Y55723315D02*
G01*
X101864162Y55669164D01*
X102028681Y55581226D01*
X102172883Y55462883D01*
X102291226Y55318681D01*
X102379164Y55154162D01*
X102433315Y54975648D01*
X102451600Y54790000D01*
X102433315Y54604352D01*
X102379164Y54425838D01*
X102291226Y54261319D01*
X102172883Y54117117D01*
X102028681Y53998774D01*
X101864162Y53910836D01*
X101685648Y53856685D01*
X101500000Y53838400D01*
X101314352Y53856685D01*
X101135838Y53910836D01*
X100971319Y53998774D01*
X100827117Y54117117D01*
X100708774Y54261319D01*
X100620836Y54425838D01*
X100566685Y54604352D01*
X100548400Y54790000D01*
X100566685Y54975648D01*
X100620836Y55154162D01*
X100708774Y55318681D01*
X100827117Y55462883D01*
X100971319Y55581226D01*
X101135838Y55669164D01*
X101314352Y55723315D01*
X101500000Y55741600D01*
X101685648Y55723315D01*
G37*
G36*
X4034139Y63758106D02*
G01*
X4383272Y63681257D01*
X4722048Y63567110D01*
X5046497Y63417003D01*
X5352815Y63232698D01*
X5637411Y63016354D01*
X5896947Y62770509D01*
X6128381Y62498043D01*
X6329000Y62202153D01*
X6496451Y61886306D01*
X6628772Y61554206D01*
X6724410Y61209746D01*
X6782246Y60856966D01*
X6801600Y60500000D01*
X6782246Y60143034D01*
X6724410Y59790254D01*
X6628772Y59445794D01*
X6496451Y59113694D01*
X6329000Y58797847D01*
X6128381Y58501957D01*
X5896947Y58229491D01*
X5637411Y57983646D01*
X5352815Y57767302D01*
X5046497Y57582997D01*
X4722048Y57432890D01*
X4383272Y57318743D01*
X4034139Y57241894D01*
X3678745Y57203242D01*
X3321255Y57203242D01*
X2965861Y57241894D01*
X2616728Y57318743D01*
X2277952Y57432890D01*
X1953503Y57582997D01*
X1647185Y57767302D01*
X1362589Y57983646D01*
X1103053Y58229491D01*
X871619Y58501957D01*
X671000Y58797847D01*
X503549Y59113694D01*
X371228Y59445794D01*
X275590Y59790254D01*
X217754Y60143034D01*
X198400Y60500000D01*
X217754Y60856966D01*
X275590Y61209746D01*
X371228Y61554206D01*
X503549Y61886306D01*
X671000Y62202153D01*
X871619Y62498043D01*
X1103053Y62770509D01*
X1362589Y63016354D01*
X1647185Y63232698D01*
X1953503Y63417003D01*
X2277952Y63567110D01*
X2616728Y63681257D01*
X2965861Y63758106D01*
X3321255Y63796758D01*
X3678745Y63796758D01*
X4034139Y63758106D01*
G37*
G36*
X101784139Y63758106D02*
G01*
X102133272Y63681257D01*
X102472048Y63567110D01*
X102796497Y63417003D01*
X103102815Y63232698D01*
X103387411Y63016354D01*
X103646947Y62770509D01*
X103878381Y62498043D01*
X104079000Y62202153D01*
X104246451Y61886306D01*
X104378772Y61554206D01*
X104474410Y61209746D01*
X104532246Y60856966D01*
X104551600Y60500000D01*
X104532246Y60143034D01*
X104474410Y59790254D01*
X104378772Y59445794D01*
X104246451Y59113694D01*
X104079000Y58797847D01*
X103878381Y58501957D01*
X103646947Y58229491D01*
X103387411Y57983646D01*
X103102815Y57767302D01*
X102796497Y57582997D01*
X102472048Y57432890D01*
X102133272Y57318743D01*
X101784139Y57241894D01*
X101428745Y57203242D01*
X101071255Y57203242D01*
X100715861Y57241894D01*
X100366728Y57318743D01*
X100027952Y57432890D01*
X99703503Y57582997D01*
X99397185Y57767302D01*
X99112589Y57983646D01*
X98853053Y58229491D01*
X98621619Y58501957D01*
X98421000Y58797847D01*
X98253549Y59113694D01*
X98121228Y59445794D01*
X98025590Y59790254D01*
X97967754Y60143034D01*
X97948400Y60500000D01*
X97967754Y60856966D01*
X98025590Y61209746D01*
X98121228Y61554206D01*
X98253549Y61886306D01*
X98421000Y62202153D01*
X98621619Y62498043D01*
X98853053Y62770509D01*
X99112589Y63016354D01*
X99397185Y63232698D01*
X99703503Y63417003D01*
X100027952Y63567110D01*
X100366728Y63681257D01*
X100715861Y63758106D01*
X101071255Y63796758D01*
X101428745Y63796758D01*
X101784139Y63758106D01*
G37*
G36*
X74665648Y62683315D02*
G01*
X74844162Y62629164D01*
X75008681Y62541226D01*
X75152883Y62422883D01*
X75271226Y62278681D01*
X75359164Y62114162D01*
X75413315Y61935648D01*
X75431600Y61750000D01*
X75413315Y61564352D01*
X75359164Y61385838D01*
X75271226Y61221319D01*
X75152883Y61077117D01*
X75008681Y60958774D01*
X74844162Y60870836D01*
X74665648Y60816685D01*
X74480000Y60798400D01*
X74294352Y60816685D01*
X74115838Y60870836D01*
X73951319Y60958774D01*
X73807117Y61077117D01*
X73688774Y61221319D01*
X73600836Y61385838D01*
X73546685Y61564352D01*
X73528400Y61750000D01*
X73546685Y61935648D01*
X73600836Y62114162D01*
X73688774Y62278681D01*
X73807117Y62422883D01*
X73951319Y62541226D01*
X74115838Y62629164D01*
X74294352Y62683315D01*
X74480000Y62701600D01*
X74665648Y62683315D01*
G37*
G36*
X77205648Y62683315D02*
G01*
X77384162Y62629164D01*
X77548681Y62541226D01*
X77692883Y62422883D01*
X77811226Y62278681D01*
X77899164Y62114162D01*
X77953315Y61935648D01*
X77971600Y61750000D01*
X77953315Y61564352D01*
X77899164Y61385838D01*
X77811226Y61221319D01*
X77692883Y61077117D01*
X77548681Y60958774D01*
X77384162Y60870836D01*
X77205648Y60816685D01*
X77020000Y60798400D01*
X76834352Y60816685D01*
X76655838Y60870836D01*
X76491319Y60958774D01*
X76347117Y61077117D01*
X76228774Y61221319D01*
X76140836Y61385838D01*
X76086685Y61564352D01*
X76068400Y61750000D01*
X76086685Y61935648D01*
X76140836Y62114162D01*
X76228774Y62278681D01*
X76347117Y62422883D01*
X76491319Y62541226D01*
X76655838Y62629164D01*
X76834352Y62683315D01*
X77020000Y62701600D01*
X77205648Y62683315D01*
G37*
G36*
X79745648Y62683315D02*
G01*
X79924162Y62629164D01*
X80088681Y62541226D01*
X80232883Y62422883D01*
X80351226Y62278681D01*
X80439164Y62114162D01*
X80493315Y61935648D01*
X80511600Y61750000D01*
X80493315Y61564352D01*
X80439164Y61385838D01*
X80351226Y61221319D01*
X80232883Y61077117D01*
X80088681Y60958774D01*
X79924162Y60870836D01*
X79745648Y60816685D01*
X79560000Y60798400D01*
X79374352Y60816685D01*
X79195838Y60870836D01*
X79031319Y60958774D01*
X78887117Y61077117D01*
X78768774Y61221319D01*
X78680836Y61385838D01*
X78626685Y61564352D01*
X78608400Y61750000D01*
X78626685Y61935648D01*
X78680836Y62114162D01*
X78768774Y62278681D01*
X78887117Y62422883D01*
X79031319Y62541226D01*
X79195838Y62629164D01*
X79374352Y62683315D01*
X79560000Y62701600D01*
X79745648Y62683315D01*
G37*
G36*
X82988881Y62693866D02*
G01*
X83021842Y62671842D01*
X83043866Y62638881D01*
X83051600Y62600000D01*
X83051600Y60900000D01*
X83043866Y60861119D01*
X83021842Y60828158D01*
X82988881Y60806134D01*
X82950000Y60798400D01*
X81250000Y60798400D01*
X81211119Y60806134D01*
X81178158Y60828158D01*
X81156134Y60861119D01*
X81148400Y60900000D01*
X81148400Y62600000D01*
X81156134Y62638881D01*
X81178158Y62671842D01*
X81211119Y62693866D01*
X81250000Y62701600D01*
X82950000Y62701600D01*
X82988881Y62693866D01*
G37*
M02*
