%TF.GenerationSoftware,KiCad,Pcbnew,8.0.6*%
%TF.CreationDate,2025-01-10T15:23:21+07:00*%
%TF.ProjectId,NO2C,4e4f3243-2e6b-4696-9361-645f70636258,vD1*%
%TF.SameCoordinates,Original*%
%TF.FileFunction,Copper,L3,Inr*%
%TF.FilePolarity,Positive*%
%FSLAX46Y46*%
G04 Gerber Fmt 4.6, Leading zero omitted, Abs format (unit mm)*
G04 Created by KiCad (PCBNEW 8.0.6) date 2025-01-10 15:23:21*
%MOMM*%
%LPD*%
G01*
G04 APERTURE LIST*
%TA.AperFunction,ComponentPad*%
%ADD10R,1.700000X1.700000*%
%TD*%
%TA.AperFunction,ComponentPad*%
%ADD11O,1.700000X1.700000*%
%TD*%
%TA.AperFunction,ComponentPad*%
%ADD12O,1.600000X1.600000*%
%TD*%
%TA.AperFunction,ComponentPad*%
%ADD13R,1.600000X1.600000*%
%TD*%
%TA.AperFunction,ComponentPad*%
%ADD14C,2.250000*%
%TD*%
%TA.AperFunction,ComponentPad*%
%ADD15C,5.100000*%
%TD*%
%TA.AperFunction,ComponentPad*%
%ADD16C,0.800000*%
%TD*%
%TA.AperFunction,ComponentPad*%
%ADD17C,6.400000*%
%TD*%
%TA.AperFunction,ComponentPad*%
%ADD18O,2.100000X1.000000*%
%TD*%
%TA.AperFunction,ComponentPad*%
%ADD19O,1.800000X1.000000*%
%TD*%
%TA.AperFunction,ViaPad*%
%ADD20C,0.600000*%
%TD*%
%TA.AperFunction,Conductor*%
%ADD21C,1.000000*%
%TD*%
%TA.AperFunction,Conductor*%
%ADD22C,0.800000*%
%TD*%
%TA.AperFunction,Conductor*%
%ADD23C,0.250000*%
%TD*%
%TA.AperFunction,Conductor*%
%ADD24C,0.300000*%
%TD*%
%TA.AperFunction,Conductor*%
%ADD25C,0.500000*%
%TD*%
G04 APERTURE END LIST*
D10*
%TO.N,unconnected-(J4-Pin_1-Pad1)*%
%TO.C,J4*%
X80130000Y61750000D03*
D11*
%TO.N,+5V*%
X82670000Y61750000D03*
%TO.N,GND*%
X85210000Y61750000D03*
%TO.N,Net-(J4-Pin_4)*%
X87750000Y61750000D03*
%TO.N,/PA9*%
X90290000Y61750000D03*
%TO.N,unconnected-(J4-Pin_6-Pad6)*%
X92830000Y61750000D03*
%TD*%
D12*
%TO.N,/ENBL*%
%TO.C,IC4*%
X11150000Y1902000D03*
%TO.N,unconnected-(IC4-P2-Pad2)*%
X13690000Y1902000D03*
%TO.N,unconnected-(IC4-P3-Pad3)*%
X16230000Y1902000D03*
%TO.N,unconnected-(IC4-P4-Pad4)*%
X18770000Y1902000D03*
%TO.N,+5V*%
X21310000Y1902000D03*
X23850000Y1902000D03*
%TO.N,/STEP*%
X26390000Y1902000D03*
%TO.N,/DIR*%
X28930000Y1902000D03*
D13*
%TO.N,GND*%
X28930000Y14602000D03*
D12*
%TO.N,unconnected-(IC4-P10-Pad10)*%
X26390000Y14602000D03*
%TO.N,/STP-A2*%
X23850000Y14602000D03*
%TO.N,/STP-A1*%
X21310000Y14602000D03*
%TO.N,/STP-B1*%
X18770000Y14602000D03*
%TO.N,/STP-B2*%
X16230000Y14602000D03*
D13*
%TO.N,Earth*%
X13690000Y14602000D03*
D12*
%TO.N,+12V*%
X11150000Y14602000D03*
%TD*%
D14*
%TO.N,+BATT*%
%TO.C,J1*%
X10937500Y44000000D03*
%TO.N,VR1+*%
X10937500Y41000000D03*
%TO.N,/VR1-*%
X10937500Y38000000D03*
%TO.N,/IGN1*%
X10937500Y35000000D03*
%TO.N,/IGN2*%
X10937500Y32000000D03*
%TO.N,/STP-A1*%
X10937500Y29000000D03*
%TO.N,/STP-A2*%
X10937500Y26000000D03*
%TO.N,/STP-B2*%
X10937500Y23000000D03*
%TO.N,/STP-B1*%
X10937500Y20000000D03*
%TO.N,+5V*%
X13437500Y42500000D03*
%TO.N,GND*%
X13437500Y39500000D03*
%TO.N,/VR2-*%
X13437500Y36500000D03*
%TO.N,VR2+*%
X13437500Y33500000D03*
%TO.N,/TACHO*%
X13437500Y30500000D03*
%TO.N,IP*%
X13437500Y27500000D03*
%TO.N,IA*%
X13437500Y24500000D03*
%TO.N,/IDLE*%
X13437500Y21500000D03*
%TO.N,GND*%
X16437500Y42500000D03*
%TO.N,/LAUNCH*%
X16437500Y39500000D03*
%TO.N,GND*%
X16437500Y36500000D03*
%TO.N,UN*%
X16437500Y33500000D03*
%TO.N,VM*%
X16437500Y30500000D03*
%TO.N,HEAT-*%
X16437500Y27500000D03*
%TO.N,CANH*%
X16437500Y24500000D03*
%TO.N,CANL*%
X16437500Y21500000D03*
%TO.N,/O2*%
X18937500Y44000000D03*
%TO.N,/TPS*%
X18937500Y41000000D03*
%TO.N,/CLT*%
X18937500Y38000000D03*
%TO.N,/IAT*%
X18937500Y35000000D03*
%TO.N,/INJ1*%
X18937500Y32000000D03*
%TO.N,/INJ2*%
X18937500Y29000000D03*
%TO.N,/VVT*%
X18937500Y26000000D03*
%TO.N,/BOOST*%
X18937500Y23000000D03*
%TO.N,/FUELP*%
X18937500Y20000000D03*
D15*
%TO.N,GND*%
X4437500Y51250000D03*
X4437500Y12750000D03*
%TD*%
D10*
%TO.N,+3.3V*%
%TO.C,P1*%
X101500000Y47170000D03*
D11*
%TO.N,/SWDIO*%
X101500000Y49710000D03*
%TO.N,/SWCLK*%
X101500000Y52250000D03*
%TO.N,GND*%
X101500000Y54790000D03*
%TD*%
D16*
%TO.N,N/C*%
%TO.C,REF\u002A\u002A*%
X1100000Y60500000D03*
X1802944Y62197056D03*
X1802944Y58802944D03*
X3500000Y62900000D03*
D17*
X3500000Y60500000D03*
D16*
X3500000Y58100000D03*
X5197056Y62197056D03*
X5197056Y58802944D03*
X5900000Y60500000D03*
%TD*%
%TO.N,N/C*%
%TO.C,REF\u002A\u002A*%
X1100000Y3500000D03*
X1802944Y5197056D03*
X1802944Y1802944D03*
X3500000Y5900000D03*
D17*
X3500000Y3500000D03*
D16*
X3500000Y1100000D03*
X5197056Y5197056D03*
X5197056Y1802944D03*
X5900000Y3500000D03*
%TD*%
%TO.N,N/C*%
%TO.C,REF\u002A\u002A*%
X98850000Y60500000D03*
X99552944Y62197056D03*
X99552944Y58802944D03*
X101250000Y62900000D03*
D17*
X101250000Y60500000D03*
D16*
X101250000Y58100000D03*
X102947056Y62197056D03*
X102947056Y58802944D03*
X103650000Y60500000D03*
%TD*%
%TO.N,N/C*%
%TO.C,REF\u002A\u002A*%
X98850000Y3500000D03*
X99552944Y5197056D03*
X99552944Y1802944D03*
X101250000Y5900000D03*
D17*
X101250000Y3500000D03*
D16*
X101250000Y1100000D03*
X102947056Y5197056D03*
X102947056Y1802944D03*
X103650000Y3500000D03*
%TD*%
D10*
%TO.N,+5V*%
%TO.C,JP1*%
X47250000Y29210000D03*
D11*
%TO.N,Net-(IC1-VDD)*%
X47250000Y31750000D03*
%TO.N,+12V*%
X47250000Y34290000D03*
%TD*%
D18*
%TO.N,GND*%
%TO.C,J2*%
X99145000Y34055000D03*
D19*
X103325000Y34055000D03*
D18*
X99145000Y42695000D03*
D19*
X103325000Y42695000D03*
%TD*%
D20*
%TO.N,GND*%
X77500000Y61750000D03*
X97000000Y57750000D03*
X97000000Y59750000D03*
X97000000Y61500000D03*
X97000000Y63250000D03*
X95500000Y55500000D03*
X94000000Y56250000D03*
X91500000Y56250000D03*
X84750000Y57500000D03*
X79500000Y56000000D03*
X82750000Y56000000D03*
X79250000Y52750000D03*
X82250000Y51500000D03*
X84000000Y53500000D03*
%TO.N,/PA10*%
X86750000Y55250000D03*
%TO.N,+5V*%
X32750000Y53500000D03*
X102225000Y16775000D03*
X31500000Y53500000D03*
X91500000Y18650000D03*
X81000000Y15000000D03*
X102800000Y24050000D03*
X95900000Y47950000D03*
X42500000Y4750000D03*
X8050000Y56250000D03*
%TO.N,+12V*%
X98750000Y9500000D03*
X25500000Y25550000D03*
X14450000Y53250000D03*
X49750000Y7250000D03*
X58500000Y2750000D03*
X46000000Y43750000D03*
X49750000Y6250000D03*
X49750000Y8250000D03*
X24200000Y25550000D03*
X74500000Y2750000D03*
X73250000Y2750000D03*
X59750000Y2750000D03*
%TO.N,/PA3*%
X58000000Y37300000D03*
X34000000Y41950000D03*
%TO.N,/PA4*%
X34500000Y38050000D03*
X57350000Y36450000D03*
%TO.N,/PA5*%
X58100000Y35650000D03*
X34500000Y34475000D03*
%TO.N,/STEP*%
X67000000Y17850000D03*
X69750000Y21500000D03*
%TO.N,/DIR*%
X70000000Y20250000D03*
X68150000Y17850000D03*
%TO.N,/ENBL*%
X65800000Y17850000D03*
X68300000Y21200000D03*
%TO.N,/VR1-*%
X34250000Y5750000D03*
%TO.N,/VR2-*%
X34250000Y8000000D03*
%TO.N,/FUELP*%
X65750000Y4250000D03*
X65750000Y2750000D03*
%TO.N,/BOOST*%
X67500000Y4250000D03*
X67500000Y2750000D03*
%TO.N,/IDLE*%
X51750000Y2750000D03*
X52750000Y2750000D03*
%TO.N,/IGN2*%
X55750000Y40250000D03*
%TO.N,/IGN1*%
X48750000Y40000000D03*
%TO.N,/TACHO*%
X51250000Y48000000D03*
%TO.N,/VVT*%
X80500000Y4000000D03*
X80500000Y2750000D03*
%TO.N,/LAUNCH*%
X62750000Y27250000D03*
%TO.N,/PD11*%
X69250000Y25000000D03*
X46750000Y15250000D03*
%TO.N,Net-(D5-COM)*%
X68750000Y28750000D03*
X62750000Y25750000D03*
%TO.N,/PA2*%
X34900000Y45800000D03*
X57400000Y38200000D03*
%TO.N,/PD10*%
X68250000Y25000000D03*
X41250000Y15250000D03*
%TO.N,/PA0*%
X64000000Y44250000D03*
X59500000Y50750000D03*
%TO.N,/PA1*%
X57850000Y39150000D03*
X43500000Y38750000D03*
%TO.N,Net-(D20-COM)*%
X85750000Y41750000D03*
X84750000Y20500000D03*
%TO.N,Net-(D21-COM)*%
X83250000Y20500000D03*
X85750000Y40250000D03*
%TO.N,CANL*%
X84500000Y7750000D03*
%TO.N,CANH*%
X85750000Y7750000D03*
%TO.N,+BATT*%
X36250000Y48500000D03*
X11000000Y53500000D03*
%TO.N,VR2+*%
X34250000Y9500000D03*
%TO.N,VR1+*%
X34250000Y4250000D03*
%TO.N,/PD8*%
X60500000Y34750000D03*
X39500000Y32500000D03*
%TO.N,/PD14*%
X57500000Y34700000D03*
X54250000Y47000000D03*
%TO.N,HEAT-*%
X103825000Y21050000D03*
X91500000Y4250000D03*
%TO.N,/PD9*%
X42750000Y24750000D03*
X60500000Y33250000D03*
%TO.N,/SWDIO*%
X73275000Y24275000D03*
%TO.N,Net-(U2-NRST)*%
X68750000Y44500000D03*
X71500000Y60750000D03*
%TO.N,GND*%
X8100000Y875000D03*
X24100000Y42200000D03*
X42750000Y40000000D03*
X73250000Y36000000D03*
X34000000Y63000000D03*
X61750000Y54000000D03*
X64750000Y38500000D03*
X70250000Y29000000D03*
X38500000Y12000000D03*
X68750000Y32750000D03*
X29750000Y63000000D03*
X12250000Y61250000D03*
X34950000Y44300000D03*
X55500000Y20000000D03*
X63700000Y48650000D03*
X12250000Y59500000D03*
X93000000Y36500000D03*
X92900000Y28150000D03*
X63250000Y42000000D03*
X30250000Y43650000D03*
X69050000Y14700000D03*
X94000000Y13250000D03*
X76500000Y36000000D03*
X72250000Y47000000D03*
X84500000Y13000000D03*
X73500000Y57350000D03*
X73450000Y15700000D03*
X68750000Y30250000D03*
X96500000Y31250000D03*
X86250000Y14500000D03*
X46750000Y63250000D03*
X44000000Y57050000D03*
X61750000Y52250000D03*
X96500000Y35000000D03*
X52700000Y47400000D03*
X79000000Y20750000D03*
X91500000Y29500000D03*
X89250000Y39250000D03*
X76500000Y34250000D03*
X13500000Y48500000D03*
X67500000Y58000000D03*
X91500000Y43000000D03*
X93250000Y31950000D03*
X69650000Y55550000D03*
X85700000Y26500000D03*
X88250000Y20250000D03*
X40750000Y38500000D03*
X89500000Y36500000D03*
X103900000Y32450000D03*
X92750000Y13250000D03*
X75650000Y57350000D03*
X66250000Y40750000D03*
X65000000Y40750000D03*
X76750000Y51750000D03*
X86750000Y43000000D03*
X33000000Y48000000D03*
X86050000Y16050000D03*
X60000000Y61000000D03*
X30750000Y36250000D03*
X43000000Y31000000D03*
X62250000Y48650000D03*
X86250000Y35250000D03*
X74750000Y49750000D03*
X31000000Y47250000D03*
X55750000Y41750000D03*
X71500000Y39500000D03*
X82250000Y28650000D03*
X24250000Y40500000D03*
X88250000Y21500000D03*
X18750000Y63000000D03*
X48150000Y5900000D03*
X98600000Y27400000D03*
X21750000Y46500000D03*
X68750000Y36000000D03*
X21750000Y45250000D03*
X88250000Y7000000D03*
X68750000Y39500000D03*
X54500000Y20000000D03*
X36250000Y60000000D03*
X43000000Y29000000D03*
X88250000Y8750000D03*
X55000000Y30650000D03*
X97500000Y16950000D03*
X64750000Y36000000D03*
X28500000Y63000000D03*
X34950000Y43000000D03*
X63950000Y55450000D03*
X74500000Y55500000D03*
X71400000Y32750000D03*
X40250000Y41250000D03*
X66750000Y29000000D03*
X96400000Y16950000D03*
X59250000Y24750000D03*
X76500000Y38750000D03*
X76500000Y37500000D03*
X89000000Y33500000D03*
X8025000Y6600000D03*
X61500000Y42000000D03*
X73000000Y45750000D03*
X76500000Y28800000D03*
X18500000Y47750000D03*
X98600000Y29350000D03*
X35625000Y41375000D03*
X84600000Y28650000D03*
X68750000Y46000000D03*
X16750000Y47750000D03*
X83900000Y36750000D03*
X61750000Y50500000D03*
X61850000Y55400000D03*
X12250000Y63000000D03*
X75300000Y14350000D03*
X65500000Y58000000D03*
X82000000Y26450000D03*
X69100000Y16700000D03*
X55200000Y28700000D03*
X82500000Y14750000D03*
X35750000Y63000000D03*
X52750000Y24250000D03*
X60250000Y16500000D03*
X76750000Y49750000D03*
X37000000Y16250000D03*
X66400000Y14700000D03*
X38000000Y41250000D03*
X45250000Y32750000D03*
X63500000Y60000000D03*
X87450000Y16050000D03*
X48200000Y4600000D03*
X44000000Y53000000D03*
X103825000Y12675000D03*
X89250000Y43000000D03*
X90500000Y31950000D03*
X59000000Y16500000D03*
X98600000Y25800000D03*
X42250000Y63250000D03*
X96500000Y33000000D03*
X99000000Y32000000D03*
X87000000Y38000000D03*
X45500000Y15750000D03*
X73250000Y49750000D03*
X61500000Y16500000D03*
X38500000Y16250000D03*
X20250000Y63000000D03*
X96500000Y7250000D03*
X54000000Y24250000D03*
X72000000Y48250000D03*
X93750000Y34000000D03*
X36250000Y57500000D03*
X66800000Y48600000D03*
X36450000Y34500000D03*
X69500000Y58000000D03*
X8050000Y3925000D03*
X76750000Y53750000D03*
X92250000Y7250000D03*
X27500000Y48000000D03*
X64750000Y33750000D03*
X57000000Y56000000D03*
X76750000Y55500000D03*
X89000000Y48250000D03*
X60500000Y23500000D03*
X83900000Y38700000D03*
X26250000Y36275000D03*
X91750000Y48000000D03*
X68400000Y55550000D03*
X15000000Y47750000D03*
X73250000Y38500000D03*
X76500000Y30400000D03*
X86250000Y13000000D03*
X43250000Y6480000D03*
X14250000Y63000000D03*
X103900000Y31000000D03*
X77800000Y57400000D03*
%TO.N,/SWCLK*%
X80200000Y28000000D03*
%TO.N,/DIAHG*%
X90600000Y24550000D03*
X98500000Y16000000D03*
%TO.N,+3.3V*%
X61750000Y59750000D03*
X49500000Y10000000D03*
X57625000Y23750000D03*
X84950000Y47170000D03*
X60600000Y30300000D03*
X56625000Y51625000D03*
X60000000Y43000000D03*
X33750000Y43500000D03*
X43250000Y45500000D03*
X83500000Y35250000D03*
X26250000Y40000000D03*
X56000000Y35125000D03*
X42000000Y11250000D03*
X24750000Y36250000D03*
X34250000Y47000000D03*
X84500000Y24250000D03*
X39750000Y15500000D03*
X43750000Y59000000D03*
X79100000Y22350000D03*
X75750000Y18250000D03*
X34500000Y36225000D03*
%TO.N,/PA9*%
X72575000Y25275000D03*
%TO.N,/PA10*%
X73900000Y24900000D03*
%TO.N,/USB_D-*%
X91600000Y37350000D03*
X73750000Y28750000D03*
%TO.N,/USB_D+*%
X75000000Y28750000D03*
X91600000Y38400000D03*
X101700000Y39650000D03*
X100400000Y38050000D03*
%TO.N,/UA*%
X95200000Y15050000D03*
X92800000Y23450000D03*
%TO.N,/SPI3_MISO*%
X92900000Y21850000D03*
X90300000Y23050000D03*
%TO.N,/SS3*%
X74000000Y40750000D03*
X91700000Y21950000D03*
X84700000Y32050000D03*
X91700000Y23450000D03*
%TO.N,/SPI3_MOSI*%
X93800000Y20850000D03*
X89500000Y24450000D03*
%TO.N,UN*%
X88750000Y10500000D03*
%TO.N,IP*%
X103825000Y10250000D03*
%TO.N,IA*%
X88750000Y12750000D03*
X101250000Y11500000D03*
%TO.N,VM*%
X100200000Y25150000D03*
X89250000Y16000000D03*
X95250000Y16000000D03*
%TD*%
D21*
%TO.N,+5V*%
X95900000Y52850000D02*
X95900000Y47950000D01*
X94250000Y54500000D02*
X95900000Y52850000D01*
X90750000Y54500000D02*
X94250000Y54500000D01*
X83500000Y59500000D02*
X85750000Y59500000D01*
X85750000Y59500000D02*
X90750000Y54500000D01*
X82750000Y60500000D02*
X81750000Y59500000D01*
X75250000Y59500000D02*
X81750000Y59500000D01*
X81750000Y59500000D02*
X82750000Y59500000D01*
X82750000Y60250000D02*
X83500000Y59500000D01*
X82750000Y60500000D02*
X82750000Y60250000D01*
X82750000Y59500000D02*
X83500000Y59500000D01*
X82750000Y60500000D02*
X82750000Y61670000D01*
X82750000Y59500000D02*
X82750000Y60500000D01*
X82750000Y61670000D02*
X82670000Y61750000D01*
X74480000Y61750000D02*
X74480000Y60270000D01*
X74480000Y60270000D02*
X75250000Y59500000D01*
X73300000Y62850000D02*
X74400000Y61750000D01*
X57500000Y62850000D02*
X73300000Y62850000D01*
X55350000Y60700000D02*
X57500000Y62850000D01*
X74400000Y61750000D02*
X74480000Y61750000D01*
X50450000Y60700000D02*
X55350000Y60700000D01*
D22*
X102225000Y18225000D02*
X101800000Y18650000D01*
D21*
X100700000Y18650000D02*
X101800000Y19750000D01*
X49000000Y59650000D02*
X47950000Y60700000D01*
X49000000Y59350000D02*
X49000000Y44200000D01*
X100000000Y45050000D02*
X101250000Y43800000D01*
X31500000Y53500000D02*
X23000000Y53500000D01*
X8000000Y51500000D02*
X8000000Y56200000D01*
X41500000Y59300000D02*
X42900000Y60700000D01*
X50350000Y60700000D02*
X50450000Y60700000D01*
X83800000Y18650000D02*
X91500000Y18650000D01*
X10875000Y48625000D02*
X8000000Y51500000D01*
X101800000Y18650000D02*
X101800000Y19750000D01*
X102800000Y25750000D02*
X102800000Y24050000D01*
X13437500Y46062500D02*
X10875000Y48625000D01*
X103100000Y40300000D02*
X103100000Y37350000D01*
X101800000Y18650000D02*
X100500000Y18650000D01*
X101800000Y23050000D02*
X102800000Y24050000D01*
X95900000Y47950000D02*
X95900000Y45950000D01*
X101250000Y27300000D02*
X102800000Y25750000D01*
X101250000Y35500000D02*
X101250000Y27300000D01*
X49000000Y59350000D02*
X50350000Y60700000D01*
X100500000Y18650000D02*
X100700000Y18650000D01*
X13437500Y42500000D02*
X13437500Y46062500D01*
X50450000Y60700000D02*
X47950000Y60700000D01*
X51100000Y42100000D02*
X51100000Y31250000D01*
X101250000Y42150000D02*
X103100000Y40300000D01*
X8000000Y56200000D02*
X8050000Y56250000D01*
X42900000Y60700000D02*
X47950000Y60700000D01*
X100500000Y18650000D02*
X91500000Y18650000D01*
X96800000Y45050000D02*
X100000000Y45050000D01*
X49000000Y59350000D02*
X49000000Y59650000D01*
X31500000Y53500000D02*
X40050000Y53500000D01*
X23000000Y53500000D02*
X20250000Y56250000D01*
X41500000Y54950000D02*
X41500000Y59300000D01*
X81000000Y15850000D02*
X83800000Y18650000D01*
D22*
X102225000Y16775000D02*
X102225000Y18225000D01*
D21*
X81000000Y15000000D02*
X81000000Y15850000D01*
X20250000Y56250000D02*
X8050000Y56250000D01*
X49000000Y44200000D02*
X51100000Y42100000D01*
X103100000Y37350000D02*
X101250000Y35500000D01*
X101250000Y43800000D02*
X101250000Y42150000D01*
X51100000Y31250000D02*
X49060000Y29210000D01*
X95900000Y45950000D02*
X96800000Y45050000D01*
X49060000Y29210000D02*
X47250000Y29210000D01*
X101800000Y19750000D02*
X101800000Y23050000D01*
X40050000Y53500000D02*
X41500000Y54950000D01*
X49000000Y60500000D02*
X49000000Y59350000D01*
%TO.N,+12V*%
X24250000Y25500000D02*
X24250000Y24250000D01*
X25000000Y31750000D02*
X36250000Y31750000D01*
X14450000Y53250000D02*
X19450000Y53250000D01*
X24500000Y48200000D02*
X24500000Y46000000D01*
X44600000Y34290000D02*
X46000000Y34290000D01*
X22687500Y44187500D02*
X22687500Y34062500D01*
X23500000Y17250000D02*
X22750000Y17250000D01*
X12250000Y17250000D02*
X11150000Y16150000D01*
X24250000Y19000000D02*
X24250000Y17250000D01*
X38250000Y9500000D02*
X30500000Y17250000D01*
X46000000Y35750000D02*
X46000000Y43750000D01*
X49750000Y7250000D02*
X48750000Y8250000D01*
X38790000Y34290000D02*
X44600000Y34290000D01*
X24500000Y46000000D02*
X22687500Y44187500D01*
X24250000Y19000000D02*
X24250000Y18750000D01*
X30500000Y17250000D02*
X25500000Y17250000D01*
X25500000Y25500000D02*
X24250000Y24250000D01*
X58500000Y2750000D02*
X59750000Y2750000D01*
X24250000Y24250000D02*
X24250000Y19000000D01*
X24250000Y19000000D02*
X24250000Y18500000D01*
X46000000Y34290000D02*
X46000000Y35750000D01*
X49750000Y7250000D02*
X49750000Y6250000D01*
X46000000Y35690000D02*
X44600000Y34290000D01*
X11150000Y16150000D02*
X11150000Y14602000D01*
X46000000Y35750000D02*
X46000000Y35690000D01*
X74500000Y2750000D02*
X73250000Y2750000D01*
X49750000Y8250000D02*
X49750000Y7250000D01*
X49750000Y8250000D02*
X48750000Y8250000D01*
X22687500Y34062500D02*
X25000000Y31750000D01*
X25500000Y25550000D02*
X24200000Y25550000D01*
X25500000Y25550000D02*
X25500000Y25500000D01*
X19450000Y53250000D02*
X24500000Y48200000D01*
X48750000Y8250000D02*
X45950000Y8250000D01*
X46000000Y34290000D02*
X47250000Y34290000D01*
X45950000Y8250000D02*
X44700000Y9500000D01*
X44700000Y9500000D02*
X38250000Y9500000D01*
X24250000Y18500000D02*
X25500000Y17250000D01*
X24250000Y18750000D02*
X22750000Y17250000D01*
X24200000Y25550000D02*
X24250000Y25500000D01*
X22750000Y17250000D02*
X12250000Y17250000D01*
X24250000Y17250000D02*
X23500000Y17250000D01*
X36250000Y31750000D02*
X38790000Y34290000D01*
X25500000Y17250000D02*
X23500000Y17250000D01*
D23*
%TO.N,/STEP*%
X67000000Y17850000D02*
X66150000Y17000000D01*
X59250000Y11500000D02*
X57500000Y11500000D01*
X27738000Y3250000D02*
X26390000Y1902000D01*
X64750000Y17000000D02*
X59250000Y11500000D01*
X30500000Y3000000D02*
X30250000Y3250000D01*
X30250000Y3250000D02*
X27738000Y3250000D01*
X49000000Y3000000D02*
X30500000Y3000000D01*
X57500000Y11500000D02*
X49000000Y3000000D01*
X66150000Y17000000D02*
X64750000Y17000000D01*
%TO.N,/DIR*%
X68150000Y17850000D02*
X66800000Y16500000D01*
X66800000Y16500000D02*
X65000000Y16500000D01*
X49250000Y2500000D02*
X29528000Y2500000D01*
X57750000Y11000000D02*
X49250000Y2500000D01*
X29528000Y2500000D02*
X28930000Y1902000D01*
X59500000Y11000000D02*
X57750000Y11000000D01*
X65000000Y16500000D02*
X59500000Y11000000D01*
%TO.N,/ENBL*%
X57250000Y12000000D02*
X48750000Y3500000D01*
X59000000Y12000000D02*
X57250000Y12000000D01*
X13000000Y3750000D02*
X11152000Y1902000D01*
X30500000Y3750000D02*
X13000000Y3750000D01*
X64850000Y17850000D02*
X59000000Y12000000D01*
X30750000Y3500000D02*
X30500000Y3750000D01*
X48750000Y3500000D02*
X30750000Y3500000D01*
X11152000Y1902000D02*
X11150000Y1902000D01*
X65800000Y17850000D02*
X64850000Y17850000D01*
D24*
%TO.N,/VR1-*%
X5000000Y34750000D02*
X8250000Y38000000D01*
X5000000Y18500000D02*
X5000000Y34750000D01*
X15100000Y5750000D02*
X8450000Y12400000D01*
X34250000Y5750000D02*
X15100000Y5750000D01*
X8250000Y38000000D02*
X10937500Y38000000D01*
X8450000Y12400000D02*
X8450000Y15050000D01*
X8450000Y15050000D02*
X5000000Y18500000D01*
%TO.N,/VR2-*%
X5750000Y18750000D02*
X9000000Y15500000D01*
X5750000Y34000000D02*
X5750000Y18750000D01*
X13700000Y8000000D02*
X34250000Y8000000D01*
X13437500Y36500000D02*
X8250000Y36500000D01*
X9000000Y15500000D02*
X9000000Y12700000D01*
X8250000Y36500000D02*
X5750000Y34000000D01*
X9000000Y12700000D02*
X13700000Y8000000D01*
D21*
%TO.N,/FUELP*%
X65750000Y4250000D02*
X65750000Y2750000D01*
%TO.N,/BOOST*%
X67500000Y4250000D02*
X67500000Y2750000D01*
%TO.N,/IDLE*%
X51750000Y2750000D02*
X52750000Y2750000D01*
%TO.N,/VVT*%
X80500000Y4000000D02*
X80500000Y2750000D01*
D24*
%TO.N,/PD11*%
X62800000Y21350000D02*
X52850000Y21350000D01*
X65125000Y23675000D02*
X62800000Y21350000D01*
X52850000Y21350000D02*
X46750000Y15250000D01*
X69250000Y25000000D02*
X67925000Y23675000D01*
X67925000Y23675000D02*
X65125000Y23675000D01*
D23*
%TO.N,Net-(D5-COM)*%
X68750000Y26500000D02*
X68000000Y25750000D01*
X68750000Y28750000D02*
X68750000Y26500000D01*
X68000000Y25750000D02*
X62750000Y25750000D01*
D24*
%TO.N,/PD10*%
X65050000Y24600000D02*
X62450000Y22000000D01*
X62450000Y22000000D02*
X52250000Y22000000D01*
X68250000Y25000000D02*
X67850000Y24600000D01*
X42850000Y16850000D02*
X41250000Y15250000D01*
X52250000Y22000000D02*
X47100000Y16850000D01*
X67850000Y24600000D02*
X65050000Y24600000D01*
X47100000Y16850000D02*
X42850000Y16850000D01*
%TO.N,CANL*%
X23250000Y27500000D02*
X22250000Y26500000D01*
X28750000Y21750000D02*
X28750000Y25500000D01*
X26750000Y27500000D02*
X23250000Y27500000D01*
X84750000Y8000000D02*
X84750000Y10000000D01*
X52000000Y13500000D02*
X37000000Y13500000D01*
X21000000Y21500000D02*
X16437500Y21500000D01*
X28750000Y25500000D02*
X26750000Y27500000D01*
X83500000Y11250000D02*
X80000000Y11250000D01*
X80000000Y11250000D02*
X72550000Y18700000D01*
X57200000Y18700000D02*
X52000000Y13500000D01*
X84750000Y10000000D02*
X83500000Y11250000D01*
X37000000Y13500000D02*
X28750000Y21750000D01*
X84500000Y7750000D02*
X84750000Y8000000D01*
X22250000Y22750000D02*
X21000000Y21500000D01*
X72550000Y18700000D02*
X57200000Y18700000D01*
X22250000Y26500000D02*
X22250000Y22750000D01*
%TO.N,CANH*%
X37227818Y14050000D02*
X51550000Y14050000D01*
X85500000Y10250000D02*
X85500000Y8000000D01*
X21500000Y25750000D02*
X21500000Y27000000D01*
X21500000Y27000000D02*
X22750000Y28250000D01*
X73000000Y19250000D02*
X80250000Y12000000D01*
X56750000Y19250000D02*
X73000000Y19250000D01*
X20250000Y24500000D02*
X21500000Y25750000D01*
X29500000Y25750000D02*
X29500000Y21777818D01*
X51550000Y14050000D02*
X56750000Y19250000D01*
X27000000Y28250000D02*
X29500000Y25750000D01*
X83750000Y12000000D02*
X85500000Y10250000D01*
X16437500Y24500000D02*
X20250000Y24500000D01*
X80250000Y12000000D02*
X83750000Y12000000D01*
X85500000Y8000000D02*
X85750000Y7750000D01*
X22750000Y28250000D02*
X27000000Y28250000D01*
X29500000Y21777818D02*
X37227818Y14050000D01*
D25*
%TO.N,+BATT*%
X19750000Y54750000D02*
X12250000Y54750000D01*
X36250000Y51350000D02*
X35350000Y52250000D01*
X22250000Y52250000D02*
X19750000Y54750000D01*
X12250000Y54750000D02*
X11000000Y53500000D01*
X36250000Y48500000D02*
X36250000Y51350000D01*
X35350000Y52250000D02*
X22250000Y52250000D01*
D24*
%TO.N,VR2+*%
X9550000Y15950000D02*
X6500000Y19000000D01*
X9500000Y33500000D02*
X13437500Y33500000D01*
X9550000Y12950000D02*
X9550000Y15950000D01*
X13000000Y9500000D02*
X9550000Y12950000D01*
X6500000Y30500000D02*
X9500000Y33500000D01*
X6500000Y19000000D02*
X6500000Y30500000D01*
X34250000Y9500000D02*
X13000000Y9500000D01*
%TO.N,VR1+*%
X33750000Y4750000D02*
X15250000Y4750000D01*
X15250000Y4750000D02*
X7900000Y12100000D01*
X34250000Y4250000D02*
X33750000Y4750000D01*
X4250000Y18250000D02*
X4250000Y36250000D01*
X7900000Y12100000D02*
X7900000Y14600000D01*
X9000000Y41000000D02*
X10937500Y41000000D01*
X7900000Y14600000D02*
X4250000Y18250000D01*
X4250000Y36250000D02*
X9000000Y41000000D01*
D23*
%TO.N,/PD8*%
X55700000Y33900000D02*
X59400000Y33900000D01*
X44250000Y25250000D02*
X50750000Y25250000D01*
X60250000Y34750000D02*
X60500000Y34750000D01*
X39500000Y32500000D02*
X41250000Y30750000D01*
X41250000Y28250000D02*
X44250000Y25250000D01*
X53350000Y27850000D02*
X53350000Y31550000D01*
X53350000Y31550000D02*
X55700000Y33900000D01*
X41250000Y30750000D02*
X41250000Y28250000D01*
X59400000Y33900000D02*
X60250000Y34750000D01*
X50750000Y25250000D02*
X53350000Y27850000D01*
D25*
%TO.N,HEAT-*%
X91500000Y4250000D02*
X91750000Y4250000D01*
X91750000Y4250000D02*
X103750000Y16250000D01*
X103750000Y16250000D02*
X103750000Y20975000D01*
X103750000Y20975000D02*
X103825000Y21050000D01*
D23*
%TO.N,/PD9*%
X53875000Y27625000D02*
X53875000Y31275000D01*
X55850000Y33250000D02*
X60500000Y33250000D01*
X51000000Y24750000D02*
X53875000Y27625000D01*
X42750000Y24750000D02*
X51000000Y24750000D01*
X53875000Y31275000D02*
X55850000Y33250000D01*
D21*
%TO.N,GND*%
X13437500Y39500000D02*
X16437500Y42500000D01*
X16437500Y42500000D02*
X16437500Y45987500D01*
D25*
X103325000Y42175000D02*
X104250000Y41250000D01*
X16437500Y45987500D02*
X16550000Y46100000D01*
D21*
X16437500Y36500000D02*
X13437500Y39500000D01*
D25*
X103325000Y42695000D02*
X103325000Y42175000D01*
%TO.N,+3.3V*%
X32850000Y41750000D02*
X32850000Y41200000D01*
X42500000Y47000000D02*
X43250000Y47000000D01*
X57650000Y29300000D02*
X58650000Y30300000D01*
X32850000Y37875000D02*
X34500000Y36225000D01*
X57625000Y51625000D02*
X58000000Y51250000D01*
X43250000Y46500000D02*
X43250000Y47000000D01*
X57875000Y51625000D02*
X58000000Y51750000D01*
X75750000Y18250000D02*
X75750000Y20750000D01*
X32850000Y42600000D02*
X32850000Y41750000D01*
X84500000Y24250000D02*
X83750000Y23500000D01*
X79100000Y22350000D02*
X80250000Y23500000D01*
X83750000Y23500000D02*
X82500000Y23500000D01*
X55125000Y35125000D02*
X53750000Y36500000D01*
X45550000Y57200000D02*
X43750000Y59000000D01*
X43750000Y47000000D02*
X44500000Y47000000D01*
X58000000Y51250000D02*
X58000000Y51000000D01*
X42750000Y47000000D02*
X42500000Y47000000D01*
X32000000Y41200000D02*
X32850000Y41200000D01*
X59200000Y44250000D02*
X59400000Y44250000D01*
X47125000Y18225000D02*
X51900000Y23000000D01*
X32400000Y41200000D02*
X32850000Y40750000D01*
X43250000Y46500000D02*
X42750000Y47000000D01*
X24750000Y38500000D02*
X26250000Y40000000D01*
X59200000Y44250000D02*
X60000000Y44250000D01*
X51900000Y23000000D02*
X56875000Y23000000D01*
X43250000Y45500000D02*
X43250000Y46500000D01*
X58650000Y30300000D02*
X60600000Y30300000D01*
X32300000Y41200000D02*
X32850000Y41750000D01*
X57650000Y23775000D02*
X57650000Y29300000D01*
X82500000Y23500000D02*
X82000000Y23500000D01*
X24750000Y36250000D02*
X24750000Y38500000D01*
X60000000Y44850000D02*
X60000000Y44250000D01*
X32850000Y41200000D02*
X32850000Y40750000D01*
X34250000Y47000000D02*
X42500000Y47000000D01*
X75750000Y20750000D02*
X77350000Y22350000D01*
X60000000Y44250000D02*
X60000000Y43400000D01*
X56625000Y51625000D02*
X57250000Y51625000D01*
X46000000Y11250000D02*
X42000000Y11250000D01*
X53750000Y43000000D02*
X55000000Y44250000D01*
X55000000Y44250000D02*
X59200000Y44250000D01*
X58000000Y53600000D02*
X61750000Y57350000D01*
X42475000Y18225000D02*
X47125000Y18225000D01*
X44500000Y47000000D02*
X45550000Y48050000D01*
X58000000Y49750000D02*
X58000000Y51000000D01*
X33750000Y43500000D02*
X32850000Y42600000D01*
X59400000Y44250000D02*
X60000000Y44850000D01*
X29300000Y40000000D02*
X30500000Y41200000D01*
X56875000Y23000000D02*
X57625000Y23750000D01*
X33750000Y46500000D02*
X33750000Y43500000D01*
X26250000Y40000000D02*
X29300000Y40000000D01*
X60000000Y43400000D02*
X60000000Y43000000D01*
X58250000Y49500000D02*
X58000000Y49750000D01*
X30500000Y41200000D02*
X32000000Y41200000D01*
X77350000Y22350000D02*
X79100000Y22350000D01*
X58000000Y52000000D02*
X58000000Y53600000D01*
X58000000Y51000000D02*
X58000000Y51750000D01*
X60000000Y43450000D02*
X60000000Y43400000D01*
X45550000Y48050000D02*
X45550000Y57200000D01*
X32850000Y40750000D02*
X32850000Y37875000D01*
X39750000Y15500000D02*
X42475000Y18225000D01*
X82750000Y23500000D02*
X82500000Y23500000D01*
X57250000Y51625000D02*
X57625000Y51625000D01*
X58250000Y49500000D02*
X60000000Y47750000D01*
X81750000Y23500000D02*
X81500000Y23500000D01*
X57625000Y51625000D02*
X58000000Y52000000D01*
X34250000Y47000000D02*
X33750000Y46500000D01*
X81500000Y23500000D02*
X82000000Y23500000D01*
X61750000Y57350000D02*
X61750000Y59750000D01*
X32000000Y41200000D02*
X32400000Y41200000D01*
X58000000Y51750000D02*
X58000000Y52000000D01*
X32000000Y41200000D02*
X32300000Y41200000D01*
X60000000Y47750000D02*
X60000000Y44850000D01*
X43250000Y47000000D02*
X43750000Y47000000D01*
X47250000Y10000000D02*
X46000000Y11250000D01*
X57625000Y23750000D02*
X57650000Y23775000D01*
X49500000Y10000000D02*
X47250000Y10000000D01*
X57250000Y51625000D02*
X57875000Y51625000D01*
X43250000Y46500000D02*
X43750000Y47000000D01*
X80250000Y23500000D02*
X82000000Y23500000D01*
X59200000Y44250000D02*
X60000000Y43450000D01*
X53750000Y36500000D02*
X53750000Y43000000D01*
X56000000Y35125000D02*
X55125000Y35125000D01*
D23*
%TO.N,/SS3*%
X79150000Y39150000D02*
X77575000Y40725000D01*
X74025000Y40725000D02*
X74000000Y40750000D01*
X79150000Y35000000D02*
X79150000Y39150000D01*
X81500000Y32650000D02*
X79150000Y35000000D01*
X77575000Y40725000D02*
X74025000Y40725000D01*
X84700000Y32050000D02*
X84100000Y32650000D01*
X84100000Y32650000D02*
X81500000Y32650000D01*
%TD*%
%TA.AperFunction,Conductor*%
%TO.N,GND*%
G36*
X70976225Y61830546D02*
G01*
X71057007Y61776570D01*
X71110983Y61695788D01*
X71129937Y61600500D01*
X71110983Y61505212D01*
X71057007Y61424430D01*
X71013414Y61389666D01*
X70997740Y61379818D01*
X70870180Y61252258D01*
X70774214Y61099530D01*
X70774211Y61099524D01*
X70774211Y61099522D01*
X70732218Y60979511D01*
X70714632Y60929254D01*
X70714630Y60929246D01*
X70694435Y60750004D01*
X70694435Y60749997D01*
X70714630Y60570755D01*
X70714631Y60570749D01*
X70714632Y60570745D01*
X70774211Y60400478D01*
X70774212Y60400477D01*
X70774214Y60400471D01*
X70870180Y60247743D01*
X70870182Y60247741D01*
X70870184Y60247738D01*
X70997738Y60120184D01*
X70997740Y60120183D01*
X70997742Y60120181D01*
X71150470Y60024215D01*
X71150473Y60024214D01*
X71150478Y60024211D01*
X71320745Y59964632D01*
X71320747Y59964632D01*
X71333944Y59960014D01*
X71333269Y59958087D01*
X71405126Y59925937D01*
X71471875Y59855341D01*
X71473914Y59850000D01*
X73424250Y59850000D01*
X73519538Y59831046D01*
X73600320Y59777070D01*
X73631286Y59739337D01*
X73670569Y59680546D01*
X73702861Y59632218D01*
X73842218Y59492861D01*
X73842220Y59492860D01*
X73856412Y59478668D01*
X73856411Y59478668D01*
X73856415Y59478665D01*
X74472859Y58862219D01*
X74472860Y58862219D01*
X74472861Y58862218D01*
X74472860Y58862218D01*
X74558140Y58776939D01*
X74612218Y58722861D01*
X74776086Y58613368D01*
X74873879Y58572861D01*
X74958164Y58537949D01*
X74958167Y58537948D01*
X75148884Y58500013D01*
X75151459Y58499500D01*
X75348540Y58499500D01*
X81651459Y58499500D01*
X81651460Y58499500D01*
X81848540Y58499500D01*
X82651459Y58499500D01*
X82848541Y58499500D01*
X83401459Y58499500D01*
X83401460Y58499500D01*
X83598540Y58499500D01*
X85232440Y58499500D01*
X85327728Y58480546D01*
X85408510Y58426570D01*
X87588208Y56246872D01*
X87642184Y56166090D01*
X87646512Y56144328D01*
X87691243Y56130072D01*
X87746871Y56088209D01*
X89972858Y53862222D01*
X89972861Y53862218D01*
X90112218Y53722861D01*
X90276086Y53613368D01*
X90404834Y53560039D01*
X90458164Y53537949D01*
X90475937Y53534414D01*
X90528770Y53523904D01*
X90528775Y53523904D01*
X90528778Y53523903D01*
X90651459Y53499500D01*
X90651460Y53499500D01*
X90848540Y53499500D01*
X93732440Y53499500D01*
X93827728Y53480546D01*
X93908510Y53426570D01*
X94826570Y52508510D01*
X94880546Y52427728D01*
X94899500Y52332440D01*
X94899500Y45851455D01*
X94937947Y45658170D01*
X94937948Y45658167D01*
X94937949Y45658165D01*
X94953445Y45620755D01*
X95013365Y45476092D01*
X95013366Y45476089D01*
X95013368Y45476086D01*
X95066143Y45397102D01*
X95118244Y45319127D01*
X95122861Y45312218D01*
X95262218Y45172861D01*
X95262221Y45172859D01*
X96022858Y44412222D01*
X96022861Y44412218D01*
X96162218Y44272861D01*
X96326086Y44163368D01*
X96426783Y44121659D01*
X96426785Y44121657D01*
X96508164Y44087949D01*
X96533285Y44082952D01*
X96533287Y44082952D01*
X96533291Y44082951D01*
X96701459Y44049500D01*
X96701460Y44049500D01*
X96898540Y44049500D01*
X98003407Y44049500D01*
X98098695Y44030546D01*
X98179477Y43976570D01*
X98233453Y43895788D01*
X98252407Y43800500D01*
X98233453Y43705212D01*
X98179477Y43624430D01*
X98131109Y43588560D01*
X98131493Y43587985D01*
X97957540Y43471754D01*
X97818246Y43332460D01*
X97708811Y43168680D01*
X97708810Y43168676D01*
X97633428Y42986690D01*
X97633428Y42986688D01*
X97625136Y42945001D01*
X97625137Y42945000D01*
X98428012Y42945000D01*
X98410795Y42935060D01*
X98354940Y42879205D01*
X98315444Y42810796D01*
X98295000Y42734496D01*
X98295000Y42655504D01*
X98315444Y42579204D01*
X98354940Y42510795D01*
X98410795Y42454940D01*
X98428012Y42445000D01*
X97625136Y42445000D01*
X97633428Y42403313D01*
X97633428Y42403311D01*
X97708810Y42221325D01*
X97708811Y42221321D01*
X97818246Y42057541D01*
X97957540Y41918247D01*
X98121320Y41808812D01*
X98121327Y41808809D01*
X98303308Y41733430D01*
X98496511Y41695000D01*
X98751000Y41695000D01*
X98846288Y41676046D01*
X98927070Y41622070D01*
X98981046Y41541288D01*
X99000000Y41446000D01*
X99000000Y35304000D01*
X98981046Y35208712D01*
X98927070Y35127930D01*
X98846288Y35073954D01*
X98751000Y35055000D01*
X98496511Y35055000D01*
X98303308Y35016571D01*
X98121327Y34941192D01*
X98121320Y34941189D01*
X97957540Y34831754D01*
X97818246Y34692460D01*
X97708811Y34528680D01*
X97708810Y34528676D01*
X97633428Y34346690D01*
X97633428Y34346688D01*
X97625136Y34305001D01*
X97625137Y34305000D01*
X98428012Y34305000D01*
X98410795Y34295060D01*
X98354940Y34239205D01*
X98315444Y34170796D01*
X98295000Y34094496D01*
X98295000Y34015504D01*
X98315444Y33939204D01*
X98354940Y33870795D01*
X98410795Y33814940D01*
X98428012Y33805000D01*
X97625136Y33805000D01*
X97633428Y33763313D01*
X97633428Y33763311D01*
X97708810Y33581325D01*
X97708811Y33581321D01*
X97818246Y33417541D01*
X97957540Y33278247D01*
X98121320Y33168812D01*
X98121327Y33168809D01*
X98303308Y33093430D01*
X98496511Y33055000D01*
X98894999Y33055000D01*
X98895000Y33055001D01*
X98895000Y33755000D01*
X99395000Y33755000D01*
X99395000Y33055001D01*
X99395001Y33055000D01*
X99793491Y33055000D01*
X99793495Y33055001D01*
X99951922Y33086514D01*
X100049077Y33086515D01*
X100138836Y33049335D01*
X100207535Y32980637D01*
X100244715Y32890877D01*
X100249500Y32842299D01*
X100249500Y27194321D01*
X100250000Y27184148D01*
X100250000Y26183720D01*
X100231046Y26088432D01*
X100177070Y26007650D01*
X100096288Y25953674D01*
X100028888Y25936287D01*
X100020758Y25935371D01*
X100020746Y25935369D01*
X100020745Y25935368D01*
X99850478Y25875789D01*
X99850476Y25875789D01*
X99850476Y25875788D01*
X99850470Y25875786D01*
X99697742Y25779820D01*
X99570180Y25652258D01*
X99474214Y25499530D01*
X99474211Y25499524D01*
X99474211Y25499522D01*
X99416761Y25335337D01*
X99414632Y25329254D01*
X99414630Y25329246D01*
X99394435Y25150004D01*
X99394435Y25149997D01*
X99414630Y24970755D01*
X99414631Y24970749D01*
X99414632Y24970745D01*
X99474211Y24800478D01*
X99474212Y24800477D01*
X99474214Y24800471D01*
X99570180Y24647743D01*
X99570182Y24647741D01*
X99570184Y24647738D01*
X99697738Y24520184D01*
X99697740Y24520183D01*
X99697742Y24520181D01*
X99850470Y24424215D01*
X99850473Y24424214D01*
X99850478Y24424211D01*
X100020745Y24364632D01*
X100020747Y24364632D01*
X100032698Y24360450D01*
X100116379Y24311088D01*
X100157634Y24263548D01*
X100765693Y23351461D01*
X100802777Y23261665D01*
X100802728Y23164773D01*
X100799500Y23148545D01*
X100799500Y20267560D01*
X100780546Y20172272D01*
X100726570Y20091490D01*
X100358510Y19723430D01*
X100277728Y19669454D01*
X100182440Y19650500D01*
X94256791Y19650500D01*
X94161503Y19669454D01*
X94080721Y19723430D01*
X94026745Y19804212D01*
X94007791Y19899500D01*
X94026745Y19994788D01*
X94080721Y20075570D01*
X94138023Y20116228D01*
X94137682Y20116771D01*
X94147363Y20122855D01*
X94148757Y20123843D01*
X94149510Y20124207D01*
X94149522Y20124211D01*
X94302262Y20220184D01*
X94429816Y20347738D01*
X94490856Y20444882D01*
X94525785Y20500471D01*
X94525785Y20500473D01*
X94525789Y20500478D01*
X94585368Y20670745D01*
X94593198Y20740241D01*
X94605565Y20849997D01*
X94605565Y20850004D01*
X94585369Y21029246D01*
X94585368Y21029255D01*
X94525789Y21199522D01*
X94525786Y21199527D01*
X94525785Y21199530D01*
X94429819Y21352258D01*
X94429817Y21352260D01*
X94429816Y21352262D01*
X94302262Y21479816D01*
X94302259Y21479818D01*
X94302257Y21479820D01*
X94149529Y21575786D01*
X94149524Y21575788D01*
X94149522Y21575789D01*
X93979255Y21635368D01*
X93979251Y21635369D01*
X93979245Y21635370D01*
X93923862Y21641610D01*
X93831295Y21671113D01*
X93757065Y21733795D01*
X93712473Y21820112D01*
X93704307Y21861166D01*
X93685369Y22029246D01*
X93685368Y22029255D01*
X93625789Y22199522D01*
X93625786Y22199527D01*
X93625785Y22199530D01*
X93529819Y22352258D01*
X93529817Y22352260D01*
X93529816Y22352262D01*
X93402262Y22479816D01*
X93402259Y22479818D01*
X93402258Y22479819D01*
X93396196Y22483628D01*
X93325599Y22550374D01*
X93285918Y22639056D01*
X93283195Y22736173D01*
X93317844Y22826940D01*
X93352599Y22870522D01*
X93429816Y22947738D01*
X93478049Y23024500D01*
X93525785Y23100471D01*
X93525785Y23100473D01*
X93525789Y23100478D01*
X93585368Y23270745D01*
X93593966Y23347054D01*
X93605565Y23449997D01*
X93605565Y23450004D01*
X93585369Y23629246D01*
X93585368Y23629255D01*
X93525789Y23799522D01*
X93525786Y23799527D01*
X93525785Y23799530D01*
X93429819Y23952258D01*
X93429817Y23952260D01*
X93429816Y23952262D01*
X93302262Y24079816D01*
X93302259Y24079818D01*
X93302257Y24079820D01*
X93149529Y24175786D01*
X93149524Y24175788D01*
X93149522Y24175789D01*
X92979255Y24235368D01*
X92979251Y24235369D01*
X92979245Y24235370D01*
X92800004Y24255565D01*
X92799996Y24255565D01*
X92620754Y24235370D01*
X92620746Y24235369D01*
X92620745Y24235368D01*
X92450478Y24175789D01*
X92450476Y24175789D01*
X92450476Y24175788D01*
X92450470Y24175786D01*
X92382476Y24133061D01*
X92291709Y24098413D01*
X92194592Y24101138D01*
X92117524Y24133061D01*
X92049529Y24175786D01*
X92049524Y24175788D01*
X92049522Y24175789D01*
X91879255Y24235368D01*
X91879251Y24235369D01*
X91879245Y24235370D01*
X91700004Y24255565D01*
X91699998Y24255565D01*
X91678445Y24253137D01*
X91581634Y24261305D01*
X91495318Y24305899D01*
X91432638Y24380131D01*
X91403136Y24472698D01*
X91403137Y24528453D01*
X91405249Y24547191D01*
X91405565Y24550000D01*
X91405511Y24550477D01*
X91385369Y24729246D01*
X91385368Y24729255D01*
X91325789Y24899522D01*
X91325786Y24899527D01*
X91325785Y24899530D01*
X91229819Y25052258D01*
X91229817Y25052260D01*
X91229816Y25052262D01*
X91102262Y25179816D01*
X91102259Y25179818D01*
X91102257Y25179820D01*
X90949529Y25275786D01*
X90949524Y25275788D01*
X90949522Y25275789D01*
X90779255Y25335368D01*
X90779251Y25335369D01*
X90779245Y25335370D01*
X90600004Y25355565D01*
X90599996Y25355565D01*
X90420754Y25335370D01*
X90420746Y25335369D01*
X90420745Y25335368D01*
X90250478Y25275789D01*
X90102901Y25183060D01*
X90012134Y25148413D01*
X89915017Y25151138D01*
X89863469Y25172509D01*
X89862126Y25169719D01*
X89849525Y25175787D01*
X89849522Y25175789D01*
X89679255Y25235368D01*
X89679251Y25235369D01*
X89679245Y25235370D01*
X89500004Y25255565D01*
X89499996Y25255565D01*
X89320754Y25235370D01*
X89320746Y25235369D01*
X89320745Y25235368D01*
X89150478Y25175789D01*
X89150476Y25175789D01*
X89150476Y25175788D01*
X89150470Y25175786D01*
X88997742Y25079820D01*
X88870180Y24952258D01*
X88774214Y24799530D01*
X88774211Y24799524D01*
X88774211Y24799522D01*
X88715869Y24632788D01*
X88714632Y24629254D01*
X88714630Y24629246D01*
X88694435Y24450004D01*
X88694435Y24449997D01*
X88714630Y24270755D01*
X88714631Y24270749D01*
X88714632Y24270745D01*
X88774211Y24100478D01*
X88774212Y24100477D01*
X88774214Y24100471D01*
X88870180Y23947743D01*
X88870182Y23947741D01*
X88870184Y23947738D01*
X88997738Y23820184D01*
X88997740Y23820183D01*
X88997742Y23820181D01*
X89150470Y23724215D01*
X89150473Y23724214D01*
X89150478Y23724211D01*
X89320745Y23664632D01*
X89343568Y23662061D01*
X89436135Y23632558D01*
X89510366Y23569878D01*
X89554959Y23483562D01*
X89563127Y23386751D01*
X89550719Y23332388D01*
X89514633Y23229261D01*
X89514630Y23229246D01*
X89494435Y23050004D01*
X89494435Y23049997D01*
X89514630Y22870755D01*
X89514631Y22870749D01*
X89514631Y22870747D01*
X89514632Y22870745D01*
X89574211Y22700478D01*
X89574212Y22700477D01*
X89574214Y22700471D01*
X89670180Y22547743D01*
X89670182Y22547741D01*
X89670184Y22547738D01*
X89797738Y22420184D01*
X89797740Y22420183D01*
X89797742Y22420181D01*
X89950470Y22324215D01*
X89950473Y22324214D01*
X89950478Y22324211D01*
X90120745Y22264632D01*
X90120754Y22264631D01*
X90299996Y22244435D01*
X90300000Y22244435D01*
X90300002Y22244435D01*
X90409976Y22256827D01*
X90473121Y22263941D01*
X90569932Y22255776D01*
X90656249Y22211183D01*
X90718930Y22136953D01*
X90748434Y22044386D01*
X90750000Y22016507D01*
X90750000Y19899500D01*
X90731046Y19804212D01*
X90677070Y19723430D01*
X90596288Y19669454D01*
X90501000Y19650500D01*
X85612164Y19650500D01*
X85516876Y19669454D01*
X85436094Y19723430D01*
X85382118Y19804212D01*
X85363164Y19899500D01*
X85382118Y19994788D01*
X85401329Y20031976D01*
X85475789Y20150478D01*
X85535368Y20320745D01*
X85545946Y20414631D01*
X85555565Y20499997D01*
X85555565Y20500004D01*
X85535369Y20679246D01*
X85535368Y20679255D01*
X85475789Y20849522D01*
X85475786Y20849527D01*
X85475785Y20849530D01*
X85379819Y21002258D01*
X85379817Y21002260D01*
X85379816Y21002262D01*
X85252262Y21129816D01*
X85252259Y21129818D01*
X85252257Y21129820D01*
X85099529Y21225786D01*
X85099524Y21225788D01*
X85099522Y21225789D01*
X84929255Y21285368D01*
X84929251Y21285369D01*
X84929245Y21285370D01*
X84750004Y21305565D01*
X84749996Y21305565D01*
X84570754Y21285370D01*
X84570746Y21285369D01*
X84570745Y21285368D01*
X84400478Y21225789D01*
X84400476Y21225789D01*
X84400476Y21225788D01*
X84400470Y21225786D01*
X84247742Y21129820D01*
X84247738Y21129817D01*
X84247738Y21129816D01*
X84176066Y21058145D01*
X84095288Y21004171D01*
X84000000Y20985217D01*
X83904712Y21004171D01*
X83823933Y21058145D01*
X83752262Y21129816D01*
X83752259Y21129818D01*
X83752257Y21129820D01*
X83599529Y21225786D01*
X83599524Y21225788D01*
X83599522Y21225789D01*
X83429255Y21285368D01*
X83429251Y21285369D01*
X83429245Y21285370D01*
X83250004Y21305565D01*
X83249996Y21305565D01*
X83070754Y21285370D01*
X83070746Y21285369D01*
X83070745Y21285368D01*
X82900478Y21225789D01*
X82900476Y21225789D01*
X82900476Y21225788D01*
X82900470Y21225786D01*
X82747742Y21129820D01*
X82620180Y21002258D01*
X82524214Y20849530D01*
X82524211Y20849524D01*
X82524211Y20849522D01*
X82471100Y20697738D01*
X82464632Y20679254D01*
X82464630Y20679246D01*
X82444435Y20500004D01*
X82444435Y20499997D01*
X82464630Y20320755D01*
X82464631Y20320749D01*
X82464632Y20320745D01*
X82524211Y20150478D01*
X82524212Y20150477D01*
X82524214Y20150471D01*
X82620180Y19997743D01*
X82620182Y19997741D01*
X82620184Y19997738D01*
X82747738Y19870184D01*
X82747740Y19870183D01*
X82747742Y19870181D01*
X82900470Y19774215D01*
X82900474Y19774214D01*
X82900478Y19774211D01*
X82977435Y19747283D01*
X83061114Y19697923D01*
X83119536Y19620295D01*
X83143803Y19526220D01*
X83130222Y19430019D01*
X83080861Y19346338D01*
X83071266Y19336189D01*
X83022862Y19287784D01*
X83022861Y19287782D01*
X83022858Y19287779D01*
X80362221Y16627142D01*
X80362218Y16627139D01*
X80362217Y16627140D01*
X80222862Y16487784D01*
X80222860Y16487781D01*
X80113369Y16323916D01*
X80113365Y16323909D01*
X80037949Y16141836D01*
X80037947Y16141831D01*
X79999500Y15948546D01*
X79999500Y14901455D01*
X80037947Y14708170D01*
X80037949Y14708165D01*
X80113365Y14526092D01*
X80113366Y14526089D01*
X80113368Y14526086D01*
X80146252Y14476872D01*
X80222180Y14363236D01*
X80222861Y14362218D01*
X80362218Y14222861D01*
X80526086Y14113368D01*
X80708165Y14037949D01*
X80708167Y14037949D01*
X80708169Y14037948D01*
X80896453Y14000496D01*
X80901459Y13999500D01*
X81098541Y13999500D01*
X81291835Y14037949D01*
X81473914Y14113368D01*
X81637782Y14222861D01*
X81777139Y14362218D01*
X81886632Y14526086D01*
X81962051Y14708165D01*
X82000500Y14901459D01*
X82000500Y15050004D01*
X94394435Y15050004D01*
X94394435Y15049997D01*
X94414630Y14870755D01*
X94414631Y14870749D01*
X94414632Y14870745D01*
X94474211Y14700478D01*
X94474212Y14700477D01*
X94474214Y14700471D01*
X94570180Y14547743D01*
X94570182Y14547741D01*
X94570184Y14547738D01*
X94697738Y14420184D01*
X94697740Y14420183D01*
X94697742Y14420181D01*
X94850470Y14324215D01*
X94850473Y14324214D01*
X94850478Y14324211D01*
X95020745Y14264632D01*
X95020754Y14264631D01*
X95199996Y14244435D01*
X95200000Y14244435D01*
X95200004Y14244435D01*
X95339908Y14260199D01*
X95379255Y14264632D01*
X95549522Y14324211D01*
X95549527Y14324215D01*
X95549529Y14324215D01*
X95702257Y14420181D01*
X95702256Y14420181D01*
X95702262Y14420184D01*
X95829816Y14547738D01*
X95863911Y14602000D01*
X95925785Y14700471D01*
X95925785Y14700473D01*
X95925789Y14700478D01*
X95985368Y14870745D01*
X95991152Y14922080D01*
X96005565Y15049997D01*
X96005565Y15050004D01*
X95985369Y15229246D01*
X95985368Y15229254D01*
X95980031Y15244507D01*
X95926873Y15396424D01*
X95913293Y15492619D01*
X95937559Y15586694D01*
X95951057Y15611119D01*
X95975789Y15650478D01*
X96035368Y15820745D01*
X96044579Y15902499D01*
X96055565Y15999997D01*
X96055565Y16000004D01*
X97694435Y16000004D01*
X97694435Y15999997D01*
X97714630Y15820755D01*
X97714631Y15820749D01*
X97714632Y15820745D01*
X97774211Y15650478D01*
X97774212Y15650477D01*
X97774214Y15650471D01*
X97870180Y15497743D01*
X97870182Y15497741D01*
X97870184Y15497738D01*
X97997738Y15370184D01*
X97997740Y15370183D01*
X97997742Y15370181D01*
X98150470Y15274215D01*
X98150473Y15274214D01*
X98150478Y15274211D01*
X98320745Y15214632D01*
X98320754Y15214631D01*
X98499996Y15194435D01*
X98500000Y15194435D01*
X98500004Y15194435D01*
X98639908Y15210199D01*
X98679255Y15214632D01*
X98849522Y15274211D01*
X98849527Y15274215D01*
X98849529Y15274215D01*
X99002257Y15370181D01*
X99002256Y15370181D01*
X99002262Y15370184D01*
X99129816Y15497738D01*
X99193771Y15599522D01*
X99225785Y15650471D01*
X99225785Y15650473D01*
X99225789Y15650478D01*
X99285368Y15820745D01*
X99294579Y15902499D01*
X99305565Y15999997D01*
X99305565Y16000004D01*
X99285369Y16179246D01*
X99285368Y16179255D01*
X99225789Y16349522D01*
X99225786Y16349527D01*
X99225785Y16349530D01*
X99129819Y16502258D01*
X99129817Y16502260D01*
X99129816Y16502262D01*
X99002262Y16629816D01*
X99002259Y16629818D01*
X99002257Y16629820D01*
X98849529Y16725786D01*
X98849524Y16725788D01*
X98849522Y16725789D01*
X98679255Y16785368D01*
X98679251Y16785369D01*
X98679245Y16785370D01*
X98500004Y16805565D01*
X98499996Y16805565D01*
X98320754Y16785370D01*
X98320746Y16785369D01*
X98320745Y16785368D01*
X98150478Y16725789D01*
X98150476Y16725789D01*
X98150476Y16725788D01*
X98150470Y16725786D01*
X97997742Y16629820D01*
X97870180Y16502258D01*
X97774214Y16349530D01*
X97774211Y16349524D01*
X97774211Y16349522D01*
X97716322Y16184083D01*
X97714632Y16179254D01*
X97714630Y16179246D01*
X97694435Y16000004D01*
X96055565Y16000004D01*
X96035369Y16179246D01*
X96035368Y16179255D01*
X95975789Y16349522D01*
X95975786Y16349527D01*
X95975785Y16349530D01*
X95879819Y16502258D01*
X95879817Y16502260D01*
X95879816Y16502262D01*
X95752262Y16629816D01*
X95752259Y16629818D01*
X95752257Y16629820D01*
X95599529Y16725786D01*
X95599524Y16725788D01*
X95599522Y16725789D01*
X95429255Y16785368D01*
X95429251Y16785369D01*
X95429245Y16785370D01*
X95250004Y16805565D01*
X95249996Y16805565D01*
X95070754Y16785370D01*
X95070746Y16785369D01*
X95070745Y16785368D01*
X94900478Y16725789D01*
X94900476Y16725789D01*
X94900476Y16725788D01*
X94900470Y16725786D01*
X94747742Y16629820D01*
X94620180Y16502258D01*
X94524214Y16349530D01*
X94524211Y16349524D01*
X94524211Y16349522D01*
X94466322Y16184083D01*
X94464632Y16179254D01*
X94464630Y16179246D01*
X94444435Y16000004D01*
X94444435Y15999997D01*
X94464630Y15820755D01*
X94464632Y15820744D01*
X94495486Y15732570D01*
X94514141Y15679255D01*
X94523125Y15653582D01*
X94536706Y15557381D01*
X94512439Y15463306D01*
X94498934Y15438869D01*
X94492893Y15429254D01*
X94474211Y15399522D01*
X94420711Y15246626D01*
X94414632Y15229254D01*
X94414630Y15229246D01*
X94394435Y15050004D01*
X82000500Y15050004D01*
X82000500Y15332440D01*
X82019454Y15427728D01*
X82073430Y15508510D01*
X82564924Y16000004D01*
X88444435Y16000004D01*
X88444435Y15999997D01*
X88464630Y15820755D01*
X88464631Y15820749D01*
X88464632Y15820745D01*
X88524211Y15650478D01*
X88524212Y15650477D01*
X88524214Y15650471D01*
X88620180Y15497743D01*
X88620182Y15497741D01*
X88620184Y15497738D01*
X88747738Y15370184D01*
X88747740Y15370183D01*
X88747742Y15370181D01*
X88900470Y15274215D01*
X88900473Y15274214D01*
X88900478Y15274211D01*
X89070745Y15214632D01*
X89070754Y15214631D01*
X89249996Y15194435D01*
X89250000Y15194435D01*
X89250004Y15194435D01*
X89389908Y15210199D01*
X89429255Y15214632D01*
X89599522Y15274211D01*
X89599527Y15274215D01*
X89599529Y15274215D01*
X89752257Y15370181D01*
X89752256Y15370181D01*
X89752262Y15370184D01*
X89879816Y15497738D01*
X89943771Y15599522D01*
X89975785Y15650471D01*
X89975785Y15650473D01*
X89975789Y15650478D01*
X90035368Y15820745D01*
X90044579Y15902499D01*
X90055565Y15999997D01*
X90055565Y16000004D01*
X90035369Y16179246D01*
X90035368Y16179255D01*
X89975789Y16349522D01*
X89975786Y16349527D01*
X89975785Y16349530D01*
X89879819Y16502258D01*
X89879817Y16502260D01*
X89879816Y16502262D01*
X89752262Y16629816D01*
X89752259Y16629818D01*
X89752257Y16629820D01*
X89599529Y16725786D01*
X89599524Y16725788D01*
X89599522Y16725789D01*
X89429255Y16785368D01*
X89429251Y16785369D01*
X89429245Y16785370D01*
X89250004Y16805565D01*
X89249996Y16805565D01*
X89070754Y16785370D01*
X89070746Y16785369D01*
X89070745Y16785368D01*
X88900478Y16725789D01*
X88900476Y16725789D01*
X88900476Y16725788D01*
X88900470Y16725786D01*
X88747742Y16629820D01*
X88620180Y16502258D01*
X88524214Y16349530D01*
X88524211Y16349524D01*
X88524211Y16349522D01*
X88466322Y16184083D01*
X88464632Y16179254D01*
X88464630Y16179246D01*
X88444435Y16000004D01*
X82564924Y16000004D01*
X84141490Y17576570D01*
X84222272Y17630546D01*
X84317560Y17649500D01*
X91401459Y17649500D01*
X100401459Y17649500D01*
X100601460Y17649500D01*
X100798540Y17649500D01*
X100798541Y17649500D01*
X101001000Y17649500D01*
X101096288Y17630546D01*
X101177070Y17576570D01*
X101231046Y17495788D01*
X101250000Y17400500D01*
X101250000Y14914509D01*
X101231046Y14819221D01*
X101177070Y14738439D01*
X91555068Y5116438D01*
X91474286Y5062462D01*
X91406879Y5045074D01*
X91320752Y5035370D01*
X91320746Y5035369D01*
X91320745Y5035368D01*
X91150478Y4975789D01*
X91150476Y4975789D01*
X91150476Y4975788D01*
X91150470Y4975786D01*
X90997742Y4879820D01*
X90870180Y4752258D01*
X90774214Y4599530D01*
X90774211Y4599524D01*
X90774211Y4599522D01*
X90723181Y4453685D01*
X90714632Y4429254D01*
X90714630Y4429246D01*
X90694435Y4250004D01*
X90694435Y4249997D01*
X90714630Y4070755D01*
X90714631Y4070749D01*
X90714632Y4070745D01*
X90774211Y3900478D01*
X90774212Y3900477D01*
X90774214Y3900471D01*
X90870180Y3747743D01*
X90870182Y3747741D01*
X90870184Y3747738D01*
X90997738Y3620184D01*
X90997740Y3620183D01*
X90997742Y3620181D01*
X91150470Y3524215D01*
X91150473Y3524214D01*
X91150478Y3524211D01*
X91320745Y3464632D01*
X91320754Y3464631D01*
X91499996Y3444435D01*
X91500000Y3444435D01*
X91500004Y3444435D01*
X91639908Y3460199D01*
X91679255Y3464632D01*
X91710802Y3475671D01*
X91738971Y3485527D01*
X91811784Y3497899D01*
X91811745Y3498301D01*
X91817471Y3498866D01*
X91821209Y3499500D01*
X91823919Y3499500D01*
X91823919Y3499501D01*
X91968913Y3528342D01*
X92105495Y3584916D01*
X92164735Y3624499D01*
X92228416Y3667048D01*
X97238437Y8677071D01*
X97319219Y8731046D01*
X97414507Y8750000D01*
X98427363Y8750000D01*
X98509601Y8736028D01*
X98570745Y8714632D01*
X98570754Y8714631D01*
X98749996Y8694435D01*
X98750000Y8694435D01*
X98750004Y8694435D01*
X98889908Y8710199D01*
X98929255Y8714632D01*
X99099522Y8774211D01*
X99099527Y8774215D01*
X99099529Y8774215D01*
X99239584Y8862218D01*
X99252262Y8870184D01*
X99379816Y8997738D01*
X99404998Y9037816D01*
X99475785Y9150471D01*
X99475785Y9150473D01*
X99475789Y9150478D01*
X99535368Y9320745D01*
X99547627Y9429547D01*
X99555565Y9499997D01*
X99555565Y9500004D01*
X99535369Y9679246D01*
X99535368Y9679255D01*
X99535366Y9679261D01*
X99513973Y9740400D01*
X99500000Y9822638D01*
X99500000Y10835493D01*
X99518954Y10930781D01*
X99572930Y11011562D01*
X100040031Y11478664D01*
X100120813Y11532641D01*
X100216101Y11551595D01*
X100311389Y11532641D01*
X100392170Y11478665D01*
X100446147Y11397883D01*
X100463535Y11330475D01*
X100464630Y11320754D01*
X100464632Y11320744D01*
X100486027Y11259602D01*
X100500000Y11177363D01*
X100500000Y7449000D01*
X100481046Y7353712D01*
X100427070Y7272930D01*
X100346288Y7218954D01*
X100251000Y7200000D01*
X97500000Y7200000D01*
X97500000Y7199999D01*
X97500000Y324500D01*
X97481046Y229212D01*
X97427070Y148430D01*
X97346288Y94454D01*
X97251000Y75500D01*
X7449000Y75500D01*
X7353712Y94454D01*
X7272930Y148430D01*
X7218954Y229212D01*
X7200000Y324500D01*
X7200000Y3387043D01*
X7200341Y3400074D01*
X7200477Y3402675D01*
X7205578Y3500000D01*
X7200341Y3599928D01*
X7200000Y3612959D01*
X7200000Y7249999D01*
X7200000Y7250000D01*
X7199999Y7250000D01*
X324500Y7250000D01*
X229212Y7268954D01*
X148430Y7322930D01*
X94454Y7403712D01*
X75500Y7499000D01*
X75500Y56551000D01*
X94454Y56646288D01*
X148430Y56727070D01*
X229212Y56781046D01*
X324500Y56800000D01*
X3387043Y56800000D01*
X3400074Y56799659D01*
X3402674Y56799523D01*
X3500000Y56794422D01*
X3597325Y56799523D01*
X3599926Y56799659D01*
X3612957Y56800000D01*
X6795839Y56800000D01*
X6891127Y56781046D01*
X6971909Y56727070D01*
X7025885Y56646288D01*
X7044839Y56551000D01*
X7040055Y56502423D01*
X6999500Y56298540D01*
X6999500Y53472860D01*
X6980546Y53377572D01*
X6926570Y53296790D01*
X6845788Y53242814D01*
X6768491Y53227439D01*
X5803457Y52262406D01*
X5718370Y52373293D01*
X5560793Y52530870D01*
X5449904Y52615959D01*
X6410870Y53576925D01*
X6342144Y53638341D01*
X6062751Y53836580D01*
X5762923Y54002289D01*
X5762924Y54002289D01*
X5446450Y54133376D01*
X5446430Y54133383D01*
X5117261Y54228216D01*
X5117246Y54228219D01*
X4779525Y54285599D01*
X4779519Y54285600D01*
X4437505Y54304806D01*
X4437495Y54304806D01*
X4095480Y54285600D01*
X4095474Y54285599D01*
X3757753Y54228219D01*
X3757738Y54228216D01*
X3428569Y54133383D01*
X3428549Y54133376D01*
X3112075Y54002289D01*
X2812248Y53836580D01*
X2532855Y53638340D01*
X2464129Y53576925D01*
X3425095Y52615959D01*
X3314207Y52530870D01*
X3156630Y52373293D01*
X3071541Y52262405D01*
X2110575Y53223371D01*
X2049160Y53154645D01*
X1850920Y52875252D01*
X1685211Y52575425D01*
X1554124Y52258951D01*
X1554117Y52258931D01*
X1459284Y51929762D01*
X1459281Y51929747D01*
X1401901Y51592026D01*
X1401900Y51592020D01*
X1382694Y51250006D01*
X1382694Y51249995D01*
X1401900Y50907981D01*
X1401901Y50907975D01*
X1459281Y50570254D01*
X1459284Y50570239D01*
X1554117Y50241070D01*
X1554124Y50241050D01*
X1685211Y49924576D01*
X1850920Y49624749D01*
X2049159Y49345356D01*
X2110575Y49276631D01*
X3071541Y50237597D01*
X3156630Y50126707D01*
X3314207Y49969130D01*
X3425094Y49884043D01*
X2464129Y48923077D01*
X2532855Y48861660D01*
X2812248Y48663421D01*
X3112076Y48497712D01*
X3112075Y48497712D01*
X3428549Y48366625D01*
X3428569Y48366618D01*
X3757738Y48271785D01*
X3757753Y48271782D01*
X4095474Y48214402D01*
X4095480Y48214401D01*
X4437495Y48195194D01*
X4437505Y48195194D01*
X4779519Y48214401D01*
X4779525Y48214402D01*
X5117246Y48271782D01*
X5117261Y48271785D01*
X5446430Y48366618D01*
X5446450Y48366625D01*
X5762924Y48497712D01*
X6062751Y48663421D01*
X6342138Y48861656D01*
X6342141Y48861658D01*
X6410869Y48923077D01*
X5449904Y49884042D01*
X5560793Y49969130D01*
X5718370Y50126707D01*
X5803458Y50237596D01*
X6764423Y49276631D01*
X6825842Y49345359D01*
X6825844Y49345362D01*
X7024079Y49624749D01*
X7189788Y49924576D01*
X7320875Y50241050D01*
X7320875Y50241051D01*
X7321024Y50241565D01*
X7321122Y50241756D01*
X7323183Y50247645D01*
X7323553Y50247516D01*
X7323554Y50247516D01*
X7323566Y50247511D01*
X7324014Y50247355D01*
X7365613Y50327884D01*
X7439840Y50390569D01*
X7532406Y50420077D01*
X7629217Y50411916D01*
X7715536Y50367327D01*
X7736366Y50348714D01*
X9177070Y48908010D01*
X9231046Y48827228D01*
X9250000Y48731940D01*
X9250000Y41899500D01*
X9231046Y41804212D01*
X9177070Y41723430D01*
X9096288Y41669454D01*
X9001000Y41650500D01*
X8935926Y41650500D01*
X8813204Y41626089D01*
X8813205Y41626088D01*
X8810259Y41625502D01*
X8810256Y41625502D01*
X8691878Y41576468D01*
X8691874Y41576466D01*
X8691873Y41576465D01*
X8595720Y41512218D01*
X8585326Y41505273D01*
X3744721Y36664667D01*
X3683381Y36572863D01*
X3683380Y36572864D01*
X3673539Y36558135D01*
X3673532Y36558123D01*
X3624498Y36439743D01*
X3599500Y36314072D01*
X3599500Y18185929D01*
X3621665Y18074504D01*
X3624499Y18060256D01*
X3624499Y18060255D01*
X3673534Y17941873D01*
X3744723Y17835331D01*
X5466543Y16113511D01*
X5520519Y16032729D01*
X5539473Y15937441D01*
X5520519Y15842153D01*
X5466543Y15761371D01*
X5385761Y15707395D01*
X5290473Y15688441D01*
X5221542Y15698172D01*
X5117250Y15728218D01*
X5117246Y15728219D01*
X4779525Y15785599D01*
X4779519Y15785600D01*
X4437505Y15804806D01*
X4437495Y15804806D01*
X4095480Y15785600D01*
X4095474Y15785599D01*
X3757753Y15728219D01*
X3757738Y15728216D01*
X3428569Y15633383D01*
X3428549Y15633376D01*
X3112075Y15502289D01*
X2812248Y15336580D01*
X2532855Y15138340D01*
X2464129Y15076925D01*
X3425095Y14115959D01*
X3314207Y14030870D01*
X3156630Y13873293D01*
X3071541Y13762405D01*
X2110575Y14723371D01*
X2049160Y14654645D01*
X1850920Y14375252D01*
X1685211Y14075425D01*
X1554124Y13758951D01*
X1554117Y13758931D01*
X1459284Y13429762D01*
X1459281Y13429747D01*
X1401901Y13092026D01*
X1401900Y13092020D01*
X1382694Y12750006D01*
X1382694Y12749995D01*
X1401900Y12407981D01*
X1401901Y12407975D01*
X1459281Y12070254D01*
X1459284Y12070239D01*
X1554117Y11741070D01*
X1554124Y11741050D01*
X1685211Y11424576D01*
X1850920Y11124749D01*
X2049159Y10845356D01*
X2110575Y10776631D01*
X3071541Y11737597D01*
X3156630Y11626707D01*
X3314207Y11469130D01*
X3425094Y11384043D01*
X2464129Y10423077D01*
X2532855Y10361660D01*
X2812248Y10163421D01*
X3112076Y9997712D01*
X3112075Y9997712D01*
X3428549Y9866625D01*
X3428569Y9866618D01*
X3757738Y9771785D01*
X3757753Y9771782D01*
X4095474Y9714402D01*
X4095480Y9714401D01*
X4437495Y9695194D01*
X4437505Y9695194D01*
X4779519Y9714401D01*
X4779525Y9714402D01*
X5117246Y9771782D01*
X5117261Y9771785D01*
X5446430Y9866618D01*
X5446450Y9866625D01*
X5762924Y9997712D01*
X6062751Y10163421D01*
X6342138Y10361656D01*
X6342141Y10361658D01*
X6410869Y10423077D01*
X5449904Y11384042D01*
X5560793Y11469130D01*
X5718370Y11626707D01*
X5803458Y11737596D01*
X6764423Y10776631D01*
X6825842Y10845359D01*
X6825844Y10845362D01*
X7024079Y11124749D01*
X7193164Y11430684D01*
X7194385Y11430010D01*
X7247292Y11500327D01*
X7330967Y11549698D01*
X7427167Y11563291D01*
X7521245Y11539035D01*
X7589300Y11490754D01*
X9777072Y9302982D01*
X9831046Y9222203D01*
X9850000Y9126915D01*
X9850000Y1975367D01*
X9849052Y1953664D01*
X9844532Y1902004D01*
X9844532Y1901995D01*
X9864363Y1675321D01*
X9864365Y1675306D01*
X9923261Y1455504D01*
X9923262Y1455501D01*
X10019428Y1249273D01*
X10019436Y1249259D01*
X10149949Y1062866D01*
X10149953Y1062861D01*
X10310861Y901953D01*
X10310864Y901951D01*
X10310865Y901950D01*
X10497258Y771437D01*
X10497262Y771435D01*
X10497266Y771432D01*
X10703504Y675261D01*
X10923308Y616365D01*
X10942984Y614644D01*
X11149994Y596532D01*
X11150000Y596532D01*
X11150006Y596532D01*
X11329668Y612251D01*
X11376692Y616365D01*
X11596496Y675261D01*
X11802734Y771432D01*
X11989139Y901953D01*
X12150047Y1062861D01*
X12216031Y1157098D01*
X12286211Y1224281D01*
X12376760Y1259494D01*
X12473892Y1257375D01*
X12562819Y1218247D01*
X12623968Y1157098D01*
X12689953Y1062861D01*
X12850861Y901953D01*
X12850864Y901951D01*
X12850865Y901950D01*
X13037258Y771437D01*
X13037262Y771435D01*
X13037266Y771432D01*
X13243504Y675261D01*
X13463308Y616365D01*
X13482984Y614644D01*
X13689994Y596532D01*
X13690000Y596532D01*
X13690006Y596532D01*
X13869668Y612251D01*
X13916692Y616365D01*
X14136496Y675261D01*
X14342734Y771432D01*
X14529139Y901953D01*
X14690047Y1062861D01*
X14756031Y1157098D01*
X14826211Y1224281D01*
X14916760Y1259494D01*
X15013892Y1257375D01*
X15102819Y1218247D01*
X15163968Y1157098D01*
X15229953Y1062861D01*
X15390861Y901953D01*
X15390864Y901951D01*
X15390865Y901950D01*
X15577258Y771437D01*
X15577262Y771435D01*
X15577266Y771432D01*
X15783504Y675261D01*
X16003308Y616365D01*
X16022984Y614644D01*
X16229994Y596532D01*
X16230000Y596532D01*
X16230006Y596532D01*
X16409668Y612251D01*
X16456692Y616365D01*
X16676496Y675261D01*
X16882734Y771432D01*
X17069139Y901953D01*
X17230047Y1062861D01*
X17296031Y1157098D01*
X17366211Y1224281D01*
X17456760Y1259494D01*
X17553892Y1257375D01*
X17642819Y1218247D01*
X17703968Y1157098D01*
X17769953Y1062861D01*
X17930861Y901953D01*
X17930864Y901951D01*
X17930865Y901950D01*
X18117258Y771437D01*
X18117262Y771435D01*
X18117266Y771432D01*
X18323504Y675261D01*
X18543308Y616365D01*
X18562984Y614644D01*
X18769994Y596532D01*
X18770000Y596532D01*
X18770006Y596532D01*
X18949668Y612251D01*
X18996692Y616365D01*
X19216496Y675261D01*
X19422734Y771432D01*
X19609139Y901953D01*
X19770047Y1062861D01*
X19836031Y1157098D01*
X19906211Y1224281D01*
X19996760Y1259494D01*
X20093892Y1257375D01*
X20182819Y1218247D01*
X20243968Y1157098D01*
X20309953Y1062861D01*
X20470861Y901953D01*
X20470864Y901951D01*
X20470865Y901950D01*
X20657258Y771437D01*
X20657262Y771435D01*
X20657266Y771432D01*
X20863504Y675261D01*
X21083308Y616365D01*
X21102984Y614644D01*
X21309994Y596532D01*
X21310000Y596532D01*
X21310006Y596532D01*
X21489668Y612251D01*
X21536692Y616365D01*
X21756496Y675261D01*
X21962734Y771432D01*
X22149139Y901953D01*
X22310047Y1062861D01*
X22376031Y1157098D01*
X22446211Y1224281D01*
X22536760Y1259494D01*
X22633892Y1257375D01*
X22722819Y1218247D01*
X22783968Y1157098D01*
X22849953Y1062861D01*
X23010861Y901953D01*
X23010864Y901951D01*
X23010865Y901950D01*
X23197258Y771437D01*
X23197262Y771435D01*
X23197266Y771432D01*
X23403504Y675261D01*
X23623308Y616365D01*
X23642984Y614644D01*
X23849994Y596532D01*
X23850000Y596532D01*
X23850006Y596532D01*
X24029668Y612251D01*
X24076692Y616365D01*
X24296496Y675261D01*
X24502734Y771432D01*
X24689139Y901953D01*
X24850047Y1062861D01*
X24916031Y1157098D01*
X24986211Y1224281D01*
X25076760Y1259494D01*
X25173892Y1257375D01*
X25262819Y1218247D01*
X25323968Y1157098D01*
X25389953Y1062861D01*
X25550861Y901953D01*
X25550864Y901951D01*
X25550865Y901950D01*
X25737258Y771437D01*
X25737262Y771435D01*
X25737266Y771432D01*
X25943504Y675261D01*
X26163308Y616365D01*
X26182984Y614644D01*
X26389994Y596532D01*
X26390000Y596532D01*
X26390006Y596532D01*
X26569668Y612251D01*
X26616692Y616365D01*
X26836496Y675261D01*
X27042734Y771432D01*
X27229139Y901953D01*
X27390047Y1062861D01*
X27456031Y1157098D01*
X27526211Y1224281D01*
X27616760Y1259494D01*
X27713892Y1257375D01*
X27802819Y1218247D01*
X27863968Y1157098D01*
X27929953Y1062861D01*
X28090861Y901953D01*
X28090864Y901951D01*
X28090865Y901950D01*
X28277258Y771437D01*
X28277262Y771435D01*
X28277266Y771432D01*
X28483504Y675261D01*
X28703308Y616365D01*
X28722984Y614644D01*
X28929994Y596532D01*
X28930000Y596532D01*
X28930006Y596532D01*
X29109668Y612251D01*
X29156692Y616365D01*
X29376496Y675261D01*
X29582734Y771432D01*
X29769139Y901953D01*
X29930047Y1062861D01*
X30060568Y1249266D01*
X30156739Y1455504D01*
X30215635Y1675308D01*
X30215635Y1675311D01*
X30218448Y1685808D01*
X30220859Y1685162D01*
X30249706Y1759314D01*
X30316899Y1829487D01*
X30405831Y1868604D01*
X30459694Y1874500D01*
X49311607Y1874500D01*
X49372029Y1886519D01*
X49432452Y1898537D01*
X49465782Y1912344D01*
X49465791Y1912346D01*
X49465791Y1912347D01*
X49509817Y1930584D01*
X49546286Y1945688D01*
X49613636Y1990691D01*
X49648733Y2014142D01*
X49735858Y2101267D01*
X49735860Y2101271D01*
X50343208Y2708620D01*
X50423987Y2762593D01*
X50519275Y2781547D01*
X50614563Y2762593D01*
X50695345Y2708617D01*
X50749321Y2627835D01*
X50763490Y2581125D01*
X50787947Y2458170D01*
X50787949Y2458165D01*
X50863365Y2276092D01*
X50863366Y2276089D01*
X50863368Y2276086D01*
X50972861Y2112218D01*
X51112218Y1972861D01*
X51276086Y1863368D01*
X51458165Y1787949D01*
X51458167Y1787949D01*
X51458169Y1787948D01*
X51602121Y1759314D01*
X51651459Y1749500D01*
X52848541Y1749500D01*
X53041835Y1787949D01*
X53223914Y1863368D01*
X53387782Y1972861D01*
X53527139Y2112218D01*
X53636632Y2276086D01*
X53712051Y2458165D01*
X53750500Y2651459D01*
X53750500Y2848541D01*
X53750499Y2848546D01*
X57499500Y2848546D01*
X57499500Y2651455D01*
X57537947Y2458170D01*
X57537949Y2458165D01*
X57613365Y2276092D01*
X57613366Y2276089D01*
X57613368Y2276086D01*
X57722861Y2112218D01*
X57862218Y1972861D01*
X58026086Y1863368D01*
X58208165Y1787949D01*
X58208167Y1787949D01*
X58208169Y1787948D01*
X58352121Y1759314D01*
X58401459Y1749500D01*
X59848541Y1749500D01*
X60041835Y1787949D01*
X60223914Y1863368D01*
X60387782Y1972861D01*
X60527139Y2112218D01*
X60636632Y2276086D01*
X60712051Y2458165D01*
X60750500Y2651459D01*
X60750500Y2848541D01*
X60728885Y2957206D01*
X60712052Y3041831D01*
X60712051Y3041833D01*
X60712051Y3041835D01*
X60636632Y3223914D01*
X60527139Y3387782D01*
X60387782Y3527139D01*
X60385980Y3528343D01*
X60259343Y3612959D01*
X60223914Y3636632D01*
X60223911Y3636634D01*
X60223908Y3636635D01*
X60041835Y3712051D01*
X60041830Y3712053D01*
X59848545Y3750500D01*
X59848541Y3750500D01*
X58401459Y3750500D01*
X58401454Y3750500D01*
X58208169Y3712053D01*
X58208164Y3712051D01*
X58026091Y3636635D01*
X58026084Y3636631D01*
X57862221Y3527142D01*
X57722858Y3387779D01*
X57613369Y3223916D01*
X57613365Y3223909D01*
X57537949Y3041836D01*
X57537947Y3041831D01*
X57499500Y2848546D01*
X53750499Y2848546D01*
X53728885Y2957206D01*
X53712052Y3041831D01*
X53712051Y3041833D01*
X53712051Y3041835D01*
X53636632Y3223914D01*
X53527139Y3387782D01*
X53387782Y3527139D01*
X53385980Y3528343D01*
X53259343Y3612959D01*
X53223914Y3636632D01*
X53223911Y3636634D01*
X53223908Y3636635D01*
X53041835Y3712051D01*
X53041830Y3712053D01*
X52848545Y3750500D01*
X52848541Y3750500D01*
X51986229Y3750500D01*
X51890941Y3769454D01*
X51810159Y3823430D01*
X51756183Y3904212D01*
X51737229Y3999500D01*
X51756183Y4094788D01*
X51810159Y4175570D01*
X51983135Y4348546D01*
X64749500Y4348546D01*
X64749500Y2651455D01*
X64787947Y2458170D01*
X64787949Y2458165D01*
X64863365Y2276092D01*
X64863366Y2276089D01*
X64863368Y2276086D01*
X64972861Y2112218D01*
X65112218Y1972861D01*
X65276086Y1863368D01*
X65458165Y1787949D01*
X65458167Y1787949D01*
X65458169Y1787948D01*
X65602121Y1759314D01*
X65651459Y1749500D01*
X65848541Y1749500D01*
X66041835Y1787949D01*
X66223914Y1863368D01*
X66387782Y1972861D01*
X66448933Y2034013D01*
X66529712Y2087986D01*
X66625000Y2106940D01*
X66720288Y2087986D01*
X66801066Y2034013D01*
X66862218Y1972861D01*
X67026086Y1863368D01*
X67208165Y1787949D01*
X67208167Y1787949D01*
X67208169Y1787948D01*
X67352121Y1759314D01*
X67401459Y1749500D01*
X67598541Y1749500D01*
X67791835Y1787949D01*
X67973914Y1863368D01*
X68137782Y1972861D01*
X68277139Y2112218D01*
X68386632Y2276086D01*
X68462051Y2458165D01*
X68500500Y2651459D01*
X68500500Y2848546D01*
X72249500Y2848546D01*
X72249500Y2651455D01*
X72287947Y2458170D01*
X72287949Y2458165D01*
X72363365Y2276092D01*
X72363366Y2276089D01*
X72363368Y2276086D01*
X72472861Y2112218D01*
X72612218Y1972861D01*
X72776086Y1863368D01*
X72958165Y1787949D01*
X72958167Y1787949D01*
X72958169Y1787948D01*
X73102121Y1759314D01*
X73151459Y1749500D01*
X74598541Y1749500D01*
X74791835Y1787949D01*
X74973914Y1863368D01*
X75137782Y1972861D01*
X75277139Y2112218D01*
X75386632Y2276086D01*
X75462051Y2458165D01*
X75500500Y2651459D01*
X75500500Y2848541D01*
X75478885Y2957206D01*
X75462052Y3041831D01*
X75462051Y3041833D01*
X75462051Y3041835D01*
X75386632Y3223914D01*
X75277139Y3387782D01*
X75137782Y3527139D01*
X75135980Y3528343D01*
X75009343Y3612959D01*
X74973914Y3636632D01*
X74973911Y3636634D01*
X74973908Y3636635D01*
X74791835Y3712051D01*
X74791830Y3712053D01*
X74598545Y3750500D01*
X74598541Y3750500D01*
X73151459Y3750500D01*
X73151454Y3750500D01*
X72958169Y3712053D01*
X72958164Y3712051D01*
X72776091Y3636635D01*
X72776084Y3636631D01*
X72612221Y3527142D01*
X72472858Y3387779D01*
X72363369Y3223916D01*
X72363365Y3223909D01*
X72287949Y3041836D01*
X72287947Y3041831D01*
X72249500Y2848546D01*
X68500500Y2848546D01*
X68500500Y4098546D01*
X79499500Y4098546D01*
X79499500Y2651455D01*
X79537947Y2458170D01*
X79537949Y2458165D01*
X79613365Y2276092D01*
X79613366Y2276089D01*
X79613368Y2276086D01*
X79722861Y2112218D01*
X79862218Y1972861D01*
X80026086Y1863368D01*
X80208165Y1787949D01*
X80208167Y1787949D01*
X80208169Y1787948D01*
X80352121Y1759314D01*
X80401459Y1749500D01*
X80598541Y1749500D01*
X80791835Y1787949D01*
X80973914Y1863368D01*
X81137782Y1972861D01*
X81277139Y2112218D01*
X81386632Y2276086D01*
X81462051Y2458165D01*
X81500500Y2651459D01*
X81500500Y4098541D01*
X81480631Y4198430D01*
X81462052Y4291831D01*
X81462051Y4291833D01*
X81462051Y4291835D01*
X81386632Y4473914D01*
X81277139Y4637782D01*
X81137782Y4777139D01*
X80973914Y4886632D01*
X80973911Y4886634D01*
X80973908Y4886635D01*
X80791835Y4962051D01*
X80791830Y4962053D01*
X80598545Y5000500D01*
X80598541Y5000500D01*
X80401459Y5000500D01*
X80401454Y5000500D01*
X80208169Y4962053D01*
X80208164Y4962051D01*
X80026091Y4886635D01*
X80026084Y4886631D01*
X79862221Y4777142D01*
X79722858Y4637779D01*
X79613369Y4473916D01*
X79613365Y4473909D01*
X79537949Y4291836D01*
X79537947Y4291831D01*
X79499500Y4098546D01*
X68500500Y4098546D01*
X68500500Y4348541D01*
X68478978Y4456740D01*
X68462052Y4541831D01*
X68462051Y4541833D01*
X68462051Y4541835D01*
X68386632Y4723914D01*
X68277139Y4887782D01*
X68137782Y5027139D01*
X68125466Y5035368D01*
X67973915Y5136631D01*
X67973914Y5136632D01*
X67973911Y5136634D01*
X67973908Y5136635D01*
X67791835Y5212051D01*
X67791830Y5212053D01*
X67598545Y5250500D01*
X67598541Y5250500D01*
X67401459Y5250500D01*
X67401454Y5250500D01*
X67208169Y5212053D01*
X67208164Y5212051D01*
X67026091Y5136635D01*
X67026084Y5136631D01*
X66862221Y5027142D01*
X66862218Y5027140D01*
X66862218Y5027139D01*
X66801066Y4965988D01*
X66720288Y4912014D01*
X66625000Y4893060D01*
X66529712Y4912014D01*
X66448933Y4965988D01*
X66387782Y5027139D01*
X66375466Y5035368D01*
X66223915Y5136631D01*
X66223914Y5136632D01*
X66223911Y5136634D01*
X66223908Y5136635D01*
X66041835Y5212051D01*
X66041830Y5212053D01*
X65848545Y5250500D01*
X65848541Y5250500D01*
X65651459Y5250500D01*
X65651454Y5250500D01*
X65458169Y5212053D01*
X65458164Y5212051D01*
X65276091Y5136635D01*
X65276084Y5136631D01*
X65112221Y5027142D01*
X64972858Y4887779D01*
X64863369Y4723916D01*
X64863365Y4723909D01*
X64787949Y4541836D01*
X64787947Y4541831D01*
X64749500Y4348546D01*
X51983135Y4348546D01*
X54639802Y7005212D01*
X57936160Y10301570D01*
X58016942Y10355546D01*
X58112230Y10374500D01*
X59561606Y10374500D01*
X59561607Y10374500D01*
X59622600Y10386632D01*
X59682452Y10398537D01*
X59721398Y10414669D01*
X59721398Y10414670D01*
X59721402Y10414670D01*
X59781933Y10439743D01*
X59796286Y10445688D01*
X59847509Y10479916D01*
X59898733Y10514142D01*
X59985858Y10601267D01*
X59985859Y10601270D01*
X65186161Y15801570D01*
X65266943Y15855546D01*
X65362231Y15874500D01*
X66861606Y15874500D01*
X66861607Y15874500D01*
X66927642Y15887635D01*
X66982452Y15898537D01*
X67021398Y15914669D01*
X67096286Y15945688D01*
X67162051Y15989632D01*
X67198733Y16014142D01*
X67285858Y16101267D01*
X67285860Y16101271D01*
X68177452Y16992864D01*
X68258231Y17046837D01*
X68325643Y17064226D01*
X68329255Y17064632D01*
X68499522Y17124211D01*
X68499527Y17124215D01*
X68499529Y17124215D01*
X68652257Y17220181D01*
X68652256Y17220181D01*
X68652262Y17220184D01*
X68779816Y17347738D01*
X68842529Y17447545D01*
X68875785Y17500471D01*
X68875785Y17500473D01*
X68875789Y17500478D01*
X68935368Y17670745D01*
X68942437Y17733494D01*
X68953129Y17828378D01*
X68982632Y17920945D01*
X69045313Y17995175D01*
X69131630Y18039768D01*
X69200563Y18049500D01*
X72177414Y18049500D01*
X72272702Y18030546D01*
X72353484Y17976570D01*
X79585331Y10744723D01*
X79675418Y10684530D01*
X79691873Y10673535D01*
X79810256Y10624499D01*
X79935929Y10599501D01*
X79935930Y10599500D01*
X79935931Y10599500D01*
X83127414Y10599500D01*
X83222702Y10580546D01*
X83303484Y10526570D01*
X84026570Y9803484D01*
X84080546Y9722702D01*
X84099500Y9627414D01*
X84099500Y8580881D01*
X84080546Y8485593D01*
X84026570Y8404811D01*
X84005753Y8386208D01*
X83997742Y8379820D01*
X83870180Y8252258D01*
X83774214Y8099530D01*
X83774212Y8099524D01*
X83714632Y7929254D01*
X83714630Y7929246D01*
X83694435Y7750004D01*
X83694435Y7749997D01*
X83714630Y7570755D01*
X83714631Y7570749D01*
X83714632Y7570745D01*
X83774211Y7400478D01*
X83774212Y7400477D01*
X83774214Y7400471D01*
X83870180Y7247743D01*
X83870182Y7247741D01*
X83870184Y7247738D01*
X83997738Y7120184D01*
X83997740Y7120183D01*
X83997742Y7120181D01*
X84150470Y7024215D01*
X84150473Y7024214D01*
X84150478Y7024211D01*
X84320745Y6964632D01*
X84320754Y6964631D01*
X84499996Y6944435D01*
X84500000Y6944435D01*
X84500004Y6944435D01*
X84639908Y6960199D01*
X84679255Y6964632D01*
X84849522Y7024211D01*
X84992524Y7114065D01*
X85083291Y7148713D01*
X85180407Y7145988D01*
X85257476Y7114065D01*
X85400471Y7024215D01*
X85400472Y7024215D01*
X85400478Y7024211D01*
X85570745Y6964632D01*
X85570754Y6964631D01*
X85749996Y6944435D01*
X85750000Y6944435D01*
X85750004Y6944435D01*
X85889908Y6960199D01*
X85929255Y6964632D01*
X86099522Y7024211D01*
X86099527Y7024215D01*
X86099529Y7024215D01*
X86252257Y7120181D01*
X86252256Y7120181D01*
X86252262Y7120184D01*
X86379816Y7247738D01*
X86443158Y7348546D01*
X86475785Y7400471D01*
X86475785Y7400473D01*
X86475789Y7400478D01*
X86535368Y7570745D01*
X86555565Y7750000D01*
X86554483Y7759602D01*
X86535369Y7929246D01*
X86535368Y7929255D01*
X86475789Y8099522D01*
X86475786Y8099527D01*
X86475785Y8099530D01*
X86379819Y8252258D01*
X86379817Y8252260D01*
X86379816Y8252262D01*
X86252262Y8379816D01*
X86252259Y8379818D01*
X86252257Y8379820D01*
X86244247Y8386208D01*
X86181567Y8460440D01*
X86152065Y8553007D01*
X86150500Y8580881D01*
X86150500Y10314070D01*
X86150499Y10314072D01*
X86149171Y10320747D01*
X86125501Y10439744D01*
X86100540Y10500004D01*
X87944435Y10500004D01*
X87944435Y10499997D01*
X87964630Y10320755D01*
X87964631Y10320749D01*
X87964632Y10320745D01*
X88024211Y10150478D01*
X88024212Y10150477D01*
X88024214Y10150471D01*
X88120180Y9997743D01*
X88120182Y9997741D01*
X88120184Y9997738D01*
X88247738Y9870184D01*
X88247740Y9870183D01*
X88247742Y9870181D01*
X88400470Y9774215D01*
X88400473Y9774214D01*
X88400478Y9774211D01*
X88570745Y9714632D01*
X88570754Y9714631D01*
X88749996Y9694435D01*
X88750000Y9694435D01*
X88750004Y9694435D01*
X88889908Y9710199D01*
X88929255Y9714632D01*
X89099522Y9774211D01*
X89099527Y9774215D01*
X89099529Y9774215D01*
X89252257Y9870181D01*
X89252256Y9870181D01*
X89252262Y9870184D01*
X89379816Y9997738D01*
X89404998Y10037816D01*
X89475785Y10150471D01*
X89475785Y10150473D01*
X89475789Y10150478D01*
X89535368Y10320745D01*
X89544133Y10398537D01*
X89555565Y10499997D01*
X89555565Y10500004D01*
X89535369Y10679246D01*
X89535368Y10679255D01*
X89475789Y10849522D01*
X89475786Y10849527D01*
X89475785Y10849530D01*
X89379819Y11002258D01*
X89379817Y11002260D01*
X89379816Y11002262D01*
X89252262Y11129816D01*
X89252259Y11129818D01*
X89252257Y11129820D01*
X89099529Y11225786D01*
X89099524Y11225788D01*
X89099522Y11225789D01*
X88929255Y11285368D01*
X88929251Y11285369D01*
X88929245Y11285370D01*
X88750004Y11305565D01*
X88749996Y11305565D01*
X88570754Y11285370D01*
X88570746Y11285369D01*
X88570745Y11285368D01*
X88400478Y11225789D01*
X88400476Y11225789D01*
X88400476Y11225788D01*
X88400470Y11225786D01*
X88247742Y11129820D01*
X88120180Y11002258D01*
X88024214Y10849530D01*
X88024211Y10849524D01*
X88024211Y10849522D01*
X87966479Y10684531D01*
X87964632Y10679254D01*
X87964630Y10679246D01*
X87944435Y10500004D01*
X86100540Y10500004D01*
X86076465Y10558127D01*
X86058565Y10584916D01*
X86005277Y10664669D01*
X84164669Y12505277D01*
X84163599Y12505992D01*
X84058127Y12576466D01*
X83939746Y12625500D01*
X83939744Y12625501D01*
X83939742Y12625502D01*
X83939741Y12625502D01*
X83814071Y12650500D01*
X83814069Y12650500D01*
X80622586Y12650500D01*
X80527298Y12669454D01*
X80446516Y12723430D01*
X80419942Y12750004D01*
X87944435Y12750004D01*
X87944435Y12749997D01*
X87964630Y12570755D01*
X87964631Y12570749D01*
X87964632Y12570745D01*
X88024211Y12400478D01*
X88024212Y12400477D01*
X88024214Y12400471D01*
X88120180Y12247743D01*
X88120182Y12247741D01*
X88120184Y12247738D01*
X88247738Y12120184D01*
X88247740Y12120183D01*
X88247742Y12120181D01*
X88400470Y12024215D01*
X88400473Y12024214D01*
X88400478Y12024211D01*
X88570745Y11964632D01*
X88570754Y11964631D01*
X88749996Y11944435D01*
X88750000Y11944435D01*
X88750004Y11944435D01*
X88889908Y11960199D01*
X88929255Y11964632D01*
X89099522Y12024211D01*
X89099527Y12024215D01*
X89099529Y12024215D01*
X89252257Y12120181D01*
X89252256Y12120181D01*
X89252262Y12120184D01*
X89379816Y12247738D01*
X89416151Y12305565D01*
X89475785Y12400471D01*
X89475785Y12400473D01*
X89475789Y12400478D01*
X89535368Y12570745D01*
X89551055Y12709969D01*
X89555565Y12749997D01*
X89555565Y12750004D01*
X89535369Y12929246D01*
X89535368Y12929255D01*
X89475789Y13099522D01*
X89475786Y13099527D01*
X89475785Y13099530D01*
X89379819Y13252258D01*
X89379817Y13252260D01*
X89379816Y13252262D01*
X89252262Y13379816D01*
X89252259Y13379818D01*
X89252257Y13379820D01*
X89099529Y13475786D01*
X89099524Y13475788D01*
X89099522Y13475789D01*
X88929255Y13535368D01*
X88929251Y13535369D01*
X88929245Y13535370D01*
X88750004Y13555565D01*
X88749996Y13555565D01*
X88570754Y13535370D01*
X88570746Y13535369D01*
X88570745Y13535368D01*
X88400478Y13475789D01*
X88400476Y13475789D01*
X88400476Y13475788D01*
X88400470Y13475786D01*
X88247742Y13379820D01*
X88120180Y13252258D01*
X88024214Y13099530D01*
X88024211Y13099524D01*
X88024211Y13099522D01*
X87987541Y12994723D01*
X87964632Y12929254D01*
X87964630Y12929246D01*
X87944435Y12750004D01*
X80419942Y12750004D01*
X76041382Y17128564D01*
X75987406Y17209346D01*
X75968452Y17304634D01*
X75987406Y17399922D01*
X76041382Y17480704D01*
X76089080Y17514546D01*
X76087682Y17516771D01*
X76252257Y17620181D01*
X76252256Y17620181D01*
X76252262Y17620184D01*
X76379816Y17747738D01*
X76430486Y17828378D01*
X76475785Y17900471D01*
X76475785Y17900473D01*
X76475789Y17900478D01*
X76535368Y18070745D01*
X76551289Y18212051D01*
X76555565Y18249997D01*
X76555565Y18250003D01*
X76535369Y18429250D01*
X76535368Y18429253D01*
X76535368Y18429255D01*
X76526295Y18455183D01*
X76514473Y18488971D01*
X76500500Y18571210D01*
X76500500Y20335992D01*
X76519454Y20431280D01*
X76573430Y20512062D01*
X77587938Y21526570D01*
X77668720Y21580546D01*
X77764008Y21599500D01*
X78778791Y21599500D01*
X78861029Y21585527D01*
X78901728Y21571287D01*
X78920745Y21564632D01*
X78920754Y21564631D01*
X79099996Y21544435D01*
X79100000Y21544435D01*
X79100004Y21544435D01*
X79240417Y21560256D01*
X79279255Y21564632D01*
X79449522Y21624211D01*
X79449527Y21624215D01*
X79449529Y21624215D01*
X79602257Y21720181D01*
X79602256Y21720181D01*
X79602262Y21720184D01*
X79729816Y21847738D01*
X79825789Y22000478D01*
X79825789Y22000481D01*
X79833228Y22012318D01*
X79835671Y22010783D01*
X79868656Y22057289D01*
X80487938Y22676570D01*
X80568719Y22730546D01*
X80664007Y22749500D01*
X83823919Y22749500D01*
X83823919Y22749501D01*
X83968913Y22778342D01*
X84105495Y22834916D01*
X84159117Y22870745D01*
X84228416Y22917048D01*
X84792707Y23481342D01*
X84839210Y23514335D01*
X84837680Y23516770D01*
X84928291Y23573705D01*
X85002262Y23620184D01*
X85129816Y23747738D01*
X85175337Y23820184D01*
X85225785Y23900471D01*
X85225785Y23900473D01*
X85225789Y23900478D01*
X85285368Y24070745D01*
X85295997Y24165084D01*
X85305565Y24249997D01*
X85305565Y24250004D01*
X85285369Y24429246D01*
X85285368Y24429255D01*
X85225789Y24599522D01*
X85225786Y24599527D01*
X85225785Y24599530D01*
X85129819Y24752258D01*
X85129817Y24752260D01*
X85129816Y24752262D01*
X85002262Y24879816D01*
X85002259Y24879818D01*
X85002257Y24879820D01*
X84849529Y24975786D01*
X84849524Y24975788D01*
X84849522Y24975789D01*
X84679255Y25035368D01*
X84679251Y25035369D01*
X84679245Y25035370D01*
X84500004Y25055565D01*
X84499996Y25055565D01*
X84320754Y25035370D01*
X84320746Y25035369D01*
X84320745Y25035368D01*
X84150478Y24975789D01*
X84150476Y24975789D01*
X84150476Y24975788D01*
X84150470Y24975786D01*
X83997742Y24879820D01*
X83870183Y24752261D01*
X83842793Y24708670D01*
X83774211Y24599522D01*
X83774209Y24599519D01*
X83766773Y24587683D01*
X83764349Y24589206D01*
X83731345Y24542715D01*
X83512062Y24323431D01*
X83431281Y24269454D01*
X83335993Y24250500D01*
X82823918Y24250500D01*
X82573918Y24250500D01*
X82073918Y24250500D01*
X80176082Y24250500D01*
X80162197Y24247738D01*
X80162196Y24247739D01*
X80031089Y24221660D01*
X80031084Y24221659D01*
X79951081Y24188521D01*
X79951082Y24188520D01*
X79894507Y24165086D01*
X79833767Y24124500D01*
X79833765Y24124499D01*
X79771588Y24082955D01*
X79771585Y24082953D01*
X78862062Y23173430D01*
X78781281Y23119454D01*
X78685993Y23100500D01*
X77276074Y23100500D01*
X77247239Y23094764D01*
X77131091Y23071661D01*
X77090575Y23054878D01*
X77077591Y23049500D01*
X77077589Y23049499D01*
X76994512Y23015088D01*
X76994504Y23015084D01*
X76971182Y22999500D01*
X76971180Y22999499D01*
X76871588Y22932956D01*
X75167045Y21228413D01*
X75130382Y21173539D01*
X75130379Y21173535D01*
X75084916Y21105496D01*
X75084912Y21105488D01*
X75028342Y20968915D01*
X75028341Y20968912D01*
X74999500Y20823921D01*
X74999500Y20149000D01*
X74980546Y20053712D01*
X74926570Y19972930D01*
X74845788Y19918954D01*
X74750500Y19900000D01*
X73081378Y19900000D01*
X73071194Y19900500D01*
X73064069Y19900500D01*
X71044817Y19900500D01*
X70949529Y19919454D01*
X70868747Y19973430D01*
X70814771Y20054212D01*
X70795817Y20149500D01*
X70797383Y20177379D01*
X70805565Y20249998D01*
X70805565Y20250004D01*
X70785369Y20429246D01*
X70785368Y20429255D01*
X70725789Y20599522D01*
X70725786Y20599527D01*
X70725785Y20599530D01*
X70629819Y20752258D01*
X70629817Y20752260D01*
X70629816Y20752262D01*
X70521341Y20860737D01*
X70467368Y20941515D01*
X70448414Y21036803D01*
X70467368Y21132091D01*
X70473075Y21144845D01*
X70475782Y21150469D01*
X70475789Y21150478D01*
X70535368Y21320745D01*
X70544244Y21399522D01*
X70555565Y21499997D01*
X70555565Y21500004D01*
X70535369Y21679246D01*
X70535368Y21679255D01*
X70475789Y21849522D01*
X70475786Y21849527D01*
X70475785Y21849530D01*
X70379819Y22002258D01*
X70379817Y22002260D01*
X70379816Y22002262D01*
X70252262Y22129816D01*
X70252259Y22129818D01*
X70252257Y22129820D01*
X70099529Y22225786D01*
X70099524Y22225788D01*
X70099522Y22225789D01*
X69929255Y22285368D01*
X69929251Y22285369D01*
X69929245Y22285370D01*
X69750004Y22305565D01*
X69749996Y22305565D01*
X69570754Y22285370D01*
X69570746Y22285369D01*
X69570745Y22285368D01*
X69400478Y22225789D01*
X69400476Y22225789D01*
X69400476Y22225788D01*
X69400470Y22225786D01*
X69247742Y22129820D01*
X69120181Y22002259D01*
X69084983Y21946242D01*
X69018237Y21875644D01*
X68929555Y21835962D01*
X68832438Y21833239D01*
X68741675Y21867886D01*
X68649522Y21925789D01*
X68479255Y21985368D01*
X68479251Y21985369D01*
X68479245Y21985370D01*
X68300004Y22005565D01*
X68299996Y22005565D01*
X68120754Y21985370D01*
X68120746Y21985369D01*
X68120745Y21985368D01*
X67950478Y21925789D01*
X67950476Y21925789D01*
X67950476Y21925788D01*
X67950470Y21925786D01*
X67797742Y21829820D01*
X67670180Y21702258D01*
X67574214Y21549530D01*
X67574211Y21549524D01*
X67574211Y21549522D01*
X67529959Y21423055D01*
X67514632Y21379254D01*
X67514630Y21379248D01*
X67510782Y21345093D01*
X67481277Y21252527D01*
X67418595Y21178297D01*
X67400000Y21168691D01*
X67400000Y20149500D01*
X67381046Y20054212D01*
X67327070Y19973430D01*
X67246288Y19919454D01*
X67151000Y19900500D01*
X56685925Y19900500D01*
X56560262Y19875504D01*
X56560258Y19875502D01*
X56547415Y19870182D01*
X56441872Y19826466D01*
X56335329Y19755276D01*
X51353484Y14773430D01*
X51272702Y14719454D01*
X51177414Y14700500D01*
X47756746Y14700500D01*
X47661458Y14719454D01*
X47580676Y14773430D01*
X47526700Y14854212D01*
X47507746Y14949500D01*
X47521719Y15031738D01*
X47539986Y15083943D01*
X47543391Y15082752D01*
X47572233Y15147286D01*
X47599298Y15179354D01*
X53046516Y20626570D01*
X53127298Y20680546D01*
X53222586Y20699500D01*
X62864070Y20699500D01*
X62864070Y20699501D01*
X62989744Y20724499D01*
X63108127Y20773535D01*
X63131696Y20789283D01*
X63214669Y20844723D01*
X65321516Y22951570D01*
X65402298Y23005546D01*
X65497586Y23024500D01*
X67989070Y23024500D01*
X67989070Y23024501D01*
X68114744Y23049499D01*
X68233127Y23098535D01*
X68250962Y23110452D01*
X68339669Y23169723D01*
X69320640Y24150696D01*
X69401422Y24204672D01*
X69416270Y24209401D01*
X69416056Y24210014D01*
X69429252Y24214632D01*
X69429255Y24214632D01*
X69599522Y24274211D01*
X69599527Y24274215D01*
X69599529Y24274215D01*
X69743426Y24364632D01*
X69752262Y24370184D01*
X69879816Y24497738D01*
X69917970Y24558460D01*
X69975785Y24650471D01*
X69975785Y24650473D01*
X69975789Y24650478D01*
X70035368Y24820745D01*
X70044245Y24899530D01*
X70055565Y24999997D01*
X70055565Y25000004D01*
X70035369Y25179246D01*
X70035368Y25179255D01*
X70001864Y25275004D01*
X71769435Y25275004D01*
X71769435Y25274997D01*
X71789630Y25095755D01*
X71789631Y25095749D01*
X71789632Y25095745D01*
X71849211Y24925478D01*
X71849212Y24925477D01*
X71849214Y24925471D01*
X71945180Y24772743D01*
X71945182Y24772741D01*
X71945184Y24772738D01*
X72072738Y24645184D01*
X72072740Y24645183D01*
X72072742Y24645181D01*
X72225470Y24549215D01*
X72225474Y24549214D01*
X72225478Y24549211D01*
X72302675Y24522199D01*
X72386354Y24472839D01*
X72444776Y24395211D01*
X72469043Y24301136D01*
X72469435Y24287173D01*
X72469435Y24274997D01*
X72489630Y24095755D01*
X72489631Y24095749D01*
X72489632Y24095745D01*
X72549211Y23925478D01*
X72549212Y23925477D01*
X72549214Y23925471D01*
X72645180Y23772743D01*
X72645182Y23772741D01*
X72645184Y23772738D01*
X72772738Y23645184D01*
X72772740Y23645183D01*
X72772742Y23645181D01*
X72925470Y23549215D01*
X72925473Y23549214D01*
X72925478Y23549211D01*
X73095745Y23489632D01*
X73095754Y23489631D01*
X73274996Y23469435D01*
X73275000Y23469435D01*
X73275004Y23469435D01*
X73414908Y23485199D01*
X73454255Y23489632D01*
X73624522Y23549211D01*
X73624527Y23549215D01*
X73624529Y23549215D01*
X73751897Y23629246D01*
X73777262Y23645184D01*
X73904816Y23772738D01*
X73985080Y23900477D01*
X74000785Y23925471D01*
X74000785Y23925473D01*
X74000789Y23925478D01*
X74025660Y23996557D01*
X74075022Y24080235D01*
X74152650Y24138656D01*
X74178437Y24149338D01*
X74249522Y24174211D01*
X74249527Y24174215D01*
X74249529Y24174215D01*
X74391701Y24263548D01*
X74402262Y24270184D01*
X74529816Y24397738D01*
X74592650Y24497738D01*
X74625785Y24550471D01*
X74625785Y24550473D01*
X74625789Y24550478D01*
X74685368Y24720745D01*
X74696635Y24820745D01*
X74705565Y24899997D01*
X74705565Y24900004D01*
X74685369Y25079246D01*
X74685368Y25079255D01*
X74625789Y25249522D01*
X74625786Y25249527D01*
X74625785Y25249530D01*
X74529819Y25402258D01*
X74529817Y25402260D01*
X74529816Y25402262D01*
X74402262Y25529816D01*
X74402259Y25529818D01*
X74402257Y25529820D01*
X74249529Y25625786D01*
X74249524Y25625788D01*
X74249522Y25625789D01*
X74079255Y25685368D01*
X74079251Y25685369D01*
X74079245Y25685370D01*
X73900004Y25705565D01*
X73899996Y25705565D01*
X73720754Y25685370D01*
X73720746Y25685369D01*
X73720745Y25685368D01*
X73550478Y25625789D01*
X73550475Y25625788D01*
X73537280Y25621170D01*
X73536304Y25623959D01*
X73464534Y25605462D01*
X73368336Y25619064D01*
X73284666Y25668444D01*
X73239794Y25721594D01*
X73204816Y25777262D01*
X73077262Y25904816D01*
X73077259Y25904818D01*
X73077257Y25904820D01*
X72924529Y26000786D01*
X72924524Y26000788D01*
X72924522Y26000789D01*
X72754255Y26060368D01*
X72754251Y26060369D01*
X72754245Y26060370D01*
X72575004Y26080565D01*
X72574996Y26080565D01*
X72395754Y26060370D01*
X72395746Y26060369D01*
X72395745Y26060368D01*
X72225478Y26000789D01*
X72225476Y26000789D01*
X72225476Y26000788D01*
X72225470Y26000786D01*
X72072742Y25904820D01*
X71945180Y25777258D01*
X71849214Y25624530D01*
X71849211Y25624524D01*
X71849211Y25624522D01*
X71797167Y25475787D01*
X71789632Y25454254D01*
X71789630Y25454246D01*
X71769435Y25275004D01*
X70001864Y25275004D01*
X69975789Y25349522D01*
X69975786Y25349527D01*
X69975785Y25349530D01*
X69879819Y25502258D01*
X69879817Y25502260D01*
X69879816Y25502262D01*
X69752262Y25629816D01*
X69752259Y25629818D01*
X69616523Y25715107D01*
X69545925Y25781852D01*
X69506243Y25870534D01*
X69500000Y25925941D01*
X69500000Y28427363D01*
X69513973Y28509602D01*
X69516542Y28516943D01*
X69535368Y28570745D01*
X69554994Y28744930D01*
X69555565Y28749997D01*
X69555565Y28750004D01*
X72944435Y28750004D01*
X72944435Y28749997D01*
X72964630Y28570755D01*
X72964631Y28570749D01*
X72964632Y28570745D01*
X73024211Y28400478D01*
X73024212Y28400477D01*
X73024214Y28400471D01*
X73120180Y28247743D01*
X73120182Y28247741D01*
X73120184Y28247738D01*
X73247738Y28120184D01*
X73247740Y28120183D01*
X73247742Y28120181D01*
X73400470Y28024215D01*
X73400473Y28024214D01*
X73400478Y28024211D01*
X73570745Y27964632D01*
X73570754Y27964631D01*
X73749996Y27944435D01*
X73750000Y27944435D01*
X73750004Y27944435D01*
X73889908Y27960199D01*
X73929255Y27964632D01*
X74099522Y28024211D01*
X74234606Y28109090D01*
X74242524Y28114065D01*
X74333291Y28148713D01*
X74430407Y28145988D01*
X74507476Y28114065D01*
X74650471Y28024215D01*
X74650472Y28024215D01*
X74650478Y28024211D01*
X74820745Y27964632D01*
X74820754Y27964631D01*
X74999996Y27944435D01*
X75000000Y27944435D01*
X75000004Y27944435D01*
X75139908Y27960199D01*
X75179255Y27964632D01*
X75280342Y28000004D01*
X79394435Y28000004D01*
X79394435Y27999997D01*
X79414630Y27820755D01*
X79414631Y27820749D01*
X79414632Y27820745D01*
X79474211Y27650478D01*
X79474212Y27650477D01*
X79474214Y27650471D01*
X79570180Y27497743D01*
X79570182Y27497741D01*
X79570184Y27497738D01*
X79697738Y27370184D01*
X79697740Y27370183D01*
X79697742Y27370181D01*
X79850470Y27274215D01*
X79850473Y27274214D01*
X79850478Y27274211D01*
X80020745Y27214632D01*
X80020754Y27214631D01*
X80199996Y27194435D01*
X80200000Y27194435D01*
X80200004Y27194435D01*
X80339908Y27210199D01*
X80379255Y27214632D01*
X80549522Y27274211D01*
X80549527Y27274215D01*
X80549529Y27274215D01*
X80662184Y27345002D01*
X80702262Y27370184D01*
X80829816Y27497738D01*
X80893771Y27599522D01*
X80925785Y27650471D01*
X80925785Y27650473D01*
X80925789Y27650478D01*
X80985368Y27820745D01*
X80996124Y27916208D01*
X81005565Y27999997D01*
X81005565Y28000004D01*
X80985369Y28179246D01*
X80985368Y28179255D01*
X80925789Y28349522D01*
X80925786Y28349527D01*
X80925785Y28349530D01*
X80829819Y28502258D01*
X80829817Y28502260D01*
X80829816Y28502262D01*
X80702262Y28629816D01*
X80702259Y28629818D01*
X80702257Y28629820D01*
X80549529Y28725786D01*
X80549524Y28725788D01*
X80549522Y28725789D01*
X80379255Y28785368D01*
X80379251Y28785369D01*
X80379245Y28785370D01*
X80200004Y28805565D01*
X80199996Y28805565D01*
X80020754Y28785370D01*
X80020746Y28785369D01*
X80020745Y28785368D01*
X79850478Y28725789D01*
X79850476Y28725789D01*
X79850476Y28725788D01*
X79850470Y28725786D01*
X79697742Y28629820D01*
X79570180Y28502258D01*
X79474214Y28349530D01*
X79474211Y28349524D01*
X79474211Y28349522D01*
X79424329Y28206966D01*
X79414632Y28179254D01*
X79414630Y28179246D01*
X79394435Y28000004D01*
X75280342Y28000004D01*
X75349522Y28024211D01*
X75349527Y28024215D01*
X75349529Y28024215D01*
X75498259Y28117669D01*
X75502262Y28120184D01*
X75629816Y28247738D01*
X75693771Y28349522D01*
X75725785Y28400471D01*
X75725785Y28400473D01*
X75725789Y28400478D01*
X75785368Y28570745D01*
X75804994Y28744930D01*
X75805565Y28749997D01*
X75805565Y28750004D01*
X75785369Y28929246D01*
X75785368Y28929255D01*
X75725789Y29099522D01*
X75725786Y29099527D01*
X75725785Y29099530D01*
X75629819Y29252258D01*
X75629817Y29252260D01*
X75629816Y29252262D01*
X75502262Y29379816D01*
X75502259Y29379818D01*
X75502257Y29379820D01*
X75349529Y29475786D01*
X75349524Y29475788D01*
X75349522Y29475789D01*
X75179255Y29535368D01*
X75179251Y29535369D01*
X75179245Y29535370D01*
X75000004Y29555565D01*
X74999996Y29555565D01*
X74820754Y29535370D01*
X74820746Y29535369D01*
X74820745Y29535368D01*
X74650478Y29475789D01*
X74650476Y29475789D01*
X74650476Y29475788D01*
X74650473Y29475787D01*
X74507475Y29385935D01*
X74416708Y29351288D01*
X74319592Y29354013D01*
X74242525Y29385935D01*
X74099526Y29475787D01*
X74099524Y29475788D01*
X74099522Y29475789D01*
X73929255Y29535368D01*
X73929251Y29535369D01*
X73929245Y29535370D01*
X73750004Y29555565D01*
X73749996Y29555565D01*
X73570754Y29535370D01*
X73570746Y29535369D01*
X73570745Y29535368D01*
X73400478Y29475789D01*
X73400476Y29475789D01*
X73400476Y29475788D01*
X73400470Y29475786D01*
X73247742Y29379820D01*
X73120180Y29252258D01*
X73024214Y29099530D01*
X73024211Y29099524D01*
X73024211Y29099522D01*
X72982551Y28980463D01*
X72964632Y28929254D01*
X72964630Y28929246D01*
X72944435Y28750004D01*
X69555565Y28750004D01*
X69535369Y28929246D01*
X69535368Y28929255D01*
X69475789Y29099522D01*
X69475786Y29099527D01*
X69475785Y29099530D01*
X69379819Y29252258D01*
X69379817Y29252260D01*
X69379816Y29252262D01*
X69252262Y29379816D01*
X69252259Y29379818D01*
X69252257Y29379820D01*
X69099529Y29475786D01*
X69099524Y29475788D01*
X69099522Y29475789D01*
X68929255Y29535368D01*
X68929251Y29535369D01*
X68929245Y29535370D01*
X68750004Y29555565D01*
X68749996Y29555565D01*
X68570754Y29535370D01*
X68570746Y29535369D01*
X68570745Y29535368D01*
X68400478Y29475789D01*
X68400476Y29475789D01*
X68400476Y29475788D01*
X68400470Y29475786D01*
X68247742Y29379820D01*
X68120180Y29252258D01*
X68024214Y29099530D01*
X68024211Y29099524D01*
X68024211Y29099522D01*
X67982551Y28980463D01*
X67964632Y28929254D01*
X67964630Y28929246D01*
X67944435Y28750004D01*
X67944435Y28749997D01*
X67964630Y28570755D01*
X67964631Y28570749D01*
X67964632Y28570745D01*
X68024211Y28400478D01*
X68086335Y28301609D01*
X68120982Y28210844D01*
X68124500Y28169134D01*
X68124500Y26862230D01*
X68105546Y26766942D01*
X68051570Y26686160D01*
X67813840Y26448430D01*
X67733058Y26394454D01*
X67637770Y26375500D01*
X63596455Y26375500D01*
X63501167Y26394454D01*
X63420385Y26448430D01*
X63366409Y26529212D01*
X63347455Y26624500D01*
X63366409Y26719788D01*
X63385621Y26756976D01*
X63475785Y26900472D01*
X63475789Y26900478D01*
X63535368Y27070745D01*
X63549292Y27194321D01*
X63555565Y27249997D01*
X63555565Y27250004D01*
X63535369Y27429246D01*
X63535368Y27429255D01*
X63475789Y27599522D01*
X63475786Y27599527D01*
X63475785Y27599530D01*
X63379819Y27752258D01*
X63379817Y27752260D01*
X63379816Y27752262D01*
X63252262Y27879816D01*
X63252259Y27879818D01*
X63252257Y27879820D01*
X63099529Y27975786D01*
X63099524Y27975788D01*
X63099522Y27975789D01*
X62929255Y28035368D01*
X62929251Y28035369D01*
X62929245Y28035370D01*
X62750004Y28055565D01*
X62749996Y28055565D01*
X62570754Y28035370D01*
X62570746Y28035369D01*
X62570745Y28035368D01*
X62400478Y27975789D01*
X62400476Y27975789D01*
X62400476Y27975788D01*
X62400470Y27975786D01*
X62247742Y27879820D01*
X62120180Y27752258D01*
X62024214Y27599530D01*
X62024211Y27599524D01*
X62024211Y27599522D01*
X61971639Y27449278D01*
X61964632Y27429254D01*
X61964630Y27429246D01*
X61944435Y27250004D01*
X61944435Y27249997D01*
X61964630Y27070755D01*
X61964632Y27070744D01*
X61986027Y27009602D01*
X62000000Y26927363D01*
X62000000Y26072638D01*
X61986027Y25990400D01*
X61964633Y25929261D01*
X61964630Y25929246D01*
X61944435Y25750004D01*
X61944435Y25749997D01*
X61964630Y25570755D01*
X61964632Y25570744D01*
X61986027Y25509602D01*
X62000000Y25427363D01*
X62000000Y22899500D01*
X61981046Y22804212D01*
X61927070Y22723430D01*
X61846288Y22669454D01*
X61751000Y22650500D01*
X58244063Y22650500D01*
X58148775Y22669454D01*
X58067993Y22723430D01*
X58014017Y22804212D01*
X57995063Y22899500D01*
X58014017Y22994788D01*
X58067993Y23075570D01*
X58111586Y23110334D01*
X58115899Y23113044D01*
X58127262Y23120184D01*
X58254816Y23247738D01*
X58317214Y23347044D01*
X58350785Y23400471D01*
X58350785Y23400473D01*
X58350789Y23400478D01*
X58410368Y23570745D01*
X58420657Y23662061D01*
X58430565Y23749997D01*
X58430565Y23750003D01*
X58410794Y23925477D01*
X58410368Y23929255D01*
X58410367Y23929257D01*
X58407257Y23942887D01*
X58410054Y23943526D01*
X58400500Y23999763D01*
X58400500Y28885993D01*
X58419454Y28981281D01*
X58473430Y29062063D01*
X58887937Y29476570D01*
X58968719Y29530546D01*
X59064007Y29549500D01*
X60278791Y29549500D01*
X60361029Y29535527D01*
X60401728Y29521287D01*
X60420745Y29514632D01*
X60420754Y29514631D01*
X60599996Y29494435D01*
X60600000Y29494435D01*
X60600004Y29494435D01*
X60739908Y29510199D01*
X60779255Y29514632D01*
X60949522Y29574211D01*
X60949527Y29574215D01*
X60949529Y29574215D01*
X61102257Y29670181D01*
X61102256Y29670181D01*
X61102262Y29670184D01*
X61229816Y29797738D01*
X61325789Y29950478D01*
X61385368Y30120745D01*
X61396856Y30222703D01*
X61405565Y30299997D01*
X61405565Y30300004D01*
X61385369Y30479246D01*
X61385368Y30479255D01*
X61325789Y30649522D01*
X61325786Y30649527D01*
X61325785Y30649530D01*
X61229819Y30802258D01*
X61229817Y30802260D01*
X61229816Y30802262D01*
X61102262Y30929816D01*
X61102259Y30929818D01*
X61102257Y30929820D01*
X60949529Y31025786D01*
X60949524Y31025788D01*
X60949522Y31025789D01*
X60779255Y31085368D01*
X60779251Y31085369D01*
X60779245Y31085370D01*
X60600004Y31105565D01*
X60599996Y31105565D01*
X60420754Y31085370D01*
X60420740Y31085367D01*
X60361029Y31064473D01*
X60278791Y31050500D01*
X58576080Y31050500D01*
X58554322Y31046172D01*
X58554321Y31046173D01*
X58431092Y31021661D01*
X58431087Y31021659D01*
X58351081Y30988521D01*
X58351082Y30988520D01*
X58294507Y30965086D01*
X58216101Y30912696D01*
X58216098Y30912694D01*
X58171588Y30882955D01*
X57067046Y29778414D01*
X57026046Y29717051D01*
X57026045Y29717049D01*
X56984917Y29655497D01*
X56984915Y29655493D01*
X56928341Y29518912D01*
X56899500Y29373921D01*
X56899500Y24189008D01*
X56880546Y24093720D01*
X56826570Y24012938D01*
X56637062Y23823430D01*
X56556280Y23769454D01*
X56460992Y23750500D01*
X51826082Y23750500D01*
X51812197Y23747738D01*
X51812196Y23747739D01*
X51681089Y23721660D01*
X51681084Y23721659D01*
X51601081Y23688521D01*
X51601082Y23688520D01*
X51544506Y23665085D01*
X51544504Y23665084D01*
X51524045Y23651414D01*
X51513602Y23644435D01*
X51421586Y23582954D01*
X46887062Y19048430D01*
X46806280Y18994454D01*
X46710992Y18975500D01*
X42401079Y18975500D01*
X42256088Y18946659D01*
X42256085Y18946658D01*
X42119509Y18890087D01*
X42119502Y18890084D01*
X42079524Y18863370D01*
X42079523Y18863370D01*
X41996587Y18807955D01*
X41996582Y18807951D01*
X39457283Y16268654D01*
X39410793Y16235652D01*
X39412317Y16233227D01*
X39400481Y16225791D01*
X39400478Y16225789D01*
X39294220Y16159024D01*
X39247739Y16129817D01*
X39120180Y16002258D01*
X39024214Y15849530D01*
X39024211Y15849524D01*
X39024211Y15849522D01*
X38967847Y15688441D01*
X38964632Y15679254D01*
X38964630Y15679246D01*
X38944435Y15500004D01*
X38944435Y15499997D01*
X38964630Y15320755D01*
X38964631Y15320749D01*
X38964632Y15320745D01*
X39024211Y15150478D01*
X39066018Y15083943D01*
X39067254Y15081976D01*
X39101901Y14991209D01*
X39099176Y14894092D01*
X39059493Y14805410D01*
X38988895Y14738665D01*
X38898128Y14704018D01*
X38856419Y14700500D01*
X37600404Y14700500D01*
X37505116Y14719454D01*
X37424334Y14773430D01*
X30223430Y21974334D01*
X30169454Y22055116D01*
X30150500Y22150404D01*
X30150500Y25814070D01*
X30150499Y25814072D01*
X30150391Y25814613D01*
X30125501Y25939744D01*
X30076465Y26058127D01*
X30074966Y26060370D01*
X30064212Y26076466D01*
X30064211Y26076467D01*
X30005280Y26164665D01*
X30005279Y26164666D01*
X30005277Y26164669D01*
X27414669Y28755277D01*
X27308127Y28826466D01*
X27209753Y28867213D01*
X27189744Y28875501D01*
X27189742Y28875502D01*
X27189741Y28875502D01*
X27064071Y28900500D01*
X27064069Y28900500D01*
X22685931Y28900500D01*
X22678806Y28900500D01*
X22668622Y28900000D01*
X20806069Y28900000D01*
X20710781Y28918954D01*
X20629999Y28972930D01*
X20576023Y29053712D01*
X20557837Y29129459D01*
X20550766Y29219312D01*
X20550000Y29238826D01*
X20550000Y31761176D01*
X20550768Y31780712D01*
X20568026Y31999995D01*
X20568026Y32000006D01*
X20550768Y32219290D01*
X20550000Y32238826D01*
X20550000Y34761176D01*
X20550768Y34780712D01*
X20568026Y34999995D01*
X20568026Y35000006D01*
X20550768Y35219290D01*
X20550000Y35238826D01*
X20550000Y37761176D01*
X20550768Y37780712D01*
X20568026Y37999995D01*
X20568026Y38000006D01*
X20550768Y38219290D01*
X20550000Y38238826D01*
X20550000Y40761176D01*
X20550768Y40780712D01*
X20568026Y41000000D01*
X20568026Y41000006D01*
X20550768Y41219290D01*
X20550000Y41238826D01*
X20550000Y43761176D01*
X20550768Y43780712D01*
X20568026Y43999995D01*
X20568026Y44000006D01*
X20548351Y44250000D01*
X20547952Y44255070D01*
X20488222Y44503860D01*
X20390309Y44740243D01*
X20283168Y44915082D01*
X20256625Y44958397D01*
X20256621Y44958402D01*
X20090464Y45152947D01*
X20090461Y45152950D01*
X20090456Y45152956D01*
X20090449Y45152962D01*
X20090446Y45152965D01*
X19895901Y45319122D01*
X19895896Y45319126D01*
X19768649Y45397102D01*
X19677743Y45452809D01*
X19563807Y45500003D01*
X19441366Y45550720D01*
X19441361Y45550722D01*
X19305759Y45583278D01*
X19192570Y45610452D01*
X19192568Y45610453D01*
X19192565Y45610453D01*
X18937506Y45630526D01*
X18937494Y45630526D01*
X18682434Y45610453D01*
X18433638Y45550722D01*
X18433633Y45550720D01*
X18197259Y45452810D01*
X17979103Y45319126D01*
X17979098Y45319122D01*
X17784553Y45152965D01*
X17784535Y45152947D01*
X17618378Y44958402D01*
X17618374Y44958397D01*
X17536802Y44825281D01*
X17490977Y44750500D01*
X17484690Y44740241D01*
X17386780Y44503867D01*
X17386778Y44503862D01*
X17327047Y44255068D01*
X17326144Y44243591D01*
X17299769Y44150085D01*
X17239618Y44073790D01*
X17154849Y44026320D01*
X17058367Y44014904D01*
X16982624Y44033090D01*
X16941211Y44050244D01*
X16941203Y44050247D01*
X16692489Y44109958D01*
X16437506Y44130025D01*
X16437494Y44130025D01*
X16182510Y44109958D01*
X15933796Y44050247D01*
X15933788Y44050244D01*
X15697489Y43952366D01*
X15479391Y43818716D01*
X15475587Y43815468D01*
X16113475Y43177579D01*
X16082242Y43164641D01*
X15959403Y43082563D01*
X15854937Y42978097D01*
X15772859Y42855258D01*
X15759921Y42824025D01*
X15122032Y43461913D01*
X15119393Y43461809D01*
X15050914Y43407802D01*
X14957412Y43381411D01*
X14860928Y43392812D01*
X14776151Y43440267D01*
X14748484Y43467928D01*
X14745216Y43471754D01*
X14590456Y43652956D01*
X14559658Y43679260D01*
X14525286Y43708617D01*
X14465139Y43784915D01*
X14438767Y43878422D01*
X14438000Y43897957D01*
X14438000Y46161040D01*
X14429413Y46204212D01*
X14399551Y46354335D01*
X14395371Y46364425D01*
X14395369Y46364434D01*
X14395368Y46364433D01*
X14362322Y46444213D01*
X14350020Y46473914D01*
X14324132Y46536414D01*
X14214639Y46700282D01*
X14196008Y46718913D01*
X14075282Y46839640D01*
X14075282Y46839639D01*
X14075281Y46839640D01*
X11512781Y49402139D01*
X9089990Y51824930D01*
X9036014Y51905712D01*
X9017060Y52001000D01*
X9036014Y52096288D01*
X9089990Y52177070D01*
X9170772Y52231046D01*
X9266060Y52250000D01*
X14324433Y52250000D01*
X14373009Y52245216D01*
X14385867Y52242659D01*
X14440228Y52249500D01*
X18932440Y52249500D01*
X19027728Y52230546D01*
X19108510Y52176570D01*
X23426570Y47858510D01*
X23480546Y47777728D01*
X23499500Y47682440D01*
X23499500Y46517561D01*
X23480546Y46422273D01*
X23426570Y46341491D01*
X22049718Y44964639D01*
X22049717Y44964640D01*
X21910362Y44825284D01*
X21910360Y44825281D01*
X21800869Y44661416D01*
X21800867Y44661412D01*
X21757024Y44555565D01*
X21745250Y44527139D01*
X21725449Y44479336D01*
X21717183Y44437782D01*
X21717183Y44437781D01*
X21687000Y44286046D01*
X21687000Y44286041D01*
X21687000Y34161040D01*
X21687000Y33963960D01*
X21710256Y33847044D01*
X21725449Y33770663D01*
X21734216Y33749499D01*
X21734215Y33749499D01*
X21734218Y33749495D01*
X21734218Y33749494D01*
X21800865Y33588592D01*
X21800866Y33588589D01*
X21800868Y33588586D01*
X21910361Y33424718D01*
X22049718Y33285361D01*
X22049721Y33285359D01*
X24222858Y31112222D01*
X24222861Y31112218D01*
X24362218Y30972861D01*
X24526086Y30863368D01*
X24651052Y30811606D01*
X24673610Y30802262D01*
X24708161Y30787950D01*
X24708162Y30787950D01*
X24708164Y30787949D01*
X24804812Y30768725D01*
X24901459Y30749500D01*
X24901460Y30749500D01*
X36348539Y30749500D01*
X36348540Y30749500D01*
X36348541Y30749500D01*
X36445188Y30768725D01*
X36541836Y30787949D01*
X36598948Y30811606D01*
X36723914Y30863368D01*
X36887782Y30972861D01*
X37027139Y31112218D01*
X37027140Y31112221D01*
X38310267Y32395349D01*
X38391046Y32449322D01*
X38486334Y32468276D01*
X38581622Y32449322D01*
X38662404Y32395346D01*
X38716380Y32314564D01*
X38721355Y32301532D01*
X38774211Y32150478D01*
X38774212Y32150477D01*
X38774214Y32150471D01*
X38870180Y31997743D01*
X38870182Y31997741D01*
X38870184Y31997738D01*
X38997738Y31870184D01*
X38997740Y31870183D01*
X38997742Y31870181D01*
X39150470Y31774215D01*
X39150473Y31774214D01*
X39150478Y31774211D01*
X39320745Y31714632D01*
X39324349Y31714226D01*
X39328953Y31712759D01*
X39334376Y31711521D01*
X39334271Y31711064D01*
X39416917Y31684726D01*
X39472549Y31642861D01*
X40551570Y30563840D01*
X40605546Y30483058D01*
X40624500Y30387770D01*
X40624500Y28311607D01*
X40624500Y28188393D01*
X40626319Y28179246D01*
X40632875Y28146291D01*
X40632875Y28146286D01*
X40632876Y28146286D01*
X40632876Y28146285D01*
X40648537Y28067548D01*
X40653501Y28055565D01*
X40695688Y27953714D01*
X40720752Y27916204D01*
X40754357Y27865910D01*
X40764142Y27851267D01*
X40851267Y27764142D01*
X40851269Y27764141D01*
X42667812Y25947598D01*
X42721788Y25866816D01*
X42740742Y25771528D01*
X42721788Y25676240D01*
X42667812Y25595458D01*
X42587030Y25541482D01*
X42573983Y25536501D01*
X42570745Y25535369D01*
X42570745Y25535368D01*
X42400478Y25475789D01*
X42400475Y25475788D01*
X42400474Y25475787D01*
X42400470Y25475786D01*
X42247742Y25379820D01*
X42120180Y25252258D01*
X42024214Y25099530D01*
X42024211Y25099524D01*
X42024211Y25099522D01*
X41972683Y24952262D01*
X41964632Y24929254D01*
X41964630Y24929246D01*
X41944435Y24750004D01*
X41944435Y24749997D01*
X41964630Y24570755D01*
X41964631Y24570749D01*
X41964632Y24570745D01*
X42024211Y24400478D01*
X42024212Y24400477D01*
X42024214Y24400471D01*
X42120180Y24247743D01*
X42120182Y24247741D01*
X42120184Y24247738D01*
X42247738Y24120184D01*
X42247740Y24120183D01*
X42247742Y24120181D01*
X42400470Y24024215D01*
X42400473Y24024214D01*
X42400478Y24024211D01*
X42570745Y23964632D01*
X42570754Y23964631D01*
X42749996Y23944435D01*
X42750000Y23944435D01*
X42750004Y23944435D01*
X42889908Y23960199D01*
X42929255Y23964632D01*
X43099522Y24024211D01*
X43099527Y24024215D01*
X43099529Y24024215D01*
X43198391Y24086334D01*
X43289158Y24120982D01*
X43330867Y24124500D01*
X51061606Y24124500D01*
X51061607Y24124500D01*
X51125978Y24137304D01*
X51182452Y24148537D01*
X51222400Y24165084D01*
X51222401Y24165085D01*
X51222403Y24165085D01*
X51278978Y24188519D01*
X51296286Y24195688D01*
X51347509Y24229916D01*
X51398733Y24264142D01*
X51485858Y24351267D01*
X51485860Y24351271D01*
X54273729Y27139140D01*
X54273733Y27139142D01*
X54360858Y27226267D01*
X54395084Y27277491D01*
X54429312Y27328714D01*
X54476463Y27442549D01*
X54477802Y27449278D01*
X54487891Y27500000D01*
X54497276Y27547185D01*
X54497277Y27547191D01*
X54500500Y27563393D01*
X54500500Y30912770D01*
X54519454Y31008058D01*
X54573430Y31088840D01*
X56036160Y32551570D01*
X56116942Y32605546D01*
X56212230Y32624500D01*
X59919133Y32624500D01*
X60014421Y32605546D01*
X60051609Y32586334D01*
X60150470Y32524215D01*
X60150473Y32524214D01*
X60150478Y32524211D01*
X60320745Y32464632D01*
X60320754Y32464631D01*
X60499996Y32444435D01*
X60500000Y32444435D01*
X60500004Y32444435D01*
X60639908Y32460199D01*
X60679255Y32464632D01*
X60849522Y32524211D01*
X60849527Y32524215D01*
X60849529Y32524215D01*
X61002257Y32620181D01*
X61002256Y32620181D01*
X61002262Y32620184D01*
X61129816Y32747738D01*
X61172730Y32816035D01*
X61225785Y32900471D01*
X61225785Y32900473D01*
X61225789Y32900478D01*
X61285368Y33070745D01*
X61294725Y33153793D01*
X61305565Y33249997D01*
X61305565Y33250004D01*
X61285369Y33429246D01*
X61285368Y33429255D01*
X61225789Y33599522D01*
X61225786Y33599527D01*
X61225785Y33599530D01*
X61129819Y33752258D01*
X61129817Y33752260D01*
X61129816Y33752262D01*
X61058144Y33823934D01*
X61004171Y33904712D01*
X60985217Y34000000D01*
X61004171Y34095288D01*
X61058144Y34176067D01*
X61129816Y34247738D01*
X61165797Y34305001D01*
X61225785Y34400471D01*
X61225785Y34400473D01*
X61225789Y34400478D01*
X61285368Y34570745D01*
X61291226Y34622738D01*
X61305565Y34749997D01*
X61305565Y34750004D01*
X61285369Y34929246D01*
X61285368Y34929255D01*
X61225789Y35099522D01*
X61225786Y35099527D01*
X61225785Y35099530D01*
X61129819Y35252258D01*
X61129817Y35252260D01*
X61129816Y35252262D01*
X61002262Y35379816D01*
X61002259Y35379818D01*
X61002257Y35379820D01*
X60849529Y35475786D01*
X60849524Y35475788D01*
X60849522Y35475789D01*
X60707706Y35525413D01*
X60624028Y35574773D01*
X60567415Y35650000D01*
X60550000Y35650000D01*
X59124767Y35650000D01*
X59029479Y35668954D01*
X58948697Y35722930D01*
X58894721Y35803712D01*
X58889740Y35816760D01*
X58882180Y35838365D01*
X58825789Y35999522D01*
X58805702Y36031490D01*
X58788165Y36059401D01*
X58753518Y36150168D01*
X58750000Y36191876D01*
X58750000Y36977363D01*
X58763973Y37059602D01*
X58771843Y37082094D01*
X58785368Y37120745D01*
X58791955Y37179211D01*
X58805565Y37299997D01*
X58805565Y37300004D01*
X58785369Y37479246D01*
X58785368Y37479255D01*
X58785366Y37479261D01*
X58763973Y37540400D01*
X58750000Y37622638D01*
X58750000Y39134130D01*
X58695107Y39177633D01*
X58647852Y39262521D01*
X58637426Y39310986D01*
X58636509Y39319123D01*
X58635368Y39329255D01*
X58575789Y39499522D01*
X58575786Y39499527D01*
X58575785Y39499530D01*
X58479819Y39652258D01*
X58479817Y39652260D01*
X58479816Y39652262D01*
X58352262Y39779816D01*
X58352259Y39779818D01*
X58352257Y39779820D01*
X58199529Y39875786D01*
X58199524Y39875788D01*
X58199522Y39875789D01*
X58029255Y39935368D01*
X58029251Y39935369D01*
X58029246Y39935370D01*
X57959635Y39943213D01*
X57867069Y39972717D01*
X57792839Y40035398D01*
X57785295Y40050000D01*
X57750000Y40050000D01*
X56800620Y40050000D01*
X56705332Y40068954D01*
X56624550Y40122930D01*
X56570574Y40203712D01*
X56553186Y40271121D01*
X56535369Y40429246D01*
X56535368Y40429255D01*
X56475789Y40599522D01*
X56475786Y40599527D01*
X56475785Y40599530D01*
X56381235Y40750004D01*
X73194435Y40750004D01*
X73194435Y40749997D01*
X73214630Y40570755D01*
X73214631Y40570749D01*
X73214632Y40570745D01*
X73274211Y40400478D01*
X73274212Y40400477D01*
X73274214Y40400471D01*
X73370180Y40247743D01*
X73370182Y40247741D01*
X73370184Y40247738D01*
X73497738Y40120184D01*
X73497740Y40120183D01*
X73497742Y40120181D01*
X73650470Y40024215D01*
X73650473Y40024214D01*
X73650478Y40024211D01*
X73820745Y39964632D01*
X73820754Y39964631D01*
X73999996Y39944435D01*
X74000000Y39944435D01*
X74000004Y39944435D01*
X74139908Y39960199D01*
X74179255Y39964632D01*
X74349522Y40024211D01*
X74408604Y40061336D01*
X74499369Y40095982D01*
X74541079Y40099500D01*
X77212770Y40099500D01*
X77308058Y40080546D01*
X77388840Y40026570D01*
X78451570Y38963840D01*
X78505546Y38883058D01*
X78524500Y38787770D01*
X78524500Y34938394D01*
X78540281Y34859056D01*
X78548537Y34817548D01*
X78554406Y34803381D01*
X78554408Y34803368D01*
X78554411Y34803368D01*
X78580883Y34739456D01*
X78595688Y34703714D01*
X78607570Y34685933D01*
X78607572Y34685928D01*
X78664138Y34601272D01*
X78664139Y34601271D01*
X78664142Y34601267D01*
X78751267Y34514142D01*
X78751270Y34514140D01*
X81014139Y32251271D01*
X81014142Y32251267D01*
X81076068Y32189341D01*
X81101267Y32164142D01*
X81142436Y32136634D01*
X81142438Y32136632D01*
X81142439Y32136632D01*
X81203715Y32095688D01*
X81248965Y32076945D01*
X81270397Y32068068D01*
X81317548Y32048537D01*
X81377971Y32036519D01*
X81406505Y32030843D01*
X81438392Y32024500D01*
X81438393Y32024500D01*
X81438394Y32024500D01*
X83684156Y32024500D01*
X83779444Y32005546D01*
X83860226Y31951570D01*
X83914202Y31870788D01*
X83919178Y31857752D01*
X83974211Y31700478D01*
X83974212Y31700477D01*
X83974214Y31700471D01*
X84070180Y31547743D01*
X84070182Y31547741D01*
X84070184Y31547738D01*
X84197738Y31420184D01*
X84197740Y31420183D01*
X84197742Y31420181D01*
X84350470Y31324215D01*
X84350473Y31324214D01*
X84350478Y31324211D01*
X84520745Y31264632D01*
X84520754Y31264631D01*
X84699996Y31244435D01*
X84700000Y31244435D01*
X84700004Y31244435D01*
X84839908Y31260199D01*
X84879255Y31264632D01*
X85049522Y31324211D01*
X85049527Y31324215D01*
X85049529Y31324215D01*
X85162184Y31395002D01*
X85202262Y31420184D01*
X85329816Y31547738D01*
X85408067Y31672273D01*
X85425785Y31700471D01*
X85425785Y31700473D01*
X85425789Y31700478D01*
X85485368Y31870745D01*
X85499931Y31999995D01*
X85505565Y32049997D01*
X85505565Y32050004D01*
X85485369Y32229246D01*
X85485368Y32229255D01*
X85425789Y32399522D01*
X85425786Y32399527D01*
X85425785Y32399530D01*
X85329819Y32552258D01*
X85329817Y32552260D01*
X85329816Y32552262D01*
X85202262Y32679816D01*
X85202259Y32679818D01*
X85202257Y32679820D01*
X85049529Y32775786D01*
X85049524Y32775788D01*
X85049522Y32775789D01*
X84879255Y32835368D01*
X84879251Y32835369D01*
X84879247Y32835370D01*
X84875639Y32835776D01*
X84871028Y32837246D01*
X84865616Y32838481D01*
X84865720Y32838938D01*
X84783073Y32865280D01*
X84727450Y32907140D01*
X84585860Y33048730D01*
X84585858Y33048733D01*
X84498733Y33135858D01*
X84471891Y33153793D01*
X84438854Y33175868D01*
X84438851Y33175870D01*
X84396288Y33204311D01*
X84396286Y33204312D01*
X84315792Y33237653D01*
X84315791Y33237654D01*
X84297554Y33245208D01*
X84282452Y33251463D01*
X84282449Y33251464D01*
X84282446Y33251465D01*
X84222032Y33263482D01*
X84161612Y33275500D01*
X84161607Y33275500D01*
X84161606Y33275500D01*
X81862230Y33275500D01*
X81766942Y33294454D01*
X81686160Y33348430D01*
X79848430Y35186160D01*
X79805771Y35250004D01*
X82694435Y35250004D01*
X82694435Y35249997D01*
X82714630Y35070755D01*
X82714631Y35070749D01*
X82714632Y35070745D01*
X82774211Y34900478D01*
X82774212Y34900477D01*
X82774214Y34900471D01*
X82870180Y34747743D01*
X82870182Y34747741D01*
X82870184Y34747738D01*
X82997738Y34620184D01*
X82997740Y34620183D01*
X82997742Y34620181D01*
X83150470Y34524215D01*
X83150473Y34524214D01*
X83150478Y34524211D01*
X83320745Y34464632D01*
X83320754Y34464631D01*
X83499996Y34444435D01*
X83500000Y34444435D01*
X83500004Y34444435D01*
X83639908Y34460199D01*
X83679255Y34464632D01*
X83849522Y34524211D01*
X83849527Y34524215D01*
X83849529Y34524215D01*
X84002257Y34620181D01*
X84002256Y34620181D01*
X84002262Y34620184D01*
X84129816Y34747738D01*
X84204887Y34867213D01*
X84225785Y34900471D01*
X84225785Y34900473D01*
X84225789Y34900478D01*
X84285368Y35070745D01*
X84295582Y35161401D01*
X84305565Y35249997D01*
X84305565Y35250004D01*
X84285369Y35429246D01*
X84285368Y35429255D01*
X84225789Y35599522D01*
X84225786Y35599527D01*
X84225785Y35599530D01*
X84129819Y35752258D01*
X84129817Y35752260D01*
X84129816Y35752262D01*
X84002262Y35879816D01*
X84002259Y35879818D01*
X84002257Y35879820D01*
X83849529Y35975786D01*
X83849524Y35975788D01*
X83849522Y35975789D01*
X83679255Y36035368D01*
X83679251Y36035369D01*
X83679245Y36035370D01*
X83500004Y36055565D01*
X83499996Y36055565D01*
X83320754Y36035370D01*
X83320746Y36035369D01*
X83320745Y36035368D01*
X83150478Y35975789D01*
X83150476Y35975789D01*
X83150476Y35975788D01*
X83150470Y35975786D01*
X82997742Y35879820D01*
X82870180Y35752258D01*
X82774214Y35599530D01*
X82774211Y35599524D01*
X82774211Y35599522D01*
X82718170Y35439364D01*
X82714632Y35429254D01*
X82714630Y35429246D01*
X82694435Y35250004D01*
X79805771Y35250004D01*
X79794454Y35266942D01*
X79775500Y35362230D01*
X79775500Y38400004D01*
X90794435Y38400004D01*
X90794435Y38399997D01*
X90814630Y38220755D01*
X90814631Y38220749D01*
X90814632Y38220745D01*
X90874211Y38050478D01*
X90874212Y38050477D01*
X90874214Y38050473D01*
X90901231Y38007475D01*
X90935878Y37916707D01*
X90933153Y37819591D01*
X90901231Y37742525D01*
X90874214Y37699528D01*
X90874212Y37699524D01*
X90874211Y37699522D01*
X90821100Y37547738D01*
X90814632Y37529254D01*
X90814630Y37529246D01*
X90794435Y37350004D01*
X90794435Y37349997D01*
X90814630Y37170755D01*
X90814631Y37170749D01*
X90814632Y37170745D01*
X90874211Y37000478D01*
X90874212Y37000477D01*
X90874214Y37000471D01*
X90970180Y36847743D01*
X90970182Y36847741D01*
X90970184Y36847738D01*
X91097738Y36720184D01*
X91097740Y36720183D01*
X91097742Y36720181D01*
X91250470Y36624215D01*
X91250473Y36624214D01*
X91250478Y36624211D01*
X91420745Y36564632D01*
X91420754Y36564631D01*
X91599996Y36544435D01*
X91600000Y36544435D01*
X91600004Y36544435D01*
X91739908Y36560199D01*
X91779255Y36564632D01*
X91949522Y36624211D01*
X91949527Y36624215D01*
X91949529Y36624215D01*
X92089584Y36712218D01*
X92102262Y36720184D01*
X92229816Y36847738D01*
X92271456Y36914007D01*
X92325785Y37000471D01*
X92325785Y37000473D01*
X92325789Y37000478D01*
X92385368Y37170745D01*
X92392649Y37235368D01*
X92405565Y37349997D01*
X92405565Y37350004D01*
X92385369Y37529246D01*
X92385368Y37529255D01*
X92325789Y37699522D01*
X92325785Y37699528D01*
X92325784Y37699531D01*
X92298770Y37742523D01*
X92264121Y37833289D01*
X92266846Y37930406D01*
X92298770Y38007477D01*
X92325784Y38050470D01*
X92325784Y38050471D01*
X92325789Y38050478D01*
X92385368Y38220745D01*
X92390875Y38269629D01*
X92405565Y38399997D01*
X92405565Y38400004D01*
X92385369Y38579246D01*
X92385368Y38579255D01*
X92325789Y38749522D01*
X92325786Y38749527D01*
X92325785Y38749530D01*
X92229819Y38902258D01*
X92229817Y38902260D01*
X92229816Y38902262D01*
X92102262Y39029816D01*
X92102259Y39029818D01*
X92102257Y39029820D01*
X91949529Y39125786D01*
X91949524Y39125788D01*
X91949522Y39125789D01*
X91779255Y39185368D01*
X91779251Y39185369D01*
X91779245Y39185370D01*
X91600004Y39205565D01*
X91599996Y39205565D01*
X91420754Y39185370D01*
X91420746Y39185369D01*
X91420745Y39185368D01*
X91250478Y39125789D01*
X91250476Y39125789D01*
X91250476Y39125788D01*
X91250470Y39125786D01*
X91097742Y39029820D01*
X90970180Y38902258D01*
X90874214Y38749530D01*
X90874211Y38749524D01*
X90874211Y38749522D01*
X90830815Y38625501D01*
X90814632Y38579254D01*
X90814630Y38579246D01*
X90794435Y38400004D01*
X79775500Y38400004D01*
X79775500Y39211609D01*
X79774732Y39215467D01*
X79774726Y39215496D01*
X79767414Y39252258D01*
X79751463Y39332451D01*
X79746067Y39345477D01*
X79735834Y39370181D01*
X79704313Y39446281D01*
X79704310Y39446288D01*
X79635859Y39548731D01*
X79635858Y39548733D01*
X79548733Y39635858D01*
X79548732Y39635859D01*
X78060859Y41123731D01*
X78060858Y41123733D01*
X77973733Y41210858D01*
X77911768Y41252262D01*
X77885327Y41269930D01*
X77871288Y41279311D01*
X77871286Y41279312D01*
X77783991Y41315470D01*
X77783990Y41315471D01*
X77783989Y41315471D01*
X77772611Y41320184D01*
X77757455Y41326462D01*
X77757453Y41326463D01*
X77757452Y41326463D01*
X77683784Y41341116D01*
X77683782Y41341117D01*
X77683781Y41341117D01*
X77636607Y41350500D01*
X77636606Y41350500D01*
X74620654Y41350500D01*
X74525366Y41369454D01*
X74488178Y41388666D01*
X74349528Y41475786D01*
X74349524Y41475788D01*
X74349522Y41475789D01*
X74179255Y41535368D01*
X74179251Y41535369D01*
X74179245Y41535370D01*
X74000004Y41555565D01*
X73999996Y41555565D01*
X73820754Y41535370D01*
X73820746Y41535369D01*
X73820745Y41535368D01*
X73650478Y41475789D01*
X73650476Y41475789D01*
X73650476Y41475788D01*
X73650470Y41475786D01*
X73497742Y41379820D01*
X73370180Y41252258D01*
X73274214Y41099530D01*
X73274211Y41099524D01*
X73274211Y41099522D01*
X73221639Y40949278D01*
X73214632Y40929254D01*
X73214630Y40929246D01*
X73194435Y40750004D01*
X56381235Y40750004D01*
X56379819Y40752258D01*
X56379817Y40752260D01*
X56379816Y40752262D01*
X56252262Y40879816D01*
X56252259Y40879818D01*
X56252257Y40879820D01*
X56099529Y40975786D01*
X56099524Y40975788D01*
X56099522Y40975789D01*
X55929255Y41035368D01*
X55929251Y41035369D01*
X55929246Y41035370D01*
X55907322Y41037840D01*
X55814755Y41067344D01*
X55740526Y41130026D01*
X55730207Y41150000D01*
X55700000Y41150000D01*
X54749500Y41150000D01*
X54654212Y41168954D01*
X54573430Y41222930D01*
X54519454Y41303712D01*
X54500500Y41399000D01*
X54500500Y41750004D01*
X84944435Y41750004D01*
X84944435Y41749997D01*
X84964630Y41570755D01*
X84964631Y41570749D01*
X84964632Y41570745D01*
X85024211Y41400478D01*
X85024212Y41400477D01*
X85024214Y41400471D01*
X85120180Y41247743D01*
X85120182Y41247741D01*
X85120184Y41247738D01*
X85191855Y41176067D01*
X85245829Y41095288D01*
X85264783Y41000000D01*
X85245829Y40904712D01*
X85191855Y40823934D01*
X85155475Y40787553D01*
X85120180Y40752258D01*
X85024214Y40599530D01*
X85024211Y40599524D01*
X85024211Y40599522D01*
X84968089Y40439133D01*
X84964632Y40429254D01*
X84964630Y40429246D01*
X84944435Y40250004D01*
X84944435Y40249997D01*
X84964630Y40070755D01*
X84964631Y40070749D01*
X84964632Y40070745D01*
X85024211Y39900478D01*
X85024212Y39900477D01*
X85024214Y39900471D01*
X85120180Y39747743D01*
X85120182Y39747741D01*
X85120184Y39747738D01*
X85247738Y39620184D01*
X85247740Y39620183D01*
X85247742Y39620181D01*
X85400470Y39524215D01*
X85400473Y39524214D01*
X85400478Y39524211D01*
X85570745Y39464632D01*
X85570754Y39464631D01*
X85749996Y39444435D01*
X85750000Y39444435D01*
X85750004Y39444435D01*
X85889908Y39460199D01*
X85929255Y39464632D01*
X86099522Y39524211D01*
X86099527Y39524215D01*
X86099529Y39524215D01*
X86252257Y39620181D01*
X86252256Y39620181D01*
X86252262Y39620184D01*
X86379816Y39747738D01*
X86415283Y39804184D01*
X86475785Y39900471D01*
X86475785Y39900473D01*
X86475789Y39900478D01*
X86535368Y40070745D01*
X86545616Y40161697D01*
X86555565Y40249997D01*
X86555565Y40250004D01*
X86535369Y40429246D01*
X86535368Y40429255D01*
X86475789Y40599522D01*
X86475786Y40599527D01*
X86475785Y40599530D01*
X86379819Y40752258D01*
X86379817Y40752260D01*
X86379816Y40752262D01*
X86308144Y40823934D01*
X86254171Y40904712D01*
X86235217Y41000000D01*
X86254171Y41095288D01*
X86308144Y41176067D01*
X86379816Y41247738D01*
X86438173Y41340613D01*
X86475785Y41400471D01*
X86475785Y41400473D01*
X86475789Y41400478D01*
X86535368Y41570745D01*
X86546490Y41669454D01*
X86555565Y41749997D01*
X86555565Y41750004D01*
X86535369Y41929246D01*
X86535368Y41929255D01*
X86475789Y42099522D01*
X86475786Y42099527D01*
X86475785Y42099530D01*
X86379819Y42252258D01*
X86379817Y42252260D01*
X86379816Y42252262D01*
X86252262Y42379816D01*
X86252259Y42379818D01*
X86252257Y42379820D01*
X86099529Y42475786D01*
X86099524Y42475788D01*
X86099522Y42475789D01*
X85929255Y42535368D01*
X85929251Y42535369D01*
X85929245Y42535370D01*
X85750004Y42555565D01*
X85749996Y42555565D01*
X85570754Y42535370D01*
X85570746Y42535369D01*
X85570745Y42535368D01*
X85400478Y42475789D01*
X85400476Y42475789D01*
X85400476Y42475788D01*
X85400470Y42475786D01*
X85247742Y42379820D01*
X85120180Y42252258D01*
X85024214Y42099530D01*
X85024211Y42099524D01*
X85024211Y42099522D01*
X84971893Y41950004D01*
X84964632Y41929254D01*
X84964630Y41929246D01*
X84944435Y41750004D01*
X54500500Y41750004D01*
X54500500Y42585992D01*
X54519454Y42681280D01*
X54573430Y42762062D01*
X55237938Y43426570D01*
X55318720Y43480546D01*
X55414008Y43499500D01*
X58785992Y43499500D01*
X58881280Y43480546D01*
X58962062Y43426570D01*
X59129309Y43259323D01*
X59183285Y43178541D01*
X59202239Y43083253D01*
X59200674Y43055377D01*
X59199122Y43041601D01*
X59194436Y43000003D01*
X59194435Y42999998D01*
X59194435Y42999997D01*
X59214630Y42820755D01*
X59214631Y42820749D01*
X59214632Y42820745D01*
X59274211Y42650478D01*
X59274212Y42650477D01*
X59274214Y42650471D01*
X59370180Y42497743D01*
X59370182Y42497741D01*
X59370184Y42497738D01*
X59497738Y42370184D01*
X59497740Y42370183D01*
X59497742Y42370181D01*
X59650470Y42274215D01*
X59650473Y42274214D01*
X59650478Y42274211D01*
X59820745Y42214632D01*
X59820754Y42214631D01*
X59999996Y42194435D01*
X60000000Y42194435D01*
X60000004Y42194435D01*
X60139908Y42210199D01*
X60179255Y42214632D01*
X60349522Y42274211D01*
X60349527Y42274215D01*
X60349529Y42274215D01*
X60462184Y42345002D01*
X60502262Y42370184D01*
X60629816Y42497738D01*
X60685270Y42585992D01*
X60725785Y42650471D01*
X60725785Y42650473D01*
X60725789Y42650478D01*
X60785368Y42820745D01*
X60791955Y42879205D01*
X60805565Y42999997D01*
X60805565Y43000003D01*
X60785369Y43179250D01*
X60785368Y43179253D01*
X60785368Y43179255D01*
X60770699Y43221178D01*
X60764473Y43238971D01*
X60750500Y43321210D01*
X60750500Y44250004D01*
X63194435Y44250004D01*
X63194435Y44249997D01*
X63214630Y44070755D01*
X63214631Y44070749D01*
X63214632Y44070745D01*
X63274211Y43900478D01*
X63274212Y43900477D01*
X63274214Y43900471D01*
X63370180Y43747743D01*
X63370182Y43747741D01*
X63370184Y43747738D01*
X63497738Y43620184D01*
X63497740Y43620183D01*
X63497742Y43620181D01*
X63650470Y43524215D01*
X63650473Y43524214D01*
X63650478Y43524211D01*
X63820745Y43464632D01*
X63820754Y43464631D01*
X63999996Y43444435D01*
X64000000Y43444435D01*
X64000004Y43444435D01*
X64155123Y43461913D01*
X64179255Y43464632D01*
X64349522Y43524211D01*
X64349527Y43524215D01*
X64349529Y43524215D01*
X64502257Y43620181D01*
X64502256Y43620181D01*
X64502262Y43620184D01*
X64629816Y43747738D01*
X64672374Y43815468D01*
X64725785Y43900471D01*
X64725785Y43900473D01*
X64725789Y43900478D01*
X64785368Y44070745D01*
X64801217Y44211409D01*
X64805565Y44249997D01*
X64805565Y44250004D01*
X64785369Y44429246D01*
X64785368Y44429255D01*
X64725789Y44599522D01*
X64725786Y44599527D01*
X64725785Y44599530D01*
X64629819Y44752258D01*
X64629817Y44752260D01*
X64629816Y44752262D01*
X64502262Y44879816D01*
X64502259Y44879818D01*
X64502257Y44879820D01*
X64349529Y44975786D01*
X64349524Y44975788D01*
X64349522Y44975789D01*
X64179255Y45035368D01*
X64179251Y45035369D01*
X64179245Y45035370D01*
X64000004Y45055565D01*
X63999996Y45055565D01*
X63820754Y45035370D01*
X63820746Y45035369D01*
X63820745Y45035368D01*
X63650478Y44975789D01*
X63650476Y44975789D01*
X63650476Y44975788D01*
X63650470Y44975786D01*
X63497742Y44879820D01*
X63370180Y44752258D01*
X63274214Y44599530D01*
X63274211Y44599524D01*
X63274211Y44599522D01*
X63217616Y44437781D01*
X63214632Y44429254D01*
X63214630Y44429246D01*
X63194435Y44250004D01*
X60750500Y44250004D01*
X60750500Y47823917D01*
X60749074Y47831087D01*
X60741297Y47870184D01*
X60736204Y47895789D01*
X60721660Y47968909D01*
X60721659Y47968912D01*
X60680668Y48067873D01*
X60665086Y48105491D01*
X60665083Y48105496D01*
X60647390Y48131975D01*
X60621649Y48170500D01*
X60582952Y48228416D01*
X60336236Y48475132D01*
X60086438Y48724931D01*
X60032462Y48805712D01*
X60013508Y48901000D01*
X60032462Y48996288D01*
X60086439Y49077070D01*
X60167220Y49131046D01*
X60262508Y49150000D01*
X60763311Y49150000D01*
X60858599Y49131046D01*
X60915581Y49092973D01*
X60916034Y49093650D01*
X60936423Y49080027D01*
X60936426Y49080024D01*
X61010118Y49049500D01*
X61089882Y49049500D01*
X64100500Y49049500D01*
X64195788Y49030546D01*
X64276570Y48976570D01*
X64330546Y48895788D01*
X64349500Y48800500D01*
X64349500Y47910118D01*
X64380024Y47836426D01*
X64436426Y47780024D01*
X64510118Y47749500D01*
X64589882Y47749500D01*
X66300500Y47749500D01*
X66395788Y47730546D01*
X66476570Y47676570D01*
X66530546Y47595788D01*
X66549500Y47500500D01*
X66549500Y44060118D01*
X66568228Y44014904D01*
X66574401Y44000000D01*
X66580024Y43986426D01*
X66636426Y43930024D01*
X66710118Y43899500D01*
X66789882Y43899500D01*
X66863574Y43930024D01*
X66919976Y43986426D01*
X66950500Y44060118D01*
X66950500Y44500004D01*
X67944435Y44500004D01*
X67944435Y44499997D01*
X67964630Y44320755D01*
X67964631Y44320749D01*
X67964632Y44320745D01*
X68024211Y44150478D01*
X68024212Y44150477D01*
X68024214Y44150471D01*
X68120180Y43997743D01*
X68120182Y43997741D01*
X68120184Y43997738D01*
X68247738Y43870184D01*
X68247740Y43870183D01*
X68247742Y43870181D01*
X68400470Y43774215D01*
X68400473Y43774214D01*
X68400478Y43774211D01*
X68570745Y43714632D01*
X68570754Y43714631D01*
X68749996Y43694435D01*
X68750000Y43694435D01*
X68750004Y43694435D01*
X68889908Y43710199D01*
X68929255Y43714632D01*
X69099522Y43774211D01*
X69099527Y43774215D01*
X69099529Y43774215D01*
X69252257Y43870181D01*
X69252256Y43870181D01*
X69252262Y43870184D01*
X69379816Y43997738D01*
X69404998Y44037816D01*
X69475785Y44150471D01*
X69475785Y44150473D01*
X69475789Y44150478D01*
X69535368Y44320745D01*
X69542921Y44387782D01*
X69555565Y44499997D01*
X69555565Y44500004D01*
X69535369Y44679246D01*
X69535368Y44679255D01*
X69475789Y44849522D01*
X69475786Y44849527D01*
X69475785Y44849530D01*
X69379819Y45002258D01*
X69379817Y45002260D01*
X69379816Y45002262D01*
X69252262Y45129816D01*
X69252259Y45129818D01*
X69252257Y45129820D01*
X69099529Y45225786D01*
X69099524Y45225788D01*
X69099522Y45225789D01*
X68929255Y45285368D01*
X68929251Y45285369D01*
X68929245Y45285370D01*
X68750004Y45305565D01*
X68749996Y45305565D01*
X68570754Y45285370D01*
X68570746Y45285369D01*
X68570745Y45285368D01*
X68400478Y45225789D01*
X68400476Y45225789D01*
X68400476Y45225788D01*
X68400470Y45225786D01*
X68247742Y45129820D01*
X68120180Y45002258D01*
X68024214Y44849530D01*
X68024211Y44849524D01*
X68024211Y44849522D01*
X67975432Y44710118D01*
X67964632Y44679254D01*
X67964630Y44679246D01*
X67944435Y44500004D01*
X66950500Y44500004D01*
X66950500Y47989882D01*
X66919976Y48063574D01*
X66863574Y48119976D01*
X66845455Y48127481D01*
X66789882Y48150500D01*
X64999500Y48150500D01*
X64904212Y48169454D01*
X64823430Y48223430D01*
X64769454Y48304212D01*
X64750500Y48399500D01*
X64750500Y49289882D01*
X64727521Y49345359D01*
X64719976Y49363574D01*
X64663574Y49419976D01*
X64649303Y49425887D01*
X64589882Y49450500D01*
X61499500Y49450500D01*
X61404212Y49469454D01*
X61323430Y49523430D01*
X61269454Y49604212D01*
X61250500Y49699500D01*
X61250500Y55685992D01*
X61269454Y55781280D01*
X61323430Y55862062D01*
X61587938Y56126570D01*
X61668720Y56180546D01*
X61764008Y56199500D01*
X78200500Y56199500D01*
X78295788Y56180546D01*
X78376570Y56126570D01*
X78430546Y56045788D01*
X78449500Y55950500D01*
X78449500Y44936190D01*
X78430546Y44840902D01*
X78376570Y44760120D01*
X76389880Y42773430D01*
X76309098Y42719454D01*
X76213810Y42700500D01*
X73360118Y42700500D01*
X73286427Y42669977D01*
X73230023Y42613573D01*
X73213578Y42573869D01*
X73199500Y42539882D01*
X73199500Y42460118D01*
X73202754Y42452262D01*
X73227783Y42391835D01*
X73230024Y42386426D01*
X73286426Y42330024D01*
X73360118Y42299500D01*
X76439882Y42299500D01*
X76513574Y42330024D01*
X78819976Y44636426D01*
X78850500Y44710118D01*
X78850500Y44789883D01*
X78850500Y47170004D01*
X84144435Y47170004D01*
X84144435Y47169997D01*
X84164630Y46990755D01*
X84164631Y46990749D01*
X84164632Y46990745D01*
X84224211Y46820478D01*
X84224212Y46820477D01*
X84224214Y46820471D01*
X84320180Y46667743D01*
X84320182Y46667741D01*
X84320184Y46667738D01*
X84447738Y46540184D01*
X84447740Y46540183D01*
X84447742Y46540181D01*
X84600470Y46444215D01*
X84600473Y46444214D01*
X84600478Y46444211D01*
X84770745Y46384632D01*
X84770754Y46384631D01*
X84949996Y46364435D01*
X84950000Y46364435D01*
X84950004Y46364435D01*
X85089908Y46380199D01*
X85129255Y46384632D01*
X85299522Y46444211D01*
X85299527Y46444215D01*
X85299529Y46444215D01*
X85446262Y46536414D01*
X85452262Y46540184D01*
X85579816Y46667738D01*
X85675789Y46820478D01*
X85735368Y46990745D01*
X85755565Y47170000D01*
X85754523Y47179246D01*
X85735369Y47349246D01*
X85735368Y47349255D01*
X85675789Y47519522D01*
X85675786Y47519527D01*
X85675785Y47519530D01*
X85579819Y47672258D01*
X85579817Y47672260D01*
X85579816Y47672262D01*
X85452262Y47799816D01*
X85452259Y47799818D01*
X85452257Y47799820D01*
X85299529Y47895786D01*
X85299524Y47895788D01*
X85299522Y47895789D01*
X85129255Y47955368D01*
X85129251Y47955369D01*
X85129245Y47955370D01*
X84950004Y47975565D01*
X84949996Y47975565D01*
X84770754Y47955370D01*
X84770746Y47955369D01*
X84770745Y47955368D01*
X84600478Y47895789D01*
X84600476Y47895789D01*
X84600476Y47895788D01*
X84600470Y47895786D01*
X84447742Y47799820D01*
X84320180Y47672258D01*
X84224214Y47519530D01*
X84224211Y47519524D01*
X84224211Y47519522D01*
X84164726Y47349522D01*
X84164632Y47349254D01*
X84164630Y47349246D01*
X84144435Y47170004D01*
X78850500Y47170004D01*
X78850500Y55250004D01*
X85944435Y55250004D01*
X85944435Y55249997D01*
X85964630Y55070755D01*
X85964631Y55070749D01*
X85964632Y55070745D01*
X86024211Y54900478D01*
X86024212Y54900477D01*
X86024214Y54900471D01*
X86120180Y54747743D01*
X86120182Y54747741D01*
X86120184Y54747738D01*
X86247738Y54620184D01*
X86247740Y54620183D01*
X86247742Y54620181D01*
X86400470Y54524215D01*
X86400473Y54524214D01*
X86400478Y54524211D01*
X86570745Y54464632D01*
X86570754Y54464631D01*
X86749996Y54444435D01*
X86750000Y54444435D01*
X86750004Y54444435D01*
X86889908Y54460199D01*
X86929255Y54464632D01*
X87099522Y54524211D01*
X87099527Y54524215D01*
X87099529Y54524215D01*
X87252257Y54620181D01*
X87252256Y54620181D01*
X87252262Y54620184D01*
X87379816Y54747738D01*
X87444991Y54851463D01*
X87475785Y54900471D01*
X87475785Y54900473D01*
X87475789Y54900478D01*
X87535368Y55070745D01*
X87555565Y55250000D01*
X87555172Y55253484D01*
X87535369Y55429246D01*
X87535368Y55429255D01*
X87475789Y55599522D01*
X87475786Y55599527D01*
X87475785Y55599530D01*
X87379819Y55752257D01*
X87379816Y55752262D01*
X87379811Y55752267D01*
X87376128Y55756886D01*
X87372506Y55763897D01*
X87372377Y55764102D01*
X87372394Y55764113D01*
X87334624Y55837221D01*
X87316850Y55840756D01*
X87256887Y55876128D01*
X87252261Y55879818D01*
X87099529Y55975786D01*
X87099524Y55975788D01*
X87099522Y55975789D01*
X86929255Y56035368D01*
X86929251Y56035369D01*
X86929245Y56035370D01*
X86750004Y56055565D01*
X86749996Y56055565D01*
X86570754Y56035370D01*
X86570746Y56035369D01*
X86570745Y56035368D01*
X86400478Y55975789D01*
X86400476Y55975789D01*
X86400476Y55975788D01*
X86400470Y55975786D01*
X86247742Y55879820D01*
X86120180Y55752258D01*
X86024214Y55599530D01*
X86024211Y55599524D01*
X86024211Y55599522D01*
X85978036Y55467560D01*
X85964632Y55429254D01*
X85964630Y55429246D01*
X85944435Y55250004D01*
X78850500Y55250004D01*
X78850500Y56439882D01*
X78819976Y56513574D01*
X78763574Y56569976D01*
X78689882Y56600500D01*
X62617665Y56600500D01*
X62522377Y56619454D01*
X62441595Y56673430D01*
X62387619Y56754212D01*
X62368665Y56849500D01*
X62387619Y56944788D01*
X62410626Y56987833D01*
X62411072Y56988502D01*
X62415084Y56994505D01*
X62471658Y57131087D01*
X62500500Y57276082D01*
X62500500Y59428792D01*
X62514473Y59511031D01*
X62526635Y59545788D01*
X62535368Y59570745D01*
X62545885Y59664089D01*
X62555565Y59749997D01*
X62555565Y59750004D01*
X62535369Y59929246D01*
X62535368Y59929255D01*
X62475789Y60099522D01*
X62475786Y60099527D01*
X62475785Y60099530D01*
X62379819Y60252258D01*
X62379817Y60252260D01*
X62379816Y60252262D01*
X62252262Y60379816D01*
X62252259Y60379818D01*
X62252257Y60379820D01*
X62099529Y60475786D01*
X62099524Y60475788D01*
X62099522Y60475789D01*
X61929255Y60535368D01*
X61929251Y60535369D01*
X61929245Y60535370D01*
X61750004Y60555565D01*
X61749996Y60555565D01*
X61570754Y60535370D01*
X61570746Y60535369D01*
X61570745Y60535368D01*
X61400478Y60475789D01*
X61400476Y60475789D01*
X61400476Y60475788D01*
X61400470Y60475786D01*
X61247742Y60379820D01*
X61120180Y60252258D01*
X61024214Y60099530D01*
X61024211Y60099524D01*
X61024211Y60099522D01*
X60967616Y59937781D01*
X60964632Y59929254D01*
X60964630Y59929246D01*
X60944435Y59750004D01*
X60944435Y59749997D01*
X60964630Y59570755D01*
X60964632Y59570744D01*
X60985527Y59511031D01*
X60999500Y59428792D01*
X60999500Y57764008D01*
X60980546Y57668720D01*
X60926570Y57587938D01*
X57417045Y54078413D01*
X57382790Y54027143D01*
X57382787Y54027139D01*
X57334917Y53955497D01*
X57334915Y53955493D01*
X57278341Y53818912D01*
X57249500Y53673921D01*
X57249500Y52624500D01*
X57230546Y52529212D01*
X57176570Y52448430D01*
X57095788Y52394454D01*
X57000500Y52375500D01*
X56946209Y52375500D01*
X56863971Y52389473D01*
X56804259Y52410367D01*
X56804256Y52410368D01*
X56804255Y52410368D01*
X56804253Y52410369D01*
X56804245Y52410370D01*
X56625004Y52430565D01*
X56624996Y52430565D01*
X56445754Y52410370D01*
X56445746Y52410369D01*
X56445745Y52410368D01*
X56275478Y52350789D01*
X56275476Y52350789D01*
X56275476Y52350788D01*
X56275470Y52350786D01*
X56122742Y52254820D01*
X55995180Y52127258D01*
X55899214Y51974530D01*
X55899211Y51974524D01*
X55899211Y51974522D01*
X55846513Y51823918D01*
X55839632Y51804254D01*
X55839630Y51804246D01*
X55819435Y51625004D01*
X55819435Y51624997D01*
X55839630Y51445755D01*
X55839631Y51445749D01*
X55839632Y51445745D01*
X55899211Y51275478D01*
X55899212Y51275477D01*
X55899214Y51275471D01*
X55995180Y51122743D01*
X55995182Y51122741D01*
X55995184Y51122738D01*
X56122738Y50995184D01*
X56122740Y50995183D01*
X56122742Y50995181D01*
X56275470Y50899215D01*
X56275473Y50899214D01*
X56275478Y50899211D01*
X56445745Y50839632D01*
X56445754Y50839631D01*
X56624996Y50819435D01*
X56625000Y50819435D01*
X56625004Y50819435D01*
X56782510Y50837182D01*
X56804255Y50839632D01*
X56849735Y50855546D01*
X56863971Y50860527D01*
X56946209Y50874500D01*
X57000500Y50874500D01*
X57095788Y50855546D01*
X57176570Y50801570D01*
X57230546Y50720788D01*
X57249500Y50625500D01*
X57249500Y49676080D01*
X57278341Y49531089D01*
X57282448Y49521175D01*
X57334916Y49394505D01*
X57367813Y49345271D01*
X57403989Y49291129D01*
X57417051Y49271580D01*
X57658347Y49030286D01*
X57658352Y49030280D01*
X57658353Y49030280D01*
X57667046Y49021587D01*
X57667048Y49021584D01*
X59176572Y47512060D01*
X59230546Y47431281D01*
X59249500Y47335993D01*
X59249500Y45264008D01*
X59230546Y45168720D01*
X59176570Y45087938D01*
X59162062Y45073430D01*
X59081280Y45019454D01*
X58985992Y45000500D01*
X54926079Y45000500D01*
X54781088Y44971659D01*
X54644510Y44915087D01*
X54644502Y44915082D01*
X54602929Y44887304D01*
X54602928Y44887303D01*
X54521587Y44832955D01*
X53167044Y43478412D01*
X53129928Y43422862D01*
X53129928Y43422861D01*
X53084916Y43355496D01*
X53028341Y43218912D01*
X52999500Y43073921D01*
X52999500Y36426080D01*
X53028340Y36281092D01*
X53028341Y36281088D01*
X53028342Y36281087D01*
X53084916Y36144505D01*
X53084917Y36144503D01*
X53084919Y36144499D01*
X53089408Y36137781D01*
X53089412Y36137776D01*
X53167047Y36021585D01*
X53167049Y36021582D01*
X53308812Y35879820D01*
X53727070Y35461563D01*
X53781046Y35380783D01*
X53800000Y35285494D01*
X53800000Y32987731D01*
X53781046Y32892443D01*
X53727070Y32811661D01*
X52864140Y31948731D01*
X52864137Y31948727D01*
X52832637Y31901586D01*
X52832638Y31901585D01*
X52795687Y31846285D01*
X52765834Y31774215D01*
X52765835Y31774214D01*
X52748536Y31732451D01*
X52743508Y31707176D01*
X52743509Y31707175D01*
X52725274Y31615497D01*
X52725268Y31615467D01*
X52724500Y31611609D01*
X52724500Y28212230D01*
X52705546Y28116942D01*
X52651570Y28036160D01*
X50563840Y25948430D01*
X50483058Y25894454D01*
X50387770Y25875500D01*
X44612231Y25875500D01*
X44516943Y25894454D01*
X44436161Y25948430D01*
X41948430Y28436161D01*
X41894454Y28516943D01*
X41875500Y28612231D01*
X41875500Y30811606D01*
X41871059Y30833931D01*
X41851463Y30932452D01*
X41851462Y30932455D01*
X41821298Y31005277D01*
X41821297Y31005279D01*
X41804312Y31046285D01*
X41764702Y31105565D01*
X41764701Y31105567D01*
X41735862Y31148728D01*
X41735860Y31148730D01*
X41735858Y31148733D01*
X41648733Y31235858D01*
X41648729Y31235861D01*
X40357139Y32527451D01*
X40303163Y32608233D01*
X40285774Y32675651D01*
X40285368Y32679255D01*
X40225789Y32849522D01*
X40208407Y32877185D01*
X40189030Y32908024D01*
X40154382Y32998790D01*
X40157107Y33095907D01*
X40196789Y33184589D01*
X40267388Y33251334D01*
X40358154Y33285982D01*
X40399864Y33289500D01*
X44501459Y33289500D01*
X44501460Y33289500D01*
X44698540Y33289500D01*
X45901459Y33289500D01*
X46245827Y33289500D01*
X46341115Y33270546D01*
X46388643Y33244472D01*
X46417922Y33223971D01*
X46485105Y33153793D01*
X46520320Y33063245D01*
X46518203Y32966113D01*
X46479076Y32877185D01*
X46417928Y32816035D01*
X46378603Y32788499D01*
X46211504Y32621400D01*
X46075965Y32427831D01*
X46075961Y32427823D01*
X45976098Y32213667D01*
X45976097Y32213665D01*
X45914935Y31985402D01*
X45894341Y31750006D01*
X45894341Y31749995D01*
X45914935Y31514599D01*
X45966957Y31320446D01*
X45976097Y31286337D01*
X46075965Y31072170D01*
X46211505Y30878599D01*
X46211506Y30878598D01*
X46211507Y30878597D01*
X46214849Y30874613D01*
X46216849Y30870966D01*
X46217741Y30869693D01*
X46217601Y30869596D01*
X46261577Y30789434D01*
X46272151Y30692856D01*
X46244961Y30599583D01*
X46184147Y30523815D01*
X46171431Y30515132D01*
X46171927Y30514469D01*
X46157670Y30503797D01*
X46157669Y30503796D01*
X46089559Y30452809D01*
X46042455Y30417547D01*
X46042453Y30417545D01*
X45956204Y30302331D01*
X45905908Y30167482D01*
X45899500Y30107877D01*
X45899500Y28312135D01*
X45899501Y28312131D01*
X45905908Y28252520D01*
X45905909Y28252516D01*
X45955266Y28120184D01*
X45956204Y28117669D01*
X46042454Y28002454D01*
X46157669Y27916204D01*
X46292517Y27865909D01*
X46352127Y27859500D01*
X48147872Y27859501D01*
X48207483Y27865909D01*
X48342331Y27916204D01*
X48457546Y28002454D01*
X48537846Y28109722D01*
X48610124Y28174644D01*
X48701745Y28206966D01*
X48737180Y28209500D01*
X49158541Y28209500D01*
X49313095Y28240243D01*
X49351836Y28247949D01*
X49405165Y28270039D01*
X49533914Y28323368D01*
X49697782Y28432861D01*
X49837139Y28572218D01*
X49837140Y28572221D01*
X51877140Y30612219D01*
X51986632Y30776086D01*
X52062052Y30958165D01*
X52100500Y31151460D01*
X52100500Y31348541D01*
X52100500Y42198541D01*
X52095968Y42221325D01*
X52091273Y42244933D01*
X52091273Y42244934D01*
X52066949Y42367213D01*
X52062051Y42391836D01*
X52017041Y42500500D01*
X51986632Y42573914D01*
X51877139Y42737782D01*
X51823633Y42791288D01*
X51737782Y42877140D01*
X51737782Y42877139D01*
X50073430Y44541491D01*
X50019454Y44622273D01*
X50000500Y44717561D01*
X50000500Y46851000D01*
X50019454Y46946288D01*
X50055345Y47000004D01*
X53444435Y47000004D01*
X53444435Y46999997D01*
X53464630Y46820755D01*
X53464631Y46820749D01*
X53464632Y46820745D01*
X53524211Y46650478D01*
X53524212Y46650477D01*
X53524214Y46650471D01*
X53620180Y46497743D01*
X53620182Y46497741D01*
X53620184Y46497738D01*
X53747738Y46370184D01*
X53747740Y46370183D01*
X53747742Y46370181D01*
X53900470Y46274215D01*
X53900473Y46274214D01*
X53900478Y46274211D01*
X54070745Y46214632D01*
X54070754Y46214631D01*
X54249996Y46194435D01*
X54250000Y46194435D01*
X54250004Y46194435D01*
X54389908Y46210199D01*
X54429255Y46214632D01*
X54599522Y46274211D01*
X54599527Y46274215D01*
X54599529Y46274215D01*
X54727038Y46354335D01*
X54752262Y46370184D01*
X54879816Y46497738D01*
X54975789Y46650478D01*
X55035368Y46820745D01*
X55053133Y46978417D01*
X55055565Y46999997D01*
X55055565Y47000004D01*
X55035369Y47179246D01*
X55035368Y47179255D01*
X54975789Y47349522D01*
X54975786Y47349527D01*
X54975785Y47349530D01*
X54879819Y47502258D01*
X54879817Y47502260D01*
X54879816Y47502262D01*
X54752262Y47629816D01*
X54752259Y47629818D01*
X54752257Y47629820D01*
X54599529Y47725786D01*
X54599524Y47725788D01*
X54599522Y47725789D01*
X54429255Y47785368D01*
X54429251Y47785369D01*
X54429245Y47785370D01*
X54250004Y47805565D01*
X54249996Y47805565D01*
X54070754Y47785370D01*
X54070746Y47785369D01*
X54070745Y47785368D01*
X53900478Y47725789D01*
X53900476Y47725789D01*
X53900476Y47725788D01*
X53900470Y47725786D01*
X53747742Y47629820D01*
X53620180Y47502258D01*
X53524214Y47349530D01*
X53524211Y47349524D01*
X53524211Y47349522D01*
X53477012Y47214633D01*
X53464632Y47179254D01*
X53464630Y47179246D01*
X53444435Y47000004D01*
X50055345Y47000004D01*
X50073430Y47027070D01*
X50154212Y47081046D01*
X50249500Y47100000D01*
X51225439Y47100000D01*
X51282956Y47163875D01*
X51370648Y47205699D01*
X51404050Y47211793D01*
X51429255Y47214632D01*
X51599522Y47274211D01*
X51599527Y47274215D01*
X51599529Y47274215D01*
X51752257Y47370181D01*
X51752256Y47370181D01*
X51752262Y47370184D01*
X51879816Y47497738D01*
X51941425Y47595788D01*
X51975785Y47650471D01*
X51975785Y47650473D01*
X51975789Y47650478D01*
X52035368Y47820745D01*
X52050536Y47955368D01*
X52055565Y47999997D01*
X52055565Y48000004D01*
X52035369Y48179246D01*
X52035368Y48179255D01*
X51975789Y48349522D01*
X51975786Y48349527D01*
X51975785Y48349530D01*
X51879819Y48502258D01*
X51879817Y48502260D01*
X51879816Y48502262D01*
X51752262Y48629816D01*
X51752259Y48629818D01*
X51752257Y48629820D01*
X51599529Y48725786D01*
X51599524Y48725788D01*
X51599522Y48725789D01*
X51429255Y48785368D01*
X51429252Y48785369D01*
X51416056Y48789986D01*
X51416690Y48791800D01*
X51344264Y48824212D01*
X51277522Y48894813D01*
X51275542Y48900000D01*
X51250000Y48900000D01*
X50249500Y48900000D01*
X50154212Y48918954D01*
X50073430Y48972930D01*
X50019454Y49053712D01*
X50000500Y49149000D01*
X50000500Y58832441D01*
X50019454Y58927729D01*
X50073427Y59008508D01*
X50691491Y59626570D01*
X50772272Y59680546D01*
X50867560Y59699500D01*
X55448541Y59699500D01*
X55559936Y59721658D01*
X55641836Y59737949D01*
X55695165Y59760039D01*
X55823914Y59813368D01*
X55987782Y59922861D01*
X56127139Y60062218D01*
X56127140Y60062221D01*
X56141332Y60076412D01*
X56141335Y60076416D01*
X57841491Y61776570D01*
X57922272Y61830546D01*
X58017560Y61849500D01*
X70880937Y61849500D01*
X70976225Y61830546D01*
G37*
%TD.AperFunction*%
%TA.AperFunction,Conductor*%
G36*
X30150000Y14850000D02*
G01*
X30177916Y14850000D01*
X30255527Y14834563D01*
X30333139Y14850000D01*
X31381940Y14850000D01*
X31477228Y14831046D01*
X31558010Y14777070D01*
X37472858Y8862222D01*
X37472861Y8862218D01*
X37612218Y8722861D01*
X37776086Y8613368D01*
X37904834Y8560039D01*
X37958164Y8537949D01*
X37971140Y8535368D01*
X38151459Y8499500D01*
X38151460Y8499500D01*
X38348540Y8499500D01*
X44182440Y8499500D01*
X44277728Y8480546D01*
X44358510Y8426570D01*
X45172858Y7612222D01*
X45172861Y7612218D01*
X45312218Y7472861D01*
X45476086Y7363368D01*
X45591723Y7315470D01*
X45591725Y7315469D01*
X45591727Y7315468D01*
X45601708Y7311334D01*
X45658164Y7287949D01*
X45675548Y7284492D01*
X45727222Y7274212D01*
X45727227Y7274212D01*
X45727230Y7274211D01*
X45851459Y7249500D01*
X45851460Y7249500D01*
X46048540Y7249500D01*
X48232440Y7249500D01*
X48327728Y7230546D01*
X48408510Y7176570D01*
X48676570Y6908510D01*
X48730546Y6827728D01*
X48749500Y6732440D01*
X48749500Y6151455D01*
X48787947Y5958170D01*
X48787949Y5958165D01*
X48863365Y5776092D01*
X48863366Y5776089D01*
X48863368Y5776086D01*
X48972861Y5612218D01*
X49112218Y5472861D01*
X49112221Y5472859D01*
X49286257Y5356572D01*
X49285452Y5355368D01*
X49350090Y5302328D01*
X49395894Y5216647D01*
X49405422Y5119961D01*
X49377226Y5026988D01*
X49333690Y4968283D01*
X48563840Y4198431D01*
X48483058Y4144454D01*
X48387770Y4125500D01*
X43480502Y4125500D01*
X43385214Y4144454D01*
X43304432Y4198430D01*
X43250456Y4279212D01*
X43231502Y4374500D01*
X43245474Y4456735D01*
X43285368Y4570745D01*
X43302161Y4719788D01*
X43305565Y4749997D01*
X43305565Y4750004D01*
X43285369Y4929246D01*
X43285368Y4929255D01*
X43225789Y5099522D01*
X43225786Y5099527D01*
X43225785Y5099530D01*
X43129819Y5252258D01*
X43129817Y5252260D01*
X43129816Y5252262D01*
X43002262Y5379816D01*
X43002259Y5379818D01*
X43002257Y5379820D01*
X42849529Y5475786D01*
X42849524Y5475788D01*
X42849522Y5475789D01*
X42679255Y5535368D01*
X42679251Y5535369D01*
X42679245Y5535370D01*
X42500004Y5555565D01*
X42499996Y5555565D01*
X42320754Y5535370D01*
X42320746Y5535369D01*
X42320745Y5535368D01*
X42150478Y5475789D01*
X42150476Y5475789D01*
X42150476Y5475788D01*
X42150470Y5475786D01*
X41997742Y5379820D01*
X41870180Y5252258D01*
X41774214Y5099530D01*
X41774211Y5099524D01*
X41774211Y5099522D01*
X41728289Y4968283D01*
X41714632Y4929254D01*
X41714630Y4929246D01*
X41694435Y4750004D01*
X41694435Y4749997D01*
X41714630Y4570755D01*
X41714631Y4570747D01*
X41714632Y4570745D01*
X41754525Y4456736D01*
X41768106Y4360539D01*
X41743840Y4266464D01*
X41685419Y4188836D01*
X41601738Y4139473D01*
X41519498Y4125500D01*
X35292113Y4125500D01*
X35196825Y4144454D01*
X35116043Y4198430D01*
X35062067Y4279212D01*
X35044679Y4346622D01*
X35035369Y4429246D01*
X35035368Y4429255D01*
X35035366Y4429261D01*
X35013973Y4490400D01*
X35000000Y4572638D01*
X35000000Y5427363D01*
X35013973Y5509602D01*
X35022989Y5535368D01*
X35035368Y5570745D01*
X35055565Y5750000D01*
X35052625Y5776092D01*
X35035369Y5929246D01*
X35035368Y5929255D01*
X35025252Y5958165D01*
X35013973Y5990400D01*
X35000000Y6072638D01*
X35000000Y7677363D01*
X35013973Y7759602D01*
X35035368Y7820745D01*
X35055565Y8000000D01*
X35044351Y8099524D01*
X35035369Y8179246D01*
X35035368Y8179255D01*
X35035366Y8179261D01*
X35013973Y8240400D01*
X35000000Y8322638D01*
X35000000Y9177363D01*
X35013973Y9259602D01*
X35019085Y9274211D01*
X35035368Y9320745D01*
X35047627Y9429547D01*
X35055565Y9499997D01*
X35055565Y9500004D01*
X35035369Y9679246D01*
X35035368Y9679255D01*
X34975789Y9849522D01*
X34975786Y9849527D01*
X34975785Y9849530D01*
X34879819Y10002258D01*
X34879817Y10002260D01*
X34879816Y10002262D01*
X34752262Y10129816D01*
X34752259Y10129818D01*
X34752257Y10129820D01*
X34599529Y10225786D01*
X34599524Y10225788D01*
X34599522Y10225789D01*
X34429255Y10285368D01*
X34429251Y10285369D01*
X34429245Y10285370D01*
X34250004Y10305565D01*
X34249996Y10305565D01*
X34070754Y10285370D01*
X34070746Y10285369D01*
X34070745Y10285368D01*
X33900478Y10225789D01*
X33900476Y10225788D01*
X33900475Y10225788D01*
X33866432Y10204398D01*
X33841395Y10188665D01*
X33750631Y10154018D01*
X33708921Y10150500D01*
X28899000Y10150500D01*
X28803712Y10169454D01*
X28722930Y10223430D01*
X28668954Y10304212D01*
X28650000Y10399500D01*
X28650000Y13168861D01*
X28668954Y13264149D01*
X28680000Y13280681D01*
X28680000Y14286314D01*
X28684394Y14281920D01*
X28775606Y14229259D01*
X28877339Y14202000D01*
X28982661Y14202000D01*
X29084394Y14229259D01*
X29175606Y14281920D01*
X29180000Y14286314D01*
X29180000Y13302001D01*
X29180001Y13302000D01*
X29777825Y13302000D01*
X29777832Y13302001D01*
X29837371Y13308402D01*
X29837378Y13308404D01*
X29972087Y13358647D01*
X30087187Y13444811D01*
X30087189Y13444813D01*
X30173353Y13559913D01*
X30223596Y13694622D01*
X30223598Y13694629D01*
X30229999Y13754168D01*
X30230000Y13754175D01*
X30230000Y14351999D01*
X30220021Y14361978D01*
X30169861Y14352000D01*
X29245686Y14352000D01*
X29250080Y14356394D01*
X29302741Y14447606D01*
X29330000Y14549339D01*
X29330000Y14654661D01*
X29302741Y14756394D01*
X29250080Y14847606D01*
X29245686Y14852000D01*
X30160667Y14852000D01*
X30150000Y14850000D01*
G37*
%TD.AperFunction*%
%TA.AperFunction,Conductor*%
G36*
X62096288Y18030546D02*
G01*
X62177070Y17976570D01*
X62231046Y17895788D01*
X62250000Y17800500D01*
X62250000Y16237731D01*
X62231046Y16142443D01*
X62177070Y16061661D01*
X58813840Y12698430D01*
X58733058Y12644454D01*
X58637770Y12625500D01*
X57188387Y12625500D01*
X57127968Y12613482D01*
X57067551Y12601465D01*
X57067550Y12601464D01*
X56953718Y12554314D01*
X56953713Y12554311D01*
X56851269Y12485860D01*
X55338339Y10972930D01*
X55257557Y10918954D01*
X55162269Y10900000D01*
X49461821Y10900000D01*
X49426848Y10848137D01*
X49345839Y10794504D01*
X49333768Y10789926D01*
X49261032Y10764474D01*
X49178791Y10750500D01*
X47664008Y10750500D01*
X47568720Y10769454D01*
X47487938Y10823430D01*
X46990613Y11320755D01*
X46478416Y11832952D01*
X46379966Y11898733D01*
X46355495Y11915084D01*
X46218913Y11971658D01*
X46218911Y11971659D01*
X46073920Y12000500D01*
X46073918Y12000500D01*
X42321209Y12000500D01*
X42238971Y12014473D01*
X42179259Y12035367D01*
X42179256Y12035368D01*
X42179255Y12035368D01*
X42179253Y12035369D01*
X42179245Y12035370D01*
X42000004Y12055565D01*
X41999996Y12055565D01*
X41820754Y12035370D01*
X41820746Y12035369D01*
X41820745Y12035368D01*
X41650478Y11975789D01*
X41650476Y11975789D01*
X41650476Y11975788D01*
X41650470Y11975786D01*
X41497742Y11879820D01*
X41370180Y11752258D01*
X41274214Y11599530D01*
X41274211Y11599524D01*
X41274211Y11599522D01*
X41214897Y11430010D01*
X41214632Y11429254D01*
X41214630Y11429246D01*
X41194435Y11250004D01*
X41194435Y11249997D01*
X41214630Y11070755D01*
X41214631Y11070749D01*
X41214632Y11070745D01*
X41274211Y10900478D01*
X41274212Y10900477D01*
X41274213Y10900474D01*
X41285837Y10881975D01*
X41320484Y10791208D01*
X41317759Y10694091D01*
X41278076Y10605410D01*
X41207477Y10538665D01*
X41116710Y10504018D01*
X41075002Y10500500D01*
X38767560Y10500500D01*
X38672272Y10519454D01*
X38591490Y10573430D01*
X38172930Y10991990D01*
X38118954Y11072772D01*
X38100000Y11168060D01*
X38100000Y12600500D01*
X38118954Y12695788D01*
X38172930Y12776570D01*
X38253712Y12830546D01*
X38349000Y12849500D01*
X52064070Y12849500D01*
X52064070Y12849501D01*
X52189744Y12874499D01*
X52308127Y12923535D01*
X52316687Y12929254D01*
X52316693Y12929258D01*
X52366006Y12962209D01*
X52414669Y12994723D01*
X57396516Y17976570D01*
X57477298Y18030546D01*
X57572586Y18049500D01*
X62001000Y18049500D01*
X62096288Y18030546D01*
G37*
%TD.AperFunction*%
%TA.AperFunction,Conductor*%
G36*
X104520788Y13481046D02*
G01*
X104601570Y13427070D01*
X104655546Y13346288D01*
X104674500Y13251000D01*
X104674500Y11112164D01*
X104655546Y11016876D01*
X104601570Y10936094D01*
X104520788Y10882118D01*
X104425500Y10863164D01*
X104330212Y10882118D01*
X104293024Y10901329D01*
X104174522Y10975789D01*
X104004255Y11035368D01*
X104004251Y11035369D01*
X104004245Y11035370D01*
X103825004Y11055565D01*
X103824996Y11055565D01*
X103645754Y11035370D01*
X103645746Y11035369D01*
X103645745Y11035368D01*
X103475478Y10975789D01*
X103475476Y10975789D01*
X103475476Y10975788D01*
X103475470Y10975786D01*
X103322742Y10879820D01*
X103322738Y10879817D01*
X103322738Y10879816D01*
X103265849Y10822928D01*
X103185071Y10768954D01*
X103089783Y10750000D01*
X102174684Y10750000D01*
X102079396Y10768954D01*
X101998614Y10822930D01*
X101944638Y10903712D01*
X101925684Y10999000D01*
X101944638Y11094288D01*
X101963849Y11131474D01*
X101975783Y11150469D01*
X101975789Y11150478D01*
X102035368Y11320745D01*
X102055565Y11500000D01*
X102055528Y11500327D01*
X102035369Y11679246D01*
X102035368Y11679255D01*
X101975789Y11849522D01*
X101975786Y11849527D01*
X101975785Y11849530D01*
X101879819Y12002258D01*
X101879817Y12002260D01*
X101879816Y12002262D01*
X101752262Y12129816D01*
X101752259Y12129818D01*
X101752257Y12129820D01*
X101599529Y12225786D01*
X101599524Y12225788D01*
X101599522Y12225789D01*
X101429255Y12285368D01*
X101429251Y12285369D01*
X101429246Y12285370D01*
X101419525Y12286465D01*
X101326958Y12315969D01*
X101252729Y12378652D01*
X101208137Y12464969D01*
X101199972Y12561780D01*
X101229476Y12654347D01*
X101271337Y12709969D01*
X101988439Y13427070D01*
X102069220Y13481046D01*
X102164508Y13500000D01*
X104425500Y13500000D01*
X104520788Y13481046D01*
G37*
%TD.AperFunction*%
%TA.AperFunction,Conductor*%
G36*
X46061571Y16180546D02*
G01*
X46142353Y16126570D01*
X46196329Y16045788D01*
X46215283Y15950500D01*
X46196329Y15855212D01*
X46142355Y15774434D01*
X46129293Y15761371D01*
X46120180Y15752258D01*
X46024214Y15599530D01*
X46024211Y15599524D01*
X46024211Y15599522D01*
X45966846Y15435580D01*
X45964632Y15429254D01*
X45964630Y15429246D01*
X45944435Y15250004D01*
X45944435Y15249997D01*
X45964630Y15070755D01*
X45964631Y15070749D01*
X45964632Y15070745D01*
X45978281Y15031738D01*
X45991862Y14935539D01*
X45967595Y14841463D01*
X45909174Y14763835D01*
X45825494Y14714473D01*
X45743254Y14700500D01*
X42256746Y14700500D01*
X42161458Y14719454D01*
X42080676Y14773430D01*
X42026700Y14854212D01*
X42007746Y14949500D01*
X42021719Y15031738D01*
X42039986Y15083943D01*
X42043391Y15082752D01*
X42072233Y15147286D01*
X42099305Y15179360D01*
X43046517Y16126570D01*
X43127298Y16180546D01*
X43222586Y16199500D01*
X45966283Y16199500D01*
X46061571Y16180546D01*
G37*
%TD.AperFunction*%
%TA.AperFunction,Conductor*%
G36*
X103575000Y33055001D02*
G01*
X103575001Y33055000D01*
X103823489Y33055000D01*
X104016691Y33093430D01*
X104198672Y33168809D01*
X104198679Y33168812D01*
X104287163Y33227935D01*
X104376922Y33265114D01*
X104474077Y33265115D01*
X104563837Y33227935D01*
X104632536Y33159236D01*
X104669715Y33069477D01*
X104674500Y33020899D01*
X104674500Y31249000D01*
X104655546Y31153712D01*
X104601570Y31072930D01*
X104520788Y31018954D01*
X104425500Y31000000D01*
X102499500Y31000000D01*
X102404212Y31018954D01*
X102323430Y31072930D01*
X102269454Y31153712D01*
X102250500Y31249000D01*
X102250500Y32879341D01*
X102269454Y32974629D01*
X102323430Y33055411D01*
X102404212Y33109387D01*
X102499500Y33128341D01*
X102594788Y33109387D01*
X102594791Y33109386D01*
X102633312Y33093430D01*
X102826511Y33055000D01*
X103074999Y33055000D01*
X103075000Y33055001D01*
X103075000Y33755000D01*
X103575000Y33755000D01*
X103575000Y33055001D01*
G37*
%TD.AperFunction*%
%TA.AperFunction,Conductor*%
G36*
X47845788Y49831046D02*
G01*
X47926570Y49777070D01*
X47980546Y49696288D01*
X47999500Y49601000D01*
X47999500Y44211409D01*
X47988564Y44156433D01*
X47995215Y44122998D01*
X48000000Y44074420D01*
X48000000Y40322638D01*
X47986027Y40240400D01*
X47964633Y40179261D01*
X47964630Y40179246D01*
X47944435Y40000004D01*
X47944435Y39999997D01*
X47964630Y39820755D01*
X47964631Y39820749D01*
X47964632Y39820745D01*
X48024211Y39650478D01*
X48024212Y39650477D01*
X48024214Y39650471D01*
X48120180Y39497743D01*
X48120182Y39497741D01*
X48120184Y39497738D01*
X48247738Y39370184D01*
X48247740Y39370183D01*
X48247742Y39370181D01*
X48400470Y39274215D01*
X48400473Y39274214D01*
X48400478Y39274211D01*
X48570745Y39214632D01*
X48570747Y39214632D01*
X48583944Y39210014D01*
X48583523Y39208814D01*
X48658964Y39175058D01*
X48725711Y39104461D01*
X48727414Y39100000D01*
X49850500Y39100000D01*
X49945788Y39081046D01*
X50026570Y39027070D01*
X50080546Y38946288D01*
X50099500Y38851000D01*
X50099500Y35899000D01*
X50080546Y35803712D01*
X50026570Y35722930D01*
X49945788Y35668954D01*
X49850500Y35650000D01*
X47249500Y35650000D01*
X47154212Y35668954D01*
X47073430Y35722930D01*
X47019454Y35803712D01*
X47000500Y35899000D01*
X47000500Y43848541D01*
X47000499Y43848546D01*
X46962052Y44041831D01*
X46962051Y44041833D01*
X46962051Y44041835D01*
X46886632Y44223914D01*
X46777139Y44387782D01*
X46637782Y44527139D01*
X46595239Y44555565D01*
X46507155Y44614421D01*
X46473914Y44636632D01*
X46473911Y44636634D01*
X46473908Y44636635D01*
X46291835Y44712051D01*
X46291830Y44712053D01*
X46098545Y44750500D01*
X46098541Y44750500D01*
X45901459Y44750500D01*
X45901454Y44750500D01*
X45708169Y44712053D01*
X45708164Y44712051D01*
X45526091Y44636635D01*
X45526084Y44636631D01*
X45362221Y44527142D01*
X45222858Y44387779D01*
X45113369Y44223916D01*
X45113365Y44223909D01*
X45037949Y44041836D01*
X45037947Y44041831D01*
X44999500Y43848546D01*
X44999500Y39399000D01*
X44980546Y39303712D01*
X44926570Y39222930D01*
X44845788Y39168954D01*
X44750500Y39150000D01*
X44331279Y39150000D01*
X44235991Y39168954D01*
X44155209Y39222930D01*
X44136603Y39243751D01*
X44129818Y39252259D01*
X44129817Y39252260D01*
X44129816Y39252262D01*
X44002262Y39379816D01*
X44002259Y39379818D01*
X44002257Y39379820D01*
X43849529Y39475786D01*
X43849524Y39475788D01*
X43849522Y39475789D01*
X43679255Y39535368D01*
X43679251Y39535369D01*
X43679245Y39535370D01*
X43500004Y39555565D01*
X43499996Y39555565D01*
X43320754Y39535370D01*
X43320746Y39535369D01*
X43320745Y39535368D01*
X43150478Y39475789D01*
X43150476Y39475789D01*
X43150476Y39475788D01*
X43150470Y39475786D01*
X42997742Y39379820D01*
X42870180Y39252258D01*
X42774214Y39099530D01*
X42774211Y39099524D01*
X42774211Y39099522D01*
X42716680Y38935106D01*
X42714632Y38929254D01*
X42714630Y38929246D01*
X42694435Y38750004D01*
X42694435Y38749997D01*
X42714630Y38570755D01*
X42714631Y38570749D01*
X42714632Y38570745D01*
X42774211Y38400478D01*
X42774212Y38400477D01*
X42774214Y38400472D01*
X42811834Y38340601D01*
X42846482Y38249835D01*
X42850000Y38208125D01*
X42850000Y35539500D01*
X42831046Y35444212D01*
X42777070Y35363430D01*
X42696288Y35309454D01*
X42601000Y35290500D01*
X38691454Y35290500D01*
X38498167Y35252053D01*
X38498159Y35252050D01*
X38459069Y35235859D01*
X38459070Y35235858D01*
X38316088Y35176633D01*
X38316084Y35176631D01*
X38238813Y35125000D01*
X38152221Y35067142D01*
X38152218Y35067140D01*
X38152218Y35067139D01*
X37024284Y33939204D01*
X35908510Y32823430D01*
X35827728Y32769454D01*
X35732440Y32750500D01*
X25899000Y32750500D01*
X25803712Y32769454D01*
X25722930Y32823430D01*
X25668954Y32904212D01*
X25650000Y32999500D01*
X25650000Y36277640D01*
X25586315Y36328841D01*
X25539657Y36414060D01*
X25536133Y36427069D01*
X25514473Y36488971D01*
X25500500Y36571210D01*
X25500500Y38085993D01*
X25519454Y38181281D01*
X25573430Y38262063D01*
X26487937Y39176570D01*
X26568719Y39230546D01*
X26664007Y39249500D01*
X29373919Y39249500D01*
X29373919Y39249501D01*
X29518913Y39278342D01*
X29655495Y39334916D01*
X29722693Y39379816D01*
X29778416Y39417048D01*
X30737937Y40376571D01*
X30818719Y40430546D01*
X30914007Y40449500D01*
X31850500Y40449500D01*
X31945788Y40430546D01*
X32026570Y40376570D01*
X32080546Y40295788D01*
X32099500Y40200500D01*
X32099500Y37801080D01*
X32128341Y37656089D01*
X32128342Y37656087D01*
X32184916Y37519505D01*
X32184917Y37519504D01*
X32200528Y37496140D01*
X32200529Y37496138D01*
X32267046Y37396586D01*
X33731342Y35932291D01*
X33764343Y35885792D01*
X33766771Y35887317D01*
X33870180Y35722743D01*
X33870182Y35722741D01*
X33870184Y35722738D01*
X33997738Y35595184D01*
X33997740Y35595183D01*
X34052405Y35560834D01*
X34123003Y35494088D01*
X34162685Y35405406D01*
X34165410Y35308290D01*
X34130762Y35217523D01*
X34064016Y35146925D01*
X34052405Y35139166D01*
X33997740Y35104818D01*
X33870180Y34977258D01*
X33774214Y34824530D01*
X33774211Y34824524D01*
X33774211Y34824522D01*
X33729771Y34697518D01*
X33714632Y34654254D01*
X33714630Y34654246D01*
X33694435Y34475004D01*
X33694435Y34474997D01*
X33714630Y34295755D01*
X33714631Y34295749D01*
X33714632Y34295745D01*
X33774211Y34125478D01*
X33774212Y34125477D01*
X33774214Y34125471D01*
X33870180Y33972743D01*
X33870182Y33972741D01*
X33870184Y33972738D01*
X33997738Y33845184D01*
X33997740Y33845183D01*
X33997742Y33845181D01*
X34150470Y33749215D01*
X34150473Y33749214D01*
X34150478Y33749211D01*
X34320745Y33689632D01*
X34320754Y33689631D01*
X34499996Y33669435D01*
X34500000Y33669435D01*
X34500004Y33669435D01*
X34639908Y33685199D01*
X34679255Y33689632D01*
X34849522Y33749211D01*
X34849527Y33749215D01*
X34849529Y33749215D01*
X35002257Y33845181D01*
X35002256Y33845181D01*
X35002262Y33845184D01*
X35129816Y33972738D01*
X35206322Y34094496D01*
X35225785Y34125471D01*
X35225785Y34125473D01*
X35225789Y34125478D01*
X35285368Y34295745D01*
X35293860Y34371111D01*
X35305565Y34474997D01*
X35305565Y34475004D01*
X35285369Y34654246D01*
X35285368Y34654255D01*
X35225789Y34824522D01*
X35225786Y34824527D01*
X35225785Y34824530D01*
X35129819Y34977258D01*
X35129817Y34977260D01*
X35129816Y34977262D01*
X35002262Y35104816D01*
X35002259Y35104818D01*
X35002257Y35104820D01*
X34947595Y35139166D01*
X34876997Y35205911D01*
X34837314Y35294592D01*
X34834589Y35391709D01*
X34869237Y35482476D01*
X34935982Y35553074D01*
X34947595Y35560834D01*
X35002257Y35595181D01*
X35002256Y35595181D01*
X35002262Y35595184D01*
X35129816Y35722738D01*
X35173233Y35791836D01*
X35225785Y35875471D01*
X35225785Y35875473D01*
X35225789Y35875478D01*
X35285368Y36045745D01*
X35296495Y36144499D01*
X35305565Y36224997D01*
X35305565Y36225004D01*
X35285369Y36404246D01*
X35285368Y36404255D01*
X35225789Y36574522D01*
X35225786Y36574527D01*
X35225785Y36574530D01*
X35129819Y36727258D01*
X35129817Y36727260D01*
X35129816Y36727262D01*
X35002262Y36854816D01*
X34968408Y36876088D01*
X34887913Y36926667D01*
X34817315Y36993413D01*
X34777633Y37082094D01*
X34774908Y37179211D01*
X34809556Y37269978D01*
X34876302Y37340576D01*
X34887888Y37348319D01*
X35002262Y37420184D01*
X35129816Y37547738D01*
X35223037Y37696098D01*
X35225785Y37700471D01*
X35225785Y37700473D01*
X35225789Y37700478D01*
X35285368Y37870745D01*
X35293671Y37944435D01*
X35305565Y38049997D01*
X35305565Y38050004D01*
X35285369Y38229246D01*
X35285368Y38229255D01*
X35225789Y38399522D01*
X35225786Y38399527D01*
X35225785Y38399530D01*
X35129819Y38552258D01*
X35129817Y38552260D01*
X35129816Y38552262D01*
X35002262Y38679816D01*
X35002259Y38679818D01*
X35002257Y38679820D01*
X34849529Y38775786D01*
X34849524Y38775788D01*
X34849522Y38775789D01*
X34679255Y38835368D01*
X34679251Y38835369D01*
X34679245Y38835370D01*
X34500004Y38855565D01*
X34499996Y38855565D01*
X34320754Y38835370D01*
X34320746Y38835369D01*
X34320745Y38835368D01*
X34150478Y38775789D01*
X34150476Y38775789D01*
X34150476Y38775788D01*
X34150470Y38775786D01*
X33985898Y38672377D01*
X33984337Y38674861D01*
X33918406Y38640808D01*
X33821594Y38632653D01*
X33729031Y38662166D01*
X33654807Y38724856D01*
X33610224Y38811178D01*
X33600500Y38880084D01*
X33600500Y40910817D01*
X33619454Y41006105D01*
X33673430Y41086887D01*
X33754212Y41140863D01*
X33849500Y41159817D01*
X33877376Y41158252D01*
X33950609Y41150000D01*
X33999999Y41144435D01*
X34000000Y41144435D01*
X34000004Y41144435D01*
X34139908Y41160199D01*
X34179255Y41164632D01*
X34349522Y41224211D01*
X34349527Y41224215D01*
X34349529Y41224215D01*
X34502257Y41320181D01*
X34502256Y41320181D01*
X34502262Y41320184D01*
X34629816Y41447738D01*
X34684879Y41535370D01*
X34725785Y41600471D01*
X34725785Y41600473D01*
X34725789Y41600478D01*
X34785368Y41770745D01*
X34795997Y41865084D01*
X34805565Y41949997D01*
X34805565Y41950004D01*
X34785369Y42129246D01*
X34785368Y42129255D01*
X34725789Y42299522D01*
X34725786Y42299527D01*
X34725785Y42299530D01*
X34629819Y42452258D01*
X34629817Y42452260D01*
X34629816Y42452262D01*
X34502262Y42579816D01*
X34477637Y42595289D01*
X34434586Y42622340D01*
X34363988Y42689086D01*
X34324306Y42777767D01*
X34321581Y42874884D01*
X34356229Y42965651D01*
X34372391Y42988427D01*
X34379816Y42997738D01*
X34475785Y43150471D01*
X34475785Y43150473D01*
X34475789Y43150478D01*
X34535368Y43320745D01*
X34545177Y43407802D01*
X34555565Y43499997D01*
X34555565Y43500003D01*
X34535369Y43679250D01*
X34535368Y43679253D01*
X34535368Y43679255D01*
X34514473Y43738971D01*
X34500500Y43821210D01*
X34500500Y44760817D01*
X34519454Y44856105D01*
X34573430Y44936887D01*
X34654212Y44990863D01*
X34749500Y45009817D01*
X34777376Y45008252D01*
X34846171Y45000500D01*
X34899999Y44994435D01*
X34900000Y44994435D01*
X34900004Y44994435D01*
X35039908Y45010199D01*
X35079255Y45014632D01*
X35249522Y45074211D01*
X35249527Y45074215D01*
X35249529Y45074215D01*
X35370889Y45150471D01*
X35402262Y45170184D01*
X35529816Y45297738D01*
X35570334Y45362222D01*
X35625785Y45450471D01*
X35625785Y45450473D01*
X35625789Y45450478D01*
X35685368Y45620745D01*
X35705565Y45800000D01*
X35705565Y45800003D01*
X35686116Y45972621D01*
X35694282Y46069433D01*
X35738874Y46155749D01*
X35813104Y46218431D01*
X35905671Y46247934D01*
X35933550Y46249500D01*
X42250500Y46249500D01*
X42345788Y46230546D01*
X42426570Y46176570D01*
X42480546Y46095788D01*
X42499500Y46000500D01*
X42499500Y45821210D01*
X42485527Y45738971D01*
X42464633Y45679260D01*
X42464630Y45679250D01*
X42444435Y45500003D01*
X42444435Y45499997D01*
X42464630Y45320755D01*
X42464631Y45320749D01*
X42464632Y45320745D01*
X42524211Y45150478D01*
X42524212Y45150477D01*
X42524214Y45150471D01*
X42620180Y44997743D01*
X42620182Y44997741D01*
X42620184Y44997738D01*
X42747738Y44870184D01*
X42747740Y44870183D01*
X42747742Y44870181D01*
X42900470Y44774215D01*
X42900473Y44774214D01*
X42900478Y44774211D01*
X43070745Y44714632D01*
X43070754Y44714631D01*
X43249996Y44694435D01*
X43250000Y44694435D01*
X43250004Y44694435D01*
X43389908Y44710199D01*
X43429255Y44714632D01*
X43599522Y44774211D01*
X43599527Y44774215D01*
X43599529Y44774215D01*
X43752257Y44870181D01*
X43752256Y44870181D01*
X43752262Y44870184D01*
X43879816Y44997738D01*
X43916151Y45055565D01*
X43975785Y45150471D01*
X43975785Y45150473D01*
X43975789Y45150478D01*
X44035368Y45320745D01*
X44043971Y45397102D01*
X44055565Y45499997D01*
X44055565Y45500003D01*
X44035369Y45679250D01*
X44035368Y45679253D01*
X44035368Y45679255D01*
X44025252Y45708164D01*
X44014473Y45738971D01*
X44000500Y45821210D01*
X44000500Y46000500D01*
X44019454Y46095788D01*
X44073430Y46176570D01*
X44154212Y46230546D01*
X44249500Y46249500D01*
X44573919Y46249500D01*
X44573919Y46249501D01*
X44718913Y46278342D01*
X44855495Y46334916D01*
X44908273Y46370181D01*
X44908279Y46370185D01*
X44908281Y46370187D01*
X44978416Y46417048D01*
X46132951Y47571584D01*
X46215084Y47694505D01*
X46271658Y47831087D01*
X46300500Y47976082D01*
X46300500Y48123917D01*
X46300500Y49601000D01*
X46319454Y49696288D01*
X46373430Y49777070D01*
X46454212Y49831046D01*
X46549500Y49850000D01*
X47750500Y49850000D01*
X47845788Y49831046D01*
G37*
%TD.AperFunction*%
%TA.AperFunction,Conductor*%
G36*
X104563837Y41867935D02*
G01*
X104632536Y41799236D01*
X104669715Y41709477D01*
X104674500Y41660899D01*
X104674500Y35089102D01*
X104655546Y34993814D01*
X104601570Y34913032D01*
X104520788Y34859056D01*
X104425500Y34840102D01*
X104330212Y34859056D01*
X104287164Y34882065D01*
X104198677Y34941190D01*
X104198672Y34941192D01*
X104016691Y35016571D01*
X103823489Y35055000D01*
X103575001Y35055000D01*
X103575000Y35054999D01*
X103575000Y34355000D01*
X103075000Y34355000D01*
X103075000Y35054999D01*
X103074999Y35055000D01*
X102821060Y35055000D01*
X102725772Y35073954D01*
X102644990Y35127930D01*
X102591014Y35208712D01*
X102572060Y35304000D01*
X102591014Y35399288D01*
X102644990Y35480069D01*
X103723584Y36558665D01*
X103737778Y36572859D01*
X103737782Y36572861D01*
X103877139Y36712218D01*
X103986632Y36876086D01*
X104055190Y37041601D01*
X104062051Y37058164D01*
X104100500Y37251460D01*
X104100500Y37448540D01*
X104100500Y40398541D01*
X104074135Y40531087D01*
X104062051Y40591836D01*
X104062050Y40591837D01*
X104062050Y40591840D01*
X104032411Y40663394D01*
X103998637Y40744930D01*
X103986632Y40773914D01*
X103877139Y40937782D01*
X103737782Y41077139D01*
X103737778Y41077142D01*
X103544990Y41269930D01*
X103491014Y41350712D01*
X103472060Y41446000D01*
X103491014Y41541288D01*
X103544990Y41622070D01*
X103625772Y41676046D01*
X103721060Y41695000D01*
X103823489Y41695000D01*
X104016691Y41733430D01*
X104198672Y41808809D01*
X104198679Y41808812D01*
X104287163Y41867935D01*
X104376922Y41905114D01*
X104474077Y41905115D01*
X104563837Y41867935D01*
G37*
%TD.AperFunction*%
%TA.AperFunction,Conductor*%
G36*
X35031281Y51480546D02*
G01*
X35112062Y51426570D01*
X35426569Y51112064D01*
X35480546Y51031283D01*
X35499500Y50935994D01*
X35499500Y48821210D01*
X35485527Y48738971D01*
X35464633Y48679260D01*
X35464630Y48679250D01*
X35444435Y48500003D01*
X35444435Y48499997D01*
X35464630Y48320755D01*
X35464631Y48320749D01*
X35464632Y48320745D01*
X35524211Y48150478D01*
X35524212Y48150477D01*
X35524213Y48150474D01*
X35535837Y48131975D01*
X35570484Y48041208D01*
X35567759Y47944091D01*
X35528076Y47855410D01*
X35457477Y47788665D01*
X35366710Y47754018D01*
X35325002Y47750500D01*
X34571209Y47750500D01*
X34488971Y47764473D01*
X34429259Y47785367D01*
X34429256Y47785368D01*
X34429255Y47785368D01*
X34429253Y47785369D01*
X34429245Y47785370D01*
X34250004Y47805565D01*
X34249996Y47805565D01*
X34070754Y47785370D01*
X34070746Y47785369D01*
X34070745Y47785368D01*
X33900478Y47725789D01*
X33900476Y47725789D01*
X33900476Y47725788D01*
X33900470Y47725786D01*
X33747742Y47629820D01*
X33620183Y47502261D01*
X33617341Y47497738D01*
X33524211Y47349522D01*
X33524209Y47349519D01*
X33516773Y47337683D01*
X33514349Y47339206D01*
X33481345Y47292715D01*
X33167048Y46978417D01*
X33122705Y46912051D01*
X33084916Y46855496D01*
X33028341Y46718912D01*
X32999500Y46573921D01*
X32999500Y43914008D01*
X32980546Y43818720D01*
X32926570Y43737939D01*
X32267050Y43078419D01*
X32267048Y43078416D01*
X32256114Y43062051D01*
X32184919Y42955500D01*
X32184913Y42955490D01*
X32128341Y42818912D01*
X32099500Y42673921D01*
X32099500Y42199500D01*
X32080546Y42104212D01*
X32026570Y42023430D01*
X31945788Y41969454D01*
X31850500Y41950500D01*
X30426079Y41950500D01*
X30281088Y41921659D01*
X30144507Y41865085D01*
X30144503Y41865083D01*
X30021585Y41782952D01*
X30021583Y41782951D01*
X29062061Y40823430D01*
X28981280Y40769454D01*
X28885992Y40750500D01*
X26571209Y40750500D01*
X26488971Y40764473D01*
X26429259Y40785367D01*
X26429256Y40785368D01*
X26429255Y40785368D01*
X26429253Y40785369D01*
X26429245Y40785370D01*
X26250004Y40805565D01*
X26249996Y40805565D01*
X26070754Y40785370D01*
X26070746Y40785369D01*
X26070745Y40785368D01*
X25900478Y40725789D01*
X25900476Y40725789D01*
X25900476Y40725788D01*
X25900470Y40725786D01*
X25747742Y40629820D01*
X25747738Y40629816D01*
X25620184Y40502262D01*
X25524211Y40349522D01*
X25524209Y40349519D01*
X25516773Y40337683D01*
X25514349Y40339206D01*
X25481345Y40292715D01*
X25361562Y40172931D01*
X25280781Y40118954D01*
X25185493Y40100000D01*
X23937000Y40100000D01*
X23841712Y40118954D01*
X23760930Y40172930D01*
X23706954Y40253712D01*
X23688000Y40349000D01*
X23688000Y43669941D01*
X23706954Y43765229D01*
X23760928Y43846009D01*
X25137778Y45222859D01*
X25137782Y45222861D01*
X25277139Y45362218D01*
X25386632Y45526086D01*
X25441340Y45658164D01*
X25462051Y45708164D01*
X25500500Y45901460D01*
X25500500Y46098540D01*
X25500500Y48298541D01*
X25483396Y48384530D01*
X25462051Y48491836D01*
X25393713Y48656818D01*
X25386632Y48673914D01*
X25277139Y48837782D01*
X25213921Y48901000D01*
X25137782Y48977140D01*
X25137782Y48977139D01*
X25137781Y48977140D01*
X24090706Y50024215D01*
X23040489Y51074431D01*
X22986514Y51155212D01*
X22967560Y51250500D01*
X22986514Y51345788D01*
X23040490Y51426570D01*
X23121272Y51480546D01*
X23216560Y51499500D01*
X34935993Y51499500D01*
X35031281Y51480546D01*
G37*
%TD.AperFunction*%
%TA.AperFunction,Conductor*%
G36*
X97396288Y63905546D02*
G01*
X97477070Y63851570D01*
X97531046Y63770788D01*
X97550000Y63675500D01*
X97550000Y60612959D01*
X97549659Y60599928D01*
X97544422Y60500001D01*
X97549659Y60400074D01*
X97550000Y60387043D01*
X97550000Y56750000D01*
X104423771Y56797735D01*
X104519188Y56779443D01*
X104600343Y56726029D01*
X104654879Y56645624D01*
X104674494Y56550470D01*
X104674500Y56548741D01*
X104674500Y43729102D01*
X104655546Y43633814D01*
X104601570Y43553032D01*
X104520788Y43499056D01*
X104425500Y43480102D01*
X104330212Y43499056D01*
X104287164Y43522065D01*
X104198677Y43581190D01*
X104198672Y43581192D01*
X104016691Y43656571D01*
X103823489Y43695000D01*
X103575001Y43695000D01*
X103575000Y43694999D01*
X103575000Y42995000D01*
X103075000Y42995000D01*
X103075000Y43694999D01*
X103074999Y43695000D01*
X102826511Y43695000D01*
X102633308Y43656571D01*
X102594787Y43640614D01*
X102499499Y43621660D01*
X102404211Y43640614D01*
X102323430Y43694591D01*
X102269454Y43775373D01*
X102250500Y43870660D01*
X102250500Y43898541D01*
X102250499Y43898546D01*
X102224135Y44031087D01*
X102212051Y44091836D01*
X102182421Y44163369D01*
X102136632Y44273914D01*
X102027139Y44437782D01*
X101887782Y44577139D01*
X101887778Y44577142D01*
X101070489Y45394431D01*
X101016513Y45475213D01*
X100997559Y45570501D01*
X101016513Y45665789D01*
X101070489Y45746571D01*
X101151271Y45800547D01*
X101246559Y45819501D01*
X102397866Y45819501D01*
X102397872Y45819501D01*
X102457483Y45825909D01*
X102592331Y45876204D01*
X102707546Y45962454D01*
X102793796Y46077669D01*
X102844091Y46212517D01*
X102850500Y46272127D01*
X102850499Y48067872D01*
X102844091Y48127483D01*
X102793796Y48262331D01*
X102707546Y48377546D01*
X102592331Y48463796D01*
X102592329Y48463797D01*
X102578073Y48474469D01*
X102580543Y48477769D01*
X102531995Y48518354D01*
X102486976Y48604450D01*
X102478331Y48701219D01*
X102507376Y48793931D01*
X102535158Y48834622D01*
X102538494Y48838598D01*
X102538495Y48838599D01*
X102674035Y49032170D01*
X102773903Y49246337D01*
X102835063Y49474592D01*
X102835064Y49474599D01*
X102855659Y49709995D01*
X102855659Y49710006D01*
X102835064Y49945402D01*
X102835063Y49945405D01*
X102835063Y49945408D01*
X102773903Y50173663D01*
X102674035Y50387829D01*
X102672116Y50390569D01*
X102597946Y50496496D01*
X102538495Y50581401D01*
X102371401Y50748495D01*
X102332074Y50776033D01*
X102264891Y50846211D01*
X102229678Y50936760D01*
X102231797Y51033892D01*
X102270925Y51122819D01*
X102332073Y51183968D01*
X102371401Y51211505D01*
X102538495Y51378599D01*
X102674035Y51572170D01*
X102773903Y51786337D01*
X102835063Y52014592D01*
X102840254Y52073918D01*
X102855659Y52250000D01*
X102855659Y52250006D01*
X102835064Y52485402D01*
X102835063Y52485405D01*
X102835063Y52485408D01*
X102773903Y52713663D01*
X102719745Y52829804D01*
X102674038Y52927823D01*
X102674034Y52927831D01*
X102611115Y53017688D01*
X102538495Y53121401D01*
X102371401Y53288495D01*
X102371397Y53288498D01*
X102371396Y53288499D01*
X102331638Y53316338D01*
X102264454Y53386519D01*
X102229242Y53477069D01*
X102231362Y53574200D01*
X102270491Y53663127D01*
X102331640Y53724276D01*
X102371075Y53751889D01*
X102538110Y53918924D01*
X102673600Y54112424D01*
X102773433Y54326515D01*
X102773433Y54326517D01*
X102830636Y54539999D01*
X102830636Y54540000D01*
X101933012Y54540000D01*
X101965925Y54597007D01*
X102000000Y54724174D01*
X102000000Y54855826D01*
X101965925Y54982993D01*
X101933012Y55040000D01*
X102830636Y55040000D01*
X102830636Y55040002D01*
X102773433Y55253484D01*
X102773429Y55253495D01*
X102673603Y55467572D01*
X102673599Y55467580D01*
X102538110Y55661077D01*
X102371076Y55828111D01*
X102177576Y55963601D01*
X101963484Y56063434D01*
X101750001Y56120637D01*
X101750000Y56120636D01*
X101750000Y55223012D01*
X101692993Y55255925D01*
X101565826Y55290000D01*
X101434174Y55290000D01*
X101307007Y55255925D01*
X101250000Y55223012D01*
X101250000Y56120636D01*
X101249998Y56120637D01*
X101036516Y56063434D01*
X101036505Y56063430D01*
X100822428Y55963604D01*
X100822420Y55963600D01*
X100628923Y55828111D01*
X100461889Y55661077D01*
X100326400Y55467580D01*
X100326396Y55467572D01*
X100226570Y55253495D01*
X100226566Y55253484D01*
X100169363Y55040002D01*
X100169364Y55040000D01*
X101066988Y55040000D01*
X101034075Y54982993D01*
X101000000Y54855826D01*
X101000000Y54724174D01*
X101034075Y54597007D01*
X101066988Y54540000D01*
X100169364Y54540000D01*
X100169363Y54539999D01*
X100226566Y54326517D01*
X100226566Y54326515D01*
X100326399Y54112424D01*
X100461889Y53918924D01*
X100628923Y53751890D01*
X100668361Y53724275D01*
X100735545Y53654093D01*
X100770757Y53563544D01*
X100768638Y53466412D01*
X100729509Y53377485D01*
X100668363Y53316339D01*
X100628602Y53288498D01*
X100461504Y53121400D01*
X100325965Y52927831D01*
X100325961Y52927823D01*
X100226098Y52713667D01*
X100226097Y52713665D01*
X100164935Y52485402D01*
X100144341Y52250006D01*
X100144341Y52250000D01*
X100164935Y52014599D01*
X100214821Y51828418D01*
X100226097Y51786337D01*
X100297464Y51633290D01*
X100325965Y51572170D01*
X100445497Y51401460D01*
X100461505Y51378599D01*
X100628599Y51211505D01*
X100667925Y51183969D01*
X100735107Y51113791D01*
X100770321Y51023242D01*
X100768202Y50926110D01*
X100729074Y50837182D01*
X100667928Y50776035D01*
X100628603Y50748499D01*
X100461504Y50581400D01*
X100325965Y50387831D01*
X100325961Y50387823D01*
X100226098Y50173667D01*
X100226097Y50173665D01*
X100164935Y49945402D01*
X100144341Y49710006D01*
X100144341Y49709995D01*
X100164935Y49474599D01*
X100199632Y49345105D01*
X100226097Y49246337D01*
X100325965Y49032170D01*
X100461505Y48838599D01*
X100461506Y48838598D01*
X100461507Y48838597D01*
X100464849Y48834613D01*
X100466849Y48830966D01*
X100467741Y48829693D01*
X100467601Y48829596D01*
X100511577Y48749434D01*
X100522151Y48652856D01*
X100494961Y48559583D01*
X100434147Y48483815D01*
X100421431Y48475132D01*
X100421927Y48474469D01*
X100407670Y48463797D01*
X100407669Y48463796D01*
X100387649Y48448809D01*
X100292455Y48377547D01*
X100292453Y48377545D01*
X100206204Y48262331D01*
X100155908Y48127482D01*
X100149500Y48067877D01*
X100149500Y48067873D01*
X100149500Y47170004D01*
X100149501Y46299500D01*
X100130547Y46204212D01*
X100076571Y46123431D01*
X99995789Y46069454D01*
X99900501Y46050500D01*
X97317560Y46050500D01*
X97222272Y46069454D01*
X97141490Y46123430D01*
X96973430Y46291490D01*
X96919454Y46372272D01*
X96900500Y46467560D01*
X96900500Y52948541D01*
X96900499Y52948546D01*
X96866116Y53121400D01*
X96862051Y53141835D01*
X96858064Y53151460D01*
X96830811Y53217255D01*
X96786632Y53323914D01*
X96677139Y53487782D01*
X96623085Y53541836D01*
X96537782Y53627140D01*
X96537782Y53627139D01*
X96537781Y53627140D01*
X95027140Y55137780D01*
X95027139Y55137782D01*
X94887782Y55277139D01*
X94887778Y55277142D01*
X94723916Y55386631D01*
X94723914Y55386632D01*
X94584364Y55444435D01*
X94541836Y55462051D01*
X94445188Y55481276D01*
X94348541Y55500500D01*
X94348538Y55500500D01*
X91267560Y55500500D01*
X91172272Y55519454D01*
X91091490Y55573430D01*
X86527141Y60137779D01*
X86527139Y60137782D01*
X86387782Y60277139D01*
X86340987Y60308407D01*
X86223910Y60386635D01*
X86214961Y60391418D01*
X86139860Y60453053D01*
X86094062Y60538737D01*
X86084540Y60635424D01*
X86112744Y60728395D01*
X86156272Y60787085D01*
X86248109Y60878922D01*
X86275724Y60918360D01*
X86345905Y60985544D01*
X86436454Y61020758D01*
X86533586Y61018639D01*
X86622513Y60979511D01*
X86683662Y60918362D01*
X86711501Y60878604D01*
X86711505Y60878599D01*
X86878599Y60711505D01*
X87072170Y60575965D01*
X87286337Y60476097D01*
X87514592Y60414937D01*
X87514595Y60414937D01*
X87514598Y60414936D01*
X87749995Y60394341D01*
X87750000Y60394341D01*
X87750005Y60394341D01*
X87985401Y60414936D01*
X87985403Y60414937D01*
X87985408Y60414937D01*
X88213663Y60476097D01*
X88427830Y60575965D01*
X88621401Y60711505D01*
X88788495Y60878599D01*
X88816032Y60917926D01*
X88886211Y60985109D01*
X88976760Y61020322D01*
X89073892Y61018203D01*
X89162819Y60979075D01*
X89223967Y60917927D01*
X89251505Y60878599D01*
X89418599Y60711505D01*
X89612170Y60575965D01*
X89826337Y60476097D01*
X90054592Y60414937D01*
X90054595Y60414937D01*
X90054598Y60414936D01*
X90289995Y60394341D01*
X90290000Y60394341D01*
X90290005Y60394341D01*
X90525401Y60414936D01*
X90525403Y60414937D01*
X90525408Y60414937D01*
X90753663Y60476097D01*
X90967830Y60575965D01*
X91161401Y60711505D01*
X91328495Y60878599D01*
X91356032Y60917926D01*
X91426211Y60985109D01*
X91516760Y61020322D01*
X91613892Y61018203D01*
X91702819Y60979075D01*
X91763967Y60917927D01*
X91791505Y60878599D01*
X91958599Y60711505D01*
X92152170Y60575965D01*
X92366337Y60476097D01*
X92594592Y60414937D01*
X92594595Y60414937D01*
X92594598Y60414936D01*
X92829995Y60394341D01*
X92830000Y60394341D01*
X92830005Y60394341D01*
X93065401Y60414936D01*
X93065403Y60414937D01*
X93065408Y60414937D01*
X93293663Y60476097D01*
X93507830Y60575965D01*
X93701401Y60711505D01*
X93868495Y60878599D01*
X94004035Y61072170D01*
X94103903Y61286337D01*
X94165063Y61514592D01*
X94171366Y61586633D01*
X94185659Y61749995D01*
X94185659Y61750006D01*
X94165064Y61985402D01*
X94165063Y61985405D01*
X94165063Y61985408D01*
X94103903Y62213663D01*
X94022711Y62387779D01*
X94004038Y62427823D01*
X94004034Y62427831D01*
X93934498Y62527139D01*
X93868495Y62621401D01*
X93701401Y62788495D01*
X93507830Y62924035D01*
X93293663Y63023903D01*
X93293660Y63023904D01*
X93065401Y63085065D01*
X92830005Y63105659D01*
X92829995Y63105659D01*
X92594598Y63085065D01*
X92366335Y63023903D01*
X92366333Y63023902D01*
X92152177Y62924039D01*
X92152169Y62924035D01*
X91958600Y62788496D01*
X91791501Y62621397D01*
X91763968Y62582075D01*
X91693787Y62514891D01*
X91603237Y62479679D01*
X91506106Y62481799D01*
X91417179Y62520928D01*
X91356032Y62582075D01*
X91328498Y62621397D01*
X91328497Y62621398D01*
X91328495Y62621401D01*
X91161401Y62788495D01*
X90967830Y62924035D01*
X90753663Y63023903D01*
X90753660Y63023904D01*
X90525401Y63085065D01*
X90290005Y63105659D01*
X90289995Y63105659D01*
X90054598Y63085065D01*
X89826335Y63023903D01*
X89826333Y63023902D01*
X89612177Y62924039D01*
X89612169Y62924035D01*
X89418600Y62788496D01*
X89251501Y62621397D01*
X89223968Y62582075D01*
X89153787Y62514891D01*
X89063237Y62479679D01*
X88966106Y62481799D01*
X88877179Y62520928D01*
X88816032Y62582075D01*
X88788498Y62621397D01*
X88788497Y62621398D01*
X88788495Y62621401D01*
X88621401Y62788495D01*
X88427830Y62924035D01*
X88213663Y63023903D01*
X88213660Y63023904D01*
X87985401Y63085065D01*
X87750005Y63105659D01*
X87749995Y63105659D01*
X87514598Y63085065D01*
X87286335Y63023903D01*
X87286333Y63023902D01*
X87072177Y62924039D01*
X87072169Y62924035D01*
X86878600Y62788496D01*
X86711502Y62621398D01*
X86683661Y62581637D01*
X86613479Y62514454D01*
X86522929Y62479242D01*
X86425797Y62481363D01*
X86336871Y62520493D01*
X86275725Y62581639D01*
X86248110Y62621077D01*
X86081076Y62788111D01*
X85887576Y62923601D01*
X85673484Y63023434D01*
X85460001Y63080637D01*
X85460000Y63080636D01*
X85460000Y62183012D01*
X85402993Y62215925D01*
X85275826Y62250000D01*
X85144174Y62250000D01*
X85017007Y62215925D01*
X84960000Y62183012D01*
X84960000Y63080636D01*
X84959998Y63080637D01*
X84746516Y63023434D01*
X84746505Y63023430D01*
X84532428Y62923604D01*
X84532420Y62923600D01*
X84338923Y62788111D01*
X84171889Y62621077D01*
X84144272Y62581636D01*
X84074089Y62514453D01*
X83983539Y62479242D01*
X83886408Y62481363D01*
X83797481Y62520493D01*
X83736337Y62581638D01*
X83708495Y62621401D01*
X83541401Y62788495D01*
X83347830Y62924035D01*
X83133663Y63023903D01*
X83133660Y63023904D01*
X82905401Y63085065D01*
X82670005Y63105659D01*
X82669995Y63105659D01*
X82434598Y63085065D01*
X82206335Y63023903D01*
X82206333Y63023902D01*
X81992177Y62924039D01*
X81992169Y62924035D01*
X81798587Y62788487D01*
X81794605Y62785145D01*
X81790960Y62783147D01*
X81789694Y62782259D01*
X81789596Y62782398D01*
X81709423Y62738420D01*
X81612845Y62727850D01*
X81519573Y62755043D01*
X81443808Y62815860D01*
X81435133Y62828571D01*
X81434469Y62828073D01*
X81423796Y62842330D01*
X81423796Y62842331D01*
X81337546Y62957546D01*
X81222331Y63043796D01*
X81123555Y63080637D01*
X81087481Y63094092D01*
X81027873Y63100500D01*
X79232134Y63100500D01*
X79232130Y63100500D01*
X79232128Y63100499D01*
X79219314Y63099122D01*
X79172519Y63094092D01*
X79172515Y63094091D01*
X79037670Y63043797D01*
X78922455Y62957547D01*
X78922453Y62957545D01*
X78836204Y62842331D01*
X78785908Y62707482D01*
X78779500Y62647877D01*
X78779500Y60852135D01*
X78779501Y60852131D01*
X78787574Y60777028D01*
X78783627Y60776604D01*
X78785991Y60709554D01*
X78751996Y60618541D01*
X78685759Y60547465D01*
X78597365Y60507147D01*
X78540216Y60500500D01*
X75767561Y60500500D01*
X75672273Y60519454D01*
X75591491Y60573430D01*
X75553430Y60611491D01*
X75499454Y60692273D01*
X75480500Y60787561D01*
X75480500Y61848541D01*
X75480499Y61848546D01*
X75442052Y62041831D01*
X75442051Y62041833D01*
X75442051Y62041835D01*
X75366632Y62223914D01*
X75257139Y62387782D01*
X75117782Y62527139D01*
X75117778Y62527142D01*
X74953915Y62636632D01*
X74943128Y62642397D01*
X74943896Y62643835D01*
X74875146Y62689774D01*
X74077141Y63487779D01*
X74077139Y63487782D01*
X74065487Y63499434D01*
X74011514Y63580212D01*
X73992560Y63675500D01*
X74011514Y63770788D01*
X74065490Y63851570D01*
X74146272Y63905546D01*
X74241560Y63924500D01*
X97301000Y63924500D01*
X97396288Y63905546D01*
G37*
%TD.AperFunction*%
%TA.AperFunction,Conductor*%
G36*
X44230781Y57431046D02*
G01*
X44311563Y57377070D01*
X44726570Y56962063D01*
X44780546Y56881281D01*
X44799500Y56785993D01*
X44799500Y48464008D01*
X44780546Y48368720D01*
X44726570Y48287938D01*
X44262062Y47823430D01*
X44181280Y47769454D01*
X44085992Y47750500D01*
X37174998Y47750500D01*
X37079710Y47769454D01*
X36998928Y47823430D01*
X36944952Y47904212D01*
X36925998Y47999500D01*
X36944952Y48094788D01*
X36964163Y48131975D01*
X36975786Y48150474D01*
X36975789Y48150478D01*
X37035368Y48320745D01*
X37042555Y48384531D01*
X37055565Y48499997D01*
X37055565Y48500003D01*
X37035369Y48679250D01*
X37035368Y48679253D01*
X37035368Y48679255D01*
X37026295Y48705183D01*
X37014473Y48738971D01*
X37000500Y48821210D01*
X37000500Y51423919D01*
X37000499Y51423921D01*
X36996157Y51445747D01*
X36971658Y51568913D01*
X36915084Y51705495D01*
X36832951Y51828416D01*
X36832949Y51828418D01*
X36728421Y51932947D01*
X36728418Y51932949D01*
X36728416Y51932951D01*
X36586933Y52074434D01*
X36532960Y52155212D01*
X36514006Y52250500D01*
X36532960Y52345788D01*
X36586936Y52426570D01*
X36667718Y52480546D01*
X36763006Y52499500D01*
X40148541Y52499500D01*
X40272770Y52524211D01*
X40341836Y52537949D01*
X40395165Y52560039D01*
X40523914Y52613368D01*
X40687782Y52722861D01*
X40827139Y52862218D01*
X40827139Y52862220D01*
X40847639Y52882719D01*
X40847640Y52882722D01*
X42277140Y54312219D01*
X42386632Y54476086D01*
X42462052Y54658165D01*
X42500500Y54851460D01*
X42500500Y55048541D01*
X42500500Y57201000D01*
X42519454Y57296288D01*
X42573430Y57377070D01*
X42654212Y57431046D01*
X42749500Y57450000D01*
X44135493Y57450000D01*
X44230781Y57431046D01*
G37*
%TD.AperFunction*%
%TA.AperFunction,Conductor*%
G36*
X46996288Y63905546D02*
G01*
X47077070Y63851570D01*
X47131046Y63770788D01*
X47150000Y63675500D01*
X47150000Y61949500D01*
X47131046Y61854212D01*
X47077070Y61773430D01*
X46996288Y61719454D01*
X46901000Y61700500D01*
X42801459Y61700500D01*
X42704812Y61681276D01*
X42632243Y61666841D01*
X42608163Y61662051D01*
X42582593Y61651459D01*
X42582592Y61651459D01*
X42426088Y61586633D01*
X42426084Y61586631D01*
X42262219Y61477140D01*
X42262216Y61477138D01*
X42122860Y61337783D01*
X42122861Y61337782D01*
X42122858Y61337779D01*
X40862221Y60077142D01*
X40862218Y60077139D01*
X40862217Y60077140D01*
X40722862Y59937784D01*
X40722860Y59937781D01*
X40613369Y59773916D01*
X40613367Y59773912D01*
X40567877Y59664089D01*
X40567877Y59664088D01*
X40537948Y59591836D01*
X40533753Y59570744D01*
X40530312Y59553444D01*
X40499500Y59398546D01*
X40499500Y55467560D01*
X40480546Y55372272D01*
X40426570Y55291491D01*
X39708511Y54573431D01*
X39627729Y54519454D01*
X39532441Y54500500D01*
X23517561Y54500500D01*
X23422273Y54519454D01*
X23341491Y54573430D01*
X21027140Y56887780D01*
X21027139Y56887782D01*
X20887782Y57027139D01*
X20875466Y57035368D01*
X20732214Y57131086D01*
X20723914Y57136632D01*
X20569722Y57200500D01*
X20559418Y57204768D01*
X20541837Y57212051D01*
X20517756Y57216841D01*
X20445188Y57231276D01*
X20348541Y57250500D01*
X7951459Y57250500D01*
X7919389Y57244122D01*
X7919386Y57244122D01*
X7758168Y57212054D01*
X7758167Y57212053D01*
X7594288Y57144172D01*
X7499000Y57125218D01*
X7403712Y57144172D01*
X7322930Y57198149D01*
X7268954Y57278930D01*
X7250000Y57374218D01*
X7250000Y63675500D01*
X7268954Y63770788D01*
X7322930Y63851570D01*
X7403712Y63905546D01*
X7499000Y63924500D01*
X46901000Y63924500D01*
X46996288Y63905546D01*
G37*
%TD.AperFunction*%
%TD*%
M02*
