M48
; DRILL file {KiCad 8.0.6} date 2024-10-30T20:12:06+0700
; FORMAT={-:-/ absolute / inch / decimal}
; #@! TF.CreationDate,2024-10-30T20:12:06+07:00
; #@! TF.GenerationSoftware,Kicad,Pcbnew,8.0.6
; #@! TF.FileFunction,Plated,1,4,PTH
FMAT,2
INCH
; #@! TA.AperFunction,Plated,PTH,ViaDrill
T1C0.0157
; #@! TA.AperFunction,Plated,PTH,ComponentDrill
T2C0.0197
; #@! TA.AperFunction,Plated,PTH,ComponentDrill
T3C0.0236
; #@! TA.AperFunction,Plated,PTH,ComponentDrill
T4C0.0315
; #@! TA.AperFunction,Plated,PTH,ComponentDrill
T5C0.0394
; #@! TA.AperFunction,Plated,PTH,ComponentDrill
T6C0.0591
; #@! TA.AperFunction,Plated,PTH,ComponentDrill
T7C0.1260
; #@! TA.AperFunction,Plated,PTH,ComponentDrill
T8C0.1339
%
G90
G05
T1
X0.3169Y2.2146
X0.4331Y2.1063
X0.4823Y2.4803
X0.4823Y2.4114
X0.4823Y2.3425
X0.5315Y1.9094
X0.561Y2.4803
X0.5689Y2.0965
X0.5906Y1.8799
X0.6594Y1.8799
X0.7283Y1.8799
X0.7382Y2.4803
X0.7972Y2.4803
X0.8563Y1.8307
X0.8563Y1.7815
X0.9488Y1.6614
X0.9528Y1.0059
X0.9547Y1.5945
X0.9744Y1.4272
X1.0039Y1.0059
X1.0335Y1.5748
X1.0335Y1.4281
X1.0827Y1.8898
X1.122Y2.4803
X1.1713Y2.4803
X1.1909Y1.7185
X1.2106Y1.4272
X1.2205Y1.8602
X1.2402Y2.1063
X1.2894Y2.1063
X1.2992Y1.8898
X1.3287Y1.7126
X1.3386Y2.4803
X1.3386Y1.6516
X1.3484Y1.8504
X1.3484Y0.374
X1.3484Y0.315
X1.3484Y0.2264
X1.3484Y0.1673
X1.3583Y1.498
X1.3583Y1.4262
X1.3583Y1.3573
X1.374Y1.8031
X1.376Y1.7441
X1.376Y1.6929
X1.4026Y1.6289
X1.4075Y2.4803
X1.4272Y2.3622
X1.4272Y2.2638
X1.4272Y1.9094
X1.435Y1.3583
X1.4567Y0.6398
X1.4961Y1.624
X1.5157Y0.6398
X1.5157Y0.4724
X1.5551Y1.2795
X1.565Y0.6102
X1.624Y0.6004
X1.6535Y0.4429
X1.6634Y2.4902
X1.6732Y0.187
X1.6831Y0.9744
X1.6929Y1.2205
X1.6929Y1.1417
X1.7028Y1.7913
X1.7028Y0.2551
X1.7126Y1.5256
X1.7224Y2.3228
X1.7323Y2.2461
X1.7323Y2.0866
X1.7815Y1.2894
X1.7913Y0.6201
X1.811Y1.7224
X1.8406Y2.4902
X1.8406Y0.6004
X1.8957Y0.2323
X1.8976Y0.1811
X1.9193Y1.5748
X1.9488Y0.9252
X1.9488Y0.3937
X1.9587Y0.3248
X1.9587Y0.2854
X1.9587Y0.2461
X2.0177Y1.8898
X2.0374Y0.1083
X2.0748Y1.8661
X2.0768Y0.9547
X2.0768Y0.1083
X2.1063Y0.7874
X2.126Y0.9547
X2.1358Y1.8504
X2.1457Y0.7874
X2.1654Y1.2067
X2.1732Y1.1299
X2.1752Y1.9587
X2.185Y0.7874
X2.1949Y1.8209
X2.1949Y1.6437
X2.1949Y1.5846
X2.2047Y1.3829
X2.2293Y2.0325
X2.2343Y1.9587
X2.2441Y2.2047
X2.2539Y1.8209
X2.2579Y1.435
X2.2598Y1.5039
X2.2638Y1.3661
X2.2687Y0.935
X2.2776Y1.5413
X2.2835Y1.4685
X2.2874Y1.4035
X2.3031Y0.1083
X2.3228Y0.6496
X2.3327Y0.9744
X2.3425Y1.998
X2.3524Y0.1083
X2.3622Y2.4016
X2.3622Y1.6929
X2.372Y0.6496
X2.3819Y1.3681
X2.3819Y1.3091
X2.3819Y0.9252
X2.3858Y1.1929
X2.4213Y1.6535
X2.4213Y0.6496
X2.4311Y2.3524
X2.4311Y2.126
X2.4311Y2.0571
X2.4311Y1.9882
X2.435Y2.1811
X2.4508Y1.9154
X2.4705Y1.0728
X2.4705Y1.0138
X2.4902Y1.6535
X2.5Y2.3622
X2.5079Y1.9154
X2.5177Y2.1831
X2.5197Y1.7421
X2.5492Y1.5157
X2.5492Y1.4173
X2.5492Y1.3287
X2.5551Y1.2008
X2.5551Y1.1535
X2.5787Y2.2835
X2.5886Y0.1673
X2.5886Y0.1083
X2.5906Y0.7028
X2.6142Y0.5787
X2.628Y1.1417
X2.6299Y1.9134
X2.6378Y0.7028
X2.6575Y2.2835
X2.6575Y0.1673
X2.6575Y0.1083
X2.6831Y0.7028
X2.685Y0.9685
X2.689Y0.8346
X2.6929Y2.187
X2.6969Y1.5551
X2.7067Y1.811
X2.7067Y1.752
X2.7067Y1.4173
X2.7067Y1.2894
X2.7067Y1.1909
X2.7067Y1.1319
X2.7185Y0.5787
X2.7205Y0.6575
X2.7303Y0.9665
X2.7362Y2.2835
X2.7421Y2.187
X2.7461Y0.8465
X2.7559Y0.7972
X2.7756Y1.1417
X2.7854Y1.5551
X2.815Y2.3917
X2.8346Y1.8996
X2.8346Y0.8091
X2.8445Y1.8504
X2.8642Y0.9941
X2.8701Y0.8465
X2.874Y1.8012
X2.8839Y1.9587
X2.8839Y1.5157
X2.8839Y1.4173
X2.8839Y1.2894
X2.8839Y0.9055
X2.8839Y0.1083
X2.8917Y0.6181
X2.8937Y2.2579
X2.9035Y1.1319
X2.9134Y0.9941
X2.9331Y2.185
X2.9331Y0.8189
X2.9331Y0.1083
X2.9429Y1.9587
X2.9528Y1.1319
X2.9646Y0.565
X2.9783Y2.2579
X3.0118Y1.5551
X3.0118Y1.4764
X3.0118Y1.4173
X3.0118Y1.3484
X3.0118Y1.1516
X3.0217Y2.185
X3.0217Y2.1161
X3.0217Y2.0374
X3.0217Y1.9587
X3.063Y2.2598
X3.1102Y0.9252
X3.1457Y0.8248
X3.1575Y1.1339
X3.1693Y0.1575
X3.1693Y0.1083
X3.1752Y1.3169
X3.189Y0.5906
X3.2185Y1.2073
X3.2185Y1.1659
X3.2815Y0.0295
X3.2874Y1.3878
X3.3031Y1.5236
X3.3031Y1.4469
X3.3268Y0.8071
X3.3268Y0.3051
X3.3661Y0.9252
X3.376Y1.6437
X3.376Y1.5846
X3.376Y0.8071
X3.376Y0.3051
X3.4547Y1.6535
X3.5531Y2.2047
X3.5531Y2.0866
X3.5531Y1.9783
X3.5531Y1.8406
X3.5531Y1.7224
X3.5531Y1.624
X3.5531Y1.5157
X3.5531Y1.4173
X3.5531Y0.9252
X3.5531Y0.8169
X3.5531Y0.6988
X3.5531Y0.5709
X3.5531Y0.4528
X3.5531Y0.3642
X3.5531Y0.2992
T2
X0.0433Y2.3819
X0.0433Y0.1378
X0.071Y2.4487
X0.071Y2.3151
X0.071Y0.2046
X0.071Y0.071
X0.1378Y2.4764
X0.1378Y2.2874
X0.1378Y0.2323
X0.1378Y0.0433
X0.2046Y2.4487
X0.2046Y2.3151
X0.2046Y0.2046
X0.2046Y0.071
X0.2323Y2.3819
X0.2323Y0.1378
X3.3504Y2.3819
X3.3504Y0.1378
X3.3781Y2.4487
X3.3781Y2.3151
X3.3781Y0.2046
X3.3781Y0.071
X3.4449Y2.4764
X3.4449Y2.2874
X3.4449Y0.2323
X3.4449Y0.0433
X3.5117Y2.4487
X3.5117Y2.3151
X3.5117Y0.2046
X3.5117Y0.071
X3.5394Y2.3819
X3.5394Y0.1378
T4
X0.439Y0.5749
X0.439Y0.0749
X0.539Y0.5749
X0.539Y0.0749
X0.639Y0.5749
X0.639Y0.0749
X0.739Y0.5749
X0.739Y0.0749
X0.839Y0.5749
X0.839Y0.0749
X0.939Y0.5749
X0.939Y0.0749
X1.039Y0.5749
X1.039Y0.0749
X1.139Y0.5749
X1.139Y0.0749
T5
X1.8602Y1.35
X1.8602Y1.25
X1.8602Y1.15
X2.9323Y2.4311
X3.0323Y2.4311
X3.1323Y2.4311
X3.2323Y2.4311
X3.4744Y2.1563
X3.4744Y2.0563
X3.4744Y1.9563
X3.4744Y1.8563
T6
X0.4306Y1.7323
X0.4306Y1.6142
X0.4306Y1.4961
X0.4306Y1.378
X0.4306Y1.2598
X0.4306Y1.1417
X0.4306Y1.0236
X0.4306Y0.9055
X0.4306Y0.7874
X0.529Y1.6732
X0.529Y1.5551
X0.529Y1.437
X0.529Y1.3189
X0.529Y1.2008
X0.529Y1.0827
X0.529Y0.9646
X0.529Y0.8465
X0.6471Y1.6732
X0.6471Y1.5551
X0.6471Y1.437
X0.6471Y1.3189
X0.6471Y1.2008
X0.6471Y1.0827
X0.6471Y0.9646
X0.6471Y0.8465
X0.7456Y1.7323
X0.7456Y1.6142
X0.7456Y1.4961
X0.7456Y1.378
X0.7456Y1.2598
X0.7456Y1.1417
X0.7456Y1.0236
X0.7456Y0.9055
X0.7456Y0.7874
T7
X0.1378Y2.3819
X0.1378Y0.1378
X3.4449Y2.3819
X3.4449Y0.1378
T8
X0.1747Y2.0177
X0.1747Y0.502
T3
G00X3.3207Y1.337
M15
G01X3.364Y1.337
M16
G05
G00X3.3207Y0.9969
M15
G01X3.364Y0.9969
M16
G05
G00X3.4911Y1.337
M15
G01X3.5226Y1.337
M16
G05
G00X3.4911Y0.9969
M15
G01X3.5226Y0.9969
M16
G05
M30
